<?xml version="1.0" standalone="no"?>
<!DOCTYPE svg PUBLIC "-//W3C//DTD SVG 1.1//EN" "http://www.w3.org/Graphics/SVG/1.1/DTD/svg11.dtd" >
<svg xmlns="http://www.w3.org/2000/svg">
<metadata>
This is a custom SVG webfont generated by Fontspring.
Designer    : FontSite.com
Foundry URL : http://www.fontsite.com
</metadata>
<defs>
<font id="webfont" horiz-adv-x="511" >
<font-face units-per-em="1000" ascent="827" descent="-173" />
<missing-glyph horiz-adv-x="187" />
<glyph unicode=" "  horiz-adv-x="187" />
<glyph unicode="&#x09;" horiz-adv-x="187" />
<glyph unicode="&#xa0;" horiz-adv-x="187" />
<glyph unicode="!" horiz-adv-x="341" d="M126 199l-43 468h176l-44 -468h-89zM103 0v148h136v-148h-136z" />
<glyph unicode="&#x22;" d="M303 374l-19 293h129l-18 -293h-92zM116 374l-19 293h129l-19 -293h-91z" />
<glyph unicode="#" d="M69 0l31 204h-90l12 82h90l16 107h-89l12 81h89l30 193h86l-29 -193h99l29 193h86l-29 -193h90l-13 -81h-89l-16 -107h89l-12 -82h-90l-31 -204h-86l31 204h-99l-31 -204h-86zM198 286h99l16 107h-98z" />
<glyph unicode="$" d="M36 190l117 30q16 -98 107 -98q38 0 60 19.5t22 52.5q0 39 -38 59q-11 6 -102 38q-144 49 -144 179q0 90 62 142q36 31 99 41v69h75v-69q62 -8 104 -44.5t59 -98.5l-103 -42q-18 48 -39 67.5t-55 19.5q-30 0 -50 -19t-20 -48q0 -35 32 -53q12 -7 93 -37q85 -31 123 -75 t38 -113q0 -87 -59 -141q-24 -22 -51 -33t-72 -17v-90h-75v90q-147 15 -183 171z" />
<glyph unicode="%" horiz-adv-x="664" d="M159 327q-63 0 -97.5 45t-34.5 127t34.5 126.5t98.5 44.5q62 0 96.5 -45t34.5 -126q0 -82 -34.5 -127t-97.5 -45zM138 0l315 667h75l-314 -667h-76zM159 401q20 0 28.5 22.5t8.5 75.5q0 52 -8.5 74.5t-27.5 22.5q-21 0 -29.5 -22t-8.5 -75q0 -54 8.5 -76t28.5 -22z M373 169q0 82 34.5 126.5t98.5 44.5q62 0 96.5 -45t34.5 -127t-34.5 -126.5t-97.5 -44.5t-97.5 45t-34.5 127zM468 169q0 -54 8.5 -76t28.5 -22t28.5 22.5t8.5 75.5q0 52 -8.5 74.5t-27.5 22.5q-21 0 -29.5 -22t-8.5 -75z" />
<glyph unicode="&#x26;" horiz-adv-x="647" d="M105 42q-26 25 -42.5 65t-16.5 80q0 128 152 192q-62 84 -62 149q0 63 51 106t125 43q75 0 123 -44.5t48 -114.5q0 -99 -116 -161l93 -122q33 54 51 146l109 -19q-28 -121 -91 -213q37 -37 68 -37q4 0 23 2v-114q-31 -7 -51 -7q-38 0 -65.5 13.5t-63.5 49.5 q-50 -38 -88.5 -52t-92.5 -14q-100 0 -154 52zM311 434q60 34 60 91q0 26 -14 41t-38 15t-38 -14t-14 -37q0 -36 44 -96zM185 196q0 -44 26 -70t70 -26q51 0 93 39l-121 163q-68 -41 -68 -106z" />
<glyph unicode="'" horiz-adv-x="341" d="M125 374l-19 293h129l-19 -293h-91z" />
<glyph unicode="(" horiz-adv-x="341" d="M171 -167q-121 181 -121 417q0 238 121 417h108q-102 -189 -102 -417q0 -230 102 -417h-108z" />
<glyph unicode=")" horiz-adv-x="341" d="M62 -167q102 190 102 417t-102 417h108q121 -181 121 -417q0 -235 -121 -417h-108z" />
<glyph unicode="*" d="M214 312l12 123l-101 -69l-41 75l109 48l-109 49l41 75l101 -69l-12 123h83l-12 -123l101 69l41 -75l-109 -49l109 -48l-41 -75l-101 69l12 -123h-83z" />
<glyph unicode="+" d="M200 129v151h-149v106h149v152h110v-152h150v-106h-150v-151h-110z" />
<glyph unicode="," horiz-adv-x="256" d="M60 0v148h136v-134l-82 -172h-54l64 158h-64z" />
<glyph unicode="-" horiz-adv-x="273" d="M37 199v108h199v-108h-199z" />
<glyph unicode="." horiz-adv-x="256" d="M60 0v148h136v-148h-136z" />
<glyph unicode="/" horiz-adv-x="528" d="M-19 -167l406 834h93l-406 -834h-93z" />
<glyph unicode="0" d="M255 -10q-115 0 -168.5 83.5t-53.5 260.5q0 202 74 285q51 58 152 58q112 0 165.5 -84t53.5 -260t-54 -259.5t-169 -83.5zM256 97q42 0 55 45.5t13 191.5q0 144 -13 190t-54 46q-43 0 -56.5 -44.5t-13.5 -188.5q0 -149 13 -194.5t56 -45.5z" />
<glyph unicode="1" d="M99 0v109h112v394q-47 -50 -112 -84v131q81 41 147 122h112v-563h110v-109h-369z" />
<glyph unicode="2" d="M28 0v131q164 140 219 209t55 135q0 83 -62 83q-34 0 -53 -30.5t-26 -95.5l-133 27q9 54 21.5 85.5t37.5 62.5q55 70 163 70q93 0 149.5 -53t56.5 -141q0 -127 -135 -245q-60 -52 -144 -107h288l-10 -131h-427z" />
<glyph unicode="3" d="M74 53q-24 25 -37 54.5t-21 79.5l130 21q7 -53 27 -76t60 -23q36 0 56.5 24.5t20.5 67.5q0 55 -38 78q-32 17 -62 13h-2l-41 -1v108h41q48 0 69 17q26 20 26 66q0 81 -67 81q-31 0 -48.5 -18.5t-28.5 -63.5l-128 24q50 172 220 172q93 0 145 -47.5t52 -132.5 q0 -53 -23.5 -88t-75.5 -60q112 -35 112 -159q0 -92 -58.5 -146t-159.5 -54q-109 0 -169 63z" />
<glyph unicode="4" d="M25 157v114l227 406h159v-406h75v-114h-75v-157h-146v157h-240zM129 263h147v275z" />
<glyph unicode="5" d="M87 56q-44 46 -53 122l133 22q8 -49 28.5 -70t58.5 -21q40 0 61.5 28t21.5 80q0 50 -23 78.5t-63 28.5q-28 0 -44.5 -12t-28.5 -40l-115 22l24 373h356l-14 -131h-235l-9 -150q46 57 114 57q62 0 111 -39q69 -55 69 -179q0 -111 -59.5 -173t-165.5 -62t-167 66z" />
<glyph unicode="6" d="M135 41q-84 81 -84 288q0 180 68 271q59 77 162 77q65 0 111 -31q36 -24 55 -56t32 -90l-119 -36q-15 106 -84 106q-63 0 -80 -92q-7 -38 -10 -133q25 41 53 58.5t70 17.5q52 0 95 -30q79 -57 79 -181q0 -103 -56 -161.5t-154 -58.5q-86 0 -138 51zM193 202 q0 -50 19.5 -77.5t54.5 -27.5q74 0 74 114q0 103 -70 103q-78 0 -78 -112z" />
<glyph unicode="7" d="M144 0q2 304 196 536h-282l11 131h396v-113q-159 -205 -162 -554h-159z" />
<glyph unicode="8" d="M30 173q0 54 24 89t85 67q-48 32 -69 69t-21 88q0 83 54 135q56 56 161 56q94 0 147 -45t53 -125q0 -48 -19.5 -81.5t-65.5 -61.5q103 -63 103 -173q0 -85 -56 -139q-62 -62 -178 -62q-103 0 -160.5 48.5t-57.5 134.5zM291 408q27 27 37 46.5t10 44.5q0 37 -20 59.5 t-54 22.5t-55.5 -20.5t-21.5 -52.5q0 -30 23.5 -52.5t80.5 -47.5zM159 183q0 -42 26 -67t70 -25q39 0 64.5 22t25.5 56q0 37 -34 65q-24 18 -88 47l-8 -5q-56 -38 -56 -93z" />
<glyph unicode="9" d="M101 37q-38 37 -59 116l128 24q9 -44 25 -62t47 -18q82 0 82 183q0 15 -1 27q-43 -60 -116 -60q-79 0 -129.5 60t-50.5 153q0 111 72 172q52 45 139 45q113 0 167.5 -82t54.5 -252q0 -353 -224 -353q-86 0 -135 47zM243 366q75 0 75 102q0 47 -20 74.5t-54 27.5 q-35 0 -55 -27t-20 -75q0 -102 74 -102z" />
<glyph unicode=":" horiz-adv-x="256" d="M60 346v147h136v-148zM60 0v148h136v-148h-136z" />
<glyph unicode=";" horiz-adv-x="256" d="M60 346v147h136v-148zM60 0v148h136v-134l-82 -172h-54l64 158h-64z" />
<glyph unicode="&#x3c;" d="M39 271v125l433 227v-148l-275 -142l274 -142l1 -147z" />
<glyph unicode="=" d="M51 362v106h409v-106h-409zM51 199v106h409v-106h-409z" />
<glyph unicode="&#x3e;" d="M39 44v148l275 142l-274 142l-1 147l433 -227v-125z" />
<glyph unicode="?" horiz-adv-x="477" d="M161 191v22q0 72 11 98.5t61 73.5q49 46 49 108q0 30 -15.5 47.5t-41.5 17.5q-43 0 -60 -44q-10 -23 -11 -76l-125 17q4 107 57 164.5t148 57.5q90 0 143 -50.5t53 -136.5q0 -59 -29 -108q-18 -32 -69 -76q-38 -34 -46 -51t-8 -64h-117zM154 0v142h131v-142h-131z" />
<glyph unicode="@" horiz-adv-x="630" d="M134 -32q-55 44 -85.5 119t-30.5 163q0 158 87 258t226 100q128 0 204.5 -82t76.5 -218q0 -105 -51 -179.5t-123 -74.5q-29 0 -45.5 12.5t-27.5 43.5q-33 -57 -86 -57q-46 0 -74.5 46t-28.5 119q0 91 41 153.5t101 62.5q47 0 72 -51l6 44h68l-29 -204q-5 -34 -5 -61 q0 -33 22 -33q31 0 54.5 51.5t23.5 120.5q0 110 -52.5 172t-146.5 62q-102 0 -164 -77.5t-62 -204.5q0 -130 63.5 -205t172.5 -75q92 0 174 54l27 -65q-97 -62 -205 -62q-120 0 -203 68zM304 144q26 0 36 24q17 36 17 109q0 66 -33 66q-26 0 -41.5 -34.5t-15.5 -91.5 q0 -73 37 -73z" />
<glyph unicode="A" d="M-20 0l200 667h148l190 -667h-150l-33 137h-188l-32 -137h-135zM175 252h132l-67 272z" />
<glyph unicode="B" horiz-adv-x="562" d="M63 0v667h228q64 0 96 -6t57 -23q29 -19 46.5 -59.5t17.5 -87.5q0 -57 -22.5 -90t-73.5 -53q113 -40 113 -164q0 -47 -20 -88.5t-53 -64.5q-28 -19 -60.5 -25t-100.5 -6h-228zM204 398h47q58 0 81 17q27 20 27 66q0 41 -23 59.5t-74 18.5h-58v-161zM204 115h72 q100 0 100 87q0 46 -23.5 67t-76.5 21h-72v-175z" />
<glyph unicode="C" horiz-adv-x="545" d="M290 -10q-120 0 -185.5 89.5t-65.5 253.5q0 165 66 254.5t187 89.5q126 0 185 -98q35 -56 43 -160l-134 -10q-5 76 -21 104q-26 45 -72 45q-53 0 -76.5 -56t-23.5 -180q0 -113 23.5 -163t76.5 -50q78 0 94 134l136 -9q-9 -113 -71 -178.5t-162 -65.5z" />
<glyph unicode="D" horiz-adv-x="562" d="M63 0v667h157q138 0 206 -51q49 -37 75.5 -109t26.5 -168q0 -104 -31 -182.5t-87 -116.5q-35 -23 -70 -31.5t-102 -8.5h-175zM209 115h25q40 0 62 9.5t39 34.5q38 53 38 182q0 126 -43 176q-17 20 -37.5 27.5t-58.5 7.5h-25v-437z" />
<glyph unicode="E" horiz-adv-x="477" d="M63 0v667h405v-115h-259v-154h202v-115h-202v-164h259v-119h-405z" />
<glyph unicode="F" horiz-adv-x="443" d="M63 0v667h395v-115h-249v-174h192v-115h-192v-263h-146z" />
<glyph unicode="G" horiz-adv-x="579" d="M285 -10q-114 0 -180.5 90t-66.5 245q0 209 105 300q59 52 155 52q105 0 159.5 -54.5t70.5 -173.5l-132 -22q-10 65 -23 88q-25 43 -73 43q-108 0 -108 -227q0 -115 27.5 -168.5t86.5 -53.5q55 0 78 54q9 23 12 78h-100v115h232v-356h-62l-19 76q-57 -86 -162 -86z" />
<glyph unicode="H" horiz-adv-x="579" d="M63 0v667h146v-269h161v269h146v-667h-146v273h-161v-273h-146z" />
<glyph unicode="I" horiz-adv-x="272" d="M63 0v667h146v-667h-146z" />
<glyph unicode="J" horiz-adv-x="324" d="M-5 0v122q42 -6 59 -6q39 0 51.5 21t12.5 87v443h146v-443q0 -80 -9.5 -121.5t-34.5 -67.5q-40 -45 -135 -45q-30 0 -90 10z" />
<glyph unicode="K" horiz-adv-x="528" d="M63 0v667h146v-278l162 278h148l-167 -245l181 -422h-151l-118 307l-55 -81v-226h-146z" />
<glyph unicode="L" horiz-adv-x="426" d="M63 0v667h146v-542h215v-125h-361z" />
<glyph unicode="M" horiz-adv-x="749" d="M63 0v667h215l94 -412l106 412h208v-667h-137v558l-136 -558h-107l-124 558v-558h-119z" />
<glyph unicode="N" horiz-adv-x="562" d="M57 0v667h163l170 -414v414h114v-667h-131l-202 483v-483h-114z" />
<glyph unicode="O" horiz-adv-x="562" d="M281 -10q-119 0 -180.5 87t-61.5 254q0 346 245 346q100 0 159 -64q80 -87 80 -280q0 -169 -61.5 -256t-180.5 -87zM281 109q49 0 68.5 50t19.5 175q0 124 -19.5 174t-67.5 50q-50 0 -69.5 -49.5t-19.5 -173.5q0 -126 19.5 -176t68.5 -50z" />
<glyph unicode="P" d="M63 0v667h191q72 0 107.5 -7t63.5 -26q78 -53 78 -176q0 -126 -76 -177q-29 -20 -65.5 -27.5t-100.5 -7.5h-52v-246h-146zM209 361h45q51 0 72.5 23t21.5 78q0 54 -27 79q-18 18 -67 18h-45v-198z" />
<glyph unicode="Q" horiz-adv-x="562" d="M119 54q-80 87 -80 280q0 169 61.5 256t180.5 87t180.5 -87t61.5 -254q0 -125 -28.5 -198.5t-93.5 -118.5q1 -28 11.5 -39t36.5 -11q22 0 50 8v-106q-33 -9 -62 -9q-64 0 -96 30.5t-37 98.5q-12 -1 -28 -1q-98 0 -157 64zM281 109q49 0 68.5 50t19.5 175q0 124 -19.5 174 t-67.5 50q-50 0 -69.5 -49.5t-19.5 -173.5q0 -126 19.5 -176t68.5 -50z" />
<glyph unicode="R" horiz-adv-x="545" d="M63 0v667h209q67 0 98 -7t60 -28q72 -53 72 -167q0 -64 -22 -104t-72 -70l123 -291h-160l-89 263h-73v-263h-146zM209 371h64q86 0 86 97q0 51 -29 75q-19 16 -63 16h-58v-188z" />
<glyph unicode="S" d="M16 173l128 36q14 -53 39.5 -76.5t67.5 -23.5q38 0 61.5 20t23.5 52q0 29 -20 47t-72 37q-65 23 -90 35t-49 33q-62 51 -62 140q0 92 59 148t155 56q90 0 148 -47q42 -33 66 -108l-122 -47q-26 83 -94 83q-31 0 -50.5 -17.5t-19.5 -43.5q0 -32 30 -51q25 -16 85 -38 q81 -30 118 -61q66 -54 66 -144q0 -96 -65 -154.5t-171 -58.5q-182 0 -232 183z" />
<glyph unicode="T" horiz-adv-x="392" d="M121 0v542h-133v125h416v-125h-136v-542h-147z" />
<glyph unicode="U" horiz-adv-x="579" d="M108 58q-26 34 -35.5 82.5t-9.5 145.5v381h146v-381q0 -99 12 -127q21 -50 83 -50q59 0 79 50q10 27 10 127v381h123v-375q0 -110 -10 -157.5t-41 -80.5q-59 -64 -174 -64q-130 0 -183 68z" />
<glyph unicode="V" horiz-adv-x="460" d="M146 0l-160 667h154l102 -508l106 508h126l-164 -670z" />
<glyph unicode="W" horiz-adv-x="715" d="M140 -3l-145 670h150l70 -462l87 462h134l82 -463l82 463h123l-143 -670h-131l-89 463l-91 -463h-129z" />
<glyph unicode="X" horiz-adv-x="477" d="M-15 0l183 342l-163 325h163l80 -174l84 174h140l-157 -301l177 -366h-160l-98 218l-109 -218h-140z" />
<glyph unicode="Y" horiz-adv-x="443" d="M139 0v282l-167 385h161l94 -244l100 244h143l-185 -385v-282h-146z" />
<glyph unicode="Z" horiz-adv-x="460" d="M1 0v102l281 446h-261v119h429v-104l-279 -444h288v-119h-458z" />
<glyph unicode="[" horiz-adv-x="341" d="M73 -167v834h206v-62h-84v-710h84v-62h-206z" />
<glyph unicode="\" horiz-adv-x="528" d="M456 -167l-407 834h93l406 -834h-92z" />
<glyph unicode="]" horiz-adv-x="341" d="M62 -105h84v710h-84v62h206v-834h-206v62z" />
<glyph unicode="^" horiz-adv-x="500" d="M15 351l152 319h166l151 -319h-132l-102 219l-103 -219h-132z" />
<glyph unicode="_" horiz-adv-x="500" d="M0 -57h500v-89h-500v89z" />
<glyph unicode="`" horiz-adv-x="460" d="M277 546l-180 113l55 82l166 -154z" />
<glyph unicode="a" horiz-adv-x="477" d="M35 125q0 54 24.5 93.5t69.5 56.5q64 25 160 31v19q0 50 -10.5 68.5t-38.5 18.5t-41 -17t-17 -58l-130 12q11 75 62 114.5t137 39.5q97 0 145 -53q18 -19 24.5 -49.5t6.5 -94.5v-196q0 -86 8 -110h-128q-7 24 -7 60v15q-21 -35 -37 -50q-40 -35 -98 -35q-60 0 -95 36.5 t-35 98.5zM177 143q0 -62 46 -62q27 0 47 31q19 30 19 100v24q-63 -8 -87.5 -28t-24.5 -65z" />
<glyph unicode="b" horiz-adv-x="477" d="M51 0v667h135v-220q43 53 103 53q74 0 116.5 -66.5t42.5 -183.5q0 -125 -45.5 -192.5t-130.5 -67.5q-42 0 -68.5 17t-45.5 57q-13 -24 -26 -64h-81zM195 119q14 -34 49 -34q34 0 48 36.5t14 124.5q0 89 -13.5 126t-46.5 37q-37 0 -51 -32q-9 -19 -9 -58v-114q0 -63 9 -86 z" />
<glyph unicode="c" horiz-adv-x="443" d="M226 -10q-96 0 -146 65.5t-50 191.5q0 124 53 190t151 66q82 0 132 -51q26 -28 38 -58.5t16 -81.5l-129 -5q-3 49 -15.5 70t-38.5 21q-69 0 -69 -146q0 -79 16 -115t51 -36q27 0 40 21t16 70l129 -8q-22 -194 -194 -194z" />
<glyph unicode="d" horiz-adv-x="477" d="M187 -7q-75 0 -116 66t-41 187t43 187.5t120 66.5q66 0 99 -53v220h135v-667h-127v82q-19 -49 -44.5 -69t-68.5 -20zM178 149q10 -60 53 -60q32 0 46.5 26t14.5 84v87q0 56 -12 90q-12 33 -48 33q-32 0 -46 -32.5t-14 -106.5q0 -89 6 -121z" />
<glyph unicode="e" horiz-adv-x="460" d="M235 -10q-98 0 -151.5 65.5t-53.5 184.5q0 124 54 193.5t151 69.5q52 0 95 -24t65 -66q20 -38 27.5 -77.5t8.5 -111.5h-259v-26q0 -60 15.5 -86.5t50.5 -26.5q32 0 48.5 20t21.5 65l123 -8q-15 -73 -52 -115q-51 -57 -144 -57zM173 303h128q0 51 -10 74q-16 35 -54 35 q-32 0 -47 -26t-17 -83z" />
<glyph unicode="f" horiz-adv-x="290" d="M74 0v385h-56v108h56q2 69 8.5 98.5t25.5 51.5q42 50 126 50q30 0 65 -5v-107q-28 2 -31 2q-40 0 -51 -16t-11 -74h87v-108h-87v-385h-132z" />
<glyph unicode="g" horiz-adv-x="460" d="M21 -57q0 34 18.5 55.5t61.5 36.5q-64 31 -64 86q0 44 35 74q17 16 50 34q-41 23 -57 50.5t-16 73.5q0 70 49 110t135 40q53 0 106 -22q8 55 28 76.5t65 21.5q19 0 38 -5v-89q-20 3 -30 3q-42 0 -52 -44q37 -40 37 -98q0 -66 -49.5 -107t-128.5 -41q-29 0 -65 8 q-32 -18 -32 -41q0 -17 19 -24q11 -5 98 -10q72 -4 99.5 -11t50.5 -24q47 -35 47 -105q0 -165 -242 -165q-201 0 -201 117zM239 272q24 0 34 18t10 60q0 79 -43 79q-26 0 -37.5 -19.5t-11.5 -63.5q0 -74 48 -74zM135 -38q0 -50 109 -50q54 0 77.5 12t23.5 40q0 27 -20 39 q-18 10 -86 13q-30 1 -62 5q-42 -21 -42 -59z" />
<glyph unicode="h" horiz-adv-x="477" d="M51 0v667h137v-226q22 34 50 48t72 14q80 0 108 -60q16 -32 16 -127v-316h-137v316q0 49 -9.5 64.5t-38.5 15.5q-34 0 -47.5 -18.5t-13.5 -64.5v-313h-137z" />
<glyph unicode="i" horiz-adv-x="238" d="M49 534v136h140v-136h-140zM50 0v493h137v-493h-137z" />
<glyph unicode="j" horiz-adv-x="239" d="M54 534v136h140v-136h-140zM56 20v473h137v-477q0 -108 -19 -142q-30 -55 -108 -55q-24 0 -74 7v113q9 -2 18 -2q30 0 39 17q7 13 7 66z" />
<glyph unicode="k" horiz-adv-x="460" d="M51 0v667h137v-364l139 190h125l-125 -165l137 -328h-148l-77 229l-51 -70v-159h-137z" />
<glyph unicode="l" horiz-adv-x="239" d="M51 0v667h137v-667h-137z" />
<glyph unicode="m" horiz-adv-x="698" d="M51 0v493h131v-67q34 77 119 77q45 0 69.5 -18t36.5 -59q19 41 47.5 59t74.5 18q80 0 109 -53q17 -33 17 -128v-322h-137v308q0 56 -8 72t-36 16q-31 0 -41 -21.5t-10 -87.5v-287h-137v312q0 50 -5 63q-9 21 -39 21q-32 0 -43 -22.5t-11 -86.5v-287h-137z" />
<glyph unicode="n" horiz-adv-x="477" d="M51 0v493h131v-67q19 41 47.5 59t76.5 18q78 0 110 -56q18 -32 18 -124v-323h-137v323q0 43 -10 58t-38 15q-44 0 -56 -37q-5 -16 -5 -70v-289h-137z" />
<glyph unicode="o" horiz-adv-x="460" d="M230 -10q-200 0 -200 255q0 258 203 258q198 0 198 -257q0 -256 -201 -256zM231 86q32 0 45 35.5t13 124.5t-12.5 125t-44.5 36q-34 0 -47 -35t-13 -125q0 -91 13 -126t46 -35z" />
<glyph unicode="p" horiz-adv-x="477" d="M51 -167v660h127v-74q24 45 49 63t63 18q74 0 116 -65.5t42 -182.5q0 -124 -43.5 -191.5t-123.5 -67.5q-54 0 -95 44v-204h-135zM194 116q12 -28 50 -28q36 0 49 35t13 131q0 87 -12.5 121t-45.5 34q-44 0 -57 -49q-5 -19 -5 -65v-93q0 -65 8 -86z" />
<glyph unicode="q" horiz-adv-x="477" d="M97 29q-67 67 -67 216q0 183 90 235q34 20 77 20q38 0 65 -16t52 -55q23 28 38 64h75q-4 -49 -4 -126v-534h-135v218q-41 -58 -101 -58q-52 0 -90 36zM176 154q3 -31 17 -48.5t37 -17.5q32 0 45 31t13 105v73q0 61 -13 86.5t-45 25.5q-35 0 -46.5 -29.5t-11.5 -120.5 q0 -57 4 -105z" />
<glyph unicode="r" horiz-adv-x="307" d="M51 0v493h121v-119q19 66 46.5 96t69.5 30q8 0 24 -3v-134q-18 2 -23 2q-101 0 -101 -152v-213h-137z" />
<glyph unicode="s" horiz-adv-x="409" d="M64 37q-34 31 -45 99l109 18q16 -73 78 -73q55 0 55 46q0 24 -15 36t-64 28q-78 25 -113 62t-35 93q0 70 49 113.5t126 43.5q72 0 118 -43q34 -31 49 -85l-98 -30q-22 67 -72 67q-20 0 -31.5 -12t-11.5 -31q0 -24 15.5 -36.5t66.5 -30.5q73 -25 100 -48q46 -38 46 -103 q0 -72 -52 -116.5t-135 -44.5q-90 0 -140 47z" />
<glyph unicode="t" horiz-adv-x="307" d="M93 45q-14 23 -18 49.5t-4 94.5v196h-55v108h62l11 146l116 10v-156h90v-108h-90v-181q0 -50 2 -63.5t10 -22.5q13 -14 48 -14q15 0 37 1v-105q-51 -10 -83 -10q-91 0 -126 55z" />
<glyph unicode="u" horiz-adv-x="477" d="M67 34q-14 21 -18.5 47.5t-4.5 91.5v320h137v-316q0 -45 5 -56q10 -24 43 -24q41 0 54 35q7 21 7 109v252h137v-493h-129v67q-29 -46 -54.5 -61.5t-73.5 -15.5q-73 0 -103 44z" />
<glyph unicode="v" horiz-adv-x="358" d="M128 0l-139 493h132l68 -291l69 291h114l-135 -493h-109z" />
<glyph unicode="w" horiz-adv-x="579" d="M116 0l-124 493h134l58 -300l55 300h134l45 -300l66 300h108l-123 -493h-116l-63 335l-62 -335h-112z" />
<glyph unicode="x" horiz-adv-x="375" d="M-24 0l146 252l-127 241h149l53 -114l63 114h120l-127 -217l146 -276h-149l-72 148l-83 -148h-119z" />
<glyph unicode="y" horiz-adv-x="358" d="M7 -59q27 -3 40 -3q39 0 54 12.5t28 58.5l-142 484h137l67 -301l64 301h119l-149 -501q-19 -63 -30 -87.5t-29 -43.5q-36 -36 -100 -36q-26 0 -59 8v108z" />
<glyph unicode="z" horiz-adv-x="358" d="M20 0v98l179 297h-162v98h308v-88l-183 -307h187v-98h-329z" />
<glyph unicode="{" horiz-adv-x="341" d="M92 -14v126q0 72 -6.5 86.5t-42.5 17.5v81q36 3 42.5 17.5t6.5 86.5v113q0 91 25.5 122t102.5 31q24 0 47 -1v-66q-38 -1 -46.5 -14.5t-8.5 -71.5v-108q0 -89 -8.5 -111t-50.5 -38q42 -17 50.5 -38.5t8.5 -110.5v-122q0 -58 8.5 -71.5t46.5 -15.5v-65q-27 -1 -49 -1 q-75 0 -100.5 31t-25.5 122z" />
<glyph unicode="|" horiz-adv-x="500" d="M175 -167v834h150v-834h-150z" />
<glyph unicode="}" horiz-adv-x="341" d="M74 -101q38 2 46.5 15.5t8.5 71.5v122q0 89 8.5 110.5t50.5 38.5q-42 16 -50.5 38t-8.5 111v108q0 58 -8.5 71.5t-46.5 14.5v66q26 1 49 1q74 0 100 -31t26 -122v-113q0 -72 6.5 -86.5t42.5 -17.5v-81q-36 -3 -42.5 -17.5t-6.5 -86.5v-126q0 -91 -25.5 -122t-101.5 -31 q-25 0 -48 1v65z" />
<glyph unicode="~" horiz-adv-x="667" d="M166 552l-73 61q55 136 149 136q31 0 112 -34q58 -25 78 -25q38 0 72 62l72 -61q-30 -73 -65.5 -103.5t-90.5 -30.5q-21 0 -39 5.5t-72 29.5q-49 22 -73 22q-37 0 -70 -62z" />
<glyph unicode="&#xa1;" horiz-adv-x="341" d="M103 345v148h136v-148h-136zM83 -174l43 468h89l44 -468h-176z" />
<glyph unicode="&#xa2;" d="M155 126q-88 61 -88 213q0 150 84 214q30 23 77 27v90h71v-90q63 -7 101 -54t45 -124l-116 -7q-5 47 -19.5 68t-43.5 21q-34 0 -48 -32.5t-14 -109.5q0 -78 14 -109.5t48 -31.5q36 0 49 29q8 17 14 59l116 -11q-21 -162 -146 -179v-106h-71v106q-44 7 -73 27z" />
<glyph unicode="&#xa3;" d="M8 0v114h51q32 0 47 7t27 27q20 35 20 107q0 20 -4 51h-76v102h59q-6 47 -6 80q0 88 48.5 138.5t133.5 50.5q70 0 110 -29.5t59 -96.5l-106 -50q-16 69 -62 69q-45 0 -45 -68q0 -24 2 -41q1 -9 2 -19t1.5 -14.5t0.5 -5.5l1 -14h112v-102h-98q1 -13 1 -26q0 -57 -16 -92.5 t-59 -73.5h74q64 0 94 20.5t50 79.5l108 -40q-20 -88 -64 -127q-31 -28 -68.5 -37.5t-119.5 -9.5h-277z" />
<glyph unicode="&#xa4;" d="M109 126l-70 70l64 65q-21 39 -21 83q0 40 20 80l-65 65l73 73l65 -65q40 20 81 20q42 0 83 -21l64 65l70 -70l-64 -65q21 -39 21 -82q0 -41 -20 -81l65 -65l-74 -73l-64 64q-42 -19 -81 -19q-44 0 -83 21zM255 266q33 0 56 22.5t23 54.5t-23 55t-55 23t-55 -23t-23 -55 q0 -31 23 -54t54 -23z" />
<glyph unicode="&#xa5;" d="M189 0v201h-150v73h150l-25 60h-125v73h94l-109 260h142l100 -271l107 271h114l-110 -260h100v-73h-131l-25 -60h156v-73h-156v-201h-132z" />
<glyph unicode="&#xa6;" horiz-adv-x="500" d="M175 315v352h150v-352h-150zM175 153h150v-320h-150v320z" />
<glyph unicode="&#xa7;" d="M53 -16l114 20q10 -41 31.5 -59t60.5 -18q36 0 55.5 17t19.5 49q0 38 -40 64q-23 16 -119 57q-105 47 -105 149q0 86 77 134q-30 28 -42 54t-12 63q0 75 48.5 119t131.5 44q88 0 139 -46q27 -24 47 -79l-102 -31q-10 35 -28 50t-50 15q-28 0 -45.5 -15t-17.5 -40 q0 -26 20 -43q16 -12 77 -40q70 -32 100 -64q38 -41 38 -105q0 -42 -14.5 -71t-51.5 -60q39 -29 55.5 -60.5t16.5 -77.5q0 -82 -54 -130t-145 -48q-107 0 -161 59q-27 29 -44 93zM216 239q25 -17 83 -42l16 -7q26 22 26 59q0 32 -29 53q-15 10 -83 45l-16 9q-29 -28 -29 -58 q0 -36 32 -59z" />
<glyph unicode="&#xa8;" horiz-adv-x="460" d="M311 568q-22 0 -38 16t-16 38q0 23 16 39t38 16q23 0 39 -16t16 -39q0 -22 -16 -38t-39 -16zM146 568q-22 0 -38 16t-16 38q0 23 16 39t39 16q22 0 38 -16t16 -39q0 -22 -16 -38t-39 -16z" />
<glyph unicode="&#xa9;" horiz-adv-x="779" d="M40 333q0 143 102.5 244.5t247.5 101.5q146 0 247.5 -101.5t101.5 -246.5q0 -143 -103.5 -243t-251.5 -100q-140 0 -242 102.5t-102 242.5zM125 333q0 -109 77 -188.5t183 -79.5q112 0 190.5 77.5t78.5 188.5q0 112 -77 191.5t-187 79.5t-187.5 -78.5t-77.5 -190.5z M227 331q0 100 44.5 154t126.5 54q144 0 156 -160l-100 -7q-4 48 -16 67.5t-39 19.5q-58 0 -58 -132q0 -64 13.5 -92t44.5 -28q46 0 55 79l102 -6q-6 -72 -48 -112.5t-111 -40.5q-80 0 -125 53.5t-45 150.5z" />
<glyph unicode="&#xaa;" horiz-adv-x="324" d="M113 261q-41 0 -66 23.5t-25 62.5q0 104 166 111v12q0 20 -6 28.5t-20 8.5t-20.5 -7.5t-8.5 -26.5l-99 9q20 91 134 91q71 0 102 -37q18 -23 18 -85v-113q0 -50 8 -71h-87q-4 27 -5 42q-37 -48 -91 -48zM151 327q37 0 37 70v5q-35 -2 -48.5 -11.5t-13.5 -33.5 q0 -30 25 -30z" />
<glyph unicode="&#xab;" horiz-adv-x="443" d="M322 81l-103 175l103 175h73l-61 -175l61 -175h-73zM152 81l-103 175l103 175h72l-61 -175l61 -175h-72z" />
<glyph unicode="&#xac;" horiz-adv-x="500" d="M33 160v131h433v-291h-145v160h-288z" />
<glyph unicode="&#xad;" horiz-adv-x="273" d="M37 199v108h199v-108h-199z" />
<glyph unicode="&#xae;" horiz-adv-x="779" d="M40 333q0 143 102.5 244.5t247.5 101.5q146 0 247.5 -101.5t101.5 -246.5q0 -143 -103.5 -243t-251.5 -100q-140 0 -242 102.5t-102 242.5zM125 333q0 -109 77 -188.5t183 -79.5q112 0 190.5 77.5t78.5 188.5q0 112 -77 191.5t-187 79.5t-187.5 -78.5t-77.5 -190.5z M246 133v400h133q44 0 65.5 -4t40.5 -17q51 -32 51 -102t-60 -103l75 -174h-119l-51 154h-26v-154h-109zM355 361h25q50 0 50 51q0 25 -13 36t-41 11h-21v-98z" />
<glyph unicode="&#xaf;" horiz-adv-x="460" d="M93 584v72h274v-72h-274z" />
<glyph unicode="&#xb0;" d="M256 359q-66 0 -112.5 46.5t-46.5 112.5q0 67 46.5 113t114.5 46q64 0 110.5 -47t46.5 -112q0 -66 -46.5 -112.5t-112.5 -46.5zM256 439q28 0 48 23.5t20 55.5q0 33 -20 56.5t-47 23.5q-29 0 -49 -23t-20 -57q0 -32 20 -55.5t48 -23.5z" />
<glyph unicode="&#xb1;" d="M200 140v140h-149v106h149v152h110v-152h150v-106h-150v-140h-110zM51 -11v106h409v-106h-409z" />
<glyph unicode="&#xb2;" horiz-adv-x="341" d="M16 267v87q106 82 140.5 120.5t34.5 74.5q0 39 -31 39q-20 0 -30 -17t-14 -57l-101 19q12 72 48.5 106t102.5 34q63 0 101.5 -33t38.5 -86q0 -71 -77 -133q-23 -19 -95 -63h178l-8 -91h-288z" />
<glyph unicode="&#xb3;" horiz-adv-x="341" d="M49 299q-30 29 -41 90l99 15q4 -33 14.5 -45.5t35.5 -12.5q41 0 41 45q0 46 -58 46h-34v73h34q29 0 41 9.5t12 32.5q0 40 -36 40q-32 0 -42 -49l-98 16q34 114 151 114q61 0 97.5 -29t36.5 -79q0 -31 -14.5 -51t-50.5 -37q73 -25 73 -95q0 -55 -40.5 -88t-107.5 -33 q-72 0 -113 38z" />
<glyph unicode="&#xb4;" horiz-adv-x="460" d="M223 546l-41 41l166 154l55 -82z" />
<glyph unicode="&#xb5;" horiz-adv-x="477" d="M44 -167v660h137v-252q0 -92 6 -111q9 -33 49 -33q41 0 50 40q4 20 4 104v252h137v-493h-129v67q-10 -45 -23 -61t-40 -16q-26 0 -39 16t-23 61v-234h-129z" />
<glyph unicode="&#xb6;" horiz-adv-x="545" d="M74 303q-53 51 -53 163q0 61 20.5 107.5t57.5 69.5q23 14 51.5 19t85.5 5h232v-834h-78v755h-48v-755h-78v425h-35q-62 0 -96 10t-59 35z" />
<glyph unicode="&#xb7;" horiz-adv-x="256" d="M60 183v147h136v-148z" />
<glyph unicode="&#xb8;" horiz-adv-x="460" d="M176 -89l32 89h57l-20 -49q12 1 20 1q35 0 57 -22t22 -56q0 -38 -27.5 -60.5t-73.5 -22.5q-48 0 -107 35l16 40q51 -24 79 -24q16 0 25.5 8t9.5 22q0 18 -16 30t-41 12q-7 0 -33 -3z" />
<glyph unicode="&#xb9;" horiz-adv-x="341" d="M62 266v79h72v201q-36 -27 -72 -43v93q61 28 98 74h84v-325h70v-79h-252z" />
<glyph unicode="&#xba;" horiz-adv-x="307" d="M153 261q-136 0 -136 156t138 156q66 0 100.5 -39.5t34.5 -115.5q0 -157 -137 -157zM154 332q16 0 22.5 18.5t6.5 66.5q0 47 -6.5 66t-22.5 19q-17 0 -23.5 -19t-6.5 -66q0 -48 6.5 -66.5t23.5 -18.5z" />
<glyph unicode="&#xbb;" horiz-adv-x="443" d="M219 81l61 175l-61 175h73l103 -175l-103 -175h-73zM49 81l61 175l-61 175h73l102 -175l-102 -175h-73z" />
<glyph unicode="&#xbc;" horiz-adv-x="801" d="M51 266v79h72v201q-36 -27 -72 -43v93q61 28 98 74h84v-325h70v-79h-252zM199 0l315 667h87l-315 -667h-87zM458 90v76l148 240h115v-235h48v-81h-48v-90h-110v90h-153zM532 161h89v152z" />
<glyph unicode="&#xbd;" horiz-adv-x="801" d="M54 266v79h72v201q-36 -27 -72 -43v93q61 28 98 74h84v-325h70v-79h-252zM200 0l314 667h87l-314 -667h-87zM457 0v87q103 78 139 118.5t36 76.5q0 39 -31 39q-20 0 -30.5 -17t-13.5 -57l-101 19q13 72 49.5 106t100.5 34t102.5 -33t38.5 -86q0 -70 -77 -133 q-23 -19 -95 -63h178l-8 -91h-288z" />
<glyph unicode="&#xbe;" horiz-adv-x="801" d="M72 299q-30 29 -41 90l99 15q4 -33 14.5 -45.5t35.5 -12.5q41 0 41 45q0 46 -58 46h-34v73h34q29 0 41 9.5t12 32.5q0 40 -36 40q-32 0 -42 -49l-98 16q34 114 151 114q61 0 97.5 -29t36.5 -79q0 -31 -14.5 -51t-50.5 -37q73 -25 73 -95q0 -55 -40.5 -88t-107.5 -33 q-72 0 -113 38zM223 0l314 667h87l-314 -667h-87zM464 90v76l148 240h115v-235h48v-81h-48v-90h-110v90h-153zM538 161h89v152z" />
<glyph unicode="&#xbf;" horiz-adv-x="477" d="M192 351v142h130v-142h-130zM47 3q0 59 29 108q17 29 69 76q38 34 46 51t8 64h117v-22q0 -72 -11 -98.5t-61 -73.5q-49 -48 -49 -108q0 -30 15.5 -47.5t41.5 -17.5q41 0 60 44q10 23 11 77l125 -18q-4 -107 -57 -164.5t-148 -57.5q-90 0 -143 50.5t-53 136.5z" />
<glyph unicode="&#xc0;" d="M285 718l-209 64l33 96l206 -109zM-20 0l200 667h148l190 -667h-150l-33 137h-188l-32 -137h-135zM175 252h132l-67 272z" />
<glyph unicode="&#xc1;" d="M223 718l-30 51l206 109l33 -96zM-20 0l200 667h148l190 -667h-150l-33 137h-188l-32 -137h-135zM175 252h132l-67 272z" />
<glyph unicode="&#xc2;" d="M60 726l202 146l201 -146h-109l-92 48l-93 -48h-109zM-20 0l200 667h148l190 -667h-150l-33 137h-188l-32 -137h-135zM175 252h132l-67 272z" />
<glyph unicode="&#xc3;" d="M140 730l-45 34q58 72 114 72q25 0 68 -17q47 -20 64 -20q22 0 49 36l46 -33q-52 -77 -119 -77q-24 0 -65 17q-46 20 -63 20q-12 0 -21 -6t-28 -26zM-20 0l200 667h148l190 -667h-150l-33 137h-188l-32 -137h-135zM175 252h132l-67 272z" />
<glyph unicode="&#xc4;" d="M341 729q-22 0 -38.5 16.5t-16.5 38.5q0 24 16.5 40.5t39.5 16.5t39.5 -16.5t16.5 -39.5t-16.5 -39.5t-40.5 -16.5zM171 729q-22 0 -38.5 17t-16.5 39q0 23 16.5 39.5t39.5 16.5t39.5 -16.5t16.5 -39.5t-17 -39.5t-40 -16.5zM-20 0l200 667h148l190 -667h-150l-33 137 h-188l-32 -137h-135zM175 252h132l-67 272z" />
<glyph unicode="&#xc5;" d="M257 709q-39 0 -67.5 28.5t-28.5 68.5q0 41 28.5 69.5t68.5 28.5t68.5 -28.5t28.5 -69.5q0 -40 -28.5 -68.5t-69.5 -28.5zM257 765q16 0 28 12t12 29t-11.5 29.5t-27.5 12.5t-27.5 -12.5t-11.5 -29.5q0 -16 11.5 -28.5t26.5 -12.5zM-20 0l200 667h148l190 -667h-150 l-33 137h-188l-32 -137h-135zM175 252h132l-67 272z" />
<glyph unicode="&#xc6;" horiz-adv-x="682" d="M-40 0l262 667h451v-115h-246v-154h193v-115h-193v-164h246v-119h-387v154h-145l-54 -154h-127zM178 262h111v307z" />
<glyph unicode="&#xc7;" horiz-adv-x="545" d="M150 32q-53 41 -82 118.5t-29 182.5q0 165 66 254.5t187 89.5q126 0 185 -98q35 -56 43 -160l-134 -10q-5 76 -21 104q-26 45 -72 45q-53 0 -76.5 -56t-23.5 -180q0 -113 23.5 -163t76.5 -50q78 0 94 134l136 -9q-8 -108 -66 -173t-150 -71l-14 -41q12 1 20 1 q36 0 59 -22.5t23 -57.5q0 -39 -28.5 -62.5t-75.5 -23.5q-51 0 -110 36l16 44q50 -25 81 -25q14 0 23 7.5t9 20.5q0 20 -15.5 31t-42.5 11h-18l-12 -1l29 84q-61 11 -101 40z" />
<glyph unicode="&#xc8;" horiz-adv-x="477" d="M309 718l-209 64l33 96l206 -109zM63 0v667h405v-115h-259v-154h202v-115h-202v-164h259v-119h-405z" />
<glyph unicode="&#xc9;" horiz-adv-x="477" d="M240 718l-30 51l206 109l33 -96zM63 0v667h405v-115h-259v-154h202v-115h-202v-164h259v-119h-405z" />
<glyph unicode="&#xca;" horiz-adv-x="477" d="M64 726l202 146l201 -146h-109l-92 48l-93 -48h-109zM63 0v667h405v-115h-259v-154h202v-115h-202v-164h259v-119h-405z" />
<glyph unicode="&#xcb;" horiz-adv-x="477" d="M354 729q-22 0 -38.5 16.5t-16.5 38.5q0 24 16.5 40.5t39.5 16.5t39.5 -16.5t16.5 -39.5t-16.5 -39.5t-40.5 -16.5zM184 729q-22 0 -38.5 17t-16.5 39q0 23 16.5 39.5t39.5 16.5t39.5 -16.5t16.5 -39.5t-17 -39.5t-40 -16.5zM63 0v667h405v-115h-259v-154h202v-115h-202 v-164h259v-119h-405z" />
<glyph unicode="&#xcc;" horiz-adv-x="272" d="M176 718l-199 68l36 92l193 -109zM63 0v667h146v-667h-146z" />
<glyph unicode="&#xcd;" horiz-adv-x="272" d="M106 718l-30 51l193 109l37 -92zM63 0v667h146v-667h-146z" />
<glyph unicode="&#xce;" horiz-adv-x="272" d="M-35 726l175 146l175 -146h-106l-69 48l-69 -48h-106zM63 0v667h146v-667h-146z" />
<glyph unicode="&#xcf;" horiz-adv-x="273" d="M211 729q-22 0 -38.5 16.5t-16.5 38.5q0 24 16.5 40.5t39.5 16.5t39.5 -16.5t16.5 -39.5t-16.5 -39.5t-40.5 -16.5zM63 729q-22 0 -38.5 17t-16.5 39q0 23 16.5 39.5t39.5 16.5t39.5 -16.5t16.5 -39.5t-17 -39.5t-40 -16.5zM63 0v667h146v-667h-146z" />
<glyph unicode="&#xd0;" horiz-adv-x="562" d="M63 0v287h-57v100h57v280h158q138 0 206 -51q49 -37 75.5 -109t26.5 -168q0 -104 -31 -182.5t-87 -116.5q-35 -23 -70.5 -31.5t-101.5 -8.5h-176zM210 115h25q40 0 62 9.5t40 34.5q38 53 38 181q0 127 -43 177q-18 20 -38.5 27.5t-58.5 7.5h-25v-165h97v-100h-97v-172z " />
<glyph unicode="&#xd1;" horiz-adv-x="562" d="M178 730l-45 34q58 72 114 72q25 0 68 -17q47 -20 64 -20q22 0 49 36l46 -33q-52 -77 -119 -77q-24 0 -65 17q-46 20 -63 20q-12 0 -21 -6t-28 -26zM57 0v667h163l170 -414v414h114v-667h-131l-202 483v-483h-114z" />
<glyph unicode="&#xd2;" horiz-adv-x="562" d="M320 718l-209 64l33 96l206 -109zM281 -10q-119 0 -180.5 87t-61.5 254q0 346 245 346q100 0 159 -64q80 -87 80 -280q0 -169 -61.5 -256t-180.5 -87zM281 109q49 0 68.5 50t19.5 175q0 124 -19.5 174t-67.5 50q-50 0 -69.5 -49.5t-19.5 -173.5q0 -126 19.5 -176 t68.5 -50z" />
<glyph unicode="&#xd3;" horiz-adv-x="562" d="M255 718l-30 51l206 109l33 -96zM281 -10q-119 0 -180.5 87t-61.5 254q0 346 245 346q100 0 159 -64q80 -87 80 -280q0 -169 -61.5 -256t-180.5 -87zM281 109q49 0 68.5 50t19.5 175q0 124 -19.5 174t-67.5 50q-50 0 -69.5 -49.5t-19.5 -173.5q0 -126 19.5 -176t68.5 -50 z" />
<glyph unicode="&#xd4;" horiz-adv-x="562" d="M89 726l202 146l201 -146h-109l-92 48l-93 -48h-109zM281 -10q-119 0 -180.5 87t-61.5 254q0 346 245 346q100 0 159 -64q80 -87 80 -280q0 -169 -61.5 -256t-180.5 -87zM281 109q49 0 68.5 50t19.5 175q0 124 -19.5 174t-67.5 50q-50 0 -69.5 -49.5t-19.5 -173.5 q0 -126 19.5 -176t68.5 -50z" />
<glyph unicode="&#xd5;" horiz-adv-x="562" d="M176 730l-45 34q58 72 114 72q25 0 68 -17q47 -20 64 -20q22 0 49 36l46 -33q-52 -77 -119 -77q-24 0 -65 17q-46 20 -63 20q-12 0 -21 -6t-28 -26zM281 -10q-119 0 -180.5 87t-61.5 254q0 346 245 346q100 0 159 -64q80 -87 80 -280q0 -169 -61.5 -256t-180.5 -87z M281 109q49 0 68.5 50t19.5 175q0 124 -19.5 174t-67.5 50q-50 0 -69.5 -49.5t-19.5 -173.5q0 -126 19.5 -176t68.5 -50z" />
<glyph unicode="&#xd6;" horiz-adv-x="562" d="M374 729q-22 0 -38.5 16.5t-16.5 38.5q0 24 16.5 40.5t39.5 16.5t39.5 -16.5t16.5 -39.5t-16.5 -39.5t-40.5 -16.5zM204 729q-22 0 -38.5 17t-16.5 39q0 23 16.5 39.5t39.5 16.5t39.5 -16.5t16.5 -39.5t-17 -39.5t-40 -16.5zM281 -10q-119 0 -180.5 87t-61.5 254 q0 346 245 346q100 0 159 -64q80 -87 80 -280q0 -169 -61.5 -256t-180.5 -87zM281 109q49 0 68.5 50t19.5 175q0 124 -19.5 174t-67.5 50q-50 0 -69.5 -49.5t-19.5 -173.5q0 -126 19.5 -176t68.5 -50z" />
<glyph unicode="&#xd7;" d="M142 142l-78 78l114 113l-114 114l78 78l113 -114l114 114l78 -78l-114 -114l114 -113l-78 -78l-114 113z" />
<glyph unicode="&#xd8;" horiz-adv-x="562" d="M58 -41l52 105q-38 52 -54.5 114.5t-16.5 158.5q0 166 61.5 253t178.5 87q71 0 122 -30l30 58h77l-54 -106q69 -89 69 -266q0 -169 -61 -256t-180 -87q-62 0 -117 27l-31 -58h-76zM187 212l154 329q-26 25 -61 25q-77 0 -92 -103q-8 -53 -8 -149q0 -50 7 -102zM223 119 q23 -19 61 -19q73 0 90 104q8 49 8 151q0 43 -7 95z" />
<glyph unicode="&#xd9;" horiz-adv-x="579" d="M332 718l-209 64l33 96l206 -109zM108 58q-26 34 -35.5 82.5t-9.5 145.5v381h146v-381q0 -99 12 -127q21 -50 83 -50q59 0 79 50q10 27 10 127v381h123v-375q0 -110 -10 -157.5t-41 -80.5q-59 -64 -174 -64q-130 0 -183 68z" />
<glyph unicode="&#xda;" horiz-adv-x="579" d="M264 718l-30 51l206 109l33 -96zM108 58q-26 34 -35.5 82.5t-9.5 145.5v381h146v-381q0 -99 12 -127q21 -50 83 -50q59 0 79 50q10 27 10 127v381h123v-375q0 -110 -10 -157.5t-41 -80.5q-59 -64 -174 -64q-130 0 -183 68z" />
<glyph unicode="&#xdb;" horiz-adv-x="579" d="M98 726l202 146l201 -146h-109l-92 48l-93 -48h-109zM108 58q-26 34 -35.5 82.5t-9.5 145.5v381h146v-381q0 -99 12 -127q21 -50 83 -50q59 0 79 50q10 27 10 127v381h123v-375q0 -110 -10 -157.5t-41 -80.5q-59 -64 -174 -64q-130 0 -183 68z" />
<glyph unicode="&#xdc;" horiz-adv-x="579" d="M382 729q-22 0 -38.5 16.5t-16.5 38.5q0 24 16.5 40.5t39.5 16.5t39.5 -16.5t16.5 -39.5t-16.5 -39.5t-40.5 -16.5zM212 729q-22 0 -38.5 17t-16.5 39q0 23 16.5 39.5t39.5 16.5t39.5 -16.5t16.5 -39.5t-17 -39.5t-40 -16.5zM108 58q-26 34 -35.5 82.5t-9.5 145.5v381 h146v-381q0 -99 12 -127q21 -50 83 -50q59 0 79 50q10 27 10 127v381h123v-375q0 -110 -10 -157.5t-41 -80.5q-59 -64 -174 -64q-130 0 -183 68z" />
<glyph unicode="&#xdd;" horiz-adv-x="443" d="M199 718l-30 51l206 109l33 -96zM139 0v282l-167 385h161l94 -244l100 244h143l-185 -385v-282h-146z" />
<glyph unicode="&#xde;" d="M63 0v667h146v-91h45q72 0 107.5 -7t63.5 -26q78 -53 78 -175q0 -126 -76 -177q-29 -20 -65.5 -27.5t-100.5 -7.5h-52v-156h-146zM209 271h45q56 0 76 27q18 26 18 73q0 54 -27 79q-18 18 -67 18h-45v-197z" />
<glyph unicode="&#xdf;" horiz-adv-x="545" d="M65 -58v397h-55v108h55q0 116 52 180q65 79 183 79q78 0 125 -39.5t47 -105.5q0 -78 -76 -126q-27 -17 -72 -32q8 -11 18.5 -18t42.5 -20q82 -35 115.5 -77t33.5 -111q0 -84 -51.5 -135.5t-134.5 -51.5q-55 0 -110 20l33 93q43 -18 74 -18t48.5 17.5t17.5 48.5 q0 30 -15.5 48t-65.5 48q-54 32 -76 61t-22 66q0 33 19 83q49 8 71 28t22 56q0 32 -18.5 51t-49.5 19q-40 0 -60 -36q-10 -18 -12 -38.5t-2 -85.5v-509h-137z" />
<glyph unicode="&#xe0;" horiz-adv-x="477" d="M266 546l-180 113l55 82l166 -154zM35 125q0 54 24.5 93.5t69.5 56.5q64 25 160 31v19q0 50 -10.5 68.5t-38.5 18.5t-41 -17t-17 -58l-130 12q11 75 62 114.5t137 39.5q97 0 145 -53q18 -19 24.5 -49.5t6.5 -94.5v-196q0 -86 8 -110h-128q-7 24 -7 60v15q-21 -35 -37 -50 q-40 -35 -98 -35q-60 0 -95 36.5t-35 98.5zM177 143q0 -62 46 -62q27 0 47 31q19 30 19 100v24q-63 -8 -87.5 -28t-24.5 -65z" />
<glyph unicode="&#xe1;" horiz-adv-x="477" d="M239 546l-41 41l166 154l55 -82zM35 125q0 54 24.5 93.5t69.5 56.5q64 25 160 31v19q0 50 -10.5 68.5t-38.5 18.5t-41 -17t-17 -58l-130 12q11 75 62 114.5t137 39.5q97 0 145 -53q18 -19 24.5 -49.5t6.5 -94.5v-196q0 -86 8 -110h-128q-7 24 -7 60v15q-21 -35 -37 -50 q-40 -35 -98 -35q-60 0 -95 36.5t-35 98.5zM177 143q0 -62 46 -62q27 0 47 31q19 30 19 100v24q-63 -8 -87.5 -28t-24.5 -65z" />
<glyph unicode="&#xe2;" horiz-adv-x="477" d="M60 553l196 153l196 -153h-107l-89 58l-90 -58h-106zM35 125q0 54 24.5 93.5t69.5 56.5q64 25 160 31v19q0 50 -10.5 68.5t-38.5 18.5t-41 -17t-17 -58l-130 12q11 75 62 114.5t137 39.5q97 0 145 -53q18 -19 24.5 -49.5t6.5 -94.5v-196q0 -86 8 -110h-128q-7 24 -7 60 v15q-21 -35 -37 -50q-40 -35 -98 -35q-60 0 -95 36.5t-35 98.5zM177 143q0 -62 46 -62q27 0 47 31q19 30 19 100v24q-63 -8 -87.5 -28t-24.5 -65z" />
<glyph unicode="&#xe3;" horiz-adv-x="477" d="M144 575l-42 33q56 69 108 69q22 0 63 -17q46 -18 60 -18q20 0 47 35l43 -33q-50 -74 -112 -74q-22 0 -61 17q-43 19 -60 19q-11 0 -19.5 -5.5t-26.5 -25.5zM35 125q0 54 24.5 93.5t69.5 56.5q64 25 160 31v19q0 50 -10.5 68.5t-38.5 18.5t-41 -17t-17 -58l-130 12 q11 75 62 114.5t137 39.5q97 0 145 -53q18 -19 24.5 -49.5t6.5 -94.5v-196q0 -86 8 -110h-128q-7 24 -7 60v15q-21 -35 -37 -50q-40 -35 -98 -35q-60 0 -95 36.5t-35 98.5zM177 143q0 -62 46 -62q27 0 47 31q19 30 19 100v24q-63 -8 -87.5 -28t-24.5 -65z" />
<glyph unicode="&#xe4;" horiz-adv-x="477" d="M336 568q-22 0 -38 16t-16 38q0 23 16 39t38 16q23 0 39 -16t16 -39q0 -22 -16 -38t-39 -16zM171 568q-22 0 -38 16t-16 38q0 23 16 39t39 16q22 0 38 -16t16 -39q0 -22 -16 -38t-39 -16zM35 125q0 54 24.5 93.5t69.5 56.5q64 25 160 31v19q0 50 -10.5 68.5t-38.5 18.5 t-41 -17t-17 -58l-130 12q11 75 62 114.5t137 39.5q97 0 145 -53q18 -19 24.5 -49.5t6.5 -94.5v-196q0 -86 8 -110h-128q-7 24 -7 60v15q-21 -35 -37 -50q-40 -35 -98 -35q-60 0 -95 36.5t-35 98.5zM177 143q0 -62 46 -62q27 0 47 31q19 30 19 100v24q-63 -8 -87.5 -28 t-24.5 -65z" />
<glyph unicode="&#xe5;" horiz-adv-x="477" d="M256 542q-38 0 -65.5 28t-27.5 66q0 39 27.5 67t67.5 28q39 0 66.5 -28t27.5 -67t-28 -66.5t-68 -27.5zM257 597q16 0 27 11.5t11 27.5t-11 28t-26 12q-16 0 -27 -11.5t-11 -28.5q0 -16 11 -27.5t26 -11.5zM35 125q0 54 24.5 93.5t69.5 56.5q64 25 160 31v19 q0 50 -10.5 68.5t-38.5 18.5t-41 -17t-17 -58l-130 12q11 75 62 114.5t137 39.5q97 0 145 -53q18 -19 24.5 -49.5t6.5 -94.5v-196q0 -86 8 -110h-128q-7 24 -7 60v15q-21 -35 -37 -50q-40 -35 -98 -35q-60 0 -95 36.5t-35 98.5zM177 143q0 -62 46 -62q27 0 47 31 q19 30 19 100v24q-63 -8 -87.5 -28t-24.5 -65z" />
<glyph unicode="&#xe6;" horiz-adv-x="698" d="M36 129q0 52 25.5 91.5t70.5 57.5q45 17 148 29q1 17 1 33q0 38 -12.5 55t-40.5 17t-42 -18.5t-18 -60.5l-120 13q7 42 19 66.5t37 46.5q48 44 132 44t118 -51q51 51 124 51q125 0 171 -119q20 -54 20 -160h-255v-22q0 -116 65 -116q30 0 46 19.5t22 62.5l118 -9 q-19 -90 -62.5 -129.5t-123.5 -39.5q-52 0 -85 20t-56 64q-55 -84 -157 -84q-68 0 -106.5 37t-38.5 102zM413 303h127q-2 58 -16.5 83.5t-45.5 25.5t-45.5 -25t-19.5 -84zM173 145q0 -64 46 -64q30 0 46.5 30.5t15.5 86.5l-1 38q-49 -7 -64 -15q-43 -19 -43 -76z" />
<glyph unicode="&#xe7;" horiz-adv-x="443" d="M163 -89l30 81q-163 25 -163 254q0 124 53 190.5t151 66.5q82 0 132 -51q26 -28 38 -58.5t16 -81.5l-129 -6q-3 50 -15.5 71t-38.5 21q-69 0 -69 -146q0 -79 16 -115t51 -36q27 0 40 21t16 70l129 -8q-10 -92 -51.5 -138.5t-120.5 -55.5l-16 -40q13 1 19 1q35 0 57.5 -22 t22.5 -56q0 -37 -27.5 -59.5t-73.5 -22.5q-49 0 -107 35l16 43q47 -27 79 -27q16 0 25.5 8t9.5 22q0 18 -16 30t-41 12q-8 0 -33 -3z" />
<glyph unicode="&#xe8;" horiz-adv-x="460" d="M257 546l-180 113l55 82l166 -154zM235 -10q-98 0 -151.5 65.5t-53.5 184.5q0 124 54 193.5t151 69.5q52 0 95 -24t65 -66q20 -38 27.5 -77.5t8.5 -111.5h-259v-26q0 -60 15.5 -86.5t50.5 -26.5q32 0 48.5 20t21.5 65l123 -8q-15 -73 -52 -115q-51 -57 -144 -57zM173 303 h128q0 51 -10 74q-16 35 -54 35q-32 0 -47 -26t-17 -83z" />
<glyph unicode="&#xe9;" horiz-adv-x="460" d="M227 546l-41 41l166 154l55 -82zM235 -10q-98 0 -151.5 65.5t-53.5 184.5q0 124 54 193.5t151 69.5q52 0 95 -24t65 -66q20 -38 27.5 -77.5t8.5 -111.5h-259v-26q0 -60 15.5 -86.5t50.5 -26.5q32 0 48.5 20t21.5 65l123 -8q-15 -73 -52 -115q-51 -57 -144 -57zM173 303 h128q0 51 -10 74q-16 35 -54 35q-32 0 -47 -26t-17 -83z" />
<glyph unicode="&#xea;" horiz-adv-x="460" d="M48 553l196 153l196 -153h-107l-89 58l-90 -58h-106zM235 -10q-98 0 -151.5 65.5t-53.5 184.5q0 124 54 193.5t151 69.5q52 0 95 -24t65 -66q20 -38 27.5 -77.5t8.5 -111.5h-259v-26q0 -60 15.5 -86.5t50.5 -26.5q32 0 48.5 20t21.5 65l123 -8q-15 -73 -52 -115 q-51 -57 -144 -57zM173 303h128q0 51 -10 74q-16 35 -54 35q-32 0 -47 -26t-17 -83z" />
<glyph unicode="&#xeb;" horiz-adv-x="460" d="M324 568q-22 0 -38 16t-16 38q0 23 16 39t38 16q23 0 39 -16t16 -39q0 -22 -16 -38t-39 -16zM159 568q-22 0 -38 16t-16 38q0 23 16 39t39 16q22 0 38 -16t16 -39q0 -22 -16 -38t-39 -16zM235 -10q-98 0 -151.5 65.5t-53.5 184.5q0 124 54 193.5t151 69.5q52 0 95 -24 t65 -66q20 -38 27.5 -77.5t8.5 -111.5h-259v-26q0 -60 15.5 -86.5t50.5 -26.5q32 0 48.5 20t21.5 65l123 -8q-15 -73 -52 -115q-51 -57 -144 -57zM173 303h128q0 51 -10 74q-16 35 -54 35q-32 0 -47 -26t-17 -83z" />
<glyph unicode="&#xec;" horiz-adv-x="238" d="M139 546l-173 117l58 78l156 -154zM51 0v493h137v-493h-137z" />
<glyph unicode="&#xed;" horiz-adv-x="238" d="M103 546l-41 41l156 154l58 -78zM51 0v493h137v-493h-137z" />
<glyph unicode="&#xee;" horiz-adv-x="238" d="M-47 553l169 153l169 -153h-103l-66 58l-66 -58h-103zM50 0v493h137v-493h-137z" />
<glyph unicode="&#xef;" horiz-adv-x="238" d="M193 568q-22 0 -38 16t-16 38q0 23 16 39t38 16q23 0 39 -16t16 -39q0 -22 -16 -38t-39 -16zM48 568q-22 0 -38 16t-16 38q0 23 16 39t39 16q22 0 38 -16t16 -39q0 -22 -16 -38t-39 -16zM50 0v493h137v-493h-137z" />
<glyph unicode="&#xf0;" horiz-adv-x="460" d="M232 -10q-202 0 -202 256q0 138 61 206q44 50 108 50q33 0 64 -22q-18 51 -39 89l-68 -41l-30 50l69 41l-6 10l-28 45l78 47l36 -54l64 39l30 -50l-62 -37q124 -199 124 -380q0 -121 -51 -185t-148 -64zM231 86q32 0 45 35.5t13 124.5t-12.5 125t-44.5 36q-34 0 -47 -35 t-13 -125q0 -91 13 -126t46 -35z" />
<glyph unicode="&#xf1;" horiz-adv-x="477" d="M127 575l-42 33q56 69 108 69q22 0 63 -17q46 -18 60 -18q20 0 47 35l43 -33q-50 -74 -112 -74q-22 0 -61 17q-43 19 -60 19q-11 0 -19.5 -5.5t-26.5 -25.5zM51 0v493h131v-67q19 41 47.5 59t76.5 18q78 0 110 -56q18 -32 18 -124v-323h-137v323q0 43 -10 58t-38 15 q-44 0 -56 -37q-5 -16 -5 -70v-289h-137z" />
<glyph unicode="&#xf2;" horiz-adv-x="460" d="M254 546l-180 113l55 82l166 -154zM230 -10q-200 0 -200 255q0 258 203 258q198 0 198 -257q0 -256 -201 -256zM231 86q32 0 45 35.5t13 124.5t-12.5 125t-44.5 36q-34 0 -47 -35t-13 -125q0 -91 13 -126t46 -35z" />
<glyph unicode="&#xf3;" horiz-adv-x="460" d="M220 546l-41 41l166 154l55 -82zM230 -10q-200 0 -200 255q0 258 203 258q198 0 198 -257q0 -256 -201 -256zM231 86q32 0 45 35.5t13 124.5t-12.5 125t-44.5 36q-34 0 -47 -35t-13 -125q0 -91 13 -126t46 -35z" />
<glyph unicode="&#xf4;" horiz-adv-x="460" d="M40 553l196 153l196 -153h-107l-89 58l-90 -58h-106zM230 -10q-200 0 -200 255q0 258 203 258q198 0 198 -257q0 -256 -201 -256zM231 86q32 0 45 35.5t13 124.5t-12.5 125t-44.5 36q-34 0 -47 -35t-13 -125q0 -91 13 -126t46 -35z" />
<glyph unicode="&#xf5;" horiz-adv-x="460" d="M129 575l-42 33q56 69 108 69q22 0 63 -17q46 -18 60 -18q20 0 47 35l43 -33q-50 -74 -112 -74q-22 0 -61 17q-43 19 -60 19q-11 0 -19.5 -5.5t-26.5 -25.5zM230 -10q-200 0 -200 255q0 258 203 258q198 0 198 -257q0 -256 -201 -256zM231 86q32 0 45 35.5t13 124.5 t-12.5 125t-44.5 36q-34 0 -47 -35t-13 -125q0 -91 13 -126t46 -35z" />
<glyph unicode="&#xf6;" horiz-adv-x="460" d="M320 568q-22 0 -38 16t-16 38q0 23 16 39t38 16q23 0 39 -16t16 -39q0 -22 -16 -38t-39 -16zM155 568q-22 0 -38 16t-16 38q0 23 16 39t39 16q22 0 38 -16t16 -39q0 -22 -16 -38t-39 -16zM230 -10q-200 0 -200 255q0 258 203 258q198 0 198 -257q0 -256 -201 -256z M231 86q32 0 45 35.5t13 124.5t-12.5 125t-44.5 36q-34 0 -47 -35t-13 -125q0 -91 13 -126t46 -35z" />
<glyph unicode="&#xf7;" d="M196 432v132h118v-132h-118zM51 280v106h409v-106h-409zM196 103v132h118v-132h-118z" />
<glyph unicode="&#xf8;" horiz-adv-x="460" d="M47 -57l47 95q-34 39 -49 88t-15 123q0 254 200 254q49 0 93 -17l30 58h65l-47 -94q60 -71 60 -203q0 -257 -201 -257q-45 0 -87 15l-31 -62h-65zM157 149l119 254q-23 11 -44 11q-45 0 -62 -37t-17 -137q0 -40 4 -91zM191 86q18 -7 39 -7q44 0 61 37.5t17 136.5 q0 32 -3 80z" />
<glyph unicode="&#xf9;" horiz-adv-x="477" d="M256 546l-180 113l55 82l166 -154zM67 34q-14 21 -18.5 47.5t-4.5 91.5v320h137v-316q0 -45 5 -56q10 -24 43 -24q41 0 54 35q7 21 7 109v252h137v-493h-129v67q-29 -46 -54.5 -61.5t-73.5 -15.5q-73 0 -103 44z" />
<glyph unicode="&#xfa;" horiz-adv-x="477" d="M222 546l-41 41l166 154l55 -82zM67 34q-14 21 -18.5 47.5t-4.5 91.5v320h137v-316q0 -45 5 -56q10 -24 43 -24q41 0 54 35q7 21 7 109v252h137v-493h-129v67q-29 -46 -54.5 -61.5t-73.5 -15.5q-73 0 -103 44z" />
<glyph unicode="&#xfb;" horiz-adv-x="477" d="M46 553l196 153l196 -153h-107l-89 58l-90 -58h-106zM67 34q-14 21 -18.5 47.5t-4.5 91.5v320h137v-316q0 -45 5 -56q10 -24 43 -24q41 0 54 35q7 21 7 109v252h137v-493h-129v67q-29 -46 -54.5 -61.5t-73.5 -15.5q-73 0 -103 44z" />
<glyph unicode="&#xfc;" horiz-adv-x="477" d="M323 568q-22 0 -38 16t-16 38q0 23 16 39t38 16q23 0 39 -16t16 -39q0 -22 -16 -38t-39 -16zM158 568q-22 0 -38 16t-16 38q0 23 16 39t39 16q22 0 38 -16t16 -39q0 -22 -16 -38t-39 -16zM67 34q-14 21 -18.5 47.5t-4.5 91.5v320h137v-316q0 -45 5 -56q10 -24 43 -24 q41 0 54 35q7 21 7 109v252h137v-493h-129v67q-29 -46 -54.5 -61.5t-73.5 -15.5q-73 0 -103 44z" />
<glyph unicode="&#xfd;" horiz-adv-x="358" d="M177 546l-41 41l166 154l55 -82zM7 -59q27 -3 40 -3q39 0 54 12.5t28 58.5l-142 484h137l67 -301l64 301h119l-149 -501q-19 -63 -30 -87.5t-29 -43.5q-36 -36 -100 -36q-26 0 -59 8v108z" />
<glyph unicode="&#xfe;" horiz-adv-x="477" d="M51 -167v834h135v-236q45 69 107 69q72 0 113.5 -66t41.5 -181q0 -125 -43.5 -192.5t-123.5 -67.5q-53 0 -93 44l-2 -204h-135zM194 116q12 -28 50 -28q36 0 49 35t13 133q0 85 -12 119t-43 34q-34 0 -52 -36q-13 -25 -13 -78v-93q0 -65 8 -86z" />
<glyph unicode="&#xff;" horiz-adv-x="358" d="M273 568q-22 0 -38 16t-16 38q0 23 16 39t38 16q23 0 39 -16t16 -39q0 -22 -16 -38t-39 -16zM108 568q-22 0 -38 16t-16 38q0 23 16 39t39 16q22 0 38 -16t16 -39q0 -22 -16 -38t-39 -16zM7 -59q27 -3 40 -3q39 0 54 12.5t28 58.5l-142 484h137l67 -301l64 301h119 l-149 -501q-19 -63 -30 -87.5t-29 -43.5q-36 -36 -100 -36q-26 0 -59 8v108z" />
<glyph unicode="&#x152;" horiz-adv-x="784" d="M81 115q-42 97 -42 215q0 218 102 298q63 49 155 49q31 0 90 -10h389v-115h-262v-154h205v-115h-205v-164h262v-119h-397q-53 -10 -87 -10q-72 0 -127 31q-57 32 -83 94zM300 109q46 0 72 25v397q-30 26 -74 26q-49 0 -70 -35q-35 -59 -35 -199q0 -214 107 -214z" />
<glyph unicode="&#x153;" horiz-adv-x="715" d="M226 -10q-97 0 -146.5 65t-49.5 192q0 126 50 191t147 65q88 0 136 -57q51 57 127 57q52 0 94.5 -24t65.5 -66q21 -39 28.5 -78.5t7.5 -110.5h-261q-1 -11 -1 -27q0 -58 16.5 -85t52.5 -27q32 0 48.5 19.5t22.5 65.5l122 -8q-16 -77 -52 -115q-52 -57 -140 -57 q-44 0 -74.5 12t-61.5 41q-28 -29 -57 -41t-75 -12zM425 303h132v14q0 46 -17 70.5t-48 24.5q-64 0 -67 -109zM231 86q32 0 45 35.5t13 124.5t-12.5 125t-44.5 36q-34 0 -47 -35t-13 -125q0 -91 13 -126t46 -35z" />
<glyph unicode="&#x178;" horiz-adv-x="443" d="M311 729q-22 0 -38.5 16.5t-16.5 38.5q0 24 16.5 40.5t39.5 16.5t39.5 -16.5t16.5 -39.5t-16.5 -39.5t-40.5 -16.5zM141 729q-22 0 -38.5 17t-16.5 39q0 23 16.5 39.5t39.5 16.5t39.5 -16.5t16.5 -39.5t-17 -39.5t-40 -16.5zM139 0v282l-167 385h161l94 -244l100 244h143 l-185 -385v-282h-146z" />
<glyph unicode="&#x2c6;" horiz-adv-x="460" d="M34 553l196 153l196 -153h-107l-89 58l-90 -58h-106z" />
<glyph unicode="&#x2dc;" horiz-adv-x="460" d="M111 575l-42 33q56 69 108 69q22 0 63 -17q46 -18 60 -18q20 0 47 35l43 -33q-50 -74 -112 -74q-22 0 -61 17q-43 19 -60 19q-11 0 -19.5 -5.5t-26.5 -25.5z" />
<glyph unicode="&#x2000;" horiz-adv-x="452" />
<glyph unicode="&#x2001;" horiz-adv-x="904" />
<glyph unicode="&#x2002;" horiz-adv-x="452" />
<glyph unicode="&#x2003;" horiz-adv-x="904" />
<glyph unicode="&#x2004;" horiz-adv-x="301" />
<glyph unicode="&#x2005;" horiz-adv-x="226" />
<glyph unicode="&#x2006;" horiz-adv-x="150" />
<glyph unicode="&#x2007;" horiz-adv-x="150" />
<glyph unicode="&#x2008;" horiz-adv-x="113" />
<glyph unicode="&#x2009;" horiz-adv-x="180" />
<glyph unicode="&#x200a;" horiz-adv-x="50" />
<glyph unicode="&#x2010;" horiz-adv-x="273" d="M37 199v108h199v-108h-199z" />
<glyph unicode="&#x2011;" horiz-adv-x="273" d="M37 199v108h199v-108h-199z" />
<glyph unicode="&#x2013;" horiz-adv-x="443" d="M40 202v102h363v-102h-363z" />
<glyph unicode="&#x2014;" horiz-adv-x="664" d="M37 202v102h591v-102h-591z" />
<glyph unicode="&#x2018;" horiz-adv-x="239" d="M57 399v148l71 131h54l-55 -131h55v-148h-125z" />
<glyph unicode="&#x2019;" horiz-adv-x="239" d="M57 388l55 131h-55v148h125v-148l-71 -131h-54z" />
<glyph unicode="&#x201a;" horiz-adv-x="239" d="M57 0v148h125v-148l-71 -131h-54l55 131h-55z" />
<glyph unicode="&#x201c;" horiz-adv-x="426" d="M235 399v148l71 131h54l-55 -131h55v-148h-125zM65 399v148l71 131h54l-55 -131h55v-148h-125z" />
<glyph unicode="&#x201d;" horiz-adv-x="426" d="M235 388l55 131h-55v148h125v-148l-71 -131h-54zM65 388l55 131h-55v148h125v-148l-71 -131h-54z" />
<glyph unicode="&#x201e;" horiz-adv-x="426" d="M235 0v148h125v-148l-71 -131h-54l55 131h-55zM65 0v148h125v-148l-71 -131h-54l55 131h-55z" />
<glyph unicode="&#x2022;" horiz-adv-x="667" d="M335 200q-57 0 -98 40.5t-41 97.5q0 58 41 98.5t100 40.5q55 0 95.5 -41t40.5 -97q0 -58 -40.5 -98.5t-97.5 -40.5z" />
<glyph unicode="&#x2026;" horiz-adv-x="767" d="M571 0v148h136v-148h-136zM316 0v148h136v-148h-136zM60 0v148h136v-148h-136z" />
<glyph unicode="&#x202f;" horiz-adv-x="180" />
<glyph unicode="&#x2039;" horiz-adv-x="273" d="M152 81l-103 175l103 175h72l-61 -175l61 -175h-72z" />
<glyph unicode="&#x203a;" horiz-adv-x="273" d="M49 81l61 175l-61 175h73l102 -175l-102 -175h-73z" />
<glyph unicode="&#x205f;" horiz-adv-x="226" />
<glyph unicode="&#x20ac;" horiz-adv-x="631" d="M33 283l33 104h51q13 126 56 190q66 100 195 100q126 0 185 -98q35 -56 43 -160l-134 -10q-5 73 -21 104q-26 45 -72 45t-69.5 -41t-28.5 -130h131l-33 -103h-99q4 -92 27 -133.5t72 -41.5q78 0 94 133l136 -8q-9 -113 -71.5 -178.5t-161.5 -65.5q-111 0 -174.5 75 t-74.5 218h-84z" />
<glyph unicode="&#x2122;" horiz-adv-x="733" d="M293 267v380h131l54 -233l62 233h127v-380h-83v316l-81 -316h-64l-74 316v-316h-72zM93 267v309h-80v71h249v-71h-81v-309h-88z" />
</font>
</defs>
</svg>
