<svg xmlns="http://www.w3.org/2000/svg" viewBox="0 0 1024 340">
  <path d="M10.6 169.2L6 165.3V161c16.8-14.2 37.7-34.1 53.3-51l8 5.3c-8.9 15.9-21.8 33.2-34.4 46 19.8 24.8 20.9 26.2 33.8 47.4l-7.3 5.3c-7.3-7.6-10.6-11.3-20.9-20.6-12-11.3-10.7-9.6-27.9-24.2m253.3 39.4c12.9-21.5 13.6-22.5 33.4-47.4-12.6-12.9-25.5-30.2-34.4-46l8.3-5.3c15.2 16.9 35.4 36.1 52.9 51v4.3l-16.8 13.9c-6.3 5.3-24.4 22.5-36.4 34.8l-7-5.3z"/>
  <path d="M51.5 276h8.6c18.9 0 23.2-5.1 23.2-28.2V91.2C83.3 68 79 63 60.2 63h-8.6V49.2h94.3V63h-5.4c-18.8 0-23.1 5.1-23.1 28.2v67.2h95.4V91.1c0-23.1-4.3-28.2-23.1-28.2h-5.5V49.2h94.3V63h-8.3c-19 0-23.4 5.1-23.4 28.2v156.7c0 23.2 4.4 28.2 23.4 28.2h8.4v13.7h-94.4V276h5.5c18.8 0 23.1-5.1 23.1-28.1v-72.6h-95.4V248c0 23 4.3 28.1 23.1 28.1h5.5v13.8H51.5V276zM425.9 225.9l.6-7.6 9.4-2c3.4-.7 4.6-1.7 4.9-4.6l5.8-42h-48.8l-5.8 42c-.4 2.5.6 3.9 3.9 4.6l8.9 2 .6 7.6H352l.6-7.6 9.4-2c3.5-.7 4.6-2 4.9-4.6l12.2-90.7c.4-2.3 0-3.9-3.9-4.6l-8.6-2-.6-7.6h53.4l-.6 7.6-9.5 2c-3 .7-4.6 2.3-4.9 4.6l-5.3 39.3H448l5.3-39.3c.4-2.9-.2-3.9-3.9-4.6l-8.8-2-.6-7.6h53.7l-.7 7.6-9.4 2c-3 .7-4.6 2.3-4.9 4.6l-12.4 90.7c-.4 2.5.6 3.9 3.9 4.6l8.8 2 .6 7.6h-53.7zm90.7-30c0 10.9 7.1 18.7 16.8 18.7 4.2 0 12.8-4.8 24.2-12.7l3 4c-9.2 12.1-20.4 22.7-35.9 22.7-19.3 0-29.8-14.1-29.8-32.1 0-28.7 22.9-60.3 50.4-60.3 15.3 0 23.5 8.4 23.5 19.1 0 13.1-16 19.1-52.3 38v2.7h.1zm.3-9.2c23.9-13.1 33.3-19.9 33.3-30.4 0-5.2-9.9-8.9-14.1-8.9-3.3 0-4.8 1-5.9 2-4.6 4.6-11.5 20-13.7 37.3h.4zm118.8-36c-4 3.5-23.9 41.2-28.2 50.8l-4.6 24.8-23.2.2 7.1-28.7 9.4-46.1-5.5-1.2-12.3 13.9-4-4.2c4.9-10.5 15-23.9 25-23.9 4.8 0 18.6 3.3 18.6 6.9 0 6.3-8.9 37-12.4 47h2.7c3.3-8.9 15.3-35.3 20-39.9 5.8-10.4 9.5-14.3 18.9-14.3 7.8 0 14.7 5.5 14.7 15.7 0 8.4-5.8 14.5-12.2 14.5-7.6 0-12.8-6.1-10.5-14.5-.1-.1-3.1-1.5-3.5-1zm147.4 78.2c-4.8 0-16.8-4.3-16.8-8.1 0-4.2 5.2-19.5 10.5-36.1 3-9.2 6.5-19.5 6.5-24.1 0-3.9-4.3-6.6-8.8-6.6-6.3 0-14.5 13.7-28.8 43.3l-7.5 28.8-23.3.2 9.5-34c3.3-11.2 8.1-27.1 8.1-31.7 0-3.9-4.3-6.6-8.8-6.6-6.3 0-14.3 13.7-28.5 43.3l-6.3 28.8-23.2.2 7.1-28.7 9.4-46.1-5.5-1.2-12.3 14-4-4.2c4.9-10.5 15-23.9 25-23.9 4.8 0 18.6 3.3 18.6 6.9 0 6.3-8.4 35.9-10.5 43.2h2c8.8-19.3 16.4-35 23.2-41.6 5.3-5.3 11.7-8.4 18.3-8.4 9.8 0 15.7 6.5 15.7 15.7 0 8.2-7.1 28.7-8.8 34.4h2c9.8-21.3 16.6-35 23.3-41.6 5.3-5.3 11.8-8.4 18.6-8.4 9.8 0 16.8 6.5 16.8 15.3 0 8.4-4.2 22.5-8.8 36.1-1.7 5.5-7.6 23.2-8.8 26.2l5.3 1.7 14-9.8 3.5 4c-5.6 9.5-16.7 19-26.7 19zm102.6-77.7l5.2-14.7h19.7L899 171l-10.1 42.8 5.2 1.7 14.1-9.8 3.3 4c-5.8 9.5-16.8 19.1-26.8 19.1-4.8 0-17.2-4.3-17.2-7.8 0-3.9 6.6-21.3 10.7-33.4h-1.9c-14.7 24.6-23.3 41-36.7 41-12.1 0-21.6-8.9-21.6-25.8 0-19.1 10.1-40.5 22.9-53.3 7.8-7.8 17.6-13.1 26.5-13.1 9.8 0 14.5 6.9 16.6 14.7h1.6l.1.1zm-25.1-2.8c-2.7 0-4.2 1-6.3 3-7.6 7.6-15.1 30.1-15.1 45.5 0 9.5 3.9 15.1 9.8 15.1 7.2 0 14-11.2 28.1-33.8l4.3-15.1c-4.4-7.5-14.1-14.7-20.8-14.7zm128.3 80.5c-4.8 0-17-4.3-17-8.1 0-4.2 5.2-19.5 10.7-36.1 2.9-9.2 6.3-19.5 6.3-24.1 0-3.9-4.3-6.6-8.8-6.6-6.3 0-14.3 13.7-28.5 43.3l-6.3 28.8-23.2.2 7.1-28.7 9.4-45.5-5.3-1.3-12.7 13.5-3.9-4.2c4.9-10.5 15-23.9 24.8-23.9 4.8 0 18.7 3.3 18.7 6.9 0 6.3-8.4 35.9-10.5 43.2h2c8.8-19.3 16.4-35 23.2-41.6 5.3-5.3 11.8-8.4 18.3-8.4 9.8 0 16.8 6.5 16.8 15.3 0 8.4-4.3 22.5-8.8 36.1l-8.6 26.2 5.2 1.7 14.1-9.8 3.3 4c-5.5 9.6-16.3 19.1-26.3 19.1z"/>
</svg>
