<svg xmlns="http://www.w3.org/2000/svg" viewBox="0 0 158.253 40.686">
  <path d="M65.327 23.208h-6.59v11.388h-4.392V5.638h10.98c5.654 0 9.272 3.742 9.272 8.785s-3.618 8.785-9.27 8.785zm-.245-13.625h-6.345v9.64h6.345c3.05 0 5.124-1.75 5.124-4.8s-2.074-4.84-5.124-4.84zM83.97 34.596c-3.905 0-5.653-2.644-5.653-5.693V5.638h4.148v23.02c0 1.588.567 2.4 2.235 2.4h1.83v3.538h-2.56zM104.762 32.4c-1.344 1.383-3.377 2.44-6.184 2.44-2.805 0-4.8-1.06-6.14-2.44-1.952-2.033-2.44-4.638-2.44-8.135 0-3.457.488-6.06 2.44-8.094 1.34-1.382 3.335-2.44 6.14-2.44 2.807 0 4.84 1.06 6.184 2.44 1.95 2.034 2.44 4.638 2.44 8.095 0 3.498-.49 6.1-2.44 8.134zm-3.133-13.787c-.774-.773-1.83-1.18-3.052-1.18-1.22 0-2.236.405-3.01 1.18-1.26 1.26-1.422 3.416-1.422 5.652s.162 4.393 1.422 5.653c.773.77 1.79 1.22 3.01 1.22 1.22 0 2.277-.447 3.05-1.22 1.263-1.262 1.425-3.417 1.425-5.653s-.162-4.392-1.424-5.652zM123.643 34.596V22.03c0-3.215-1.83-4.598-4.147-4.598s-4.27 1.423-4.27 4.597v12.565h-4.148v-20.62h4.065v2.074c1.425-1.547 3.416-2.32 5.49-2.32 2.115 0 3.865.692 5.084 1.872 1.586 1.545 2.074 3.497 2.074 5.815v13.178h-4.147zM135.772 25.486c0 3.537 1.87 5.774 5.246 5.774 2.317 0 3.54-.65 5.004-2.115l2.643 2.48c-2.115 2.115-4.107 3.214-7.727 3.214-5.166 0-9.273-2.726-9.273-10.575 0-6.67 3.457-10.534 8.744-10.534 5.53 0 8.743 4.068 8.743 9.926v1.83h-13.38zm8.703-5.695c-.65-1.544-2.113-2.603-4.066-2.603-1.952 0-3.458 1.06-4.108 2.604-.406.937-.488 1.547-.53 2.808h9.274c-.043-1.26-.163-1.872-.57-2.807z"/>
  <circle cx="17.815" cy="11.516" r="4.402"/>
  <path d="M31.167 20.31c0 2.434-1.97 4.402-4.403 4.402-2.427 0-4.4-1.97-4.4-4.4 0-2.434 1.974-4.402 4.4-4.402 2.436 0 4.403 1.97 4.403 4.4z"/>
  <circle cx="17.801" cy="29.131" r="4.402"/>
  <path d="M20.44-.045C9.208-.045.1 9.063.1 20.298c0 11.234 9.107 20.34 20.34 20.343 11.236 0 20.342-9.106 20.344-20.342 0-11.235-9.107-20.342-20.343-20.343zm11.45 31.792c-2.936 2.934-6.97 4.742-11.45 4.743-4.477 0-8.512-1.81-11.45-4.743-2.932-2.937-4.74-6.972-4.74-11.45 0-4.477 1.808-8.512 4.742-11.45 2.937-2.933 6.972-4.74 11.45-4.742 4.478 0 8.513 1.81 11.45 4.743 2.934 2.938 4.742 6.973 4.743 11.45-.002 4.477-1.81 8.512-4.744 11.45zM153.985 9.95c-1.195 0-2.164.97-2.164 2.168.003 1.197.97 2.168 2.165 2.168 1.2 0 2.172-.97 2.172-2.168s-.973-2.168-2.172-2.168zm0 4.018c-1.02-.002-1.846-.827-1.846-1.85 0-1.02.824-1.85 1.845-1.85 1.023 0 1.852.827 1.854 1.85-.004 1.023-.832 1.848-1.855 1.85z"/>
  <path d="M154.507 13.41l-.54-1.08h-.486v1.08h-.388v-2.565h.994c.484 0 .796.313.796.75 0 .367-.224.602-.513.68l.59 1.136h-.453zm-.45-2.215h-.576v.803h.576c.26 0 .437-.147.437-.4s-.176-.403-.437-.403z"/>
</svg>
