<svg xmlns="http://www.w3.org/2000/svg" id="Layer_1" viewBox="0 0 306.2 39">
  <path d="M122.4.2H87.3c-12.3 0-14.1 10-14.5 11-.4 1.3-5.7 21.3-7.3 27.6h21.3s4.1-15.6 4.2-15.6c.5.5 8.9 10.7 11.5 13.6 2.1 2.3 3.6 1.9 11.8 2h12.9l-11.9-14.1h13.2c.9-3.8 2.1-8.2 3.2-12.6 1.6-6.5-3.8-11.7-9.3-11.9zm-13.6 17.7H92.4L95 8.6h16.3l-2.5 9.3zM64.8 8.6L67.1.4H21C11.3.9 8.5 6.8 7 12.6c-.5 2.1-1.1 4.1-1.5 5.8-.8 3-1.2 4.2-1.2 4.2h35.6l-2.2 8.3H2.2l-2.2 8h44.3c8.9 0 13.4-3.7 15.5-11.8 1.5-5.7 3.1-11.3 3.1-11.3H28.4l1.9-7.2h34.5zM155.2.3c-3.4 0-10.7-.6-14.4 10.8-1.7 6.1-7.4 27.8-7.4 27.8h10.4c4.7 0 9.7.2 11.3-2.9 1.4-2.7 3.2-10.1 3.2-10.1h17L171.8 39h21.4c9.9-36.9 9.6-36 10.3-38.7h-48.3zm21.6 17.8h-16.3l2.5-9.4h16.2l-2.4 9.4zM271 38.9l7.7-29.5h-12.8L258.1 39h-20.7l7.7-29.6h-12.9L224.4 39H203L213.3.1s69.1-.2 76.4 0c4.5.1 11 4.6 8.7 13.4-2.7 10.4-4.5 19.2-6.1 25.5-7.3-.1-9.8-.1-21.3-.1zM298.5 34.4c0-2 1.5-3.5 3.4-3.5s3.4 1.5 3.4 3.5c0 2.1-1.5 3.5-3.4 3.5s-3.4-1.5-3.4-3.5zm3.4 4.2c2.3 0 4.3-1.8 4.3-4.3 0-2.4-2-4.2-4.3-4.2s-4.3 1.8-4.3 4.2c0 2.5 2 4.3 4.3 4.3zm-.9-3.9h.9l1.3 2.1h.8l-1.4-2.1c.7-.1 1.3-.5 1.3-1.3 0-.9-.6-1.4-1.7-1.4h-1.9v4.9h.7v-2.2zm0-.6v-1.5h1c.5 0 1.1.1 1.1.7 0 .8-.6.8-1.2.8h-.9z" />
</svg>
