<svg xmlns="http://www.w3.org/2000/svg" viewBox="0 0 907 340">
  <path d="M6.4 168.7l-4.9-4.2V160c17.9-15.1 39.9-36.1 56.4-54l8.4 5.6c-9.5 16.8-23.1 35.1-36.4 48.7 21 26.3 22.1 27.7 35.7 50.1l-7.7 5.6c-7.7-8.1-11.2-11.9-22.1-21.7-12.6-11.9-11.2-10.1-29.4-25.6M84.5 247.4l14.9-7.5c28 42.5 72.4 72 107.8 72 34.1 0 58.4-24.3 58.4-58.9 0-34.1-19.6-51.4-76.1-66.9-67.2-18.2-92.9-43-92.9-91.2s37.3-87 83.1-87c12.6 0 11.7 0 41.1 8.9 4.2 1.4 9.8 2.3 12.1 2.3 3.3 0 7.9-1.4 12.1-3.3L261 8l28.9 80.9-14.9 9.8c-27.1-44.9-61.6-70.6-95.2-70.6-29.4 0-51.3 22-51.3 51.9 0 29.5 20.1 48.6 61.6 59.4 20.1 5.1 34.5 9.4 41.5 11.2 42 12.6 67.2 45.8 67.2 87.4 0 52.8-40.6 94-92 94-15.9 0-23.8-1.9-43.4-10.8-8.4-3.7-13.5-5.1-16.8-5.1-4.7 0-7.9 1.4-13.5 4.7L115.3 332l-30.8-84.6zM315.4 210.5c13.7-22.8 14.4-23.8 35.4-50.1-13.3-13.7-27-31.9-36.4-48.7l8.8-5.6c16.1 17.9 37.5 38.2 56 54v4.6l-17.9 14.7c-6.6 5.6-25.9 23.8-38.5 36.8l-7.4-5.7z"/>
  <path d="M479.1 243.9c-20.9 0-36.9-3.6-51-8l4.1-46.6 15.5.2 7.5 36.4c7 3.2 15.5 5.3 27.2 5.3 17.7 0 27.7-9.7 27.9-23.5 0-15-13.8-22.6-30.8-32-23.8-12.9-38.1-22.6-38.1-47.1s25.2-43.2 56.1-43.2c16.3 0 25.2 2.4 38.3 5.6 0-.2 13.3-4.1 13.3-4.1l-6.6 49.8-15.3-.5-5.1-32.5c-7.8-3.2-17-5.3-27.7-5.3-13.3 0-24.3 8.3-24.3 18.7-.2 16 13.6 23.8 32.3 34 20.9 10.9 36.4 22.1 36.4 44.9.3 29.7-25.7 47.9-59.7 47.9zM590.3 126.4c6.1 0 22.6 8 22.6 12.4 0 5.6-5.8 22.6-12.9 43.4-3.6 11.9-7.8 23.5-7.8 29.4 0 4.9 5.3 10 10.9 10 8 0 18.4-17.7 36.9-55.1l8.5-37.1h29.4l-10.2 36.4s-11.2 56.1-12.4 59.7l6.6 2.4 17.2-12.4 4.4 4.9c-7.3 12.4-20.9 23.8-33.5 23.8-6.1 0-21.6-5.8-21.6-10.2 0-8 11.4-45.9 13.8-53.6h-2.7c-11.7 24.8-21.6 44.4-30.1 52.9-6.8 6.8-15 10.7-23.3 10.7-12.6 0-21.4-9.5-21.4-20.4 0-10.9 5.3-27.9 10.9-44.9 4.1-12.4 9.2-28.4 10.4-32.5l-7-1.5-15.5 17.5-5.1-5.3c6.2-13.5 19-30.5 31.9-30.5zM763.9 162.3c-8 0-12.9-6.1-12.9-13.1 0-1.7.5-4.1 1.5-5.8-4.9-2.7-12.9-5.6-19.9-6.1-4.6 2.9-9.7 10.4-10 13.8-.5 7.5 11.4 17 19.2 24.8 12.6 12.1 24.5 22.3 23.8 35.2-.7 19.9-23.1 32.8-44.9 32.8-17.2 0-35.9-5.1-35.9-21.4 0-9 5.6-15 14.8-15 7.5 0 12.4 5.8 12.4 13.1 0 1.5-.5 4.1-1.5 5.8 5.3 2.7 16 6.1 23.1 6.3 3.9-2.7 9.2-10.2 9.5-15 .5-7-10-15.3-19.2-23.8-13.1-11.9-24.3-22.3-23.8-35.2 1-21.6 23.1-32.3 43.2-32.3 17.7 0 35 4.6 35 20.6-.1 9.5-5.7 15.3-14.4 15.3zM864.6 202.8l-22.1 29.9-13.6 27.2c-13.6 27.4-27.7 41.3-45.9 41.3-12.4 0-23.8-8-23.8-19.9 0-8.7 6.8-14.8 14.1-14.8 9.7 0 17.2 7.8 17 19.4l4.4.2 30.6-40.5-16.5-4.9-2.7-94.7-7-1.5-15.5 17.5-4.9-5.3c6.1-13.3 18.9-30.3 31.6-30.3 6.1 0 23.3 5.3 23.5 10l-1.7 92h3.2l37.9-65.5V160c-8.7-3.4-13.6-9.7-13.6-15.8 0-10 6.8-18 16.7-18 10.7 0 19.2 7.5 19.2 19.7-.1 14.5-16.1 37.8-30.9 56.9z"/>
</svg>
