<svg xmlns="http://www.w3.org/2000/svg" viewBox="0 0 886 340">
  <path d="M106.1 105.8c0-3.4 30-9.9 76.8-13.2 13.6-9-87-3-77-10.5 9.4-7.1 29-18.7 57.4-22.5 15.4 0-14.2-42.1 15.9-42.1s0 41.8 16.8 41.8c40.6 4.8 62 22.7 62 28.2s-71.4 229-78.8 231.6c-7.5 2.6-73.1-209.9-73.1-213.3M23.6 176.1l-5-4.3v-4.7c18.2-15.4 40.8-36.9 57.6-55.1l8.6 5.7c-9.7 17.2-23.6 35.8-37.2 49.8C69 194.4 70 195.8 84 218.7l-7.9 5.7c-7.9-8.2-11.4-12.2-22.5-22.2-12.9-12.1-11.5-10.3-30-26.1M273.4 218.7c13.9-23.3 14.7-24.3 36.1-51.2-13.6-14-27.5-32.6-37.2-49.8l8.9-5.7c16.4 18.3 38.3 39 57.2 55.1v4.7l-18.2 15c-6.8 5.7-26.5 24.3-39.3 37.6l-7.5-5.7zM507.4 140.9l-2.6-19.8c-2.1-16.9-8.8-19.3-29.8-19.6h-1.4l-16 120.4c-.5 2.9 1.2 5 4.8 5.7l14.3 2.6.7 9.5h-73l.7-9.5 14.8-2.6c4.3-.7 6-2.9 6.2-5.7l16-120.4h-1c-20.7 0-27.4 2.1-34.8 18.8l-8.3 20.5h-17.2l10.7-50.1h137.8l-6.4 50.1h-15.5zM596.1 145.9c-5 4.3-29.8 51.5-35.3 63.4l-5.7 31-28.8.2 8.8-35.8 11.7-57.5-6.9-1.4-15.3 17.2-5-5.2c6.2-13.1 18.6-29.8 31.2-29.8 6 0 23.1 4.1 23.1 8.6 0 7.9-11.2 46.3-15.5 58.7h3.3c4.1-11.2 19.1-44.1 25-49.8 7.2-12.9 11.9-17.9 23.6-17.9 9.8 0 18.4 6.9 18.4 19.6 0 10.5-7.2 18.1-15.3 18.1-9.5 0-16-7.6-13.1-18.1.1-.1-3.7-1.8-4.2-1.3zM661.5 128c6 0 22.2 7.9 22.2 12.2 0 5.5-5.7 22.2-12.6 42.7-3.6 11.7-7.6 23.1-7.6 28.8 0 4.8 5.2 9.8 10.7 9.8 7.9 0 18.1-17.4 36.2-54.1l8.3-36.5h28.8l-10 35.8s-11 55.1-12.2 58.7l6.4 2.4 16.9-12.2 4.3 4.8c-7.2 12.2-20.5 23.4-32.9 23.4-6 0-21.2-5.7-21.2-10 0-7.9 11.2-45.1 13.6-52.7h-2.6c-11.4 24.3-21.2 43.6-29.6 52-6.7 6.7-14.8 10.5-22.9 10.5-12.4 0-21-9.3-21-20s5.2-27.4 10.7-44.1c4.1-12.2 9.1-27.9 10.3-31.9l-6.9-1.4-15.3 17.2-5-5.2c6.1-13.5 18.7-30.2 31.4-30.2zM789 202.4c0 13.6 8.8 23.4 21 23.4 5.2 0 16-6 30.3-15.7l3.8 5c-11.4 15-25.5 28.4-44.8 28.4-24.1 0-37.2-17.6-37.2-40.1 0-35.8 28.6-75.3 62.9-75.3 19.1 0 29.3 10.5 29.3 23.8 0 16.5-20 23.8-65.3 47.4v3.1zm.5-11.4c29.8-16.5 41.5-24.8 41.5-37.9 0-6.4-12.4-11.2-17.6-11.2-4.1 0-6 1.2-7.4 2.6-5.7 5.7-14.3 25-17.2 46.5h.7z"/>
</svg>
