<?xml version="1.0" standalone="no"?>
<!DOCTYPE svg PUBLIC "-//W3C//DTD SVG 1.1//EN" "http://www.w3.org/Graphics/SVG/1.1/DTD/svg11.dtd" >
<svg xmlns="http://www.w3.org/2000/svg">
<metadata>
This is a custom SVG webfont generated by Fontspring.
Designer    : FontSite.com
Foundry URL : http://www.fontsite.com
</metadata>
<defs>
<font id="webfont" horiz-adv-x="380" >
<font-face units-per-em="1000" ascent="827" descent="-173" />
<missing-glyph horiz-adv-x="157" />
<glyph unicode=" "  horiz-adv-x="157" />
<glyph unicode="&#x09;" horiz-adv-x="157" />
<glyph unicode="&#xa0;" horiz-adv-x="157" />
<glyph unicode="!" horiz-adv-x="263" d="M92 202l-29 465h137l-36 -465h-72zM65 0v125h119v-125h-119z" />
<glyph unicode="&#x22;" horiz-adv-x="332" d="M207 406l-21 254h120l-21 -254h-78zM48 406l-21 254h119l-21 -254h-77z" />
<glyph unicode="#" d="M44 0l23 203h-62l9 83h63l12 111h-62l10 83h62l21 187h70l-22 -187h69l22 187h69l-21 -187h69l-10 -83h-69l-13 -111h70l-10 -83h-69l-23 -203h-70l24 203h-69l-24 -203h-69zM144 286h73l13 111h-73z" />
<glyph unicode="$" d="M157 -5q-62 10 -96.5 58t-34.5 126q0 10 1 17h109q-1 -10 -1 -23q0 -81 52 -81q23 0 38.5 18t15.5 45q0 32 -16.5 57t-60.5 60q-69 55 -99 107t-30 116q0 67 32.5 113.5t89.5 60.5v58h61v-55q62 -10 94.5 -55.5t32.5 -122.5q0 -11 -1 -19h-105v16q0 81 -47 81 q-22 0 -35 -16.5t-13 -42.5q0 -28 15.5 -50t68.5 -69q76 -68 101 -110t25 -105q0 -74 -35.5 -121.5t-100.5 -60.5v-57h-61v55z" />
<glyph unicode="%" horiz-adv-x="536" d="M56 30l331 564q-87 -40 -159 -40q3 -30 3 -57q0 -181 -107 -181t-107 181q0 180 107 180q62 0 89 -61q132 3 229 94l64 -35l-395 -678zM124 367q14 0 20 16q9 20 9 113q0 96 -10 118q-8 12 -18 12q-15 0 -21 -16q-9 -20 -9 -113q0 -96 10 -118q6 -12 19 -12zM304 170 q0 180 109 180q106 0 106 -180t-107 -180q-108 0 -108 180zM393 53q6 -12 19 -12q14 0 20 16q9 25 9 113q0 97 -11 117q-6 12 -18 12q-15 0 -21 -16q-9 -25 -9 -112q0 -98 11 -118z" />
<glyph unicode="&#x26;" horiz-adv-x="511" d="M49 156q0 63 46 131q22 34 57 75l5 6q-49 109 -49 164q0 63 43 106t106 43q57 0 94.5 -36.5t37.5 -91.5q0 -50 -23.5 -90.5t-84.5 -94.5q15 -37 60 -116q17 47 24 106l87 -15q-5 -44 -20.5 -100t-33.5 -90q20 -43 63 -48v-105q-84 1 -126 56q-52 -68 -129 -68 q-67 0 -112 48.5t-45 119.5zM239 447q2 2 4 5l2 2q44 44 44 92q0 20 -11 33t-28 13q-18 0 -30 -12.5t-12 -30.5q0 -43 31 -102zM164 185q0 -33 20.5 -58.5t47.5 -25.5t47 27q-39 64 -80 149q-35 -54 -35 -92z" />
<glyph unicode="'" horiz-adv-x="173" d="M48 406l-21 254h119l-21 -254h-77z" />
<glyph unicode="(" horiz-adv-x="290" d="M142 -89q-94 153 -94 344t94 344q35 56 89 101l54 -48q-45 -58 -63 -104q-48 -121 -48 -293t48 -293q18 -46 63 -104l-54 -48q-54 45 -89 101z" />
<glyph unicode=")" horiz-adv-x="290" d="M69 -38q47 115 47 293t-47 293q-18 46 -64 104l54 48q56 -47 89 -101q94 -153 94 -344t-94 -344q-33 -54 -89 -101l-54 48q46 58 64 104z" />
<glyph unicode="*" d="M136 388l-60 44l58 75l-91 27l23 70l89 -31l-2 94h74l-3 -94l89 31l23 -70l-90 -27l57 -75l-60 -44l-53 78z" />
<glyph unicode="+" d="M148 180v106h-108v83h108v104h83v-104h109v-83h-109v-106h-83z" />
<glyph unicode="," horiz-adv-x="192" d="M36 0v125h122v-125l-84 -157h-41l45 157h-42z" />
<glyph unicode="-" horiz-adv-x="160" d="M0 204v105h160v-105h-160z" />
<glyph unicode="." horiz-adv-x="186" d="M33 0v125h119v-125h-119z" />
<glyph unicode="/" horiz-adv-x="361" d="M-7 -133h-71l379 800h71z" />
<glyph unicode="0" d="M191 -10q-164 0 -164 342q0 147 33 240q37 105 135 105q78 0 118.5 -87.5t40.5 -256.5q0 -343 -163 -343zM191 78q24 0 32.5 53t8.5 202t-8.5 202t-32.5 54t-33 -52t-9 -198q0 -154 8.5 -207.5t33.5 -53.5z" />
<glyph unicode="1" d="M66 0v91h71v441q-44 -13 -71 -11v74q80 29 127 72h64v-576h70v-91h-261z" />
<glyph unicode="2" d="M25 0v101q50 77 111 181q82 139 82 237q0 29 -10.5 46.5t-27.5 17.5q-41 0 -41 -92v-17l-109 5v9q0 86 44.5 137.5t118.5 51.5q65 0 106.5 -45t41.5 -115q0 -74 -47.5 -166.5t-162.5 -239.5h197v-111h-303z" />
<glyph unicode="3" d="M19 155l102 9q4 -43 14.5 -61.5t31.5 -18.5q26 0 40.5 28.5t14.5 80.5q0 54 -23 79.5t-72 25.5q-8 0 -14 -1v92h15q46 0 65.5 25t19.5 83q0 47 -9 67t-30 20q-22 0 -30.5 -15.5t-11.5 -61.5l-99 7q4 72 30 107q42 56 122 56q70 0 107.5 -46t37.5 -129q0 -60 -19.5 -94 t-68.5 -58q102 -30 102 -163q0 -94 -45.5 -145.5t-127.5 -51.5q-71 0 -112 44.5t-40 120.5z" />
<glyph unicode="4" d="M25 167v92l127 408h147v-413h60v-87h-60v-167h-113v167h-161zM97 254h89v301z" />
<glyph unicode="5" d="M25 140l1 22l110 3q0 -79 40 -79q49 0 49 130q0 109 -58 109q-35 0 -53 -45l-80 30l27 357h262v-109h-174l-13 -155q34 23 69 23q40 0 73 -22q70 -47 70 -170q0 -149 -71 -211q-36 -33 -101 -33q-69 0 -111.5 41.5t-39.5 108.5z" />
<glyph unicode="6" d="M59 80q-30 63 -30 194q0 197 43 302q19 46 55.5 73.5t80.5 27.5q58 0 98 -46.5t40 -114.5q0 -8 -1 -15l-105 -5q-2 49 -9 68t-23 19q-36 0 -46 -73q-11 -74 -12 -138q41 44 87 44q61 0 91 -59q24 -48 24 -119q0 -131 -67 -206q-37 -42 -96 -42q-87 0 -130 90zM159 112 q9 -31 33 -31q22 0 31 35t9 120q0 50 -10 71t-35 21q-26 0 -38 -27q-2 -31 -2 -64q0 -84 12 -125z" />
<glyph unicode="7" d="M80 0q26 270 150 561h-194v106h302v-64q-48 -93 -83.5 -259t-32.5 -300l1 -44h-143z" />
<glyph unicode="8" d="M23 156q0 105 101 170q-44 45 -63 87t-19 93q0 77 42 124t112 47q66 0 106 -41.5t40 -109.5q0 -45 -20 -82t-66 -77q100 -87 100 -195q0 -82 -48 -132t-127 -50q-71 0 -114.5 46t-43.5 120zM204 416q24 33 32.5 54t8.5 49q0 32 -14.5 52t-36.5 20q-20 0 -33 -18t-13 -45 q0 -61 56 -112zM185 78q26 0 44 22.5t18 55.5q0 61 -76 122q-1 -2 -3 -5l-2 -2l-2 -4q-33 -43 -33 -105q0 -38 15 -61t39 -23z" />
<glyph unicode="9" d="M34 166l106 4q1 -49 8 -67.5t24 -18.5q29 0 43 44t14 154v10q-46 -41 -87 -41q-53 0 -83.5 47t-30.5 129q0 110 46 180t117 70q40 0 73 -22t52 -61q35 -74 35 -209q0 -395 -178 -395q-63 0 -101 48t-38 128zM191 340q31 0 39 29v57q0 91 -10 131q-7 29 -31 29 q-22 0 -31.5 -33t-9.5 -111q0 -57 9.5 -79.5t33.5 -22.5z" />
<glyph unicode=":" horiz-adv-x="186" d="M33 348v125h119v-125h-119zM33 0v125h119v-125h-119z" />
<glyph unicode=";" horiz-adv-x="212" d="M46 348v125h119v-125h-119zM46 0v125h122v-125l-84 -157h-41l45 157h-42z" />
<glyph unicode="&#x3c;" horiz-adv-x="500" d="M33 290v99l433 216v-115l-310 -151l310 -151v-114z" />
<glyph unicode="=" d="M40 356v83h300v-83h-300zM40 215v83h300v-83h-300z" />
<glyph unicode="&#x3e;" horiz-adv-x="500" d="M33 73v116l310 150l-310 151v115l433 -217v-98z" />
<glyph unicode="?" horiz-adv-x="355" d="M128 200q-1 8 -1 18q0 63 13 110t51 119q27 50 27 86q0 26 -12 42t-31 16q-48 0 -48 -95q0 -6 1 -11l-98 7q-1 8 -1 19q0 74 43.5 122t110.5 48q70 0 112 -40t42 -107q0 -50 -29 -105q-7 -12 -43 -69q-19 -31 -26.5 -61.5t-7.5 -84.5v-14h-103zM118 0v125h119v-125h-119z " />
<glyph unicode="@" horiz-adv-x="607" d="M76 6q-49 78 -49 194q0 166 91 278.5t225 112.5q100 0 168.5 -78.5t68.5 -194.5q0 -102 -55 -183t-123 -81q-47 0 -64 50q-25 -30 -42 -41.5t-38 -11.5q-41 0 -68 41.5t-27 102.5q0 90 48 165.5t105 75.5q46 0 71 -53l10 37h70l-64 -255q-7 -30 -7 -37q0 -8 5 -13t13 -5 q39 0 74 66.5t35 140.5q0 94 -52 158.5t-127 64.5q-110 0 -182.5 -96t-72.5 -241q0 -112 51 -182q52 -70 168 -70q59 0 111 30t83 82h54q-34 -76 -102.5 -120.5t-151.5 -44.5q-159 0 -226 108zM275 115q23 0 41 28q12 19 25 68l15 59q8 34 8 43q0 23 -9.5 38.5t-23.5 15.5 q-32 0 -60.5 -60.5t-28.5 -128.5q0 -28 9.5 -45.5t23.5 -17.5z" />
<glyph unicode="A" horiz-adv-x="347" d="M-3 0l98 667h174l82 -667h-114l-17 143h-102l-18 -143h-103zM131 246h78l-38 325z" />
<glyph unicode="B" horiz-adv-x="404" d="M40 0v667h152q67 0 101 -17q70 -36 70 -141q0 -112 -105 -152q120 -26 120 -163q0 -116 -74 -168q-35 -26 -103 -26h-161zM160 406q39 1 54 10q30 18 30 73q0 45 -15.5 65t-50.5 20q-9 0 -18 -1v-167zM160 102h25q33 0 46 17q20 28 20 85q0 56 -17.5 77t-66.5 21h-7v-200 z" />
<glyph unicode="C" horiz-adv-x="395" d="M201 -13q-175 0 -175 317q0 154 28 240q22 65 64.5 100.5t98.5 35.5q73 0 114.5 -59t41.5 -163q0 -12 -1 -22h-119q-2 86 -8 109q-9 38 -35 38q-32 0 -39 -54q-14 -88 -14 -241q0 -109 10.5 -148.5t39.5 -39.5q52 0 52 142v13h113q0 -128 -44.5 -198t-126.5 -70z" />
<glyph unicode="D" horiz-adv-x="409" d="M40 0v667h141q49 0 80 -11t58 -38q24 -24 35.5 -49.5t18.5 -68.5q10 -65 10 -176q0 -197 -67 -274q-26 -29 -56.5 -39.5t-92.5 -10.5h-127zM167 103q7 -2 14 -2q44 0 58 39q14 36 14 212q0 153 -19 187q-16 29 -55 29q-8 0 -12 -1v-464z" />
<glyph unicode="E" horiz-adv-x="341" d="M40 0v667h285v-100h-158v-170h116v-107h-116v-190h158v-100h-285z" />
<glyph unicode="F" horiz-adv-x="334" d="M40 0v667h282v-100h-155v-173h116v-107h-116v-287h-127z" />
<glyph unicode="G" horiz-adv-x="399" d="M58 90q-31 80 -31 208q0 382 194 382q44 0 77.5 -20t50.5 -55q25 -56 25 -137q0 -3 -2 -41h-117q-1 87 -6 111q-8 39 -40 39q-25 0 -35 -26q-10 -27 -14 -141q-3 -82 -3 -142q0 -100 12.5 -139t43.5 -39q32 0 45 35q8 19 9 83h-45v100h149v-308h-52l-16 46 q-47 -59 -114 -59q-42 0 -77 27.5t-54 75.5z" />
<glyph unicode="H" horiz-adv-x="412" d="M40 0v667h127v-270h78v270h127v-667h-127v283h-78v-283h-127z" />
<glyph unicode="I" horiz-adv-x="207" d="M40 0v667h127v-667h-127z" />
<glyph unicode="J" horiz-adv-x="238" d="M3 -6v103q10 -1 19 -1q37 0 50 17.5t13 67.5v486h127v-531q0 -42 -3 -58t-13 -35q-33 -56 -116 -56q-32 0 -77 7z" />
<glyph unicode="K" horiz-adv-x="401" d="M40 0v667h121v-281l109 281h115l-100 -213l106 -454h-119l-64 290l-47 -99v-191h-121z" />
<glyph unicode="L" horiz-adv-x="313" d="M40 0v667h127v-567h156v-100h-283z" />
<glyph unicode="M" horiz-adv-x="526" d="M40 0v667h166l58 -345l58 345h164v-667h-113v508l-88 -508h-68l-80 508v-508h-97z" />
<glyph unicode="N" horiz-adv-x="409" d="M40 0v667h111l121 -338v338h97v-667h-94l-138 390v-390h-97z" />
<glyph unicode="O" horiz-adv-x="424" d="M212 -13q-96 0 -140.5 82.5t-44.5 261.5q0 185 44 267t144 82q94 0 138 -83.5t44 -263.5q0 -181 -44 -263.5t-141 -82.5zM178 118q9 -28 34 -28q28 0 37 36q11 41 11 207q0 179 -14 216q-10 28 -33 28q-29 0 -38 -36q-11 -41 -11 -204q0 -179 14 -219z" />
<glyph unicode="P" horiz-adv-x="394" d="M40 0v667h152q57 0 79.5 -5t46.5 -24q63 -48 63 -167q0 -129 -70 -175q-42 -27 -117 -27h-27v-269h-127zM167 371h10q45 0 63 20t18 70q0 69 -28 94q-12 12 -47 12h-16v-196z" />
<glyph unicode="Q" horiz-adv-x="424" d="M69 71q-42 81 -42 250q0 186 45.5 273t142.5 87q96 0 139.5 -82t43.5 -264q0 -233 -73 -303q2 -18 15 -26.5t42 -9.5v-107h-9q-125 0 -140 99h-5q-9 0 -19.5 -0.5t-11.5 -0.5q-38 0 -73 23t-55 61zM181 114q9 -24 30 -24q34 0 40 54q10 77 10 210q0 132 -9.5 178 t-36.5 46q-29 0 -40 -52.5t-11 -192.5q0 -170 17 -219z" />
<glyph unicode="R" horiz-adv-x="403" d="M40 0v667h148q99 0 147 -45t48 -138q0 -116 -74 -167l72 -317h-122l-59 292h-33v-292h-127zM167 380h17q37 0 52 15q24 24 24 84q0 48 -17.5 69.5t-57.5 21.5h-18v-190z" />
<glyph unicode="S" horiz-adv-x="375" d="M21 176v17h112v-21q0 -82 53 -82q24 0 40 17.5t16 44.5q0 31 -17 56.5t-63 62.5q-71 56 -101.5 109t-30.5 118q0 79 45.5 130.5t116.5 51.5t112.5 -49t41.5 -132v-21h-108v11q0 35 -3 47.5t-13 25.5q-13 15 -32 15q-22 0 -35.5 -17t-13.5 -44q0 -28 16 -50.5t70 -70.5 q77 -68 103 -111.5t26 -107.5q0 -86 -48 -137.5t-127 -51.5q-74 0 -117 50.5t-43 138.5z" />
<glyph unicode="T" horiz-adv-x="338" d="M103 0v567h-106v100h344v-100h-111v-567h-127z" />
<glyph unicode="U" horiz-adv-x="400" d="M37 158v509h127v-509q0 -43 9 -55q10 -13 33 -13q27 0 38 20q7 13 7 48v509h113v-499q0 -73 -17 -108q-33 -73 -152 -73q-86 0 -122 39t-36 132z" />
<glyph unicode="V" horiz-adv-x="353" d="M103 0l-100 667h122l60 -490l64 490h100l-100 -667h-146z" />
<glyph unicode="W" horiz-adv-x="545" d="M87 0l-77 667h115l37 -385l59 385h117l56 -385l47 385h94l-94 -667h-113l-60 422l-68 -422h-113z" />
<glyph unicode="X" horiz-adv-x="353" d="M7 0l115 326l-115 341h124l53 -160l56 160h106l-113 -315l113 -352h-113l-59 174l-62 -174h-105z" />
<glyph unicode="Y" horiz-adv-x="354" d="M107 0v250l-107 417h129l54 -258l68 258h104l-121 -417v-250h-127z" />
<glyph unicode="Z" horiz-adv-x="341" d="M17 0v74l165 493h-143v100h285v-73l-165 -494h159v-100h-301z" />
<glyph unicode="[" horiz-adv-x="237" d="M148 -100h89v-77h-197v864h197v-77h-89v-710z" />
<glyph unicode="\" horiz-adv-x="361" d="M368 -133l-379 800h71l379 -800h-71z" />
<glyph unicode="]" horiz-adv-x="237" d="M0 -100h89v710h-89v77h197v-864h-197v77z" />
<glyph unicode="^" horiz-adv-x="500" d="M9 342l164 328h153l164 -328h-122l-118 236l-119 -236h-122z" />
<glyph unicode="_" horiz-adv-x="500" d="M0 -51h500v-105h-500v105z" />
<glyph unicode="`" horiz-adv-x="500" d="M221 533l-93 143h100l58 -143h-65z" />
<glyph unicode="a" horiz-adv-x="336" d="M107 -10q-38 0 -64.5 40t-26.5 98q0 100 75 141q8 4 14 6.5t15 5t15 3.5t23.5 4.5l31.5 6.5l5 1v42q0 32 -6 43.5t-23 11.5q-16 0 -24.5 -11t-11.5 -37l-96 7q0 59 40 95t105 36q72 0 107 -44q22 -30 22 -94v-229q0 -76 8 -116h-105q-2 4 -3 7.5t-2 5.5l-2 12l-4 18v5 q-43 -58 -93 -58zM162 80q12 0 21.5 8.5t11.5 19.5v122q-69 -12 -69 -85q0 -28 10 -46.5t26 -18.5z" />
<glyph unicode="b" horiz-adv-x="360" d="M33 0v667h117v-220q27 36 73 36q115 0 115 -221q0 -117 -28 -192q-13 -37 -42.5 -58.5t-64.5 -21.5q-29 0 -55.5 18t-41.5 48l-33 -56h-40zM150 108q0 -45 29 -45q23 0 31 23q15 39 15 154q0 118 -14 148q-10 22 -31 22q-25 0 -30 -28v-274z" />
<glyph unicode="c" horiz-adv-x="326" d="M169 -10q-71 0 -109 60.5t-38 174.5q0 136 52 202q45 56 107 56q39 0 71 -23.5t44 -61.5q12 -36 13 -97h-97l-2 60q-2 42 -28 42q-25 0 -31 -48q-9 -57 -9 -146q0 -74 8 -101.5t30 -27.5q20 0 29 23t12 78l88 -6q-1 -88 -38 -136.5t-102 -48.5z" />
<glyph unicode="d" horiz-adv-x="358" d="M122 -10q-55 0 -78 57t-23 193q0 243 116 243q43 0 70 -37v221h117v-668h-117v32q-42 -41 -85 -41zM171 63q20 0 31 16q5 7 5 30v279q-8 22 -26 22q-28 0 -37.5 -40t-9.5 -156q0 -92 7.5 -121.5t29.5 -29.5z" />
<glyph unicode="e" horiz-adv-x="337" d="M52 66q-30 55 -30 158q0 140 46 201q43 58 113 58q135 0 135 -234q0 -26 -1 -45h-179q1 -69 13 -93q13 -28 34 -28q37 0 52 62l80 -21q-12 -43 -24 -64q-18 -32 -50 -51t-68 -19q-81 0 -121 76zM138 291h71q0 63 -7 84.5t-27 21.5q-37 0 -37 -90v-16z" />
<glyph unicode="f" horiz-adv-x="237" d="M60 0v386h-56v87h56v72q0 62 23 90q29 35 91 35q25 0 64 -9v-91q-16 3 -22 3q-22 0 -30.5 -11t-8.5 -37v-52h61v-87h-61v-386h-117z" />
<glyph unicode="g" horiz-adv-x="352" d="M43 5q19 12 68 22q-85 12 -85 78q0 31 21.5 57t55.5 37q-70 37 -70 132q0 69 40 110.5t106 41.5q36 0 77 -20q33 60 96 63v-86q-9 1 -19 1q-28 0 -42 -15q28 -34 28 -99t-34.5 -107t-89.5 -42q-2 0 -13 1t-19 1h-10q-28 0 -28 -26q0 -14 12 -20t47 -11q85 -11 125.5 -44 t40.5 -93q0 -58 -45 -103q-42 -40 -133 -40q-76 0 -119 26t-43 71q0 43 33 65zM178 245q37 0 37 91q0 81 -38 81q-37 0 -37 -83q0 -89 38 -89zM102 -41q0 -41 75 -41q37 0 57.5 11t20.5 31t-20 32.5t-54 12.5t-56.5 -13t-22.5 -33z" />
<glyph unicode="h" horiz-adv-x="355" d="M33 0v667h117v-238q23 30 44 42t49 12q58 0 73 -46q7 -19 7 -101v-336h-117v351q0 27 -4.5 36t-18.5 9q-33 0 -33 -45v-351h-117z" />
<glyph unicode="i" horiz-adv-x="183" d="M33 558v109h117v-109h-117zM33 0v473h117v-473h-117z" />
<glyph unicode="j" horiz-adv-x="192" d="M42 558v109h117v-109h-117zM42 0v473h117v-473q0 -57 -6 -72q-17 -49 -68 -65q-36 -11 -73 -11q-2 0 -22 2v87q30 0 41 12.5t11 46.5z" />
<glyph unicode="k" horiz-adv-x="333" d="M33 0v667h113v-354l85 160h93l-78 -136l85 -337h-113l-46 212l-26 -47v-165h-113z" />
<glyph unicode="l" horiz-adv-x="183" d="M33 0v667h117v-667h-117z" />
<glyph unicode="m" horiz-adv-x="531" d="M33 0v473h117v-48q41 58 95 58t79 -58q42 58 101 58q74 0 74 -108v-375h-117v368q0 28 -23 28q-24 0 -35 -21v-375h-117v362q0 34 -21 34q-25 0 -36 -27v-369h-117z" />
<glyph unicode="n" horiz-adv-x="358" d="M33 0v473h117v-48q43 58 96 58q50 0 69 -37q11 -23 11 -75v-371h-117v361q0 20 -5.5 27.5t-18.5 7.5t-23 -10t-12 -25v-361h-117z" />
<glyph unicode="o" horiz-adv-x="362" d="M180 -10q-74 0 -116 67t-42 184q0 111 43.5 176.5t116.5 65.5t115.5 -66.5t42.5 -179.5q0 -115 -43 -181t-117 -66zM182 74q21 0 29.5 36.5t8.5 126.5t-8.5 126t-30.5 36t-30.5 -36t-8.5 -125q0 -92 9 -128t31 -36z" />
<glyph unicode="p" horiz-adv-x="365" d="M150 34v-191h-117v630h117v-40q23 50 82 50t85 -55.5t26 -182.5q0 -255 -112 -255q-51 0 -81 44zM150 111q0 -44 29 -44q27 0 39 39t12 127q0 98 -10 134t-37 36q-33 0 -33 -45v-247z" />
<glyph unicode="q" horiz-adv-x="356" d="M127 -13q-106 0 -106 242q0 122 32 187q16 31 43.5 49t59.5 18q52 0 91 -56l28 46h48v-630h-117v184q-38 -40 -79 -40zM157 71q5 -8 19 -8q12 0 20 9q7 8 8.5 15.5t1.5 35.5v240q0 26 -6 36.5t-22 10.5q-44 0 -44 -171q0 -139 23 -168z" />
<glyph unicode="r" horiz-adv-x="266" d="M33 0v473h117v-76q14 34 48.5 59t67.5 27v-123q-24 3 -36 3q-80 0 -80 -70v-293h-117z" />
<glyph unicode="s" horiz-adv-x="306" d="M12 126v10l92 14q2 -75 45 -75q16 0 26.5 11.5t10.5 28.5q0 21 -11.5 34t-60.5 49q-47 34 -67 67t-20 79q0 63 36.5 101t97.5 38q114 0 126 -129l-91 -14q-4 61 -38 61q-14 0 -23 -11.5t-9 -28.5q0 -18 13.5 -34.5t48.5 -39.5q59 -39 77 -63q28 -40 28 -90 q0 -63 -39.5 -103.5t-100.5 -40.5t-101 38.5t-40 97.5z" />
<glyph unicode="t" horiz-adv-x="241" d="M67 26q-9 15 -11 30t-2 63v267h-49v87h58l10 165h98v-165h71v-87h-71v-255q0 -28 9 -39t31 -11q11 0 25 5v-86q-40 -15 -81 -15q-65 0 -88 41z" />
<glyph unicode="u" horiz-adv-x="356" d="M43 26q-11 21 -11 71v376h117v-341q0 -28 5.5 -38.5t19.5 -10.5q27 0 32 28v362h117v-473h-117v45q-47 -55 -97 -55q-45 0 -66 36z" />
<glyph unicode="v" horiz-adv-x="282" d="M86 0l-89 473h112l38 -252l43 252h95l-95 -473h-104z" />
<glyph unicode="w" horiz-adv-x="421" d="M61 0l-59 473h101l29 -265l41 265h91l38 -265l34 265h83l-71 -473h-101l-41 281l-45 -281h-100z" />
<glyph unicode="x" horiz-adv-x="312" d="M10 0l92 235l-97 238h117l42 -108l40 108h96l-90 -223l96 -250h-107l-54 134l-45 -134h-90z" />
<glyph unicode="y" horiz-adv-x="297" d="M3 -73h21q39 0 57 12t18 39q0 11 -6 42l-90 453h113l42 -276l47 276h89l-89 -448q-14 -67 -24 -96t-28 -48q-28 -30 -68 -36q-10 -2 -60 -2h-22v84z" />
<glyph unicode="z" horiz-adv-x="292" d="M10 0v72l150 314h-139v87h261v-62l-149 -324h149v-87h-272z" />
<glyph unicode="{" horiz-adv-x="257" d="M65 -39v177q0 41 -12 60.5t-41 25.5v71q30 7 40 24q13 19 13 53v177q0 75 25 106.5t84 31.5q6 0 33 -2q12 0 22 -1v-75h-17q-28 0 -34.5 -12t-6.5 -61v-160q0 -49 -11.5 -73.5t-45.5 -47.5q32 -22 44.5 -48t12.5 -73v-160q0 -53 8.5 -63.5t49.5 -9.5v-76h-22l-25 -2h-9 q-58 0 -83 32t-25 106z" />
<glyph unicode="|" horiz-adv-x="500" d="M192 -167v834h117v-834h-117z" />
<glyph unicode="}" horiz-adv-x="257" d="M85 -26v160q0 49 11.5 73.5t45.5 47.5q-32 22 -44.5 48t-12.5 73v160q0 53 -8.5 63.5t-48.5 9.5v76h22l24 2h9q58 0 83 -32t25 -106v-177q0 -41 12.5 -60.5t41.5 -25.5v-71q-54 -11 -54 -77v-177q0 -74 -25 -106t-84 -32q-6 0 -32 2q-13 0 -22 1v75h17q27 0 33.5 12 t6.5 61z" />
<glyph unicode="~" horiz-adv-x="667" d="M156 565l-65 43q1 3 2.5 6.5t3 6t1.5 3.5q30 65 61.5 91t80.5 26q33 0 105 -27q66 -25 89 -25q25 0 41 11.5t35 42.5l66 -39q-34 -72 -69 -99q-40 -29 -87 -29q-28 0 -145 43q-23 9 -43 9q-26 0 -41.5 -13t-34.5 -50z" />
<glyph unicode="&#xa1;" horiz-adv-x="263" d="M78 348v125h119v-125h-119zM63 -193l36 465h71l30 -465h-137z" />
<glyph unicode="&#xa2;" d="M177 0v96q-131 17 -131 235q0 106 35 174t96 81v81h61v-83q50 -17 72 -58.5t23 -118.5h-97l-2 60q-2 41 -27 41q-26 0 -32 -48q-9 -57 -9 -145q0 -73 8 -100.5t30 -27.5q19 0 28.5 22.5t12.5 77.5l88 -6q1 -68 -25 -116t-70 -62v-103h-61z" />
<glyph unicode="&#xa3;" d="M86 -10q-38 0 -63.5 30t-25.5 73q0 46 28 79t68 33q13 0 45 -8q-6 42 -28 95h-108v92h74q-17 47 -17 93q0 87 46.5 143.5t119.5 56.5q62 0 101.5 -41t52.5 -120l-108 -26q-3 31 -15.5 48t-31.5 17t-31.5 -18t-12.5 -47q0 -37 29 -106h141v-92h-115q5 -29 5 -56 q0 -42 -13 -82q13 -16 32.5 -27t35.5 -11q24 0 45 40h42q1 -4 1 -8q0 -63 -40 -118q-28 -40 -70 -40q-53 0 -93 63q-26 -35 -47 -49t-47 -14zM82 62q29 0 51 42l-4 4q-19 19 -42 19q-12 0 -21 -10t-9 -24q0 -13 7.5 -22t17.5 -9z" />
<glyph unicode="&#xa4;" horiz-adv-x="667" d="M129 70l-69 69l87 88q-32 54 -32 113q0 52 35 114l-90 89l70 70l90 -91q63 33 114 33t111 -32l90 89l69 -69l-87 -88q35 -60 35 -116q0 -53 -32 -112l87 -87l-69 -70l-87 87q-56 -36 -113 -36q-59 0 -122 36zM333 220q48 0 82 35t34 85q0 49 -34 84.5t-80 35.5 q-49 0 -83 -35t-34 -85q0 -49 34 -84.5t81 -35.5z" />
<glyph unicode="&#xa5;" d="M120 0v141h-89v91h89v18l-15 58h-74v91h51l-69 268h129l54 -281l67 281h104l-77 -268h49v-91h-76l-16 -58v-18h92v-91h-92v-141h-127z" />
<glyph unicode="&#xa6;" horiz-adv-x="500" d="M192 323v344h117v-344h-117zM192 153h117v-320h-117v320z" />
<glyph unicode="&#xa7;" d="M27 -25l94 38q15 -28 30 -39t38 -11q27 0 44.5 16t17.5 41q0 26 -17 43q-12 12 -105 64q-115 63 -115 161q0 73 66 110q-49 48 -49 117q0 71 45.5 118t114.5 47q104 0 152 -111l-89 -35q-21 54 -65 54q-22 0 -36 -15t-14 -39q0 -26 18 -43q13 -12 82 -46 q69 -33 97.5 -70.5t28.5 -94.5q0 -38 -14 -65.5t-48 -55.5q29 -26 41.5 -52t12.5 -64q0 -74 -48.5 -122t-123.5 -48q-103 0 -158 102zM191 226q22 -12 34 -20q35 24 35 56q0 24 -24.5 45.5t-84.5 49.5q-31 -28 -31 -56q0 -22 14 -37t57 -38z" />
<glyph unicode="&#xa8;" horiz-adv-x="500" d="M267 534v89h90v-89h-90zM143 534v89h90v-89h-90z" />
<glyph unicode="&#xa9;" horiz-adv-x="749" d="M27 333q0 144 102 244t250 100q141 0 242.5 -101.5t101.5 -242.5q0 -142 -102 -242.5t-246 -100.5t-246 100.5t-102 242.5zM76 333q0 -125 87 -213.5t210 -88.5q124 0 211 88.5t87 213.5q0 124 -87 213.5t-207 89.5q-126 0 -213.5 -88t-87.5 -215zM370 125 q-112 0 -112 191q0 91 18 143q14 39 41 60.5t63 21.5q46 0 73.5 -35.5t27.5 -96.5q0 -9 -1 -15h-81q-2 50 -5 64q-5 19 -18 19q-16 0 -21 -29q-8 -61 -8 -140q0 -61 6 -85t21 -24q28 0 28 79v9h78q0 -77 -29 -119.5t-81 -42.5z" />
<glyph unicode="&#xaa;" horiz-adv-x="233" d="M79 376q-26 0 -43.5 24.5t-17.5 60.5q0 62 49 86q19 9 62 16v22q0 19 -3 25t-11 6q-10 0 -14.5 -6.5t-6.5 -23.5l-65 4q-1 38 25 61t69 23q84 0 84 -85v-135q0 -42 5 -72h-69q-4 7 -6 17q0 1 -2 9q-31 -32 -56 -32zM112 434q15 0 17 14v71q-21 -7 -29.5 -17.5t-8.5 -30.5 q0 -16 6 -26.5t15 -10.5zM0 294v40h233v-40h-233z" />
<glyph unicode="&#xab;" horiz-adv-x="410" d="M180 243l126 175l70 -48l-92 -127l92 -133l-70 -49zM159 61l-126 182l126 175l70 -48l-92 -127l92 -133z" />
<glyph unicode="&#xac;" horiz-adv-x="500" d="M33 158v109h433v-267h-117v158h-316z" />
<glyph unicode="&#xad;" horiz-adv-x="160" d="M0 204v105h160v-105h-160z" />
<glyph unicode="&#xae;" horiz-adv-x="749" d="M27 333q0 144 102 244t250 100q141 0 242.5 -101.5t101.5 -242.5q0 -142 -102 -242.5t-246 -100.5t-246 100.5t-102 242.5zM76 333q0 -125 87 -213.5t210 -88.5q124 0 211 88.5t87 213.5q0 124 -87 213.5t-207 89.5q-126 0 -213.5 -88t-87.5 -215zM271 133v400h96 q125 0 125 -111q0 -35 -10 -57.5t-36 -42.5l45 -189h-83l-37 179h-18v-179h-82zM353 361h11q26 0 36.5 13.5t10.5 45.5q0 29 -10.5 41t-35.5 12h-12v-112z" />
<glyph unicode="&#xaf;" horiz-adv-x="500" d="M132 533v83h235v-83h-235z" />
<glyph unicode="&#xb0;" d="M191 356q-66 0 -112.5 46.5t-46.5 111.5q0 66 46.5 112.5t112.5 46.5t111.5 -46.5t45.5 -113.5q0 -65 -46 -111t-111 -46zM190 406q43 0 74.5 31.5t31.5 74.5q0 46 -31.5 78.5t-75.5 32.5q-43 0 -74 -32.5t-31 -76.5t31.5 -76t74.5 -32z" />
<glyph unicode="&#xb1;" d="M148 180v106h-108v83h108v104h83v-104h109v-83h-109v-106h-83zM40 39v83h300v-83h-300z" />
<glyph unicode="&#xb2;" horiz-adv-x="260" d="M24 267v63q70 102 96 154t26 93q0 16 -6 26t-16 10q-13 0 -18 -14t-6 -53l-73 3v9q0 52 29 83.5t76 31.5q42 0 69 -27.5t27 -70.5t-29 -97.5t-98 -138.5h119v-72h-196z" />
<glyph unicode="&#xb3;" horiz-adv-x="260" d="M118 261q-47 0 -73 27.5t-25 76.5l67 4q5 -48 28 -48q32 0 32 63q0 59 -56 59q-8 0 -13 -1v62q5 -1 13 -1q28 0 39 13.5t11 47.5q0 50 -21 50q-14 0 -19 -9.5t-7 -39.5l-66 6q1 24 7 43q9 27 33.5 43t58.5 16q44 0 68.5 -28t24.5 -79q0 -34 -10.5 -52.5t-38.5 -36.5 q32 -16 45 -37.5t13 -59.5q0 -56 -29.5 -87.5t-81.5 -31.5z" />
<glyph unicode="&#xb4;" horiz-adv-x="500" d="M215 533l58 143h100l-93 -143h-65z" />
<glyph unicode="&#xb5;" horiz-adv-x="356" d="M149 -2v-155h-117v630h117v-341q0 -28 5.5 -38.5t19.5 -10.5q27 0 32 28v362h117v-473h-117v45q-30 -35 -57 -47z" />
<glyph unicode="&#xb6;" horiz-adv-x="400" d="M159 -113v433q-69 -1 -108 44.5t-39 125.5q0 106 70 151q42 26 122 26h184v-58h-31v-722h-75v722h-48v-722h-75z" />
<glyph unicode="&#xb7;" horiz-adv-x="186" d="M33 195v125h119v-125h-119z" />
<glyph unicode="&#xb8;" horiz-adv-x="500" d="M207 -44h101l-71 -121h-72z" />
<glyph unicode="&#xb9;" horiz-adv-x="260" d="M49 267v60h47v255q-29 -8 -45 -8h-2v49q46 15 81 44h45v-340h44v-60h-170z" />
<glyph unicode="&#xba;" horiz-adv-x="233" d="M116 376q-47 0 -74.5 40.5t-27.5 111.5q0 67 28 106.5t75 39.5t74.5 -40t27.5 -109t-27.5 -109t-75.5 -40zM117 425q22 0 22 101q0 99 -23 99q-22 0 -22 -98q0 -102 23 -102zM0 294v40h233v-40h-233z" />
<glyph unicode="&#xbb;" horiz-adv-x="410" d="M180 110l92 126l-92 133l70 49l126 -182l-126 -175zM33 110l92 126l-92 133l70 49l126 -182l-126 -175z" />
<glyph unicode="&#xbc;" horiz-adv-x="663" d="M133 0l331 667h65l-332 -667h-64zM49 267v60h47v255q-29 -8 -45 -8h-2v49q46 15 81 44h45v-340h44v-60h-170zM426 99v58l80 243h98v-243h37v-58h-37v-99h-71v99h-107zM477 157h56v181z" />
<glyph unicode="&#xbd;" horiz-adv-x="663" d="M133 0l331 667h65l-332 -667h-64zM49 267v60h47v255q-29 -8 -45 -8h-2v49q46 15 81 44h45v-340h44v-60h-170zM426 0v63q70 102 96 154t26 93q0 16 -6 26t-16 10q-13 0 -18 -14t-6 -53l-73 3v9q0 52 29 83.5t76 31.5q42 0 69 -27.5t27 -70.5t-29 -97.5t-98 -138.5h119v-72 h-196z" />
<glyph unicode="&#xbe;" horiz-adv-x="663" d="M118 261q-47 0 -73 27.5t-25 76.5l67 4q5 -48 28 -48q32 0 32 63q0 59 -56 59q-8 0 -13 -1v62q5 -1 13 -1q28 0 39 13.5t11 47.5q0 50 -21 50q-14 0 -19 -9.5t-7 -39.5l-66 6q1 24 7 43q9 27 33.5 43t58.5 16q44 0 68.5 -28t24.5 -79q0 -34 -10.5 -52.5t-38.5 -36.5 q32 -16 45 -37.5t13 -59.5q0 -56 -29.5 -87.5t-81.5 -31.5zM133 0l331 667h65l-332 -667h-64zM426 99v58l81 243h98v-243h36v-58h-36v-99h-71v99h-108zM477 157h57v181z" />
<glyph unicode="&#xbf;" horiz-adv-x="355" d="M130 348v125h119v-125h-119zM30 -61q0 50 29 105q7 13 43 69q17 28 23.5 57.5t10.5 88.5l1 14h103v-18q0 -63 -13 -110t-51 -118q-27 -51 -27 -86q0 -26 12 -42t31 -16q48 0 48 95v10l98 -6v-20q0 -74 -43.5 -121.5t-110.5 -47.5q-70 0 -112 40t-42 106z" />
<glyph unicode="&#xc0;" horiz-adv-x="347" d="M149 717l-94 142h108l57 -142h-71zM-3 0l98 667h174l82 -667h-114l-17 143h-102l-18 -143h-103zM131 246h78l-38 325z" />
<glyph unicode="&#xc1;" horiz-adv-x="347" d="M152 717l57 142h108l-94 -142h-71zM-3 0l98 667h174l82 -667h-114l-17 143h-102l-18 -143h-103zM131 246h78l-38 325z" />
<glyph unicode="&#xc2;" horiz-adv-x="347" d="M52 717l93 141h101l84 -141h-101l-45 81l-54 -81h-78zM-3 0l98 667h174l82 -667h-114l-17 143h-102l-18 -143h-103zM131 246h78l-38 325z" />
<glyph unicode="&#xc3;" horiz-adv-x="347" d="M45 713v11q0 46 28.5 76.5t71.5 30.5q34 0 72 -22q18 -11 25 -11q15 0 23 29h68v-12q0 -43 -26 -71.5t-66 -28.5q-24 0 -54 17q-27 15 -41 15q-23 0 -29 -34h-72zM-3 0l98 667h174l82 -667h-114l-17 143h-102l-18 -143h-103zM131 246h78l-38 325z" />
<glyph unicode="&#xc4;" horiz-adv-x="347" d="M202 717v94h97v-94h-97zM70 717v94h97v-94h-97zM-3 0l98 667h174l82 -667h-114l-17 143h-102l-18 -143h-103zM131 246h78l-38 325z" />
<glyph unicode="&#xc5;" horiz-adv-x="347" d="M188 700q-35 0 -59.5 24.5t-24.5 59.5q0 34 25 58.5t60 24.5q34 0 58 -24.5t24 -58.5t-24.5 -59t-58.5 -25zM187 745q16 0 27.5 11.5t11.5 27.5q0 15 -11.5 26.5t-26.5 11.5q-16 0 -27.5 -11t-11.5 -27t11 -27.5t27 -11.5zM-3 0l98 667h174l82 -667h-114l-17 143h-102 l-18 -143h-103zM131 246h78l-38 325z" />
<glyph unicode="&#xc6;" horiz-adv-x="503" d="M-3 0l97 667h374v-100h-189l21 -172h139v-105h-124l23 -190h142v-100h-244l-16 142h-103l-18 -142h-102zM129 242h79l-39 330z" />
<glyph unicode="&#xc7;" horiz-adv-x="395" d="M201 -13q-175 0 -175 317q0 154 28 240q22 65 64.5 100.5t98.5 35.5q73 0 114.5 -59t41.5 -163q0 -12 -1 -22h-119q-2 86 -8 109q-9 38 -35 38q-32 0 -39 -54q-14 -88 -14 -241q0 -108 10.5 -147.5t39.5 -39.5q52 0 52 141v13h113q0 -128 -44.5 -198t-126.5 -70zM145 -45 h111l-82 -136h-78z" />
<glyph unicode="&#xc8;" horiz-adv-x="341" d="M139 717l-94 142h108l57 -142h-71zM40 0v667h285v-100h-158v-170h116v-107h-116v-190h158v-100h-285z" />
<glyph unicode="&#xc9;" horiz-adv-x="341" d="M148 717l57 142h108l-94 -142h-71zM40 0v667h285v-100h-158v-170h116v-107h-116v-190h158v-100h-285z" />
<glyph unicode="&#xca;" horiz-adv-x="341" d="M48 717l93 141h101l84 -141h-101l-45 81l-54 -81h-78zM40 0v667h285v-100h-158v-170h116v-107h-116v-190h158v-100h-285z" />
<glyph unicode="&#xcb;" horiz-adv-x="341" d="M205 717v94h97v-94h-97zM73 717v94h97v-94h-97zM40 0v667h285v-100h-158v-170h116v-107h-116v-190h158v-100h-285z" />
<glyph unicode="&#xcc;" horiz-adv-x="207" d="M68 716l-74 143h101l44 -143h-71zM40 0v667h127v-667h-127z" />
<glyph unicode="&#xcd;" horiz-adv-x="207" d="M74 716l44 143h101l-74 -143h-71zM40 0v667h127v-667h-127z" />
<glyph unicode="&#xce;" horiz-adv-x="207" d="M-9 717l80 141h101l70 -141h-100l-33 71l-40 -71h-78zM40 0v667h127v-667h-127z" />
<glyph unicode="&#xcf;" horiz-adv-x="207" d="M120 717v94h97v-94h-97zM-3 717v94h97v-94h-97zM40 0v667h127v-667h-127z" />
<glyph unicode="&#xd0;" horiz-adv-x="409" d="M40 0v297h-40v93h40v277h141q50 0 81 -11t57 -38q42 -42 54 -118q10 -65 10 -176q0 -197 -67 -274q-26 -29 -56.5 -39.5t-92.5 -10.5h-127zM167 103q7 -2 14 -2q44 0 58 39q14 37 14 212q0 153 -19 187q-16 29 -55 29q-8 0 -12 -1v-177h43v-93h-43v-194z" />
<glyph unicode="&#xd1;" horiz-adv-x="409" d="M72 713v11q0 46 28.5 76.5t71.5 30.5q34 0 72 -22q18 -11 25 -11q15 0 23 29h68v-12q0 -43 -26 -71.5t-66 -28.5q-24 0 -54 17q-28 15 -41 15q-23 0 -29 -34h-72zM40 0v667h111l121 -338v338h97v-667h-94l-138 390v-390h-97z" />
<glyph unicode="&#xd2;" horiz-adv-x="424" d="M174 717l-94 142h108l57 -142h-71zM212 -13q-96 0 -140.5 82.5t-44.5 261.5q0 185 44 267t144 82q94 0 138 -83.5t44 -263.5q0 -181 -44 -263.5t-141 -82.5zM178 118q9 -28 34 -28q28 0 37 36q11 41 11 207q0 179 -14 216q-10 28 -33 28q-29 0 -38 -36q-11 -41 -11 -204 q0 -179 14 -219z" />
<glyph unicode="&#xd3;" horiz-adv-x="424" d="M180 717l57 142h108l-94 -142h-71zM212 -13q-96 0 -140.5 82.5t-44.5 261.5q0 185 44 267t144 82q94 0 138 -83.5t44 -263.5q0 -181 -44 -263.5t-141 -82.5zM178 118q9 -28 34 -28q28 0 37 36q11 41 11 207q0 179 -14 216q-10 28 -33 28q-29 0 -38 -36q-11 -41 -11 -204 q0 -179 14 -219z" />
<glyph unicode="&#xd4;" horiz-adv-x="424" d="M83 717l93 141h101l84 -141h-101l-45 81l-54 -81h-78zM212 -13q-96 0 -140.5 82.5t-44.5 261.5q0 185 44 267t144 82q94 0 138 -83.5t44 -263.5q0 -181 -44 -263.5t-141 -82.5zM178 118q9 -28 34 -28q28 0 37 36q11 41 11 207q0 179 -14 216q-10 28 -33 28q-29 0 -38 -36 q-11 -41 -11 -204q0 -179 14 -219z" />
<glyph unicode="&#xd5;" horiz-adv-x="424" d="M76 713v11q0 46 28.5 76.5t71.5 30.5q34 0 72 -22q18 -11 25 -11q15 0 23 29h68v-12q0 -43 -26 -71.5t-66 -28.5q-24 0 -54 17q-28 15 -41 15q-23 0 -29 -34h-72zM212 -13q-96 0 -140.5 82.5t-44.5 261.5q0 185 44 267t144 82q94 0 138 -83.5t44 -263.5 q0 -181 -44 -263.5t-141 -82.5zM178 118q9 -28 34 -28q28 0 37 36q11 41 11 207q0 179 -14 216q-10 28 -33 28q-29 0 -38 -36q-11 -41 -11 -204q0 -179 14 -219z" />
<glyph unicode="&#xd6;" horiz-adv-x="424" d="M233 717v94h97v-94h-97zM101 717v94h97v-94h-97zM212 -13q-96 0 -140.5 82.5t-44.5 261.5q0 185 44 267t144 82q94 0 138 -83.5t44 -263.5q0 -181 -44 -263.5t-141 -82.5zM178 118q9 -28 34 -28q28 0 37 36q11 41 11 207q0 179 -14 216q-10 28 -33 28q-29 0 -38 -36 q-11 -41 -11 -204q0 -179 14 -219z" />
<glyph unicode="&#xd7;" d="M113 191l-59 59l77 77l-75 74l59 59l75 -74l76 76l59 -59l-77 -76l75 -74l-59 -59l-74 74z" />
<glyph unicode="&#xd8;" horiz-adv-x="412" d="M20 7l36 72q-36 77 -36 244q0 181 46.5 269t142.5 88q76 0 119 -49l26 53l58 -28l-47 -95q26 -75 26 -209q0 -185 -40 -272q-20 -43 -59.5 -68t-88.5 -25q-61 0 -104 36l-23 -46zM156 282l96 194q-4 60 -13 80.5t-31 20.5q-33 0 -42 -54q-11 -64 -11 -217q0 -14 1 -24z M204 90q15 0 23 8t14 36.5t8 73t4 128.5l-90 -183q4 -36 13 -49.5t28 -13.5z" />
<glyph unicode="&#xd9;" horiz-adv-x="400" d="M169 717l-94 142h108l57 -142h-71zM37 158v509h127v-509q0 -43 9 -55q10 -13 33 -13q27 0 38 20q7 13 7 48v509h113v-499q0 -73 -17 -108q-33 -73 -152 -73q-86 0 -122 39t-36 132z" />
<glyph unicode="&#xda;" horiz-adv-x="400" d="M178 717l57 142h108l-94 -142h-71zM37 158v509h127v-509q0 -43 9 -55q10 -13 33 -13q27 0 38 20q7 13 7 48v509h113v-499q0 -73 -17 -108q-33 -73 -152 -73q-86 0 -122 39t-36 132z" />
<glyph unicode="&#xdb;" horiz-adv-x="400" d="M78 717l93 141h101l84 -141h-101l-45 81l-54 -81h-78zM37 158v509h127v-509q0 -43 9 -55q10 -13 33 -13q27 0 38 20q7 13 7 48v509h113v-499q0 -73 -17 -108q-33 -73 -152 -73q-86 0 -122 39t-36 132z" />
<glyph unicode="&#xdc;" horiz-adv-x="400" d="M225 717v94h97v-94h-97zM93 717v94h97v-94h-97zM37 158v509h127v-509q0 -43 9 -55q10 -13 33 -13q27 0 38 20q7 13 7 48v509h113v-499q0 -73 -17 -108q-33 -73 -152 -73q-86 0 -122 39t-36 132z" />
<glyph unicode="&#xdd;" horiz-adv-x="354" d="M155 717l57 142h108l-94 -142h-71zM107 0v250l-107 417h129l54 -258l68 258h104l-121 -417v-250h-127z" />
<glyph unicode="&#xde;" horiz-adv-x="398" d="M40 0v667h127v-100h25q55 0 77 -5t45 -23q61 -48 61 -162q0 -124 -68 -169q-38 -26 -113 -26h-27v-182h-127zM167 281h10q45 0 63 21t18 72q0 64 -28 86q-12 10 -47 10h-16v-189z" />
<glyph unicode="&#xdf;" horiz-adv-x="398" d="M13 0q15 52 18 74.5t3 77.5v272q0 91 13 143q30 113 163 113q73 0 118 -44t45 -116q0 -109 -109 -159q57 -14 87.5 -56t30.5 -106q0 -104 -67 -163q-24 -22 -49.5 -29t-76.5 -7h-12v106l12 -1q21 -1 32.5 4t21.5 20q19 29 19 84q0 49 -19.5 70.5t-65.5 23.5v105 q44 2 63.5 24.5t19.5 70.5q0 83 -56 83q-53 0 -53 -78v-338q0 -102 -24 -174h-114z" />
<glyph unicode="&#xe0;" horiz-adv-x="336" d="M152 533l-93 143h100l58 -143h-65zM107 -10q-38 0 -64.5 40t-26.5 98q0 100 75 141q8 4 14 6.5t15 5t15 3.5t23.5 4.5l31.5 6.5l5 1v42q0 32 -6 43.5t-23 11.5q-16 0 -24.5 -11t-11.5 -37l-96 7q0 59 40 95t105 36q72 0 107 -44q22 -30 22 -94v-229q0 -76 8 -116h-105 q-2 4 -3 7.5t-2 5.5l-2 12l-4 18v5q-43 -58 -93 -58zM162 80q12 0 21.5 8.5t11.5 19.5v122q-69 -12 -69 -85q0 -28 10 -46.5t26 -18.5z" />
<glyph unicode="&#xe1;" horiz-adv-x="336" d="M149 533l58 143h100l-93 -143h-65zM107 -10q-38 0 -64.5 40t-26.5 98q0 100 75 141q8 4 14 6.5t15 5t15 3.5t23.5 4.5l31.5 6.5l5 1v42q0 32 -6 43.5t-23 11.5q-16 0 -24.5 -11t-11.5 -37l-96 7q0 59 40 95t105 36q72 0 107 -44q22 -30 22 -94v-229q0 -76 8 -116h-105 q-2 4 -3 7.5t-2 5.5l-2 12l-4 18v5q-43 -58 -93 -58zM162 80q12 0 21.5 8.5t11.5 19.5v122q-69 -12 -69 -85q0 -28 10 -46.5t26 -18.5z" />
<glyph unicode="&#xe2;" horiz-adv-x="336" d="M52 533l94 142h88l82 -142h-93l-45 80l-54 -80h-72zM107 -10q-38 0 -64.5 40t-26.5 98q0 100 75 141q8 4 14 6.5t15 5t15 3.5t23.5 4.5l31.5 6.5l5 1v42q0 32 -6 43.5t-23 11.5q-16 0 -24.5 -11t-11.5 -37l-96 7q0 59 40 95t105 36q72 0 107 -44q22 -30 22 -94v-229 q0 -76 8 -116h-105q-2 4 -3 7.5t-2 5.5l-2 12l-4 18v5q-43 -58 -93 -58zM162 80q12 0 21.5 8.5t11.5 19.5v122q-69 -12 -69 -85q0 -28 10 -46.5t26 -18.5z" />
<glyph unicode="&#xe3;" horiz-adv-x="336" d="M43 533v11q0 43 28 71.5t69 28.5q35 0 70 -20q18 -11 25 -11q14 0 22 27h65q1 -49 -23 -77t-66 -28q-22 0 -53 16q-27 14 -39 14q-22 0 -28 -32h-70zM107 -10q-38 0 -64.5 40t-26.5 98q0 100 75 141q8 4 14 6.5t15 5t15 3.5t23.5 4.5l31.5 6.5l5 1v42q0 32 -6 43.5 t-23 11.5q-16 0 -24.5 -11t-11.5 -37l-96 7q0 59 40 95t105 36q72 0 107 -44q22 -30 22 -94v-229q0 -76 8 -116h-105q-2 4 -3 7.5t-2 5.5l-2 12l-4 18v5q-43 -58 -93 -58zM162 80q12 0 21.5 8.5t11.5 19.5v122q-69 -12 -69 -85q0 -28 10 -46.5t26 -18.5z" />
<glyph unicode="&#xe4;" horiz-adv-x="336" d="M195 534v89h90v-89h-90zM71 534v89h90v-89h-90zM107 -10q-38 0 -64.5 40t-26.5 98q0 100 75 141q8 4 14 6.5t15 5t15 3.5t23.5 4.5l31.5 6.5l5 1v42q0 32 -6 43.5t-23 11.5q-16 0 -24.5 -11t-11.5 -37l-96 7q0 59 40 95t105 36q72 0 107 -44q22 -30 22 -94v-229 q0 -76 8 -116h-105q-2 4 -3 7.5t-2 5.5l-2 12l-4 18v5q-43 -58 -93 -58zM162 80q12 0 21.5 8.5t11.5 19.5v122q-69 -12 -69 -85q0 -28 10 -46.5t26 -18.5z" />
<glyph unicode="&#xe5;" horiz-adv-x="336" d="M178 520q-31 0 -53.5 22.5t-22.5 54.5q0 31 22.5 53.5t54.5 22.5q31 0 53 -22.5t22 -53.5q0 -32 -22.5 -54.5t-53.5 -22.5zM178 557q16 0 27.5 12t11.5 28t-11.5 27.5t-26.5 11.5q-17 0 -28.5 -11.5t-11.5 -27.5t11.5 -28t27.5 -12zM107 -10q-38 0 -64.5 40t-26.5 98 q0 100 75 141q8 4 14 6.5t15 5t15 3.5t23.5 4.5l31.5 6.5l5 1v42q0 32 -6 43.5t-23 11.5q-16 0 -24.5 -11t-11.5 -37l-96 7q0 59 40 95t105 36q72 0 107 -44q22 -30 22 -94v-229q0 -76 8 -116h-105q-2 4 -3 7.5t-2 5.5l-2 12l-4 18v5q-43 -58 -93 -58zM162 80q12 0 21.5 8.5 t11.5 19.5v122q-69 -12 -69 -85q0 -28 10 -46.5t26 -18.5z" />
<glyph unicode="&#xe6;" horiz-adv-x="510" d="M15 123q0 117 99 154q28 10 86 16v56q0 27 -6.5 37t-24.5 10q-16 0 -24 -10.5t-12 -36.5l-96 7q3 58 42 92.5t102 34.5q58 0 90 -27q42 27 83 27q134 0 134 -223q0 -28 -1 -56h-179v-15q0 -107 46 -107q37 0 53 61l80 -21q-33 -132 -140 -132q-61 0 -106 48 q-55 -48 -110 -48q-52 0 -84 37t-32 96zM312 291h73q-1 8 -1 18q-2 54 -8.5 71.5t-25.5 17.5q-20 0 -27.5 -21t-10.5 -86zM161 80q28 0 36 27v124q-38 -8 -54 -28.5t-16 -59.5q0 -28 9.5 -45.5t24.5 -17.5z" />
<glyph unicode="&#xe7;" horiz-adv-x="326" d="M169 -10q-71 0 -109 60.5t-38 174.5q0 136 52 202q45 56 107 56q39 0 71 -23.5t44 -61.5q12 -36 13 -97h-97l-2 60q-2 41 -28 41q-25 0 -31 -48q-9 -57 -9 -145q0 -72 8 -99.5t30 -27.5q20 0 29 22t12 77l88 -6q-1 -88 -38 -136.5t-102 -48.5zM116 -44h101l-71 -121h-72z " />
<glyph unicode="&#xe8;" horiz-adv-x="337" d="M139 533l-93 143h100l58 -143h-65zM52 66q-30 55 -30 158q0 140 46 201q43 58 113 58q135 0 135 -234q0 -26 -1 -45h-179q1 -69 13 -93q13 -28 34 -28q37 0 52 62l80 -21q-12 -43 -24 -64q-18 -32 -50 -51t-68 -19q-81 0 -121 76zM138 291h71q0 63 -7 84.5t-27 21.5 q-37 0 -37 -90v-16z" />
<glyph unicode="&#xe9;" horiz-adv-x="337" d="M150 533l58 143h100l-93 -143h-65zM52 66q-30 55 -30 158q0 140 46 201q43 58 113 58q135 0 135 -234q0 -26 -1 -45h-179q1 -69 13 -93q13 -28 34 -28q37 0 52 62l80 -21q-12 -43 -24 -64q-18 -32 -50 -51t-68 -19q-81 0 -121 76zM138 291h71q0 63 -7 84.5t-27 21.5 q-37 0 -37 -90v-16z" />
<glyph unicode="&#xea;" horiz-adv-x="337" d="M56 533l94 142h88l82 -142h-93l-45 80l-54 -80h-72zM52 66q-30 55 -30 158q0 140 46 201q43 58 113 58q135 0 135 -234q0 -26 -1 -45h-179q1 -69 13 -93q13 -28 34 -28q37 0 52 62l80 -21q-12 -43 -24 -64q-18 -32 -50 -51t-68 -19q-81 0 -121 76zM138 291h71 q0 63 -7 84.5t-27 21.5q-37 0 -37 -90v-16z" />
<glyph unicode="&#xeb;" horiz-adv-x="337" d="M196 534v89h90v-89h-90zM72 534v89h90v-89h-90zM52 66q-30 55 -30 158q0 140 46 201q43 58 113 58q135 0 135 -234q0 -26 -1 -45h-179q1 -69 13 -93q13 -28 34 -28q37 0 52 62l80 -21q-12 -43 -24 -64q-18 -32 -50 -51t-68 -19q-81 0 -121 76zM138 291h71q0 63 -7 84.5 t-27 21.5q-37 0 -37 -90v-16z" />
<glyph unicode="&#xec;" horiz-adv-x="180" d="M61 533l-73 143h93l45 -143h-65zM34 0v473h117v-473h-117z" />
<glyph unicode="&#xed;" horiz-adv-x="180" d="M64 533l45 143h93l-73 -143h-65zM33 0v473h117v-473h-117z" />
<glyph unicode="&#xee;" horiz-adv-x="180" d="M-29 533l94 142h88l82 -142h-93l-45 80l-54 -80h-72zM33 0v473h117v-473h-117z" />
<glyph unicode="&#xef;" horiz-adv-x="180" d="M110 534v89h90v-89h-90zM-7 534v89h90v-89h-90zM33 0v473h117v-473h-117z" />
<glyph unicode="&#xf0;" horiz-adv-x="362" d="M181 -10q-73 0 -116 66t-43 178t42.5 175.5t117.5 63.5q8 0 31 -3q-15 67 -41 98l-66 -58l-35 43l68 59q-24 26 -47 36l22 45q14 -2 41.5 -16.5t35.5 -23.5l62 54l35 -42l-54 -45q59 -53 84 -167q22 -100 22 -211q0 -118 -42.5 -185t-116.5 -67zM182 74q21 0 29.5 36 t8.5 124q0 89 -8.5 124t-30.5 35t-30.5 -35.5t-8.5 -122.5q0 -90 9 -125.5t31 -35.5z" />
<glyph unicode="&#xf1;" horiz-adv-x="358" d="M47 533v11q0 43 28 71.5t69 28.5q35 0 70 -20q18 -11 25 -11q14 0 22 27h65q1 -49 -23 -77t-66 -28q-22 0 -53 16q-27 14 -39 14q-22 0 -28 -32h-70zM33 0v473h117v-48q43 58 96 58q50 0 69 -37q11 -23 11 -75v-371h-117v361q0 20 -5.5 27.5t-18.5 7.5t-23 -10t-12 -25 v-361h-117z" />
<glyph unicode="&#xf2;" horiz-adv-x="362" d="M148 533l-93 143h100l58 -143h-65zM180 -10q-74 0 -116 67t-42 184q0 111 43.5 176.5t116.5 65.5t115.5 -66.5t42.5 -179.5q0 -115 -43 -181t-117 -66zM182 74q21 0 29.5 36.5t8.5 126.5t-8.5 126t-30.5 36t-30.5 -36t-8.5 -125q0 -92 9 -128t31 -36z" />
<glyph unicode="&#xf3;" horiz-adv-x="362" d="M149 533l58 143h100l-93 -143h-65zM180 -10q-74 0 -116 67t-42 184q0 111 43.5 176.5t116.5 65.5t115.5 -66.5t42.5 -179.5q0 -115 -43 -181t-117 -66zM182 74q21 0 29.5 36.5t8.5 126.5t-8.5 126t-30.5 36t-30.5 -36t-8.5 -125q0 -92 9 -128t31 -36z" />
<glyph unicode="&#xf4;" horiz-adv-x="362" d="M55 533l94 142h88l82 -142h-93l-45 80l-54 -80h-72zM180 -10q-74 0 -116 67t-42 184q0 111 43.5 176.5t116.5 65.5t115.5 -66.5t42.5 -179.5q0 -115 -43 -181t-117 -66zM182 74q21 0 29.5 36.5t8.5 126.5t-8.5 126t-30.5 36t-30.5 -36t-8.5 -125q0 -92 9 -128t31 -36z " />
<glyph unicode="&#xf5;" horiz-adv-x="362" d="M53 533v11q0 43 28 71.5t69 28.5q35 0 70 -20q18 -11 25 -11q14 0 22 27h65q1 -49 -23 -77t-66 -28q-22 0 -53 16q-27 14 -39 14q-22 0 -28 -32h-70zM180 -10q-74 0 -116 67t-42 184q0 111 43.5 176.5t116.5 65.5t115.5 -66.5t42.5 -179.5q0 -115 -43 -181t-117 -66z M182 74q21 0 29.5 36.5t8.5 126.5t-8.5 126t-30.5 36t-30.5 -36t-8.5 -125q0 -92 9 -128t31 -36z" />
<glyph unicode="&#xf6;" horiz-adv-x="362" d="M201 534v89h90v-89h-90zM77 534v89h90v-89h-90zM180 -10q-74 0 -116 67t-42 184q0 111 43.5 176.5t116.5 65.5t115.5 -66.5t42.5 -179.5q0 -115 -43 -181t-117 -66zM182 74q21 0 29.5 36.5t8.5 126.5t-8.5 126t-30.5 36t-30.5 -36t-8.5 -125q0 -92 9 -128t31 -36z" />
<glyph unicode="&#xf7;" d="M190 422q-21 0 -36 15t-15 36t15 36t37 15q20 0 35 -15t15 -36t-15 -36t-36 -15zM40 286v83h300v-83h-300zM139 181q0 21 15 36t37 15q20 0 35 -15t15 -36t-15 -36t-36 -15t-36 15t-15 36z" />
<glyph unicode="&#xf8;" horiz-adv-x="362" d="M15 -6l41 75q-34 56 -34 166q0 119 42 183.5t120 64.5q49 0 83 -31l24 43l58 -30l-38 -73q28 -58 28 -151q0 -116 -43.5 -183.5t-119.5 -67.5q-43 0 -75 24l-28 -51zM139 221l73 132q-6 46 -31 46q-20 0 -29 -26q-6 -15 -12 -135zM152 101q10 -26 27 -26q26 0 35 48 q2 12 7 103z" />
<glyph unicode="&#xf9;" horiz-adv-x="356" d="M146 533l-93 143h100l58 -143h-65zM43 26q-11 21 -11 71v376h117v-341q0 -28 5.5 -38.5t19.5 -10.5q27 0 32 28v362h117v-473h-117v45q-47 -55 -97 -55q-45 0 -66 36z" />
<glyph unicode="&#xfa;" horiz-adv-x="356" d="M149 533l58 143h100l-93 -143h-65zM43 26q-11 21 -11 71v376h117v-341q0 -28 5.5 -38.5t19.5 -10.5q27 0 32 28v362h117v-473h-117v45q-47 -55 -97 -55q-45 0 -66 36z" />
<glyph unicode="&#xfb;" horiz-adv-x="356" d="M53 533l94 142h88l82 -142h-93l-45 80l-54 -80h-72zM43 26q-11 21 -11 71v376h117v-341q0 -28 5.5 -38.5t19.5 -10.5q27 0 32 28v362h117v-473h-117v45q-47 -55 -97 -55q-45 0 -66 36z" />
<glyph unicode="&#xfc;" horiz-adv-x="356" d="M199 534v89h90v-89h-90zM75 534v89h90v-89h-90zM43 26q-11 21 -11 71v376h117v-341q0 -28 5.5 -38.5t19.5 -10.5q27 0 32 28v362h117v-473h-117v45q-47 -55 -97 -55q-45 0 -66 36z" />
<glyph unicode="&#xfd;" horiz-adv-x="297" d="M130 533l58 143h100l-93 -143h-65zM3 -73h21q39 0 57 12t18 39q0 11 -6 42l-90 453h113l42 -276l47 276h89l-89 -448q-14 -67 -24 -96t-28 -48q-28 -30 -68 -36q-10 -2 -60 -2h-22v84z" />
<glyph unicode="&#xfe;" horiz-adv-x="365" d="M150 34v-191h-117v824h117v-234q23 50 82 50t85 -55.5t26 -182.5q0 -255 -112 -255q-51 0 -81 44zM150 111q0 -44 29 -44q27 0 39 39t12 127q0 98 -10 134t-37 36q-33 0 -33 -45v-247z" />
<glyph unicode="&#xff;" horiz-adv-x="297" d="M176 534v89h90v-89h-90zM52 534v89h90v-89h-90zM3 -73h21q39 0 57 12t18 39q0 11 -6 42l-90 453h113l42 -276l47 276h89l-89 -448q-14 -67 -24 -96t-28 -48q-28 -30 -68 -36q-10 -2 -60 -2h-22v84z" />
<glyph unicode="&#x152;" horiz-adv-x="563" d="M203 -13q-94 0 -138.5 79t-44.5 247q0 191 46 279t146 88q35 0 71 -13h257v-100h-154v-173h113v-105h-113v-190h154v-100h-274q-29 -12 -63 -12zM172 115q9 -25 34 -25q27 0 35 35q13 50 13 229q0 72 -1.5 113.5t-7 68t-14 35t-23.5 8.5q-25 0 -35 -36q-16 -53 -16 -222 q0 -165 15 -206z" />
<glyph unicode="&#x153;" horiz-adv-x="534" d="M177 -10q-76 0 -115.5 64.5t-39.5 188.5q0 117 41 178.5t118 61.5q56 0 99 -38q51 38 99 38q134 0 134 -223q0 -28 -1 -56h-179v-15q0 -107 46 -107q37 0 53 61l80 -21q-33 -132 -141 -132q-55 0 -96 40q-35 -40 -98 -40zM155 92q9 -17 24 -17q22 0 30.5 31t8.5 109 q0 152 -17 174q-9 12 -21 12q-22 0 -30 -33q-2 -9 -6 -65.5t-4 -81.5q0 -99 15 -129zM337 291h73q-1 8 -1 18q-2 54 -8.5 71.5t-25.5 17.5q-20 0 -27.5 -21t-10.5 -86z" />
<glyph unicode="&#x178;" horiz-adv-x="354" d="M208 717v94h97v-94h-97zM76 717v94h97v-94h-97zM107 0v250l-107 417h129l54 -258l68 258h104l-121 -417v-250h-127z" />
<glyph unicode="&#x2c6;" horiz-adv-x="500" d="M118 533l94 142h88l82 -142h-93l-45 80l-54 -80h-72z" />
<glyph unicode="&#x2dc;" horiz-adv-x="450" d="M87 533v11q0 43 28 71.5t69 28.5q35 0 70 -20q18 -11 25 -11q14 0 22 27h65q1 -49 -23 -77t-66 -28q-22 0 -53 16q-27 14 -39 14q-22 0 -28 -32h-70z" />
<glyph unicode="&#x2000;" horiz-adv-x="433" />
<glyph unicode="&#x2001;" horiz-adv-x="867" />
<glyph unicode="&#x2002;" horiz-adv-x="433" />
<glyph unicode="&#x2003;" horiz-adv-x="867" />
<glyph unicode="&#x2004;" horiz-adv-x="289" />
<glyph unicode="&#x2005;" horiz-adv-x="216" />
<glyph unicode="&#x2006;" horiz-adv-x="144" />
<glyph unicode="&#x2007;" horiz-adv-x="144" />
<glyph unicode="&#x2008;" horiz-adv-x="108" />
<glyph unicode="&#x2009;" horiz-adv-x="173" />
<glyph unicode="&#x200a;" horiz-adv-x="48" />
<glyph unicode="&#x2010;" horiz-adv-x="160" d="M0 204v105h160v-105h-160z" />
<glyph unicode="&#x2011;" horiz-adv-x="160" d="M0 204v105h160v-105h-160z" />
<glyph unicode="&#x2013;" d="M44 204v105h291v-105h-291z" />
<glyph unicode="&#x2014;" horiz-adv-x="466" d="M0 204v105h466v-105h-466z" />
<glyph unicode="&#x2018;" horiz-adv-x="202" d="M40 410v101l87 156h42l-48 -134h41v-123h-122z" />
<glyph unicode="&#x2019;" horiz-adv-x="202" d="M33 410l48 134h-41v123h122v-101l-87 -156h-42z" />
<glyph unicode="&#x201a;" horiz-adv-x="202" d="M40 0v123h122v-101l-87 -155h-42l48 133h-41z" />
<glyph unicode="&#x201c;" horiz-adv-x="363" d="M201 410v101l87 156h42l-48 -134h41v-123h-122zM40 410v101l87 156h42l-48 -134h41v-123h-122z" />
<glyph unicode="&#x201d;" horiz-adv-x="363" d="M194 410l48 134h-41v123h122v-101l-87 -156h-42zM33 410l48 134h-41v123h122v-101l-87 -156h-42z" />
<glyph unicode="&#x201e;" horiz-adv-x="363" d="M201 0v123h122v-101l-87 -155h-42l48 133h-41zM40 0v123h122v-101l-87 -155h-42l48 133h-41z" />
<glyph unicode="&#x2022;" horiz-adv-x="667" d="M335 200q-57 0 -98 40.5t-41 97.5q0 58 41 98.5t100 40.5q55 0 95.5 -41t40.5 -97q0 -58 -40.5 -98.5t-97.5 -40.5z" />
<glyph unicode="&#x2026;" horiz-adv-x="557" d="M405 0v125h119v-125h-119zM219 0v125h119v-125h-119zM33 0v125h119v-125h-119z" />
<glyph unicode="&#x202f;" horiz-adv-x="173" />
<glyph unicode="&#x2039;" horiz-adv-x="263" d="M159 61l-126 182l126 175l70 -48l-92 -127l92 -133z" />
<glyph unicode="&#x203a;" horiz-adv-x="263" d="M33 110l92 126l-92 133l70 49l126 -182l-126 -175z" />
<glyph unicode="&#x205f;" horiz-adv-x="216" />
<glyph unicode="&#x20ac;" horiz-adv-x="457" d="M98 150q-10 42 -13 140h-58l22 88h38q8 111 26 166q21 65 63.5 100.5t98.5 35.5q73 0 114.5 -59t41.5 -163v-22h-119q-2 86 -8 110q-10 37 -35 37t-36 -43t-15 -162h91l-22 -88h-71q0 -110 10.5 -150t39.5 -40q52 0 52 142q0 7 -1 13h114q0 -128 -44.5 -198t-126.5 -70 q-126 0 -162 163z" />
<glyph unicode="&#x2122;" horiz-adv-x="535" d="M244 287v380h105l31 -180l31 180h105v-380h-75v250l-44 -250h-48l-40 246v-246h-65zM70 287v317h-63v63h211v-63h-65v-317h-83z" />
</font>
</defs>
</svg>
