<?xml version="1.0" standalone="no"?>
<!DOCTYPE svg PUBLIC "-//W3C//DTD SVG 1.1//EN" "http://www.w3.org/Graphics/SVG/1.1/DTD/svg11.dtd" >
<svg xmlns="http://www.w3.org/2000/svg">
<metadata>
This is a custom SVG webfont generated by Fontspring.
Designer    : John Baskerville ca. 1752
Foundry     : FontSite
Foundry URL : http://www.fontsite.com
</metadata>
<defs>
<font id="webfontZa9cVAV6" horiz-adv-x="500" >
<font-face units-per-em="1000" ascent="733" descent="-267" />
<missing-glyph horiz-adv-x="250" />
<glyph unicode=" "  horiz-adv-x="250" />
<glyph unicode="&#x09;" horiz-adv-x="250" />
<glyph unicode="&#xa0;" horiz-adv-x="250" />
<glyph unicode="!" horiz-adv-x="247" d="M106 180q-3 84 -22 200q-17 99 -17 158q0 66 15.5 106t41.5 40t41.5 -39.5t15.5 -105.5q0 -58 -17 -159q-19 -112 -22 -200h-36zM68 43q0 24 16.5 40t39.5 16q24 0 40 -16t16 -40t-16 -40t-41 -16q-23 0 -39 16.5t-16 39.5z" />
<glyph unicode="&#x22;" horiz-adv-x="340" d="M220 409l-19 199l-1 29q-1 19 11.5 31t31.5 12t31.5 -12t11.5 -31q1 -12 -1 -29l-20 -199h-45zM74 409l-20 199v15l-1 14q-1 19 11.5 31t32.5 12q18 0 30.5 -12t12.5 -31q0 -11 -2 -29l-19 -199h-45z" />
<glyph unicode="#" d="M78 0l44 209h-101l11 53h101l30 139h-101l11 53h101l42 196h43l-42 -196h128l42 196h42l-42 -196h94l-11 -53h-94l-30 -139h94l-11 -53h-94l-44 -209h-43l45 209h-128l-45 -209h-42zM176 262h128l30 139h-128z" />
<glyph unicode="$" d="M76 68q-44 42 -44 72q0 17 12.5 29.5t28.5 12.5q17 0 29.5 -13t25.5 -46q31 -77 108 -87v264q-15 8 -42 20q-74 34 -100 61q-41 45 -41 109q0 81 48.5 129.5t134.5 52.5v100h36v-100q90 -11 139 -64q35 -38 35 -74q0 -18 -10 -29t-27 -11q-18 0 -30 18q-5 8 -11 39 q-16 75 -96 88v-253q99 -44 129 -71q61 -54 61 -129q0 -102 -93 -157q-50 -29 -97 -29v-108h-36v108q-95 5 -160 68zM239 401v238q-54 -2 -87.5 -31.5t-33.5 -73.5q0 -60 60 -99q15 -10 61 -34zM276 36q51 5 87 41.5t36 82.5q0 53 -59 90q-12 8 -64 34v-248z" />
<glyph unicode="%" horiz-adv-x="543" d="M69 0l369 667h35l-369 -667h-35zM127 327q-50 0 -82 47.5t-32 121.5q0 75 32 122t83 47t83 -47t32 -122q0 -76 -32 -122.5t-84 -46.5zM127 345q29 0 46 40.5t17 111.5q0 70 -16.5 111t-45.5 41t-46 -40.5t-17 -111.5q0 -70 16.5 -111t45.5 -41zM299 164q0 75 32 122 t83 47t83 -47t32 -122q0 -76 -32 -122.5t-84 -46.5q-50 0 -82 47.5t-32 121.5zM351 165q0 -70 16.5 -111t45.5 -41t46 40.5t17 111.5q0 70 -16.5 111t-45.5 41t-46 -40.5t-17 -111.5z" />
<glyph unicode="&#x26;" horiz-adv-x="680" d="M52 168q0 118 154 200q-37 56 -49 84t-12 60q0 50 40 84t99 34t98 -29t39 -74q0 -51 -46 -91q-17 -16 -71 -49q-4 -2 -13 -8l145 -206q24 30 42.5 72.5t18.5 69.5q0 28 -18.5 40.5t-58.5 12.5v27h208v-27q-40 -8 -62.5 -32t-47.5 -82q-31 -73 -62 -108q77 -101 136 -101 q21 0 44 12.5t38 31.5l19 -26q-19 -33 -54.5 -53.5t-74.5 -20.5q-47 0 -84 21t-75 70q-49 -51 -87 -71t-85 -20q-73 0 -127 53.5t-54 125.5zM273 405q88 54 88 112q0 33 -22 55.5t-54 22.5q-30 0 -51.5 -19t-21.5 -46q0 -22 9.5 -41.5t43.5 -71.5zM133 206q0 -61 44 -108 t101 -47q61 0 109 52q-56 73 -164 239q-51 -36 -70.5 -65.5t-19.5 -70.5z" />
<glyph unicode="'" horiz-adv-x="193" d="M74 409l-20 199v15l-1 14q-1 19 11.5 31t32.5 12q18 0 30.5 -12t12.5 -31q0 -11 -2 -29l-19 -199h-45z" />
<glyph unicode="(" horiz-adv-x="273" d="M38 229q0 124 37.5 249t102.5 222h65q-133 -205 -133 -471t133 -471h-65q-65 97 -102.5 222t-37.5 249z" />
<glyph unicode=")" horiz-adv-x="273" d="M30 -242q64 97 99 220t35 251t-35 251t-99 220h65q66 -97 103 -221.5t37 -249.5t-37 -249.5t-103 -221.5h-65z" />
<glyph unicode="*" horiz-adv-x="467" d="M154 349q-18 0 -32.5 13t-14.5 29q0 14 12 27t53 45q27 21 33 33q-16 7 -70 8q-42 1 -59.5 10.5t-17.5 31.5q0 18 11 31.5t26 13.5q19 0 80 -41q24 -17 41 -21q0 23 -15 70q-9 29 -9 50q0 17 11.5 27.5t30.5 10.5q18 0 29.5 -10.5t11.5 -27.5q0 -21 -17 -74 q-8 -28 -8 -44v-2q20 5 62 35q39 27 61 27q14 0 25 -13.5t11 -31.5q0 -25 -19 -33t-83 -10q-34 -1 -46 -7q12 -18 53 -48q45 -34 45 -57q0 -16 -14.5 -29t-32.5 -13q-17 0 -28 16t-30 69q-12 32 -21 42q-12 -15 -29 -65q-22 -62 -50 -62z" />
<glyph unicode="+" d="M228 110v195h-205v43h205v195h43v-195h205v-43h-205v-195h-43z" />
<glyph unicode="," horiz-adv-x="243" d="M52 53q0 23 17 39t42 16q36 0 60.5 -33t24.5 -80q0 -54 -38 -102.5t-94 -65.5v18q79 56 79 115q0 16 -8 40q-19 -3 -25 -3q-25 0 -41.5 16t-16.5 40z" />
<glyph unicode="-" horiz-adv-x="213" d="M0 192v49h213v-49h-213z" />
<glyph unicode="." horiz-adv-x="218" d="M53 43q0 24 16.5 40t39.5 16q24 0 40 -16t16 -40t-16 -40t-41 -16q-23 0 -39 16.5t-16 39.5z" />
<glyph unicode="/" horiz-adv-x="336" d="M-11 -242h-49l333 942h49z" />
<glyph unicode="0" d="M88 100q-51 88 -51 227q0 151 61 244q61 94 153 94q99 0 162 -111q51 -89 51 -228q0 -149 -61 -243q-62 -94 -155 -94q-98 0 -160 111zM249 14q59 0 92 83t33 231t-33 232t-91 84t-91 -84t-33 -231q0 -146 33 -230.5t90 -84.5z" />
<glyph unicode="1" d="M123 0v27h23q39 0 58 22q13 16 13 62v457h-83v29q74 0 158 63q2 2 5 2t3 -5v-546q0 -46 16.5 -65t56.5 -19h17v-27h-267z" />
<glyph unicode="2" d="M37 0l9 41q311 258 311 464q0 59 -35.5 98.5t-88.5 39.5q-52 0 -88.5 -35.5t-36.5 -86.5q0 -33 17 -61t42 -38q-4 -10 -16.5 -17.5t-25.5 -7.5q-30 0 -50 29t-20 72q0 73 52.5 120t133.5 47q87 0 143.5 -54.5t56.5 -137.5q0 -67 -34.5 -130t-110.5 -136 q-46 -43 -164 -134h237q24 0 36.5 13.5t31.5 56.5l3 7h23l-38 -150h-388z" />
<glyph unicode="3" d="M35 115q0 30 20 52t47 22h8q-13 -30 -13 -54q0 -49 35.5 -82.5t88.5 -33.5q58 0 93 43.5t35 114.5q0 90 -47 134q-23 20 -55 20q-9 0 -23 -10q-26 -19 -44 -19q-14 0 -25.5 11t-11.5 25q0 27 68 27q28 0 44 -4q38 16 59 50.5t21 80.5q0 69 -32 111.5t-83 42.5 q-39 0 -64 -22t-25 -57q0 -41 30 -71q-11 -8 -30 -8q-25 0 -42.5 18t-17.5 44q0 48 47 81.5t114 33.5q78 0 131 -48t53 -119q0 -55 -32 -94.5t-87 -50.5q52 -11 93 -52q49 -49 49 -120q0 -85 -63.5 -138.5t-164.5 -53.5q-76 0 -126 35.5t-50 90.5z" />
<glyph unicode="4" d="M27 163l309 491q4 8 8 8q6 0 6 -8v-455h38q25 0 38 11t23 39h25l-25 -86h-99v-70q0 -66 52 -66h19v-27h-225v27h14q32 0 45.5 15t13.5 51v70h-242zM83 199h186v165v49v47v34v12z" />
<glyph unicode="5" d="M23 107q0 25 12.5 40.5t31.5 15.5q24 0 34 -23q5 -12 6 -50q1 -34 21.5 -54.5t54.5 -20.5q68 0 112.5 61.5t44.5 154.5q0 71 -28.5 112t-77.5 41q-26 0 -50 -16t-31 -37v-3q-1 -1 -1 -7q0 -9 -8 -16.5t-17 -7.5q-6 0 -13 13v3l39 341l48 -3q88 -6 147 -6q38 0 49.5 3 t25.5 17l2 2h26q-49 -63 -75 -81t-68 -18q-13 0 -79 2l-55 2l-21 -194q38 35 99 35q77 0 128.5 -52.5t51.5 -131.5q0 -98 -73 -169t-174 -71q-68 0 -115 34.5t-47 83.5z" />
<glyph unicode="6" d="M256 -11q-96 0 -153.5 76.5t-57.5 204.5q0 97 34 190t86 140q71 65 166 65q50 0 79.5 -16.5t29.5 -44.5q0 -16 -10 -26.5t-24 -10.5q-26 0 -47 40q-20 38 -58 38q-24 0 -52 -18t-47 -46q-24 -34 -42 -93t-20 -111q46 49 121 49q86 0 140.5 -59t54.5 -153 q0 -98 -56.5 -161.5t-143.5 -63.5zM255 15q54 0 81 44q36 57 36 153q0 91 -31 142.5t-86 51.5q-60 0 -94 -54q-28 -46 -28 -121q0 -101 32.5 -158.5t89.5 -57.5z" />
<glyph unicode="7" d="M110 28q0 19 16 48l275 492h-204q-89 0 -108 -90h-28l28 189h23v-2q0 -26 37 -26h303l-240 -591q-14 -35 -26 -47t-32 -12q-44 0 -44 39z" />
<glyph unicode="8" d="M29 179q0 112 118 165q-27 9 -40 19q-29 21 -46 56t-17 73q0 75 59.5 124t150.5 49q84 0 141.5 -49t57.5 -121q0 -94 -101 -139q43 -16 69 -44q51 -54 51 -130q0 -83 -64 -138t-161 -55q-92 0 -155 54.5t-63 135.5zM200 409l99 -35q42 19 58 48q17 32 17 74 q0 66 -35 106.5t-91 40.5q-54 0 -90 -37t-36 -92q0 -41 18.5 -65.5t59.5 -39.5zM112 182q0 -73 38 -118.5t98 -45.5q58 0 98.5 44.5t40.5 109.5q0 91 -91 121l-96 32q-47 -25 -62 -49q-26 -37 -26 -94z" />
<glyph unicode="9" d="M39 91q0 19 11.5 31.5t28.5 12.5q28 0 36 -35q8 -38 30.5 -60.5t53.5 -22.5q51 0 90.5 45t59.5 124q12 51 12 88q-45 -48 -122 -48q-82 0 -138.5 59t-56.5 145q0 96 62 165.5t147 69.5q93 0 150.5 -81t57.5 -212q0 -166 -79.5 -274.5t-201.5 -108.5q-60 0 -100.5 29.5 t-40.5 72.5zM247 246q56 0 88.5 48.5t32.5 131.5q0 102 -31 161.5t-85 59.5q-55 0 -87.5 -53.5t-32.5 -144.5q0 -96 30.5 -149.5t84.5 -53.5z" />
<glyph unicode=":" horiz-adv-x="218" d="M108 315q-23 0 -39 16.5t-16 39.5q0 24 16.5 40t39.5 16q24 0 40 -16t16 -40t-16 -40t-41 -16zM53 43q0 24 16.5 40t39.5 16q24 0 40 -16t16 -40t-16 -40t-41 -16q-23 0 -39 16.5t-16 39.5z" />
<glyph unicode=";" horiz-adv-x="243" d="M124 315q-23 0 -39 16.5t-16 39.5q0 24 16.5 40t39.5 16q24 0 40 -16t16 -40t-16 -40t-41 -16zM52 53q0 23 17 39t42 16q36 0 60.5 -33t24.5 -80q0 -54 -38 -102.5t-94 -65.5v18q79 56 79 115q0 16 -8 40q-19 -3 -25 -3q-25 0 -41.5 16t-16.5 40z" />
<glyph unicode="&#x3c;" d="M45 336l407 259v-56l-320 -202l320 -203v-56z" />
<glyph unicode="=" d="M23 379v43h453v-43h-453zM23 232v43h453v-43h-453z" />
<glyph unicode="&#x3e;" d="M48 78v56l320 203l-320 202v56l407 -258z" />
<glyph unicode="?" horiz-adv-x="398" d="M131 180v224h21q29 -37 55 -37q32 0 52 37.5t20 97.5q0 68 -27 108t-74 40q-22 0 -40.5 -14t-24.5 -36q-8 -27 -35 -27q-14 0 -22.5 9t-8.5 24q0 31 40 54.5t92 23.5q79 0 132.5 -55t53.5 -135q0 -69 -40.5 -118t-96.5 -49q-30 0 -59 18v-165h-38zM94 43q0 24 16.5 40 t39.5 16q24 0 40 -16t16 -40t-16 -40t-41 -16q-23 0 -39 16.5t-16 39.5z" />
<glyph unicode="@" horiz-adv-x="715" d="M20 220q0 149 101.5 249.5t251.5 100.5q137 0 229.5 -85t92.5 -211q0 -99 -58 -167t-143 -68q-79 0 -85 70q-28 -38 -53 -53t-60 -15q-52 0 -80.5 32.5t-28.5 90.5q0 92 55.5 158t132.5 66q59 0 82 -48l9 41h65l-53 -236q-6 -25 -6 -44q0 -17 10 -27.5t27 -10.5 q57 0 100.5 63.5t43.5 146.5q0 115 -79.5 191t-198.5 76q-132 0 -221 -92t-89 -228q0 -140 90 -227.5t234 -87.5q100 0 213 51l15 -31q-115 -52 -229 -52q-162 0 -265 97.5t-103 249.5zM261 136q0 -33 12 -52.5t33 -19.5q48 0 91 74t43 157q0 32 -15 51t-41 19 q-45 0 -74 -49q-49 -86 -49 -180z" />
<glyph unicode="A" horiz-adv-x="717" d="M-7 0v31q48 1 70.5 15.5t37.5 50.5l240 581h36l253 -581q15 -33 36 -48.5t57 -17.5v-31h-275v31h22q58 0 58 31q0 14 -9 35l-54 128h-266l-52 -128q-7 -15 -7 -28q0 -22 15 -30t56 -8h12v-31h-230zM215 268h230l-86 212q-4 9 -10 27t-9 26l-5 13l-4 14q-2 -7 -8 -25z" />
<glyph unicode="B" horiz-adv-x="624" d="M33 0v31q64 3 82 17.5t18 62.5v445q0 48 -18.5 63t-81.5 17v31h323q82 0 130.5 -41t48.5 -109q0 -130 -179 -157q70 -1 129 -34q86 -47 86 -147q0 -78 -56 -128.5t-142 -50.5h-340zM233 373h53q139 0 139 132q0 67 -26.5 98t-85.5 31h-80v-261zM233 111q0 -41 22 -58 t76 -17q127 0 127 162q0 75 -40.5 109t-129.5 34h-55v-230z" />
<glyph unicode="C" horiz-adv-x="711" d="M40 326q0 156 96 257t245 101q112 0 214 -68q11 15 22 51h28l9 -241h-31q-57 223 -236 223q-107 0 -169.5 -83.5t-62.5 -228.5q0 -139 66.5 -222t178.5 -83q115 0 198 92q32 35 47 72l36 -28q-19 -45 -59 -85q-101 -101 -248 -101q-148 0 -241 96t-93 248z" />
<glyph unicode="D" horiz-adv-x="745" d="M33 0v31q64 3 82 17.5t18 62.5v445q0 48 -18.5 63t-81.5 17v31q295 0 351.5 -2.5t99.5 -17.5q103 -36 161.5 -120.5t58.5 -197.5q0 -149 -91 -239t-241 -90h-339zM245 64q18 -29 110 -29q121 0 177 85q54 86 54 215q0 120 -53 200q-66 100 -222 100l-78 -2v-488 q0 -63 12 -81z" />
<glyph unicode="E" horiz-adv-x="634" d="M33 0v31q64 3 82 17.5t18 62.5v445q0 48 -18.5 63t-81.5 17v31h493l18 -163h-32q-10 48 -33 81q-17 26 -40 37t-61 11h-145v-262h63q46 0 68.5 22.5t24.5 70.5h31v-226h-31q-3 56 -22.5 77t-70.5 21h-63v-214q0 -51 24.5 -69.5t92.5 -18.5q65 0 100.5 10.5t57.5 35.5 t38.5 61.5t18.5 64.5h29l-12 -206h-549z" />
<glyph unicode="F" horiz-adv-x="573" d="M33 0v31q64 3 82 17.5t18 62.5v445q0 48 -18.5 63t-81.5 17v31h489l17 -162h-30q-22 73 -51 101.5t-82 28.5h-145v-265h74q80 0 80 93h31v-227h-31q-1 50 -14 69q-21 31 -71 31h-69v-225q0 -48 18.5 -62.5t81.5 -17.5v-31h-298z" />
<glyph unicode="G" horiz-adv-x="756" d="M40 318q0 78 29 151t80 122q45 43 107 68t126 25q118 0 203 -66q14 22 22 49h28l6 -228h-34q-9 59 -41 112q-64 102 -183 102q-106 0 -166.5 -84t-60.5 -233q0 -145 60.5 -229.5t164.5 -84.5q56 0 108 27t52 56v74q0 32 -3 44t-12 20q-19 16 -63 16h-24v31h290v-31h-15 q-38 0 -55.5 -15t-17.5 -48v-148q-52 -6 -109 -28q-92 -37 -166 -37q-142 0 -234 94.5t-92 240.5z" />
<glyph unicode="H" horiz-adv-x="798" d="M33 0v31q63 3 81.5 17.5t18.5 62.5v445q0 48 -18.5 63t-81.5 17v31h300v-31q-63 -2 -81.5 -17t-18.5 -63v-182h332v182q0 48 -18.5 63t-81.5 17v31h300v-31q-63 -2 -81.5 -17t-18.5 -63v-445q0 -48 18 -62.5t82 -17.5v-31h-300v31q64 3 82 17.5t18 62.5v220h-332v-220 q0 -48 18 -62.5t82 -17.5v-31h-300z" />
<glyph unicode="I" horiz-adv-x="367" d="M33 0v31q64 3 82 17.5t18 62.5v445q0 48 -18.5 63t-81.5 17v31h300v-31q-63 -2 -81.5 -17t-18.5 -63v-445q0 -48 18 -62.5t82 -17.5v-31h-300z" />
<glyph unicode="J" horiz-adv-x="393" d="M-74 -127q19 0 32.5 -14.5t13.5 -34.5q0 -12 -5 -27q-1 -2 -1 -5q0 -28 58 -28q143 0 143 175v617q0 48 -18.5 63t-81.5 17v31h300v-31q-63 -2 -81.5 -17t-18.5 -63v-550q0 -69 -9 -108t-32 -71q-71 -96 -201 -96q-66 0 -109 25t-43 64q0 22 15.5 37.5t37.5 15.5z" />
<glyph unicode="K" horiz-adv-x="725" d="M33 0v31q64 3 82 17.5t18 62.5v445q0 48 -18.5 63t-81.5 17v31h300v-31q-63 -2 -81.5 -17t-18.5 -63v-216l235 216q29 26 29 47q0 15 -13.5 22.5t-46.5 11.5l-9 1v29h262v-29q-41 0 -71 -12.5t-65 -44.5l-180 -166l255 -335q19 -24 42.5 -35.5t66.5 -13.5v-31h-292v31 q47 3 58.5 6t11.5 13t-15 30l-200 268l-68 -62v-175q0 -48 18 -62.5t82 -17.5v-31h-300z" />
<glyph unicode="L" horiz-adv-x="621" d="M33 0v31q64 3 82 17.5t18 62.5v445q0 48 -18.5 63t-81.5 17v31h300v-31q-63 -2 -81.5 -17t-18.5 -63v-434q0 -51 24.5 -69.5t92.5 -18.5q64 0 99.5 10t58.5 36q22 25 38.5 62t18.5 64h29l-13 -206h-548z" />
<glyph unicode="M" horiz-adv-x="912" d="M27 0v31q46 1 74 22q15 12 20.5 33.5t5.5 70.5v386q0 59 -16.5 74.5t-83.5 18.5v31h207l153 -364q47 -113 64 -173q6 18 8 22l213 515h207v-31q-63 -2 -81.5 -17t-18.5 -63v-445q0 -45 13 -59q19 -21 77 -21h10v-31h-300v31q46 2 60.5 6t25.5 17q14 19 14 75v336 q0 72 6 140q-9 -33 -30 -84l-216 -521h-31l-197 475q-16 40 -44 117v-16v-16v-21v-358q0 -59 4 -84.5t15 -38.5q21 -23 80 -27v-31h-239z" />
<glyph unicode="N" horiz-adv-x="763" d="M33 0v31q56 2 78 26t22 82v417q0 48 -18.5 63t-81.5 17v31h199l326 -451q16 -23 37 -69v19l-1 22v28v320q0 53 -17 73.5t-66 25.5l-9 1v31h230v-31q-52 0 -74 -23t-22 -77v-542h-42l-356 496q-33 45 -65 100v-424q0 -81 18.5 -106t80.5 -29v-31h-239z" />
<glyph unicode="O" horiz-adv-x="789" d="M40 334q0 153 100 251.5t255 98.5t254.5 -98.5t99.5 -251.5q0 -154 -103 -255q-99 -96 -256 -96q-152 0 -251 99.5t-99 251.5zM155 335q0 -152 61.5 -234.5t173.5 -82.5q119 0 181 81t62 238q0 151 -62 233t-177 82t-177 -82t-62 -235z" />
<glyph unicode="P" horiz-adv-x="589" d="M33 0v31q64 3 82 17.5t18 62.5v445q0 48 -18.5 63t-81.5 17v31h235q98 0 129 -3t60 -15q99 -43 99 -157q0 -103 -84 -150q-46 -25 -142 -25h-97v-206q0 -48 18 -62.5t82 -17.5v-31h-300zM233 348h77q66 0 102 38.5t36 109.5q0 85 -47 119q-32 24 -105 24q-7 0 -63 -2 v-289z" />
<glyph unicode="Q" horiz-adv-x="787" d="M197 -109q0 8 13 13q126 46 185 81q-53 0 -83.5 6t-70.5 24q-96 42 -148.5 125t-52.5 192q0 154 100 253t255 99q157 0 256 -97t99 -251q0 -106 -49.5 -188t-141.5 -129q-44 -22 -150 -61q-51 -19 -96 -38q31 3 52 3q61 0 110.5 -12.5t126.5 -47.5q86 -39 126.5 -52 t76.5 -13q86 0 116 84q3 10 9 10q9 0 9 -11q0 -55 -64.5 -105.5t-134.5 -50.5q-43 0 -84.5 18t-137.5 77q-76 47 -118.5 65t-77.5 18q-40 0 -75 -23q-23 -15 -29 -15q-9 0 -15 7.5t-6 18.5zM217 99q28 -38 75.5 -59.5t103.5 -21.5q55 0 101 21t74 58q63 85 63 239 q0 164 -66 243q-62 73 -174 73t-175 -80q-63 -81 -63 -231q0 -160 61 -242z" />
<glyph unicode="R" horiz-adv-x="695" d="M33 0v31q64 3 82 17.5t18 62.5v445q0 48 -18.5 63t-81.5 17v31h284q124 0 182 -44q64 -48 64 -126q0 -69 -54 -117.5t-134 -50.5l38 -7t31 -14t28 -20t34.5 -41.5t45.5 -61l65 -94.5q24 -35 44 -48t49 -13h8v-30h-151q-39 31 -103 141q-55 96 -95 141q-29 33 -80 33h-56 v-204q0 -48 18 -62.5t82 -17.5v-31h-300zM233 348h88q60 0 91 26q42 34 42 118q0 144 -149 144h-72v-288z" />
<glyph unicode="S" horiz-adv-x="536" d="M53 0v210h31q11 -79 65.5 -132t124.5 -53q63 0 102 34t39 88q0 53 -34 85.5t-148 89.5q-91 46 -116 69q-51 48 -51 121q0 76 53 124t137 48q87 0 146 -50q7 12 21 40h24v-180h-30q-12 65 -38 99q-20 28 -54 44.5t-71 16.5q-48 0 -79.5 -26.5t-31.5 -67.5q0 -43 32.5 -74 t131.5 -80q71 -36 89.5 -47t38.5 -30q54 -50 54 -137q0 -94 -56.5 -151.5t-148.5 -57.5q-94 0 -178 74q-19 -41 -22 -57h-31z" />
<glyph unicode="T" horiz-adv-x="702" d="M202 0v31q64 3 82 17.5t18 62.5v524h-112q-54 0 -82.5 -28t-51.5 -102h-29l17 162h614l17 -162h-29q-23 75 -51.5 102.5t-82.5 27.5h-112v-524q0 -48 18 -62.5t82 -17.5v-31h-298z" />
<glyph unicode="U" horiz-adv-x="718" d="M162 56q-21 29 -28 62.5t-7 104.5v333q0 48 -18.5 62.5t-81.5 17.5v31h300v-31q-63 -2 -81.5 -17t-18.5 -63v-321q0 -105 17 -142q17 -35 56.5 -55t92.5 -20q113 0 148 84q17 41 17 133v314q0 51 -18 66.5t-82 20.5v31h240v-31q-65 -5 -82.5 -20t-17.5 -67v-321 q0 -133 -51.5 -189t-174.5 -56q-156 0 -210 73z" />
<glyph unicode="V" horiz-adv-x="717" d="M339 -11l-253 580q-15 35 -35.5 50.5t-57.5 16.5v31h275v-31h-22q-58 0 -58 -31q0 -14 9 -36l160 -382q15 -36 28 -78q2 5 4.5 12.5l3.5 10.5l175 434q9 21 9 34q0 20 -16 28t-56 8h-12v31h230v-31q-52 -4 -72 -16.5t-36 -50.5l-240 -580h-36z" />
<glyph unicode="W" horiz-adv-x="940" d="M262 -11l-177 582q-19 64 -92 65v31h269v-31h-15q-62 0 -62 -34q0 -6 6 -28l96 -337q5 -16 23 -97l162 527h31l132 -384q36 -105 43 -143q4 25 23 90l95 322q9 30 9 44q0 23 -18 31q-17 8 -70 9v31h229v-31q-46 0 -69.5 -15t-34.5 -50l-171 -582h-36l-176 506l-156 -506 h-41z" />
<glyph unicode="X" horiz-adv-x="723" d="M7 0v31q93 0 136 57l181 241l-174 251q-22 32 -45.5 43t-68.5 13v31h288v-31h-18q-50 0 -50 -22q0 -13 14 -34l115 -168l124 163q16 20 16 34t-17.5 20t-61.5 7v31h246v-31q-54 -3 -82.5 -15t-50.5 -41l-150 -202l195 -290q35 -52 113 -57v-31h-291v31h20q52 0 52 27 q0 12 -13 30l-140 207l-158 -207q-12 -15 -12 -28q0 -25 80 -29v-31h-248z" />
<glyph unicode="Y" horiz-adv-x="656" d="M179 0v31q64 3 82 17.5t18 62.5v186l-183 285q-19 30 -41.5 41.5t-61.5 12.5v31h286v-31h-25q-48 0 -48 -25q0 -13 9 -29l143 -246l147 243q11 19 11 30q0 16 -22 21q-14 4 -70 6v31h239v-31q-43 -1 -70.5 -16t-47.5 -48l-168 -275v-186q0 -48 18.5 -62.5t81.5 -17.5v-31 h-298z" />
<glyph unicode="Z" horiz-adv-x="640" d="M30 0v16l422 614h-216q-56 0 -91 -31t-53 -97h-33l19 165h507v-14l-422 -615h247q64 0 100 32t58 108h32l-15 -178h-555z" />
<glyph unicode="[" horiz-adv-x="273" d="M74 -242v942h170v-33h-95v-876h95v-33h-170z" />
<glyph unicode="\" horiz-adv-x="336" d="M348 -242l-333 942h49l333 -942h-49z" />
<glyph unicode="]" horiz-adv-x="273" d="M30 -209h95v876h-95v33h170v-942h-170v33z" />
<glyph unicode="^" d="M51 415l191 299h7l200 -299h-81l-135 204l-133 -204h-49z" />
<glyph unicode="_" d="M0 -99h500v-43h-500v43z" />
<glyph unicode="`" d="M263 473l-117 117q-4 4 -4 7q0 10 14 10h70l63 -125q1 -2 1 -7q0 -8 -11 -8q-10 0 -16 6z" />
<glyph unicode="a" horiz-adv-x="467" d="M47 97q0 43 18 69t61 44q26 11 105 29q37 9 60 18v34q0 57 -11 76q-18 29 -67 29q-31 0 -46.5 -13.5t-21.5 -44.5q-8 -41 -45 -41q-20 0 -33 9t-13 23q0 28 30 55q46 42 135 42q80 0 122 -36q20 -18 26.5 -35.5t6.5 -54.5v-219q0 -45 28 -45q26 0 39 45l2 7h30 q-24 -99 -100 -99q-73 0 -82 71q-26 -31 -66.5 -51t-77.5 -20q-47 0 -73.5 28.5t-26.5 79.5zM130 115q0 -29 19 -48.5t48 -19.5q47 0 94 41v140q-13 -7 -91 -30q-70 -21 -70 -83z" />
<glyph unicode="b" horiz-adv-x="534" d="M77 0v555q0 43 -15.5 61t-51.5 20v30q76 10 150 28v-327q50 59 140 59q88 0 142.5 -59.5t54.5 -156.5q0 -98 -58.5 -159.5t-152.5 -61.5q-70 0 -142 47q-17 -12 -31 -42zM160 105q47 -76 119 -76q60 0 94 46.5t34 128.5q0 178 -125 178q-43 0 -75.5 -19t-46.5 -53v-205z " />
<glyph unicode="c" horiz-adv-x="429" d="M37 199q0 100 59 163.5t153 63.5q54 0 97 -25.5t43 -57.5q0 -16 -11 -26.5t-28 -10.5q-20 0 -35 14q-3 38 -19 54.5t-51 16.5q-52 0 -83.5 -45.5t-31.5 -121.5q0 -89 37 -141t100 -52q72 0 112 77l30 -10q-40 -109 -168 -109q-91 0 -147.5 58.5t-56.5 151.5z" />
<glyph unicode="d" horiz-adv-x="548" d="M36 210q0 97 54.5 156.5t143.5 59.5q90 0 140 -59v188q0 43 -15.5 61t-51.5 20v30q76 10 150 28v-583q0 -41 16 -60t51 -20v-31q-59 0 -121 -6q-11 25 -13 42q-74 -47 -143 -47q-94 0 -152.5 61.5t-58.5 159.5zM126 204q0 -82 34 -128.5t95 -46.5q74 0 119 76v205 q-31 71 -123 71q-125 0 -125 -177z" />
<glyph unicode="e" horiz-adv-x="446" d="M147 94q33 -67 112 -67q38 0 67 17.5t58 58.5l29 -16q-63 -98 -171 -98q-92 0 -148.5 59.5t-56.5 155.5q0 97 56 159.5t142 62.5q82 0 129 -53.5t49 -149.5h-285q1 -91 19 -129zM129 258h195q0 51 -9 74q-20 57 -83 57q-46 0 -73.5 -34.5t-29.5 -96.5z" />
<glyph unicode="f" horiz-adv-x="305" d="M33 0v31q37 1 52 18.5t15 61.5v273h-70v31h70v59q0 92 35 142q44 61 127 61q42 0 68 -19t26 -49q0 -18 -11.5 -30.5t-28.5 -12.5t-28 13t-11 33q0 17 -6.5 24t-21.5 7q-31 0 -52 -31q-14 -21 -14 -75v-122h90v-31h-90v-273q0 -43 15 -60.5t52 -19.5l20 -1v-30h-237z" />
<glyph unicode="g" horiz-adv-x="481" d="M59 71q0 38 42 59q26 13 50 16q-92 29 -92 127q0 68 44 110.5t116 42.5q87 0 128 -50q18 22 45 36t50 14q20 0 33 -10.5t13 -27.5q0 -16 -9.5 -26.5t-24.5 -10.5t-30 16q-12 13 -26 13q-18 0 -38 -19q22 -37 22 -86q0 -81 -67 -121q-21 -12 -39.5 -16.5t-57.5 -6.5 q-49 -3 -80 -15t-31 -28q0 -17 46 -18q153 -3 200 -15q45 -10 69.5 -42.5t24.5 -81.5q0 -79 -62 -136q-60 -54 -158 -54q-90 0 -150 40.5t-60 101.5q0 42 38.5 71t94.5 29l3 -1l-8 -6q-26 -12 -42 -36.5t-16 -51.5q0 -47 39.5 -76.5t103.5 -29.5q65 0 108 30t43 76 q0 51 -44 70q-16 8 -30.5 10t-84.5 8q-88 7 -125.5 29t-37.5 66zM220 154q40 0 61.5 33t21.5 93q0 120 -81 120q-40 0 -61 -33.5t-21 -95.5q0 -117 80 -117z" />
<glyph unicode="h" horiz-adv-x="543" d="M27 0v31q37 1 52 18.5t15 61.5v444q0 43 -15.5 61t-51.5 20v30q76 10 150 28v-324q78 56 148 56q65 0 101 -38q28 -29 28 -99v-178q0 -44 15 -61.5t52 -18.5v-31h-217v31q37 1 52 18.5t15 61.5v176q0 44 -22.5 67t-65.5 23q-51 0 -106 -47v-219q0 -44 15 -61.5t52 -18.5 v-31h-217z" />
<glyph unicode="i" horiz-adv-x="273" d="M140 498q-24 0 -40.5 17t-16.5 40q0 24 17 40.5t41 16.5q23 0 39.5 -17t16.5 -40t-17 -40t-40 -17zM33 0v31q37 1 52 18.5t15 61.5v172q0 43 -15 61.5t-52 19.5v30q73 9 150 28v-311q0 -44 15 -61.5t52 -18.5v-31h-217z" />
<glyph unicode="j" horiz-adv-x="259" d="M143 498q-24 0 -40.5 17t-16.5 40q0 24 17 40.5t41 16.5q23 0 39.5 -17t16.5 -40t-17 -40t-40 -17zM101 -120v403q0 43 -15 61.5t-52 19.5v30q83 12 150 28v-517q0 -80 -44.5 -130t-115.5 -50q-40 0 -68 17t-28 41q0 13 10 23.5t24 10.5q19 0 36 -24q21 -28 46 -28 q31 0 44 26.5t13 88.5z" />
<glyph unicode="k" horiz-adv-x="510" d="M27 0v31q37 1 52 18.5t15 61.5v444q0 43 -15.5 61t-51.5 20v30q72 9 150 28v-454l132 104q12 9 12 22q0 18 -31 18h-10v31h174v-31q-57 -3 -100 -40l-95 -81l154 -180q35 -43 87 -52v-31h-191v31h5h13q22 0 22 10q0 5 -13 19l-137 157l-22 -19v-87q0 -44 15 -61.5 t52 -18.5v-31h-217z" />
<glyph unicode="l" horiz-adv-x="267" d="M27 0v31q37 1 52 18.5t15 61.5v445q0 42 -15.5 60.5t-51.5 19.5v31q73 10 150 27v-583q0 -44 15 -61.5t52 -18.5v-31h-217z" />
<glyph unicode="m" horiz-adv-x="824" d="M33 0v31q37 1 52 18.5t15 61.5v172q0 43 -15 61.5t-52 19.5v30q74 10 137 28q13 -26 13 -53v-8q72 65 149 65q89 0 117 -65q74 65 155 65q71 0 105 -42q24 -30 24 -101v-172q0 -44 15 -61.5t52 -18.5v-31h-217v31q37 1 52 18.5t15 61.5v159q0 60 -21 82q-24 24 -65 24 q-60 0 -106 -49v-4v-14v-18v-180q0 -44 15 -61.5t52 -18.5v-31h-217v31q37 1 52 18.5t15 61.5v167q0 97 -86 97q-51 0 -106 -48v-216q0 -44 15 -61.5t52 -18.5v-31h-217z" />
<glyph unicode="n" horiz-adv-x="549" d="M33 0v31q37 1 52 18.5t15 61.5v172q0 43 -15 61.5t-52 19.5v30q74 10 137 28q13 -26 13 -53v-8q71 65 150 65q83 0 113 -57q13 -25 13 -78v-180q0 -44 15 -61.5t52 -18.5v-31h-217v31q37 1 52 18.5t15 61.5v167q0 97 -87 97q-51 0 -106 -48v-216q0 -44 15 -61.5t52 -18.5 v-31h-217z" />
<glyph unicode="o" horiz-adv-x="505" d="M37 204q0 101 59.5 161.5t158.5 60.5q100 0 157 -58.5t57 -159.5q0 -99 -59.5 -159t-158.5 -60q-100 0 -157 57.5t-57 157.5zM127 204q0 -91 31.5 -138.5t92.5 -47.5q62 0 95 48.5t33 139.5q0 190 -125 190q-127 0 -127 -192z" />
<glyph unicode="p" horiz-adv-x="528" d="M167 35v-191q0 -43 15 -60.5t52 -19.5l20 -1v-30h-237v31q37 1 52 18.5t15 61.5v439q0 43 -15 61.5t-52 19.5v30q74 10 137 28q13 -21 13 -49v-8q56 61 139 61q81 0 133.5 -60.5t52.5 -154.5q0 -97 -54.5 -159.5t-138.5 -62.5q-76 0 -132 46zM167 81q49 -52 112 -52 q56 0 90.5 50t34.5 132q0 81 -31 128t-85 47q-69 0 -121 -81v-224z" />
<glyph unicode="q" horiz-adv-x="518" d="M37 200q0 97 57 161.5t143 64.5q71 0 121 -44q26 9 43 18l32 18l8 4v-578q0 -44 15 -61.5t52 -18.5v-31h-237v30l20 1q37 2 52 19.5t15 60.5v197q-57 -52 -134 -52q-82 0 -134.5 59.5t-52.5 151.5zM126 197q0 -78 33 -122t91 -44q28 0 50 9.5t58 37.5v249q-49 55 -109 55 q-56 0 -89.5 -50t-33.5 -135z" />
<glyph unicode="r" horiz-adv-x="378" d="M33 0v31q37 1 52 18.5t15 61.5v172q0 43 -15 61.5t-52 19.5v30q77 11 137 28q13 -22 13 -76q56 74 121 74q23 0 40 -15t17 -37q0 -17 -11.5 -29.5t-26.5 -12.5q-16 0 -29 17q-15 22 -34 22q-21 0 -43 -14t-34 -36v-204q0 -43 15 -61t52 -19l6 -1v-30h-223z" />
<glyph unicode="s" horiz-adv-x="372" d="M52 0v143h24q7 -52 41 -84t81 -32q30 0 49.5 17.5t19.5 45.5q0 31 -33 55q-15 10 -94 50q-85 41 -85 120q0 50 31 81t82 31q57 0 100 -49l18 37h24v-137h-24q-8 41 -23 62q-37 52 -85 52q-27 0 -43.5 -15t-16.5 -40q0 -27 22 -46q14 -12 65 -36q75 -35 96 -61 q30 -34 30 -80q0 -56 -34.5 -90.5t-89.5 -34.5q-65 0 -114 44l-17 -33h-24z" />
<glyph unicode="t" horiz-adv-x="308" d="M96 35q-20 29 -20 93v258h-49v22q93 20 98 158h34v-148h111v-32h-111v-258q0 -81 51 -81q18 0 32.5 9t36.5 34l20 -17q-48 -77 -125 -77q-50 0 -78 39z" />
<glyph unicode="u" horiz-adv-x="539" d="M102 46q-9 16 -10.5 26t-1.5 52v191q0 44 -15 62t-52 19v30l150 1v-290q0 -97 87 -97q29 0 52 10.5t54 38.5v226q0 44 -15 62t-52 19v30l150 1v-316q0 -43 15.5 -61t51.5 -19v-31q-19 -1 -38 -1l-37 -1q-23 0 -62 -4q-10 28 -13 61q-72 -66 -150 -66q-38 0 -69.5 15.5 t-44.5 41.5z" />
<glyph unicode="v" horiz-adv-x="466" d="M218 0l-166 357q-12 27 -48 27h-7v31h189v-31l-6 -1q-34 -3 -34 -19q0 -7 9 -26l100 -233l105 233q8 19 8 26q0 16 -34 19l-10 1v31h145v-31l-5 -1q-44 -1 -56 -26l-164 -357h-26z" />
<glyph unicode="w" horiz-adv-x="668" d="M180 0l-126 345q-7 20 -20 29t-38 10v31h184v-31h-5l-13 -2q-24 -3 -24 -18q0 -5 7 -25l77 -227l115 303h33l107 -303l90 227q8 20 8 27q0 17 -46 18v31h141v-31q-47 -1 -63 -39l-138 -345h-34l-106 300l-115 -300h-34z" />
<glyph unicode="x" horiz-adv-x="514" d="M11 0v31q29 -1 45.5 5.5t33.5 24.5l129 139l-122 152q-17 21 -30.5 27t-43.5 6v30h196v-30h-10q-26 0 -26 -10q0 -5 8 -15l82 -101l91 98q10 11 10 16q0 12 -31 12h-16v30h163v-30q-31 0 -46 -5t-29 -20l-119 -130l131 -169q15 -19 29.5 -24.5t47.5 -5.5v-31h-208v31h23 q25 0 25 11q0 5 -11 19l-93 111l-101 -111q-12 -12 -12 -20q0 -10 27 -10h13v-31h-156z" />
<glyph unicode="y" horiz-adv-x="466" d="M183 -54l32 67l-156 333q-18 38 -62 39v30h192v-30h-5q-38 0 -38 -21q0 -7 7 -24l105 -228l105 234q7 14 7 23t-9 12t-37 4v30h146v-30q-32 -3 -44.5 -10.5t-22.5 -28.5l-214 -466q-42 -91 -69 -122.5t-62 -31.5q-22 0 -35.5 11t-13.5 29q0 11 7 21q12 -2 15 -2 q26 0 61 24q38 25 91 137z" />
<glyph unicode="z" horiz-adv-x="432" d="M33 0v33l258 353h-145q-25 0 -34.5 -10.5t-39.5 -69.5l-5 -10h-27l14 121h336v-31l-256 -353h139q29 0 47 17q28 28 52 89h27l-9 -139h-357z" />
<glyph unicode="{" horiz-adv-x="273" d="M68 66q0 10 0.5 22.5t0.5 16.5q0 59 -14 82.5t-53 27.5v27q40 4 53.5 27t13.5 84q0 9 -0.5 24t-1 43t-0.5 56q-1 24 -1 54q0 92 33 132q31 38 111 38h36v-33h-16q-41 0 -65 -24q-25 -25 -25 -114q0 -21 2 -103q1 -21 1 -51q0 -84 -25 -113q-20 -25 -61 -33q41 -10 61 -34 q25 -29 25 -113q0 -30 -1 -51q-2 -82 -2 -103q0 -92 30 -118q23 -20 63 -20h13v-33h-36q-80 0 -111 38q-33 41 -33 131q0 65 2 140z" />
<glyph unicode="|" d="M225 -167v834h50v-834h-50z" />
<glyph unicode="}" horiz-adv-x="273" d="M131 31q-1 21 -1 51q0 84 25 113q20 25 61 33q-41 10 -61 34q-25 29 -25 113q0 30 1 51q2 82 2 103q0 92 -30 118q-23 20 -63 20h-13v33h36q80 0 111 -38q33 -41 33 -131q0 -65 -2 -140q0 -10 -0.5 -22.5t-0.5 -16.5q0 -59 14 -82.5t53 -27.5v-27q-40 -4 -53.5 -27 t-13.5 -84q0 -9 0.5 -24t1 -43t0.5 -56q1 -24 1 -54q0 -92 -33 -132q-31 -38 -111 -38h-36v33h16q41 0 65 24q25 25 25 114q0 21 -2 103z" />
<glyph unicode="~" d="M49 546l-18 9q67 99 141 99q31 0 95 -22q59 -20 85 -20q54 0 99 55l18 -9q-28 -47 -65 -72.5t-77 -25.5q-26 0 -74 16q-77 27 -109 27q-22 0 -37 -9.5t-48 -38.5z" />
<glyph unicode="&#xa1;" horiz-adv-x="247" d="M124 315q-24 0 -40 16t-16 40t16 40t41 16q23 0 39 -16.5t16 -39.5q0 -24 -16.5 -40t-39.5 -16zM84 33q19 109 22 200h36q3 -82 22 -200q17 -106 17 -158q0 -65 -15.5 -105t-41.5 -40t-41.5 39.5t-15.5 105.5q0 57 17 158z" />
<glyph unicode="&#xa2;" d="M246 10v107q-86 8 -134.5 65t-48.5 149q0 124 87 191q46 35 96 37v98h34v-98q53 -2 93.5 -27t40.5 -56q0 -15 -12 -26.5t-28 -11.5t-35 13q1 2 1 5q1 13 -6.5 28.5t-17.5 22.5q-7 5 -36 12v-360q95 -5 126 81l32 -11q-13 -49 -57.5 -80t-100.5 -32v-107h-34zM246 166v353 q-41 -8 -66 -52.5t-25 -109.5q0 -148 91 -191z" />
<glyph unicode="&#xa3;" horiz-adv-x="564" d="M-7 45q0 29 24 48t62 19q39 0 94 -17q12 20 16 58.5t5 139.5h-106v28h106q2 121 28 210q47 153 178 153q53 0 85.5 -29.5t32.5 -78.5q0 -50 -33 -74q-26 -20 -56 -20q-7 0 -13 1q35 38 35 82q0 39 -20.5 64.5t-51.5 25.5q-59 0 -76 -66q-8 -35 -13 -187q0 -4 -3 -81h115 v-28h-118q-6 -136 -70 -211q62 -22 123 -22q62 0 104.5 26.5t44.5 66.5h12q3 -19 3 -28q0 -59 -37.5 -100.5t-89.5 -41.5q-72 0 -181 70q-58 -64 -123 -64q-33 0 -55 16t-22 40zM42 49q0 -14 10 -22.5t26 -8.5q40 0 80 51l-11 5q-27 12 -56 12q-49 0 -49 -37z" />
<glyph unicode="&#xa4;" d="M69 120l-28 29l71 71q-41 53 -41 111q0 61 41 113l-71 72l28 28l72 -72q50 38 109 38q58 0 111 -41l71 71l29 -28l-72 -72q38 -49 38 -107t-38 -109l72 -71l-29 -29l-71 71q-56 -41 -113 -41q-56 0 -107 38zM249 195q56 0 96.5 40.5t40.5 96.5t-40 96.5t-95 40.5 q-58 0 -98.5 -39.5t-40.5 -96.5t40 -97.5t97 -40.5z" />
<glyph unicode="&#xa5;" horiz-adv-x="565" d="M150 0v30q54 3 69 17.5t15 61.5v111h-135v28h135v43l-25 49h-120v28h106l-102 202q-15 29 -32 40.5t-48 12.5v30h211v-30h-12q-40 0 -40 -25q0 -12 8 -28l121 -241l126 241q7 13 7 26q0 17 -15 22q-10 3 -49 5v30h181v-30q-34 -1 -55.5 -15.5t-38.5 -47.5l-100 -192h106 v-28h-120l-26 -49v-43h136v-28h-136v-111q0 -47 15 -61.5t69 -17.5v-30h-251z" />
<glyph unicode="&#xa6;" d="M225 329v338h50v-338h-50zM225 153h50v-320h-50v320z" />
<glyph unicode="&#xa7;" d="M83 -12q0 38 32 38q17 0 24.5 -10t14.5 -41t34.5 -51.5t62.5 -20.5q40 0 67 24t27 59q0 29 -19.5 49.5t-92.5 70.5q-94 63 -124 99.5t-30 87.5q0 68 74 144q-59 53 -59 111q0 56 46 96t111 40q55 0 100.5 -33.5t45.5 -73.5q0 -15 -9.5 -27t-21.5 -12q-13 0 -25 14 q-6 7 -14 33q-7 23 -29 39t-49 16q-34 0 -59.5 -20.5t-25.5 -48.5q0 -31 33 -61q9 -8 78 -59q89 -66 117.5 -100.5t28.5 -77.5q0 -34 -13 -63.5t-50 -80.5q34 -33 46.5 -57t12.5 -56q0 -68 -50 -115t-123 -47q-63 0 -112 41t-49 93zM209 237q38 -30 122 -84q24 51 24 82 q0 34 -22.5 59t-101.5 81l-24.5 17.5t-14.5 10t-7 5t-6 4.5q-33 -48 -33 -85q0 -24 13.5 -43.5t49.5 -46.5z" />
<glyph unicode="&#xa8;" horiz-adv-x="437" d="M310 480q-22 0 -37.5 15.5t-15.5 37.5t16 37.5t38 15.5q21 0 36.5 -15.5t15.5 -37.5t-15.5 -37.5t-37.5 -15.5zM127 480q-22 0 -37.5 15.5t-15.5 37.5t16 37.5t38 15.5q21 0 36.5 -15.5t15.5 -37.5t-15.5 -37.5t-37.5 -15.5z" />
<glyph unicode="&#xa9;" horiz-adv-x="762" d="M33 333q0 146 102.5 247.5t249.5 101.5q141 0 242 -102.5t101 -245.5q0 -145 -101.5 -247t-245.5 -102t-246 102t-102 246zM63 333q0 -132 93.5 -226.5t224.5 -94.5t224 94.5t93 227.5q0 131 -92.5 226t-221.5 95q-134 0 -227.5 -93.5t-93.5 -228.5zM189 329 q0 86 53 141.5t135 55.5q62 0 117 -37q7 10 12 28h16l5 -133h-17q-32 123 -130 123q-59 0 -93.5 -46t-34.5 -126q0 -76 36.5 -121.5t98.5 -45.5q43 0 81 25.5t54 63.5l20 -15q-20 -46 -66.5 -74t-102.5 -28q-82 0 -133 53t-51 136z" />
<glyph unicode="&#xaa;" horiz-adv-x="311" d="M100 260q-31 0 -48.5 18t-17.5 49q0 38 24 56t95 32q21 5 35 9v18q0 34 -9.5 46t-36.5 12q-33 0 -39 -32q-6 -26 -32 -26q-32 0 -32 22q0 25 31.5 43t75.5 18q53 0 79 -22q14 -11 18 -22t4 -34v-130q0 -23 14 -23t22 25l2 6h25q-16 -65 -67 -65q-42 0 -54 38 q-49 -38 -89 -38zM132 301q28 0 56 22v76q-9 -3 -23 -7l-30 -8q-19 -5 -30.5 -17.5t-11.5 -28.5t11 -26.5t28 -10.5z" />
<glyph unicode="&#xab;" horiz-adv-x="429" d="M204 200q-11 9 -11 16q0 8 11 18l128 120q23 18 28.5 21t12.5 3q16 0 16 -15q0 -11 -12 -26l-94 -120l94 -121q12 -15 12 -26q0 -15 -16 -15q-12 0 -27 12q-6 5 -14 13zM173 80l-129 120q-11 11 -11 16q0 7 11 18l129 120q23 18 28 21t13 3q16 0 16 -15q0 -10 -12 -26 l-95 -120l95 -121q12 -15 12 -26q0 -15 -16 -15q-7 0 -9.5 0.5t-10 6t-21.5 18.5z" />
<glyph unicode="&#xac;" d="M30 218v48h422v-266h-54v218h-368z" />
<glyph unicode="&#xad;" horiz-adv-x="213" d="M0 192v49h213v-49h-213z" />
<glyph unicode="&#xae;" horiz-adv-x="762" d="M33 333q0 146 102.5 247.5t249.5 101.5q141 0 242 -102.5t101 -245.5q0 -145 -101.5 -247t-245.5 -102t-246 102t-102 246zM63 333q0 -132 93.5 -226.5t224.5 -94.5t224 94.5t93 227.5q0 131 -92.5 226t-221.5 95q-134 0 -227.5 -93.5t-93.5 -228.5zM212 150v17 q35 2 45 10t10 34v245q0 26 -10 34t-45 10v17h156q65 0 100.5 -24.5t35.5 -68.5q0 -39 -29.5 -65.5t-74.5 -27.5q34 -6 49 -19t55 -69q38 -56 49 -66t32 -10h4v-17h-83q-24 21 -57 78q-35 60 -53 77.5t-43 17.5h-31v-112q0 -26 10 -34t45 -10v-17h-165zM322 341h48 q74 0 74 80q0 79 -82 79h-40v-159z" />
<glyph unicode="&#xaf;" d="M129 511v47h243v-47h-243z" />
<glyph unicode="&#xb0;" horiz-adv-x="342" d="M171 425q-52 0 -88 36t-36 88q0 53 36 89t89 36q52 0 87.5 -36t35.5 -89q0 -52 -36 -88t-88 -36zM171 467q35 0 58.5 23.5t23.5 58.5t-23.5 59t-57.5 24q-35 0 -59 -24t-24 -59t23.5 -58.5t58.5 -23.5z" />
<glyph unicode="&#xb1;" d="M228 117v188h-205v43h205v195h43v-195h205v-43h-205v-188h-43zM23 38v43h453v-43h-453z" />
<glyph unicode="&#xb2;" horiz-adv-x="327" d="M25 266l7 29q195 152 195 272q0 34 -21.5 56t-53.5 22q-31 0 -53 -19.5t-22 -48.5q0 -44 38 -56q-7 -21 -31 -21q-20 0 -33.5 18t-13.5 45q0 44 34.5 73t86.5 29q56 0 92.5 -33t36.5 -83q0 -69 -68 -137q-36 -36 -120 -96h140q13 0 20.5 8t18.5 31l3 6h21l-26 -95h-251z " />
<glyph unicode="&#xb3;" horiz-adv-x="327" d="M147 260q-50 0 -82 22t-32 56q0 18 13.5 32t32.5 14q5 0 10 -1q-10 -17 -10 -34q0 -28 21 -46.5t53 -18.5q35 0 56.5 24.5t21.5 65.5q0 38 -17 62.5t-44 24.5q-4 0 -13 -5q-18 -12 -29 -12t-19 7.5t-8 17.5q0 19 45 19l28 -2q20 5 34 26.5t14 47.5q0 39 -19 63t-50 24 q-23 0 -38 -12.5t-15 -31.5q0 -22 20 -42q-13 -7 -22 -7q-18 0 -30 11.5t-12 28.5q0 29 31 50t74 21q50 0 84.5 -29.5t34.5 -72.5q0 -59 -64 -85q78 -36 78 -101q0 -52 -41 -84.5t-106 -32.5z" />
<glyph unicode="&#xb4;" d="M221 467q-12 0 -12 9q0 4 1 6l63 125h70q14 0 14 -10q0 -3 -4 -7l-117 -117q-6 -6 -15 -6z" />
<glyph unicode="&#xb5;" horiz-adv-x="539" d="M90 65v362h83v-290q0 -97 87 -97q29 0 52 10.5t54 38.5v338h83v-316q0 -43 15.5 -61t51.5 -19v-31q-18 -1 -38 -1l-37 -1q-23 0 -62 -4q-10 28 -13 61q-63 -66 -129 -66q-48 0 -85 31l-8 7l10 -169l1 -27q1 -18 -10 -29.5t-27 -11.5q-17 0 -27.5 11.5t-10.5 29.5 q0 7 1 12v15z" />
<glyph unicode="&#xb6;" d="M277 -147v418h-30q-56 0 -87 7.5t-57 27.5q-69 52 -69 157q0 64 26.5 110t73.5 66q22 9 47.5 11.5t93.5 2.5l229 1v-31q-63 -3 -81.5 -17.5t-18.5 -62.5v-690h-37v756h-53v-756h-37z" />
<glyph unicode="&#xb7;" horiz-adv-x="218" d="M108 161q-23 0 -39 16.5t-16 39.5q0 24 16.5 40t39.5 16q24 0 40 -16t16 -40t-16 -40t-41 -16z" />
<glyph unicode="&#xb8;" d="M176 -157q37 -12 57 -12q25 0 42 13.5t17 32.5q0 20 -15.5 30.5t-52.5 15.5l25 77h28l-17 -53q47 -7 67.5 -23t20.5 -46q0 -35 -28 -58t-72 -23q-42 0 -86 21z" />
<glyph unicode="&#xb9;" horiz-adv-x="327" d="M76 266v23h18q23 0 32 10t9 36v266h-52v24q45 1 111 41v-331q0 -26 9.5 -36t33.5 -10h14v-23h-175z" />
<glyph unicode="&#xba;" horiz-adv-x="335" d="M166 260q-64 0 -101 35t-37 95q0 61 38.5 98t102.5 37t101 -35.5t37 -96.5q0 -60 -38.5 -96.5t-102.5 -36.5zM166 284q77 0 77 108q0 109 -75 109q-77 0 -77 -110q0 -107 75 -107z" />
<glyph unicode="&#xbb;" horiz-adv-x="429" d="M200 71q0 11 11 25l95 121l-95 120q-11 14 -11 26q0 15 16 15q12 0 26 -12l14 -12l129 -120q11 -11 11 -17q0 -7 -11 -17l-129 -120q-14 -13 -21.5 -18t-9.5 -5.5t-9 -0.5q-16 0 -16 15zM56 56q-16 0 -16 15q0 10 12 25l94 121l-94 120q-12 15 -12 26q0 15 16 15 q8 0 13 -3t28 -21l128 -120q12 -11 12 -17q0 -5 -12 -17l-128 -120q-23 -18 -28 -21t-13 -3z" />
<glyph unicode="&#xbc;" horiz-adv-x="730" d="M167 0l369 667h34l-369 -667h-34zM76 266v23h18q23 0 32 10t9 36v266h-52v24q45 1 111 41v-331q0 -26 9.5 -36t33.5 -10h14v-23h-175zM420 96l198 295q4 6 8 6q7 0 7 -8v-265h20q27 0 36 28l23 2l-18 -58h-61v-38q0 -35 29 -35h16v-23h-149v23h12q19 0 26.5 8t7.5 27v38 h-155zM467 124h108v94v29v28v15z" />
<glyph unicode="&#xbd;" horiz-adv-x="730" d="M167 0l369 667h34l-369 -667h-34zM76 266v23h18q23 0 32 10t9 36v266h-52v24q45 1 111 41v-331q0 -26 9.5 -36t33.5 -10h14v-23h-175zM429 0l6 29q196 152 196 272q0 34 -21.5 56t-53.5 22t-53.5 -20t-21.5 -49q0 -43 38 -56q-7 -20 -31 -20q-20 0 -33.5 18t-13.5 45 q0 44 34.5 73t86.5 29q56 0 92.5 -33t36.5 -83q0 -68 -68 -137q-33 -33 -120 -96h139q27 0 40 39l2 6h21l-25 -95h-251z" />
<glyph unicode="&#xbe;" horiz-adv-x="730" d="M167 0l369 667h35l-369 -667h-35zM147 260q-50 0 -82 22t-32 56q0 18 13.5 32t32.5 14q5 0 10 -1q-10 -17 -10 -34q0 -28 21 -46.5t53 -18.5q35 0 56.5 24.5t21.5 65.5q0 38 -17 62.5t-44 24.5q-4 0 -13 -5q-18 -12 -29 -12t-19 7.5t-8 17.5q0 19 45 19l28 -2 q20 5 34 26.5t14 47.5q0 39 -19 63t-50 24q-23 0 -38 -12.5t-15 -31.5q0 -22 20 -42q-13 -7 -22 -7q-18 0 -30 11.5t-12 28.5q0 29 31 50t74 21q50 0 84.5 -29.5t34.5 -72.5q0 -59 -64 -85q78 -36 78 -101q0 -52 -41 -84.5t-106 -32.5zM420 96l198 295q4 6 8 6q7 0 7 -8 v-265h20q27 0 36 28l23 2l-18 -58h-61v-38q0 -35 29 -35h16v-23h-149v23h12q19 0 26.5 8t7.5 27v38h-155zM467 124h108v94v29v28v15z" />
<glyph unicode="&#xbf;" horiz-adv-x="398" d="M249 315q-24 0 -40 16t-16 40t16 40t41 16q23 0 39 -16.5t16 -39.5q0 -24 -16.5 -40t-39.5 -16zM33 -81q0 69 40.5 118t96.5 49q30 0 59 -18v165h38v-224h-21q-17 21 -28.5 29t-26.5 8q-32 0 -52 -37.5t-20 -97.5q0 -68 27.5 -107.5t73.5 -39.5q22 0 40 14t25 36 q7 26 35 26q14 0 22.5 -9t8.5 -24q0 -31 -39.5 -54t-92.5 -23q-79 0 -132.5 54.5t-53.5 134.5z" />
<glyph unicode="&#xc0;" horiz-adv-x="717" d="M358 724l-122 122q-5 4 -5 8q0 10 15 10h74l65 -132q2 -4 2 -6q0 -9 -12 -9q-10 0 -17 7zM-7 0v31q48 1 70.5 15.5t37.5 50.5l240 581h36l253 -581q15 -33 36 -48.5t57 -17.5v-31h-275v31h22q58 0 58 31q0 14 -9 35l-54 128h-266l-52 -128q-7 -15 -7 -28q0 -22 15 -30 t56 -8h12v-31h-230zM215 268h230l-86 212q-4 9 -10 27t-9 26l-5 13l-4 14q-2 -7 -8 -25z" />
<glyph unicode="&#xc1;" horiz-adv-x="717" d="M341 717q-12 0 -12 9q0 4 1 6l66 132h74q15 0 15 -10q0 -4 -5 -8l-122 -122q-7 -7 -17 -7zM-7 0v31q48 1 70.5 15.5t37.5 50.5l240 581h36l253 -581q15 -33 36 -48.5t57 -17.5v-31h-275v31h22q58 0 58 31q0 14 -9 35l-54 128h-266l-52 -128q-7 -15 -7 -28q0 -22 15 -30 t56 -8h12v-31h-230zM215 268h230l-86 212q-4 9 -10 27t-9 26l-5 13l-4 14q-2 -7 -8 -25z" />
<glyph unicode="&#xc2;" horiz-adv-x="717" d="M241 716q-6 0 -12 6t-6 12q0 7 8 14l127 125l126 -125q8 -8 8 -14t-6 -12t-12 -6q-5 0 -17 8l-100 69l-99 -69q-12 -8 -17 -8zM-7 0v31q48 1 70.5 15.5t37.5 50.5l240 581h36l253 -581q15 -33 36 -48.5t57 -17.5v-31h-275v31h22q58 0 58 31q0 14 -9 35l-54 128h-266 l-52 -128q-7 -15 -7 -28q0 -22 15 -30t56 -8h12v-31h-230zM215 268h230l-86 212q-4 9 -10 27t-9 26l-5 13l-4 14q-2 -7 -8 -25z" />
<glyph unicode="&#xc3;" horiz-adv-x="717" d="M232 736l-21 10q48 84 101 84q14 0 64 -18q35 -13 57 -13q26 0 53 32l18 -11q-47 -78 -98 -78q-10 0 -57 14q-52 16 -67 16q-22 0 -50 -36zM-7 0v31q48 1 70.5 15.5t37.5 50.5l240 581h36l253 -581q15 -33 36 -48.5t57 -17.5v-31h-275v31h22q58 0 58 31q0 14 -9 35 l-54 128h-266l-52 -128q-7 -15 -7 -28q0 -22 15 -30t56 -8h12v-31h-230zM215 268h230l-86 212q-4 9 -10 27t-9 26l-5 13l-4 14q-2 -7 -8 -25z" />
<glyph unicode="&#xc4;" horiz-adv-x="717" d="M453 724q-23 0 -39 16.5t-16 39.5t16.5 39t39.5 16q22 0 38.5 -16.5t16.5 -38.5q0 -23 -16.5 -39.5t-39.5 -16.5zM262 724q-23 0 -39.5 16.5t-16.5 39.5t16.5 39t39.5 16q22 0 38.5 -16.5t16.5 -38.5q0 -23 -16 -39.5t-39 -16.5zM-7 0v31q48 1 70.5 15.5t37.5 50.5 l240 581h36l253 -581q15 -33 36 -48.5t57 -17.5v-31h-275v31h22q58 0 58 31q0 14 -9 35l-54 128h-266l-52 -128q-7 -15 -7 -28q0 -22 15 -30t56 -8h12v-31h-230zM215 268h230l-86 212q-4 9 -10 27t-9 26l-5 13l-4 14q-2 -7 -8 -25z" />
<glyph unicode="&#xc5;" horiz-adv-x="717" d="M358 712q-37 0 -63 26.5t-26 63.5t26.5 62.5t64.5 25.5q36 0 62 -26.5t26 -62.5q0 -37 -26.5 -63t-63.5 -26zM358 753q20 0 34 14t14 34q0 19 -14 33t-33 14q-20 0 -34.5 -14t-14.5 -33q0 -20 14 -34t34 -14zM-7 0v31q48 1 70.5 15.5t37.5 50.5l240 581h36l253 -581 q15 -33 36 -48.5t57 -17.5v-31h-275v31h22q58 0 58 31q0 14 -9 35l-54 128h-266l-52 -128q-7 -15 -7 -28q0 -22 15 -30t56 -8h12v-31h-230zM215 268h230l-86 212q-4 9 -10 27t-9 26l-5 13l-4 14q-2 -7 -8 -25z" />
<glyph unicode="&#xc6;" horiz-adv-x="908" d="M-7 0v30q40 1 64.5 19t47.5 64l230 465q9 19 9 28q0 31 -76 30v31h529l19 -164h-31q-16 55 -37 86q-19 28 -44 35.5t-96 7.5h-100v-242h76q36 0 56.5 25t20.5 68h31v-227h-31q0 50 -17.5 73t-55.5 23h-80v-228q0 -54 28 -71q30 -20 89 -20q70 0 111 17t66 57 q28 47 35 100h30l-12 -207h-546v31q64 3 81.5 19.5t17.5 73.5v194h-158l-90 -183q-19 -38 -19 -59q0 -22 17.5 -32.5t57.5 -13.5v-30h-223zM268 352h140v286z" />
<glyph unicode="&#xc7;" horiz-adv-x="711" d="M277 -165q40 -12 60 -12q25 0 43.5 14t18.5 34t-16.5 31.5t-54.5 17.5l21 64q-139 9 -224 103t-85 240q0 155 96.5 256t244.5 101q112 0 214 -68q11 15 22 51h28l9 -241h-31q-57 223 -236 223q-107 0 -169.5 -83.5t-62.5 -228.5q0 -139 66.5 -221.5t178.5 -82.5 q114 0 198 91q32 35 47 72l36 -27q-38 -84 -121.5 -135.5t-181.5 -50.5l-12 -39q45 -6 63 -18q29 -20 29 -54q0 -37 -29.5 -61t-75.5 -24q-43 0 -90 22z" />
<glyph unicode="&#xc8;" horiz-adv-x="634" d="M331 724l-122 122q-5 4 -5 8q0 10 15 10h74l65 -132q2 -4 2 -6q0 -9 -12 -9q-10 0 -17 7zM33 0v31q64 3 82 17.5t18 62.5v445q0 48 -18.5 63t-81.5 17v31h493l18 -163h-32q-10 48 -33 81q-17 26 -40 37t-61 11h-145v-262h63q46 0 68.5 22.5t24.5 70.5h31v-226h-31 q-3 56 -22.5 77t-70.5 21h-63v-214q0 -51 24.5 -69.5t92.5 -18.5q65 0 100.5 10.5t57.5 35.5t38.5 61.5t18.5 64.5h29l-12 -206h-549z" />
<glyph unicode="&#xc9;" horiz-adv-x="634" d="M286 717q-12 0 -12 9q0 4 1 6l66 132h74q15 0 15 -10q0 -4 -5 -8l-122 -122q-7 -7 -17 -7zM33 0v31q64 3 82 17.5t18 62.5v445q0 48 -18.5 63t-81.5 17v31h493l18 -163h-32q-10 48 -33 81q-17 26 -40 37t-61 11h-145v-262h63q46 0 68.5 22.5t24.5 70.5h31v-226h-31 q-3 56 -22.5 77t-70.5 21h-63v-214q0 -51 24.5 -69.5t92.5 -18.5q65 0 100.5 10.5t57.5 35.5t38.5 61.5t18.5 64.5h29l-12 -206h-549z" />
<glyph unicode="&#xca;" horiz-adv-x="634" d="M200 716q-6 0 -12 6t-6 12q0 7 8 14l127 125l126 -125q8 -8 8 -14t-6 -12t-12 -6q-5 0 -17 8l-100 69l-99 -69q-12 -8 -17 -8zM33 0v31q64 3 82 17.5t18 62.5v445q0 48 -18.5 63t-81.5 17v31h493l18 -163h-32q-10 48 -33 81q-17 26 -40 37t-61 11h-145v-262h63 q46 0 68.5 22.5t24.5 70.5h31v-226h-31q-3 56 -22.5 77t-70.5 21h-63v-214q0 -51 24.5 -69.5t92.5 -18.5q65 0 100.5 10.5t57.5 35.5t38.5 61.5t18.5 64.5h29l-12 -206h-549z" />
<glyph unicode="&#xcb;" horiz-adv-x="634" d="M412 724q-23 0 -39 16.5t-16 39.5t16.5 39t39.5 16q22 0 38.5 -16.5t16.5 -38.5q0 -23 -16.5 -39.5t-39.5 -16.5zM221 724q-23 0 -39.5 16.5t-16.5 39.5t16.5 39t39.5 16q22 0 38.5 -16.5t16.5 -38.5q0 -23 -16 -39.5t-39 -16.5zM33 0v31q64 3 82 17.5t18 62.5v445 q0 48 -18.5 63t-81.5 17v31h493l18 -163h-32q-10 48 -33 81q-17 26 -40 37t-61 11h-145v-262h63q46 0 68.5 22.5t24.5 70.5h31v-226h-31q-3 56 -22.5 77t-70.5 21h-63v-214q0 -51 24.5 -69.5t92.5 -18.5q65 0 100.5 10.5t57.5 35.5t38.5 61.5t18.5 64.5h29l-12 -206h-549z " />
<glyph unicode="&#xcc;" horiz-adv-x="367" d="M214 717q-10 0 -17 7l-122 122q-5 4 -5 8q0 10 15 10h74l65 -132q2 -4 2 -6q0 -9 -12 -9zM33 0v31q64 3 82 17.5t18 62.5v445q0 48 -18.5 63t-81.5 17v31h300v-31q-63 -2 -81.5 -17t-18.5 -63v-445q0 -48 18 -62.5t82 -17.5v-31h-300z" />
<glyph unicode="&#xcd;" horiz-adv-x="367" d="M152 717q-12 0 -12 9q0 4 1 6l66 132h74q15 0 15 -10q0 -4 -5 -8l-122 -122q-7 -7 -17 -7zM33 0v31q64 3 82 17.5t18 62.5v445q0 48 -18.5 63t-81.5 17v31h300v-31q-63 -2 -81.5 -17t-18.5 -63v-445q0 -48 18 -62.5t82 -17.5v-31h-300z" />
<glyph unicode="&#xce;" horiz-adv-x="367" d="M66 716q-6 0 -12 6t-6 12q0 7 8 14l127 125l126 -125q8 -8 8 -14t-6 -12t-12 -6q-5 0 -17 8l-100 69l-99 -69q-12 -8 -17 -8zM33 0v31q64 3 82 17.5t18 62.5v445q0 48 -18.5 63t-81.5 17v31h300v-31q-63 -2 -81.5 -17t-18.5 -63v-445q0 -48 18 -62.5t82 -17.5v-31h-300z " />
<glyph unicode="&#xcf;" horiz-adv-x="367" d="M261 724q-23 0 -39 16.5t-16 39.5t16.5 39t39.5 16q22 0 38.5 -16.5t16.5 -38.5q0 -23 -16.5 -39.5t-39.5 -16.5zM105 724q-23 0 -39.5 16.5t-16.5 39.5t16.5 39t39.5 16q22 0 38.5 -16.5t16.5 -38.5q0 -23 -16 -39.5t-39 -16.5zM33 0v31q64 3 82 17.5t18 62.5v445 q0 48 -18.5 63t-81.5 17v31h300v-31q-63 -2 -81.5 -17t-18.5 -63v-445q0 -48 18 -62.5t82 -17.5v-31h-300z" />
<glyph unicode="&#xd0;" horiz-adv-x="745" d="M33 0v31q64 3 82 17.5t18 62.5v221h-64v37h64v187q0 48 -18.5 63t-81.5 17v31q295 0 351.5 -2.5t99.5 -17.5q103 -36 161.5 -120.5t58.5 -196.5q0 -149 -91 -239.5t-241 -90.5h-339zM245 64q18 -29 110 -29q121 0 177 85q54 86 54 215q0 120 -53 200q-66 100 -222 100 l-78 -2v-264h186v-37h-186v-187q0 -63 12 -81z" />
<glyph unicode="&#xd1;" horiz-adv-x="763" d="M255 736l-21 10q48 84 101 84q14 0 64 -18q35 -13 57 -13q26 0 53 32l18 -11q-47 -78 -98 -78q-10 0 -57 14q-52 16 -67 16q-22 0 -50 -36zM33 0v31q56 2 78 26t22 82v417q0 48 -18.5 63t-81.5 17v31h199l326 -451q16 -23 37 -69v19l-1 22v28v320q0 53 -17 73.5t-66 25.5 l-9 1v31h230v-31q-52 0 -74 -23t-22 -77v-542h-42l-356 496q-33 45 -65 100v-424q0 -81 18.5 -106t80.5 -29v-31h-239z" />
<glyph unicode="&#xd2;" horiz-adv-x="789" d="M408 724l-122 122q-5 4 -5 8q0 10 15 10h74l65 -132q2 -4 2 -6q0 -9 -12 -9q-10 0 -17 7zM40 334q0 153 100 251.5t255 98.5t254.5 -98.5t99.5 -251.5q0 -154 -103 -255q-99 -96 -256 -96q-152 0 -251 99.5t-99 251.5zM155 335q0 -152 61.5 -234.5t173.5 -82.5 q119 0 181 81t62 238q0 151 -62 233t-177 82t-177 -82t-62 -235z" />
<glyph unicode="&#xd3;" horiz-adv-x="789" d="M364 717q-12 0 -12 9q0 4 1 6l66 132h74q15 0 15 -10q0 -4 -5 -8l-122 -122q-7 -7 -17 -7zM40 334q0 153 100 251.5t255 98.5t254.5 -98.5t99.5 -251.5q0 -154 -103 -255q-99 -96 -256 -96q-152 0 -251 99.5t-99 251.5zM155 335q0 -152 61.5 -234.5t173.5 -82.5 q119 0 181 81t62 238q0 151 -62 233t-177 82t-177 -82t-62 -235z" />
<glyph unicode="&#xd4;" horiz-adv-x="789" d="M278 716q-6 0 -12 6t-6 12q0 7 8 14l127 125l126 -125q8 -8 8 -14t-6 -12t-12 -6q-5 0 -17 8l-100 69l-99 -69q-12 -8 -17 -8zM40 334q0 153 100 251.5t255 98.5t254.5 -98.5t99.5 -251.5q0 -154 -103 -255q-99 -96 -256 -96q-152 0 -251 99.5t-99 251.5zM155 335 q0 -152 61.5 -234.5t173.5 -82.5q119 0 181 81t62 238q0 151 -62 233t-177 82t-177 -82t-62 -235z" />
<glyph unicode="&#xd5;" horiz-adv-x="789" d="M269 736l-21 10q48 84 101 84q14 0 64 -18q35 -13 57 -13q26 0 53 32l18 -11q-47 -78 -98 -78q-10 0 -57 14q-52 16 -67 16q-22 0 -50 -36zM40 334q0 153 100 251.5t255 98.5t254.5 -98.5t99.5 -251.5q0 -154 -103 -255q-99 -96 -256 -96q-152 0 -251 99.5t-99 251.5z M155 335q0 -152 61.5 -234.5t173.5 -82.5q119 0 181 81t62 238q0 151 -62 233t-177 82t-177 -82t-62 -235z" />
<glyph unicode="&#xd6;" horiz-adv-x="789" d="M490 724q-23 0 -39 16.5t-16 39.5t16.5 39t39.5 16q22 0 38.5 -16.5t16.5 -38.5q0 -23 -16.5 -39.5t-39.5 -16.5zM299 724q-23 0 -39.5 16.5t-16.5 39.5t16.5 39t39.5 16q22 0 38.5 -16.5t16.5 -38.5q0 -23 -16 -39.5t-39 -16.5zM40 334q0 153 100 251.5t255 98.5 t254.5 -98.5t99.5 -251.5q0 -154 -103 -255q-99 -96 -256 -96q-152 0 -251 99.5t-99 251.5zM155 335q0 -152 61.5 -234.5t173.5 -82.5q119 0 181 81t62 238q0 151 -62 233t-177 82t-177 -82t-62 -235z" />
<glyph unicode="&#xd7;" d="M105 151l-31 31l145 145l-145 145l31 30l145 -145l145 145l30 -30l-145 -145l145 -145l-30 -31l-145 145z" />
<glyph unicode="&#xd8;" horiz-adv-x="789" d="M83 -12l69 83q-112 102 -112 262q0 154 99.5 252.5t254.5 98.5q123 0 211 -62l68 84l30 -24l-69 -84q115 -102 115 -264q0 -154 -99.5 -252.5t-254.5 -98.5q-125 0 -214 64l-68 -83zM203 120l361 459q-64 73 -170 73q-115 0 -177 -82t-62 -233q0 -144 48 -217zM226 88 q62 -70 169 -70q114 0 176 81.5t62 232.5q0 144 -46 214z" />
<glyph unicode="&#xd9;" horiz-adv-x="718" d="M373 724l-122 122q-5 4 -5 8q0 10 15 10h74l65 -132q2 -4 2 -6q0 -9 -12 -9q-10 0 -17 7zM162 56q-21 29 -28 62.5t-7 104.5v333q0 48 -18.5 62.5t-81.5 17.5v31h300v-31q-63 -2 -81.5 -17t-18.5 -63v-321q0 -105 17 -142q17 -35 56.5 -55t92.5 -20q113 0 148 84 q17 41 17 133v314q0 51 -18 66.5t-82 20.5v31h240v-31q-65 -5 -82.5 -20t-17.5 -67v-321q0 -133 -51.5 -189t-174.5 -56q-156 0 -210 73z" />
<glyph unicode="&#xda;" horiz-adv-x="718" d="M355 717q-12 0 -12 9q0 4 1 6l66 132h74q15 0 15 -10q0 -4 -5 -8l-122 -122q-7 -7 -17 -7zM162 56q-21 29 -28 62.5t-7 104.5v333q0 48 -18.5 62.5t-81.5 17.5v31h300v-31q-63 -2 -81.5 -17t-18.5 -63v-321q0 -105 17 -142q17 -35 56.5 -55t92.5 -20q113 0 148 84 q17 41 17 133v314q0 51 -18 66.5t-82 20.5v31h240v-31q-65 -5 -82.5 -20t-17.5 -67v-321q0 -133 -51.5 -189t-174.5 -56q-156 0 -210 73z" />
<glyph unicode="&#xdb;" horiz-adv-x="718" d="M256 716q-6 0 -12 6t-6 12q0 7 8 14l127 125l126 -125q8 -8 8 -14t-6 -12t-12 -6q-5 0 -17 8l-100 69l-99 -69q-12 -8 -17 -8zM162 56q-21 29 -28 62.5t-7 104.5v333q0 48 -18.5 62.5t-81.5 17.5v31h300v-31q-63 -2 -81.5 -17t-18.5 -63v-321q0 -105 17 -142 q17 -35 56.5 -55t92.5 -20q113 0 148 84q17 41 17 133v314q0 51 -18 66.5t-82 20.5v31h240v-31q-65 -5 -82.5 -20t-17.5 -67v-321q0 -133 -51.5 -189t-174.5 -56q-156 0 -210 73z" />
<glyph unicode="&#xdc;" horiz-adv-x="718" d="M468 724q-23 0 -39 16.5t-16 39.5t16.5 39t39.5 16q22 0 38.5 -16.5t16.5 -38.5q0 -23 -16.5 -39.5t-39.5 -16.5zM277 724q-23 0 -39.5 16.5t-16.5 39.5t16.5 39t39.5 16q22 0 38.5 -16.5t16.5 -38.5q0 -23 -16 -39.5t-39 -16.5zM162 56q-21 29 -28 62.5t-7 104.5v333 q0 48 -18.5 62.5t-81.5 17.5v31h300v-31q-63 -2 -81.5 -17t-18.5 -63v-321q0 -105 17 -142q17 -35 56.5 -55t92.5 -20q113 0 148 84q17 41 17 133v314q0 51 -18 66.5t-82 20.5v31h240v-31q-65 -5 -82.5 -20t-17.5 -67v-321q0 -133 -51.5 -189t-174.5 -56q-156 0 -210 73z " />
<glyph unicode="&#xdd;" horiz-adv-x="656" d="M324 717q-12 0 -12 9q0 4 1 6l66 132h74q15 0 15 -10q0 -4 -5 -8l-122 -122q-7 -7 -17 -7zM179 0v31q64 3 82 17.5t18 62.5v186l-183 285q-19 30 -41.5 41.5t-61.5 12.5v31h286v-31h-25q-48 0 -48 -25q0 -13 9 -29l143 -246l147 243q11 19 11 30q0 16 -22 21q-14 4 -70 6 v31h239v-31q-43 -1 -70.5 -16t-47.5 -48l-168 -275v-186q0 -48 18.5 -62.5t81.5 -17.5v-31h-298z" />
<glyph unicode="&#xde;" horiz-adv-x="589" d="M33 0v31q64 3 82 17.5t18 62.5v445q0 49 -17.5 63t-82.5 17v31h300v-31q-57 -2 -78.5 -13.5t-21.5 -38.5v-24q141 0 178 -5q66 -10 105.5 -56t39.5 -113q0 -105 -84 -150q-46 -25 -142 -25h-97v-100q0 -48 18 -62.5t82 -17.5v-31h-300zM233 242h77q66 0 102 38.5 t36 109.5q0 84 -47 118q-32 24 -105 24q-29 0 -63 -2v-288z" />
<glyph unicode="&#xdf;" horiz-adv-x="534" d="M20 0v31q37 1 52 18.5t15 61.5v389q0 82 51.5 133t134.5 51q77 0 128.5 -44.5t51.5 -110.5q0 -47 -27.5 -78.5t-92.5 -59.5q55 -17 98 -57q53 -50 53 -135q0 -90 -48.5 -150t-121.5 -60q-33 0 -57 18t-24 43q0 14 10.5 24.5t24.5 10.5q13 0 22 -7.5t26 -33.5 q12 -19 30 -19q20 0 30 31q17 48 17 139q0 51 -15.5 92t-40.5 58q-32 23 -112 23v38h9q41 0 56.5 4t34.5 17q44 31 44 103q0 126 -104 126q-95 0 -95 -114v-437q0 -43 9 -58t36 -16v-31h-195z" />
<glyph unicode="&#xe0;" horiz-adv-x="467" d="M247 473l-117 117q-4 4 -4 7q0 10 14 10h70l63 -125q1 -2 1 -7q0 -8 -11 -8q-10 0 -16 6zM47 97q0 43 18 69t61 44q26 11 105 29q37 9 60 18v34q0 57 -11 76q-18 29 -67 29q-31 0 -46.5 -13.5t-21.5 -44.5q-8 -41 -45 -41q-20 0 -33 9t-13 23q0 28 30 55q46 42 135 42 q80 0 122 -36q20 -18 26.5 -35.5t6.5 -54.5v-219q0 -45 28 -45q26 0 39 45l2 7h30q-24 -99 -100 -99q-73 0 -82 71q-26 -31 -66.5 -51t-77.5 -20q-47 0 -73.5 28.5t-26.5 79.5zM130 115q0 -29 19 -48.5t48 -19.5q47 0 94 41v140q-13 -7 -91 -30q-70 -21 -70 -83z" />
<glyph unicode="&#xe1;" horiz-adv-x="467" d="M205 467q-12 0 -12 9q0 4 1 6l63 125h70q14 0 14 -10q0 -3 -4 -7l-117 -117q-6 -6 -15 -6zM47 97q0 43 18 69t61 44q26 11 105 29q37 9 60 18v34q0 57 -11 76q-18 29 -67 29q-31 0 -46.5 -13.5t-21.5 -44.5q-8 -41 -45 -41q-20 0 -33 9t-13 23q0 28 30 55q46 42 135 42 q80 0 122 -36q20 -18 26.5 -35.5t6.5 -54.5v-219q0 -45 28 -45q26 0 39 45l2 7h30q-24 -99 -100 -99q-73 0 -82 71q-26 -31 -66.5 -51t-77.5 -20q-47 0 -73.5 28.5t-26.5 79.5zM130 115q0 -29 19 -48.5t48 -19.5q47 0 94 41v140q-13 -7 -91 -30q-70 -21 -70 -83z" />
<glyph unicode="&#xe2;" horiz-adv-x="467" d="M111 473q-6 0 -11.5 5.5t-5.5 10.5q0 6 7 14l121 119l121 -119q7 -7 7 -13t-5.5 -11.5t-11.5 -5.5t-16 7l-95 66l-95 -66q-8 -7 -16 -7zM47 97q0 43 18 69t61 44q26 11 105 29q37 9 60 18v34q0 57 -11 76q-18 29 -67 29q-31 0 -46.5 -13.5t-21.5 -44.5q-8 -41 -45 -41 q-20 0 -33 9t-13 23q0 28 30 55q46 42 135 42q80 0 122 -36q20 -18 26.5 -35.5t6.5 -54.5v-219q0 -45 28 -45q26 0 39 45l2 7h30q-24 -99 -100 -99q-73 0 -82 71q-26 -31 -66.5 -51t-77.5 -20q-47 0 -73.5 28.5t-26.5 79.5zM130 115q0 -29 19 -48.5t48 -19.5q47 0 94 41v140 q-13 -7 -91 -30q-70 -21 -70 -83z" />
<glyph unicode="&#xe3;" horiz-adv-x="467" d="M114 492l-20 9q44 80 96 80q16 0 61 -16q35 -13 55 -13q25 0 50 30l17 -11q-46 -73 -94 -73q-9 0 -54 14q-48 14 -63 14q-22 0 -48 -34zM47 97q0 43 18 69t61 44q26 11 105 29q37 9 60 18v34q0 57 -11 76q-18 29 -67 29q-31 0 -46.5 -13.5t-21.5 -44.5q-8 -41 -45 -41 q-20 0 -33 9t-13 23q0 28 30 55q46 42 135 42q80 0 122 -36q20 -18 26.5 -35.5t6.5 -54.5v-219q0 -45 28 -45q26 0 39 45l2 7h30q-24 -99 -100 -99q-73 0 -82 71q-26 -31 -66.5 -51t-77.5 -20q-47 0 -73.5 28.5t-26.5 79.5zM130 115q0 -29 19 -48.5t48 -19.5q47 0 94 41v140 q-13 -7 -91 -30q-70 -21 -70 -83z" />
<glyph unicode="&#xe4;" horiz-adv-x="467" d="M312 480q-22 0 -37.5 15.5t-15.5 37.5t16 37.5t38 15.5q21 0 36.5 -15.5t15.5 -37.5t-15.5 -37.5t-37.5 -15.5zM129 480q-22 0 -37.5 15.5t-15.5 37.5t16 37.5t38 15.5q21 0 36.5 -15.5t15.5 -37.5t-15.5 -37.5t-37.5 -15.5zM47 97q0 43 18 69t61 44q26 11 105 29 q37 9 60 18v34q0 57 -11 76q-18 29 -67 29q-31 0 -46.5 -13.5t-21.5 -44.5q-8 -41 -45 -41q-20 0 -33 9t-13 23q0 28 30 55q46 42 135 42q80 0 122 -36q20 -18 26.5 -35.5t6.5 -54.5v-219q0 -45 28 -45q26 0 39 45l2 7h30q-24 -99 -100 -99q-73 0 -82 71q-26 -31 -66.5 -51 t-77.5 -20q-47 0 -73.5 28.5t-26.5 79.5zM130 115q0 -29 19 -48.5t48 -19.5q47 0 94 41v140q-13 -7 -91 -30q-70 -21 -70 -83z" />
<glyph unicode="&#xe5;" horiz-adv-x="467" d="M234 468q-35 0 -60 25t-25 61q0 34 25.5 59t60.5 25q34 0 59 -25t25 -60t-25 -60t-60 -25zM233 507q19 0 32.5 13.5t13.5 32.5q0 18 -13.5 31.5t-31.5 13.5q-19 0 -32.5 -13t-13.5 -32t13 -32.5t32 -13.5zM47 97q0 43 18 69t61 44q26 11 105 29q37 9 60 18v34 q0 57 -11 76q-18 29 -67 29q-31 0 -46.5 -13.5t-21.5 -44.5q-8 -41 -45 -41q-20 0 -33 9t-13 23q0 28 30 55q46 42 135 42q80 0 122 -36q20 -18 26.5 -35.5t6.5 -54.5v-219q0 -45 28 -45q26 0 39 45l2 7h30q-24 -99 -100 -99q-73 0 -82 71q-26 -31 -66.5 -51t-77.5 -20 q-47 0 -73.5 28.5t-26.5 79.5zM130 115q0 -29 19 -48.5t48 -19.5q47 0 94 41v140q-13 -7 -91 -30q-70 -21 -70 -83z" />
<glyph unicode="&#xe6;" horiz-adv-x="689" d="M46 97q0 78 54 107q68 36 194 55v25q0 62 -12 79q-23 30 -67 30q-29 0 -47.5 -14.5t-21.5 -39.5q-2 -23 -13.5 -33t-35.5 -10q-19 0 -31 8.5t-12 22.5q0 26 30 54q50 45 131 45q47 0 77 -12t58 -43q53 55 132 55q76 0 125 -53t49 -135v-8h-281q4 -101 22 -136 q33 -65 107 -65q37 0 63.5 16t59.5 60l29 -16q-25 -47 -70 -73.5t-99 -26.5q-112 0 -170 85q-25 -35 -72.5 -60t-90.5 -25q-48 0 -78 30t-30 78zM377 259h191v11q0 120 -91 120q-44 0 -70.5 -34.5t-29.5 -96.5zM129 116q0 -34 18 -54t48 -20q33 0 65 18.5t42 44.5 q-8 26 -8 125q-94 -20 -129.5 -44.5t-35.5 -69.5z" />
<glyph unicode="&#xe7;" horiz-adv-x="429" d="M37 199q0 100 59 163.5t153 63.5q54 0 97 -25.5t43 -57.5q0 -16 -11 -26.5t-28 -10.5q-20 0 -35 14q-3 38 -19 54.5t-51 16.5q-52 0 -83.5 -46t-31.5 -121q0 -89 37 -141.5t100 -52.5q38 0 64.5 18.5t47.5 59.5l30 -11q-38 -111 -171 -109l-13 -42q46 -6 67 -22.5 t21 -46.5q0 -35 -28.5 -57.5t-72.5 -22.5q-42 0 -86 21l14 24q38 -11 57 -11q25 0 42.5 13.5t17.5 32.5q0 36 -68 46l21 67q-80 12 -126.5 68t-46.5 141z" />
<glyph unicode="&#xe8;" horiz-adv-x="446" d="M250 473l-117 117q-4 4 -4 7q0 10 14 10h70l63 -125q1 -2 1 -7q0 -8 -11 -8q-10 0 -16 6zM147 94q33 -67 112 -67q38 0 67 17.5t58 58.5l29 -16q-63 -98 -171 -98q-92 0 -148.5 59.5t-56.5 155.5q0 97 56 159.5t142 62.5q82 0 129 -53.5t49 -149.5h-285q1 -91 19 -129z M129 258h195q0 51 -9 74q-20 57 -83 57q-46 0 -73.5 -34.5t-29.5 -96.5z" />
<glyph unicode="&#xe9;" horiz-adv-x="446" d="M200 467q-12 0 -12 9q0 4 1 6l63 125h70q14 0 14 -10q0 -3 -4 -7l-117 -117q-6 -6 -15 -6zM147 94q33 -67 112 -67q38 0 67 17.5t58 58.5l29 -16q-63 -98 -171 -98q-92 0 -148.5 59.5t-56.5 155.5q0 97 56 159.5t142 62.5q82 0 129 -53.5t49 -149.5h-285q1 -91 19 -129z M129 258h195q0 51 -9 74q-20 57 -83 57q-46 0 -73.5 -34.5t-29.5 -96.5z" />
<glyph unicode="&#xea;" horiz-adv-x="446" d="M119 473q-6 0 -11.5 5.5t-5.5 10.5q0 6 7 14l121 119l121 -119q7 -7 7 -13t-5.5 -11.5t-11.5 -5.5t-16 7l-95 66l-95 -66q-8 -7 -16 -7zM147 94q33 -67 112 -67q38 0 67 17.5t58 58.5l29 -16q-63 -98 -171 -98q-92 0 -148.5 59.5t-56.5 155.5q0 97 56 159.5t142 62.5 q82 0 129 -53.5t49 -149.5h-285q1 -91 19 -129zM129 258h195q0 51 -9 74q-20 57 -83 57q-46 0 -73.5 -34.5t-29.5 -96.5z" />
<glyph unicode="&#xeb;" horiz-adv-x="446" d="M321 480q-22 0 -37.5 15.5t-15.5 37.5t16 37.5t38 15.5q21 0 36.5 -15.5t15.5 -37.5t-15.5 -37.5t-37.5 -15.5zM138 480q-22 0 -37.5 15.5t-15.5 37.5t16 37.5t38 15.5q21 0 36.5 -15.5t15.5 -37.5t-15.5 -37.5t-37.5 -15.5zM147 94q33 -67 112 -67q38 0 67 17.5t58 58.5 l29 -16q-63 -98 -171 -98q-92 0 -148.5 59.5t-56.5 155.5q0 97 56 159.5t142 62.5q82 0 129 -53.5t49 -149.5h-285q1 -91 19 -129zM129 258h195q0 51 -9 74q-20 57 -83 57q-46 0 -73.5 -34.5t-29.5 -96.5z" />
<glyph unicode="&#xec;" horiz-adv-x="273" d="M166 467q-10 0 -16 6l-117 117q-4 4 -4 7q0 10 14 10h70l63 -125q1 -2 1 -7q0 -8 -11 -8zM33 0v31q37 1 52 18.5t15 61.5v172q0 43 -15 61.5t-52 19.5v30q73 9 150 28v-311q0 -44 15 -61.5t52 -18.5v-31h-217z" />
<glyph unicode="&#xed;" horiz-adv-x="273" d="M108 467q-12 0 -12 9q0 4 1 6l63 125h70q14 0 14 -10q0 -3 -4 -7l-117 -117q-6 -6 -15 -6zM33 0v31q37 1 52 18.5t15 61.5v172q0 43 -15 61.5t-52 19.5v30q73 9 150 28v-311q0 -44 15 -61.5t52 -18.5v-31h-217z" />
<glyph unicode="&#xee;" horiz-adv-x="273" d="M19 473q-6 0 -11.5 5.5t-5.5 10.5q0 6 7 14l121 119l121 -119q7 -7 7 -13t-5.5 -11.5t-11.5 -5.5t-16 7l-95 66l-95 -66q-8 -7 -16 -7zM33 0v31q37 1 52 18.5t15 61.5v172q0 43 -15 61.5t-52 19.5v30q73 9 150 28v-311q0 -44 15 -61.5t52 -18.5v-31h-217z" />
<glyph unicode="&#xef;" horiz-adv-x="273" d="M205 480q-22 0 -37.5 15.5t-15.5 37.5t16 37.5t38 15.5q21 0 36.5 -15.5t15.5 -37.5t-15.5 -37.5t-37.5 -15.5zM55 480q-22 0 -37.5 15.5t-15.5 37.5t16 37.5t38 15.5q21 0 36.5 -15.5t15.5 -37.5t-15.5 -37.5t-37.5 -15.5zM33 0v31q37 1 52 18.5t15 61.5v172 q0 43 -15 61.5t-52 19.5v30q73 9 150 28v-311q0 -44 15 -61.5t52 -18.5v-31h-217z" />
<glyph unicode="&#xf0;" horiz-adv-x="505" d="M37 204q0 101 59.5 161.5t159.5 60.5q38 0 81 -13q-34 78 -85 143l-91 -46l-14 27l86 43q-47 53 -101 90l18 23q68 -37 126 -91l88 45l13 -27l-79 -41q65 -69 111 -156q60 -110 60 -208q0 -104 -58.5 -165t-159.5 -61q-100 0 -157 57.5t-57 157.5zM127 204 q0 -91 31.5 -138.5t92.5 -47.5q62 0 95 48.5t33 139.5q0 190 -125 190q-127 0 -127 -192z" />
<glyph unicode="&#xf1;" horiz-adv-x="549" d="M155 492l-20 9q44 80 96 80q16 0 61 -16q35 -13 55 -13q25 0 50 30l17 -11q-46 -73 -94 -73q-9 0 -54 14q-48 14 -63 14q-22 0 -48 -34zM33 0v31q37 1 52 18.5t15 61.5v172q0 43 -15 61.5t-52 19.5v30q74 10 137 28q13 -26 13 -53v-8q71 65 150 65q83 0 113 -57 q13 -25 13 -78v-180q0 -44 15 -61.5t52 -18.5v-31h-217v31q37 1 52 18.5t15 61.5v167q0 97 -87 97q-51 0 -106 -48v-216q0 -44 15 -61.5t52 -18.5v-31h-217z" />
<glyph unicode="&#xf2;" horiz-adv-x="505" d="M266 473l-117 117q-4 4 -4 7q0 10 14 10h70l63 -125q1 -2 1 -7q0 -8 -11 -8q-10 0 -16 6zM37 204q0 101 59.5 161.5t158.5 60.5q100 0 157 -58.5t57 -159.5q0 -99 -59.5 -159t-158.5 -60q-100 0 -157 57.5t-57 157.5zM127 204q0 -91 31.5 -138.5t92.5 -47.5q62 0 95 48.5 t33 139.5q0 190 -125 190q-127 0 -127 -192z" />
<glyph unicode="&#xf3;" horiz-adv-x="505" d="M224 467q-12 0 -12 9q0 4 1 6l63 125h70q14 0 14 -10q0 -3 -4 -7l-117 -117q-6 -6 -15 -6zM37 204q0 101 59.5 161.5t158.5 60.5q100 0 157 -58.5t57 -159.5q0 -99 -59.5 -159t-158.5 -60q-100 0 -157 57.5t-57 157.5zM127 204q0 -91 31.5 -138.5t92.5 -47.5 q62 0 95 48.5t33 139.5q0 190 -125 190q-127 0 -127 -192z" />
<glyph unicode="&#xf4;" horiz-adv-x="505" d="M142 473q-6 0 -11.5 5.5t-5.5 10.5q0 6 7 14l121 119l121 -119q7 -7 7 -13t-5.5 -11.5t-11.5 -5.5t-16 7l-95 66l-95 -66q-8 -7 -16 -7zM37 204q0 101 59.5 161.5t158.5 60.5q100 0 157 -58.5t57 -159.5q0 -99 -59.5 -159t-158.5 -60q-100 0 -157 57.5t-57 157.5z M127 204q0 -91 31.5 -138.5t92.5 -47.5q62 0 95 48.5t33 139.5q0 190 -125 190q-127 0 -127 -192z" />
<glyph unicode="&#xf5;" horiz-adv-x="505" d="M133 492l-20 9q44 80 96 80q16 0 61 -16q35 -13 55 -13q25 0 50 30l17 -11q-46 -73 -94 -73q-9 0 -54 14q-48 14 -63 14q-22 0 -48 -34zM37 204q0 101 59.5 161.5t158.5 60.5q100 0 157 -58.5t57 -159.5q0 -99 -59.5 -159t-158.5 -60q-100 0 -157 57.5t-57 157.5z M127 204q0 -91 31.5 -138.5t92.5 -47.5q62 0 95 48.5t33 139.5q0 190 -125 190q-127 0 -127 -192z" />
<glyph unicode="&#xf6;" horiz-adv-x="505" d="M344 480q-22 0 -37.5 15.5t-15.5 37.5t16 37.5t38 15.5q21 0 36.5 -15.5t15.5 -37.5t-15.5 -37.5t-37.5 -15.5zM161 480q-22 0 -37.5 15.5t-15.5 37.5t16 37.5t38 15.5q21 0 36.5 -15.5t15.5 -37.5t-15.5 -37.5t-37.5 -15.5zM37 204q0 101 59.5 161.5t158.5 60.5 q100 0 157 -58.5t57 -159.5q0 -99 -59.5 -159t-158.5 -60q-100 0 -157 57.5t-57 157.5zM127 204q0 -91 31.5 -138.5t92.5 -47.5q62 0 95 48.5t33 139.5q0 190 -125 190q-127 0 -127 -192z" />
<glyph unicode="&#xf7;" d="M249 440q-20 0 -33.5 14t-13.5 34t14 33.5t34 13.5t33.5 -13.5t13.5 -33.5q0 -21 -14 -34.5t-34 -13.5zM23 305v43h453v-43h-453zM202 166q0 20 14 33.5t34 13.5t33.5 -13.5t13.5 -33.5q0 -21 -14 -34.5t-34 -13.5t-33.5 14t-13.5 34z" />
<glyph unicode="&#xf8;" horiz-adv-x="508" d="M37 -1l51 59q-48 53 -48 149q0 100 59.5 160.5t157.5 60.5q75 0 125 -33l52 61l29 -26l-51 -58q59 -54 59 -158q0 -102 -59 -162.5t-158 -60.5q-80 0 -138 41l-50 -57zM142 109l205 248q-32 41 -90 41q-127 0 -127 -193q0 -60 12 -96zM159 71q35 -50 94 -50q62 0 95 48.5 t33 139.5q0 70 -15 112z" />
<glyph unicode="&#xf9;" horiz-adv-x="539" d="M282 473l-117 117q-4 4 -4 7q0 10 14 10h70l63 -125q1 -2 1 -7q0 -8 -11 -8q-10 0 -16 6zM102 46q-9 16 -10.5 26t-1.5 52v191q0 44 -15 62t-52 19v30l150 1v-290q0 -97 87 -97q29 0 52 10.5t54 38.5v226q0 44 -15 62t-52 19v30l150 1v-316q0 -43 15.5 -61t51.5 -19v-31 q-19 -1 -38 -1l-37 -1q-23 0 -62 -4q-10 28 -13 61q-72 -66 -150 -66q-38 0 -69.5 15.5t-44.5 41.5z" />
<glyph unicode="&#xfa;" horiz-adv-x="539" d="M241 467q-12 0 -12 9q0 4 1 6l63 125h70q14 0 14 -10q0 -3 -4 -7l-117 -117q-6 -6 -15 -6zM102 46q-9 16 -10.5 26t-1.5 52v191q0 44 -15 62t-52 19v30l150 1v-290q0 -97 87 -97q29 0 52 10.5t54 38.5v226q0 44 -15 62t-52 19v30l150 1v-316q0 -43 15.5 -61t51.5 -19v-31 q-19 -1 -38 -1l-37 -1q-23 0 -62 -4q-10 28 -13 61q-72 -66 -150 -66q-38 0 -69.5 15.5t-44.5 41.5z" />
<glyph unicode="&#xfb;" horiz-adv-x="539" d="M158 473q-6 0 -11.5 5.5t-5.5 10.5q0 6 7 14l121 119l121 -119q7 -7 7 -13t-5.5 -11.5t-11.5 -5.5t-16 7l-95 66l-95 -66q-8 -7 -16 -7zM102 46q-9 16 -10.5 26t-1.5 52v191q0 44 -15 62t-52 19v30l150 1v-290q0 -97 87 -97q29 0 52 10.5t54 38.5v226q0 44 -15 62t-52 19 v30l150 1v-316q0 -43 15.5 -61t51.5 -19v-31q-19 -1 -38 -1l-37 -1q-23 0 -62 -4q-10 28 -13 61q-72 -66 -150 -66q-38 0 -69.5 15.5t-44.5 41.5z" />
<glyph unicode="&#xfc;" horiz-adv-x="539" d="M361 480q-22 0 -37.5 15.5t-15.5 37.5t16 37.5t38 15.5q21 0 36.5 -15.5t15.5 -37.5t-15.5 -37.5t-37.5 -15.5zM178 480q-22 0 -37.5 15.5t-15.5 37.5t16 37.5t38 15.5q21 0 36.5 -15.5t15.5 -37.5t-15.5 -37.5t-37.5 -15.5zM102 46q-9 16 -10.5 26t-1.5 52v191 q0 44 -15 62t-52 19v30l150 1v-290q0 -97 87 -97q29 0 52 10.5t54 38.5v226q0 44 -15 62t-52 19v30l150 1v-316q0 -43 15.5 -61t51.5 -19v-31q-19 -1 -38 -1l-37 -1q-23 0 -62 -4q-10 28 -13 61q-72 -66 -150 -66q-38 0 -69.5 15.5t-44.5 41.5z" />
<glyph unicode="&#xfd;" horiz-adv-x="466" d="M218 467q-12 0 -12 9q0 4 1 6l63 125h70q14 0 14 -10q0 -3 -4 -7l-117 -117q-6 -6 -15 -6zM183 -54l32 67l-156 333q-18 38 -62 39v30h192v-30h-5q-38 0 -38 -21q0 -7 7 -24l105 -228l105 234q7 14 7 23t-9 12t-37 4v30h146v-30q-32 -3 -44.5 -10.5t-22.5 -28.5 l-214 -466q-42 -91 -69 -122.5t-62 -31.5q-22 0 -35.5 11t-13.5 29q0 11 7 21q12 -2 15 -2q26 0 61 24q38 25 91 137z" />
<glyph unicode="&#xfe;" horiz-adv-x="522" d="M160 35v-191q0 -43 15 -60.5t52 -19.5l20 -1v-30h-237v31q37 1 52 18.5t15 61.5v711q0 43 -15 61.5t-52 19.5v30q74 10 137 28q13 -21 13 -43v-286q55 61 139 61q81 0 133.5 -60.5t52.5 -154.5q0 -97 -54.5 -159.5t-138.5 -62.5q-76 0 -132 46zM160 81q52 -52 112 -52 q56 0 90.5 50t34.5 132q0 81 -31 128t-85 47q-67 0 -121 -81v-224z" />
<glyph unicode="&#xff;" horiz-adv-x="466" d="M331 480q-22 0 -37.5 15.5t-15.5 37.5t16 37.5t38 15.5q21 0 36.5 -15.5t15.5 -37.5t-15.5 -37.5t-37.5 -15.5zM148 480q-22 0 -37.5 15.5t-15.5 37.5t16 37.5t38 15.5q21 0 36.5 -15.5t15.5 -37.5t-15.5 -37.5t-37.5 -15.5zM183 -54l32 67l-156 333q-18 38 -62 39v30 h192v-30h-5q-38 0 -38 -21q0 -7 7 -24l105 -228l105 234q7 14 7 23t-9 12t-37 4v30h146v-30q-32 -3 -44.5 -10.5t-22.5 -28.5l-214 -466q-42 -91 -69 -122.5t-62 -31.5q-22 0 -35.5 11t-13.5 29q0 11 7 21q12 -2 15 -2q26 0 61 24q38 25 91 137z" />
<glyph unicode="&#x152;" horiz-adv-x="951" d="M40 331q0 150 88 247t224 97q30 0 77 -5q41 -3 53 -3h360l18 -163h-32q-11 57 -41 93q-17 20 -38.5 28t-58.5 8h-139v-245h57q49 0 72 22.5t25 71.5h31v-227h-31q-2 36 -6 49.5t-15 25.5q-22 23 -73 23h-60v-226q0 -54 26.5 -74t97.5 -20q68 0 105 16t63 55q29 45 39 104 h29l-12 -208h-421q-20 0 -51 -6q-27 -5 -55 -5q-151 0 -241.5 93t-90.5 249zM208 112q25 -37 65.5 -59.5t82.5 -22.5q59 0 82 31q13 18 13 66v500q-45 13 -88 13q-101 0 -153.5 -81.5t-52.5 -237.5q0 -133 51 -209z" />
<glyph unicode="&#x153;" horiz-adv-x="734" d="M98 44q-61 63 -61 163q0 98 57.5 158.5t149.5 60.5q86 0 141 -62q56 63 139 63q80 0 128 -53.5t49 -142.5h-283v-19q0 -88 33 -134.5t96 -46.5q72 0 125 76l29 -16q-64 -100 -173 -100q-79 0 -143 56q-37 -32 -70 -45t-80 -13q-85 0 -137 55zM124 201q0 -86 29.5 -133 t82.5 -47q49 0 76.5 48.5t27.5 136.5q0 89 -27 138t-76 49q-54 0 -83.5 -50t-29.5 -142zM419 259h191v17q0 55 -24.5 85.5t-68.5 30.5t-70.5 -36t-27.5 -97z" />
<glyph unicode="&#x178;" horiz-adv-x="656" d="M436 724q-23 0 -39 16.5t-16 39.5t16.5 39t39.5 16q22 0 38.5 -16.5t16.5 -38.5q0 -23 -16.5 -39.5t-39.5 -16.5zM245 724q-23 0 -39.5 16.5t-16.5 39.5t16.5 39t39.5 16q22 0 38.5 -16.5t16.5 -38.5q0 -23 -16 -39.5t-39 -16.5zM179 0v31q64 3 82 17.5t18 62.5v186 l-183 285q-19 30 -41.5 41.5t-61.5 12.5v31h286v-31h-25q-48 0 -48 -25q0 -13 9 -29l143 -246l147 243q11 19 11 30q0 16 -22 21q-14 4 -70 6v31h239v-31q-43 -1 -70.5 -16t-47.5 -48l-168 -275v-186q0 -48 18.5 -62.5t81.5 -17.5v-31h-298z" />
<glyph unicode="&#x2c6;" d="M139 473q-6 0 -11.5 5.5t-5.5 10.5q0 6 7 14l121 119l121 -119q7 -7 7 -13t-5.5 -11.5t-11.5 -5.5t-16 7l-95 66l-95 -66q-8 -7 -16 -7z" />
<glyph unicode="&#x2dc;" d="M130 492l-20 9q44 80 96 80q16 0 61 -16q35 -13 55 -13q25 0 50 30l17 -11q-46 -73 -94 -73q-9 0 -54 14q-48 14 -63 14q-22 0 -48 -34z" />
<glyph unicode="&#x2000;" horiz-adv-x="445" />
<glyph unicode="&#x2001;" horiz-adv-x="890" />
<glyph unicode="&#x2002;" horiz-adv-x="445" />
<glyph unicode="&#x2003;" horiz-adv-x="890" />
<glyph unicode="&#x2004;" horiz-adv-x="296" />
<glyph unicode="&#x2005;" horiz-adv-x="222" />
<glyph unicode="&#x2006;" horiz-adv-x="148" />
<glyph unicode="&#x2007;" horiz-adv-x="148" />
<glyph unicode="&#x2008;" horiz-adv-x="111" />
<glyph unicode="&#x2009;" horiz-adv-x="178" />
<glyph unicode="&#x200a;" horiz-adv-x="49" />
<glyph unicode="&#x2010;" horiz-adv-x="213" d="M0 192v49h213v-49h-213z" />
<glyph unicode="&#x2011;" horiz-adv-x="213" d="M0 192v49h213v-49h-213z" />
<glyph unicode="&#x2013;" horiz-adv-x="517" d="M37 192v50h444v-50h-444z" />
<glyph unicode="&#x2014;" horiz-adv-x="634" d="M0 191v50h634v-50h-634z" />
<glyph unicode="&#x2018;" horiz-adv-x="243" d="M132 402q-36 0 -60.5 33t-24.5 80q0 55 38 103.5t94 65.5v-18q-79 -56 -79 -116q0 -16 8 -40q18 3 25 3q25 0 41.5 -16t16.5 -40q0 -23 -17 -39t-42 -16z" />
<glyph unicode="&#x2019;" horiz-adv-x="243" d="M64 402v18q79 55 79 116q0 16 -8 39q-15 -2 -25 -2q-25 0 -41.5 16t-16.5 40q0 23 17 39t42 16q36 0 60.5 -33t24.5 -80q0 -55 -38 -103.5t-94 -65.5z" />
<glyph unicode="&#x201a;" horiz-adv-x="243" d="M52 53q0 23 17 39t42 16q36 0 60.5 -33t24.5 -80q0 -54 -38 -102.5t-94 -65.5v18q79 56 79 115q0 16 -8 40q-19 -3 -25 -3q-25 0 -41.5 16t-16.5 40z" />
<glyph unicode="&#x201c;" horiz-adv-x="427" d="M315 402q-36 0 -60.5 33t-24.5 80q0 55 38 103.5t94 65.5v-18q-79 -56 -79 -116q0 -16 8 -40q18 3 25 3q25 0 41.5 -16t16.5 -40q0 -23 -17 -39t-42 -16zM132 402q-36 0 -60.5 33t-24.5 80q0 55 38 103.5t94 65.5v-18q-79 -56 -79 -116q0 -16 8 -40q18 3 25 3 q25 0 41.5 -16t16.5 -40q0 -23 -17 -39t-42 -16z" />
<glyph unicode="&#x201d;" horiz-adv-x="427" d="M248 402v18q79 55 79 116q0 16 -8 39q-15 -2 -25 -2q-25 0 -41.5 16t-16.5 40q0 23 17 39t42 16q36 0 60.5 -33t24.5 -80q0 -55 -38 -103.5t-94 -65.5zM64 402v18q79 55 79 116q0 16 -8 39q-15 -2 -25 -2q-25 0 -41.5 16t-16.5 40q0 23 17 39t42 16q36 0 60.5 -33 t24.5 -80q0 -55 -38 -103.5t-94 -65.5z" />
<glyph unicode="&#x201e;" horiz-adv-x="427" d="M236 53q0 23 17 39t42 16q36 0 60.5 -33t24.5 -80q0 -54 -38 -102.5t-94 -65.5v18q79 56 79 115q0 16 -8 40q-19 -3 -25 -3q-25 0 -41.5 16t-16.5 40zM52 53q0 23 17 39t42 16q36 0 60.5 -33t24.5 -80q0 -54 -38 -102.5t-94 -65.5v18q79 56 79 115q0 16 -8 40 q-19 -3 -25 -3q-25 0 -41.5 16t-16.5 40z" />
<glyph unicode="&#x2022;" horiz-adv-x="667" d="M213 333q0 50 35.5 85t85.5 35q49 0 84 -35.5t35 -84.5t-35.5 -84.5t-84.5 -35.5t-84.5 35.5t-35.5 84.5z" />
<glyph unicode="&#x2026;" horiz-adv-x="653" d="M488 43q0 24 16.5 40t39.5 16q24 0 40 -16t16 -40t-16 -40t-41 -16q-23 0 -39 16.5t-16 39.5zM271 43q0 24 16.5 40t39.5 16q24 0 40 -16t16 -40t-16 -40t-41 -16q-23 0 -39 16.5t-16 39.5zM53 43q0 24 16.5 40t39.5 16q24 0 40 -16t16 -40t-16 -40t-41 -16 q-23 0 -39 16.5t-16 39.5z" />
<glyph unicode="&#x202f;" horiz-adv-x="178" />
<glyph unicode="&#x2039;" horiz-adv-x="270" d="M173 80l-129 120q-11 11 -11 16q0 7 11 18l129 120q23 18 28 21t13 3q16 0 16 -15q0 -10 -12 -26l-95 -120l95 -121q12 -15 12 -26q0 -15 -16 -15q-7 0 -9.5 0.5t-10 6t-21.5 18.5z" />
<glyph unicode="&#x203a;" horiz-adv-x="270" d="M56 56q-16 0 -16 15q0 10 12 25l94 121l-94 120q-12 15 -12 26q0 15 16 15q8 0 13 -3t28 -21l128 -120q12 -11 12 -17q0 -5 -12 -17l-128 -120q-23 -18 -28 -21t-13 -3z" />
<glyph unicode="&#x205f;" horiz-adv-x="222" />
<glyph unicode="&#x20ac;" horiz-adv-x="774" d="M37 294l11 26h48v7q0 7 1 19h-60l11 26h51q13 138 107.5 225t230.5 87q113 0 214 -68q11 15 22 51h29l8 -241h-31q-55 223 -236 223q-101 0 -162 -73.5t-68 -203.5h337l-11 -26h-328v-7q0 -7 1 -16v-3h316l-11 -26h-304q10 -120 75.5 -191t168.5 -71q115 0 198 92 q29 32 47 71l35 -27q-19 -47 -59 -85q-101 -101 -247 -101q-140 0 -231 85.5t-102 226.5h-61z" />
<glyph unicode="&#x2122;" horiz-adv-x="928" d="M431 300v17q27 1 41 12t14 57v213q0 32 -9 41t-46 10v17h114l84 -200q26 -61 35 -96q3 10 4 13l118 283h114v-17q-35 -2 -45 -10t-10 -34v-245q0 -26 10.5 -35t38.5 -9h6v-17h-166v17q38 1 47 10t9 44v185q0 23 3 77q-6 -21 -16 -46l-120 -287h-17l-108 261q-1 2 -17 46 l-7 19v-9v-9v-11v-198q0 -52 9 -65.5t45 -16.5v-17h-131zM121 300v17q35 1 45 9.5t10 34.5v288h-61q-30 0 -45.5 -15.5t-28.5 -56.5h-16l9 90h338l9 -90h-16q-13 41 -28.5 56.5t-44.5 15.5h-62v-288q0 -26 10 -34.5t45 -9.5v-17h-164z" />
</font>
</defs>
</svg>
