<?xml version="1.0" standalone="no"?>
<!DOCTYPE svg PUBLIC "-//W3C//DTD SVG 1.1//EN" "http://www.w3.org/Graphics/SVG/1.1/DTD/svg11.dtd" >
<svg xmlns="http://www.w3.org/2000/svg">
<metadata>
This is a custom SVG webfont generated by Fontspring.
Designer    : FontSite.com
Foundry URL : http://www.fontsite.com
</metadata>
<defs>
<font id="webfont" horiz-adv-x="587" >
<font-face units-per-em="1000" ascent="827" descent="-173" />
<missing-glyph horiz-adv-x="250" />
<glyph unicode=" "  horiz-adv-x="250" />
<glyph unicode="&#x09;" horiz-adv-x="250" />
<glyph unicode="&#xa0;" horiz-adv-x="250" />
<glyph unicode="!" horiz-adv-x="315" d="M95 225l-52 442h231l-55 -442h-124zM63 0v178h189v-178h-189z" />
<glyph unicode="&#x22;" horiz-adv-x="413" d="M253 386l-24 281h144l-25 -281h-95zM65 386l-24 281h144l-24 -281h-96z" />
<glyph unicode="#" d="M88 0l36 199h-109l19 104h109l14 74h-108l19 103h107l34 187h110l-33 -187h78l34 187h111l-33 -187h95l-19 -103h-95l-14 -74h98l-19 -104h-97l-37 -199h-111l36 199h-78l-37 -199h-110zM253 303h79l13 74h-78z" />
<glyph unicode="$" d="M16 206l171 31q14 -41 39.5 -58t71.5 -17q69 0 69 39q0 19 -16 30.5t-57 19.5q-107 21 -164 52q-40 22 -62 61t-22 88q0 79 51.5 133t140.5 67v83h93v-81q76 -7 129.5 -46t76.5 -104l-152 -48q-25 62 -97 62q-28 0 -43.5 -10.5t-15.5 -28.5q0 -17 14.5 -27t51.5 -18 q85 -18 115.5 -27.5t58.5 -25.5q40 -22 62.5 -63t22.5 -91q0 -85 -59.5 -140t-163.5 -68v-84h-93v85q-87 9 -146.5 58.5t-75.5 127.5z" />
<glyph unicode="%" horiz-adv-x="711" d="M165 329q-62 0 -98.5 46.5t-36.5 125.5t36.5 125t99.5 46t99 -46.5t36 -128.5q0 -76 -37.5 -122t-98.5 -46zM106 0l407 667h90l-405 -667h-92zM166 402q34 0 34 97q0 100 -34 100t-34 -94q0 -57 7.5 -80t26.5 -23zM410 168q0 79 36.5 125t99.5 46t99 -46.5t36 -128.5 q0 -77 -37.5 -123t-99.5 -46t-98 47t-36 126zM512 171q0 -57 7.5 -80t26.5 -23q34 0 34 98q0 100 -34 100t-34 -95z" />
<glyph unicode="&#x26;" horiz-adv-x="740" d="M25 196q0 66 36.5 109.5t117.5 73.5q-31 41 -42.5 69t-11.5 62q0 77 58.5 122t159.5 45q98 0 155 -44t57 -120q0 -57 -33 -100t-94 -64l68 -72q34 30 51 113l173 -20q-31 -134 -110 -207q25 -19 64 -19q17 0 46 4v-144q-45 -11 -81 -11q-48 0 -81 11.5t-74 42.5 q-68 -57 -193 -57q-120 0 -193 56.5t-73 149.5zM350 445q49 19 49 62q0 23 -14 37t-36 14q-20 0 -33.5 -12t-13.5 -30q0 -31 48 -71zM221 209q0 -34 23 -54.5t61 -20.5q45 0 75 27l-111 122q-48 -24 -48 -74z" />
<glyph unicode="'" horiz-adv-x="225" d="M65 386l-24 281h144l-24 -281h-96z" />
<glyph unicode="(" horiz-adv-x="293" d="M61 1q-56 126 -56 260q0 225 154 406h132q-127 -196 -127 -409q0 -140 53 -275q17 -44 74 -140h-132q-44 61 -63 91t-35 67z" />
<glyph unicode=")" horiz-adv-x="293" d="M2 -157q127 193 127 409q0 138 -53 275q-19 47 -74 140h132q72 -100 98 -158q56 -124 56 -260q0 -223 -154 -406h-132z" />
<glyph unicode="*" d="M210 246l-108 80l111 116l-163 19l39 126l156 -69l-18 162h133l-18 -162l156 69l39 -126l-163 -19l110 -116l-107 -80l-84 153z" />
<glyph unicode="+" d="M231 87v188h-181v124h181v187h125v-187h180v-124h-180v-188h-125z" />
<glyph unicode="," horiz-adv-x="275" d="M45 0v177h185v-163l-107 -185h-76l76 171h-78z" />
<glyph unicode="-" horiz-adv-x="275" d="M14 175v153h247v-153h-247z" />
<glyph unicode="." horiz-adv-x="275" d="M45 0v178h185v-178h-185z" />
<glyph unicode="/" horiz-adv-x="511" d="M37 -157h-98l449 824h100z" />
<glyph unicode="0" d="M105 78q-75 96 -75 257q0 171 84 264q72 78 180 78q114 0 179 -78q83 -101 83 -272q0 -153 -72.5 -245t-192.5 -92q-115 0 -186 88zM294 131q37 0 53 47t16 154q0 109 -16 157t-53 48q-36 0 -52.5 -47t-16.5 -148q0 -118 15 -164.5t54 -46.5z" />
<glyph unicode="1" d="M64 0v149h165v316q-61 -26 -84 -33.5t-63 -14.5v150q69 14 120 43.5t73 66.5h145v-528h157v-149h-513z" />
<glyph unicode="2" d="M30 0v153l114 79q74 52 155 130q47 45 47 95q0 31 -18.5 50.5t-47.5 19.5q-72 0 -82 -115l-168 32q11 62 29.5 99t52.5 68q72 66 183 66q110 0 178 -59t68 -154q0 -59 -27 -105.5t-91 -98.5q-26 -21 -137 -97h259l-7 -163h-508z" />
<glyph unicode="3" d="M72 80q-43 48 -60 124l174 22q16 -92 98 -92q36 0 59 19t23 50q0 36 -28 56q-17 13 -60 13h-81v139h68q45 0 61 11q25 17 25 49q0 27 -20 44t-51 17q-68 0 -83 -76l-161 26q23 93 91 144t170 51q106 0 174 -49q31 -22 49.5 -60t18.5 -79q0 -51 -26 -87.5t-74 -52.5 q63 -21 92 -59t29 -99q0 -93 -71.5 -147t-193.5 -54q-143 0 -223 90z" />
<glyph unicode="4" d="M26 147v145l251 385h205v-385h94v-145h-94v-147h-183v147h-273zM172 292h127v199z" />
<glyph unicode="5" d="M91 65q-50 47 -67 129l172 21q17 -72 93 -72q36 0 59 22.5t23 58.5q0 35 -23.5 57.5t-60.5 22.5q-48 0 -78 -42l-153 22l29 383h445l-17 -165h-279l-9 -94q58 37 120 37q93 0 155 -62.5t62 -156.5q0 -104 -75 -170t-194 -66q-125 0 -202 75z" />
<glyph unicode="6" d="M308 -10q-130 0 -204.5 88.5t-74.5 241.5q0 158 76 262q70 95 201 95q125 0 192 -84q35 -45 46 -115l-170 -20q-6 44 -20.5 62t-44.5 18q-82 0 -85 -174q42 62 133 62t148 -57.5t57 -148.5q0 -99 -72 -164.5t-182 -65.5zM226 204q0 -34 21.5 -56.5t53.5 -22.5t52.5 22 t20.5 56q0 36 -20 59.5t-51 23.5q-33 0 -55 -23.5t-22 -58.5z" />
<glyph unicode="7" d="M142 0q1 122 60 262t152 238h-309l14 167h479v-125q-32 -36 -65.5 -97t-55.5 -121q-56 -151 -56 -282q0 -4 2 -42h-221z" />
<glyph unicode="8" d="M22 176q0 101 104 150q-83 50 -83 145q0 92 70.5 149t183.5 57q110 0 178 -49t68 -129q0 -45 -18 -73.5t-67 -62.5q58 -32 82.5 -69.5t24.5 -95.5q0 -97 -75.5 -152.5t-206.5 -55.5q-121 0 -191 50t-70 136zM272 438l61 -24q41 22 41 61q0 32 -23.5 51t-62.5 19 q-30 0 -47 -13.5t-17 -36.5q0 -38 48 -57zM195 190q0 -32 27 -51.5t72 -19.5q37 0 58.5 14t21.5 38q0 39 -56 60l-76 28q-47 -30 -47 -69z" />
<glyph unicode="9" d="M45 168l171 28q12 -62 63 -62q41 0 64 38.5t23 108.5v19q-28 -36 -56.5 -50t-74.5 -14q-91 0 -149.5 59.5t-58.5 151.5q0 103 70.5 166.5t185.5 63.5q130 0 201.5 -86.5t71.5 -242.5q0 -144 -63 -244q-71 -114 -222 -114q-94 0 -152.5 46t-73.5 132zM281 377 q32 0 53.5 22.5t21.5 56.5q0 38 -20 61.5t-52 23.5q-33 0 -52.5 -23t-19.5 -61q0 -36 19 -58t50 -22z" />
<glyph unicode=":" horiz-adv-x="275" d="M45 319v178h185v-178h-185zM45 0v178h185v-178h-185z" />
<glyph unicode=";" horiz-adv-x="275" d="M45 319v178h185v-178h-185zM45 0v177h185v-163l-107 -185h-76l76 171h-78z" />
<glyph unicode="&#x3c;" d="M67 277v115l433 224v-137l-287 -145l287 -145v-136z" />
<glyph unicode="=" d="M50 361v124h486v-124h-486zM50 175v124h486v-124h-486z" />
<glyph unicode="&#x3e;" d="M87 53v137l288 145l-288 145v136l433 -224v-115z" />
<glyph unicode="?" horiz-adv-x="546" d="M189 220q0 62 12 88.5t55 64.5q34 30 47 53t13 52t-15.5 46t-40.5 17q-54 0 -67 -68q-3 -18 -4 -45l-179 20q15 71 37 110q68 119 229 119q108 0 176 -58t68 -150q0 -79 -53 -132q-20 -18 -59 -47q-35 -26 -44 -37t-13 -33h-162zM183 0v178h187v-178h-187z" />
<glyph unicode="@" horiz-adv-x="767" d="M207 -56q-81 46 -127.5 128t-46.5 178q0 149 105 251t259 102q142 0 239 -88.5t97 -216.5q0 -99 -58.5 -170t-140.5 -71q-53 0 -83 43q-38 -44 -91 -44q-61 0 -102 52t-41 130q0 81 46 135t115 54q40 0 77 -29l6 21h92l-26 -219q-3 -21 -3 -40q0 -20 19 -20q39 0 70 48 t31 108q0 97 -70.5 162t-175.5 65q-113 0 -190 -78.5t-77 -194.5q0 -74 34 -136.5t94 -98.5q59 -35 147 -35q56 0 100 12t109 45l33 -80q-67 -34 -121 -47.5t-120 -13.5q-116 0 -200 48zM315 234q0 -37 14.5 -60.5t36.5 -23.5q33 0 58 32.5t25 74.5q0 33 -18.5 54.5 t-46.5 21.5q-30 0 -49.5 -28t-19.5 -71z" />
<glyph unicode="A" horiz-adv-x="634" d="M0 0l206 667h216l209 -667h-209l-37 131h-179l-40 -131h-166zM241 276h108l-54 194z" />
<glyph unicode="B" horiz-adv-x="643" d="M58 0v667h339q104 0 155 -54q47 -52 47 -121q0 -62 -41 -105q-24 -27 -71 -41q129 -32 129 -156q0 -49 -20 -91t-54 -65q-51 -34 -166 -34h-318zM247 411h94q31 0 48 15t17 43q0 55 -68 55h-91v-113zM247 149h100q32 0 51.5 16t19.5 44t-20.5 44t-57.5 16h-93v-120z" />
<glyph unicode="C" horiz-adv-x="628" d="M28 328q0 171 93 269q77 80 212 80q168 0 239 -129q31 -56 39 -138l-190 -11q-1 49 -14 77q-10 23 -30 36.5t-43 13.5q-25 0 -46 -16.5t-32 -45.5q-18 -47 -18 -137q0 -96 23 -139.5t73 -43.5q81 0 90 111l187 -12q-8 -62 -24.5 -100.5t-50.5 -72.5q-78 -80 -205 -80 q-139 0 -221 91.5t-82 246.5z" />
<glyph unicode="D" horiz-adv-x="679" d="M58 0v667h258q158 0 246 -94q89 -95 89 -238q0 -148 -89.5 -241.5t-232.5 -93.5h-271zM263 153h53q53 0 87 50.5t34 130.5q0 72 -30 127q-31 55 -91 55h-53v-363z" />
<glyph unicode="E" horiz-adv-x="583" d="M58 0v667h501v-154h-300v-97h243v-148h-243v-109h300v-159h-501z" />
<glyph unicode="F" horiz-adv-x="547" d="M58 0v667h482v-159h-283v-109h218v-150h-218v-249h-199z" />
<glyph unicode="G" horiz-adv-x="684" d="M323 -10q-132 0 -213.5 92t-81.5 242q0 153 81 252q83 101 238 101q164 0 242 -118q27 -40 44 -115l-198 -19q-9 54 -31 79t-60 25q-101 0 -101 -197q0 -93 26 -137q28 -47 84 -47q40 0 64 23t26 61h-110v141h300v-373h-100q-13 41 -27 70q-36 -43 -78.5 -61.5 t-104.5 -18.5z" />
<glyph unicode="H" horiz-adv-x="681" d="M58 0v667h205v-246h155v246h205v-667h-205v259h-155v-259h-205z" />
<glyph unicode="I" horiz-adv-x="321" d="M58 0v667h205v-667h-205z" />
<glyph unicode="J" horiz-adv-x="416" d="M7 6v159q43 -12 81 -12q43 0 64 24q16 17 16 70v420h197v-420q0 -80 -9.5 -121.5t-33.5 -70.5q-55 -65 -180 -65q-69 0 -135 16z" />
<glyph unicode="K" horiz-adv-x="656" d="M58 0v667h193v-275l184 275h184l-168 -244l209 -423h-225l-115 252l-69 -98v-154h-193z" />
<glyph unicode="L" horiz-adv-x="539" d="M58 0v667h205v-504h262v-163h-467z" />
<glyph unicode="M" horiz-adv-x="841" d="M58 0v667h267l97 -354l92 354h269v-667h-190v477l-124 -477h-130l-128 477v-477h-153z" />
<glyph unicode="N" horiz-adv-x="686" d="M58 0v667h193l155 -244q46 -72 71 -129q-16 89 -16 175v198h167v-667h-167l-182 294l-9 15.5t-10.5 19t-8.5 15.5q-17 30 -43 88q16 -71 16 -109v-323h-166z" />
<glyph unicode="O" horiz-adv-x="691" d="M28 333q0 155 87.5 249.5t231.5 94.5q139 0 225 -89q90 -94 90 -253q0 -153 -88 -249t-228 -96q-143 0 -230.5 94.5t-87.5 248.5zM345 141q38 0 59.5 24t29.5 75q8 54 8 111q0 175 -94 175q-100 0 -100 -199q0 -186 97 -186z" />
<glyph unicode="P" horiz-adv-x="643" d="M58 0v667h284q77 0 124.5 -12t84.5 -41q74 -60 74 -160q0 -95 -67 -153.5t-177 -58.5h-116v-242h-207zM263 385h68q91 0 91 66q0 63 -85 63h-74v-129z" />
<glyph unicode="Q" horiz-adv-x="695" d="M333 -10q-135 0 -220 95.5t-85 246.5q0 159 98 259q85 86 221 86q147 0 231 -92q89 -98 89 -254q0 -184 -123 -271q5 -18 19.5 -25.5t45.5 -7.5q18 0 53 7v-151q-54 -6 -81 -6q-82 0 -121 38q-27 24 -45 85q-41 -10 -82 -10zM267 194q20 -52 81 -52q55 0 77 39.5 t22 137.5q0 112 -23 159.5t-78 47.5q-63 0 -83 -63q-13 -43 -13 -126q0 -96 17 -143z" />
<glyph unicode="R" horiz-adv-x="690" d="M58 0v667h349q113 0 177.5 -54t64.5 -149q0 -63 -26.5 -102.5t-91.5 -71.5l120 -290h-226l-98 254h-64v-254h-205zM263 397h87q41 0 63.5 17t22.5 47t-21 47t-58 17h-94v-128z" />
<glyph unicode="S" horiz-adv-x="607" d="M57 71q-46 44 -68 122l190 34q16 -44 44 -62t80 -18q76 0 76 42q0 21 -18 33t-63 20q-117 23 -182 57q-44 22 -68.5 64t-24.5 95q0 99 75 159t199 60q207 0 272 -164l-170 -51q-27 67 -107 67q-31 0 -48.5 -11t-17.5 -31q0 -19 15.5 -29t58.5 -19q97 -20 129 -29.5 t64 -27.5q44 -24 69 -68t25 -98q0 -101 -82.5 -163.5t-216.5 -62.5q-145 0 -231 81z" />
<glyph unicode="T" horiz-adv-x="470" d="M138 0v507h-138v160h470v-160h-138v-507h-194z" />
<glyph unicode="U" horiz-adv-x="650" d="M110 57q-59 53 -59 158v452h208v-428q0 -49 17 -66q23 -26 68 -26q58 0 82 37q8 12 9.5 26.5t1.5 65.5v391h161v-442q0 -110 -59 -166q-73 -69 -209 -69q-144 0 -220 67z" />
<glyph unicode="V" horiz-adv-x="625" d="M213 0l-216 667h216l100 -347l10 -33l14 -47l13 46l10 34l100 347h168l-206 -667h-209z" />
<glyph unicode="W" horiz-adv-x="900" d="M184 0l-177 667h192l94 -385l91 385h161l98 -385l94 385h156l-177 -667h-171l-94 368l-88 -368h-179z" />
<glyph unicode="X" horiz-adv-x="646" d="M-13 0l215 345l-206 322h238l104 -179l107 179h184l-194 -310l224 -357h-237l-123 210l-125 -210h-187z" />
<glyph unicode="Y" horiz-adv-x="591" d="M204 0v282l-224 385h224l116 -219l112 219h179l-208 -385v-282h-199z" />
<glyph unicode="Z" horiz-adv-x="588" d="M17 0v127l295 385h-272v155h522v-130l-286 -380h296v-157h-555z" />
<glyph unicode="[" horiz-adv-x="293" d="M37 -157v824h230v-80h-85v-663h85v-81h-230z" />
<glyph unicode="\" horiz-adv-x="511" d="M474 -157l-451 824h100l449 -824h-98z" />
<glyph unicode="]" horiz-adv-x="293" d="M27 -77h85v663h-85v81h230v-824h-230v80z" />
<glyph unicode="^" horiz-adv-x="500" d="M4 335l158 336h176l157 -336h-140l-105 229l-106 -229h-140z" />
<glyph unicode="_" horiz-adv-x="500" d="M0 -46h500v-117h-500v117z" />
<glyph unicode="`" horiz-adv-x="500" d="M101 648l36 95l223 -109l-26 -67z" />
<glyph unicode="a" d="M25 138q0 52 33.5 93t90.5 60q81 26 201 32v12q0 29 -13.5 41.5t-45.5 12.5q-66 0 -75 -54l-177 16q18 69 69 106q72 50 189 50q156 0 211 -69q18 -22 23.5 -49.5t5.5 -93.5v-198q0 -54 15 -97h-185q-7 36 -7 69q-57 -79 -160 -79q-78 0 -126.5 41t-48.5 107zM226 153 q0 -21 13 -33t36 -12q40 0 57.5 23.5t17.5 77.5v23q-124 -13 -124 -79z" />
<glyph unicode="b" d="M52 0v667h192v-229q23 37 52.5 53t74.5 16q88 0 139 -67.5t51 -182.5q0 -114 -49 -188q-53 -79 -165 -79q-54 0 -91 18t-69 60q-17 -35 -25 -68h-110zM244 185q0 -73 56 -73q35 0 49.5 30.5t14.5 102.5t-12 105q-6 16 -20.5 25.5t-31.5 9.5q-25 0 -40.5 -18t-15.5 -47 v-135z" />
<glyph unicode="c" horiz-adv-x="523" d="M107 51q-82 73 -82 194q0 116 71.5 189t186.5 73q104 0 171 -67q48 -49 60 -130l-170 -15q-5 30 -10 43q-13 36 -50 36q-32 0 -46 -30t-14 -98q0 -63 15 -91t48 -28q53 0 63 73l166 -14q-12 -74 -51 -120q-66 -76 -186 -76q-104 0 -172 61z" />
<glyph unicode="d" d="M219 -10q-89 0 -140.5 69.5t-51.5 188.5q0 121 53 192.5t143 71.5q70 0 121 -55v210h192v-667h-182v66q-26 -42 -56 -59t-79 -17zM288 119q26 0 41 20.5t15 57.5v123q0 66 -55 66q-32 0 -47 -35.5t-15 -111.5q0 -120 61 -120z" />
<glyph unicode="e" d="M25 242q0 54 21 105.5t56 86.5q75 73 196 73q119 0 191.5 -73.5t72.5 -195.5q0 -17 -1 -29h-332q0 -48 14 -66q20 -26 62 -26q33 0 50 13.5t25 47.5l181 -12q-19 -82 -88 -129t-170 -47q-124 0 -201 70t-77 182zM228 307h139q-2 45 -18 65t-51 20q-70 0 -70 -85z" />
<glyph unicode="f" horiz-adv-x="392" d="M77 0v370h-74v127h74q0 63 5 88.5t22 50.5q43 64 163 64q66 0 141 -13v-126q-66 8 -88 8q-33 0 -47 -13t-14 -43v-16h127v-127h-125v-370h-184z" />
<glyph unicode="g" horiz-adv-x="569" d="M1 -47q0 65 71 95q-46 35 -46 78q0 48 40 80q18 14 56 30q-43 20 -61.5 46.5t-18.5 68.5q0 74 64 115.5t177 41.5q49 0 93 -11q10 61 40 89t83 28q27 0 70 -4l-5 -134q-44 3 -47 3q-42 0 -55 -19q56 -45 56 -114q0 -72 -59.5 -111t-168.5 -39q-2 0 -5 0.5t-10.5 1 t-21.5 0.5h-6q-48 0 -48 -24q0 -12 9 -17t33 -6l159 -7q76 -3 116 -37q24 -19 38.5 -51.5t14.5 -65.5q0 -40 -21 -74.5t-56 -52.5q-71 -35 -220 -35q-271 0 -271 125zM283 288q28 0 43 15.5t15 44.5t-15.5 45.5t-41.5 16.5q-28 0 -43.5 -16t-15.5 -45q0 -61 58 -61zM162 -24 q0 -25 31.5 -35.5t102.5 -10.5q59 0 80.5 8.5t21.5 30.5q0 17 -10 24t-35 8l-119 5q-7 1 -21 1q-28 0 -39.5 -7t-11.5 -24z" />
<glyph unicode="h" horiz-adv-x="591" d="M51 0v667h195v-229q55 69 137 69q85 0 128 -55q17 -23 22.5 -47t5.5 -82v-323h-195v299q0 44 -8 55q-11 17 -36 17q-18 0 -33 -11t-19 -27q-2 -7 -2 -52v-281h-195z" />
<glyph unicode="i" horiz-adv-x="297" d="M51 533v154h195v-154h-195zM51 0v497h195v-497h-195z" />
<glyph unicode="j" horiz-adv-x="298" d="M52 534v153h195v-153h-195zM0 -32q28 0 40 14t12 47v468h195v-468q0 -66 -9.5 -100t-34.5 -58q-48 -45 -150 -45q-45 0 -95 10v142q22 -10 42 -10z" />
<glyph unicode="k" horiz-adv-x="574" d="M51 0v667h183v-269q0 -12 -1 -90q21 29 35 45l125 144h172l-150 -171l167 -326h-201l-94 199l-53 -62v-137h-183z" />
<glyph unicode="l" horiz-adv-x="295" d="M51 0v667h192v-667h-192z" />
<glyph unicode="m" horiz-adv-x="855" d="M51 0v497h175v-67q44 77 138 77t138 -77q28 41 62.5 59t86.5 18q67 0 111 -39q25 -22 33.5 -49.5t8.5 -80.5v-338h-189v311q0 29 -6 39q-10 17 -36 17q-29 0 -41.5 -18.5t-12.5 -60.5v-288h-187v311q0 59 -45 59q-49 0 -49 -59v-311h-187z" />
<glyph unicode="n" d="M51 0v497h181v-70q21 35 43 52q38 28 102 28q72 0 119 -42q24 -23 32 -52t8 -95v-318h-195v313q0 32 -9.5 46t-31.5 14q-54 0 -54 -74v-299h-195z" />
<glyph unicode="o" horiz-adv-x="594" d="M25 247q0 113 77 186.5t196 73.5q122 0 197 -72t75 -188q0 -112 -77.5 -184.5t-198.5 -72.5q-117 0 -193 72.5t-76 184.5zM296 108q41 0 53 33q14 42 14 111q0 72 -15 102.5t-50 30.5t-50.5 -32.5t-15.5 -104.5q0 -76 14.5 -108t49.5 -32z" />
<glyph unicode="p" d="M51 -157v654h179v-71q20 38 44 55q36 26 97 26q88 0 138.5 -68.5t50.5 -189.5q0 -118 -51 -188.5t-136 -70.5q-79 0 -127 63v-210h-195zM246 182q0 -33 14.5 -51.5t39.5 -18.5q32 0 46.5 31t14.5 102q0 140 -61 140q-24 0 -39 -17t-15 -44v-142z" />
<glyph unicode="q" horiz-adv-x="589" d="M226 -10q-90 0 -144.5 69.5t-54.5 184.5q0 122 63 196q57 67 157 67q55 0 90 -18t61 -59q19 32 32 67h113q-5 -24 -5 -67v-587h-192v210q-35 -63 -120 -63zM286 108q28 0 44 19.5t16 53.5v134q0 35 -15.5 56.5t-41.5 21.5q-63 0 -63 -148q0 -72 14 -104.5t46 -32.5z" />
<glyph unicode="r" horiz-adv-x="381" d="M51 0v497h162v-103q18 61 48.5 86.5t83.5 25.5q14 0 26 -2v-173q-21 5 -37 5q-96 0 -96 -108v-228h-187z" />
<glyph unicode="s" horiz-adv-x="530" d="M7 141l154 21q10 -29 33.5 -41.5t70.5 -12.5q76 0 76 31q0 14 -18.5 20t-85.5 15q-89 12 -140 41q-31 16 -49 49.5t-18 71.5q0 78 63.5 124.5t170.5 46.5q178 0 227 -130l-148 -28q-23 44 -87 44q-26 0 -43.5 -7.5t-17.5 -19.5q0 -11 14 -19q14 -7 99 -17q98 -12 141 -41 q64 -44 64 -122q0 -83 -68.5 -130t-188.5 -47q-197 0 -249 151z" />
<glyph unicode="t" horiz-adv-x="371" d="M111 36q-35 35 -39 95q-1 13 -1 83v156h-74v127h83l13 159l170 6l-4 -165h99v-127h-99v-183q0 -29 10 -40t35 -11t54 8v-139q-63 -11 -112 -11q-93 0 -135 42z" />
<glyph unicode="u" horiz-adv-x="585" d="M51 142v355h195v-313q0 -30 8.5 -41.5t30.5 -11.5q26 0 41.5 18.5t15.5 49.5v298h192v-497h-180v82q-39 -92 -154 -92q-72 0 -110.5 39.5t-38.5 112.5z" />
<glyph unicode="v" horiz-adv-x="506" d="M182 0l-185 497h200l71 -211l9 -27q1 -3 1.5 -5.5t1 -4.5t2 -6t2.5 -8q5 18 7 22q6 18 6 19l73 221h140l-182 -497h-146z" />
<glyph unicode="w" horiz-adv-x="742" d="M167 0l-160 497h191l66 -243l62 243h144l62 -243l69 243h135l-157 -497h-141l-64 269l-68 -269h-139z" />
<glyph unicode="x" horiz-adv-x="553" d="M-7 0l174 263l-152 234h216l49 -88l5 -10l6 -9l7 -13l6 11l7 11l5 10l51 88h160l-145 -226l177 -271h-219l-91 158l-98 -158h-158z" />
<glyph unicode="y" horiz-adv-x="512" d="M29 -29q37 -6 69 -6q46 0 65.5 9t19.5 29q0 13 -8 33l-178 461h208l82 -265l86 265h142l-195 -539q-25 -70 -69.5 -100t-124.5 -30q-29 0 -97 5v138z" />
<glyph unicode="z" horiz-adv-x="471" d="M17 0v108l210 270q-32 -2 -52 -2h-141v121h413v-104l-213 -270l12 1h27h182v-124h-438z" />
<glyph unicode="{" horiz-adv-x="293" d="M51 -20v163q0 39 -12.5 57.5t-42.5 23.5v71q29 5 42 23q13 15 13 49v163q0 74 34.5 105.5t116.5 31.5q19 0 91 -2v-78q-9 1 -21 1q-53 0 -65.5 -10.5t-12.5 -55.5v-147q0 -58 -21 -87q-10 -14 -39 -33q34 -21 47 -47t13 -73v-145q0 -44 13 -54.5t66 -10.5h20v-80 q-25 0 -47 -0.5t-32.5 -1t-11.5 -0.5q-82 0 -116.5 31.5t-34.5 105.5z" />
<glyph unicode="|" horiz-adv-x="500" d="M181 -167v834h138v-834h-138z" />
<glyph unicode="}" horiz-adv-x="293" d="M0 -77q9 -1 21 -1q53 0 66 10.5t13 55.5v147q0 58 21 87q10 14 39 33q-34 21 -47 47t-13 73v145q0 44 -13 54.5t-66 10.5h-21v80q25 0 47.5 0.5t33 1t11.5 0.5q82 0 116.5 -31.5t34.5 -105.5v-163q0 -39 12.5 -57.5t41.5 -23.5v-71q-29 -6 -41 -23q-13 -15 -13 -49v-163 q0 -74 -34.5 -105.5t-116.5 -31.5q-19 0 -92 2v78z" />
<glyph unicode="~" d="M124 232l-74 50q31 79 65 110t87 31q35 0 105 -27q61 -23 84 -23t38 11t32 41l76 -47q-22 -48 -38 -70.5t-39 -38.5q-38 -27 -82 -27q-24 0 -100 27q-64 23 -84 23q-23 0 -37 -12t-33 -48z" />
<glyph unicode="&#xa1;" horiz-adv-x="315" d="M64 332v178h189v-178h-189zM41 -157l55 442h124l52 -442h-231z" />
<glyph unicode="&#xa2;" d="M145 162q-85 65 -85 190q0 120 80 191q44 37 113 53v99h93v-99q76 -12 123 -59t57 -121l-163 -13q-2 34 -17.5 53.5t-40.5 19.5q-62 0 -62 -121q0 -115 63 -115q51 0 63 67l157 -13q-12 -73 -59 -120t-121 -59v-126h-93v126q-67 15 -108 47z" />
<glyph unicode="&#xa3;" d="M18 0v143h29q44 0 68.5 23.5t24.5 64.5q0 30 -9 69h-84v118h64q-7 46 -7 73q0 85 60 137q76 65 185 65q89 0 152 -48q38 -30 62 -93l-148 -52q-14 32 -26 43.5t-34 11.5q-24 0 -39 -16t-15 -42q0 -29 10 -79h104v-118h-89q3 -98 -69 -157h82q44 0 67 28q14 14 22 55 l156 -31q-21 -94 -80.5 -144.5t-148.5 -50.5h-337z" />
<glyph unicode="&#xa4;" horiz-adv-x="667" d="M90 68l-70 70l103 103q-44 63 -44 137q0 72 44 137l-104 104l71 71l104 -104q67 44 140 44q71 0 137 -43l103 102l70 -70l-102 -102q45 -72 45 -139q0 -70 -43 -137l103 -103l-70 -70l-103 102q-67 -45 -142 -45q-69 0 -139 45zM333 241q56 0 96 40t40 97q0 56 -39.5 96 t-94.5 40q-58 0 -98 -39.5t-40 -97.5q0 -56 40 -96t96 -40z" />
<glyph unicode="&#xa5;" horiz-adv-x="586" d="M52 200v100h152l-24 47h-128v100h75l-117 220h191l117 -239l112 239h145l-108 -220h79v-100h-128l-22 -47h150v-100h-159v-200h-173v200h-162z" />
<glyph unicode="&#xa6;" horiz-adv-x="500" d="M181 318v349h138v-349h-138zM181 153h138v-320h-138v320z" />
<glyph unicode="&#xa7;" d="M57 -20l144 24q35 -63 109 -63q35 0 56.5 13.5t21.5 35.5q0 24 -33 44q-19 11 -100 42q-107 40 -147 80t-40 108q0 38 12.5 67t46.5 72q-48 44 -48 108q0 76 61.5 121t165.5 45q79 0 129.5 -28.5t82.5 -91.5l-121 -34q-27 55 -95 55q-28 0 -46 -10.5t-18 -26.5 q0 -24 36 -42q29 -13 81 -34q66 -27 85.5 -37.5t39.5 -30.5q45 -45 45 -113q0 -65 -55 -127q71 -49 71 -135q0 -85 -67 -137t-177 -52q-114 0 -180 60q-33 30 -60 87zM212 298q0 -20 18.5 -33.5t76.5 -35.5q4 -2 50 -20q29 22 29 44q0 24 -24.5 39.5t-122.5 53.5 q-27 -23 -27 -48z" />
<glyph unicode="&#xa8;" horiz-adv-x="500" d="M338 580q-27 0 -46 19t-19 46q0 26 19 45t45 19q27 0 46 -19t19 -46q0 -26 -19 -45t-45 -19zM162 580q-27 0 -46 19t-19 46q0 26 19 45t45 19q27 0 46 -19t19 -47q0 -26 -19 -44.5t-45 -18.5z" />
<glyph unicode="&#xa9;" horiz-adv-x="773" d="M43 334q0 142 100.5 242.5t242.5 100.5q144 0 244 -101t100 -247q0 -139 -101.5 -239t-241.5 -100q-143 0 -243.5 101t-100.5 243zM123 334q0 -110 77.5 -188.5t186.5 -78.5q107 0 185 78t78 185q0 113 -77 191.5t-187 78.5q-109 0 -186 -78t-77 -188zM197 330 q0 97 52 153t142 56q117 0 160 -91q13 -27 18 -73l-129 -7q-2 75 -48 75q-54 0 -54 -115q0 -104 54 -104q44 0 50 63l1 3l126 -7q-8 -55 -26 -82q-49 -74 -153 -74q-88 0 -140.5 55t-52.5 148z" />
<glyph unicode="&#xaa;" horiz-adv-x="384" d="M134 368q-50 0 -82 25t-32 65q0 100 201 110q1 24 -5.5 31.5t-26.5 7.5q-37 0 -43 -29l-1 -3l-118 10q10 31 24 47q42 48 143 48q98 0 135 -42q11 -14 15 -30.5t4 -55.5v-117q0 -33 11 -61h-127q-4 24 -4 31l-3 -3q-34 -34 -91 -34zM180 441q32 0 41 25q4 16 4 48 q-3 0 -5 -1h-3q-65 -8 -65 -46q0 -26 28 -26z" />
<glyph unicode="&#xab;" horiz-adv-x="376" d="M271 107l-85 133l85 143h69l-52 -143l52 -133h-69zM117 107l-87 133l87 143h69l-52 -143l52 -133h-69z" />
<glyph unicode="&#xac;" d="M77 147v123h433v-270h-137v147h-296z" />
<glyph unicode="&#xad;" horiz-adv-x="275" d="M14 175v153h247v-153h-247z" />
<glyph unicode="&#xae;" horiz-adv-x="773" d="M43 334q0 142 100.5 242.5t242.5 100.5q144 0 244 -101t100 -247q0 -139 -101.5 -239t-241.5 -100q-143 0 -243.5 101t-100.5 243zM123 334q0 -110 77.5 -188.5t186.5 -78.5q107 0 185 78t78 185q0 113 -77 191.5t-187 78.5q-109 0 -186 -78t-77 -188zM216 147v373h197 q65 0 102.5 -30.5t37.5 -83.5q0 -34 -15 -57t-50 -40l68 -162h-134l-54 142h-31v-142h-121zM337 369h44q46 0 46 35t-42 35h-48v-70z" />
<glyph unicode="&#xaf;" horiz-adv-x="500" d="M92 590v75h316v-75h-316z" />
<glyph unicode="&#xb0;" d="M292 384q-60 0 -103.5 43.5t-43.5 103.5q0 61 43.5 104t104.5 43q62 0 105.5 -43t43.5 -104q0 -62 -43.5 -104.5t-106.5 -42.5zM293 463q29 0 48.5 19.5t19.5 48.5q0 28 -20 48t-48 20t-47.5 -20t-19.5 -48t20 -48t47 -20z" />
<glyph unicode="&#xb1;" d="M231 107v178h-181v124h181v177h125v-177h180v-124h-180v-178h-125zM50 -59v124h486v-124h-486z" />
<glyph unicode="&#xb2;" horiz-adv-x="387" d="M19 267v95l75 48q53 33 100 76q30 26 30 54q0 17 -11 28t-29 11q-46 0 -50 -69l-115 21q11 67 54 102q49 40 121 40t117 -35.5t45 -93.5q0 -36 -17.5 -63.5t-60.5 -58.5q-16 -12 -81 -53h162l-5 -102h-335z" />
<glyph unicode="&#xb3;" horiz-adv-x="387" d="M194 261q-154 0 -187 131l118 14q12 -54 62 -54q23 0 37 11t14 28q0 40 -55 40h-55v81h47q28 0 40.5 8t12.5 27q0 16 -12 25.5t-31 9.5q-43 0 -52 -45l-111 15q16 58 61 89.5t113 31.5q72 0 116 -31.5t44 -82.5q0 -28 -16 -50.5t-43 -32.5q72 -24 72 -93q0 -57 -47 -89.5 t-128 -32.5z" />
<glyph unicode="&#xb4;" horiz-adv-x="500" d="M167 567l-26 67l223 109l36 -95z" />
<glyph unicode="&#xb5;" d="M48 -167v660h195v-251q0 -68 6 -94q8 -36 44 -36q29 0 41 26q4 8 5.5 13t2.5 25.5t1 65.5v251h195v-493h-151l-7 73q-9 -46 -25.5 -64.5t-48.5 -18.5q-26 0 -41 13.5t-29 50.5v-221h-188z" />
<glyph unicode="&#xb6;" d="M302 -157v475h-42q-89 0 -109.5 1t-44.5 8q-50 14 -79 59t-29 109q0 60 27.5 102t76.5 57q44 13 162 13h325v-77h-67v-747h-74v747h-69v-747h-77zM210 413q21 -18 82 -18h10v195q-46 0 -62.5 -3.5t-30.5 -15.5q-25 -23 -25 -78q0 -56 26 -80z" />
<glyph unicode="&#xb7;" horiz-adv-x="185" d="M0 163v178h185v-178h-185z" />
<glyph unicode="&#xb8;" horiz-adv-x="500" d="M148 -133q41 -22 76 -22q39 0 39 32q0 18 -17 28.5t-46 10.5q-8 0 -13 -1l32 85h55l-18 -49q7 1 17 1q32 0 52.5 -21t20.5 -54q0 -38 -28.5 -60t-77.5 -22q-53 0 -111 32z" />
<glyph unicode="&#xb9;" horiz-adv-x="387" d="M54 267v93h94v181q-57 -22 -95 -28v94q96 19 126 66h98v-313h89v-93h-312z" />
<glyph unicode="&#xba;" horiz-adv-x="389" d="M192 369q-74 0 -123 44t-49 111q0 68 49 112t125 44q77 0 125.5 -43.5t48.5 -113.5q0 -67 -50 -110.5t-126 -43.5zM194 445q19 0 27 19t8 63q0 40 -8 57t-27 17q-35 0 -35 -77q0 -43 8 -61t27 -18z" />
<glyph unicode="&#xbb;" horiz-adv-x="376" d="M191 107l52 143l-52 133h69l87 -133l-87 -143h-69zM37 107l52 143l-52 133h69l85 -133l-85 -143h-69z" />
<glyph unicode="&#xbc;" horiz-adv-x="880" d="M9 267v93h94v181q-57 -22 -95 -28v94q96 19 126 66h98v-313h69v-93h-292zM165 0l408 667h103l-405 -667h-106zM508 87v89l165 230h137v-228h62v-91h-62v-87h-121v87h-181zM596 168h103v145z" />
<glyph unicode="&#xbd;" horiz-adv-x="880" d="M16 267v93h94v181q-57 -22 -95 -28v94q96 19 126 66h98v-313h76v-93h-299zM179 0l407 667h103l-405 -667h-105zM525 0v95l75 48q53 33 100 76q30 25 30 54q0 17 -11 28t-29 11q-46 0 -50 -69l-115 21q12 67 54 102q49 40 121 40t117 -35.5t45 -93.5q0 -36 -17.5 -63.5 t-60.5 -58.5q-16 -12 -81 -53h162l-5 -102h-335z" />
<glyph unicode="&#xbe;" horiz-adv-x="880" d="M185 261q-154 0 -187 131l118 14q12 -54 62 -54q23 0 37 11t14 28q0 40 -55 40h-55v81h47q28 0 40.5 8t12.5 27q0 16 -12 25.5t-31 9.5q-43 0 -52 -45l-111 15q16 58 61 89.5t113 31.5q72 0 116 -31.5t44 -82.5q0 -28 -16 -50.5t-43 -32.5q72 -24 72 -93q0 -57 -47 -89.5 t-128 -32.5zM207 0l408 667h103l-405 -667h-106zM517 87v89l165 230h137v-228h61v-91h-61v-87h-121v87h-181zM605 168h103v145z" />
<glyph unicode="&#xbf;" horiz-adv-x="546" d="M177 332v178h187v-178h-187zM26 41q0 80 54 132q16 16 58 47q35 25 44 36.5t13 33.5h163q0 -62 -12 -88.5t-56 -64.5q-34 -30 -47 -53t-13 -52t15.5 -46t40.5 -17q55 0 68 68q3 21 3 45l180 -20q-15 -71 -37 -110q-68 -119 -230 -119q-108 0 -176 58t-68 150z" />
<glyph unicode="&#xc0;" horiz-adv-x="634" d="M129 801l34 96l225 -103l-26 -67zM0 0l206 667h216l209 -667h-209l-37 131h-179l-40 -131h-166zM241 276h108l-54 194z" />
<glyph unicode="&#xc1;" horiz-adv-x="634" d="M268 727l-26 67l225 103l34 -96zM0 0l206 667h216l209 -667h-209l-37 131h-179l-40 -131h-166zM241 276h108l-54 194z" />
<glyph unicode="&#xc2;" horiz-adv-x="634" d="M122 743l196 149l196 -149l-113 -10l-83 57l-83 -57zM0 0l206 667h216l209 -667h-209l-37 131h-179l-40 -131h-166zM241 276h108l-54 194z" />
<glyph unicode="&#xc3;" horiz-adv-x="634" d="M194 739l-48 57q61 62 114 62q28 0 66 -19q41 -21 59 -21q29 0 71 38l49 -57q-61 -62 -119 -62q-21 0 -35 5t-56 26q-17 9 -35 9q-32 0 -66 -38zM0 0l206 667h216l209 -667h-209l-37 131h-179l-40 -131h-166zM241 276h108l-54 194z" />
<glyph unicode="&#xc4;" horiz-adv-x="634" d="M409 738q-27 0 -46 19t-19 46q0 26 19 45t45 19q27 0 46 -19t19 -46q0 -26 -19 -45t-45 -19zM226 738q-27 0 -46 19t-19 46q0 26 19 45t45 19q27 0 46 -19t19 -47q0 -26 -19 -44.5t-45 -18.5zM0 0l206 667h216l209 -667h-209l-37 131h-179l-40 -131h-166zM241 276h108 l-54 194z" />
<glyph unicode="&#xc5;" horiz-adv-x="634" d="M314 717q-40 0 -69 28.5t-29 69.5t29 69.5t69 28.5q42 0 70.5 -29t28.5 -70q0 -40 -29 -68.5t-70 -28.5zM315 780q13 0 23.5 10t10.5 24t-10 24t-24 10t-24 -10t-10 -24t10 -24t24 -10zM0 0l206 667h216l209 -667h-209l-37 131h-179l-40 -131h-166zM241 276h108l-54 194z " />
<glyph unicode="&#xc6;" horiz-adv-x="911" d="M-13 0l298 667h596v-154h-297v-98h240v-149h-240v-108h304v-158h-506v138h-159l-62 -138h-174zM277 277h105v236z" />
<glyph unicode="&#xc7;" horiz-adv-x="628" d="M120 71q-92 90 -92 257q0 171 93 269q77 80 212 80q168 0 239 -129q31 -57 39 -139l-190 -10q-1 49 -14 77q-10 23 -30 36.5t-43 13.5q-25 0 -46 -16.5t-32 -45.5q-18 -47 -18 -137q0 -96 23 -139.5t73 -43.5q81 0 90 111l187 -12q-10 -112 -81.5 -180t-184.5 -73 l-15 -41h17q34 0 55.5 -21.5t21.5 -55.5q0 -40 -30 -63t-80 -23q-56 0 -116 34l19 41q43 -23 80 -23q41 0 41 33q0 19 -18 30t-49 11q-7 0 -14 -1l31 81l-7 1l-23 4q-34 6 -72.5 26.5t-65.5 47.5z" />
<glyph unicode="&#xc8;" horiz-adv-x="583" d="M357 727l-233 74l34 96l225 -103zM58 0v667h501v-154h-300v-97h243v-148h-243v-109h300v-159h-501z" />
<glyph unicode="&#xc9;" horiz-adv-x="583" d="M272 727l-26 67l225 103l34 -96zM58 0v667h501v-154h-300v-97h243v-148h-243v-109h300v-159h-501z" />
<glyph unicode="&#xca;" horiz-adv-x="583" d="M119 743l196 149l196 -149l-113 -10l-83 57l-83 -57zM58 0v667h501v-154h-300v-97h243v-148h-243v-109h300v-159h-501z" />
<glyph unicode="&#xcb;" horiz-adv-x="583" d="M407 738q-27 0 -46 19t-19 46q0 26 19 45t45 19q27 0 46 -19t19 -46q0 -26 -19 -45t-45 -19zM224 738q-27 0 -46 19t-19 46q0 26 19 45t45 19q27 0 46 -19t19 -47q0 -26 -19 -44.5t-45 -18.5zM58 0v667h501v-154h-300v-97h243v-148h-243v-109h300v-159h-501z" />
<glyph unicode="&#xcc;" horiz-adv-x="321" d="M210 727l-213 74l36 96l203 -103zM58 0v667h205v-667h-205z" />
<glyph unicode="&#xcd;" horiz-adv-x="321" d="M126 727l-26 67l203 103l36 -96zM58 0v667h205v-667h-205z" />
<glyph unicode="&#xce;" horiz-adv-x="321" d="M108 733l-110 10l169 149l170 -149l-110 -10l-60 55zM58 0v667h205v-667h-205z" />
<glyph unicode="&#xcf;" horiz-adv-x="321" d="M247 738q-27 0 -46 19t-19 46q0 26 19 45t45 19q27 0 46 -19t19 -46q0 -26 -19 -45t-45 -19zM88 738q-27 0 -46 19t-19 46q0 26 19 45t45 19q27 0 46 -19t19 -47q0 -26 -19 -44.5t-45 -18.5zM58 0v667h205v-667h-205z" />
<glyph unicode="&#xd0;" horiz-adv-x="679" d="M58 0v293h-55v98h55v276h258q158 0 246 -94q89 -95 89 -239q0 -148 -90 -241t-232 -93h-271zM263 153h53q53 0 87 50.5t34 130.5q0 72 -30 127q-31 55 -91 55h-53v-125h95v-98h-95v-140z" />
<glyph unicode="&#xd1;" horiz-adv-x="686" d="M222 739l-48 57q61 62 114 62q28 0 66 -19q41 -21 59 -21q29 0 71 38l49 -57q-61 -62 -119 -62q-21 0 -35 5t-56 26q-17 9 -35 9q-32 0 -66 -38zM58 0v667h193l155 -244q46 -72 71 -129q-16 89 -16 175v198h167v-667h-167l-182 294l-9 15.5t-10.5 19t-8.5 15.5 q-17 30 -43 88q16 -71 16 -109v-323h-166z" />
<glyph unicode="&#xd2;" horiz-adv-x="691" d="M165 801l34 96l225 -103l-26 -67zM28 333q0 155 87.5 249.5t231.5 94.5q139 0 225 -89q90 -94 90 -253q0 -153 -88 -249t-228 -96q-143 0 -230.5 94.5t-87.5 248.5zM345 141q38 0 59.5 24t29.5 75q8 54 8 111q0 175 -94 175q-100 0 -100 -199q0 -186 97 -186z" />
<glyph unicode="&#xd3;" horiz-adv-x="691" d="M309 727l-26 67l225 103l34 -96zM28 333q0 155 87.5 249.5t231.5 94.5q139 0 225 -89q90 -94 90 -253q0 -153 -88 -249t-228 -96q-143 0 -230.5 94.5t-87.5 248.5zM345 141q38 0 59.5 24t29.5 75q8 54 8 111q0 175 -94 175q-100 0 -100 -199q0 -186 97 -186z" />
<glyph unicode="&#xd4;" horiz-adv-x="691" d="M156 743l196 149l196 -149l-113 -10l-83 57l-83 -57zM28 333q0 155 87.5 249.5t231.5 94.5q139 0 225 -89q90 -94 90 -253q0 -153 -88 -249t-228 -96q-143 0 -230.5 94.5t-87.5 248.5zM345 141q38 0 59.5 24t29.5 75q8 54 8 111q0 175 -94 175q-100 0 -100 -199 q0 -186 97 -186z" />
<glyph unicode="&#xd5;" horiz-adv-x="691" d="M230 739l-48 57q61 62 114 62q28 0 66 -19q41 -21 59 -21q29 0 71 38l49 -57q-61 -62 -119 -62q-21 0 -35 5t-56 26q-17 9 -35 9q-32 0 -66 -38zM28 333q0 155 87.5 249.5t231.5 94.5q139 0 225 -89q90 -94 90 -253q0 -153 -88 -249t-228 -96q-143 0 -230.5 94.5 t-87.5 248.5zM345 141q38 0 59.5 24t29.5 75q8 54 8 111q0 175 -94 175q-100 0 -100 -199q0 -186 97 -186z" />
<glyph unicode="&#xd6;" horiz-adv-x="691" d="M443 738q-27 0 -46 19t-19 46q0 26 19 45t45 19q27 0 46 -19t19 -46q0 -26 -19 -45t-45 -19zM260 738q-27 0 -46 19t-19 46q0 26 19 45t45 19q27 0 46 -19t19 -47q0 -26 -19 -44.5t-45 -18.5zM28 333q0 155 87.5 249.5t231.5 94.5q139 0 225 -89q90 -94 90 -253 q0 -153 -88 -249t-228 -96q-143 0 -230.5 94.5t-87.5 248.5zM345 141q38 0 59.5 24t29.5 75q8 54 8 111q0 175 -94 175q-100 0 -100 -199q0 -186 97 -186z" />
<glyph unicode="&#xd7;" d="M156 116l-88 88l137 137l-137 137l88 88l137 -137l137 137l88 -88l-137 -137l137 -137l-88 -88l-137 137z" />
<glyph unicode="&#xd8;" horiz-adv-x="691" d="M56 -55l72 127q-100 101 -100 263q0 163 98 258q87 84 226 84q65 0 134 -27l43 72h103l-70 -124q54 -54 77 -113.5t23 -143.5q0 -158 -87 -254.5t-230 -96.5q-70 0 -140 30l-44 -75h-105zM251 258l142 254q-21 14 -45 14q-103 0 -103 -198q0 -32 6 -70zM294 158 q22 -16 51 -16q68 0 86 73q14 51 14 139q0 21 -4 61z" />
<glyph unicode="&#xd9;" horiz-adv-x="650" d="M157 801l34 96l225 -103l-26 -67zM110 57q-59 53 -59 158v452h208v-428q0 -49 17 -66q23 -26 68 -26q58 0 82 37q8 12 9.5 26.5t1.5 65.5v391h161v-442q0 -110 -59 -166q-73 -69 -209 -69q-144 0 -220 67z" />
<glyph unicode="&#xda;" horiz-adv-x="650" d="M292 727l-26 67l225 103l34 -96zM110 57q-59 53 -59 158v452h208v-428q0 -49 17 -66q23 -26 68 -26q58 0 82 37q8 12 9.5 26.5t1.5 65.5v391h161v-442q0 -110 -59 -166q-73 -69 -209 -69q-144 0 -220 67z" />
<glyph unicode="&#xdb;" horiz-adv-x="650" d="M152 743l196 149l196 -149l-113 -10l-83 57l-83 -57zM110 57q-59 53 -59 158v452h208v-428q0 -49 17 -66q23 -26 68 -26q58 0 82 37q8 12 9.5 26.5t1.5 65.5v391h161v-442q0 -110 -59 -166q-73 -69 -209 -69q-144 0 -220 67z" />
<glyph unicode="&#xdc;" horiz-adv-x="650" d="M436 738q-27 0 -46 19t-19 46q0 26 19 45t45 19q27 0 46 -19t19 -46q0 -26 -19 -45t-45 -19zM253 738q-27 0 -46 19t-19 46q0 26 19 45t45 19q27 0 46 -19t19 -47q0 -26 -19 -44.5t-45 -18.5zM110 57q-59 53 -59 158v452h208v-428q0 -49 17 -66q23 -26 68 -26q58 0 82 37 q8 12 9.5 26.5t1.5 65.5v391h161v-442q0 -110 -59 -166q-73 -69 -209 -69q-144 0 -220 67z" />
<glyph unicode="&#xdd;" horiz-adv-x="591" d="M267 727l-26 67l225 103l34 -96zM204 0v282l-224 385h224l116 -219l112 219h179l-208 -385v-282h-199z" />
<glyph unicode="&#xde;" horiz-adv-x="650" d="M58 0v667h207v-94h77q77 0 124.5 -12t84.5 -41q74 -60 74 -159q0 -95 -67 -153.5t-177 -58.5h-116v-149h-207zM263 292h68q91 0 91 65q0 63 -85 63h-74v-128z" />
<glyph unicode="&#xdf;" horiz-adv-x="644" d="M57 -63v397h-36v122h36q5 67 18.5 105.5t43.5 72.5q75 86 218 86q99 0 157.5 -42.5t58.5 -114.5q0 -57 -41 -97.5t-111 -51.5q-7 0 -7 -2q0 -3 69 -32q165 -68 165 -200q0 -86 -64.5 -141.5t-164.5 -55.5q-71 0 -121 17l43 133q31 -20 68 -20q31 0 49 12t18 33 q0 20 -12 32t-55 35q-61 32 -83 52q-40 34 -40 85q0 68 51 132q2 -1 5 -1q24 -1 40 13t16 36t-16 36.5t-41 14.5q-81 0 -81 -109v-547h-183z" />
<glyph unicode="&#xe0;" d="M129 648l36 95l223 -109l-26 -67zM25 138q0 52 33.5 93t90.5 60q81 26 201 32v12q0 29 -13.5 41.5t-45.5 12.5q-66 0 -75 -54l-177 16q18 69 69 106q72 50 189 50q156 0 211 -69q18 -22 23.5 -49.5t5.5 -93.5v-198q0 -54 15 -97h-185q-7 36 -7 69q-57 -79 -160 -79 q-78 0 -126.5 41t-48.5 107zM226 153q0 -21 13 -33t36 -12q40 0 57.5 23.5t17.5 77.5v23q-124 -13 -124 -79z" />
<glyph unicode="&#xe1;" d="M246 567l-26 67l223 109l36 -95zM25 138q0 52 33.5 93t90.5 60q81 26 201 32v12q0 29 -13.5 41.5t-45.5 12.5q-66 0 -75 -54l-177 16q18 69 69 106q72 50 189 50q156 0 211 -69q18 -22 23.5 -49.5t5.5 -93.5v-198q0 -54 15 -97h-185q-7 36 -7 69q-57 -79 -160 -79 q-78 0 -126.5 41t-48.5 107zM226 153q0 -21 13 -33t36 -12q40 0 57.5 23.5t17.5 77.5v23q-124 -13 -124 -79z" />
<glyph unicode="&#xe2;" d="M102 583l196 156l196 -156l-113 -10l-83 64l-83 -64zM25 138q0 52 33.5 93t90.5 60q81 26 201 32v12q0 29 -13.5 41.5t-45.5 12.5q-66 0 -75 -54l-177 16q18 69 69 106q72 50 189 50q156 0 211 -69q18 -22 23.5 -49.5t5.5 -93.5v-198q0 -54 15 -97h-185q-7 36 -7 69 q-57 -79 -160 -79q-78 0 -126.5 41t-48.5 107zM226 153q0 -21 13 -33t36 -12q40 0 57.5 23.5t17.5 77.5v23q-124 -13 -124 -79z" />
<glyph unicode="&#xe3;" d="M184 580l-48 58q62 62 114 62q28 0 66 -20q41 -21 59 -21q28 0 71 39l49 -57q-60 -63 -119 -63q-21 0 -35.5 5t-55.5 27q-17 9 -35 9q-33 0 -66 -39zM25 138q0 52 33.5 93t90.5 60q81 26 201 32v12q0 29 -13.5 41.5t-45.5 12.5q-66 0 -75 -54l-177 16q18 69 69 106 q72 50 189 50q156 0 211 -69q18 -22 23.5 -49.5t5.5 -93.5v-198q0 -54 15 -97h-185q-7 36 -7 69q-57 -79 -160 -79q-78 0 -126.5 41t-48.5 107zM226 153q0 -21 13 -33t36 -12q40 0 57.5 23.5t17.5 77.5v23q-124 -13 -124 -79z" />
<glyph unicode="&#xe4;" d="M398 580q-27 0 -46 19t-19 46q0 26 19 45t45 19q27 0 46 -19t19 -46q0 -26 -19 -45t-45 -19zM222 580q-27 0 -46 19t-19 46q0 26 19 45t45 19q27 0 46 -19t19 -47q0 -26 -19 -44.5t-45 -18.5zM25 138q0 52 33.5 93t90.5 60q81 26 201 32v12q0 29 -13.5 41.5t-45.5 12.5 q-66 0 -75 -54l-177 16q18 69 69 106q72 50 189 50q156 0 211 -69q18 -22 23.5 -49.5t5.5 -93.5v-198q0 -54 15 -97h-185q-7 36 -7 69q-57 -79 -160 -79q-78 0 -126.5 41t-48.5 107zM226 153q0 -21 13 -33t36 -12q40 0 57.5 23.5t17.5 77.5v23q-124 -13 -124 -79z" />
<glyph unicode="&#xe5;" d="M294 560q-40 0 -69 29t-29 69t29 69t69 29q42 0 70.5 -29t28.5 -70q0 -40 -29 -68.5t-70 -28.5zM295 621q14 0 25 11t11 26q0 16 -10.5 26.5t-26.5 10.5q-15 0 -25.5 -11t-10.5 -26t11 -26t26 -11zM25 138q0 52 33.5 93t90.5 60q81 26 201 32v12q0 29 -13.5 41.5 t-45.5 12.5q-66 0 -75 -54l-177 16q18 69 69 106q72 50 189 50q156 0 211 -69q18 -22 23.5 -49.5t5.5 -93.5v-198q0 -54 15 -97h-185q-7 36 -7 69q-57 -79 -160 -79q-78 0 -126.5 41t-48.5 107zM226 153q0 -21 13 -33t36 -12q40 0 57.5 23.5t17.5 77.5v23q-124 -13 -124 -79 z" />
<glyph unicode="&#xe6;" horiz-adv-x="794" d="M25 138q0 116 127 159q48 17 165 29v15q0 48 -51 48q-54 0 -65 -54l-165 17q19 75 71 110q66 45 168 45q76 0 132 -34q60 34 125 34q107 0 172.5 -70.5t65.5 -186.5q0 -5 -2 -37h-296q3 -51 19 -72t51 -21q58 0 66 60l160 -12q-16 -70 -60 -114q-67 -64 -168 -64 q-59 0 -101.5 19t-85.5 65q-26 -32 -46 -46q-51 -38 -125 -38q-71 0 -114 40.5t-43 107.5zM472 310h126q-2 85 -62 85q-19 0 -34.5 -10t-22.5 -27q-7 -16 -7 -48zM210 154q0 -20 12 -33t31 -13q15 0 30.5 8.5t22.5 21.5q13 21 13 68q0 15 -2 28q-4 0 -8 -1q-99 -17 -99 -79z " />
<glyph unicode="&#xe7;" horiz-adv-x="523" d="M139 26q-54 35 -84 92t-30 127q0 116 71.5 189t186.5 73q104 0 171 -67q48 -49 60 -130l-170 -15q-5 30 -10 43q-13 36 -50 36q-32 0 -46 -30t-14 -98q0 -63 15 -91t48 -28q53 0 63 73l166 -14q-11 -87 -70.5 -140t-149.5 -56l-14 -39h17q32 0 52.5 -21t20.5 -53 q0 -38 -28.5 -60t-77.5 -22q-53 0 -111 32l19 40q43 -22 75 -22q40 0 40 32q0 18 -17 28.5t-46 10.5q-8 0 -14 -1l30 77q-61 7 -103 34z" />
<glyph unicode="&#xe8;" d="M128 648l36 95l223 -109l-26 -67zM25 242q0 54 21 105.5t56 86.5q75 73 196 73q119 0 191.5 -73.5t72.5 -195.5q0 -17 -1 -29h-332q0 -48 14 -66q20 -26 62 -26q33 0 50 13.5t25 47.5l181 -12q-19 -82 -88 -129t-170 -47q-124 0 -201 70t-77 182zM228 307h139 q-2 45 -18 65t-51 20q-70 0 -70 -85z" />
<glyph unicode="&#xe9;" d="M252 567l-26 67l223 109l36 -95zM25 242q0 54 21 105.5t56 86.5q75 73 196 73q119 0 191.5 -73.5t72.5 -195.5q0 -17 -1 -29h-332q0 -48 14 -66q20 -26 62 -26q33 0 50 13.5t25 47.5l181 -12q-19 -82 -88 -129t-170 -47q-124 0 -201 70t-77 182zM228 307h139 q-2 45 -18 65t-51 20q-70 0 -70 -85z" />
<glyph unicode="&#xea;" d="M110 583l196 156l196 -156l-113 -10l-83 64l-83 -64zM25 242q0 54 21 105.5t56 86.5q75 73 196 73q119 0 191.5 -73.5t72.5 -195.5q0 -17 -1 -29h-332q0 -48 14 -66q20 -26 62 -26q33 0 50 13.5t25 47.5l181 -12q-19 -82 -88 -129t-170 -47q-124 0 -201 70t-77 182z M228 307h139q-2 45 -18 65t-51 20q-70 0 -70 -85z" />
<glyph unicode="&#xeb;" d="M395 580q-27 0 -46 19t-19 46q0 26 19 45t45 19q27 0 46 -19t19 -46q0 -26 -19 -45t-45 -19zM219 580q-27 0 -46 19t-19 46q0 26 19 45t45 19q27 0 46 -19t19 -47q0 -26 -19 -44.5t-45 -18.5zM25 242q0 54 21 105.5t56 86.5q75 73 196 73q119 0 191.5 -73.5t72.5 -195.5 q0 -17 -1 -29h-332q0 -48 14 -66q20 -26 62 -26q33 0 50 13.5t25 47.5l181 -12q-19 -82 -88 -129t-170 -47q-124 0 -201 70t-77 182zM228 307h139q-2 45 -18 65t-51 20q-70 0 -70 -85z" />
<glyph unicode="&#xec;" horiz-adv-x="297" d="M191 567l-207 81l36 95l196 -109zM52 0v497h195v-497h-195z" />
<glyph unicode="&#xed;" horiz-adv-x="297" d="M109 567l-26 67l197 109l35 -95zM51 0v497h195v-497h-195z" />
<glyph unicode="&#xee;" horiz-adv-x="297" d="M92 573l-103 10l166 156l166 -156l-103 -10l-63 62zM51 0v497h195v-497h-195z" />
<glyph unicode="&#xef;" horiz-adv-x="297" d="M236 580q-27 0 -46 19t-19 46q0 26 19 45t45 19q27 0 46 -19t19 -46q0 -26 -19 -45t-45 -19zM76 580q-27 0 -46 19t-19 46q0 26 19 45t45 19q27 0 46 -19t19 -47q0 -26 -19 -44.5t-45 -18.5zM52 0v497h195v-497h-195z" />
<glyph unicode="&#xf0;" horiz-adv-x="594" d="M97 71q-70 76 -70 177t69.5 173.5t166.5 72.5q59 0 101 -30q-19 60 -58 105l-98 -44l-29 59l73 33q-22 18 -86 35l34 59q71 -14 150 -47l104 47l33 -62l-70 -31q71 -55 111.5 -146.5t40.5 -194.5q0 -135 -71.5 -211t-198.5 -76t-202 81zM297 108q34 0 49.5 32t15.5 102 q0 69 -16 101t-50 32t-49 -31t-15 -100q0 -73 15 -104.5t50 -31.5z" />
<glyph unicode="&#xf1;" d="M175 582l-48 58q62 62 114 62q28 0 66 -20q41 -21 59 -21q28 0 71 39l49 -57q-60 -63 -119 -63q-21 0 -35.5 5t-55.5 27q-16 9 -35 9q-33 0 -66 -39zM51 0v497h181v-70q21 35 43 52q38 28 102 28q72 0 119 -42q24 -23 32 -52t8 -95v-318h-195v313q0 32 -9.5 46t-31.5 14 q-54 0 -54 -74v-299h-195z" />
<glyph unicode="&#xf2;" horiz-adv-x="594" d="M122 648l36 95l223 -109l-26 -67zM25 247q0 113 77 186.5t196 73.5q122 0 197 -72t75 -188q0 -112 -77.5 -184.5t-198.5 -72.5q-117 0 -193 72.5t-76 184.5zM296 108q41 0 53 33q14 42 14 111q0 72 -15 102.5t-50 30.5t-50.5 -32.5t-15.5 -104.5q0 -76 14.5 -108 t49.5 -32z" />
<glyph unicode="&#xf3;" horiz-adv-x="594" d="M254 567l-26 67l223 109l36 -95zM25 247q0 113 77 186.5t196 73.5q122 0 197 -72t75 -188q0 -112 -77.5 -184.5t-198.5 -72.5q-117 0 -193 72.5t-76 184.5zM296 108q41 0 53 33q14 42 14 111q0 72 -15 102.5t-50 30.5t-50.5 -32.5t-15.5 -104.5q0 -76 14.5 -108t49.5 -32 z" />
<glyph unicode="&#xf4;" horiz-adv-x="594" d="M108 583l196 156l196 -156l-113 -10l-83 64l-83 -64zM25 247q0 113 77 186.5t196 73.5q122 0 197 -72t75 -188q0 -112 -77.5 -184.5t-198.5 -72.5q-117 0 -193 72.5t-76 184.5zM296 108q41 0 53 33q14 42 14 111q0 72 -15 102.5t-50 30.5t-50.5 -32.5t-15.5 -104.5 q0 -76 14.5 -108t49.5 -32z" />
<glyph unicode="&#xf5;" horiz-adv-x="594" d="M183 582l-48 58q62 62 114 62q28 0 66 -20q41 -21 59 -21q28 0 71 39l49 -57q-60 -63 -119 -63q-21 0 -35.5 5t-55.5 27q-16 9 -35 9q-33 0 -66 -39zM25 247q0 113 77 186.5t196 73.5q122 0 197 -72t75 -188q0 -112 -77.5 -184.5t-198.5 -72.5q-117 0 -193 72.5 t-76 184.5zM296 108q41 0 53 33q14 42 14 111q0 72 -15 102.5t-50 30.5t-50.5 -32.5t-15.5 -104.5q0 -76 14.5 -108t49.5 -32z" />
<glyph unicode="&#xf6;" horiz-adv-x="594" d="M392 580q-27 0 -46 19t-19 46q0 26 19 45t45 19q27 0 46 -19t19 -46q0 -26 -19 -45t-45 -19zM216 580q-27 0 -46 19t-19 46q0 26 19 45t45 19q27 0 46 -19t19 -47q0 -26 -19 -44.5t-45 -18.5zM25 247q0 113 77 186.5t196 73.5q122 0 197 -72t75 -188q0 -112 -77.5 -184.5 t-198.5 -72.5q-117 0 -193 72.5t-76 184.5zM296 108q41 0 53 33q14 42 14 111q0 72 -15 102.5t-50 30.5t-50.5 -32.5t-15.5 -104.5q0 -76 14.5 -108t49.5 -32z" />
<glyph unicode="&#xf7;" d="M291 438q-33 0 -56.5 23t-23.5 55t23.5 55t56.5 23q31 0 53.5 -23.5t22.5 -55.5t-22 -54.5t-54 -22.5zM50 275v124h486v-124h-486zM211 158q0 32 23.5 55t56.5 23q31 0 53.5 -23.5t22.5 -55.5t-22 -54.5t-54 -22.5q-33 0 -56.5 23t-23.5 55z" />
<glyph unicode="&#xf8;" horiz-adv-x="594" d="M53 -53l64 102q-92 80 -92 199q0 114 77 186.5t198 72.5q50 0 107 -18l44 62h91l-68 -98q96 -80 96 -205q0 -114 -77.5 -186t-200.5 -72q-54 0 -107 19l-42 -62h-90zM230 197l109 175q-17 13 -41 13q-50 0 -61 -52q-9 -39 -9 -88q0 -2 2 -48zM254 123q16 -15 43 -15 q43 0 57 38q13 37 13 111q0 14 -3 47z" />
<glyph unicode="&#xf9;" horiz-adv-x="585" d="M114 648l36 95l223 -109l-26 -67zM51 142v355h195v-313q0 -30 8.5 -41.5t30.5 -11.5q26 0 41.5 18.5t15.5 49.5v298h192v-497h-180v82q-39 -92 -154 -92q-72 0 -110.5 39.5t-38.5 112.5z" />
<glyph unicode="&#xfa;" horiz-adv-x="585" d="M249 567l-26 67l223 109l36 -95zM51 142v355h195v-313q0 -30 8.5 -41.5t30.5 -11.5q26 0 41.5 18.5t15.5 49.5v298h192v-497h-180v82q-39 -92 -154 -92q-72 0 -110.5 39.5t-38.5 112.5z" />
<glyph unicode="&#xfb;" horiz-adv-x="585" d="M103 583l196 156l196 -156l-113 -10l-83 64l-83 -64zM51 142v355h195v-313q0 -30 8.5 -41.5t30.5 -11.5q26 0 41.5 18.5t15.5 49.5v298h192v-497h-180v82q-39 -92 -154 -92q-72 0 -110.5 39.5t-38.5 112.5z" />
<glyph unicode="&#xfc;" horiz-adv-x="585" d="M384 580q-27 0 -46 19t-19 46q0 26 19 45t45 19q27 0 46 -19t19 -46q0 -26 -19 -45t-45 -19zM208 580q-27 0 -46 19t-19 46q0 26 19 45t45 19q27 0 46 -19t19 -47q0 -26 -19 -44.5t-45 -18.5zM51 142v355h195v-313q0 -30 8.5 -41.5t30.5 -11.5q26 0 41.5 18.5t15.5 49.5 v298h192v-497h-180v82q-39 -92 -154 -92q-72 0 -110.5 39.5t-38.5 112.5z" />
<glyph unicode="&#xfd;" horiz-adv-x="512" d="M219 567l-26 67l223 109l36 -95zM29 -29q37 -6 69 -6q46 0 65.5 9t19.5 29q0 13 -8 33l-178 461h208l82 -265l86 265h142l-195 -539q-25 -70 -69.5 -100t-124.5 -30q-29 0 -97 5v138z" />
<glyph unicode="&#xfe;" horiz-adv-x="584" d="M51 -157v824h192v-229q36 69 124 69q89 0 139.5 -68.5t50.5 -189.5q0 -118 -51 -188.5t-136 -70.5q-79 0 -127 63v-210h-192zM243 182q0 -33 14.5 -51.5t39.5 -18.5q32 0 46.5 31t14.5 102q0 140 -61 140q-24 0 -39 -17t-15 -44v-142z" />
<glyph unicode="&#xff;" horiz-adv-x="512" d="M363 580q-27 0 -46 19t-19 46q0 26 19 45t45 19q27 0 46 -19t19 -46q0 -26 -19 -45t-45 -19zM187 580q-27 0 -46 19t-19 46q0 26 19 45t45 19q27 0 46 -19t19 -47q0 -26 -19 -44.5t-45 -18.5zM29 -29q37 -6 69 -6q46 0 65.5 9t19.5 29q0 13 -8 33l-178 461h208l82 -265 l86 265h142l-195 -539q-25 -70 -69.5 -100t-124.5 -30q-29 0 -97 5v138z" />
<glyph unicode="&#x152;" horiz-adv-x="950" d="M120 79q-92 97 -92 251q0 156 89 256q84 91 231 91q42 0 92 -10h486v-153h-302v-97h243v-149h-243v-108h302v-160h-486q-52 -10 -95 -10q-139 0 -225 89zM345 141q61 0 79 55q16 48 16 138q0 83 -13 130q-8 31 -29.5 48.5t-50.5 17.5q-28 0 -50.5 -17t-32.5 -46 q-19 -52 -19 -138q0 -99 23.5 -143.5t76.5 -44.5z" />
<glyph unicode="&#x153;" horiz-adv-x="846" d="M97 61q-72 74 -72 184q0 113 72.5 187.5t182.5 74.5q76 0 152 -45q68 45 146 45q111 0 177 -73t66 -197v-28h-305q2 -97 69 -97q60 0 70 65l166 -12q-17 -68 -63 -111q-67 -64 -172 -64q-86 0 -154 46q-45 -27 -77 -36.5t-76 -9.5q-112 0 -182 71zM515 306h130v13 q0 32 -17.5 52t-45.5 20q-61 0 -67 -85zM282 108q34 0 46.5 30.5t12.5 110.5q0 77 -12.5 106t-46.5 29q-33 0 -47.5 -33t-14.5 -109q0 -74 14 -104t48 -30z" />
<glyph unicode="&#x178;" horiz-adv-x="591" d="M407 738q-27 0 -46 19t-19 46q0 26 19 45t45 19q27 0 46 -19t19 -46q0 -26 -19 -45t-45 -19zM224 738q-27 0 -46 19t-19 46q0 26 19 45t45 19q27 0 46 -19t19 -47q0 -26 -19 -44.5t-45 -18.5zM204 0v282l-224 385h224l116 -219l112 219h179l-208 -385v-282h-199z" />
<glyph unicode="&#x2c6;" horiz-adv-x="500" d="M54 583l196 156l196 -156l-113 -10l-83 64l-83 -64z" />
<glyph unicode="&#x2dc;" horiz-adv-x="500" d="M119 582l-48 58q62 62 114 62q28 0 66 -20q41 -21 59 -21q28 0 71 39l49 -57q-60 -63 -119 -63q-21 0 -35.5 5t-55.5 27q-16 9 -35 9q-33 0 -66 -39z" />
<glyph unicode="&#x2000;" horiz-adv-x="456" />
<glyph unicode="&#x2001;" horiz-adv-x="913" />
<glyph unicode="&#x2002;" horiz-adv-x="456" />
<glyph unicode="&#x2003;" horiz-adv-x="913" />
<glyph unicode="&#x2004;" horiz-adv-x="304" />
<glyph unicode="&#x2005;" horiz-adv-x="228" />
<glyph unicode="&#x2006;" horiz-adv-x="152" />
<glyph unicode="&#x2007;" horiz-adv-x="152" />
<glyph unicode="&#x2008;" horiz-adv-x="114" />
<glyph unicode="&#x2009;" horiz-adv-x="182" />
<glyph unicode="&#x200a;" horiz-adv-x="50" />
<glyph unicode="&#x2010;" horiz-adv-x="275" d="M14 175v153h247v-153h-247z" />
<glyph unicode="&#x2011;" horiz-adv-x="275" d="M14 175v153h247v-153h-247z" />
<glyph unicode="&#x2013;" d="M53 175v153h481v-153h-481z" />
<glyph unicode="&#x2014;" horiz-adv-x="667" d="M-44 175v153h754v-153h-754z" />
<glyph unicode="&#x2018;" horiz-adv-x="275" d="M53 379v140l92 148h77l-67 -133h67v-155h-169z" />
<glyph unicode="&#x2019;" horiz-adv-x="275" d="M53 379l67 133h-67v155h169v-140l-92 -148h-77z" />
<glyph unicode="&#x201a;" horiz-adv-x="275" d="M53 0v155h169v-140l-92 -148h-77l67 133h-67z" />
<glyph unicode="&#x201c;" horiz-adv-x="459" d="M247 381v146l87 140h75l-67 -131h67v-155h-162zM50 381v146l86 140h77l-68 -131h68v-155h-163z" />
<glyph unicode="&#x201d;" horiz-adv-x="459" d="M246 381l68 131h-68v155h163v-146l-86 -140h-77zM50 381l66 131h-66v155h161v-146l-86 -140h-75z" />
<glyph unicode="&#x201e;" horiz-adv-x="459" d="M246 0v155h163v-146l-86 -140h-77l68 131h-68zM50 0v155h161v-146l-86 -140h-75l66 131h-66z" />
<glyph unicode="&#x2022;" horiz-adv-x="667" d="M335 200q-58 0 -98.5 40.5t-40.5 97.5q0 58 40.5 98.5t99.5 40.5q56 0 96.5 -41t40.5 -98t-40.5 -97.5t-97.5 -40.5z" />
<glyph unicode="&#x2026;" horiz-adv-x="857" d="M622 0v178h185v-178h-185zM335 0v178h186v-178h-186zM50 0v178h185v-178h-185z" />
<glyph unicode="&#x202f;" horiz-adv-x="182" />
<glyph unicode="&#x2039;" horiz-adv-x="220" d="M115 107l-85 133l85 143h69l-52 -143l52 -133h-69z" />
<glyph unicode="&#x203a;" horiz-adv-x="220" d="M37 107l52 143l-52 133h69l85 -133l-85 -143h-69z" />
<glyph unicode="&#x205f;" horiz-adv-x="228" />
<glyph unicode="&#x20ac;" horiz-adv-x="589" d="M30 272l41 119h45q20 136 103 211t214 75q68 0 126 -23l-54 -174q-25 45 -72 45q-80 0 -96 -134h141l-41 -119h-101q8 -71 29.5 -101t63.5 -30q52 0 77 48v-191q-32 -8 -74 -8q-128 0 -212.5 75.5t-102.5 206.5h-87z" />
<glyph unicode="&#x2122;" horiz-adv-x="800" d="M317 287v380h172l55 -183l52 183h174v-380h-127v232l-65 -232h-89l-68 234v-234h-104zM79 287v284h-84v96h297v-96h-84v-284h-129z" />
</font>
</defs>
</svg>
