<svg xmlns="http://www.w3.org/2000/svg" viewBox="0 0 520 100">
  <title>CoachHub</title>
  <path d="M.8 49.7C.8 30.4 15 17.2 33 17.2c11.1 0 18.8 5.4 23.8 12.4l-6.6 3.7c-3.5-5.3-10-9.1-17.2-9.1-13.7 0-24.2 10.5-24.2 25.5 0 14.9 10.4 25.5 24.2 25.5 7.2 0 13.6-3.8 17.2-9.1l6.7 3.7C51.7 76.9 44.1 82.1 33 82.1 15 82.1.8 69 .8 49.7zM64 58.2c0-13.2 8.7-23.8 22.5-23.8S109 45 109 58.2s-8.7 23.9-22.5 23.9S64 71.4 64 58.2zm37.6 0c0-9.2-5.4-17.5-15.1-17.5S71.3 49 71.3 58.2c0 9.3 5.5 17.6 15.2 17.6s15.1-8.3 15.1-17.6zM148.9 81v-5.2c-3.8 4.1-8.9 6.3-15.1 6.3-7.7 0-15.9-5.2-15.9-15.1 0-10.2 8.2-15 15.9-15 6.2 0 11.4 2 15.1 6.2V50c0-6.1-4.9-9.6-11.5-9.6-5.5 0-9.9 2-13.9 6.3l-3.3-4.9c4.9-5.1 10.7-7.5 18.2-7.5 9.6 0 17.6 4.3 17.6 15.3V81h-7.1zm0-9.6v-8.6c-2.7-3.8-7.5-5.6-12.5-5.6-6.6 0-11.2 4.1-11.2 10 0 5.7 4.6 9.9 11.2 9.9 5 0 9.8-1.9 12.5-5.7zM167.4 58.2c0-13.5 9.1-23.8 22.7-23.8 8.3 0 13.2 3.4 16.7 7.9l-4.7 4.3c-3-4.1-6.9-5.9-11.6-5.9-9.7 0-15.7 7.4-15.7 17.5s6 17.6 15.7 17.6c4.7 0 8.6-1.9 11.6-5.9l4.7 4.3c-3.5 4.5-8.4 7.9-16.7 7.9-13.6 0-22.7-10.3-22.7-23.9zM247.4 81V51.1c0-8-4.1-10.4-10.3-10.4-5.5 0-10.7 3.4-13.5 7.1V81h-7.1V18.2h7.1v23.9c3.2-3.8 9.4-7.7 16.3-7.7 9.5 0 14.5 4.6 14.5 14.5V81h-7z"/>
  <path d="M313.3 81V52.2h-36.7V81h-7.8V18.2h7.8v27h36.7v-27h7.8V81h-7.8zM366.2 81v-6.4c-3.5 4-9.4 7.5-16.2 7.5-9.5 0-14.5-4.6-14.5-14.5v-32h7.1v29.9c0 8 4 10.4 10.2 10.4 5.6 0 10.8-3.2 13.5-6.9V35.6h7.1V81h-7.2zM387.4 81V18.2h7.1v24.2c3.7-5 9.1-8 15.3-8 11.9 0 20.2 9.4 20.2 23.9 0 14.8-8.4 23.8-20.2 23.8-6.4 0-12-3.3-15.3-7.9V81h-7.1zm20.6-5.2c9.2 0 14.7-7.4 14.7-17.5s-5.5-17.6-14.7-17.6c-5.6 0-11.1 3.4-13.6 7.3v20.6c2.5 4 8 7.2 13.6 7.2z"/>
  <path d="M518.5 19c-.8-5.3-4-10-8.5-13.1-4.6-2.4-10.6-3.2-15.1-.2-4.3 2.9-6.8 8.1-7.9 13-.7 2.9-.9 5.9-1 8.9 4.8-2.5 7.4-2.7 12.4-2.1 6.7.4 13.3 4.2 16.6 10.1.3.8 2.3-2.4 2.4-2.7.6-1.4.9-3 1.1-4.5.5-3.2.5-6.4 0-9.4-.8-5.3.7 4.5 0 0z"/>
  <path d="M496.1 80.6c-.1-.2-.4-.2-.5.1-2.2 10-13.7 15.7-23.8 13.7-2.7-.5-5.4-1.6-7.8-3-6.9-4-12.3-11.1-14.1-18.7-2.4-10.3 0-22.3 4.6-31.9 4.6-9.5 10.7-17.2 18.1-25-9.9 13.7-18.2 29-19.3 46.3-.5 8 1.3 16.9 7.6 22 .1.1.2.1.3 0 9.7-6.3 16.9-16.5 19.5-27.9 2-8.6.9-17.5 1.1-26.3.1-4 .4-7.9 1.4-11.8 1.8-6.9 6.3-14.6 13.2-15.9.1 0 .1-.2 0-.2-13.3-.9-31.9 3.7-41.3 12-8.7 7.7-16.5 19.6-17.6 31.1-.9 10 1.9 20 6.5 28.9 4.1 7.9 10.6 15.2 18.3 19.8 2.2 1.3 4.4 2.4 6.7 3.3 10.6 3.9 23.8 2 31.4-6.4.1-.1.1-.2 0-.3-1.2-3.5-2.8-6.3-4.3-9.8z"/>
</svg>
