<svg xmlns="http://www.w3.org/2000/svg" viewBox="0 0 436.5 152.5">
  <title>Django</title>
  <path d="M51.5 0h23.9v110.5c-12.2 2.3-21.2 3.3-31 3.3C15.2 113.8 0 100.6 0 75.3 0 51 16.1 35.2 41.1 35.2c3.9 0 6.8.3 10.4 1.2V0zm0 55.6c-2.8-.9-5.1-1.2-8.1-1.2-12.1 0-19.1 7.4-19.1 20.5 0 12.7 6.7 19.7 18.9 19.7 2.6 0 4.8-.2 8.2-.6V55.6z"/>
  <path d="M113.3 36.9v55.3c0 19.1-1.4 28.2-5.6 36.1-3.9 7.6-9 12.4-19.5 17.7L66 135.5c10.5-5 15.7-9.3 18.9-16 3.4-6.8 4.5-14.7 4.5-35.5V36.9h23.9zM89.4.1h23.9v24.5H89.4V.1zM127.7 42.3c10.5-5 20.6-7.1 31.6-7.1 12.2 0 20.3 3.3 23.9 9.6 2 3.6 2.6 8.2 2.6 18.1v48.5c-10.7 1.6-24.2 2.6-34.1 2.6-20 0-29-7-29-22.5 0-16.7 11.9-24.5 41.2-27v-5.3c0-4.3-2.2-5.9-8.2-5.9-8.8 0-18.8 2.5-28.1 7.3l.1-18.3zm37.4 38c-15.8 1.6-20.9 4-20.9 10.2 0 4.7 2.9 6.8 9.5 6.8 3.6 0 6.8-.3 11.5-1.1l-.1-15.9zM197.5 40.6c14.1-3.7 25.7-5.4 37.5-5.4 12.2 0 21.1 2.8 26.4 8.2 5 5.1 6.5 10.7 6.5 22.6v46.8H244V66.9c0-9.1-3.1-12.6-11.6-12.6-3.3 0-6.2.3-11 1.7v56.7h-23.9V40.6zM277.1 125.8c8.4 4.3 16.7 6.4 25.6 6.4 15.7 0 22.3-6.4 22.3-21.5v-.5c-4.6 2.3-9.3 3.3-15.5 3.3-20.9 0-34.3-13.8-34.3-35.7 0-27.1 19.7-42.5 54.6-42.5 10.2 0 19.7 1.1 31.2 3.4l-8.2 17.2c-6.4-1.2-.5-.2-5.3-.6v2.5l.3 10.1.2 13c.2 3.3.2 6.5.3 9.8v6.5c0 20.5-1.7 30.1-6.8 38-7.4 11.6-20.3 17.4-38.6 17.4-9.3 0-17.4-1.4-25.7-4.7l-.1-22.1zm47.5-71.3h-2.5c-4.6-.2-10.1 1.1-13.8 3.4-5.7 3.3-8.7 9.1-8.7 17.5 0 11.9 5.9 18.8 16.4 18.8 3.3 0 5.9-.6 9-1.6v-8.1c0-2.8-.2-5.9-.2-9.1l-.2-11-.2-7.9.2-2zM398.1 34.8c23.9 0 38.4 15 38.4 39.4 0 25-15.2 40.6-39.4 40.6-23.9 0-38.6-15-38.6-39.2 0-25.1 15.2-40.8 39.6-40.8zm-.5 60.8c9.1 0 14.6-7.6 14.6-20.8 0-13-5.3-20.8-14.4-20.8-9.5 0-14.9 7.6-14.9 20.8 0 13.2 5.4 20.8 14.7 20.8z"/>
</svg>
