<svg xmlns="http://www.w3.org/2000/svg" viewBox="0 0 1024 219">
  <title>ORCAS</title>
  <path d="M101 205c-52.9 0-96-43.1-96-96s43.1-96 96-96 96 43.1 96 96-43.1 96-96 96zm0-174c-43 0-78 35-78 78s35 78 78 78 78-35 78-78-35-78-78-78zM614.6 159.3C600.2 176.2 578.9 187 555 187c-43 0-78-35-78-78s35-78 78-78c23.9 0 45.2 10.8 59.6 27.7l15.8-9.1C612.8 27.3 585.5 13 555 13c-52.9 0-96 43.1-96 96s43.1 96 96 96c30.5 0 57.8-14.3 75.4-36.6l-15.8-9.1zM958.4 206.1c-28.6 0-59.4-13.8-59.4-36.1h18c0 7.3 17.4 18.1 41.4 18.1 11.6 0 21.9-2.7 28.9-7.7 7.8-5.5 11.7-13.5 11.7-24.4 0-22.5-21.5-34-44.3-46.2-23-12.3-46.7-25-46.7-50.8 0-14.7 6-27 17.2-35.6 9.3-7 21.5-10.9 34.5-10.9 25.1 0 43.3 14.1 43.3 33.4h-18c0-10.1-12.7-15.4-25.3-15.4-12.5 0-33.7 6-33.7 28.4 0 14 14 22.5 37.2 34.9 25.2 13.5 53.8 28.8 53.8 62.1 0 16.7-6.7 30.2-19.3 39.1-12.9 9.2-28.5 11.1-39.3 11.1zM374.3 199h25.5l-47.2-47.2c8.7-3 16.7-8 23.3-14.8 11.1-11.3 17.2-26.2 17.2-42V73c0-33.1-26.9-60-60-60h-58v183h18v-41h37.3l43.9 44zM293 31h40c23.2 0 42 18.9 42 42v22c0 22.7-18.4 41.5-41.1 42H293V31zM820.3 199h19.4L758.9-2.5 680.2 199h19.3l10.9-28H809l11.3 28zm-102.8-46l41.6-106.5L801.8 153h-84.3z"/>
</svg>
