<svg xmlns="http://www.w3.org/2000/svg" hidden>
<defs>
  <symbol id="icon-miriam" viewBox="0 0 201.3 254.1">
    <title>Miriam Suzanne</title>
    <path d="M49.4 128.8c.8.2-.4-.5.1-.6s2.4-.1 3.3-.1c1.2 0 2.4 0 3.5-.1h.2c1.3-.2 3.1-.4 3.9-1.5.4-.5.5-1.1.4-1.8-.2-1.2-1.7-2.5-3.5-4-.4-.3-.7-.6-.9-.8-.5-.5-1-.9-1.4-1.4l-.5-.5.9.6c1.3.8 2.6 1.6 3.7 2.2l.5-.9c-1.2-.6-2.4-1.4-3.7-2.2-3.5-2.2-7.1-4.4-10.2-4.7-4.1-.4-7.3.2-10.7 2.5-1 .7-3.4 3.4-3 5.4s1.1 2.5 1.4 4l.9.2c0 .3.1.7.2 1.1 0 .2.1.4.2.6-.2 0-.4.1-.5.4-.1.5.2.6 1.3 1 .4.1-1.3 2.1.2 1.7s12.9-1.2 13.7-1.1zm4.7-9.6c.5.5 1 1 1.5 1.4.2.2 3.6 4.8.6 5.8-1.2.4-2.3.6-3.4.6h-1.5c1.7-1.4 2.5-3.6 2.2-6-.3-1.8-1.1-3.4-2.4-4.5 1.1.8 2.1 1.7 3 2.7zm-13.5 9.2c-1.5 0-2.6-.1-3.9-.7-.2-.1-1.6-2.4-1.6-2.6-.5-3.2-1.1-6 2.8-8.3 1.8-1 7.2-2.3 5.3-1.3-.7.4-1.4 1-1.9 1.6-1.4 1.6-2 4.2-1.5 6.3.6 2.4 1.7 3.9 3.3 4.8-.7.1-1.6.2-2.5.2z"/>
    <path d="M201.1 190.4c-4.2-1.1-19.1-3.7-28.3-6.2 0 0-5.5-1.6-6.6-2-2-.7-4-1.4-6.1-1.7-2.2-.3-5-1-7.3-1-5.3-.1-10.3.4-14.7-2.7 0 0 1.1-3.4 1.6-5.2.1-.4.2-1 .4-1.5.5.3.9.3 1.2.3.8 0 1.4-.4 1.7-.8.4-.5.3-1.5.2-2.5 0-.5-.1-1.1 0-1.4 0-.1.1-.2.2-.4.5-1.1.6-1.4.3-1.7s-.8-.4-1.2-.4l.1-.1c.4-.3.5-.4.6-.6.3-.6 0-2.1-.5-4.1-.2-.8-.4-1.1-.4-2.1.3-2 .6-4 .9-7 0 0 .1-.1.2-.3.5-1 1.5-2.8.8-4.5 2.1-3.2 2-4.2 1.7-5.8-.2-.9-.3-1.9 0-3.9.5-3.4 1.3-.4 1.5.3.9 2.8 1.3 4.1 2.2 4.1h.1c.2 0 .6-.1.9-.6.5-.9.9-2.4 1.3-3.8s1.1-3.7 1.6-3.8c0 0 .1 0 .2.1.6.6 1.1.3 1.2.2.9-.9-3-9.2.4-6.1.4.3 1 .6 1.4.4.6-.4.4-1.8.1-4-.2-1-.3-1.9-.4-2.7-.1-1.3 1.1-5.2 2-8.5.7-2.3 1.6-4.8 1.9-6.1 2-10.4.4-20.7-.9-28.7-4.4-26.9-23.9-47-40-58.4-.5-.3 2.4-.6 2.4-1.2 0-.8-2.1-1.7-10.9-5.7-10.5-4.9-19.6-7.8-27.8-9C75.1.1 54.4-1.5 50.9 3c-.6.8-.8 2.1-.9 2.8 0 .2-1.7 0-3.1-.4-3.5-1.1-8.5-2.7-11.5-1.2-1.1.5-1.7 1.1-1.8 1.8-.2 1 .2 1.6.7 2.2.5.6.4 1.4-.2 1.6-1.8.6-3.6.4-5.6.3-2-.2-3.7-.3-4.7.3-.6.3-.8.7-.8 1.1.1.8 3.8 1.8 2.8 1.9-2.6.4-11.1 12-10.7 16.7.1 1.6 1.1 2.5 2.8 2.5 2.4 0 3.6.9 3 .9-3.1 0-6.7 2.8-7.8 6.5-.7 2 2.3 2.8 3.3 4.2.5.6-2.7 4.1-2.2 5.7.2.5.7 1.1 2.4.8 1.9-.3 2.6.6 1.3 2.3-2.3 3-5.6 9.2-6.4 15.4-.6 4.7-1.5 11.9.5 23.2.7 4.2 3.4 15.6 6.7 18.3.7.6 1.6 4.3 2.3 7.4 1.2 5.1 1.9 7.7 2.8 8.4.6 7.4 1.4 15.1 2.7 23.4.5 3.6.8 7.1 1.1 10.4.5 5.5.9 10.6 2.3 16.3.9 3.7 2.3 7.2 4 10.5-5 1.4-12.7 4.5-20.1 7.4-5.3 2.1-10.4 4.1-13.8 5.3l.3.9c3.4-1.1 9.3-2.5 14.7-4.7 6.9-2.7 14.5 1 16 7.4 1.4 5.7 5.4 11.8 8.9 18 12.7 22.2 27.3 33.5 43.5 33.5 1.4 0 2.7-.1 4.1-.2 9.4-1.1 31.8-17.6 40.3-23.9l.3-.2c10.2-7.5 27.7-30.4 23.4-42.4-1-2.7-.5-5.2 2.6-5.1 2.3 0 19.8 4 19.8 4 9.1 2.5 29.8 4.8 27.2 4.1zm-58.3-25.9c-.1.3-.6 1.1-.6 1.2-.1.4.2 1 .2 1.6.1.6.1 1.6 0 1.8-.2.2-.6.5-1 .5s-.4-.7-.7-.8.7-4.6 1.1-4.2c.4.3 1-.3 1-.1zm-1.1-2c-.1-.4.3-2.6.6-2.3s.3 1.6.1 1.9-.6.7-.7.4zm2.2-18.9c.1-.7.1-1 .1-1.7.1.1 1.2-1 1.3-1-.2.5-.9 1.9-1.4 2.7zm1.9-11.1c-.3.7-.6 1.2-.8 2.3s-.1 3.2 0 3.9c-.1-.2-.5-.6-.9-.6s-.1-8 0-8.3.4-.4.6-.3c.6 0 1.5 2.3 1.1 3zM21.8 117c-1-4.5-1.5-8.7-2.4-9.4-2.7-2.2-5.6-10.5-6.6-16.2-2-11.1-1.1-18.2-.5-22.8.8-6 4.4-11.8 6.3-15 .6-.9 1-1.6 1.2-2 .1-.2.1-.3.2-.5.3-.7.5-1.1.2-1.5-.4-.5-1.1-.4-3.9.2-.3.1-.9 0-1-.3-.3-1 1.7-4 2.7-4.5.4-.2.5-.5.5-.7 0-.5-.6-.8-1.6-1.2-1.8-.8-3.3-1.5-3-2.7 1-3.2 5.4-5.3 8.1-5.4 1.3-.1 1.6-.6 1.6-1 0-1.2-2.7-2.4-5.4-2.4-1.1 0-1.8-.9-1.9-2-.4-4.4 7-14.5 10.9-15.2.5-.1 1.1-.2 1.2-.8 0-.6-.6-.9-2.1-1.2-1.6-.3 0-1.5 2-1.1 2.1.5 4.6.4 6.7-.3.5-.2 1.4-.4 1.6-1 .2-.7-.6-1.4-1.1-2-.5-.5-1.1-2 .4-2.7 2.7-1.3 7.4.2 10.9 1.3 2.9.9 4 1 4.7.7.8-.4-.7-1.4.7-3.2C55.2.3 74 1.3 83.1 2.7c8.1 1.2 17.1 4.1 27.5 8.9 6.7 3.1 9.4 4.5 8.6 4.4-.8-.1-3.8.3-.4 2.9 15.5 11.9 35.3 30.7 39.6 57.2 1.3 7.9 2.5 18.4.6 28.6-.3 1.3-.9 3.5-1.5 5.8-1 3.6-2.5 7.2-2.4 8.7 0 .8.6 2 .8 3 .1.8.3 2 .3 2.5-.4-.3-3.1-2.1-3.9-1.3-.2.2-.4.5.1 1.1.9 1.2 2.8 7 1 5.9-.9-.5-1.8 1.8-2.2 4.5-.7 4.2-2.1 1.4-2.5.2s-.8-2.3-1.1-3.3c-.7-1.8-1-3.6-2-3.8-2.1-.5-3.2-.5-4.4-.6-1.6 0-3.6.6-6-.7-.6-.4-1.4-.8-2.1-1.3-3.6-2.2-6.4-4.7-7.4-3.8-.7.6.2 3.1.6 4l.2.6c.9 2.3 1.7 4.3 1.7 4.9-.1 0-.4-.1-.9-.3-7-3.1-13.9-10.4-19.5-16.2-5.3-5.6-8.2-9.3-10.1-8.6-1 .4-1.7 2.3-2.5 3.5-1 1.5-2.1 2.7-3.6 2.7-1.7.1-3.9-1.4-6.8-5.4-.5-.5-.9-.6-1.3-.4-.9.5-.7 2.6 0 7.7.2 1.7.8 4.4.3 3.6s-2.5-3.9-5.3-5.8 1.6 13.4.3 12.8-6.5-3.7-8.7-7.9c-6.9-13-13-30.6-18.8-53.6-.1-.4-.1-3.4-.3-4.4-.7-4-2.2-9.9-5.6-15.4v-.2h-.1c-2.2-3.5-8.7-6.5-11.2-5.8-2.6.7 6.1.3 6.5 4.7.1 1.2-7.3 6.2-10.5 13.1S23 66.3 22.9 86.3c0 12.5 0 22.7.9 35.6-1-1.8-1.5-2.9-2-4.9zm94.9 7.9c-2 1.5-5.3 1.5-5.6 1.4-.3 0 2.5-1.8 3.3-3.7.8.9 1.4 1.6 2.3 2.3zm-85.9 50.6c-1.4-5.6-1.8-10.7-2.3-16.1-.3-3.4-.6-6.9-1.1-10.5-3.6-23.9-3.9-42.6-3.9-62.8 0-13.9 2.7-19.9 7.2-30l1.2-2.6c1.4-3.2 7.6-8.1 12.5-9.3 3.1 5.3 4.4 13 5 16.8.2 1 .3 4.5.4 5 5.8 23.1 12 38.1 18.9 51.2 2.4 4.5 8.3 9.2 10.1 9.8.5.2 1.2.3 1.6-.1.6-.5.3-1.5-.2-3.4-.5-2-2-9.4-1-8.1s3.9 4.7 4.7 4.5.8-1.3.1-6.1c-.3-2.2.1-6 .6-5s4.6 4.8 6.7 4.7c2-.1 3.2-2 4.3-3.7.7-1.1 1.3-2.1 2-2.4.8-.3 4.3 2 6.2 4.5-2.6.7-5 1.2-7 2.4-1.3.8-4.6 3.9-3.8 3.6 2-.7 6.2-4 4.2-1.8-1 1.1-1.9 1.7-2.5 2.2-.5.5-.8.8-1.3 1.2-1.1.7-2.9 2.2-2.5 4 .3 1.3 1.8 1.2 3 1.1.6 0 1.1-.1 1.6 0 1.7.3 2.8.9 4 1.6 1.6.9 3.5 1.9 6.9 1.9h.8l10.4-.6c-.1-.3-.2-.5-.1-.6.5-.1 2.4.6 2.4.6 2.1 1.6 4.2 2.9 6.4 3.8.8.3 1.5.6 2 .1.7-.7.1-2.1-1.4-6l-.2-.6c-.6-1.4-.3-1.6-.3-1.6.6-.5 4 1.7 5.7 2.7.8.5 1.5.9 2.2 1.3 2.7 1.5 4.1 1.5 5.8 1.5.8 0 1.3 0 2.4.1.3 2.3.6 5.3.5 8.7v.5c-.5 11.3-2.6 26.6-4.4 33.1-2.5 8.9-11.1 27.8-15.2 31.9s-10.7 9.4-13.7 11.5-1.2-.8-1-1.9c.2-1.1-2.5 3.7-3.4 4.9-4.8 6.9-11 14.9-26.7 14-4.3-.2-11.7-.5-15.2-3.7-4.3-3.8-6.2-9-8.6-14.2-1-2.1-2.5-4.4-3.7-6.5-.2-.4-9.5-14.5-7.9-11.5s6.7 10.6 7 11.9-2.4-2.5-4.1-4.8c-6.2-8.1-12.8-16.7-15.3-27.2zm72.1-49.6c.5.2-1.3.3-2.7-.5-1.2-.7-2.4-1.4-4.3-1.7-1.7-.3-2.7-2.4-1.7-3.3.5-.5 1-.8 1.5-1.3.5-.6 1.1-.8 2.3-1.7 1.1-.9 5.6-2.6 4.6-1.8-.9.8-2.3 3.6-2.3 5s1 4.5 2.6 5.3zM127.4 229l-.3.2c-7.6 5.6-30.8 20.9-40 21.9-17.4 2-32.9-7.3-46.5-31-6.8-11.9-11.6-27.1-6.3-32.8 3.1 5.8 7.2 11.1 11.2 16.3 3 4 6.2 8.1 8.8 12.3 2.2 4.7 4.6 9.4 8.6 12.8 3.8 3.3 11.7 4.2 16.1 4.5.8 0 1.5.1 2.2.1 14.2 0 20.3-8.1 24.7-14.5 1.1-.9 2.7-2 4.6-3.4 5.1-3.7 11.5-8.4 13.9-11.8.4-.5.8-1.1 1.2-1.7 1.7-2.3 3.5-4.8 4.8-7.3 1.8-3.6 5.8-8.7 6.1-7.2.2.7.6 3.7.9 2.4.3-1.3-1.3-6.6-.6-9.2 1-3.8 4.2-1 6.6.5 2.5 1.6 5 3.8 5.9 6.2 4.1 11.5-12.2 34.5-21.9 41.7z"/>
    <path d="M65.3 142.6c-.3 3-2.5 15.8-1.7 12.7.8-3.2 2.2-10.5 2.5-13.5.9-8.6.1-18.2-1.9-23.9-.6-1.7-4.8-6-4.8-4.9s.8 2.8 1.4 3.2c4 3.3 5.3 17.9 4.5 26.4zm-3.1 27c-1.4-1.6-2.9-.6-3.4-.3s-1-.1-1.1-.4-1.7-3.1-1.6-3.9 2.2-4.2 2.3-5.3-3 4.1-3.1 5.3c-.2 1.3 1.3 3 1.6 4.1.3 1.3 3.5 3.2 5.1 3 .6-.1 4 3.3 6.2 4 .7.2 2.4.6 4 .6 1.1 0 2.2-.2 2.9-.6.9-.6 1.9-1.5 2.8-2.4.8-.7 2-1.7 2.5-2.2s3.3 0 4 0 3.3-1.3 3.4-2.1c0-.3-.1-.6-.4-.8-.9-.6-3-.3-4.9.6-2 1-3.8 2.5-5.3 3.9-1 .9-1.9 1.7-2.7 2.2-1.1.8-5 .3-6.5-.2-1.9-.8-3.6-3.2-5.8-5.5zm-27.5-66.3c.7.2 1.3.5 1.9.9s2 1 2.4.8c.5-.2 1-.8 1.1-1.4.2-1.6 2.2.1 3.3 1.2.6.7 2.1 2.4 2.7 1.9.4-.3.3-1 .7-1.3.4-.3 2 3.1 2.9 3.1s1-1.5 1-1.7c-.1-1.8.3-2.2 1.1-1.9.9.3 5 6.9 5 4.1s-3.5-6.1-6.2-6c-1 .1-1 4.4-2.8 1.9-1.8-2.6-2.1.1-2.3.4-.1.3-.9-.5-1.5-1.1-1.3-1.4-2.8-3.1-4.5-2.7-.7.2-.9 1.2-.9 1.9s-1.2.2-1.7-.1c-.7-.4-1.4-.8-2.2-1-4.7-1.2-10.9 5.2-9.4 4.6s5.1-4.6 9.4-3.6z"/>
    <path d="M91 169.9c-.5.4-1.6.8-2.6 1.1-.7.2-2.5 1.2-3 1.5s2.6-.3 3.2-.5c1.2-.3 2.3-.9 3-1.3 1.4-1 2.4-2.4 3.2-4.1.9-2.1.1-3.8-.9-5.5-1.4-2.6-1.1-7.2-1.6-5.1s0 3.7.6 5.4c.6 1.8 1.2 3.5.4 5.2-.7 1.7-1.1 2.4-2.3 3.3zm-5.8 19.2c-3-.3-5.2-.9-6-.7s-5.2 1.9-6.3 1.7c-1.4-.3-4.7-1.9-5.3-2.1-.7-.3-1.8.3-3.1.4-1.7.1-3.6.5-5.9-.1-2.6-1.8-4.1-3-4.5-3.1-.8-.2-1.7.4-2.3 1-.4.4-2.9 2.8-1.4 1.8 1.6-1 4.1-2.4 5.7-.6.7.7 1.3 3.2 1.9 4.8.5 1.4 1.2 3 1.8 3.8 1.2 1.9 2.3 3.3 3.3 4.4 1.8 1.8 4.8 1.9 8 1.9 1.1 0 2.3 0 3.4.1 1 .1 2.8.2 4.7.2 2.7 0 5.5-.2 6.9-1 2.8-1.5 4.9-4.2 7-6.7 1.7-2.1 2.3-5.2 4.6-5.9s4.8-.2 3.1-1.2c-2.4-.8-5.9 1.6-6.9 2.1s-5.7-.4-8.7-.8zm-20.6.3c1.1-.1 2-.1 2.5.1.6.2 1.1.4 1.5.6 1.5.6 2.9 1.4 4.4 1.7.3.1 3.3-.7 4.7-1.2.7-.2 1.5-.5 2.3-.7.6-.1 3.5 0 5.8.4 1.2.2 6.4.9 4.7 1.6-.8.3-2 .6-7.4 2.1-4 1.1-8.6 1.4-9.5 1.3-.6-.1-1-1.1-1.5-1.2-2.8-.3-5.5-.5-8-2-.4-.3-3.7-2.4-3.9-2.5 1.6.1 3.2-.2 4.4-.2zm27.7 5.2c-2 2.5-4.6 4.4-7.2 5.9-1.9 1.1-7.8.4-10.6.2-1.2-.1-8.7.7-10.2-.8-1-1-2.3-2-3.5-3.8s-2.4-5.7-3-6.6 5.5 3.7 5.9 4c2.6 1.6 4.4 2.2 7.3 2.5.6.1 1.9.8 2.4.9 1 .1 2.4-.5 3.4-.5 6.8 0 12.1-2.6 16.7-4.5.8-.4-.1 1.3-1.2 2.7z"/>
  </symbol>

  <symbol id="icon-carl" viewBox="40 10 202 239">
    <title>Carl Meyer</title>
    <path d="M93.808 87.9c.596 1.49-.483 2.887-.786 4.12 1.11-.135 2.156-2.027 3.923-2.158 1.19.55 1.793 1.217 1.69 2.733 2.472.656 2.082-1.6 4.98-1.163.454.527 1.116.984 1.196 1.886 2.4.918 3.81-.708 6.07.074 2.19.762 5.18 3.374 6.28 4.904-2.6-.192-3.82-3.614-6.86-4.118-2.08-.344-4.35 1.454-6.47 0-.29-.556-.4-1.29-.58-1.962-2.39.244-4.62 3.656-6.47.98.02-.834.33-1.37.2-2.353-2.09.26-3.11 2.776-5.13 3.115-.93-1.458.75-2.548.81-4.25-2.67.608-1.9 4.05-3.91 4.666.72-2.243 1.84-6.778 5.1-6.473m16.28 14.13c-1.79-.88-3.11-2.66-4.71-2.94-2.42-.43-4.22 1.02-6.26 1.89-.73.31-2.37-.03-2.44 1.25.98.09 1.85-.14 2.71-.47-.15 1.03.82 2.88 1.09 3.62-.95-.28-1.64-1.69-2.72-1.85.65 5.34 15.45 4.91 17.63.68-1.24-1.45-3.27-1.16-5.29-2.15zm-5.69 4.52c1.71-.91 4.2-2.07 3.53-4.7 1.49.74 4.06 1.65 6.19 2.4-2.09 1.96-5.69 2.28-9.72 2.31zm-15.5-4.31h.79c-.24 2.85.27 4.97 1.57 6.28-1.59.86-3.05-1.42-4.12-2.35.05-1.26.09-2.52.39-3.53h.79c-.01 1.68-1.27 2.98.54 3.3-.25-1.22-.04-2.77.05-3.69m-.98 38.06c.08-1.21 2.15-1.49 3.34-2.35 4.74-3.44.77-7.75-3.92-9.02.84-1.52 2.35-.22 3.34.2 2.34.99 4.86 1.92 6.48 3.61 2.26 2.37 2.44 6.97 4.7 9.74 2.27 2.78 5.98 4.56 8.04 7.65.4.6 1.25 1.74.79 2.75-1.016-.31-.736-1.61-1.24-2.36-.536-.78-2.63-2.22-2.956-3.11-2.364-1.92-3.41-2.38-5.22-4.53-3.236-3.85-2.25-8.5-7.094-10.58-.16-.03-.34-.15-.54-.15 3.79 4.01-2.04 8.05-5.71 8.19"/>
    <path d="M82.627 136.156c.96-.106 1.67 1.226 2.843-.222-2.298-3.17-6.172.127-7.944 1.005.245-1.61 4.16-3.34 6.866-3.14 1.347.1 3.615 1.02 3.53 2.35-.127 2.02-4.82 2.16-5.295 0m9.413 20.6c-2.356-1.14-5.468-1.14-9.02-1.57-2.185-.27-4.145-2.29-5.886-2.36-2.277-.1-3.91 2.1-5.688 2.74 1.626.82 2.48.08 4.118.78 1.4.6 1.905 2.02 3.305 2.29 1.52.3 3.06-.42 4.34-.73 5.38-1.29 11.87.52 16.67 1.17-.97 1.08-2.57.31-3.83.16-3.18-.38-8.15-1.11-12.07-.55-1.65.23-3.42 1.83-5.1 1.57-1.6-.25-2.33-2.53-3.73-3.14-2.08-.91-3.42.27-4.91-1.18.94-1.83 4.1-3.94 6.3-4.35 1.95-.37 3.32 2.04 5.47 2.58 3.33.84 8.36-.41 10 2.55m-18.44 3.53h.39c1.21 1.13 1.17 3.53 2.35 4.71 1.36 1.17 3.39-.84 6.11-.99 2.6-.14 4.83 1.34 6.45.99 1.77-.39 2.42-2.53 4.11-1.96.02.81-1.17 1.04-1.96 1.57-.65.43-1.12 1.2-1.96 1.37-1.58.32-4.24-.72-7.26-.4-2.31.25-4.58 1.43-6.22.32-1.86-1.25-1.28-3.78-2.02-5.62m15.49 15.69c-1.37.33-3.24-1.27-5.49-1.55-2.74-.34-4.22.88-6.08 1.35 1.86-3.82 10.15-2.59 11.57.2"/>
    <path d="M202.737 172.996c-.81-.293-3.192-.875-4.425-2.064 2.345-6.45 6.033-10.064 10.082-14.33 4.45-4.69 11.148-10.195 11.545-18.09.41-8.156-3.32-13.98-7.65-17.657-4.61-3.904-16.82-10.35-17.56-13.105-.75-2.755-1.27-5.36-1.27-7.893 0-1.036 1.19-1.774 1.55-2.737.7-1.897.36-4.758.59-7.06.65-6.57 4.57-12.272 4.18-18.66-.23-3.815-3.01-8.847-4.38-12.334-1.48-3.76-2.17-7.776-3.14-11.573-2.05-8.03-5.92-13.483-10.79-18.636-9.97-10.54-23.43-16.7-39.84-18.73-2.36 0-5.48.487-7.83.487-8.2 1.736-18.51 2.075-26.88 4.123-7.74 1.887-14.76 5.403-20.4 9.808-5.57 4.35-10.94 9.41-14.71 15.693-2.6 4.333-5.73 9.557-7.45 15.3-.45 1.507-.51 4.972 1.39 6.362-2.68 9.726-4.89 19.91-6.89 30.318.74.562.61 2 .78 3.138-5.91.176-10.68 2.528-11.97 6.67.57.38 1.58-.844 2.15-.393-.1 8.594 5.21 11.795 12.55 12.947-.08 6.727-1.02 13.71-.59 21.185.32 5.607 1.56 12.142 2.55 18.634.86 5.73 1.22 10.3 2.2 16.25-7.54-.77-21.58 2.62-26.58 5.52 0 .21.96 1.64 1.41 1.58 4.09-3.11 14.59-5.37 21.73-5.69.37-.02 3.26 1.13 3.77 1.01 1.53 8.96 4.08 17.06 10.06 21.17.93.64 4.97 2.6 6.7 2.6 2.35 0-1.11 5.15-.08 5.79 12.41 6.85 22.02 21.21 40.45 22.23 6.56.36 14.16-1.89 19.38-3.01.46-.1 3.38-.73 4.93-1.41-.17 1.71-.5 3.28-.95 4.75-1.17.69-3.16 2-6.14 4.11-3.65 2.6 3.34-.37 5.29-1.89-2.71 7.67-8.06 11.56-9.41 20.56h.78c.66-6 5.04-11.52 8.04-17.18 2.86-5.4 6.28-12.46 3.74-20.28-3.1.68-4.03 2.26-7.15 2.92 7.32-6.02 11.46-13.09 12.88-25.52 1.395-12.22 1.27-25.12 7.21-32.98.72-.95 3.963-6.48 3.963-10.36 1.69-1.69 4.76-5.65 6.234-7.69 4.66-6.43 13.49-14.05 14.32-22.17.69-6.77-2.17-12.52-5.89-14.32-3.216-1.55-7.168-.1-9.615.98-.79.35-1.61.7-2.357 1.16-3 4.66-7.127 3.85-8.08 4.4 1.81 5.81-.766 6.47-.75 10.71-.54-.31-.58-1.12-1.57-.98-1.058 4.93-.71 9.47-3 13.63 0-2.38.09-2.97.09-5.848 0-2.214-.18-6.915-1.668-7.33-1.67-.47-3 3.195-3.66 4.25-1.07 1.72-1.42 1.965-3.11 2.523.288-7.06 5.337-11.56 1.74-18.413 1.48-.01 3.24-.4 4.9-.59 1.6-.18 3.8.37 4.51-.98-2.99-.51-6.773.35-9.48.13.18-3.4 1.15-4.97.86-7.39-.082-.7-.18-1.31-.2-2.072-.03-.81.74-1.75.555-2.78-.19-1.08-2.506-2.73-3.297-3.77-2.13-2.805-7.21-8.57-6.166-12.46.42-1.564 1.83-1.905 2.05-3.82-10.8-2.78-21.64-2.11-29.03-9.02-2.76-2.574-3.875-6.93-6.88-8.4-1.724-.842-5.7-.112-7.05-1.404-1.75-1.68-1.9-6.18-1.37-8.04.81-2.852 2.85-6.422 2.55-9.02-.16-1.35-1.4-1.85-1.57-3.332 1.7-2.07 4.87-2.91 7.454-3.725.87-.27 2.21-.41 2.55-1.37-1.45-.16-3.94.68-6.08 1.56-1.75.73-4.6 1.885-4.71 3.73-.08 1.534 1.49 2.233 1.57 3.53.06.913-.48 2.545-.86 3.873-1.02 1.19-2.51 2.93-3.47 3.39-1.04.49-3.43 1.78-3.43 3.02.01 1.57 2.12 2.453 1.69 4.03-5.09.37-12.917-1.967-18.74-.22-5.77 1.722-8.17 4.15-10.154 8.85.426-5.08 2.366-8.77 4.384-12.78 5.03-10 10.93-16.68 20-23.11 7.854-5.56 16.85-7.187 28.68-8.65 3.68-.45 7.56-1.53 11.214-2.03 7.38-1.01 15.115-1.22 22.484.67 18.34 4.72 34.95 17.28 39.22 36.93.74 3.38 2.05 6.5 3.344 9.76 1.65 4.16 3.6 7.6 3.14 13.53-.6 7.85-4.59 13.76-4.03 23.024-1.64 1.43-2.75 2.562-1.85 6.23.2.824-5.08 3.49-3.49 3.76.55.09 3.84-1.82 2.53 1.69-.25.65 2.54.45 3.41 1.31 3.78 3.73 16.1 10.34 20.43 16.48 2.38 3.374 4.18 7.11 3.36 13.57-.234 1.85-1.18 5.383-2.17 6.96-3.31 5.26-9.79 8.64-13.61 13.73-3.776 5.05-5.63 10.28-7.21 17.51-3.015 13.82 2.295 27.17 6.76 36.77.63 1.36 1.13 3.15 2.55 3.93-1.11-3.39-2.64-6.305-3.92-9.616-1.32-3.38-2.54-6.88-3.34-10.78-1.953-9.563-2.03-17.92.6-25.38 1.497.77 3.468 1.38 5.73 1.9 9.517 2.18 24.22 2.75 30.75 6.425 3.63 2.04 3.88 7.88 7.1 10.77.44-.46.44-.52.44-.59-3-2.96-3.27-9.46-6.932-11.52-7.33-4.126-23.606-3.6-32.33-6.76zM62.42 112.586c-7.478-.5-11.4-3.45-11.43-11.394 3.28-.255 6.43-.25 8.097-2.11-.854-.686-1.917-.333-3.138-.033-1.59.38-3.24.19-4.87.57.33-1.24 1.31-1.6 2.51-2.12 1.93-.83 3.81-.6 6.47-.56 2.08 4.45 2.61 8.83 2.35 15.63zm-1.764-21.35c1.864-.357 2.888 1.818 5.1 1.764.316-1.396-2.095-1.67-2.352-3.138 1.918.96 3.685 2.07 5.687 2.943-1.42.06-3.1.116-4.51.392-.76.148-2.32.187-2.15 1.177 5.07-.75 17.09-3.915 14.12 5.458-3.78-3.41-8.73-4.47-15.89-4.673-.22-.57-.35-1.22-.39-1.97-.03-.92 1.14.53 1.57-.2.09-1.07-1.05-.91-1.18-1.77zm9.81.194c.832.15 1.044.92 2.157.786.014-1.388-1.668-1.078-1.373-2.748 1.195.9 2.112 2.074 2.943 3.335-1.036.118-3.123-.405-4.904-.195.42-.362 1.38-.182 1.17-1.178zm-7.455 12.255c.3-.517 1.29.61 1.97.726 3.54.61 7.75-1.41 10.2-2.41h.4c-1.12 6-5.1 9.85-12.16 10.77.07-3.47-.05-6.02-.39-9.08zm6.28-4.408c2.2.027 4.36.092 5.3 1.373-2.17 1.753-5.38 2.467-9.02 2.747 1.52-.314 4.05-1.314 3.73-4.12zm-6.54-.575c.18 1.063 1.23 1.217 2.04.967-.21.5-.47.96-.39 1.76.05.71-.14-1.32-.98-.98-.44 1.1.58 2.42 1.77 2.55-.54.53-1.29-.4-1.76-.59-.76-2.11-1.84-3.1-2.35-5.46 4.4-.09 7.6.21 10.79 1.34-2.71.26-6.63-.6-9.1.4zm3.58-36.877c.64-.9.79-3.564 1.27-4.825 3.69-4.643 12.05-6.677 20.73-5.973 1.87.15 5.97 1.536 6.87-.394.64-1.37-1.01-2.972-.98-4.12.04-1.116 1.6-1.22 3.36-2.805-.1.188-.19.377-.25.57-.79 2.7.11 6.116 1.41 8.314 1.47 2.468 4.8 1.98 7.46 3.336 2.51 1.275 4.38 5.097 6.45 7.275 6.68 7.04 17.06 7.148 29.45 9.005-4.6 2.527-.98 8.917 1.38 12.357 1.99 2.906 4.55 5.252 5.69 7.65-.19 4.313-.1 7.515-.98 12.18-9.35 1.068-22.3 4.275-30.59-.05-2.14-9.673-34.77-10.28-32.52 2.947 2.14 12.59 32.92 16.225 32.71-.138 8.72 3.718 21.69-.126 30.8-1.404 1.01 2.96 1.84 6.116.59 9.414-1.08 1.07-1.31 3.216-1.77 5.1-.43 1.8-1.48 4.208-.19 5.69 3.81.01 3.86-6.462 7.06-7.062.29 4.24.57 10.047.2 14.516-.15 1.753-1.28 3.616-.39 4.707 1.075-3.51 2.543-6.102 3.53-9.416.99-3.32 1.505-7.03 1.96-10.79.71.8.4 2.61 1.57 2.94.95-4.65 2.04-8.23 1.41-12.61 1.06-.34 4.74-.78 6.47-4.4 3.67-1.07 6.83-3.58 11.416-1.84 3.847 1.46 6.48 6.44 6.01 12.17-.64 7.74-9.14 15.63-13.535 21.38-1.8 2.36-3.08 3.54-4.74 5.68-3.54 4.57-11.44 2.06-10.725-3.38.25-1.93 1.11-2.21 1.93-3.88-1.538 0-3.23 1.67-3.53 3.14-.19.92-.197 1.79-.05 2.59-3.65 6.58-8.06 18.69-12.11 25.46-1.12 1.87-4.17 4.85-4.31 6.47-.07.78.13 2.29.78-.2 5.12-5.69 8.16-13.74 11.577-20.99 1.07-2.29 5.51-4.55 6.56-6.93 1.53 1.08 3.57 1.55 5.64 1.2 1.245-.21-.455 4.77-2.506 8.71-3.87 7.45-5.75 17.75-6.95 31.15-.98 10.99-3.6 18.15-9.22 24.32-1.71 1.88-4.7 3.58-5.84 6.22 3.5 1.13 5.64-1.6 8.715-2.18.39 2.38.49 4.5.38 6.44-1.79.14-5.76 1.7-6.77 1.87-4.64.79-9.62 1.47-14.512 1.37-20.24-.4-28.95-13.32-41.82-20.66-1.58-1.17 2.22-4.95 3.45-4.95 8.75 0 18.36-2.05 22.74-5.65 1.09-.89 2.01-3.24 1.51-4.84-1.21 1.19-1.59 2.41-2.742 3.33-6.17 4.91-24.19 8.59-32.56 3.14-6.36-4.14-8.76-15.56-10.59-26.49-1.877-11.18-4.08-22.98-4.515-32.76-.31-6.89.65-13.63.78-19.62 5.96-.38 9.184-3.5 11.575-7.46-1.173 4.39-1.43 8.9-3.14 13.34-1.59 4.13-4.28 8.38-3.9 13.11.32 3.89 3.28 5.71 6.77 6.76-.297 2.2-2.69 3.78-1.736 4.85 1.28-1.04 2.57-2.74 2.6-4.61 1.04.27 2.106.49 3.15.68.9.17 2.33 1.04 2.94 0-5.7-1.68-13.03-1.83-12.15-10.41.47-4.52 3.29-8.6 4.64-13.83 1.41-5.5 1.58-10.91 3.2-14.99 1.886-.09 4.21-.95 6.28-.79 1.283.1 2.282 1.09 3.135.59.17-2.18-6.38-1.93-9.22-1.6.08-1.95.4-2.83-.196-4.28-.43-1.04-.98-1.58-1.63-2.47-1.27-1.75-2.58-4.1-4.65-4.6-.6.312-.63 1.194-.98 1.764-.78-.14-1.93-.71-2.744-.19-.48 1.08 1.19 1.02.78 1.37-1.8-.57-3.26-2.47-5.1-2.36-.84.02-.29 1.32-.6 1.33-.36-.67-1.5.06-2.15-.34 1.19-8.61 3.99-17.54 5.69-25.5.16-.76.62-1.896.37-2.736zm50.05 48.633c-2.91 7.927-19.12 7.857-26.28 2.353-2.35-1.8-4.56-5.37-3.72-8.63 1.02-3.96 5.65-5.06 11.38-5.49 7.48-.55 22.49 1.27 18.64 11.77z"/>
    <path d="M166.404 130.672l-.747-.79c-.827-2.288-.237-8.144 1.89-10.402.768-.81 1.76-1.065 2.877-.733l.216.064.06.22c.198.71.198 1.85 0 2.55l-.08.28-.284.02c-.204.02-.43.04-.665.06-.83.09-1.76.18-2.52.03-.74 2.4.24 4.78.71 6.57 2.17-1.03 7.76-5.31 8.51-7.03 1.2-2.74.93-6.55-.6-8.48-.9-1.14-1.37-1.99-2.91-1.71l-.92-.38c1.84-.34 4.17-.07 5.26 1.31 1.93 2.44 1.09 6.94-.08 9.61-.9 2.05-8.45 8.24-10.34 8.75l-.36.1zm1.973-10.04c.623.096.488.563 1.212.49l.38-.038c.08-.486.08-1.136-.01-1.613-.72-.15-.91-.68-1.41-.15-.28.3-.64.82-.84 1.27l.66.05z"/>
  </symbol>

  <symbol id="icon-jonny" viewBox="49 15 176 230">
    <title>Jonny Gerig Meyer</title>
    <path d="M137.29 81.786c.517.818 1.247 2.09 1.073 3.037-2.824-.87-3.568-3.82-6.436-4.647-.355.483 1.506 1.236 1.308 2.154-2.903.332-5.646-1.978-8.28-2.51-.238.84 1.814.924 1.61 2.322-3.643-.177-7.117-2.057-11.8-1.788.402.432 1.6.068 1.787.716-.453 1.243-1.942 1.822-3.008 1.968-2.348.316-5.513-.355-7.182.894-.864.646-.676 1.288-1.786 1.786.236-3.82 5.826-3.824 9.832-4.468-.26-.517-1.272-.28-1.252-1.074.82-.976 2.767-1.2 4.07-1.105 2.72.21 5.583 1.5 7.55 2.18.3-.54-1.276-.74-.894-1.96 2.703-.37 4.946 1.25 7.33 1.79.356-.25-.72-.58-.357-1.43 2.804-.73 3.962.99 5.782 2.41-.233-.84-.15-.88.282-1.84 2.61.61 4.57 3.15 5.19 5.16-.94.38-1.1-.9-1.61-1.43-.82-.83-2.05-1.21-2.86-1.97-.15-.03-.18-.17-.36-.17M163.56 87c.91-.53 1.81-3.07 3.24-1.95-.24 1.49-1.52 2.475-1.81 3.916 1.92-.084 2.54-2.29 4.47-1.79.42.44.6 1.14.6 1.696 1.01 1.183 1.99.023 3.15.446.77.28 1.96.276 2.79.828.99.664 1.703 2.19 2.21 3.11-1.73.23-3.918-1.996-5.368-3.217-1.513-.04-3.316.21-4.11-.54-.275-.57-.064-.79 0-1.43-1.24-.09-2.86 2.7-4.92 1.79-.374-1.31 1.24-2.73 1.88-3.58-1.58.38-2.15 3.33-4.11 3.93.127-1.53 1.35-3.39 1.79-5.18.92.1.44 1.51.18 1.96"/>
    <path d="M138.542 94.658c-3.342-3.146-6.544-8.91-11.965-9.354-6.714-.553-11.78 3.718-15.744 5.955-1.268.71-.312 1.44-.18.89.905-.29 1.562-.83 2.326-1.25-.06.41.02.68.17.89 4.8 1.69 10.73 1.71 17.16 1.43 1.88.62 2.86 3.08 5.18 2.68-.16-1.15-1.44-1.65-2.15-2.5-.69-.84-.38-2.34-.58-3.29 1.51 1.31 2.82 2.78 4.15 4 .75.69 1.37 2.03 2.5 1.79.42-.62-.65-1.02-.9-1.26zm-23.296-3.83c2.512-1.658 4.975-1.92 7.208-3.86.423-.07.83-.114 1.226-.145-1.484 1.38-.255 5.462.203 5.688-3.53.49-5.827-.85-8.637-1.68zm17.218 2.756c-.765-.308-1.18-.965-2.145-1.073.16-.26.47-2.64.46-3.89.48.31.94.64 1.38 1-.44 1.02-.05 3 .29 3.97zm21.166-2.816h.358c.934 1.152.595 2.73.894 4.112.273 1.265.83 2.61 1.197 3.934 1.37 4.962.91 12.38 3.27 16.624 1.23 2.22 3.09 3.682 3.93 5.9.64 1.693.89 5.715 0 7.152-.46.737-1.95.864-2.68 1.43-1.7 1.313-2.12 4.934-4.53 5.393-4.42.842-10.11-3.297-13.41-5.215-.2-.812.25-1.692.05-2.5-6.39-.412-11.23-1.63-12.35-7.308-2.42 1.658-2.68-.21.01-1.632 1.31.968 1.88 2.548 2.47 3.62 3.35 6.057 14.83 2.478 17.19 8.717-1.06-.048-1.44-1.356-2.5-1.968-1.14-.657-2.5-.876-3.94-1.253-.42 2.978 2.55 3.66 4.65 4.47 2.01.777 4.88 2.157 7.33 1.788 2.41-.366 2.4-3.557 4.08-4.926.87-.712 1.94-.217 2.89-.972 1.95-5.36-2.14-8.435-4.2-11.877-1.28-2.134-1.38-4.878-1.71-7.968-.64-6-1.9-11.07-3.04-16.99v-.54"/>
    <path d="M143.728 117.54c-1.28-.644-2.472-2.882-5.365-2.503v-.537c2.707-.72 4.638 0 5.365 3.04m15.73 29.675c-1.18.29-2.057-1.535-3.218-1.968-2.487-.925-6.41.113-9.372-.76-2.003-.593-3.937-2.392-5.286-2.814-1.595-.5-3.437-.062-4.65-.716.096-.144.188-.29.18-.535 1.406.266 3.114-.046 4.827.535 2.24.76 3.38 2.73 6.97 2.83 4.22.12 8.97-.665 10.54 3.428m2.68 4.827c-.83-2.186-2.6-3.54-4.47-4.29-2.5-1.004-5.5-.147-9.3-.537-3.26-.337-5.86-2.23-9.12-3.575-5.48-2.263-14.08-2.937-20.74-1.61-.95.187-3.07.9-3.71 1.977-.1.032-.52.54-.52.584 4.46 3.72 12.07 9.54 17.45 13 1.95 1.26 3.85 3.78 5.71 4.3 2.88.8 10.49-.09 13.65-.62 2.78-.47 5.41-5.45 6.73-7.61.41-.67 2.4-1.6 2.61-2.7.74.62.87.54 1.68 1.1zm-11.27 7.865c-1.71.508-4.38-.09-6.35-.015-2.16.08-4.54.976-6.53.55-1.49-.316-3.63-2.93-5.52-4.15-5.15-3.333-11.56-9.037-15.42-11.7-.15-.293.08-.583.51-.658 1.97-.95 10.65-2.168 15.59-1.37 5.64.915 9.81 5.504 14.71 6.153 2.38.315 4.83-1.035 7.1-.788 1.98.21 3.3 1.03 4.5 1.98-2.69 3.05-4.61 8.8-8.61 9.99z"/>
    <path d="M155.884 161.16c.31 1.215-.895 2.946-1.61 4.648-.602 1.435-1.234 3.635-2.86 3.93-1.575.29-4.016-.952-6.077-1.428-2.06-.477-4.387-.895-6.437-.895-1.044 0-1.832.342-2.68.18-1.693-.324-3.493-2.956-4.472-3.932-1.675-1.68-3.17-2.875-4.468-3.756-.03-.208.04-.317.18-.356-.03-.2.038-.31.178-.35 3.307 2.12 5.52 5.33 8.582 7.69 3.662-.57 6.46-.62 9.652.15 1.743.42 4.057 2.17 5.185 2 3.122-.48 2.328-6.29 4.827-7.86"/>
    <path d="M180.5 199.25c-3.762-2.062-8.032-5.165-11.925-7.164-1.86-.956-10.044-5.266-13.243-6.5.307-.99.653-1.932 1.09-2.795 1.926-3.8 5.098-6.94 7.686-10.18 2.66-3.33 5.062-6.75 7.15-10.9 5.143-10.23 10.575-23.86 7.51-39.15-.74-3.68-1.777-7.7-1.61-11.44.14-3.1 1.286-6.61 1.968-10.01.22-1.09.52-2.26.802-3.44 1.102-5.66 6.126-8.7 5.27-12.8-.366-1.75-2.532-2.9-3.216-4.49-2.363-5.5 2.588-12.9.603-19.5-.682-2.26-3.21-4.65-3.463-6.41-.25-1.74-.623-3.75-.936-4.92-1.51-5.62-7.117-5.88-9.79-10.28-.584-.96.086-2.04-.552-3.12-1.294-2.17-4.765-4.56-6.955-6.53-2.19-1.96-4.91-4.65-7.16-5.18-2.3-.54-7.11 1.39-9.3-.18-1.23-.88-1.1-3.74-2.33-4.64-2.93-2.15-11.67-2.55-15.71-3.64-4.35 0-6.28 3.72-10.63 3.72-2.8.23-7.78-.76-10.1.71-3.21 2.04-3.06 6.06-6.3 6.55-.92.14-1.93-.32-3.22-.18-1.92.21-4.39 1.4-6.8 2.15-5.78 1.79-17.1 3.43-20.58 7.5-1.6 1.87.23 5.98-1.24 8.23-2.33 3.58-9 4.91-9.29 8.94-.08 1.08 1.03 2.57.89 3.76-.25 2.19-5.52 2.9-6.6 5.56-.83 2.02.73 5.04.34 7.85-.36 2.64-1.1 5.6-.9 7.87.17 1.87 1.2 3.49.89 5.37-.26 1.58-3.21 2.81-3.54 4.6-.2 1.08.97 2.66 1.03 3.62.03.46 1.18 3.67 2.09 5.15-1.63 2.9-2.5 6.74-2.5 9.507v6.08c1 6.32 1.85 14.15 6.28 17.34 1.64 1.18 3.81 1.55 5.9 1.96 3.44 4.1 5.07 13.39 6.09 19.85 1.01 6.373 2.79 13.31 3.72 19.3 1.37 8.87 2.09 18.18 2.61 27.796-.16.637-.54 1.95-.54 2.09-1.07 4.468-2.19 7.81-4.7 10.64-2.44 2.75-7.35 5.008-9.74 7.847-1.17 1.46 4.67-2.67 6.15-3.82 3.32-2.55 5.91-4.56 7.39-8.76.4-1.16 1.02-1.17 1.05-.65.15 2.88.87 4.61 1.03 5.63.46 2.67 26.17 30.34 30.07 30.56 0 .01 2.33 1.32 2.33 1.33.03-.01 2.91.7 3 .67.04-.01 2.31-.98 2.34-1l8.33-3.33c3.17-1.13 20.54-9.16 20.76-9.7 3.5-8.49 5.98-16.94 11.8-23.24 1.91-2.07 2.96-3.934 3.82-6.31 1.09-3.066 1.86-6.23 1-8.71-.03-.17-1.54-3.94-1.61-5.134 5.07 2.87 13.96 7.78 17.083 9.33 1.77.875 2.383 1.725 4.55 2.93 2.07 1.145 10.72 7.412 11.695 9.02 2.98 4.895 13.74 10.014 23.876 12.64 2.726.71 7.68 1.27 9.68.96-6-1.88-13.82-3.61-20.2-5.72-6.22-2.06-19.15-14.87-23.298-17.15zM50.988 88.71c.503-1.196 3.73-2.778 3.842-4.92.086-1.67-1.285-4.078-1.377-5.53-.142-2.197-.174-5.07.175-7.56.372-2.65.435-5.755 1.252-7.508 1.17-2.51 5.797-3.143 6.01-5.65.136-1.613-2.025-2.794-1.9-4.003.358-3.41 7.695-4.56 9.568-7.49 1.75-2.75.718-7.55 2.62-9.45 3.6-3.61 12.778-5.22 18.56-7.02 2.126-.67 4.42-1.72 6.258-1.97 1.593-.22 2.744.25 3.93 0 2.735-.56 4.038-4.64 6.462-6.33 1.277-.9 8.566.16 10.104-.22 4.376-1.1 5.568-4.01 10.328-3.92 2.333.04 4.693 1.92 7.79 2.06 2.403.11 5.81.11 6.97.89 1.326.89 1.424 4.91 2.712 5.74 2.616 1.67 6.148-1.48 9.448-.74 1.963.44 5.033 5 7.02 6.75 2.28 2.01 4.284 2.61 5.493 4.68.723 1.24 1.137 2.83 1.787 3.75 2.39 3.41 7.93 5.39 9.012 9.79.383 1.56 1.058 3.24 1.357 4.68.43 2.1 2.62 4.86 3.16 6.92 1.52 5.89-2.72 13.98-.3 19.17.71 1.53 2.79 2.87 3.04 4.81.22 1.69-.86 2.6-1.6 4.25-.58 1.3-1.45 2.59-2.06 4.07.14-1.04.2-2.04.08-2.94-.3-2.25-2.13-4.15-2.68-6.44-.85-3.48.08-7.3-.72-10.37-.44-1.7-1.48-3.12-1.97-5.01-1.59-6.1-1.28-12.46-4.77-16.08-2.71-2.82-8.18-4.93-12.4-6.63-3.25-1.3-7.32-4.977-10.88-5.48-4.55-.65-9.49 1.402-14.51.83-9.23-1.047-22.82-3.17-26.09 3.82-.76 1.62.4 3.054-.55 5.12-1.03 2.22-6.55 3.25-6.62 5.9-.06 2.24 3.13 2.42 3.21 5.183.05 1.84-3.04 3.63-3.88 4.65-.99 1.2-1.98 3.93-3.46 5.176-1.69 1.44-3.51 3.03-5.01 3.58-2.29.84-5.6.72-7.16 1.97-1.97 1.585-2.65 5.65-3.21 8.76-1.35 7.4-2.52 13.9-2.72 21.92-.06 2.27.45 9.63-1.24 9.93-2.84.504-2.65-7.7-3.48-9.31-.82-1-2.97.534-3.66-.56-.16-.95-1.38-4.734-1.22-5.68.11-.704.43-3.68-.25-4.365.07-.76-2.79-.36-3.72-.67-2.35-1.3-3.37-4.67-6.68-4.12-1.62.27-3 1.49-4.11 3.16-.46-2.41-2.54-6.486-2.04-7.68zm106.784 106.683c-.004 2.908-.216 3.63-1.24 6.76-.762 2.328-1.48 2.683-3.348 4.708-5.146 5.58-8.954 15.07-11.745 22.19-.57 1.44-18.82 10.63-32.72 12.8-8.76-3.17-31.79-26.92-32.05-34.45-.66-19.4-2.39-35.82-6.67-52.05-1.27-4.81-2.37-17.42-4.69-22.3.07.05 1.87 1.14 1.94 1.19 1.06.82 3.94 3.73 4.06 5.31 1.11 14.27 5.09 24.37 12.38 32.78.9 1.04 3.69 2.3 5.14 2.62-1.66-2.42-5.56-4.32-7.44-6.77-5.55-7.17-9.87-26.53-8.91-27.17-.2-1.29-.23-8.59.08-10.57.18-1.21-.48-2.31-1.22-2.87-1.24 2.64-.02 6.18-.21 9.85-1.59-1.71-1.45-3.83-2.99-5-3.38-2.58-9.56.03-12.24-3.34-4.41-5.53-6.73-20.39-3.56-28.84 1-2.65 3.08-6.48 5.9-6.26 3.19.26 3.16 5.72 7.64 5.1.15.06.58.03.91-.13-.04 2.61.92 9.22 1.35 10.84.47.96 3.01-.83 3.68-.06.71 2.66.73 10.65 4.12 10.36 2.26-.19 1.91-7.79 2.04-10.76.36-8.22 1.34-14.39 2.7-21.75.55-2.98 1.17-8.19 3.11-9.66 1.42-1.07 4.87-.52 7.03-1.35 1.44-.56 3.44-2.75 5.13-4.19 1.74-1.47 2.71-3.41 3.81-4.76 1.06-1.29 4.09-3.81 3.88-5.96-.22-2.29-3.47-3.01-3.22-5 .14-1.12 2.36-2 3.22-2.5 1.18-.69 3.52-1.09 3.98-2 .85-1.7-.09-4.43.31-5.326 3.44-7.78 17.74-4.234 26.87-3.68 3.99.24 9.94-1.6 13.53-.62 3.33.906 6.81 3.77 10.37 5.19 3.57 1.43 7.78 3.25 10.19 5.19 4.8 3.87 4 10.03 5.54 16.265.43 1.757 1.73 3.79 2.15 5.9.6 3.09-.52 6.78.13 9.8.52 2.41 3.09 4.3 3.27 6.65.21 2.785-.99 6.546-1.61 9.657-.69 3.43-1.75 6.507-1.97 9.48-.58 7.652 2.94 14.41 2.68 21.81-.27 7.59-2.33 14.263-4.65 20.02-2.27 5.63-5.32 12.03-8.41 16.27-3.46 4.77-8.31 8.78-10.89 14.173-1.92 4.01-1.73 8.52-3.92 12.16-1.3 2.16-3.14 4.14-5.39 5.31-6.5 3.38-14.01-.64-19.62-2.33-2.247-.67-5.31-.63-7.2-1.6-4.36-2.24-6.517-7.73-8.227-12.335-.43-1.16-.79-3.25-1.965-3.39 2.62 7.26 3.95 13.49 9.4 16.61 2.18 1.25 5.47 1.48 8.69 2.62 1.69.595 3.07.93 4.63 1.356-.69 4.27-5.85 6.78-8.78 8.56-2.947 1.78-6.32 3.408-7.33 6.618 1.26-.55 1.64-1.8 2.68-2.687 3.235-2.73 8.48-4.11 11.63-6.716.885-.73 3.104-3.913 3.21-5.31 1.502.39 2.94.668 4.29.77 7.94.61 12.2-2.52 15.012-7.69 1.48-2.73 2.08-4.31 2.95-7.2.84.58 2.51 4.92 2.51 7.827z"/>
    <path d="M176.867 100.178c-.275-2.694-3.75-2.28-6.505-3.555-2.154-1-4.6-2.92-6.385-3.103-3.463-.348-5.952 1.64-7.022 3.28 1.69-.137 2.953-1.607 5.184-1.785 2.96-.24 5.81 1.234 7.86 2.323-2.8-1.256-6.68-.942-9.3 0-1.14.41-2.81.9-2.69 1.968.07-.052.15-.098.22-.147.82 1.12 3.26 1.73 4.78 1.93 4.44.57 8.16.69 11.26 2.32.26-2.45-1.51-4.31-3.04-5.54 1.35.67 3.29.76 4.29 1.79.48 1.14-.05 3.59.18 4.47.99-.24 1.25-2.85 1.14-3.96zm-17.734-.985c.295-1.236 3.888-1.864 6.712-1.762-.618.96.46 2.8.585 3.13-2.672-.03-5.293-1.06-7.297-1.36zm13.145.498c.66.71 1.074 1.58 1.123 2.66-.55-.4-1.39-.51-1.96-.89.07-.17.69-1.11.84-1.76zm-105.296 24.3c-2.72 1.45-8.773 1.66-9.42-1.49-.807-3.92 2.775-5.98 5.152-7.6.177-.82.487-2.79 1.094-3.18 1.432.38.795 3.64.363 4.15-.37 1.01.32 4.59-.36 5.29-1.01-.1-.77-2.93-.87-3.73-2.04.77-5.48 2.11-4.54 5.08.75 2.37 5.34 1.79 7.94 1.16-.94-6.51-.37-13.66-3.3-17.91-1.77-2.58-4.36-2.23-6.96-4.01-.02-.19-.1-1.42.03-1.46-.04-.3.16-.34.17-.17 2.74 1.63 5.64 2.58 7.44 5.15 1.51 2.16 1.77 5.54 2.32 8.79.53 3.16 1.12 6.6.99 9.95z"/>
  </symbol>

  <symbol id="icon-twitter" viewBox="0 0 16 16">
    <title>twitter</title>
    <path class="path1" d="M16 3.538c-0.588 0.263-1.222 0.438-1.884 0.516 0.678-0.406 1.197-1.050 1.444-1.816-0.634 0.375-1.338 0.65-2.084 0.797-0.6-0.638-1.453-1.034-2.397-1.034-1.813 0-3.281 1.469-3.281 3.281 0 0.256 0.028 0.506 0.084 0.747-2.728-0.138-5.147-1.444-6.766-3.431-0.281 0.484-0.444 1.050-0.444 1.65 0 1.138 0.578 2.144 1.459 2.731-0.538-0.016-1.044-0.166-1.488-0.409 0 0.013 0 0.028 0 0.041 0 1.591 1.131 2.919 2.634 3.219-0.275 0.075-0.566 0.116-0.866 0.116-0.212 0-0.416-0.022-0.619-0.059 0.419 1.303 1.631 2.253 3.066 2.281-1.125 0.881-2.538 1.406-4.078 1.406-0.266 0-0.525-0.016-0.784-0.047 1.456 0.934 3.181 1.475 5.034 1.475 6.037 0 9.341-5.003 9.341-9.341 0-0.144-0.003-0.284-0.009-0.425 0.641-0.459 1.197-1.038 1.637-1.697z"></path>
  </symbol>

  <symbol id="icon-lanyrd" viewBox="0 0 16 16">
    <title>lanyrd</title>
    <path class="path1" d="M14.5 0h-13c-0.825 0-1.5 0.675-1.5 1.5v13c0 0.825 0.675 1.5 1.5 1.5h13c0.825 0 1.5-0.675 1.5-1.5v-13c0-0.825-0.675-1.5-1.5-1.5zM12.85 12.012l-5.444 1.781c-1.244 0.406-1.369 0.341-1.931-1.4l-1.375-4.259c-0.328-1.009-1.328-3.728-1.497-4.25-0.313-0.969-0.313-1.022 1.516-1.616 1.431-0.469 1.491-0.453 2.009 1.163 0.419 1.3 0.688 2.35 1.119 3.678l1.172 3.625 3.744-1.225c0.738-0.244 0.984-0.231 1.194 0.678l0.15 0.688c0.175 0.797-0.228 1-0.656 1.137z"></path>
  </symbol>

  <symbol id="icon-dribbble" viewBox="0 0 16 16">
    <title>dribbble</title>
    <path class="path1" d="M8 16c-4.412 0-8-3.588-8-8s3.587-8 8-8c4.412 0 8 3.587 8 8s-3.588 8-8 8v0zM14.747 9.094c-0.234-0.075-2.116-0.634-4.256-0.291 0.894 2.456 1.256 4.456 1.328 4.872 1.531-1.037 2.625-2.678 2.928-4.581v0zM10.669 14.3c-0.103-0.6-0.497-2.688-1.456-5.181-0.016 0.006-0.031 0.009-0.044 0.016-3.856 1.344-5.241 4.016-5.362 4.266 1.159 0.903 2.616 1.444 4.194 1.444 0.947 0 1.85-0.194 2.669-0.544v0zM2.922 12.578c0.156-0.266 2.031-3.369 5.553-4.509 0.088-0.028 0.178-0.056 0.269-0.081-0.172-0.388-0.359-0.778-0.553-1.159-3.409 1.022-6.722 0.978-7.022 0.975-0.003 0.069-0.003 0.138-0.003 0.209 0 1.753 0.666 3.356 1.756 4.566v0zM1.313 6.609c0.306 0.003 3.122 0.016 6.319-0.831-1.131-2.013-2.353-3.706-2.534-3.953-1.913 0.903-3.344 2.666-3.784 4.784v0zM6.4 1.366c0.188 0.253 1.431 1.944 2.55 4 2.431-0.909 3.459-2.294 3.581-2.469-1.206-1.072-2.794-1.722-4.531-1.722-0.55 0.003-1.088 0.069-1.6 0.191v0zM13.291 3.691c-0.144 0.194-1.291 1.663-3.816 2.694 0.159 0.325 0.313 0.656 0.453 0.991 0.050 0.119 0.1 0.234 0.147 0.353 2.275-0.284 4.534 0.172 4.759 0.219-0.016-1.612-0.594-3.094-1.544-4.256v0z"></path>
  </symbol>

  <symbol id="icon-github" viewBox="0 0 16 16">
    <title>github</title>
    <path class="path1" d="M8 0.198c-4.418 0-8 3.582-8 8 0 3.535 2.292 6.533 5.471 7.591 0.4 0.074 0.547-0.174 0.547-0.385 0-0.191-0.008-0.821-0.011-1.489-2.226 0.484-2.695-0.944-2.695-0.944-0.364-0.925-0.888-1.171-0.888-1.171-0.726-0.497 0.055-0.486 0.055-0.486 0.803 0.056 1.226 0.824 1.226 0.824 0.714 1.223 1.872 0.869 2.328 0.665 0.072-0.517 0.279-0.87 0.508-1.070-1.777-0.202-3.645-0.888-3.645-3.954 0-0.873 0.313-1.587 0.824-2.147-0.083-0.202-0.357-1.015 0.077-2.117 0 0 0.672-0.215 2.201 0.82 0.638-0.177 1.322-0.266 2.002-0.269 0.68 0.003 1.365 0.092 2.004 0.269 1.527-1.035 2.198-0.82 2.198-0.82 0.435 1.102 0.162 1.916 0.079 2.117 0.513 0.56 0.823 1.274 0.823 2.147 0 3.073-1.872 3.749-3.653 3.947 0.287 0.248 0.543 0.735 0.543 1.481 0 1.070-0.009 1.932-0.009 2.195 0 0.213 0.144 0.462 0.55 0.384 3.177-1.059 5.466-4.057 5.466-7.59 0-4.418-3.582-8-8-8z"></path>
  </symbol>

  <symbol id="icon-stackoverflow" viewBox="0 0 16 16">
    <title>stackoverflow</title>
    <path class="path1" d="M16 10v6h-16v-6h2v4h12v-4zM3 11h10v2h-10zM3.237 8.835l0.433-1.953 9.763 2.164-0.433 1.953zM4.37 4.821l0.845-1.813 9.063 4.226-0.845 1.813zM15.496 5.648l-1.218 1.587-7.934-6.088 0.88-1.147h0.91z"></path>
  </symbol>
</defs>
</svg>
