<?xml version="1.0" encoding="UTF-8" standalone="no"?>
<svg viewBox="0 0 177 83" version="1.1" xmlns="http://www.w3.org/2000/svg" xmlns:xlink="http://www.w3.org/1999/xlink" xmlns:sketch="http://www.bohemiancoding.com/sketch/ns">
    <title>OddBird Logo</title>
    <defs>
        <linearGradient x1="-0.000643315486%" y1="49.99998%" x2="99.998349%" y2="49.99998%" id="linearGradient-1">
            <stop stop-color="#FFB380" offset="0%"></stop>
            <stop stop-color="#FF8B3D" offset="100%"></stop>
        </linearGradient>
    </defs>
    <g id="oddbird_logo" sketch:type="MSLayerGroup">
        <path d="M141.192,27.222 C137.421,25.571 126.579,20.622 121.63,22.272 C118.256,23.396 114.322,31.679 111.731,34.055 C111.467,34.298 111.142,34.573 110.777,34.864 C103.721,21.42 90,13.847 80.876,16.391 C74.657,18.124 68.948,25.253 66.355,34.531 C61.866,31.842 59.518,27.304 55.594,23.261 C52.455,20.026 48.296,21.37 44.66,23.048 C37.492,26.356 28.052,31.269 28.374,38.949 C32.597,35.912 36.67,36.799 37.994,42.311 C38.251,43.354 40.643,38.754 43.42,37.694 C46.6,36.481 50.126,39.41 50.774,42.612 C50.927,43.177 53.687,39.152 56.436,40.465 C58.414,41.409 59.593,45.595 60.296,45.128 C62.303,43.796 63.658,42.301 65.099,41.176 C64.616,45.891 64.937,50.912 66.341,55.914 C66.419,56.195 66.508,56.471 66.591,56.75 C67.543,47.879 72.473,40.548 77.949,39.02 C85.696,36.861 98.044,44.816 101.714,57.893 C104.442,67.616 102.548,77.155 97.512,82.5 C98.116,82.396 98.719,82.271 99.318,82.103 C112.441,78.422 118.946,60.726 113.853,42.58 C113.754,42.23 113.644,41.889 113.538,41.545 C116.7,43.29 118.264,46.091 118.383,45.606 C119.583,40.05 126.287,39.89 130.651,43.88 C131.075,44.245 131.216,39.583 132.946,38.948 C135.624,37.963 138.617,39.459 141.43,41.127 C141.937,41.428 141.803,38.903 141.762,38.586 C141.599,37.376 141.689,36.078 143.052,35.666 C145.172,35.026 147.557,36.119 149.502,36.562 C148.91,32.347 144.793,28.796 141.192,27.222 L141.192,27.222 Z" id="Shape" fill="url(#linearGradient-1)" sketch:type="MSShapeGroup"></path>
        <g id="Group" transform="translate(85.000000, 1.000000)" fill="#FAB280" sketch:type="MSShapeGroup">
            <path d="M65.781,22.139 L66.609,22.139 C68.805,22.139 69.201,21.743 69.201,19.51 L69.201,4.355 C69.201,2.125 68.805,1.728 66.609,1.728 L65.781,1.728 L65.781,-0.07 L72.692,-0.07 C73.196,-0.07 73.917,-0.07 74.852,-0.107 C76.112,-0.142 77.444,-0.142 78.2,-0.142 C83.059,-0.142 85.974,0.901 88.314,3.53 C90.294,5.725 91.338,8.676 91.338,12.096 C91.338,16.451 89.538,20.196 86.479,22.282 C84.714,23.471 82.843,23.938 79.963,23.938 L65.78,23.938 L65.78,22.139 L65.781,22.139 Z M77.048,22.174 C80.576,22.174 82.484,21.418 83.852,19.51 C85.04,17.819 85.723,15.119 85.723,12.096 C85.723,7.703 84.32,4.537 81.728,2.953 C79.964,1.908 78.92,1.728 74.385,1.728 L74.385,19.833 C74.385,21.742 74.853,22.174 77.048,22.174 L77.048,22.174 Z" id="Shape"></path>
            <path d="M41.701,4.355 L41.701,19.17 C43.384,19.427 45.167,19.881 46.928,20.433 C46.902,20.163 46.885,19.868 46.885,19.509 L46.885,13.066 C47.281,13.031 47.46,13.031 47.641,13.031 C49.441,13.031 50.485,14.039 53.04,18.287 C55.415,22.211 55.487,22.318 57.144,23.937 L63.623,23.937 L63.623,22.281 L63.371,22.281 C61.932,22.281 61.571,21.994 59.88,19.402 C55.956,13.427 55.416,12.959 51.745,12.42 C53.904,12.275 54.912,12.024 55.92,11.34 C57.792,10.115 58.764,8.244 58.764,5.94 C58.764,2.198 56.389,-0.07 52.501,-0.07 L38.246,-0.07 L38.246,1.729 L39.11,1.729 C41.306,1.729 41.701,2.125 41.701,4.355 L41.701,4.355 Z M46.885,1.729 L49.153,1.729 C50.629,1.729 51.132,1.837 51.852,2.305 C52.968,3.025 53.581,4.428 53.581,6.336 C53.581,9.648 52.068,11.16 48.793,11.16 L46.886,11.16 L46.886,1.729 L46.885,1.729 Z" id="Shape"></path>
            <path d="M32.561,21.893 C31.913,21.581 31.758,20.903 31.758,19.51 L31.758,4.355 C31.758,2.988 31.829,2.628 32.19,2.268 C32.586,1.872 33.198,1.728 34.35,1.728 L35.142,1.728 L35.142,-0.07 L23.19,-0.07 L23.19,1.729 L23.982,1.729 C25.134,1.729 25.746,1.909 26.142,2.269 C26.501,2.629 26.574,2.989 26.574,4.356 L26.574,19.51 C26.574,21.742 26.178,22.139 23.982,22.139 L23.19,22.139 L23.19,23.938 L30.897,23.938 C31.442,23.204 31.996,22.51 32.561,21.893 L32.561,21.893 Z" id="Shape"></path>
            <path d="M2.822,2.269 C3.181,2.629 3.254,2.989 3.254,4.356 L3.254,13.233 C4.98,13.541 6.716,14.067 8.438,14.772 L8.438,12.493 L9.698,12.493 C11.929,12.493 12.542,12.636 13.334,13.249 C14.378,14.077 14.953,15.589 14.953,17.495 C14.953,17.793 14.934,18.085 14.906,18.371 C16.313,19.366 17.683,20.473 18.991,21.695 C19.97,20.562 20.497,19.09 20.497,17.387 C20.497,13.752 18.517,11.737 14.233,10.944 C15.565,10.837 16.141,10.657 16.897,10.188 C18.373,9.252 19.237,7.633 19.237,5.797 C19.237,2.449 16.609,-0.07 13.117,-0.07 L-0.058,-0.07 L-0.058,1.729 L0.662,1.729 C1.814,1.729 2.426,1.873 2.822,2.269 L2.822,2.269 Z M8.438,2.089 L9.122,2.089 C11.426,2.089 11.93,2.16 12.685,2.736 C13.585,3.384 14.017,4.465 14.017,6.156 C14.017,7.595 13.693,8.82 13.153,9.539 C12.506,10.367 11.641,10.656 9.553,10.656 L8.438,10.656 L8.438,2.089 L8.438,2.089 Z" id="Shape"></path>
        </g>
        <g id="Group" fill="#FF8B3D" sketch:type="MSShapeGroup">
            <path d="M3.859,4.061 C6.558,1.325 9.798,0.03 13.83,0.03 C21.209,0.03 26.716,5.428 26.716,12.628 C26.716,20.296 21.137,25.839 13.47,25.839 C5.875,25.839 0.332,20.441 0.332,13.097 C0.332,9.531 1.555,6.436 3.859,4.061 L3.859,4.061 Z M13.541,23.605 C15.917,23.605 17.897,22.669 19.049,21.085 C20.237,19.431 21.065,15.974 21.065,12.698 C21.065,9.206 20.166,5.968 18.761,4.311 C17.61,3.015 15.63,2.188 13.578,2.188 C8.682,2.188 5.982,5.93 5.982,12.663 C5.982,19.754 8.646,23.605 13.541,23.605 L13.541,23.605 Z" id="Shape"></path>
            <path d="M60.35,5.355 L60.35,20.51 C60.35,22.579 59.991,23.066 58.191,23.126 C58.727,23.73 59.234,24.335 59.725,24.938 L68.266,24.938 C68.635,24.317 69.021,23.717 69.418,23.139 C69.033,23.162 68.628,23.174 68.196,23.174 C66.001,23.174 65.533,22.742 65.533,20.834 L65.533,2.729 C70.068,2.729 71.112,2.909 72.876,3.954 C75.468,5.538 76.871,8.704 76.871,13.097 C76.871,14.146 76.784,15.151 76.627,16.093 C77.831,15.373 79.072,14.818 80.338,14.465 C81.014,14.277 81.716,14.136 82.439,14.042 C82.458,13.728 82.488,13.418 82.488,13.097 C82.488,9.677 81.444,6.726 79.464,4.531 C77.124,1.902 74.209,0.859 69.35,0.859 C68.594,0.859 67.262,0.859 66.002,0.894 C65.066,0.931 64.346,0.931 63.842,0.931 L56.93,0.931 L56.93,2.73 L57.758,2.73 C59.954,2.729 60.35,3.125 60.35,5.355 L60.35,5.355 Z" id="Shape"></path>
            <path d="M39.806,23.161 C37.994,23.098 37.573,22.604 37.573,20.834 L37.573,2.729 C42.108,2.729 43.152,2.909 44.916,3.954 C47.508,5.538 48.911,8.704 48.911,13.097 C48.911,15.745 48.387,18.145 47.458,19.836 C48.579,19.513 49.757,19.289 50.934,19.289 C51.645,19.289 52.323,19.376 52.973,19.53 C53.969,17.68 54.528,15.487 54.528,13.096 C54.528,9.676 53.484,6.725 51.504,4.53 C49.164,1.901 46.249,0.858 41.39,0.858 C40.634,0.858 39.302,0.858 38.042,0.893 C37.104,0.93 36.384,0.93 35.88,0.93 L28.969,0.93 L28.969,2.729 L29.797,2.729 C31.993,2.729 32.389,3.125 32.389,5.356 L32.389,20.51 C32.389,22.742 31.993,23.139 29.797,23.139 L28.969,23.139 L28.969,24.938 L36.591,24.938 C37.679,24.284 38.766,23.693 39.806,23.161 L39.806,23.161 Z" id="Shape"></path>
        </g>
    </g>
</svg>
