<svg xmlns="http://www.w3.org/2000/svg" viewBox="0 0 2079.4 529.3">
<g>
	<path d="M120,200.4c-3.6-2.9-12.6,9.2-9.2,12.4c3,2.9,3.7-3.2,4.1-3.7c1.1-1.7,1,2.5,2.9,2.9c4.2,0.9,5.1-6.3,8.5-3.8
		c1.6,1.2,1.2,4.3,3.1,4.8c4.5,1.3,7.6-4.5,9.9-3.2c1.2,0.7,1.3,2.1,2.1,2.9c3.4,3.7,8.3-1,12.5-0.3c6.1,1,14.5,11.6,13.7,8
		c-0.7-3.6-7.6-9.4-12-10.8c-4.4-1.5-10.3,2-12.2-0.1c-1.2-1.3-1.6-2.9-2.9-3.5c-2.7-1.2-8.5,4-9.9,2.5c-2.1-2.2-0.9-4-3.5-4.4
		c-3.5-0.6-6.2,3.6-7.6,2.5C117.5,205.1,121.6,201.7,120,200.4L120,200.4z M144.9,235c2.4-1,3.2-4.7,2.7-6.2c-1.2-3,8.7,2.4,9.6,2.5
		C162.8,232,152.9,235,144.9,235z M153.5,227.5c-3.6-1.7-6.2-5.1-9.4-5.7c-4.8-0.8-8.4,2-12.5,3.6c-1.5,0.6-4.7-0.1-4.9,2.4
		c2,0.2,3.7,1,5.4,0.4c-0.3,2,0.5,3,1.1,4.4c-1.9-0.6-2.2-2.1-4.3-2.3c1.3,10.3,30.8,9.5,35.2,1.3
		C161.6,228.9,157.5,229.4,153.5,227.5L153.5,227.5z M109.2,301.4c0.2-2.3,4.3-2.9,6.7-4.6c9.5-6.6,1.5-15-7.8-17.5
		c1.7-2.9,4.7-0.4,6.7,0.4c4.7,1.9,9.7,3.7,12.9,7c4.5,4.6,4.9,13.5,9.4,18.8c4.5,5.4,10.3,6.6,14.4,12.6c0.8,1.2,5.2,6.6,3.2,7.5
		s-2.7-4-4.9-6.1c-1.4-1.3-10.9-7.8-14.5-12c-6.5-7.4-11.9-23.7-12.4-17.4C122.2,297.3,116.5,301.1,109.2,301.4"/>
	<path d="M98.6,293.5c0.6-1.8,4,1.3,3.7-1.2c-0.2-1.9-7.4,1.5-11,1.6c-3.2,0.1,5.4-5.3,10.8-4.9c2.7,0.2,7.2,2,7.1,4.6
		C108.9,297.4,96.9,298.3,98.6,293.5L98.6,293.5z M133.1,337.8c-9.6-1.3-22.5-4.8-33.3-2.3c-2.6,0.6-5.6,2-8.7,1.4
		c-2.8-0.5-3.8-3.3-6.6-4.4c-3.3-1.4-3.3,0.1-6.6-1.5c3.6-1.3,4.8-4,9.4-3.8c3.5,0.1,7,4.8,11.4,4.5c16.9-1.1,25.4,4.7,22.5,0.5
		c-3.9-5.7-16.6-2.2-23.2-3.8c-4.3-1-7.6-5.7-11.5-5c-4.4,0.8-11.4,4.8-13.3,8.3c3,2.8,6.3,0.6,10.5,2.4c2.8,1.2,4.1,6.2,7.3,6.7
		c3.3,0.5,7.1-2.1,10.4-2.5c7.8-1.1,13.4-1.4,19.8-0.7c0.7,0.1,3.7,0.6,4.4,0.7c-4.6,1.9-11.4,8.8-14.5,9.4
		c-3.2,0.7-7.4-2.2-12.6-1.9c-5.4,0.3-9.1,3-11.8,0.7c-2-2-3.7-4.3-4.8-7c-0.6-1.2-2.4-1.6-1.5,0.9c1.1,3,0.8,8,4.5,10.4
		c3.3,2.1,7.8-0.1,12.4-0.6c6-0.6,13.5,2,16,0s12.7-9.7,16-10.7C130.8,339,135,338.1,133.1,337.8z M111.6,372
		c-2.7,0.8-6.5-1.4-11-2.1c-5.5-0.9-8.4,0.3-12.1,1.6C92.2,361.8,108.7,364.9,111.6,372"/>
	<path d="M327.5,360.8c4.9-12.4,14-19.7,22.1-28c8.9-9.1,27.1-18.8,27.9-34.1c0.8-15.8-12.1-31.5-20-39.4c-9-8.9-37-24.5-34.7-28.8
		c4.6-8.7,11.7-47.8,10.9-60.2c-0.5-7.4-7.2-19.3-9.9-26.1c-2.9-7.3-0.8-14.7-2.8-22c-4.1-15.5-8.1-23.1-17.8-33
		c-20-20.3-47.9-36.2-80.6-39.7c-22.8-2.4-65.9,3.6-82,9C105.2,70.6,73.3,89.3,58.3,135c-2,5.5-0.1,11.6,4.8,14.9
		c-5.3,18.8-9.4,37.7-13.4,57.8c1.5,1.1,2.2,4.5,2.6,6.7c-11.8,0.3-20.8,5.2-23.4,13.2c1.2,0.7,3.2-1.1,4.3-0.3
		c-0.2,16.6,8.5,22.1,23.2,24.4c-0.2,13-1.7,26.8-0.8,41.2c0.6,10.8,3.5,23.4,5.4,36c1.7,11.1,2.2,18.4,4.2,29.9
		c-15.1-1.5-41.9,6.2-51.7,12.1s-3.7,7.8,2.8,3.1c8.2-6,25.2-10.5,39.4-11c3-0.1,10.5,2.2,11.5,1.9c3.1,17.3,8.2,33,20.1,40.9
		c1.9,1.2,9.9,5,13.4,5c4.7,0-2.2,10-0.2,11.2c24.8,13.2,43.9,43.1,80.6,45.1c13.1,0.7,40.7-5.2,44.7-6.4c3.3-1-1.7,9.2-1.7,9.2
		c-5.4,14.8-5.1,17.5,1,6.6c5.7-10.3,20.3-46.8,11.2-42.1c-5.9,3-7.6,2.5-2.5-4.8c1.7-2.4,7.4-11.9,10.2-36
		c2.8-23.6,0.8-40.1,12.6-55.3c3.2-4.2,13.4-23.9,13.4-31.3c3.4-3.3,6.6-4.3,8.8-9.9c5.8-14.3,27-29.2,28.7-44.9
		c1.4-13.1-4.3-24.2-11.8-27.7c-6.4-3-14.3-0.2-19.2,1.9c-1.6,0.6-3.2,1.4-4.7,2.2c-6,9-16.3,6.5-16.1,8.5
		c2.5,23.7-4.5,10.9-5.1,14.6c-1.7,9.6-5.3,24.8-5.3,19.3c0-4.3,1.6-17.1-1.3-17.9c-3.3-0.9-8.1,5.4-9.4,7.4
		c-2.1,3.3-4.7,8.8-4.9,5.4c-0.5-7.9,7.8-21.9,6.9-26.8c-0.5-2.8,2.2-3.7,5.5-4s7.3-1.2,8.7-3.8c-6-1-10.3-1-15.7-1.5
		c0.3-6.6,2.5-13.7,2.2-21.2c-0.2-5.1-20.3-21.7-18.2-29.2c0.8-3,12.7-12.5,6.2-13.1c-22.2-2.1-45.7-6-62.8-16.3
		c-8.8-5.2-20.3-15.6-22.8-18c-3.5-3.2-15.9-9.7-14.8-13.4c1.6-5.5,11.4-14.5,9.4-19.2c-4.6-10.8,6.8-10.4,11-11.7
		c1.7-0.5,11.5-5.8,9.4-6.8c-1.8-0.9-9.5,1-13.8,2.8c-3.5,1.4-13,5-12.1,8.5c3.6,13.3-7.6,27.1-13.6,27.3c-10.1,0.4-18.6,2.6-30.2,6
		c-11.6,3.4-17.8,11-17.2,6c0.3-2.6,13.4-37.8,43.7-53.1c23.8-12,48-19.7,69.9-22.3c14.8-1.7,42.4,1,57.1,4.6
		c36.6,9.1,69,28.9,77.5,66.8c1.5,6.5-0.8,19.7,1.8,26c3.3,8,11.4,12,10.1,23.2c-2.3,19.3-5,46.5-11.9,54.5
		c-10.4,12,1.9,7.9,4.1,8.8c7.3,2.9,36.5,22.2,45.2,34c4.8,6.5,10,22,0.5,34.5c-7.3,9.7-23.1,23.5-32,32.3
		c-15.1,14.9-18.1,36.6-18.8,50.8c-1.3,27.3,36,76.9,19.4,42.5c-3.1-6.4-9.4-17.8-11.2-25c-4.5-17.8-3.2-38.3,1.3-37.3
		c11.4,2.5,31.3,3.6,48.2,5.7c22,1,5.3-3.6-4.3-4.9C347.5,369.4,325.3,366.6,327.5,360.8z M56.8,207.9c-1.5-3.4,3.7,2.1,5.7,1.4
		c0.6-0.2-0.5-1.1,0.5-2.3c0.6-0.6,3.1,0.7,7.2,2.4c-2.6,0.1-5.1,0.5-7.6,1c-1.5,0.3-4.7,0.4-4.3,2.3c10.1-1.4,34.1-7.6,28.2,10.6
		c-7.6-6.6-17.5-8.6-31.7-9c-0.5-1.2-0.7-2.5-0.8-3.8c-0.1-1.8,1.1-0.4,2.8,0C57.5,210.7,57.4,209.4,56.8,207.9z M73.4,206.8
		c1.2-1.2,2.1,1.5,3.5,1.1s0.1-1.6,1-1.7c1.6-0.1,0.9,0.5,2.5,2.9c-2.1,0.2-4.1-0.3-7.6,0.1C73.7,208.6,72,208.2,73.4,206.8z
		 M59.4,230.7c0.6-1,2.3,2.1,3.7,2.2c7.1,1.2,15.2-2.7,20.1-4.6l1.3-0.6c-2.2,11.5-10.2,18.3-24.3,20.1
		C60.4,242.2,60.1,236.4,59.4,230.7z M70.8,222.8c4.4,0.1,9.8-0.5,11.7,2.1c-4.3,3.4-12.6,4.7-11.9,4.3
		C71.5,228.5,73.2,225.1,70.8,222.8z M58.7,220.5c0.3,2.1,4.9,2,4.3,2.5c-0.9,0.9-1.3,2.2-1.1,3.5c0,1,0.4,2,1.2,2.6
		c0.6,0.5-1.9-0.5-2.8-0.8c-1.5-4.1-3.7-6-4.7-10.6c8.8-0.2,15.2,0.4,21.6,2.6C71.7,220.8,63.6,218.5,58.7,220.5z M56.8,247.6
		c-14.9-1-21.2-5.5-21.3-20.8c6.6-0.5,19.3-1.6,18.3-5.4c-0.4-1.5-6.1-0.2-8.5,0.3c-3.2,0.7-6.5,0.4-9.7,1.1c0.7-2.4,2.6-3.1,5-4.1
		c3.9-1.6,7.6-1.2,12.9-1C57.7,226.3,57.3,234.4,56.8,247.6z M227.3,255.1L227.3,255.1c-2,6.7-2.5,15.8,0.1,18.7
		c7.6,0,6.5-8.9,12.9-10c0.6,8.2-0.1,15.3-0.9,23.9c-0.3,3.4-0.1,7.5,1.7,9.6c2.1-6.8,5.6-11.7,7.1-18.2c1.3-5.8,4.1-23.3,7.7-20.5
		c3.8,3.1,5.5-9.8,3.5-17.7c-0.5-2.1,9.7-0.4,13.2-7.3c7.3-2.1,12.1-9.4,21.2-6.1c7.7,2.8,11.8,12.4,10.8,23.5
		c-1.3,15-18.3,26.4-27.1,37.5c-3.6,4.6-4.9,10.7-8.2,14.9c-7.1,8.8-22.9,4-21.4-6.5c0.5-3.7,2.2-4.3,3.9-7.5c-3.1,0-6.4,3.2-7,6.1
		c-0.4,1.6-0.4,3.4-0.1,5c-7.3,12.7-16.1,32.3-24.2,45.4c-2.2,3.6-8.3,13.2-8.6,16.4c-0.1,1.5,0.3,4.4,1.6-0.4
		c10.3-11,18.3-28,25.1-42c2.1-4.4,9-7.3,11.1-11.9c3.1,2.1,4.7,4.5,8.8,3.8c2.5-0.4,1.5,7.7-2.6,15.3c-10,18.6-16,39.1-17.8,60.2
		c-2,21.2-3.3,35.1-14.5,47.1c-3.4,3.6-4.1,12.6,5.7,7.8c4.3-2.1,2.1,9.5-1,11.8c-2.3,1.8-9.7,3.9-11.7,4.2
		c-9.2,1.5-19.2,2.8-29,2.7c-40.4-0.8-57.8-25.7-83.4-39.9c-3.2-2.3,4.4-9.6,6.9-9.6c17.5,0,36.7-4,45.4-10.9c2.2-1.7,4-6.3,3-9.4
		c-2.4,2.4-3.1,4.7-5.5,6.5c-12.3,9.5-47.4,14.8-64.1,4.2c-12.7-8-17.9-30.5-21.6-51.7c-3.7-21.6-8.7-42.1-9.6-61
		c-0.6-13.4,1.2-26,1.4-37.5c11.9-0.7,20.1-9.2,21.5-10.7c2.5-2.6-2.1,13.1-5.4,21.7c-3.2,8-8.3,17.5-7.6,26.6
		c0.6,7.5,11.1,11.3,12.9,11.6c4.4,0.6-5,9.3-2.1,9.6c3.3,0.2,5.7-4.6,6.7-7.4c0.7-2,2.8-0.9,4.8-0.2c2,0.7,7.9,1.2,5.9,0
		c-10.7-6.3-26-3.6-24.2-20.1c0.9-8.7,6.6-16.6,9.2-26.7c2.8-10.6,3.2-21.1,6.4-29c3.8-0.2,8.4-1.8,12.5-1.5
		c1.9,0.3,3.7,1.1,5.3,2.3c-2.3,2.9-3.2,6.6-2.5,10.2c2.2,12.3,19,21.2,35,21.8c15.6,0.7,30.5-6.5,30.3-22.1
		c17.4,7.2,43.3-0.2,61.5-2.7C232.2,240.4,229.3,248.5,227.3,255.1z M110.5,225.5c4.2-2.8,10.7-3.9,18.2-4.5
		c14.9-1,43.9,2.1,36.3,22.4c-5.8,15.3-35.6,15.3-50,4.7c-4.4-3.4-10.1-9.6-9.1-15.7c2.1,2,3.4,5.1,6.7,4.2
		C114.8,236,110.3,230.5,110.5,225.5z M68.6,140.6c7.4-9,48.8-18.7,55.1-12.3c43.3,43.8,85.3,39.6,94.1,43.8
		c3.9,1.9-8.9,6.9-4.2,13.6c4,5.6,15.6,18.3,16.7,23.3c1.7,8.2,0.9,14.2-0.9,23.3c-18.7,2.1-44.5,8.2-61.1-0.1
		c-2.1-9-18.1-14.9-33.7-14.8c-10.7,0.1-19.8,1.4-25.5,6.9c-1.2-0.5-2.3-1.1-3.3-1.8c-3.7-2.5-12.2,0.4-17.4,1
		c0.2-3.8,0.8-5.5-0.4-8.3c-1-2.1-2.2-4-3.7-5.8c-2.5-3.4-4.8-9.7-9-9.2c-1.3,0.2-0.7,2.4-1.9,2.9c-1.4,0.6-3.6-2.4-4-0.6
		c-0.1,0.6,0.2,2.3-0.4,2.6c-1.5,0.7-5.8-1.9-9.1-2.4c-1.7-0.2-0.3,3.1-0.8,2.8c-1.3-0.7-4-0.2-5.2-1c2.4-16.6,8-33.9,11.4-49.3
		c0.3-1.5,1.2-3.7,0.7-5.3C67.3,148.2,67.6,143,68.6,140.6z"/>
	<path d="M265.9,282.9l-1.5-1.5c-1.7-4.4-0.5-15.7,3.8-20.1c1.5-1.6,3.7-2.1,5.7-1.4l0.4,0.1l0.1,0.4c0.4,1.6,0.4,3.3,0,4.9
		l-0.2,0.5h-0.6l-1.3,0.1c-1.7,0.2-3.4,0.2-5.1,0c-1.5,4.6,0.5,8.2,1.4,11.6c4.3-2,13.6-9.8,15.1-13.1c2.4-5.3,3.8-12.1,0.7-15.8
		c-1.8-2.2-2.7-3.9-5.8-3.3l-1.8-0.7c3.7-0.6,8.3-0.1,10.5,2.5c3.9,4.7,2.2,13.4-0.2,18.6c-1.8,4-16.9,15.9-20.6,16.9L265.9,282.9z
		 M174.3,498.4c-23.3,0-39-14.4-55.5-30.4c-2.5-2.4-20.2-17.3-15.8-18.8s21.8,19.6,25.7,23c14.6,12.8,29.4,16.9,48.5,16.6
		c5.5-0.1,28.2-4.4,27.8,0.2C204.6,492.6,177.6,498.4,174.3,498.4L174.3,498.4z"/>
</g>
<g>
	<path d="M1903.1,183.9c2-4-5.7-11.6-10-9.9c-1.2,0.5,0.5,2.8-0.5,3.5c-3.6,2.6-8.2-8.8-11.1-4.6c-0.5,0.8-0.4,1.7-1.2,2.2
		c-2.3,1.3-9.2-7-12.2-2.9c-0.8,1.1,0.2,2.4-0.6,3.5c-3.2,4.6-19.4-9.3-20.1-1.8c-0.1,1.1,0,1-0.1,2.2c-0.6,5.5-19.1,1-16.4,8.5
		c1.3,3.8,6.4-2.7,10.6-3.9c4-1.1,8.5,0.7,10-2c0.6-1.1-1.3-2.6-0.8-3.7c1.7-4.4,16.2,10,20.5,3.5c1-1.5-1.3-1.9-0.5-3.4
		c2.7-4.7,11.8,9.8,14.6,4.6c0.7-1.4-0.4-1.9,0.7-2.1c2.2-0.5,5.7,8.6,10,5.3c1.8-1.3-0.2-5.6,0.9-3.7
		C1898.1,181.3,1902.1,186,1903.1,183.9L1903.1,183.9z M1943.2,186.9c-1.3-1.1,1.1-4.3-0.5-3.9c-3.4,0.8-4.6,6.7-2.6,9.6
		c1.2,1.9,6.4-5.1,6.2-3.2c-0.3,2.2-1.5,3.3,0.8,4.7c2,1.1,6.9-0.6,10.6-0.9c8.5-0.6,15.9,9.7,15,5.9c-0.4-1.9-5.8-12.3-14.2-7.9
		c-2.1,1-3.2-2.5-5.7-3.3c-0.5-0.2-2.8,2.6-3.4,1.7c-1.5-2.4,2.1-3.5,1.3-6.2C1949.8,180,1944.8,188.2,1943.2,186.9L1943.2,186.9z"
		/>
	<path d="M1884.5,199.7c-5.7-2.3-3.2-4-3.2-9.6C1885.5,192.9,1882.9,195.2,1884.5,199.7C1883,199.2,1883.8,197.8,1884.5,199.7z
		 M1851.3,194.4c3.9-2.6,11.7-7.3,16.2-7.7c-1.9,1.7-2.3,9.7,0.4,10.9C1862,198.5,1856.9,196.1,1851.3,194.4
		C1856.2,191.2,1856.8,196,1851.3,194.4L1851.3,194.4z M1896.2,201.7c-8.5-7.9-13.2-17.5-26.1-18c-2.3-0.1-30.7,8.5-28.4,13.1
		c-1-2,19.4,4.7,21.1,5c4.6,0.4,11.8-1.3,17.6,0c3.8,0.8,5.3,3,10,2.3c-0.5-3.5-4.3-6.9-5.3-11.1c2.2,1.9,9.4,11.9,12.8,11.1
		C1898.1,203.1,1897.4,202.1,1896.2,201.7C1889.7,195.8,1896.7,202.3,1896.2,201.7L1896.2,201.7z M1925.3,194.3
		c6.2,9.9,5.4,25.9,7.9,37.7c3.5,15.7,16.5,22.7,6.8,37c-8.8,13.1-20.8,13.4-33.7,2.3c-3.5-3-1.2-3.5-4.7-5.7
		c-2.8-1.8-8.4,0.4-11.7-1.1c-2.5-1.2-5.5-6.6-10.3-11.5c-1.5-1.5-1.8-4.3,0.9-5.1c2.1,2,2.9,4.7,4.7,7c2.5,3,4.5,3.7,8.6,5.6
		c7.6,3.4,30.1,0,24.6,11.2c-1.3,2.6-5.8-2.4-9.4-3.3c0,3.5,14,9.6,19.4,7.7c6-2,12.6-13.1,12.2-17.8c-0.7-8.6-9.2-15.7-10.9-25
		C1927.5,222.6,1925.2,205.3,1925.3,194.3"/>
	<path d="M1903.8,245.6c-2.7-1.1-5.3-4.7-7.8-5.6c5.1-1.3,14.1,1.4,10.9,5.8C1906.3,246.4,1904.6,246,1903.8,245.6L1903.8,245.6z
		 M1940.5,307.1c-1.1-2-3.7-6.5-4.4-7c-3.4-2.4-17.2-2-19.4-3.1c-2.7-1.3-18.8-6.9-26.2-7.7c-1.1-0.1-14.8,0.7-13.4,1.3
		c0.6,0.3,15.3,0.2,16.3,0.6c6,2.7,18,7,21.9,7.9c4.9,1.1,12.3,0.3,17.1,1.5c3.4,0.9,6.3,5.6,4.1,4.9c-2.2-0.7-7.6-3.6-11.5-3.1
		c-12,1.4-18.4-3.3-29.7-7c-4.2-1.3-47.3-7.9-45.6,2.7c14.4,12.1,35.6,34.2,55,33.7c9.7-0.2,16.9-0.6,23.3-7.8
		c3.8-4.3,10-14.2,12.6-14C1944,310.2,1943.2,308.8,1940.5,307.1L1940.5,307.1z M1916.8,325.4c-18.6,3.7-45.4-8.5-61.9-27.5
		c-2.8-3.2,33-3.5,36.2-2.5c6.5,2.2,11.9,7.4,18.5,9.3c9.4,2.6,18.6-3.2,26.9,3.5C1931.4,314.1,1925.3,323.7,1916.8,325.4z"/>
	<path d="M1931.9,325.3c0.6-5.4-6.6,13.3-10.7,15.7c-5.1,3.1-8.7-2.3-13.7-2.9c-4.6-0.6-12.1,2-15.9,0.6
		c-6.1-2.4-10.7-8.9-16.4-12.6c-5.5-4.4-7.3-3.5-0.7,1.3c5,3.3,8.9,12.3,13.9,15c4.9,2.5,9.1-0.6,14.7,0c4.6,0.6,13.3,5.5,18,3.9
		C1924.8,345.1,1931.3,330.2,1931.9,325.3L1931.9,325.3z"/>
	<path d="M1933.3,395.9c0,17.1-14.6,27.9-21.9,42.3c-7.4,14.8-7.7,22.8-22.5,30.1c-12.5,6.2-35.9,18.2-50.2,16
		c-10.6-1.7-22.1-17.1-29.3-24.1c-10.1-9.8-18.9-20.9-26-33.2c-7.7-13.7-4.2-28.4-5.6-43.8c-2-22-9.6-60.2-14.2-81.7
		c-3-13.8-3.8-20.1,1.8-12.8c3.8,5-1,59.6,35,67.6c-6.3-9.3-15.4-13-20.4-23.6c-4.2-9.2-7.3-18.8-9.4-28.7
		c-1.9-8.4,1.8-34.7-3.9-38.9c-2.6,5.5-0.1,13.3-0.4,19c-6.7-7.3-4-11.8-14.8-13.8c-5.8-1.1-7.9,0.2-12.8-4
		c-7.7-6.7-9.5-23.1-9.7-32.2c-0.2-7.6,0.2-28.6,10-31.5c9.3-2.7,10,11.7,19,7.3c-0.1,4.2-0.4,12,1.7,15.8c0.7,1.2,0,3.8,0.9,5.1
		c0.7,1,5.1-0.1,4.9-0.3c1.8,2.5,3.5,18.1,7.7,19.5c6.5,2.3,10.5-58.7,12.4-66.9c3.8-17,9.1-10.9,21.8-18.3
		c8.8-5.1,20.1-19.6,20.6-28.6c0.4-6.7-7.7-2.7-2.7-10.7c2.1-3.3,9.1-2.4,11.2-5.8c2.2-3.4-0.4-8.3,1.7-11.9
		c2.9-5.1,8.4-6.4,13.6-7.4c10.7-2,21.8,1,32.5,1.5c13.4,0.8,25.3-3.2,38,2.5c10,4.5,25.4,11.7,32.8,20c7.6,8.7,10.9,25.3,13.2,36.4
		c1.4,7.1-0.4,14.9,1.2,21.9c1.4,5.9,5.5,9.5,6.1,15.7c1.8,16.1-8.3,31.2-5.8,48.2c4.9,33,2.8,54.8-14,84.4
		c-7.5,13.2-23.4,26.8-29.7,40.6c-6,12.9-3,26.8-18.7,32.7c-12.7,4.6-18.7-3.3-33.7-5.4c-8.4-1.1-20.2-4.3-25-11.5
		c-2.4-3.6-10.4-24.4-9.9-20.1c1.4,10.9,5.9,22.1,14,29.1c7.6,6.4,20.2,7.9,29.7,10.6c-2.6,15.7-19.4,9.7-31.1,29.2
		c-1,1.8,8.9-6.5,15.1-10.3c3.3-2,9.4-5.7,12.7-7.5c4.6-2.6,7-9.2,10.2-9.5c8.9-0.9,15.7,1.8,24.1-3.9c7.8-5.3,12-15.6,14.6-24.3
		c3.6,2.5,4.9,11.2,4.9,15.1C1933.3,401.4,1933.3,390.2,1933.3,395.9L1933.3,395.9z M1734.9,180.9c0.8-4.6,0.6-12,0.5-17.1
		c-0.2-10.4-4.7-16.8,2.8-23.2c1.7-1.3,10-2.4,10.4-5.9c0.8-6.5,8-19.9,10.9-22.9c3.8-3.9,2.4-8.4,4.1-13.3
		c7.2-20.6,37-16.8,55.6-22.6c8.3-2.6,9.3-13.1,16.9-16c7.4-2.8,16.8-0.3,24.9-3.2c12.5-4.4,16.9-2.6,29.9-0.1
		c4.9,0.9,8.3-0.1,11.9,3.3c5,4.6,1,7.6,8.4,10.3c3.8,1.4,9.6-3.6,14-2.4s7.3,6.7,10.3,9.7c6.8,6.6,11.5,12.6,17.2,19.6
		s13.2,10.6,17.3,18.9c3.6,7.2,8.7,19.6,9.4,27.5c1,10.8-5.2,21.1-1.2,31.8c1.7,4.7,3.6,5.6,3.4,11.1c-0.2,4.6-3.2,10.8-4,6.3
		c-1-5.4-3-5.3-4.7-11.4c-1.8-6.3-0.1-17.2-1-23.6c-1.5-10-7.1-22-10.9-31.7c-6.4-15.9-38.3-29.6-54.6-29.9
		c-13.3-0.3-26,1.3-39.5,0.6c-8.9-0.4-27.7-3.1-34.3,4.6c-3.9,4.5,3.8,11.2,1.1,16.1c-2,3.6-10.7,3.1-12.9,6.2
		c-6.6,9.1,3.9,10-0.6,20.1c-8.9,19.7-33.4,16.8-38.9,36.1c-3.5,12.5-2,27.3-2.8,40.2c-0.2,3.4-0.8,11.9-3.7,14.8
		c-2.2,2.2-3.4-4.6-5-7.1c-3.8-6.2-6,2.2-8.7-7.7c-0.3-1.3,0.6-13.6,0-14.6c-2.4-3.2-5.9,3.1-9.9-1.9c-5.6-6.8-7.4-11.5-15.1-5.3
		c-3,2.4-7.1-2-5.6-5.9C1731.8,190.1,1734.1,185.2,1734.9,180.9L1734.9,180.9z M1978.1,402.6c-12.9-7-30.5-13.7-42.3-22.4
		c-7-5.2-6.6,1-5.1-8.6c0.4-2.8,5.6-8.5,6.9-10.2c6.2-8.3,13.2-15.7,18.5-24.7c9.4-15.9,16.6-34.5,18.7-52.9
		c2.8-24.1-4.2-45,1.9-69.2c2.2-8.7,6-16.2,8-24.1c2.1-8.4-0.2-9-2.9-16.1c-3.4-8.9,2.6-20.3,3.2-29.2c0.6-9.9-5.2-14.7-8.4-23.3
		c-3.7-9.8-4.7-10-12.5-17.8c-4.1-4.1-6.5-9.2-9.7-13.6c-5.4-7.4-10.5-16.3-18.6-22.3c-9.3-6.9-12.3-0.8-21.4-3.8
		c-6.4-2.2-7-9.2-12.5-13c-4.6-3.3-15.2,1.1-20.6,0.4c-10-1.3-12.2-3.5-21.4-0.5c-7.8,2.6-18.1,1-25.6,3.3
		c-8.3,2.6-8.6,10.4-15.8,14c-5.4,2.7-17.9-0.5-24.6,1.4c-8.2,2.4-13.5,9.7-21.4,13.1c-9.4,4-9.1,6-12.1,14
		c-3.4,9.2-3.8,8.9-11.6,16.5c-5.1,5-4.3,7.5-6.6,12.5c-1.2,2.7,0,3.9-1.9,6.9c-1.5,2.5-6.2,2.4-7.9,4.9c-4.1,5.8-1.8,15.8-2.3,23
		s1,15.2-0.1,21.7c-1.2,6.9-5.7,5.9-3.9,14.4c0.6,2.8,2.8,5.5,3.1,8.2c0.5,4.6-2.5,9.1-3.4,14.2c-0.8,5.5-1,10.9-0.6,16.4
		c0.5,7.4,1.7,15.7,4.3,22.7c5,13,13.4,10.5,21.5,19.1c10.2,10.9,10.2,39.8,13.1,53.7c4.6,23.1,11.1,50.8,7.9,74.2
		c-1.3,8-4.5,15.6-9.5,22.1c-6,8.2-26.9,18.7-18.9,15.7c5.1-1.8,11.8-0.8,15.8-4.2c5-3.8,14.3-4.9,16.4-1.1
		c4.1,7.5,27.6,24.5,29,25.9c11,11.2,25,28.9,41.7,25c15.3-3.6,42.2-11.6,53.9-21.4c10.7-9.1,14.9-27.7,23.5-39.7
		c5.4-7.5,11.8-14.8,13.5-24.4c1.4-8.3,1-6.9,0.5-14.6c19.7,11.1,32.6,13.9,49.7,29.2c18.1,16.2,41.9,30.4,72.7,29.3
		c18.1-0.6-35.8-7.4-50.9-18C1998.7,421.5,1986,406.9,1978.1,402.6L1978.1,402.6z"/>
	<path d="M1960.8,216.1c-0.5-0.2-2.6-0.8-2-1.2c2-1.2,0.2-4.3,1.9-2C1961.7,214.3,1962.6,216.8,1960.8,216.1L1960.8,216.1z
		 M1937.1,210c0.8-3.5,10.1-1.9,12-1.9c-0.5,1.7-0.2,3.5,0.8,5C1945,213.1,1941,210.6,1937.1,210z M1970,212.4
		c-0.4-4.3-13.1-8.6-16.6-9.8c-7.7-2.6-19.6-5.4-21.1,2.8c-0.4,2.4,2.4-6.8,17.3-0.2c2.6,1.1-16.8-1.3-16,5.5
		c0.5-0.4,9.5,4.9,17.9,7c6.4,1.7,12.5,1.3,13.4,1.9c0.5-4.3-6.4-12.3-2.8-10.6c2.8,1.2,6.3,1.1,5.6,11
		C1969.8,218,1970.6,215.2,1970,212.4C1969.5,207.2,1970.2,214.5,1970,212.4L1970,212.4z M1740.4,252.9c-0.4-5.1,3.8-6,6.1-9.6
		c0.8-1.2,5.1-8.2,5.8-8.7c2.6,0.7,1,17.1,0,18.2c-2.1-0.2-1.5-6.1-1.7-7.2c-5.2,2-11.2,5.9-4.9,11.6c1.9,1.7,7.4,2,9.2,0.8
		c3.4-2.1,1.4-8.4,0.9-13.1c-0.8-8.2-0.8-17.5-7.1-23.5c-4.7-4.4-10.8-2.9-11-9.2c20.8,6.5,24.5,27.9,20.7,46
		C1757.1,264.1,1741,261.6,1740.4,252.9L1740.4,252.9z M1848.5,519c-8.5,0-61.9-39.8-61.1-41c4.5-6.4,40.9,26.1,49.2,27.5
		c10.5,1.7,26.9,0.4,35.5-5.2c3.3-2.2,33.1-23.9,34.9-21.2C1912,486.6,1856.2,519,1848.5,519z"/>
</g>
<g>
	<path d="M598.7,278.6c-9.9-6.5-3.8,6.4-3.4,4.8c0.2-1.1,0.7-2.1,1.5-2.9c2.3-2,7.3,7.1,5.7,12.8c-0.7,2.2-3.5,4.6-5.5,3.3
		c-0.7-0.5-0.2-1.6-1.2-2.1c-2-1-6.5,8.3-9.1,9.6c-4.9,2.3-7.8,0.9-12.3-1.2c-0.9-0.4-20.7-11-19-2c0.3,1.6,11,0.3,13,0.8
		c5.3,1.4,7.4,6.5,13.8,6.5c6.2,0,12.4-9.2,14.4-9.5C608.7,297.2,606.6,283.9,598.7,278.6L598.7,278.6z M585.9,257.7
		c-1.5,0-4.1-17.3-4.2-19.5c-0.1-2.6,5.2-23.1,10-18.4c-0.3-0.3-7.2,14.6-7.2,18C584.3,240.3,589.6,257.7,585.9,257.7L585.9,257.7z"
		/>
	<path d="M585.5,219.5c-3.4,0-2-5.3-1.3-6.8c1.3-2.7,5.9-5.8,9.5-6c4.7-0.4,3.4,5.8,6.3,3.2c2.4-2.1,1.7-7.9,9.7-3.5
		c5.8,3.1,5.3-4.4,13.2-4.8c1.8-0.1,12.5,2.4,12.2,4.7c-0.1,0.5-9.6-1.6-10.5-1.3c-8,1.9-9.8,8.3-18.2,5.4c-2.3-0.9-7.1,6.7-10.3,3
		c-0.7-0.8-2.1,3.1-3.4,3c-2-0.1,1.4-3.8-2.1-4.4C586.8,211.4,588.6,219.5,585.5,219.5L585.5,219.5z M548.8,224.1
		c-3.6,0,1.1-5.3-0.3-4.6c-12.5,6.2-6.4-7.1-13.8-1.4c-4.3,3.3-3.6-2.8-15.2-5.7c-6-1.5-14.8-3.2-21-3.5c-3.3-0.1-17.8,5.5-17.3,5.9
		c-4.4-3.8,12.4-10.6,14.3-10.8c5.5-0.4,14.6,4,20.1,4.4c10.7,0.8,10-1.2,16.7,4.3c2.9,2.4,3.7-7.2,8.1-4.6c2.9,1.8,0.9,6.9,3.6,7.7
		c2,0.6,14.3-12.9,9.8,1.9C553.3,218.6,550.9,224.1,548.8,224.1L548.8,224.1z"/>
	<path d="M664,196.8c3.1-7.5,3.8-17.5,2.9-25.6c-2-16.6-10.1-30.1-16.5-45.3c-2.9-6.8-1.8-15.4-6.5-21.2
		c-3.4-4.1-12.8-5.8-14.8-10.5c-3.6-8.3,3.1-14.9-5-22.9c-5.6-5.6-21.2-5.4-27.8-3.1c0.4-3.7,0.7-7.4,0.6-11.1
		c-0.6-8.7-3.7-15.6-10.9-20.8c-12.9-9.2-29-12.5-44.4-9c-36,8.2-64.1,34.9-91.6,57.7c-30.4,25.2-52.8,50.2-60,90.1
		c-2.9,16.4-8.1,24.8-12,40.2c-1.8,7.1,4.1,20.6,6.7,27.4c2.2,5.8,19.8,18.2,29.3,18.4c4,0.1-6.2-9.8-6.6-10.5
		c-2.7-4.6-4.5-10.4-3.4-15.8c2.7-13.3,7.7-14.4,18.6-18.5c6.9-2.5,14.8-2.7,18.6-1.3c3,1.2,1.4,2.1,0.7,8.5
		c-6.1,7.3-22.1,11.3-18.5,15.5c6.2,7.2-3.6,27,5.3,30.3c3.8,1.4-4,2.5-3.1,7.4c0.3,1.4,4.4,5.2,4.6,6.2c0,0.1,0.4,0.4-1.8,2.2
		c-1.2,1.1-2.3-0.8-2.7-2c-1.5-4.5-3-7.1-3.4-8.8c-1.8-7.5-2-15.7-2.9-23.4c-0.7-5.3-3.4-14.3-1.1-19.7c1.1-2.5,5.3-4.4,5.3-5.3
		c0-5.7-8.4-1.2-9.1,0.3c-2.5,5.6,0.9,16.4,1.7,22.1c0.8,5.7,2.2,43.1,11.9,43.1c1.1-0.1,2.1-0.3,3.2-0.5c0.1,0.9,0.2,1.7,0.3,2.1
		c0.7,4.1,4.1,14.1,5.1,18.4c3.3,14.4,13.1,18.3,23.5,19.4c6.2,12.8,14.8,23.2,26.4,33.1c6,5.1,33.9,26.8,40.5,29.1
		c1.1,4.1,2.6,8,4.8,11.6c7.3,13.1,20.2,24.6,36,24.6c29.7,0,61.2-28.4,48.9-58.3c-0.5-1.1-2.7-9-1.4-10.1
		c8.7-7.2,14.7-22.4,17.1-27.7c2.3-5.7,4.3-11.5,5.8-17.5h0.7c10.5,0,17.1-33.6,16.8-39.6c-0.2-3.7-8.5-41.2-5.6-48.9
		C652.5,221.1,662.3,200.9,664,196.8z M454.7,324.7L454.7,324.7c-4.7-1.5-9.5-7.1-10.5-8.5c-3.6-4.2-8.4-18.3-9-23.5
		c-0.5-4.1-0.1-7.9-0.7-11.4c-0.3-1.7-3.2-1.3-3.1-4.1c0.2-6.8,12.4-12.1-1.5-11.7c0.4-1.8,4.6-14-1.5-22.3
		c-4.6-6.3,12.8-15.5,11.7-4.8c-1.6,16.5-0.7,20.6-0.5,22.7c2.1,19.3,8.9,39.1,15.2,57.4C456,321.9,458.1,325.6,454.7,324.7z
		 M614.2,395.3L614.2,395.3c-7.5,17.2-20.2,26.8-40,29.6c-17.3,2.3-30.8-7.2-38.9-22c-5.3-9.6-7.5-17.1,0.5-26
		c6.2-7,11-12.3,17.4-21.3c2.2-3.1,11-2.1,16.1-1.6c3.6,0.3,13.7,4.8,13.9-1.5c3,1.3,16,7.6,20.9,0.9
		C607,349.1,620.2,381.5,614.2,395.3z M650.5,276.9c0.3,7.4-3,20.9-5.9,27.8c-0.4,0.8-3,3.3-5.2,5.8c1.1-5,2-10,2.5-15
		c3.3-25.8,1.8-52,1.1-77.9c-0.7-28.3-3.6-56.2-15-82.4c-4-9.2-6.5-21.7-12.9-29.5c-1.9-2.3-24.2-15.9-24.2-8.7
		c0-1.6,19.6,12.5,21.9,15.7c5.3,7.3,8,17.5,11.5,25.7c11.6,26.8,14,53.1,14.6,81.9c0.7,25.7,2.5,51.6-1.1,77.1
		c-1.9,13.3-4.2,26.5-9.9,38.6c-2,4.1-7.6,19.2-12.7,19.5c-5.9,0.4-7.8-6.9-12.6-7.4c-5.7-0.6-0.8,3.4-3.9,3.8
		c-7.1,0.9-11.3-3.1-17.1-4.6c-2.7-0.7-2.4,4.8-3,4.9c-6.4,0.9-18.7-4.6-26.8,0.6c-5.4,3.4-4.7,8.4-11.2,13.5
		c-9.8,7.7-13.4,11.6-14.4,18.1c-0.9,5.3-13.7-4-14.9-4.8c-7.9-5.5-14.8-12.9-22.2-19.1c-13.7-11.6-22.7-22.5-28.9-39.3
		c-6.9-19-15-39.9-17.1-60.1c-0.6-5.3,5.6-51.1,6.8-53.4c1.3-2.3,32.8-10.7,46.1-23.1c21.3-19.7,24.6-50.1,38.7-74.1
		C541,99.4,550,91.1,563,90.1c4.2-0.3,10.7,0.2,14.7,1.8c1.7,0.6,9.8,7.5,10,7.5c5.6,0-3.9-8-4.3-8.3c-3.4-2.3-10.4-6.5-14.4-6.9
		c-12.2-1.3-21.6,6-30,15.1c-19.5,21.1-23,53.3-43.3,75c-19.4,20.7-48.2,25.4-74.2,34.8c-10.1,3.6-16.8,7.2-22.4,17.3
		c-2.1,4-2,5.8-2.9,12.3c-1.1,7.5-6.8-0.5-7.6-2c-4.1-7.4-7.7-13.3-5.4-21.6c4.3-15,8.9-23.4,11.8-39.6
		c6.6-36.7,23.4-58.7,51.6-82.1c28.4-23.5,55-51.1,92.2-59.9c13.4-3.1,27.5-2.3,39.9,4.7c7.5,4.2,11.5,8,12.8,16.6
		c0.4,2.5-0.3,22.8,1,23c1.3,0.3,2.1-2.2,2.7-5.7c6.1,1.6,21.6,0,26.2,5c5.3,5.8,0.6,12.9,3.5,19.8c2.2,5.3,9.5,5.7,13.2,10.1
		c4.7,5.6,5.7,14.9,8.4,21.6c6.8,16.1,15.3,31,16,48.9c0.3,8.2,0.2,16.5-4.1,23.6c-1.3,2.1-12.8,20-12.8,23
		C646,236,650.4,273.8,650.5,276.9z"/>
	<path d="M581.5,409.3c1.1,0,8.6-21.2,7.5-25.2c-5.2,6.2-8.9,12.2-10.9,2.3c-1.3,1.9-12.2,18.5-14.8,14.9c2.3,3.1,6.7-31.2,3.5-28.8
		c4.8-3.6,4.5,17.7,4.1,19.4c4.5-5.9,8.1-15.9,10.3-3.7c2.1-2,5.1-7.1,7.5-8.4C591.7,378.4,592.9,409.3,581.5,409.3L581.5,409.3z
		 M601.1,300.6c-0.2,4.8,24,5,25.3,16.3c1,8.3-3.7,1.6-7.9,5.4c-6.6,6-11,4.7-14.2,0.3c-1.7-2.2-6.5-7.9-3.9,0.4
		c-1.7-0.3-21-0.5-27.1,2.8c-7.2,1.4-18.1,4.1-18.9,4.3c-13.3,3.1-19,3.2-24.1,12.4c-0.5,1-4.8-2.8-6.2-2.7
		c-1.6,0.1-4.2,2.1-5.5,3.5c-2,2.1-2.9,7.2-5.9,7.5c-8.3,1.1,6.2-12.1,0.9-16.8c-4.7-4-17.3,5.8-17.8-0.5
		c-0.2-2.9,16.2-11.9,24.5-18.9c0.2,0,11.9-0.8,14.8,0.5c3.1,1.4,9.3-5.2,10.3-2.9c1.8,3.7,7.6-2.6,11.1-5.4h1
		c1.1,0,12.2-0.1,12-2.6c0-0.4-16.9-0.8-19.6-2.6c-8.7-5.8-0.3-10.7-2.9-13.4c-4.2-4.1-4.8,8.4-4.3,9.9c1.3,3.7,5.4,6.5,9.6,7.8
		c-2,1.8-4.2,3.5-6.2,2.1c-2.5-1.8-5.9-1.6-8.2,0.4c-1.7,1.3-11,1.6-14.1,1.4c-5.1-0.3-29.6,18.2-31.2,23.2
		c-3.4,10.7,13.5,1.3,16.3,7c1.5,2.9-6.5,15.1,3.3,15.1c2.1,0,7.9-8.8,10.4-10c3-1.3,2.8,4.3,6.6,3.1c1.9-0.6,4.9-7.6,6.4-9
		c6.2-5.5,18-7,25.9-9.1c1.2-0.3,13.3-0.5,17.1-3.2c6.3-0.9,12.7-1.5,19.1-1.6c-5,2-13.4,6-14.9,6.2c-4,0.9-19.7,0.2-19.7,2
		c0,2.7,17-0.3,19.8,0.7c2.4,0.9,8.6-2.9,15.8-6.4c-2.1,3.2-4.3,7.9-5.3,9c-4.4,4.2-12.7,5.7-18.6,6.6c-4,0.7-24.3-6.4-25.8-6.6
		c-5.8-0.5,18.3,9.6,21.5,9.6c7.3,0,15.7-0.8,21.8-5.3c1.6-1.2,10.3-11.1,10.3-15h0.2c1.2,1,2.4,1.9,3.8,2.6
		c2.1,1.2,1.2,2.4,4.3,2.4c3,0,5.3-4.6,7.5-5.3c3.6-1.2,5,1,8.8-0.6c-0.2,0.1,4-6.1,3.8-5.1C632.8,307.7,601.4,295.4,601.1,300.6z
		 M536.4,237c0.3,0,2.1-0.4,2.3-0.4c3,0-13.9-9.2-18.3-10c-5.8-1.1-29.3-1.2-34.4,6.7c-1.4,2.1,3.9-0.7,9.6-1.4
		c-2.6,2.5-7,8.9-4.8,9.8c4,1.8,18.5,7,22.9,7c5.8,0,24.3-1.7,24.2-9.6C538.1,238.8,537.4,238,536.4,237L536.4,237z M505.5,230.8
		c-3.5,6.3-3.2,10.4-1.1,12.7c-4.3-1.5-7.7-0.7-8.7-4.2C495.5,238.3,501.1,230.7,505.5,230.8z M516.7,245.6
		c3.9-1.8,8.5-6.9,5.1-14.5c1.4,0.5,2.8,1.2,4.2,1.9c2.9,2.8,6.2,6.3,6.2,7.2C532.5,242.4,524.8,246.6,516.7,245.6z M606.4,223.5
		c-4.4,1.3-10.1,3.3-13.2,6.9c-0.5,0.6-7.5,9.3-2.9,9.3c0.4,0,0.2-2.5,2.7-2.1c1.5,0.3,1.3,0.7,1.6,1.1c2,2.5,10.7,3,11.7,3
		c1.3,0,18.6-2,21.3-8.9c0.8-2.1-5.7-7.5-2.8-7.3c2.8,0.2,7.1,3.7,6.2,1C628.2,218.8,608.4,222.9,606.4,223.5L606.4,223.5z
		 M596.3,232.7c0.7-0.9,1.4-1.7,2.2-2.3c0.3-0.2,0.7-0.5,1.1-0.7c0,4,2.2,7.6,5.8,9.4c-2.4,0.1-5-0.4-7.2-1.4
		C596.1,236.7,596.3,234.4,596.3,232.7L596.3,232.7z M622.8,233.4c-1.5,2.5-3.7,3.1-7.3,3.9c2.1-2.3,1.9-8,0.6-10.7
		C616.9,226.4,626,227.9,622.8,233.4z M450.9,376.6c-3.8,0,4.1-16.2,4.5-18.4c0.5-3.2-4.3-23.9-1.3-23.9
		C459.4,334.3,459.1,376.6,450.9,376.6z"/>
	<path d="M576.9,430.1c1.4,2.7-31.3,6.1-35.3,5.3c-13.7-2.8-27.7-7.9-40.4-13.5c-15.8-7-28.6-18.6-42.2-29.3
		c-4.2-3.3-11.2-6.2-12.9-11.7c-0.7-2.1,1.5-10.2,1.7-13.2c2.8-2.4,4.3-4.3,3.3-5c-2.3-1.6-28.8,20.9-32,24
		c-8.6,8.2-20.2,12.2-31,17.1c-2.5,1.1-4.9,2.3-7.4,3.5c-10.3,4.8-28.2,20.1-1.2,5.9c5.1-2.7,10.2-5.2,15.5-7.5
		c12.4-5.6,19.4-8.1,29.4-17c3.8-2.9,7.8-5.5,12.1-7.7c4.3-2.2,4.8,1.4,5.2,2.4c1.3,4.5,7.2,6.1,10.5,9c9.2,8.2,20.3,18,30.7,24.5
		c18.1,11.5,46.8,26.2,69,26.2C554.7,443.1,579.1,434.5,576.9,430.1z"/>
	<path d="M598.5,433.7c-0.6,0-9,12.9-10.7,14.9c-4.5,5.2-10,7.9-16.4,10.5c-14.7,6-31.3,1.3-45.3-4c-18.6-6.8-36-16.3-51.8-28.1
		c-4.1-3-37.8-34.5-37.2-34.9c-6.6,4.4,43.4,44.7,48.1,47.6c20.9,13.3,49.1,28,74.6,28l0,0c11.5,0,20.6-5.5,28.6-13.4
		C589,453.9,604.7,433.7,598.5,433.7z"/>
	<path d="M654.1,370.6c-2.7-0.7-32.6-6.6-32.6-2.6c0-3,48.2,17.9,55.1,21.9c1.5,0.9,3,2.5,4.5,4.5c9.2,10.7,7.3-3.6-1.7-11.4
		C672.4,376.5,663.3,373,654.1,370.6z"/>
</g>
<g>
	<path d="M1323.8,416.9c-2.4,3.3,16.7-3.5,18.7-4.3c2.9-1.3,24.5-9,24.5-12.9c0-1.5-28.9,10.6-31.4,10.6c0,0,6.8-8.4,7.3-8.8
		c5.9-6.4,11.9-12.5,17.7-18.9c11.7-13.2,21.7-28.6,27.5-45.3c13-37.1,15-78.5,23.6-117c6.5-29.2,15-61.5,27.9-88.4
		c8.9-18.7,17.3-41.2,29.5-57.7c12.3-16.6,31.8-25.4,50.9-32c22.9-7.9,45.9-11,67.7,1.1c3,1.6,35.7,22.4,35.1,24.7
		c2-6.2-23.1-22.9-26.8-25.4c-17.3-11.6-34.2-15.1-54.5-12.1c-21,3.1-45.6,10.4-61.9,24.5c-17.9,15.3-29.9,37.8-39.7,58.9
		c-30.7,66.2-34.3,139.8-53.8,209.2C1375.6,360.7,1346,386.3,1323.8,416.9L1323.8,416.9z M1483.7,469.4c27,30,78.4,58,119.7,45.8
		c17.9-5.2,31.1-18.1,39.3-34.5c6-11.9,10.8-24.8,12.8-38c0.7-3.9,3.9-24.5-1.2-26.8c2.7,1.3-1.3,27.8-2,30.6
		c-2.5,11.2-7.5,21.9-12.8,32c-8.9,17.2-22.9,29-42.1,32.5c-21.7,3.9-44.7-2.5-64.4-11.6c-10.9-5-21.1-11.1-30.5-18.4
		c-1.7-1.4-20.4-17.7-20.6-17.4C1481.3,465.1,1483,468.2,1483.7,469.4z M1621.7,305.2c-0.2-0.9-1.5-5.4-2.9-3.7
		c-0.4,0.9-0.5,2-0.4,2.9c-6.7-0.8-13.6-4.5-20.4-4.1c-3,0.1-5.6,1.8-8.6,1.7c-3.1-0.1-6.1-2.2-9.1-2.3c-6.5-0.2-13.6,3.5-19.8,5
		c-3.5,0.9-21.7,2.1-21,6.4c-0.5-3.3,12.1,1.8,13.5,2.7c3.6,2.2,6.7,5.1,10.4,7.4c9.6,5.9,14.6,7.4,25.4,6.3
		c3.1-0.3,8.4,0.4,11.3-0.5c5.4-1.8,6.7-6.6,9.6-11.2C1610.7,314.1,1621.3,303.1,1621.7,305.2z M1566,305.8
		c3.8-1.1,8.3-2.6,12.3-2.5c4.9,0.1,8.9,2.7,13.7,2.4c6.4-0.4,15.9-3.6,22.5-0.1c-8.6,1.6-16.3,6.1-25.3,6.1
		c-11.4-0.1-24.2-2-35.7-2.8C1556.8,309,1562.8,306.6,1566,305.8L1566,305.8z M1591.4,314.6c-0.4,1.4-1.1,1.8-2.2,1.2
		C1588.4,314.8,1591.3,314.3,1591.4,314.6z M1605.9,316.1c-3.1,6.1-4.2,5.1-10.4,5.6c-5,0.4-11.9,2.6-16.8,2.3
		c-8.1-0.4-18.4-7.9-24.8-12.7c1.4,1.1,14.4-0.2,18,0.3c5.1,0.8,12.9,3.4,16.2,4.1c0.4,0.1,1.1,2.2,3.3,2.2c2.5,0,0.7-3.6,1.6-3.9
		c1.4-0.5,17.2-3.4,17.3-4C1609.7,312.3,1607,314.1,1605.9,316.1L1605.9,316.1z M1590,329.7c2.2,0.3,2.6,1.1,1.1,2.3
		C1589,332.3,1590.3,330.1,1590,329.7z M1589.7,328.2c-2.8,0.8-1.4,7.8,2.9,5.8C1596.2,332.2,1592.3,328.4,1589.7,328.2z"/>
	<path d="M1586.8,340.6c0.9,0.1,11.1,0,10.3-2.3c-1.3-3.8-19.5,3-21.4,3.1C1579.2,341.3,1583.2,340.1,1586.8,340.6z"/>
	<path d="M1577.5,269.7c-6.3,2.7-13.5,3.7-15-4.9c-0.5-3.1,0.9-8.5,4-10.2c1.5-0.8,6.7,1.1,7.2,0.2c1.3-2.3-5.1-3.4-6.1-3.3
		c-5.5,0.5-7.9,7.8-7.6,12.5c0.3,4.8,2.7,8.7,7.5,9.8c2.2,0.4,13-1.4,13.1-3.9C1579.9,268.8,1578.4,268.8,1577.5,269.7L1577.5,269.7
		z"/>
	<path d="M1615.9,256.7c-1.6-8.3-7.8-1.1-9.1-1.7c3.1,1.4,3.4-2.1,6,1.5c1.5,2.1,0,7.4-1.1,9.2c-3.3,5.6-6.4,4-12.1,3.4
		c0,0,6.5-2.1,6-1.5c0.8-1,6.1-7.2-1-4.5c0.9-4.7-0.9-10-2.3-14.3c-0.8-2.2-2.9-12.3-4.7-13.6c0,0,1.1,10.9,1.4,11.7
		c1.1,3.9,5,10.3,3.1,14.8c-5.8,13.2-25.4-2.8-30.8,2.8c-4.6,4.8,3.5,3.4,5.5,3.6c4.1,0.4,8.7,1.6,13,2.2
		C1601.1,271.2,1619.6,275.7,1615.9,256.7L1615.9,256.7z M1565.4,181.1c6-1.2-4.3-6.4-6-6.6c-1.1-0.2-4.1,1.6-5.8,1.6
		c-2.9,0-7.9-2.8-11.2-3.4c-5.6-0.9-11.3-0.8-16.9,0.1c-1.2,0.1-11,3-11.7,2.6c2.9,1.6,10.5-0.9,13.8-1.3c6.8-0.8,12.1-0.8,18.7,1.7
		c2,0.8,4.6,2.8,6.5,3.1c1.6,0.3,4.7-0.1,5.5,0.1c0.5,0.1,1.6-2.1,2.8-1.8C1564.5,178.1,1558.9,182.3,1565.4,181.1z"/>
	<path d="M1710.8,409.8c-12.4-25.1-24.4-51.1-29.5-78.7c-5.4-29.6-7.7-59.8-6.6-90c0.3-9.1,0.2-18.2,1-27.3c0.7-7.4,2.9-14.3,3-21.8
		c0.1-5.3-1.4-8.6-2.1-13c-1.3-9-0.9-18.4-2.2-27.5c-2.4-18.4-6.2-37.7-14.8-54.2c-4-7.7-9.2-15.1-16.3-20.1
		c-0.9-0.7-16.4-9.2-17.2-6.3c0.5-2,17.9,12.6,18.7,13.5c8.6,9.9,14.3,22.4,18.2,34.8c4,12.6,6.1,25.7,7.3,38.9
		c0.5,5.5,2.6,14.9,1.1,20.4c-1.4,5.1,0.2,3.1-5.4,4.8c-2.6,0.8-6.2,0.9-8.8,1.1c3-15.7-3.5-37.7-7.8-53.1
		c-0.7-2.5-12.2-29.6-17.2-22.5c-2.5,3.5,9.3,19.9,11.1,23.5c6.2,13.5,11.5,32.1,10.2,46.8c-6.8-7.7-17.2-9.1-26.6-6.4
		c-4.6,1.4-8,4.6-12.3,6.3c-1.4,1.7-3.5,2.8-5.8,2.9c-0.8-1.3-1.5-2.5-2.4-3.7c-4.1,0.4,0,6.4,2.3,7c3.4,0.9,9.8-5.4,12.7-6.8
		c8.4-4,21.4-7.1,29.1,0.3c8,7.6-8.6,6.3-14.9,6.7c-9.1,0.7-20.4,0.1-29.1,3.3c-8.1,3-12.7,6.7-22.5,5.3c-5.4-0.8-7.8-3.4-12.6-5.3
		c-9.3-3.9-22.6-3-32.7-3.7c-12.5-0.9-26.3-4.5-38.7-3.4c18.1-20.9,40.3-36.2,61.8-53.1c8.3-6.5,16.5-13.1,24.9-19.5
		c1.2-1,14.6-9.2,14.6-10.1c-0.2,5.8-16.2,17.2-19.9,20.4c-5.4,4.8-49.8,37.7-46.6,42.1c6.6,9.2,63.9-47.5,71.7-46.6
		c2.6,0.3-15.5,19.5-15.6,19.4c4.1,5.5,23.1-12.2,25.2-14.3c4.8-5.3,6.7-14,11.1-18.6c-6.8,7.3-11.9,21.7-22.8,24.4
		c4.5-1.1,20.6-30.7,16.8-31.5c-3.8-0.8-24.5,22.8-28.3,26c-6.7,5.5-13.7,10.6-21.1,15.3c-2.2,1.3-9.9,4.2-11.1,6.3
		c1.1-1.8,59-48.2,51.4-54.6c-2.9-2.6-30.3,19.4-34.6,22.7c-15.9,12.1-33.2,22-49,34.3c-17.4,13.5-34.5,29-45.5,48.2
		c-13.5,23.7-12.9,43.8-7.7,69.6c7.7,38.2,25.2,75.1,24.1,114.7c-0.8,26.5-7.3,53.3-21,76.1c-5.4,9.1-12.2,17.3-19.1,25.2
		c-1.7,2-8,11.4-10.4,11.9c8.7-2,20.3-18.7,25.3-25.4c9.9-13.4,17.4-28.2,22.3-44.1c0.9-2.7,2.6-15.3,5.1-16.1s9.8,6.4,11.6,7.8
		c5,3.7,10.9,6.3,16.9,7.6c1.7,0.3,16.3,4.8,16.8,4.5c2.6-1.7-15.5-7.2-17.5-7.8c-9.1-3.1-15.5-8.3-22-15.1
		c-8.3-8.6-3.7-20.1-3.7-31.6c0-12.3-1.2-24.5-3.8-36.5c-9.3-42.5-37.7-93.4-11.8-135c-0.5,8.1,0.3,20.7,6.5,27
		c6.6,6.7,19,5.4,27.8,5.8c13.9,0.7,28.5,0.2,42-3.6c10.4-2.9,11.3-7.1,16.3-15.7c3-5.3,7.7-11.5,14.2-7.1
		c4.9,3.3,3.7,12.4,7.2,16.7c9.8,11.9,40.9,7.4,54.2,4.2c0,17.9-4,36.7-5.2,54.7c-1.1,16.5-7,26.3-16.3,39.4
		c-19.1,26.9-35.2,76.2-79.4,56.4c-14.7-6.5-30.1-17.6-40-30c-1.7-2.2-4.6-8.6-8.5-6c-6.9,4.7,6.5,13.8,9.1,15.4
		c14.9,9.4,30.2,23.8,47.9,27c25.4,4.7,43.3-7.7,55.4-29c3.5-0.9,3,33.3,1.8,36.4c-2.1,5.3-7.6,9.6-10.6,14.4
		c-1.6,2.6-2.3,6-4.1,8.5c-1.3,1.7-4.3,2.8-5,4.9c-0.4,1.6,6.1-2.7,6.8-3.5c2.8-2.9,3.6-7.5,6.4-10.6c2.1-2.3,7.8-7.4,11-7.5
		c5.3-0.2,10.1,5.4,14.4,8.8c9,7,16.6,6.5,27.6,8.6c4.5,0.7,8.9,2,13.1,3.7c2.5,1.2,5.3,4.7,8.4,4.6c1.2,0-7.4-7.1-8.5-7.6
		c-4.5-2.2-9.8-3-14.6-3.9c-10.4-2-17.2-2.7-26-9.1c-13.8-10-15.3-17.3-16.1-33.7c-0.7-13.5-0.3-22.6,6.6-34.3
		c11.8-19.7,21.9-32.6,24-56c0.8-8.9,0.9-17.9,1.8-26.8c0.7-6.4,0.4-15.7,2.4-21.8c1.4-4.2,0.2-2.2,3.4-5.2c2.6-2.5,5.8-3.5,8.4-6.3
		c-1.3,46.2-2.8,92.3,10.9,136.9c5.6,18.4,13.6,35.4,22.2,52.5c4.7,9.2,7.9,19.2,9.4,29.5c0.4,2.5,3.8,16.6,2.1,18.7
		c0.8-1-9.8-15.3-12.4-13.8c1.6-0.9,13.7,30.4,18.9,28.6C1728,467.2,1713.5,415.1,1710.8,409.8L1710.8,409.8L1710.8,409.8z
		 M1544,192.3c-3.4-2.7,3.5-0.5,4.7,0.1c2,1,3.6,2.5,4.7,4.3c3,5.6-0.2,6.8-6.7,8.5c-4.9,1.2-17.4,2.4-21.1-2.2
		c-3.7-4.5,1.5-9.1,6.5-10.2c-4.8,4.5-1,12.1,5.2,12.5C1542.9,205.8,1549.6,196.8,1544,192.3L1544,192.3z M1576.6,206.2
		c-1.8,15.2-13.2,18.2-26.2,19.5c-11.5,1.2-26.8,3.1-38.4,1c-12.9-2.4-21.2-24.3-12.3-35.3c6.8-8.5,26.3-3.1,35.7-3
		c-1.7,0.2-20.2,5.1-18.2,10.4c0.7,1.7,6.7-2.9,7.8-3.5c-4.6,4.7-5.9,4.1-1.8,8.3c3.9,4.1,14.4,4.7,19.5,4c2.9-0.3,13-2.3,14.9-4.9
		c2.7-3.9-0.3-3.7-3.8-8c0.9,0.4,9,7.6,10.2,6.1c2.4-3-18.1-11.7-19.8-12.1C1556.7,189,1579,187.9,1576.6,206.2L1576.6,206.2z
		 M1613.2,194c-9,17.2,27.1,5.6,8.6-3.1c9-1.4,18.5,9.1,6.7,13.1C1620.9,206.6,1598,202.6,1613.2,194
		C1609.4,201.3,1611.9,194.8,1613.2,194L1613.2,194z M1624.5,224c-8-0.4-15.5-1.3-20-8.6c-5.1-8.3-5.6-18.9,4.7-22.2
		c-0.2,0.1-7,7.4-5.2,7.8c1.1-0.7,2-1.5,2.8-2.4c-2.2,9.3,12.1,9,18.7,7.9c5.4-0.9,16.2-3.4,10.8-9.9c1.2,0.9,2.7,1.3,4.2,1.2
		c0.3-0.5-9.9-8.1-11.3-8.7c7.8-0.9,15.5-1.4,23.3-1.5c-1.1,6.1-0.4,12.5,0.4,18.6c0.3,2.3,3.8,12.3,2.9,13.9
		C1652.6,226.2,1630.5,224.2,1624.5,224L1624.5,224z M1670.9,202.9c-1.1,7.3-5.6,13.6-12.4,16.6c-1.1-5.9-8-26.6-1.8-31.8
		c1.7-1.5,12.5,0.4,14.2,2.5C1672.8,192.5,1671.3,200.2,1670.9,202.9z"/>
</g>
<g>
	<path d="M931.9,453c-5.1,0-11.3-3.5-14.6-6.5c-2.2-2.1-12.3-8.1-12.8-11.1c-1.1-5.4,7,0.7,8,1.4c6.7,4.9,7,5.8,14.2,10.1
		c3.6,1.3,11.8-14.2,25.5-15.5c8.5-0.8,16.9,2,25.4,1c2.1-0.2,11.6,0.2,4.3,2.6c-11.8,3.9-26.9-5.2-37.2,2.3
		C940.2,440.3,934.9,452.8,931.9,453L931.9,453z M893.4,339.3c-4.1,0,4.3-2.9,4.9-3.5c0.2-0.2,11.5-2,12.6-2.1
		C923.7,333.2,895.4,339.3,893.4,339.3z M897.9,195.4c-6.8,0,9.3-11.4,11-12.1c4.8-1.7,28.2,2,33.7,4.2c5.2,2.3-17.3-1.2-20.2-1.4
		c-4.9-0.3-9,1.1-13.5,3C906.3,190.4,900.6,195.4,897.9,195.4L897.9,195.4z M802.5,222.7c-6.5,0,11.6-13.2,13.5-14.2
		c4.5-2.5,25.4-12.6,27.4-1.8c0.3,2.1-12.2-0.3-16.2,1c-5.1,1.8-9.9,4.3-14.3,7.5C810.3,216.7,805.2,222.7,802.5,222.7L802.5,222.7z
		 M938,202.6c-2-7.1-27.8-2.8-34.3,1.6c-4.6,3.1-14.3,13.7-9.6,10.6c2.3-1.4,3.1,0.8,2.5,1.6c-1,1.8,2.7,3,6.2,2.1
		c10.6-3,25.5-1,29.8-11.1c0.2-0.7,0.1-1.4-0.1-2.2C937.1,205.4,938.9,205.9,938,202.6z M909.3,206.4c0.3,5.3,3.5,7.4,6.8,7.4
		c-4.7,0.7-12.4,1.2-15.5,1.8c-0.7-1,0.3-5.1,2.2-6.4C904.9,207.7,906.5,206.2,909.3,206.4z M925.2,211.3c-2.1,1.1-4.2,1.7-6.5,2.1
		c3.8-1.1,6.8-4.6,4.9-8.5c1.8,0.1,4.1,0.3,6.3,0.4C928.2,207.2,926.3,210.6,925.2,211.3L925.2,211.3z M889.1,248.8
		c-2.4-4.7-3.7-12.5-7-19c-2.6-5.6-4.2-11.6-4.7-17.8c-0.3-2.4-1.7-1.8,4.6-6.4c4.8-3.5,0.3,4.5-0.1,5.6c-1,4,0.4,9.9,2.5,15.1
		C888.2,234.9,893.6,257.7,889.1,248.8z M851.3,222.3c3-0.2,6.3-2.7,4.3-2.7c-4.2,0-15.5-2.9-21-2.1c-4.1,0.7-11.6,3.6-15.4,5.3
		c-3.3,1.5-11.7,9.7-2.6,11.4c1.4,0.3,1-0.1,3-2c0.9,4.1,3.8,4.7,11.5,3.3c5.1-1,18.5-3.1,24.9-9.3
		C857.5,225.1,853.7,223,851.3,222.3L851.3,222.3z M831.4,233.8c-10.4,1.3-6.5-0.7-8.9-3.4c1-0.9,6-5.1,6.7-5.5
		c-3.7,16.6,20.2,3.7,11.6-2.7c0.9,0,2.7,0.2,4.8,0.2c-0.3,0.8,0.8,2.3,4.7,4.6C845.9,229.5,837.1,233.1,831.4,233.8L831.4,233.8z
		 M943.2,281.4c-3.7,0.3-7.5,0.8-11.1,1.5c-5.3-0.4-17.2,6.4-33.8,10.2c-1.1,0.2-2.7,3.5-3.8,3.7c-0.9,0.1-3.8-1.3-4.7-1.2
		c-10.8,1.5-24.2,5-31.7,9.3c-4.9,2.9,1.2,2.4,3.1,3.8c2,1.4,5.5,2.2,6.8,4.2c0.9,1,1.7,2.1,2.6,2.9c6.3,6.5,12.6,13.9,22.9,12.1
		c19.1-3.6,27.7-3.5,36.7-19c1.5-2.5,7.2-11.9,8.6-14.6C943.3,287.1,952.7,280.4,943.2,281.4L943.2,281.4z M919.4,315.5
		c-6.3,5.2-17.3,8.1-25.1,8.7c-4.6,0.3-9.1,0.7-13.2-2c-2-1.4-3.6-3.3-4.8-5.3c4.7,2,8.8,3.4,10.2,3.4c13.9-0.2,27.5-4.5,39-12.3
		C924.2,311,922,313.6,919.4,315.5L919.4,315.5z M911.9,310.7c-7.4,2.2-18,6.4-25.8,5.6c-8.7-0.9-14.3-8-23-9.8
		c-2.2-0.9,18.9-2.8,27.9-4c8.4-1.1,16.1-4.2,23.8-7.4c7.9-3.3,17.9-9.4,26.8-9.2C932.1,295.8,925.5,306.6,911.9,310.7L911.9,310.7z
		 M956.1,300.3c-3.7,8.6-2.7-16.6-0.5-22c1-2.6,0.8-9.7-3.6-9.1c-2.6,0.3-1-2.3,2.5-3.3c5.8-1.6,3.9,10.3,2.3,14.1
		C955.3,283.6,957.5,293.6,956.1,300.3z"/>
	<path d="M1097.9,403.6c-3.8-4.9-11.6-5.6-17.5-3.6c-4.6-1.4-12.7-2.9-13.5-3c-6.3-1.6-12.9-1.8-19.3-3.5
		c-6.4-1.6-30.3-11.6-39.9-11l0.1-0.2c0.4-0.7,3.3-2.2,4.1-3.6c1.1-1.7,1-5.4,1-7.5c0-8.6-3.7-16.1-2.8-24.9
		c1.6-17,9.3-34.6,11.4-51.8c2.2-17.7,4.5-36.6,3.6-54.4c-3-55.7-43.5-101.6-74.7-145.5c-7.3-10.2-15.7-21-26.9-27.3
		c-1.7-1-19.9-13.1-24.5-10.6c1.6-29.8-38.7-28.5-59.6-21.1C770.2,60.3,736.5,145.3,715,207.8c-12.2,35.3-29.2,76.6-22.5,114.6
		c1.8,10.3,13,20.5,16.4,30.2c3.4,9.6,3.7,19.2,2.6,29.2c-0.3,3.6-7.2,30.8-5.5,41.4c-4.1,2.2-8.1,4.7-11.9,7.5
		c-1.1,0.9-8.1,6.2-5.3,8.7c2.9,2.5,3.8-2.8,5.5-4c8.1-5.5,17-8.9,25.7-13.1c0.8,3.7-4.3,20.5-2.2,20.5c5.6,0,8.7-19.4,5.5-22.8
		c-2.4-2.5-7.9-1.2-13.7,1.4c1.8-11.8,11.3-38,11.6-42c2-23.1-17.6-39-19.9-60.9c-4.3-42.5,13.2-86.8,27-126.1
		c11.2-31.7,22.3-64.3,41.9-92.1c19.2-27.4,48.3-54.9,83-59.1c12.4-1.5,33.9-1.4,40.6,11.7c3.3,6.4-2.4,13.8,0.2,19.7
		c2.7,6.3,1.3-2.8,14.2-2.8c5.1,0,13.6,4,17.7,7c10.5,7.5,19.2,15.4,26.3,26c32,47.7,66.6,92.8,65.8,153.1
		c-0.3,16.6-1.6,33.1-4.1,49.5c-2.2,14.8-8,30.2-8.1,45.2c0,7.1,3.3,13.8,3.3,20.7c0,9.7-8.4,0.9-10.1,4
		c-2.4,4.3,2.1,41.7,10.6,41.7c3.9,0-2.1-14.7-2.3-15.7c-1.4-6-2.1-10.6-0.9-14.9c3.4,1.4,9.7,2.3,10.6,2.6
		c6.5,2.4,13.8,3.7,20.5,5.6c10.4,3.1,26.4,7.9,38,8.5c-6.1,5.6-8.7,16.2-12.7,23.1c-9.6,16.6-24.4,26.5-40.4,36.4
		c-19.2,11.7-39,22.8-60.4,30.1c-10.4,3.6-21.2,6.1-32.1,7.5c-2.7,0.3-15.5-0.5-16.9,1c-0.7,0.8-4,4,0,4
		c44.8,0,86.2-22.2,122.8-46.3c15.4-10.2,26.4-22.2,34.6-38.7c3.1-6.3,6.2-16.7,14.6-17.3C1085.8,402.9,1103.1,410.6,1097.9,403.6z"
		/>
	<path d="M851,336.6c14.3,13.9,30.5,35.3,52.6,35.3c18.5,0,32.9-15.2,43.8-28.5c2.6-3.1,13.5-14,13.7-3.8c0.1,3.7,5.1,32.4,7.1,23.9
		c0.5-2.2,0.9-19.7,0.5-27.3c-0.1-3.3,1.8-22.7,5.4-28.5c4.6-7.3,6.2-12.4,7.1-21c1-8.4,1.8-15.1,2.1-23.6c0-2.2-0.3-12.1-1.4-15.9
		c1.3-2.3,2.5-4.3,3-5.1c3.6-5.3,5.1-9.6,3.8-16.1c-1-5.5-2.9-18.6-8.7-19.9c-6.1-1.3-13.5-2.1-14.9-18.9
		c-1.4-18.4-21.1-23-32.3-36.1c-9.8-11.4-13.1-24.3-16.7-38.4c-1.2-4.5,0-12.7-4.1-15.4c-2.5-1.6-14.6-2.8-13,0
		c2.7,4.8,3.7,9-9.8,7.9c-4.8-0.3-9.2-1.5-14-1.1c-9.6,1-17.7,6-26.6,9.2c-13.9,5.1-30,4.5-42.9,12.4c-14.6,9-23.1,26.5-24.2,42.6
		c-1.3,20.6,9.4,37,16.4,55.8c1.8,5,11.6,64.5,13,67.7c5.1,10.8,15.6,25.6,23.8,33.7c3.6,4.2,2.9,26.4,3.3,29.4
		c1,9.7,3.3,20.5,5.5,30.7c3.1,14.2,12.2,24.5,20.1,36.6c8.5,12.9,17.3,25.5,23.1,40c3.3,8.1,5.6,16.5,7.3,25.1
		c0.8,3.9,1.7,29.5,4.7,29.5c6.7,0-4.3-45.2-6.6-51.6c-5.2-14.6-13.4-27.5-21.8-40.3c-7.7-11.6-15.4-23.2-19.4-36.7
		c-2.6-9-3.9-18.4-3.7-27.7c0-3.1,2.7-18.6,3-25.4L851,336.6L851,336.6z M822.3,297.4c-1.2-2.3-6.5-13.2-8.3-18.2
		c-5-14-10.8-51.5-12.5-56c-8-21.5-15.5-39.7-11.3-63.3c2.9-15.9,10.9-25,26.6-30.6c7.7-2.7,18.7-2.7,26.5-4.6
		c9.1-2.1,17.3-8.7,26-11.7c9.7-3.4,13.5-4.3,23.2-2.7c1.7,0.3,12.2,2.1,17.2,1.1c1.7,4.9,4,10.8,5.4,15.4c2.3,8,6,15.6,10.8,22.6
		c9.1,12.7,24.9,20,31.6,34.2c2.4,5.1,4.9,40.9,6.3,40.9c3,0,3.7-5.8,3.3-12.6c3.6,1.5,10.5,2.3,12.4,4c3.4,3,5.9,10.8,5.8,15.1
		c-0.1,3.5-16.1,26.4-10.4,26.4c0.4,0,1.3-1,2.4-2.4c-1.1,13.8-1.1,38.3-2.5,42.2c-2.6,7.4-7.2,13.9-11.9,20
		c-0.5,0.8-5.5,6.3-7.1,9.9c-3.3,3.5-6.2,7.1-9,10.9c-9.4,11.8-21,25.7-36.4,29.2c-19.8,4.5-35.5-12.5-48.1-25.1
		C847.8,327.7,831.8,315.9,822.3,297.4L822.3,297.4z"/>
	<path d="M864.7,270.3c-3.3,12.9,5.6,15,10.6,13.9c7.8-1.6,12.9,6.6,20.2-0.2c2.5-2.4,3.6-6,6.2-8.1c2.6-2.3,7.7-3.1,10.2-5.1
		c4.5-3.5,4.1-13.7-2.9-15.5c-6.1-1.6-8.1,3.1-4.5,2.1c3.4-1,8.9,3,5.8,9.8c-1.7,3.7-7.8,2.6-10.9,4.7c-3.3,2.2-2.4,6.7-5.1,9.2
		c-6.3,5.6-10.8-0.5-17.8-1.6c-2.7-0.4-7.3,1.7-9.3-1.4C867.2,278,866.4,266.1,864.7,270.3z"/>
</g>
<g>
	<path d="M1354.1,174.5c2.5-3.6,9.1,1.2,8.1-5.8c-0.6-4.4-12.1-14.7-14.6-19.5c-13.7-25.6-14.8-55.3-26.1-81.6
		c-9.1-21.1-33.1-44.3-57.5-45c-6.3-0.2-12.6,2.2-18.5,3.2c-6.7,1.2-13.8-2.6-16.7-3.8c-16.2-6.7-33.9-9.3-51.3-6.8
		c-28.8,4.2-53.9,21.7-70.7,45c-15.3,21.1-26.2,49-36.2,73.1c-8.2,19.7-16.1,49.3-11.1,70.3c1.6,6.6,6.4,12.2,7.7,18.6
		c0.9,4.8,0,10.1,0.6,15c1.7,15.2,11.4,26.4,12.8,41.5c0.5,5.2-0.2,21.7,5.8,16.1c10.5-9.9,5.6-40,16.5-49.9
		c-0.4,6.8,2.3,12,2.6,17.9c0.4,6.6-4.9,28-6.9,33.8c-0.7,2.1-1.5,2.5-1.4,3.9c0.7,5.5,6.6,14.3,8.4,17.1c1.3,2,11.1-6.4,10.9-8.4
		c-0.6-6.2-10.4-43.6-3.7-47.1c2.8,12.5,3.2,25.3,5.3,37.9c1,5.8,2.2,11.5,4.4,17c0.8,1.9,7.1,11.6,6.7,12.9
		c-1.3,4.1-13.7,5.1-18.7,6.5c-9,2.6-17.7,7.1-26.7,9.5c-5.3,1.4-52.3,13.8-49.5,19.9c1.3,2.8,37.3-10.7,42.3-11.7
		c-1.4,11.4,7.1,26.8,6,8.2c-0.7-11.1-0.4-11.7,10.2-15.7c11.3-4.3,23.9-5.5,36-6.8c-0.8,8.4-2.2,13.6-4.5,21.7
		c-0.5,1.8-9.5,11.2-5.1,11.5c7.6,0.5,17-30.8,17.4-35.6c9.6,11.7,17,19,27.2,30.1c9,9.9,17.4,16.5,31,18.7
		c30.7,5,56.7-19,80.1-42.1c0,3.2,7.6,33.6,13.4,30.8c1.8-0.8-5.9-23.3-5.9-27.3c8.7,3.6,15.5,5.9,23.3,11c4.2,2.8,12.9,8.5,14.6,10
		c1.3,1.1-2.6,13-3.8,16.5c-2.4,7.1-13.9,32.9-18.7,44.8c-6.2,15.2-27.1,44.6-33.7,47.6c-13.2,5.9-43.1,20-76.7,16.1
		c-28.2-3.2-54.9-16.5-61.7-22.4c-13.8-11.7-16.1-2.2,1,7.2c12.8,7.1,36.1,17.8,58.9,19.6c14.6,1.2,76.1-3.3,93-26.8
		c2.3-3.2,15.3-21.2,24.5-41.4c4.5-9.9,17.9-39.3,20.2-47.1c0.5-3.8,6.6-10.5,8.4-8.4c8.2,9.4,7-2.6-0.9-6
		c-12.6-5.5-23.8-14.4-35.3-21.7c-4.6-2.9-13.5-4.8-13.4-10.3c0.1-6.2,9.4-15.8,11.9-21.9c6.8-16.1,10.6-34.9,12.6-52.2
		c4.2,3-2,23.1-3.1,28.9c-1.2,5.9-3.8,17.3-5.2,23.1c-0.6,2.4-2.7,4.4-2.6,6.1c0.2,3.6,5.2,9,8.6,11.2c2.3,1.4,13.9-18.6,13-21.6
		c-2.7-9.7-4.3-31.1-3.8-44.7c0.1-3.8,7.1-3.9,7.9-17.2c0.6-10.9,1.2-25.6,10.9-30.2c11.6-5.7,11.6-11,19.9-14.3
		c3.6-1.4,10.8-0.7,14.2-1c8.4-0.7,0.5-8.6-5.3-14.4C1357.8,184.5,1352,177.6,1354.1,174.5z M1106.5,314.6
		c-1.9-2.2-4.2-7.9-5.8-12.1c4.3,1.5,8.7,3.9,12.3,6.7C1111.6,311.3,1108.5,313.1,1106.5,314.6z M1113.2,305.5
		c-2.9-1.7-9.1-5.2-12.3-6.2c0.7-5.4,5.5-23.8,7.4-33.1C1108.9,277,1111.2,294.9,1113.2,305.5z M1310.9,272
		c-0.5,17.4,3.3,35.9,2.2,37.8c-1.3,2.1-8.8,4.3-11.3,5.8C1304.5,305.8,1310.2,275.3,1310.9,272z M1314.8,312.8
		c-2.4,4.4-6.4,11-9.6,14.8c-0.3-0.4-3.9-5.2-5.3-7C1303.8,318,1310.6,315,1314.8,312.8z M1320.9,227.4c-2.7,8.3-0.2,22.7-5.5,29.3
		c-2-5-5,1.5-5.4,2.8c-4.9-1.8,4.3-30.6-3.6-18.3c-6.2,9.8-4.7,30.2-7.4,41.6c-7.1,30.2-29,60.2-38.8,68c-16.5,13-38.2,34-60.8,32
		c-19.2-1.7-25.9-14.2-38.4-26.9c-17.1-17.5-35.2-32.3-39.2-57.3c-1.8-11.6-0.2-23.1-2.6-34.6c-0.4-2.1-1.6-17.2-5.7-16.1
		c-3.7,0.9-0.2,9.5-2.6,10.8c-0.1-1.3-1.4-6.7-3.6-3.5c-0.8-3.2-1.8-10.4-0.2-13.3c1.5-2.9,8.1-5.4,10.4-8.2
		c7.2-8.5,11.6-29.2,12.7-18.5c0.7,7.1,2.7,20.3,2.1,30.6c-0.3,5.5-2.1,29,5.2,13c5.5-12.1,5.4-24.8,5.1-37.8
		c7,2.4,45.8,2.6,36.9-9.7c0.9,1,5.2,2.4,4.3-0.4c-1.1-3.5-5-6.2-8.1-7.5c-9.3-3.9-23.3-0.2-33.3-0.2c0.1-6,3.3-8.1,12.5-6.5
		c5.6,1,8.4,3.2,14,2.2c4.1-0.7,5-3.4,8,1.1c1.4,2.1,1.6,3.8,4.6,3.9c5.8,0.2-2.1-11.6-6.6-11.9c-2.7,0-6.1,1.1-8.5,2.3
		c-2,1-4.7,1.3-7.5-0.3c-5.8-3.3-8.8-5-15.2-1.8c11.6-66.4,93.3-37.7,125.2-83.1c12.1,13.4,19.2,19.4,21.9,38
		c2,13.8,4.7,21.8,11.9,33.4c3.4,5.5,4.7,10.8,4.7,17.2c0,4.5-4.7,21.9-0.1,25.2c7.2,5.2,9.1-16.5,14.5-15.5
		C1328.1,208.4,1322.4,222.8,1320.9,227.4z M1158.7,218.5c-0.6,0.1-1.3,0.2-1.8,0.3C1157.4,218.7,1157.9,218.6,1158.7,218.5
		c0.1,0,0.2,0,0.3,0C1158.9,218.5,1158.8,218.5,1158.7,218.5c5.2-0.9,9.8-7.4,6.6-12.4c5.3-0.4,12.9,9.1,9.9,9.7
		c-6.3,1.3-10.6,3.3-17,3.8c-3.3,0.3-8.9-0.1-11.6-1.6c-5.2-2.9-4.2-4-4.2-10.7c2.1,0,4.2,0,6.3,0
		C1147.2,213.2,1152.5,219.6,1158.7,218.5z M1347.2,199.5c-4.8,3.4-9.5,13.8-16.8,9.4c-3.9-2.3-2.7-6.5-8.1-7.7
		c-6.2-1.4-6.1,8.8-9.1,5.5c-4.9-5.6,1.1-8.6-0.6-18.1c-1.1-6-5.3-10-8.7-14.8c-10-14.1-5.6-33.4-12.1-48.9
		c-4.1-9.9-19.4-23.2-24-33c-1.9-4.1-2.7,9.8-4.1,11.9c-1.9,3-4.8,5.4-7.5,7.6c-5.2,4.2-11.1,7.7-16.9,11.1
		c-30.1,17.5-70.9,10.7-91.1,42.8c-16.7,26.4-6.1,60.4-10.5,68.3c-2.3,4.3-1.4-3.7-2.8-11.5c-1.3-7.4-2.2-18.9-2.6-26.4
		c-0.5-7.2-1.9-12.3-5.6-3.1c-4.9,11.8-3.5,23.8-11.2,34.6c-6.7,9.4-19.2,3.1-21.6,18.5c-1.6,10-4.3,38.3-7.4,28.7
		c-2.5-8.1-12.2-23.1-13-42.3c-0.4-8.2,0.5-14.2-3.1-21.6c-4.9-10.2-7.9-19-6.5-30c4.7-37,21.1-66.6,37.4-99.8
		c19.4-39.3,61.2-66.2,105.6-58.1c10,1.8,22.7,1.6,30.5,8.5c2,1.7-0.1,7.6,5.1,5.7c0.6-0.2,6-5,7.5-5.9
		c16.6-10.1,36.2,4.7,48.4,15.2c37.2,31.7,23.5,95.3,54.8,118c10,7.3-25.7,1.9,4.4,28.3C1363.5,197.5,1352.7,195.7,1347.2,199.5z"/>
	<path d="M1378.8,385.6C1376.4,385,1378.2,385.5,1378.8,385.6C1379,385.7,1379.1,385.7,1378.8,385.6z"/>
	<path d="M1156.6,218.9c-0.2,0-0.3,0-0.3,0.1C1156.4,218.9,1156.5,218.9,1156.6,218.9z"/>
	<path d="M1156.9,218.8c-0.1,0-0.2,0-0.3,0.1C1156.7,218.8,1156.8,218.8,1156.9,218.8z"/>
	<path d="M1157,218.8C1157,218.8,1157,218.8,1157,218.8C1157,218.8,1157,218.8,1157,218.8z"/>
	<path d="M1160,218.3C1160.4,218.2,1160.3,218.2,1160,218.3L1160,218.3z"/>
	<path d="M1159,218.4c0.2,0,0.4-0.1,0.6-0.1C1159.4,218.4,1159.2,218.4,1159,218.4z"/>
	<path d="M1159.6,218.3c0.1,0,0.3,0,0.4-0.1C1159.8,218.3,1159.7,218.3,1159.6,218.3z"/>
	<path d="M1282.3,197c-7-4.3-14.9-5.8-23-5c-7.6,0.8-13.6,4.3-20.7,3.4c-5.3-0.7-10.8-5.4-16.2-0.1c-1.6,1.6-3.1,6.8-1.7,8.6
		c2.7,3.5,5.9-3.8,7.8-4.5c2.7-1,8.3,2.5,12.1,2.3c2.3-0.1,6.7-2.7,8.6-3.4c7.9-2.5,16.7-2.7,24.8-0.1c5.6,1.9,13.9,11.9,18,11.9
		C1298.8,210.1,1283.4,197.6,1282.3,197z"/>
	<path d="M1193.4,227.9c2.5-5.6-0.5-15-2.4-13.4c-1.6,1.3,1,6.2-0.6,12.9c-0.5,2.2-1.8,10,0.5,12.7
		C1193.1,242.7,1190.9,233.5,1193.4,227.9z"/>
	<path d="M1281.1,212.5c-13.4,0-22-12.3-36.7-9.6c-4.7,0.8-12.3,3.1-15.4,6.8c-1,1.2-6.3,7.1,1.4,3.9c-9.1,9.3,26.4,13.7,32.2,12.5
		c6.6-1.3,10.6-6.9,13.6-7.8C1277.6,218,1288.2,212.5,1281.1,212.5z M1257,222.4c-7.3-0.1-15.5-0.5-21.8-4.1
		c-3.5-2,3.4-10.2,9.1-11.3c-10,14.4,25.8,19.3,18.1,2c2.5,1.3,5.6,3.5,8.8,5.2C1277.1,217.2,1259,222.4,1257,222.4z"/>
	<path d="M1241.5,309.1c-1.9-1.6-5,1.4-7.9,1.3c-5.6-0.2-12.2-2.9-17.8-2.7c-4.5,0.2-8.9,1.6-12.9,1.7c-3.8,0-8.8-1.7-12.9-1.9
		c-5.3-0.3-10,3-15.3,2.8c-4.1-0.2-6.1-4.1-10.1-1.9c-5.3,2.9,2.7,2,3.3,2.3c2.6,1.4,4.8,9.5,7.1,12c2.4,2.8,4.2,4.2,7.6,5.7
		c7.5,3.2,15.2,3.6,23.2,3.7c6,0.1,13.3-0.6,18.3-4.3c4.3-3.2,6.2-11.1,10.8-13.9C1241.6,309.8,1246.9,313.4,1241.5,309.1z
		 M1219.3,326.2c-5.9,2.8-17,3.6-26.8,2.1c-8.5-1.4-11.4-4.3-15.9-11.6c7.2,3.6,14.2,3.4,25.5,3.4c11.2,0,20,0.6,25.1-1.9
		C1224.7,321.2,1223,324.4,1219.3,326.2z M1177.4,312.6c2-0.4,8.8-1.5,10.8-1.8c4.4-0.7,8.7,3.6,15.5,2.8c3.4-0.4,8.9-2.5,12.5-2.8
		c4.5-0.4,8,1.6,12.4,2.4C1213.1,319.6,1195.9,318.2,1177.4,312.6z"/>
	<path d="M1166.8,412.1c-0.1-0.5-0.1-1-0.2-1.4C1166.6,411,1166.7,411.5,1166.8,412.1C1166.8,412.1,1166.8,412.1,1166.8,412.1z"/>
	<path d="M1166.8,412.1c-0.4-2.7-4.1-19-10-15.8c-3.9,2.1,4.2,8.8,5.2,11.9c1.5,4.5,0.6,15.7,6,17.9
		C1173.5,428.4,1167,413.8,1166.8,412.1c0.1,0.4,0.1,0.8,0.1,0.9C1166.9,412.9,1166.9,412.7,1166.8,412.1z"/>
	<path d="M1166.6,410.5c0,0.1,0,0.1,0,0.2C1166.6,410.6,1166.6,410.6,1166.6,410.5z"/>
	<path d="M1166.6,410.5C1166.5,410.3,1166.5,410.2,1166.6,410.5L1166.6,410.5z"/>
	<path d="M1234.3,418c-1.2,2.7-9,12-3.1,12c5.1,0,7.6-14.7,9.3-17.9c0.8-1.5,6.1-7.1,6-7.8c-0.1-1.1-0.3-4.5-2.9-2.5
		c0.1-0.1,0.1-0.1,0,0c-5.2,4.1-0.7,0.5,0,0C1237.8,406.5,1237.2,411.5,1234.3,418z"/>
	<path d="M1183.1,286.4c3.1,0.9,6.3-1.1,8.8-0.6c4.1,0.8,5.8,5.1,10.8,5.1c4.2,0,6.2-3.3,9.7-4c2.6-0.5,5.3,0.2,8.3-0.4
		c9.5-1.8,11.1-7.4,9.1-16.1c-0.7-3-5.2-15.3-6.9-8.7c-1,3.9,3,2.6,4.3,10c1.1,6,1.4,10.8-5.7,11.7c4.5-5-5.2-4.5-6.9-3.9
		c-3.4,1.3-3.6,5.5-9.3,6.9c-10.7,2.6-12.3-9.6-20-7.8c0.6-0.1,2.2-0.5,0,0c-0.3,0.1-0.2,0.1,0,0c-1.9,0.9-1.7,3.3-1,5
		c-7.6-2.7-7.2-7.9-6.2-13.5c1.3-7.4,5.1-3.1,4.5-7.6c-0.7-5.2-5.3-0.2-6.6,4.8C1174.1,275,1173.2,283.5,1183.1,286.4z"/>
</g>
</svg>
