<svg xmlns="http://www.w3.org/2000/svg" viewBox="0 0 512 512"><path class="a" d="M256,511A255,255,0,0,1,75.69,75.69,255,255,0,1,1,436.31,436.31,253.32,253.32,0,0,1,256,511Zm0-484.5C129.44,26.5,26.5,129.44,26.5,256S129.44,485.5,256,485.5,485.5,382.56,485.5,256,382.56,26.5,256,26.5Z"/><path class="a" d="M273.79,296.92H238.62a8.79,8.79,0,0,1,0-17.58h35.17a8.79,8.79,0,1,1,0,17.58Z"/><path class="a" d="M361.72,261.75a8.8,8.8,0,0,0-8.79,8.79v8.79H335.34a8.79,8.79,0,0,0,0,17.58h17.58v8.79a8.79,8.79,0,1,0,17.58,0V270.54A8.8,8.8,0,0,0,361.72,261.75Z"/><path class="a" d="M352.41,390.68,279,185.06a44,44,0,0,0-14-80.7V85.9h8.79a8.79,8.79,0,1,0,0-17.58H238.62a8.79,8.79,0,0,0,0,17.58h8.79v18.46a44,44,0,0,0-14,80.7L160,390.68a8.92,8.92,0,0,0-.51,3v17.58a8.79,8.79,0,0,0,17.58,0V395.17L256.21,173.6l79.13,221.57v16.05a8.79,8.79,0,1,0,17.58,0V393.64A8.92,8.92,0,0,0,352.41,390.68Zm-96.21-252a8.8,8.8,0,0,0-8.28,5.84l-8.37,23.42a26.39,26.39,0,1,1,33.29,0l-8.37-23.42a8.8,8.8,0,0,0-8.28-5.84Z"/></svg>
