<svg xmlns="http://www.w3.org/2000/svg" viewBox="0 0 512 512"><path class="a" d="M256,511A255,255,0,0,1,75.69,75.69,255,255,0,1,1,436.31,436.31,253.32,253.32,0,0,1,256,511Zm0-484.5C129.44,26.5,26.5,129.44,26.5,256S129.44,485.5,256,485.5,485.5,382.56,485.5,256,382.56,26.5,256,26.5Z"/><path class="a" d="M327.72,165.69H265.66l14.71-70.32a8.5,8.5,0,0,0-16.64-3.48l-15.44,73.8H204.35a8.5,8.5,0,0,0,0,17h40.38L199,401.12a8.5,8.5,0,0,0,3.75,8.91l21.81,13.9a8.5,8.5,0,0,0,10.23-.83l52.66-47a8.5,8.5,0,1,0-11.32-12.68l-47.85,42.71-11.43-7.28,45.22-216.16h65.61a8.5,8.5,0,0,0,0-17Z"/></svg>
