<svg xmlns="http://www.w3.org/2000/svg" viewBox="0 0 512 512"><defs><style>.a{fill:#e60073;}</style></defs><title>accoutrement_animate</title><path class="a" d="M256,511A255,255,0,0,1,75.69,75.69,255,255,0,1,1,436.31,436.31,253.32,253.32,0,0,1,256,511Zm0-484.5C129.44,26.5,26.5,129.44,26.5,256S129.44,485.5,256,485.5,485.5,382.56,485.5,256,382.56,26.5,256,26.5Z"/><path class="a" d="M287.31,145.55a36.07,36.07,0,1,1,26.1-43.82A36.1,36.1,0,0,1,287.31,145.55ZM274,93.11a18,18,0,1,0,21.91,13A18.05,18.05,0,0,0,274,93.11Z"/><path class="a" d="M297,440.71a9.24,9.24,0,0,1-3.41.19,9,9,0,0,1-7.75-10.12l12-90.37-60.63-36.1a9,9,0,0,1-4.19-9.67l22.73-103.9-53.13,13.47-41.75,46.22a9,9,0,1,1-13.37-12.09l43.58-48.25a9,9,0,0,1,4.47-2.69l69.91-17.72a9,9,0,0,1,11,10.65L252.06,292.15,312.2,328a9,9,0,0,1,4.33,8.93l-12.81,96.25a9,9,0,0,1-6.72,7.54Z"/><path class="a" d="M218.13,386.3l-78.65,19.93A9,9,0,1,1,135,388.76l74.29-18.83L225,332.49a9,9,0,1,1,16.64,6.94L224.23,381A9,9,0,0,1,218.13,386.3Z"/><path class="a" d="M392.55,230.48,322.63,248.2a9,9,0,0,1-9-2.84l-26.34-30.53a9,9,0,0,1,13.66-11.78l22.71,26.32L388.14,213a9,9,0,0,1,4.43,17.48Z"/></svg>