<svg xmlns="http://www.w3.org/2000/svg" viewBox="0 0 512 512"><path class="a" d="M256,511A255,255,0,0,1,75.69,75.69,255,255,0,1,1,436.31,436.31,253.32,253.32,0,0,1,256,511Zm0-484.5C129.44,26.5,26.5,129.44,26.5,256S129.44,485.5,256,485.5,485.5,382.56,485.5,256,382.56,26.5,256,26.5Z"/><path class="a" d="M401,168.18h-8.43v-8.43a25.31,25.31,0,0,0-25.28-25.28H131.42a25.31,25.31,0,0,0-25.28,25.28v33.7a25.31,25.31,0,0,0,25.28,25.28H367.33a25.31,25.31,0,0,0,25.28-25.28V185H401a8.43,8.43,0,0,1,8.43,8.43v33.7a8.43,8.43,0,0,1-8.43,8.43H266.23A25.31,25.31,0,0,0,241,260.86v26.73a25.31,25.31,0,0,0-16.85,23.83v84.25a25.28,25.28,0,1,0,50.55,0V311.41a25.31,25.31,0,0,0-16.85-23.83V260.86a8.43,8.43,0,0,1,8.43-8.43H401a25.31,25.31,0,0,0,25.28-25.28v-33.7A25.31,25.31,0,0,0,401,168.18Zm-25.28,25.28a8.43,8.43,0,0,1-8.43,8.43H131.42a8.43,8.43,0,0,1-8.43-8.43v-33.7a8.43,8.43,0,0,1,8.43-8.43H367.33a8.43,8.43,0,0,1,8.43,8.43Zm-118,202.21a8.43,8.43,0,0,1-16.85,0V311.41a8.43,8.43,0,1,1,16.85,0Z"/></svg>
