<svg xmlns="http://www.w3.org/2000/svg" viewBox="0 0 512 512"><path class="a" d="M256,511A255,255,0,0,1,75.69,75.69,255,255,0,1,1,436.31,436.31,253.32,253.32,0,0,1,256,511Zm0-484.5C129.44,26.5,26.5,129.44,26.5,256S129.44,485.5,256,485.5,485.5,382.56,485.5,256,382.56,26.5,256,26.5Z"/><path class="a" d="M373.21,106.25a8.5,8.5,0,0,0-9.49,2.94L266.44,238V114.31a8.5,8.5,0,0,0-15.28-5.12L150,243.19V114.31a8.5,8.5,0,0,0-17,0V396.58a8.5,8.5,0,0,0,17,0V267.7l101.17,134a8.5,8.5,0,0,0,15.28-5.12V272.85l97.28,128.85A8.5,8.5,0,0,0,379,396.58V114.31A8.5,8.5,0,0,0,373.21,106.25Zm-123.76,265L162,255.45l87.4-115.77Zm112.56,0L274.6,255.45,362,139.68Z"/></svg>
