<svg xmlns="http://www.w3.org/2000/svg" viewBox="0 0 512 512"><path class="a" d="M256,511A255,255,0,0,1,75.69,75.69,255,255,0,1,1,436.31,436.31,253.32,253.32,0,0,1,256,511Zm0-484.5C129.44,26.5,26.5,129.44,26.5,256S129.44,485.5,256,485.5,485.5,382.56,485.5,256,382.56,26.5,256,26.5Z"/><path class="a" d="M133.41,413.42a7.87,7.87,0,0,1-7.87-7.87V106.45a7.87,7.87,0,1,1,15.74,0V405.55A7.87,7.87,0,0,1,133.41,413.42Z"/><path class="a" d="M306.57,240.26H180.64A23.64,23.64,0,0,1,157,216.65v-63a23.64,23.64,0,0,1,23.61-23.61H306.57a23.64,23.64,0,0,1,23.61,23.61v63A23.64,23.64,0,0,1,306.57,240.26ZM180.64,145.81a7.87,7.87,0,0,0-7.87,7.87v63a7.87,7.87,0,0,0,7.87,7.87H306.57a7.87,7.87,0,0,0,7.87-7.87v-63a7.87,7.87,0,0,0-7.87-7.87Z"/><path class="a" d="M401,381.93H180.64A23.64,23.64,0,0,1,157,358.32v-63a23.64,23.64,0,0,1,23.61-23.61H401a23.64,23.64,0,0,1,23.61,23.61v63A23.64,23.64,0,0,1,401,381.93ZM180.64,287.48a7.87,7.87,0,0,0-7.87,7.87v63a7.87,7.87,0,0,0,7.87,7.87H401a7.87,7.87,0,0,0,7.87-7.87v-63a7.87,7.87,0,0,0-7.87-7.87Z"/></svg>
