<svg xmlns="http://www.w3.org/2000/svg" viewBox="0 0 512 512"><defs><style>.a{fill:#e60073;}</style></defs><title>accoutrement_core</title><path class="a" d="M256,511A255,255,0,0,1,75.69,75.69,255,255,0,1,1,436.31,436.31,253.32,253.32,0,0,1,256,511Zm0-484.5C129.44,26.5,26.5,129.44,26.5,256S129.44,485.5,256,485.5,485.5,382.56,485.5,256,382.56,26.5,256,26.5Z"/><path class="a" d="M162.74,396.14a24.53,24.53,0,0,0,17.46,7.31h.61a24.54,24.54,0,0,0,17.77-8.25l70.58-78.53,71.49,78.63A24.91,24.91,0,0,0,359,403.47a24.6,24.6,0,0,0,17.54-7.32l19.29-19.29A24.7,24.7,0,0,0,395,341h0l-81.27-73.87,10.53-11.72.64.24a70.06,70.06,0,0,0,86.86-97.76,7.87,7.87,0,0,0-12.56-1.94l-35.13,35.13h-15.5V175.57l35.13-35.14a7.9,7.9,0,0,0,2.22-6.77,7.79,7.79,0,0,0-4.15-5.78A70.07,70.07,0,0,0,284,214.73l.24.64-13.78,12.41L226,187.32a8.94,8.94,0,0,1-.3-13.11l40.72-40.72A7.89,7.89,0,0,0,260.8,120c-.73,0-18.13,0-37.09,1.12-35.81,2.11-44.42,6.08-48.4,10.06l-62.15,62.15a7.87,7.87,0,0,0-2.3,5.58v9.88H101a7.9,7.9,0,0,0-5.58,2.3L77.64,228.88a7.89,7.89,0,0,0,0,11.14l35.52,35.51a7.89,7.89,0,0,0,11.14,0l17.76-17.75a7.87,7.87,0,0,0,2.3-5.58v-9.88h9.88a7.92,7.92,0,0,0,5.58-2.3l14.08-14.08a8.93,8.93,0,0,1,13.09.3l38.27,42.1L144.41,341a24.58,24.58,0,0,0-1,35.86ZM299,223.29a8,8,0,0,0,1.81-9.33l.88-.47h0l-.89.44a53.54,53.54,0,0,1-5.52-23.87,54.34,54.34,0,0,1,67.1-52.75l1.72.42-29,29a7.83,7.83,0,0,0-2.3,5.57V199a7.9,7.9,0,0,0,7.88,7.88h26.64a7.9,7.9,0,0,0,5.58-2.3l29-29,.42,1.72a54.31,54.31,0,0,1-76.62,61.59,7.85,7.85,0,0,0-9.32,1.81l-14.3,15.89-19.92-18.11Zm-100.37-7.64a24.91,24.91,0,0,0-18-8.18l-.37,0a24.64,24.64,0,0,0-17.55,7.32L151,226.58H136.48a7.88,7.88,0,0,0-7.88,7.88V249l-9.88,9.88L94.35,234.46l9.87-9.88h14.5a7.9,7.9,0,0,0,7.88-7.88V202.2l59.81-59.76c1.57-.89,9.07-3.94,39.92-5.65,3.76-.22,7.75-.4,12.56-.57l2.54-.09L214.5,163.05a24.69,24.69,0,0,0,.86,35.9l16.26,14.79-18.18,18.17Zm25.39,28,19.25-19.24.71.64L384.41,352.66a8.94,8.94,0,0,1,.3,13.11L383,367.48v0L365.42,385a8.93,8.93,0,0,1-13.09-.3ZM155,352.74,235.87,280,258.54,305l-.6.67L187.13,384.4l-.24.28a8.86,8.86,0,0,1-6.42,3h-.22A8.94,8.94,0,0,1,173.9,385l-19.29-19.28a8.82,8.82,0,0,1,.34-13Z"/></svg>