<svg xmlns="http://www.w3.org/2000/svg" viewBox="0 0 2280.12 545.64">
  <path d="M542.06 176.7c-4.91 0-1.91-5.94-1.31-7.22-3.6-1.49-5.08 1.49-5.32-3.85-10.52 4.37-14.11-2.7-23.61-5.11-7.07-1.79-13.28-.2-20.64-2.3-5.43-1.56-8.22-2-13.54.79-2 1.05-5 4.85-7 5-7 .56.35-5.39 2.64-6.95 8.06-5.49 12.42-7 20.69-4.75 7.95 2.16 14.13-.55 22.18 2.66 3.16 1.26 5.76 4.53 9.17 5 3.07.45 9.5-2.65 11.24-2.07 3.9 1.28 2.62 3.74 5 5.62 1.73 1.35 3.92.47 5.07 4.27 7.97-7 2.37 8.91-4.57 8.91zm96.69 12.53c-3.46 0-9.08 0-12.36-1.22-2.74-1-5.29-4.49-6.39-4.92-5.08-2-13.16 5.17-13.85-3.77-5.1 1.12-8.58 4.26-14.2 5-2.4.33-5.72 1.66-7.3 0-1.33-1.37-.54-11 .52-11.71 4.7-3.23 8.57 2 8.26 5.1 5.59-.18 17.63-9.07 18 .59 5-.41 8.12-.75 12.72.59.4.12 2.34 3.05 4.44 3.85s9.07 1.19 10.33 2.45c.91.93 3.46 4.04-.17 4.04zM520.68 175.1c-6.5-2.94-14.59-1.71-21.42-.85-3 .37-18.78.63-20.5 2.77-4.15 5.17 5.82 3.42 8.87 3C486 184.95 514.56 195 517.85 195c2.6 0 8-4.11 9.59-6.91 1.28 1.72 2.62 3.13 3.79 3.13 5.93-.05-7.31-14.66-10.55-16.12zm-13.53 2.29c-3.37 1.41-4.09 5.59-2.64 8.82-5-2.61-10.39-5.56-13.65-6.65 5.4-.81 10.83-1.93 16.29-2.17zm8.67 13.48a9.34 9.34 0 0 1-3.3-.83h.21c3.45-.86 7.48-9.61 1.65-12.31a15.68 15.68 0 0 1 8.92 4.45 25.52 25.52 0 0 1 2.46 3.46c-2.35.66-6.31 5.06-9.94 5.23zm106.86 5.49c-4.27-1.84-9.09-2.46-13.67-3-2.95-.33-19.23-3-20.48.57-.62 1.78 1.83 2.59 5.09 2.95-2.91 3.22 8.67 10.12 11.08 10.12 1.78 0 19.31-1.6 18.72-5.26 1.5.93 3 1.74 4 1.74 5.85.01-3.54-6.61-4.74-7.12zM605.06 203c-3-.31-6.05-3.94-8-5.88 1.65.05 3.31 0 4.76 0-.29 3.79 1.68 5.58 4.14 5.86a5.2 5.2 0 0 1-.9.02zm5-.81a7.33 7.33 0 0 0 3.8-4.2 30.68 30.68 0 0 1 5.23 1.31 11.12 11.12 0 0 1 1.8.91c-2.71-.21-7.15 1.07-10.79 1.97zm-69.14 149.15c-2.69 0-1.29-2.81-2.52-4.07-3.3-3.36-7.81-3.76-11.56-6.22-1.69-1.1-3.49-4.56-5.34-4.57-3.38 0-5.11 7.67-8.18 7.61-4.42-.1-1-9.44-1-13.48 0 1.51-.68-13.25 3.33-8.14 2.13 2.7.74 9.67.53 12.9 5.38-5.5 18.29 3.44 23.44 7.61 1-6.58 5.55-6.25 9.91-3.39.19-2.42 2.87-15.32 8.28-11.66 1.16.78-3.48 10.8-4.34 12.66-4.47 9.66-1.66-1.26-8.74.82-3.19.96.78 9.93-3.81 9.93zm47.96-72.73c-1.92-2.57-8.5-2.85-15.87-2.45-7.17-1.43-13.48.41-20.63-1.1s-11.77-3.49-19.08-4.58c-5.49-.82-21-3.44-27.91-5.24-6.1-.52-15.4-1-14.39 6.91.46 3.64 3.76 7.29 7.65 10.51a83.84 83.84 0 0 0 4.68 7.69c11.58 16.42 27.87 21.73 47.76 21.73 13.4 0 17.43-8.42 24-18.13a26.61 26.61 0 0 0 3.44-6.12c4.92-2.61 12.88-5.83 10.35-9.22zm-92.56-9c14.22-2.19 27.25 4.5 40.33 8.91 12.53 4.23 24.09 2.72 36.48 2.64a63.48 63.48 0 0 0 6.74.61c-18.36 11.48-30.8 23.58-54 13.75-3.64-1.52-35.26-24.89-29.55-25.9zm48.18 38c-9.46-.87-19.79-2.16-27.63-8-2.87-2.12-5.13-5.55-7.26-9.11l.43.3c10.29 7.33 21.92 12.76 34.8 12.76 10.52 0 18.68-5.22 26.71-11-.61.79-1.22 1.63-1.79 2.5-6.87 10.65-12.76 13.69-25.26 12.55z"/>
  <path d="M674.72 112.24c-9-25.81-25.24-72.14-54.25-82.14a57.88 57.88 0 0 0-14.29-2.43c-2.12-.15-7.27.76-9.11 0-4-1.62-.72-.2-3.88-3.69-6.94-7.67-13.49-11.44-23.9-13.53-35.85-7.16-68.29 5.25-97.9 24.8C443 54 418.55 82.72 401.33 111.68c-8.42 14.17-11.4 28.55-8.25 45.31 1.41 7.47 12.3 31.43 8.06 38.12-5.83 9.22-25.4-7.56-29.34 10.69-.86 4-3.68 14.15-6 17.65-10.29.94-7.77 27.7 4.19 3.48 2.75-5.8 4.55-23.8 10.64-26.76 6.68-3.25 18.16 9 23.75 1.85 6.54-8.4-4.71-34-6.73-43-7-30.92 22.39-65.48 40.25-88.36 19-24.32 50.41-41.07 80-49.9C540.75 13.92 576.53 7 590.73 29c4 6.24-.46 3.14 5.45 2.78a72.36 72.36 0 0 1 13.29.21c13.48 1.6 20.65 12.22 28.68 22.88 19.33 25.66 39.44 60.33 40.38 92.89.24 8.21-1 16.77-4.71 24.21-3 6.15-7.86 8.41-11.61 13.55-2.2 3-5.23 15.94-3.54 22.81-1-.2-1.95-.38-2.76-.56a24.81 24.81 0 0 0-10.32-13.18c1-4 4-8 3.37-12.93-.68-5.29-2.37-8-1.25-13.33s6.7-12.39 7.5-17.91c1.35-9.39-8.14-16.49-13.66-23.4-6.08-7.61-5.38-15.63-8-24.93-4.15-14.68-25.2-9.38-37.5-15.42-7.54-3.7-15.87-7.24-19.19-15.13-.65-1.55-2.61-18.14-6.16-10.77a8 8 0 0 0-.63 4.2c-5.57-.89-16.18-1-17.94-1.34-17.75-3.2-25.3 1.72-40.17 10.69-11.82 7.13-29.28 6.41-41.31 11.5-13.92 5.89-12 22.11-14.58 35-2.26 11.27-6.73 20.6-9.07 31.7-2.7 12.77 2.4 25.63-7 36.34-7.65 8.69-10.4 13.35-1.92 24.13 4.85 6.16 11.25 12.46 15.76 18.92 3.67 5.25 2.56 10.09 3.94 16.19 1.73 7.64 6.28 31.07 17.94 31.07 8.34 0 15.44-24.95 23-29.15 2.13-1.18 21.6-4.37 23.69-4.86a29.44 29.44 0 0 0 9.8 9.3c4.78 2.51 19.86 9.8 12.85-.89 6.07 3.57 9 12.45 17 12.45 3.79 0 8.22-2.54 10.92-3s5.33 1 8.45-1a15.81 15.81 0 0 0 4.18-4.2c1.7 1.31 6 .53 7.56 1.26 4.13 1.92 5.18 3.11 6.29 7.66 1.59 6.52-4 26.14 8.44 26.14 5.86 0 22.94-28.23 23.58-22.43 1.31 11.81 4.51 20.15 4.87 22.71.95 6.68-.26 6.88-3.58 11.1-3.69 4.71-5.24 5.75-6.86 12.51-2 8.53-2.37 9.29-9.19 13.64-5.42 3.46-6.49 3.42-9.27 10-2.43 5.7-.29 4.61-5 9-8.26 7.72-8.68 15.29-13.3 25.58-4.86 10.83-10.07 12.41-21.4 15.93-7.87 2.45-10 4.65-15 11.67-2.83 4-4.79 7.12-9.45 9.45-11 5.52-21.34-4.05-31.28-7.68-13.1-4.78-25.53-2.45-32.84-15.65-6-10.88-8.63-22.93-19.23-30.29-9.93-6.9-20-10.41-27.16-20.38-7.24-10.16-4.52-25.73-12.22-35.62-3-3.86-6.87-5.45-7.88-10.5-1.23-6.16 3.59-9.09 5.25-14.44.92-3-1-12.14 0-18.81 2.88-4 6.38-18.68 7.06-27.79 1.63-.39 1.94-29.48 2.19-31.72.88-8 10.7-22.15-1.75-24 6-6.93 1.46-5.82-4.23-13-2.51-3.18-2.31-11-7.36-11.19-5.89-.2-5.24 8.66-5.09 12.46.62 15.4 3.41 30.95 4.23 46.45.31 6 1 16.85 7.7 20.07a131 131 0 0 0-3 13c-1.74 8.13-5.42 12.6-9.6 19.43-3.86 6.3-3.36 8.18 4.17 4.34.54 15-11.2 24.24.16 38 .46.56.89 1.1 1.3 1.65l-.9.38c-2.35 1.06-4.2 5.21-6.83 7.46-3.14 3.62-4 7.61 1.36 5a71.48 71.48 0 0 1 9.69-1.8c5.68-.61 3.78 5.28 7.17 13.91 3.64 9.27 11.48 16.91 18.74 23.4 6.22 5.56 13.83 9.34 20 14.82 7.66 6.82 9.18 16.39 14.73 24.62 6.33 9.39 15.21 12.56 25.53 15.85 10.72 3.41 22.31 12 33.68 12 17 0 16.1-17.15 29.09-22.68 6.39-2.71 12.43-2.26 17.69-7.53 4.47-4.47 7.37-11 9.81-16.72 1.94-4.56 2.49-9.45 4.17-14 2.79-7.57 9.54-7 12.67-13.53s-.62-8.13 5.84-12.72c3.71-2.64 7.87-2.67 10.65-6.88 4.32-6.54 2.39-14.15 7.71-20.08 5.79-6.46 7.35-7.67 5.3-17.3-.61-2.84-1.7-13.3-3-16.9 6.08-4.86 3.63-29.83 3.07-33.66-.19-1.32-.39-2.61-.56-3.89 8.57-4.26 15.81-11.39 17.2-19.79 4.07.46 11.32.93 13.11.93 3 0 1.58-2.26 1.33-3.45-.45-2.09-3.63-3.38-7.19-4.3.83-5.52-.87-16.67-.78-17.31.71-5 9-9.68 11.8-13.8 3.72-5.5 5.86-12.19 7-18.69 2.75-16.1-1.8-32.39-7.08-47.47zm-261.15 53.2c.09 0-.44-4.38 2.19-.44 2.12 3.18 6.94 1.81 9.14 5.09-1.82 1-4.45 3.5-4 5.81 1.59 7.71 5.18-.08 4.45 9.22-.41 5.29-3.41 11.15-3.94 17.06-.69 7.69-.51 11.09 0 18.81-5.21 11.41-8.41-55.54-7.84-55.54zm236.83 40c-2.34-1.23-5.27-2.67-7.35-2.94.45-1.23.88-2.45 1.28-3.65a17.66 17.66 0 0 1 6.07 6.63zM451.22 152.1c3-12.06 9.49-22.07 11.85-34.62C465.61 104 467.82 91.47 483 88c14.57-3.29 25.36-6.21 38-14.95 14.49-10 24.4-5.47 40.68-3.76 1.35.14 6.33.71 9.49.09 2.22 6 7.25 12.37 10.12 15.14A49.63 49.63 0 0 0 601.81 96c5.43 1.59 18.39.46 22.33 4.8 3.14 3.46 3.42 13.41 5.93 17.78 4.82 8.36 14.15 14.66 16.61 24.3 2.53 9.9-5.21 17.82-5.58 27.61-.32 8.41 2 14.68 1.08 22.21-12.05-5.92-29.1-6.29-40.69-7.45a20.05 20.05 0 0 0-19.24 9c-2.84-.83-10.42-1.94-10.51-2-5.85-1.5-17.9-8.21-24-5.81-.27.11-.51.21-.73.31-1.29-4.63-4.44-9.15-10-13.1-8.73-6.24-20-9.09-30.51-10.19a72.08 72.08 0 0 0-17.29.1c-2.34.32-7.71-.5-8.62-.24-3.81 1.12-7.76 4.52-10.77 8.57l-.11-.34c-.52-1.58-6.66-1.21-8.45-1.6-2.3-.5-7.86-4.2-11.17-4.91a52.73 52.73 0 0 1 1.13-12.94zm90.63 48.33c-17.84 38-92-6.37-67.64-27.12 17.59-14.31 82.22-3.91 67.64 27.12zm32.78 59.31c1.29-.63 10-3.55 3.86-5.37-6.79-2-11 9.2-18.26 7.51-6.35-1.48-9.7-14.25-17.24-13-3.32.55-5.43 1.47-3 4.5-5-1.94-11.25-4-14.34-8.74-2.85-4.35-3.72-12.68 2.48-14.49 4.28-1.25 7.54 5.15 10.57 1.79 2.84-3.16-9.61-6.43-12.22-5.52-8.62 3-8.86 9.56-5.87 15.72-2.63-.62-7.16.59-9.39.81-7.68.78-14.45 2.39-20.18 8-4.84 4.75-6.84 12.67-12.37 16.75-3.76 2.77-3.93 4.39-7.93-1.13-4.23-5.85-4.58-15.95-6.17-22.66-1.8-7.61-3.7-14.6-9.06-20.51-4.78-5.28-11.4-8.33-15.52-14.33-7.25-10.57-1-11.85 5.05-19.69 4.33-5.63 5-12.06 5.09-18.66 5.91 1.62 11.43 4.15 17.68 4.28-2 3.47-3.26 7.1-3.1 10 1.17 21.63 33.6 33.85 51.52 33.85 17.2 0 32.74-14.37 31.36-28.82a47.65 47.65 0 0 0 6.59 1.56c5.81 1.3 14 4.32 19.86 5.91a22.51 22.51 0 0 0-.44 2.95c-1.11 6.85 2.86 15 3.86 21.83.79 5.42-2.64 15-.3 20 1 2.19 5 5.06 4.23.29 9.91 2.9-2.01 20.82-6.76 17.17zm55.92.23c-3.56 3.89-7.16 7.33-11 11-3.05 3-8.92 17.38-11.58 17.88-7.13 1.35-4-20.16-4.65-23.16-1.16-5.38-3.39-8.35-8.48-10.4a19.6 19.6 0 0 0-7.12-1.29c1.53-3.49 2.1-7.33.71-10.26-1.8-3.78-5.65-2.69-7.37-5.33-.78-1.19.61-10.69.6-11.34 0-.81-.06-1.6-.13-2.38 8.28 12 27.55 15.62 41.1 15.62a36.73 36.73 0 0 0 12.87-2.56 123.23 123.23 0 0 1 1.79 12.51c-2.91 2.16-6.6 9.55-6.74 9.74zm3.45-36a67 67 0 0 0 1 11c-13.27 4.41-33.6.94-44.45-6.93-11.85-8.59-13.07-39.31 6.63-39.31 10.91 0 24.77 2.65 35 5.22a45.57 45.57 0 0 1 9 3.18c-.14.47-.28.95-.46 1.44-3.01 8.61-6.72 15.99-6.72 25.37zm5 9.31c-1-7.75-1.19-15.05 1.35-23 .43-1.36.88-2.64 1.33-3.9 2.18 1.92 6.79 3.57 10.36 4.64 1.06 8.8-5.32 17.98-13.04 22.23z"/>
  <path d="M646 402.19c-8.27-5.62-16.65-11.19-24.7-17.19-1.46-1.09-7.86-6.12-11.1-9-4.67-3.69-9.19.63-10.76 3-2.44 3.69-2.74 9.45-3.33 13.65-.45 3.23-7.62 26.86-4.73 26.86 6.38 0 8.7-25.88 11.33-29.68 8.86-12.8 13.64 2 20.73 6.6 3.77.94-.68 13.85-2.56 16.72-4.39 6.73-11.33 11.19-18.41 14.65-5.35 2.62-11 4.36-16.54 6.33 0-.56-.06-1.13 0-1.73.1-4.21 2.82-7.54-.9-11.07-6.17-5.85-18.43 1.61-16.39 9.72.6 2.38 6.22 8.49 9.14 5s-3.87-3-4.34-4.15c-1.52-3.63-.09-7.56 4.34-8.3 5.7-.94 4.29 1.35 5 4.89a23.48 23.48 0 0 1-.09 6.8c-.88.34-1.76.68-2.63 1-10 4.18-16.52 9.28-26.39 13.11-10.76 4.17-21.5-2.21-31-6.44-11.7-5.2-23.74-6.34-35.85-10.47 0-1.7.13-2.85.46-3.24 2.16-2.63 5.95.44 6.11-5 .09-3.09-2.87-5.72-5.52-6.94-4.58-2.1-17.18-.15-15.81 7.36 1 5.24 13.86-12.62 17.76 0-3.15 2-5.76-.67-8.11 3a5.65 5.65 0 0 0-.21 3c-8.22-2.8-16.51-5.62-24.71-8.67-14.66-4.85-11.31 1.52-2.49 4.29 8.37 2.58 16.79 5 25 7.85l2.89 1c.09.48.15.85.17 1.08.6 6.71 1.31 13.41 1.87 20.13.3 3.54.83 31.58 1.79 31.58 7.18 0 2-35.23 1-51.16 10.75 3.64 21.52 7.31 32 11.76 9.05 3.86 18.61 11 28.78 11 12.87 0 22.08-14.45 33.23-19.34.62-.27 1.24-.52 1.87-.77a13.19 13.19 0 0 0 .69 2.5c1.92 5 5.28 9.22 8.06 13.72 5.66 9.16 10.56 20 6.16 30.88-.14-3.47.46-14.27-1.64-16.75-4.59-5.42-3.33 5.61-3.13 7.8.28 3-1.15 14.74 3.34 14.74 7.33 0 7.27-14.3 6.84-19-.93-10-7.07-17.34-12-25.62a36.38 36.38 0 0 1-4.48-9.68c5.9-2.13 11.95-3.88 17.62-6.67 7.95-3.9 19.55-5.31 24.35-12.94 1.19-1.89 2.63-14.56 7.57-13a106.23 106.23 0 0 1 17.72 7.96c12.4 5.56 1.52-5.21-1.85-7.06zm610.85 23.48c-2.35 3.21 16.45-3.45 18.37-4.28 2.85-1.23 24.14-8.9 24.06-12.7 0-1.52-28.38 10.49-30.81 10.38 0 0 6.7-8.17 7.1-8.6 5.78-6.2 11.72-12.25 17.34-18.6 11.51-13 21.24-28 27-44.43 12.75-36.5 14.69-77.14 23.15-114.86 6.43-28.66 14.74-60.3 27.43-86.81 8.77-18.33 16.95-40.4 29-56.68s31.27-25 50-31.46c22.47-7.76 45.09-10.73 66.43 1.12 3 1.64 35.1 22 34.39 24.16 2-6.07-22.67-22.49-26.39-25-16.83-11.26-33.38-14.72-53.39-11.76-20.62 3-44.77 10.27-60.83 24.12-17.54 15.13-29.28 37.16-38.91 57.87-30.21 65-33.7 137.24-52.77 205.37-10.34 37-39.27 62.21-61.16 92.14zm157.09 51.54c26.51 29.42 77 56.91 117.55 45 17.61-5.15 30.48-17.78 38.62-33.86 5.92-11.7 10.58-24.34 12.58-37.32.59-3.81 3.89-24.06-1.21-26.38 2.69 1.23-1.31 27.25-1.93 30.08-2.42 11-7.41 21.56-12.55 31.48-8.72 16.83-22.45 28.48-41.4 31.85-21.35 3.8-43.91-2.5-63.22-11.4a155 155 0 0 1-30-18.06c-1.76-1.36-20.08-17.41-20.24-17-.52 1.4 1 4.51 1.8 5.61zM1549.52 316c-.18-.91-1.46-5.33-2.92-3.59a5.46 5.46 0 0 0-.46 2.85c-6.58-.79-13.28-4.36-20-4-3 .15-5.58 1.8-8.39 1.75-3.09-.06-5.93-2.16-9-2.27-6.36-.23-13.3 3.45-19.44 4.94-3.4.82-21.32 2-20.56 6.2-.58-3.22 11.82 1.86 13.24 2.71 3.52 2.11 6.67 5.06 10.19 7.25 9.33 5.78 14.29 7.24 25 6.15 3.15-.32 8.25.41 11-.53 5.28-1.78 6.65-6.49 9.32-11 1.05-1.76 11.55-12.63 12-10.46zm-54.79.56c3.77-1 8.11-2.57 12-2.45 4.85.15 8.76 2.63 13.45 2.31 6.19-.42 15.64-3.48 22.07-.08-8.45 1.6-16 6-24.87 5.93-11.25-.11-23.81-1.9-35.07-2.74 3.36.25 9.17-2.14 12.38-3zm25 8.62q-.62 2.13-2 1.13c-.87-.84 2-1.32 2-1.13zm14.2 1.54c-3.16 5.93-4.2 5-10.28 5.51-4.94.38-11.74 2.54-16.57 2.26-8-.46-18-7.83-24.33-12.42 1.36 1 14.15-.2 17.73.34 5 .76 12.7 3.35 15.87 4.07.4.09 1.06 2.18 3.17 2.17 2.44 0 .67-3.49 1.59-3.83 1.44-.54 16.84-3.36 17-3.93-.44 2.13-3.14 3.94-4.15 5.85zm-15.6 13.34q3.28.45 1 2.24c-2.06.28-.76-1.88-1-2.24zm-.34-1.46c-2.77.7-1.35 7.71 2.86 5.61 3.56-1.77-.33-5.45-2.85-5.61z"/>
  <path fill="none" d="M1515.09 350.75c.86.13 10.84 0 10.11-2.21-1.26-3.79-19.19 2.94-21 3 3.5-.2 7.38-1.36 10.89-.84z"/>
  <path d="M1506 281.11c-6.18 2.64-13.18 3.65-14.72-4.79-.57-3.12.86-8.35 3.93-10 1.47-.79 6.58 1.11 7.09.19 1.27-2.25-5-3.33-6-3.22-5.4.57-7.79 7.7-7.44 12.23.36 4.71 2.64 8.53 7.4 9.6 2.15.48 12.84-1.4 13-3.88a2.37 2.37 0 0 0-3.26-.13z"/>
  <path d="M1543.71 268.38c-1.61-8.12-7.64-1.06-8.95-1.65 3.15 1.43 3.34-2 5.86 1.45 1.47 2 0 7.23-1 9-3.19 5.6-6.33 3.9-11.88 3.3 0 0 6.35-2 5.92-1.47.77-1 5.93-7-.95-4.41.81-4.6-.83-9.82-2.21-14.07-.71-2.18-2.93-12-4.6-13.29.05 0 1.1 10.62 1.36 11.56 1.08 3.87 4.95 10.14 3 14.49-5.68 13-24.9-2.81-30.3 2.77-4.52 4.66 3.39 3.29 5.48 3.49 4 .38 8.5 1.64 12.75 2 11 1 29.17 5.4 25.47-13.23zM1494 194.1c5.89-1.2-4.3-6.26-5.86-6.51-1.09-.18-4 1.62-5.66 1.63-2.89 0-7.78-2.79-11-3.33a52.15 52.15 0 0 0-16.63.14c-1.14.16-10.75 3-11.56 2.54 2.83 1.6 10.34-.87 13.47-1.24 6.68-.77 11.86-.76 18.29 1.71 1.94.75 4.48 2.77 6.41 3.16 1.64.33 4.55-.1 5.46.12.57.14 1.62-2 2.8-1.77 3.4.59-2.08 4.83 4.28 3.55zm-4.09-38.51a7.66 7.66 0 0 1 1-1 3.7 3.7 0 0 0-1 1zM1636.07 417l-.09-.18z"/>
  <path d="M1637 418.74l-.88-1.77-.09-.18.09.18.87 1.75c-12.15-24.6-24-50.23-29-77.33a407.41 407.41 0 0 1-6.52-88.34c.3-8.91.2-17.93.94-26.81.6-7.21 2.89-14.09 3-21.46.07-5.24-1.36-8.46-2-12.76-1.29-8.82-.91-18-2.08-26.94-2.36-18-6.07-37-14.49-53.22-3.9-7.52-9.07-14.79-16-19.8-.88-.63-16.13-9.06-16.87-6.19.5-1.94 17.62 12.41 18.29 13.19 8.41 9.71 14.07 21.93 18 34.09 3.95 12.35 6 25.25 7.2 38.14.5 5.46 2.61 14.59 1.1 20.07-1.39 5.06.22 3-5.32 4.69-2.56.76-6 .81-8.65 1 3-15.44-3.43-37-7.69-52.1-.69-2.44-11.92-29.16-16.84-22.08-2.43 3.5 9.19 19.54 10.86 23.16 6.07 13.18 11.27 31.53 10.07 46-6.74-7.61-16.86-9-26.11-6.23-4.52 1.35-7.86 4.44-12.06 6.16a7.77 7.77 0 0 1-5.66 2.92 25.3 25.3 0 0 0-2.39-3.58c-4 .43 0 6.3 2.26 6.85 3.35.84 9.6-5.33 12.49-6.73 8.2-4 21-6.94 28.61.29 7.87 7.48-8.4 6.17-14.62 6.62-8.94.64-20.09.06-28.55 3.25-8 3-12.43 6.57-22 5.25-5.36-.74-7.66-3.26-12.38-5.21-9.19-3.79-22.21-3-32-3.66-12.27-.82-25.78-4.4-38-3.3 17.76-20.5 39.61-35.46 60.71-52.14 8.12-6.42 16.23-12.86 24.46-19.15 1.22-.93 14.29-9.08 14.33-9.9-.26 5.64-15.91 16.84-19.52 20.06-5.3 4.72-49 37-45.79 41.4 6.52 9 62.74-46.57 70.43-45.74 2.59.28-15.25 19.16-15.34 19 4 5.4 22.76-12 24.72-14.12 4.72-5.16 6.57-13.73 10.83-18.25-6.75 7.16-11.74 21.31-22.41 24 4.34-1.11 20.28-30.13 16.49-31s-24.1 22.35-27.87 25.46a213.31 213.31 0 0 1-20.65 15.06c-1.74 1.12-7.48 3.35-9.89 5.18a7.66 7.66 0 0 0-1 1 3.7 3.7 0 0 1 1-1c7.53-6.87 56.49-46.78 49.46-52.71-3.11-2.62-30.05 19-34.31 22.2-15.63 11.8-32.6 21.66-48.07 33.67-17 13.22-33.86 28.43-44.63 47.35-13.21 23.21-12.7 43-7.58 68.39 7.55 37.51 24.72 73.86 23.64 112.57-.73 26-7.13 52.34-20.54 74.75-5.33 8.91-12 17-18.8 24.75-1.71 1.95-7.84 11.24-10.29 11.77 8.58-1.87 19.89-18.38 24.82-25a145.12 145.12 0 0 0 21.88-43.28c.85-2.7 2.57-15 5-15.78s9.54 6.27 11.48 7.63a41.68 41.68 0 0 0 16.66 7.42c1.7.34 16 4.68 16.49 4.37 2.52-1.74-15.26-7-17.14-7.7-9-3.12-15.2-8.05-21.7-14.85-8.07-8.44-3.6-19.8-3.59-31.07a165.94 165.94 0 0 0-3.76-35.81c-9.12-41.7-37-91.67-11.64-132.57-.49 8 .33 20.36 6.37 26.54 6.48 6.63 18.61 5.28 27.31 5.67 13.68.61 28 .23 41.22-3.53 10.28-2.91 11.14-6.93 16-15.46 3-5.21 7.52-11.29 14-6.9 4.8 3.24 3.58 12.12 7.07 16.39 9.55 11.7 40.23 7.26 53.23 4.2 0 17.62-3.91 36-5.12 53.7-1.11 16.2-6.86 25.8-16 38.74-18.67 26.45-34.52 74.89-78 55.4-14.35-6.43-29.59-17.23-39.29-29.38-1.71-2.14-4.46-8.46-8.34-5.87-6.86 4.57 6.38 13.48 9 15.16 14.55 9.29 29.62 23.36 47 26.59 24.93 4.62 42.51-7.58 54.39-28.49 3.37-.81 3 32.69 1.8 35.76-2 5.27-7.44 9.41-10.42 14.19-1.63 2.61-2.29 5.89-4 8.35-1.24 1.75-4.26 2.77-4.86 4.78-.46 1.55 6-2.68 6.72-3.43 2.72-2.86 3.5-7.4 6.21-10.45 2-2.21 7.63-7.2 10.75-7.35 5.24-.25 9.92 5.34 14.21 8.67 8.85 6.86 16.28 6.36 27 8.4a55.17 55.17 0 0 1 12.87 3.59c2.5 1.15 5.27 4.59 8.22 4.48 1.18 0-7.28-6.89-8.37-7.42-4.37-2.14-9.58-3-14.3-3.88-10.25-1.91-16.83-2.69-25.49-9-13.49-9.83-15-17-15.75-33-.63-13.2-.34-22.22 6.56-33.72 11.6-19.32 21.55-32 23.54-55 .76-8.78.91-17.61 1.77-26.38.61-6.21.38-15.51 2.38-21.39 1.42-4.18.21-2.13 3.32-5.07 2.56-2.42 5.69-3.4 8.16-6.15-1.31 45.27-2.77 90.59 10.66 134.47 5.5 18 13.33 34.76 21.73 51.5a95 95 0 0 1 9.25 29c.37 2.48 3.68 16.28 2 18.36.79-1-9.65-15-12.14-13.58 1.55-.91 13.41 29.86 18.55 28.12 6.08-2.01-8.14-53.23-10.67-58.49zm-163.87-213.58c-3.36-2.7 3.41-.48 4.58.12a10.34 10.34 0 0 1 4.61 4.29c3 5.59-.16 6.7-6.64 8.32-4.75 1.18-17 2.33-20.73-2.17-3.59-4.35 1.51-8.92 6.44-10-4.64 4.41-.95 11.82 5.11 12.29 5.55.4 12.17-8.39 6.63-12.85zm32 13.65c-1.86 14.92-13 17.86-25.69 19.14-11.35 1.14-26.35 3.06-37.71 1-12.73-2.35-20.73-23.95-12.07-34.7 6.69-8.26 25.79-3.09 35-3-1.7.22-19.83 5-18 10.21.61 1.7 6.65-2.89 7.66-3.43-4.51 4.55-5.72 4.07-1.83 8.09s14.17 4.55 19.22 3.94c2.82-.34 12.76-2.27 14.52-4.84 2.66-3.88-.31-3.64-3.7-7.9.84.45 8.81 7.51 10 6 2.33-3-17.77-11.54-19.43-11.84 12.4.53 34.17-.54 31.93 17.37 1.97-15.29-.45 4.32.1-.04zm35.94-11.95c-8.82 16.89 26.65 5.51 8.45-3.15 8.83-1.44 18.08 8.92 6.58 12.91-7.54 2.62-29.95-1.39-15.04-9.75zm42 25.71c-3.31 5.82-25 4-30.95 3.66-8.66-.43-3.47-.17 0 0-7.88-.4-15.19-1.28-19.65-8.44-5.07-8.14-5.54-18.55 4.62-21.73-.19.14-6.87 7.23-5.09 7.73a13 13 0 0 0 2.75-2.35c-2.09 9.13 11.84 8.9 18.35 7.8 5.37-.91 15.88-3.34 10.58-9.67a6.22 6.22 0 0 0 4.2 1.22c.31-.57-9.72-8-11.11-8.49a226.35 226.35 0 0 1 23-1.54c-1.06 6-.45 12.24.47 18.22.27 2.2 3.76 12.02 2.81 13.6zm14.45-15.53l-.13.89-.05.38-.08.59.08-.59.05-.38.13-.89.14-1 .06-.4v-.08a21.38 21.38 0 0 1-12.19 16.33c-1.08-5.74-7.89-26.14-1.82-31.18 1.76-1.46 12.31.47 14 2.47 1.84 2.17.38 9.72 0 12.37v.08l-.06.4zm81.18 408.08l.77 1.56zm1432.54 1.12h.06zm124.2 13.17l-.08.59zm40.42 202.03l.36.73zm0 0l-.81-1.63zm1.32 2.64l.25.5zm-.19-.36l.19.39z"/>
  <path d="M1541.06 206.87c-1.33.74-3.73 7.15 0 0zm11.02 29.37c3.79.19 2.28.11 0 0zm-78.88-31.03l.16.13zm124.31 11.84l-.13.89zm.14-.99l-.14 1zm.07-.48zm-124.02-9.96l.23.19zm-.34-.28l.34.27zm124.36 10.24zm-123.79-9.78l.1.08zm371.49 39.2c-9.59-6.36-3.77 6.21-3.32 4.64a5.59 5.59 0 0 1 1.39-2.8c2.29-1.83 7.11 6.89 5.47 12.4-.66 2.22-3.41 4.46-5.32 3.22-.67-.43-.21-1.47-1.13-2-1.88-1-6.38 8.07-8.83 9.25-4.72 2.27-7.54.84-11.94-1.13-.81-.36-20-10.68-18.43-1.89.28 1.5 10.7.31 12.55.77 5.11 1.29 7.2 6.37 13.34 6.34 6 0 12-8.9 13.87-9.16 12.08-1.64 10.02-14.64 2.35-19.64zM1833 224.75c-1.38 0-4-16.72-4.08-19-.09-2.52 5-22.41 9.62-17.78-.27-.27-7 14.22-7 17.44.02 2.43 5.12 19.34 1.46 19.34z"/>
  <path d="M1832.66 187.69c-3.33 0-1.92-5.16-1.28-6.58 1.19-2.63 5.64-5.54 9.13-5.8 4.5-.33 3.34 5.61 6.18 3.14 2.4-2.09 1.65-7.7 9.4-3.45 5.59 3.07 5.08-4.27 12.79-4.67 1.73-.09 12.12 2.37 11.78 4.55-.07.44-9.25-1.5-10.27-1.27-7.74 1.76-9.48 8.09-17.56 5.17-2.26-.82-6.95 6.52-10.07 2.91-.63-.73-2.09 3-3.34 3-1.82-.06 1.32-3.68-2.06-4.26s-1.66 7.26-4.7 7.26zm-35.57 4.43c-3.52 0 1-5.09-.29-4.44-12.16 6.08-6.23-6.86-13.36-1.3-4.15 3.24-3.53-2.72-14.78-5.45-5.79-1.4-14.36-3.12-20.35-3.36-3.24-.13-17.24 5.27-16.78 5.67-4.26-3.72 12-10.34 13.79-10.48 5.34-.42 14.17 3.91 19.45 4.28 10.39.73 9.67-1.18 16.21 4.15 2.88 2.34 3.59-7 7.81-4.47 2.85 1.74.88 6.73 3.47 7.45 1.89.53 13.81-12.52 9.46 1.8-.28.92-2.59 6.15-4.63 6.15z"/>
  <path d="M1908.74 165.67c3.06-7.29 3.67-17 2.79-24.76-1.82-16.13-9.78-29.13-16-43.89-2.79-6.63-1.7-15-6.37-20.55-3.28-3.93-12.36-5.54-14.38-10.2-3.48-8 3.07-14.46-4.83-22.29-5.43-5.39-20.56-5.18-26.94-3a85.16 85.16 0 0 0 .58-10.79C1843 21.77 1840 15 1833 10a53.65 53.65 0 0 0-43.06-8.7c-34.91 8-62.15 33.83-88.76 55.93-29.42 24.44-51.17 48.66-58.15 87.37-2.87 15.92-7.9 24-11.67 39-1.73 6.9 4 20 6.49 26.62 2.14 5.61 19.17 17.56 28.38 17.81 3.9.1-6-9.43-6.43-10.23-2.65-4.4-4.39-10.11-3.33-15.29 2.63-12.84 7.43-14 18-17.87 6.69-2.44 14.41-2.69 18.09-1.28 3 1.14 1.35 2.06.71 8.25-5.89 7.12-21.39 11-17.85 15.09 6 7-3.54 26.24 5.09 29.36 3.66 1.33-3.92 2.49-3 7.22.24 1.31 4.3 5.06 4.47 5.95 0 .13.35.39-1.66 2.19-1.17 1.05-2.25-.78-2.64-1.94-1.46-4.38-2.89-6.87-3.27-8.48-1.71-7.32-1.83-15.24-2.86-22.69-.71-5.13-3.33-13.86-1-19.11 1.08-2.46 5.13-4.25 5.13-5.11 0-5.47-8.11-1.13-8.76.28-2.47 5.36.84 15.92 1.57 21.42s2.17 41.74 11.5 41.74a23.34 23.34 0 0 0 3.09-.5c.12.86.23 1.58.31 2 .69 3.93 4 13.65 5 17.81 3.21 14 12.64 17.71 22.8 18.82 6.1 12.35 14.42 22.57 25.52 32 5.74 4.9 32.87 26 39.31 28.18a44 44 0 0 0 4.68 11.28c7.09 12.68 19.62 23.87 34.95 23.87 28.76 0 59.33-27.49 47.39-56.45-.44-1.07-2.62-8.68-1.36-9.75 8.33-7 14.31-21.66 16.51-26.88a118.87 118.87 0 0 0 5.62-16.94 4.8 4.8 0 0 0 .63 0c10.25 0 16.57-32.63 16.3-38.45-.17-3.58-8.26-39.94-5.36-47.38 2.29-5.97 11.72-25.55 13.36-29.47zM1706 289.61c-4.58-1.39-9.18-7-10.24-8.19-3.52-4.08-8.11-17.71-8.71-22.76-.47-4-.09-7.64-.66-11.09-.27-1.64-3.13-1.27-3.05-3.93.2-6.63 12-11.72-1.46-11.39.41-1.66 4.47-13.52-1.4-21.58-4.47-6.14 12.37-15 11.36-4.65-1.56 16-.71 20-.5 22 2 18.77 8.59 37.84 14.74 55.63 1.12 3.28 3.06 6.91-.08 5.96zM1860.52 358c-7.3 16.7-19.59 26.07-38.84 28.67-16.76 2.26-29.78-7-37.68-21.27-5.14-9.31-7.26-16.51.46-25.2 6-6.79 10.7-11.9 16.88-20.65 2.17-3.07 10.73-2 15.65-1.56 3.51.29 13.29 4.6 13.45-1.42 2.92 1.23 15.53 7.39 20.22.83 2.95-4.15 15.68 27.27 9.86 40.6zm35.14-114.67c.24 7.23-2.9 20.23-5.68 26.94-.33.8-3 3.24-5 5.6 1-4.82 1.84-9.69 2.46-14.58 3.19-25 1.68-50.43 1-75.55-.69-27.46-3.49-54.46-14.61-79.89-3.87-8.86-6.36-21-12.44-28.56-1.81-2.25-23.47-15.42-23.47-8.43 0-1.55 19 12.1 21.25 15.23 5.1 7.05 7.74 17 11.19 24.93 11.22 25.9 13.51 51.51 14.23 79.4.64 24.88 2.46 50-1 74.77-1.8 12.85-4 25.63-9.54 37.43-1.84 3.95-7.37 18.58-12.32 18.9-5.7.37-7.54-6.69-12.17-7.21-5.53-.61-.8 3.33-3.77 3.71-6.95.88-11-3-16.52-4.42-2.62-.65-2.38 4.66-3 4.74-6.26.88-18.21-4.42-26.08.55-5.22 3.29-4.54 8.09-10.9 13.06-9.5 7.4-13 11.24-13.95 17.47-.81 5.14-13.28-3.88-14.44-4.7-7.64-5.35-14.41-12.5-21.53-18.54-13.22-11.23-22-21.8-28-38.15-6.75-18.41-14.54-38.74-16.6-58.29-.53-5.07 5.35-49.48 6.61-51.73s31.83-10.46 44.72-22.44c20.59-19.13 23.82-48.54 37.47-71.79 6.15-10.48 14.86-18.56 27.46-19.49 4.09-.3 10.44.22 14.31 1.74 1.57.61 9.43 7.24 9.67 7.24 5.36 0-3.81-7.81-4.13-8-3.29-2.26-10.13-6.31-14-6.71-11.8-1.21-20.87 5.78-29 14.63-18.89 20.45-22.33 51.65-42 72.7-18.84 20.12-46.77 24.57-71.94 33.7-9.73 3.53-16.23 7-21.63 16.78-2.12 3.84-1.87 5.61-2.75 11.88-1 7.26-6.64-.47-7.39-1.85-3.93-7.21-7.5-12.85-5.2-20.87 4.2-14.6 8.65-22.75 11.48-38.47 6.41-35.6 22.71-56.9 50-79.59 27.51-22.88 53.24-49.5 89.31-58 13-3 26.67-2.23 38.7 4.55 7.26 4.09 11.17 7.78 12.4 16 .37 2.5-.29 22.1.94 22.34s2.06-2.2 2.67-5.48c5.84 1.52 21 0 25.33 4.78 5.14 5.58.54 12.52 3.4 19.21 2.19 5.12 9.22 5.51 12.76 9.74 4.54 5.41 5.45 14.48 8.15 20.9 6.59 15.64 14.87 30.11 15.56 47.42.32 7.94.15 16-4 22.86-1.21 2-12.42 19.4-12.39 22.31.09 11.57 4.27 48.25 4.37 51.22z"/>
  <path d="M1828.81 371.63c1.07 0 8.28-20.57 7.26-24.41-5 5.95-8.59 11.81-10.57 2.27-1.2 1.81-11.83 17.86-14.36 14.48 2.25 3 6.49-30.32 3.42-27.95 4.62-3.54 4.38 17.14 4 18.83 4.38-5.67 7.81-15.43 10-3.57 2-1.92 4.88-6.94 7.25-8.12 2.96-1.48 4.06 28.47-7 28.47zm19.04-105.24c-.19 4.7 23.28 4.8 24.51 15.79.89 8-3.57 1.51-7.63 5.19-6.41 5.8-10.68 4.58-13.74.31-1.58-2.22-6.33-7.7-3.83.34-1.61-.33-20.36-.48-26.35 2.72-7 1.36-17.53 4-18.35 4.18-12.91 3-18.44 3.14-23.39 12.05-.5.9-4.63-2.7-5.92-2.65-1.5.06-4.07 2-5.3 3.42-1.85 2.08-2.78 7-5.63 7.32-8 1 6.08-11.72.81-16.23-4.51-3.86-16.75 5.61-17.22-.49-.22-2.82 15.73-11.56 23.74-18.4.17 0 11.53-.79 14.39.48s9-5.06 10.07-2.8c1.7 3.57 7.34-2.52 10.8-5.17h.92c1 0 11.85-.11 11.61-2.52 0-.4-16.35-.77-19-2.56-8.34-5.62-.26-10.43-2.81-13-4-4-4.67 8.17-4.19 9.56 1.25 3.63 5.23 6.31 9.23 7.61-1.86 1.72-4.08 3.43-6.06 2a6.58 6.58 0 0 0-7.95.35c-1.6 1.2-10.65 1.48-13.67 1.33-4.88-.26-28.64 17.59-30.24 22.54-3.34 10.38 13 1.27 15.79 6.78 1.41 2.8-6.35 14.62 3.21 14.62 2 0 7.67-8.55 10.12-9.62 3-1.28 2.72 4.14 6.44 3 1.76-.54 4.78-7.36 6.26-8.67 6-5.31 17.44-6.83 25.06-8.79 1.13-.29 12.87-.51 16.54-3.15a148.14 148.14 0 0 1 18.52-1.48c-4.85 1.83-12.93 5.73-14.48 6.08-3.88.87-19.16.2-19.16 1.86 0 2.61 16.47-.25 19.2.7 2.39.83 8.3-2.75 15.32-6.23-2 3.12-4.13 7.69-5.16 8.66-4.26 4-12.29 5.5-18 6.45-3.87.64-23.6-6.27-25-6.39-5.57-.49 17.64 9.29 20.86 9.29 7.14 0 15.21-.73 21.13-5.07 1.56-1.14 9.94-10.75 9.91-14.53h.23a21.42 21.42 0 0 0 3.7 2.51c2 1.18 1.1 2.36 4.17 2.36 2.91 0 5.12-4.4 7.33-5.11 3.52-1.13 4.8 1 8.55-.61-.17.07 3.88-5.83 3.77-4.88 1.63-12.43-28.9-24.32-29.11-19.15zM1764.63 216zm.58 0zm-1.9 0zm.23 0zm21.55-11.35c.32 0 1.95-.39 2.25-.39 2.91 0-13.46-8.91-17.66-9.66-5.6-1-28.35-1.19-33.27 6.48-1.3 2 3.77-.62 9.35-1.35-2.52 2.5-6.77 8.56-4.65 9.49 3.86 1.69 17.92 6.85 22.21 6.85 5.62 0 23.56-1.64 23.46-9.23-.02-.4-.67-1.21-1.69-2.19zm-29.91-6c-3.41 6.11-3.11 10.08-1 12.35-4.16-1.46-7.43-.7-8.45-4.07-.32-1.03 5.17-8.36 9.46-8.24zm10.92 14.3c3.77-1.72 8.2-6.75 4.88-14.07 1.36.5 2.74 1.13 4.1 1.79 2.89 2.71 6.07 6.17 6.1 7 .08 2.21-7.27 6.24-15.07 5.33zm86.83-21.32c-4.26 1.2-9.75 3.18-12.77 6.75-.48.56-7.27 9-2.81 9 .37 0 .19-2.48 2.69-2.05 1.43.24 1.25.7 1.54 1.07 1.91 2.44 10.38 3 11.34 3 1.23 0 18.07-1.88 20.59-8.61.74-2-5.44-7.3-2.73-7.06s6.94 3.56 6 .94c-2.62-7.67-21.84-3.61-23.85-3.04zm-9.8 8.81a14.85 14.85 0 0 1 2.14-2.28c.32-.23.66-.43 1-.63a10 10 0 0 0 5.56 9.07 15.08 15.08 0 0 1-7-1.35c-1.88-.9-1.68-3.15-1.7-4.82zm25.69.68c-1.42 2.44-3.57 3-7.1 3.81 2.09-2.26 1.78-7.77.53-10.45.93-.01 9.66 1.31 6.57 6.63zm-166.59 138.83c-3.68 0 4-15.71 4.32-17.82.46-3.13-4.13-23.19-1.22-23.19 5.19 0 4.93 41.01-3.1 41.01z"/>
  <path d="M1824.37 391.82c1.34 2.68-30.4 5.9-34.27 5.1-13.24-2.72-26.92-7.64-39.21-13.07-15.31-6.77-27.76-18.08-40.84-28.39-4.1-3.23-10.9-6-12.48-11.35-.62-2.12 1.39-9.87 1.63-12.8 2.7-2.35 4.21-4.2 3.23-4.85-2.3-1.54-27.88 20.22-31 23.24-8.32 7.94-19.51 11.83-30 16.52-11.15.15-10.85 9.55 0 5.06 2.21-1.06 4.44-2.1 6.71-3.11 12-5.36 18.78-7.88 28.47-16.47a79.92 79.92 0 0 1 11.72-7.45c4.18-2.17 4.7 1.31 5 2.33 1.25 4.35 7 5.86 10.23 8.7 8.93 8 19.68 17.39 29.74 23.78 17.54 11.16 45.29 25.34 66.9 25.34 2.62.02 26.28-8.4 24.17-12.58z"/>
  <path d="M1807.68 428.43c-24.69 0-52-14.27-72.3-27.2-4.51-2.88-53-41.89-46.68-46.14-.53.36 32.13 30.87 36 33.8a199.29 199.29 0 0 0 50.21 27.29c13.54 5.06 29.65 9.65 43.9 3.84 6.24-2.54 11.51-5.21 15.93-10.22 1.72-2 9.86-14.46 10.44-14.46 6 0-9.17 19.55-9.82 20.19-7.7 7.56-16.5 12.9-27.68 12.9zm141.69-20.02c-7 0-16.33-48.67-28.4-55.68-6.62-3.84-53.41-24.09-53.41-21.17 0-3.84 29 1.83 31.59 2.53 10.77 2.88 21.61 7.26 28.56 16.35 6.5 8.5 8.61 20.59 12.36 30.44.61 1.62 11.42 27.53 9.3 27.53z"/>
  <path fill-rule="evenodd" d="M2115.07 189.22c2-4.17-5.82-11.82-10.24-10.16-1.3.49.56 2.84-.56 3.63-3.66 2.61-8.37-9-11.39-4.74-.57.8-.44 1.73-1.28 2.23-2.36 1.39-9.38-7.16-12.46-2.93-.87 1.19.25 2.39-.59 3.58-3.31 4.72-19.85-9.52-20.54-1.82-.1 1.14 0 1.09-.09 2.23-.58 5.57-19.53 1.05-16.81 8.69 1.4 4 6.5-2.77 10.86-4 4.13-1.2 8.64.73 10.27-2 .67-1.11-1.35-2.62-.9-3.83 1.72-4.56 16.57 10.22 21 3.59 1-1.57-1.4-1.86-.49-3.51 2.71-4.91 12.08 10 14.84 4.73.77-1.47-.41-1.88.73-2.12 2.27-.49 5.8 8.78 10.28 5.38 1.77-1.34-.17-5.74 1-3.83 1.25 2.2 5.37 6.97 6.37 4.88zm41.03 3.03c-1.37-1.16 1.13-4.38-.56-4-3.51.83-4.75 6.85-2.68 9.81 1.3 1.85 6.54-5.22 6.29-3.24-.28 2.22-1.64 3.35.83 4.81 2 1.2 7-.63 10.92-.93 8.6-.65 16.28 9.9 15.31 6-.46-1.85-6-12.57-14.58-8.13-2.11 1.09-3.29-2.49-5.8-3.41-.51-.19-2.88 2.66-3.53 1.66-1.55-2.37 2.11-3.54 1.42-6.29-.85-3.35-6 5.09-7.62 3.72z"/>
  <path fill-rule="evenodd" d="M2096 205.42c-5.81-2.34-3.26-4.08-3.3-9.79 4.29 2.76 1.72 5.21 3.3 9.79-1.46-.6-.62-1.92 0 0zm-33.87-5.42c4-2.65 11.94-7.53 16.62-7.89-1.87 1.74-2.29 9.88.4 11.21-6.2.85-11.27-1.62-17-3.31 4.93-3.28 5.51 1.62-.02-.01zm45.9 7.54c-8.68-8.17-13.51-17.93-26.75-18.34-2.29-.07-31.35 8.66-29.06 13.46-1-2.08 19.88 4.9 21.54 5 4.72.39 12-1.35 18.06 0 3.92.89 5.42 3.12 10.21 2.3-.5-3.53-4.46-7.11-5.36-11.4 2.17 1.88 9.57 12.17 13.11 11.41a2.3 2.3 0 0 0-1.76-2.46c-6.58-6.17.5.49-.02.03zm29.72-7.66c6.34 10.12 5.47 26.51 8.14 38.57 3.54 16 16.9 23.17 7 37.93-9 13.38-21.36 13.74-34.54 2.33-3.58-3.09-1.23-3.59-4.88-5.81-2.9-1.77-8.57.44-12-1.2-2.47-1.24-5.47-6.7-10.47-11.7-1.61-1.64-1.84-4.4 1-5.15 2.16 2 3 4.86 4.87 7.13 2.55 3.09 4.63 3.84 8.75 5.67 7.78 3.45 30.85 0 25.12 11.5-1.33 2.67-5.91-2.41-9.57-3.37 0 3.59 14.31 9.77 19.85 7.89 6.18-2.1 12.83-13.42 12.44-18.18-.73-8.78-9.38-16-11.24-25.59-2.15-11-4.43-28.82-4.43-40"/>
  <path fill-rule="evenodd" d="M2115.69 252.35c-2.73-1.19-5.43-4.9-8-5.71 5.15-1.37 14.48 1.48 11.22 5.94-.5.64-2.33.16-3.22-.23zm37.65 62.85c-1.18-2.11-3.78-6.69-4.53-7.22-3.47-2.46-17.59-2-19.89-3.19-2.74-1.37-19.16-7-26.81-7.94-1.21-.14-15.07.71-13.77 1.38.62.32 15.65.24 16.65.68 6.17 2.71 18.41 7.19 22.36 8.09 5 1.14 12.52.3 17.54 1.62 3.47.91 6.41 5.72 4.2 5s-7.8-3.66-11.69-3.17c-12.22 1.52-18.78-3.37-30.44-7.23-4.28-1.42-48.39-8.15-46.69 2.73 14.81 12.33 36.41 34.9 56.3 34.56 9.87-.17 17.26-.58 23.9-8 3.91-4.38 10.26-14.6 12.9-14.37 3.56.25 2.72-1.21-.03-2.94zm-24.25 18.8c-19 3.76-46.48-8.63-63.37-28.07-2.87-3.3 33.81-3.64 37.07-2.56 6.67 2.21 12.16 7.59 18.92 9.47 9.66 2.69 19-3.25 27.58 3.57-5.29 6-11.45 15.85-20.2 17.59z"/>
  <path fill-rule="evenodd" d="M2144.6 333.81c.66-5.44-6.78 13.57-10.94 16.1-5.22 3.17-8.92-2.35-14.08-3-4.77-.6-12.38 2.09-16.21.62-6.25-2.4-11-9.13-16.82-12.83-5.62-4.52-7.5-3.58-.71 1.4 5 3.41 9.1 12.61 14.27 15.27 5 2.57 9.21-.67 15 0 4.71.59 13.58 5.65 18.32 4 3.89-1.24 10.57-16.43 11.17-21.56z"/>
  <path fill-rule="evenodd" d="M2145.91 406c0 17.56-14.92 28.46-22.35 43.31-7.56 15.11-7.88 23.34-23 30.85-12.75 6.32-36.77 18.56-51.26 16.37-10.92-1.66-22.56-17.47-29.94-24.68a157.42 157.42 0 0 1-26.63-33.93c-8-14.09-4.32-29-5.69-44.75-2-22.49-9.82-61.58-14.54-83.59-3-14.18-3.94-20.61 1.83-13.06 3.88 5.08-1.05 61 35.81 69.16-6.45-9.45-15.68-13.31-20.87-24.21a138.16 138.16 0 0 1-9.6-29.35c-1.89-8.55 1.8-35.46-4-39.81-2.63 5.62-.1 13.58-.41 19.41-6.91-7.47-4.15-12.06-15.11-14.16-5.94-1.14-8.16.21-13.05-4.07-7.91-6.91-9.7-23.61-10-33-.22-7.76.18-29.21 10.25-32.14 9.54-2.78 10.29 11.93 19.38 7.54-.06 4.35-.4 12.22 1.7 16.16.7 1.32.05 3.94 1 5.19.73 1 5.19-.06 5-.34 1.79 2.55 3.56 18.44 7.89 20 6.63 2.31 10.82-60.07 12.7-68.43 3.89-17.37 9.23-11.18 22.24-18.66 8.93-5.13 20.54-20 21.14-29.23.45-6.83-7.94-2.77-2.72-10.94 2.15-3.36 9.29-2.47 11.54-6s-.47-8.43 1.67-12.18c2.91-5.1 8.6-6.55 14-7.57 10.93-2.07 22.29 1 33.22 1.63 13.75.79 25.9-3.31 38.86 2.5 10.31 4.62 26 11.89 33.55 20.45 7.81 8.82 11.16 25.84 13.54 37.29 1.52 7.31-.46 15.17 1.3 22.35 1.48 6 5.56 9.76 6.26 16.1 1.81 16.44-8.43 31.93-5.89 49.29 4.95 33.75 2.82 56-14.41 86.33-7.66 13.47-23.94 27.44-30.45 41.46-6.15 13.25-3.05 27.48-19.13 33.43-12.94 4.79-19.15-3.37-34.51-5.51-8.59-1.2-20.65-4.42-25.51-11.72-2.43-3.65-10.69-24.92-10.1-20.52 1.5 11.18 6 22.62 14.39 29.73 7.79 6.59 20.69 8.16 30.4 10.82-2.61 16.07-19.89 9.91-31.75 29.88-1.07 1.8 9-6.61 15.42-10.59 3.34-2.09 9.62-5.83 12.94-7.69 4.73-2.65 7.13-9.38 10.5-9.73 9-1 16.07 1.8 24.65-4 8.05-5.42 12.2-15.92 14.86-24.8 3.66 2.5 5 11.5 4.95 15.42-.08 5.72-.06-5.73-.07-.01zM1943.1 186.13c.9-4.75.66-12.23.54-17.56-.26-10.69-4.83-17.16 2.9-23.71 1.67-1.41 10.21-2.46 10.68-6 .9-6.63 8.22-20.34 11.17-23.41 3.88-4 2.44-8.57 4.23-13.64 7.43-21.1 37.88-17.18 56.86-23.08 8.45-2.63 9.52-13.41 17.34-16.38 7.55-2.86 17.17-.35 25.46-3.29 12.83-4.54 17.28-2.59 30.58-.09 5 .93 8.44-.11 12.15 3.33 5.07 4.71 1 7.84 8.52 10.59 3.94 1.45 9.81-3.66 14.45-2.4s7.49 6.9 10.56 9.89c7 6.78 11.75 12.86 17.61 20s13.52 10.87 17.76 19.3c3.7 7.37 8.84 20.07 9.57 28.09 1 11.07-5.23 21.54-1.26 32.56 1.74 4.83 3.74 5.75 3.5 11.39-.2 4.77-3.27 11.09-4.12 6.45-1-5.54-3.08-5.38-4.84-11.64-1.82-6.49-.09-17.6-1.07-24.18-1.54-10.33-7.26-22.47-11.22-32.37-6.52-16.29-39.2-30.25-55.89-30.63-13.66-.31-26.56 1.37-40.38.67-9.07-.46-28.24-3.16-35.09 4.7-4.06 4.65 3.93 11.49 1.18 16.45-2.05 3.7-10.94 3.21-13.18 6.28-6.74 9.25 4 10.32-.63 20.52-9.11 20.15-34.19 17.22-39.79 36.94-3.63 12.79-2 27.94-2.83 41.16-.22 3.49-.9 12.15-3.8 15-2.21 2.21-3.51-4.73-5.05-7.26-3.86-6.31-6.12 2.19-8.84-7.89-.36-1.35.66-14 0-14.84-2.46-3.33-6 3.16-10.1-1.89-5.66-7-7.58-11.68-15.47-5.37-3.07 2.46-7.32-2.1-5.68-6 .97-2.24 3.33-7.18 4.18-11.69zm248.59 226.72c-13.19-7.23-31.19-14-43.3-22.9-7.14-5.25-6.73 1-5.14-8.78.47-2.89 5.74-8.68 7.08-10.46 6.38-8.45 13.53-16 18.95-25.22 9.58-16.28 17-35.29 19.09-54.12 2.79-24.75-4.28-46 1.9-70.8 2.2-8.81 6.15-16.55 8.21-24.72 2.15-8.51-.23-9.2-3-16.42-3.43-9.09 2.66-20.84 3.22-29.91.63-10.15-5.26-15-8.6-23.82-3.76-10-4.9-10.26-12.81-18.13-4.25-4.23-6.65-9.39-9.94-13.94-5.47-7.55-10.81-16.68-19-22.75-9.54-7.08-12.58-.85-21.85-3.94-6.57-2.19-7.25-9.38-12.72-13.26-4.71-3.34-15.5 1.15-21.11.37-10.29-1.42-12.42-3.64-21.88-.55-8 2.62-18.47 1-26.15 3.4-8.45 2.63-8.71 10.69-16.12 14.33-5.54 2.72-18.28-.5-25.08 1.43-8.34 2.37-13.83 9.95-21.84 13.41-9.62 4.16-9.25 6.18-12.33 14.44-3.51 9.41-3.87 9.08-11.78 16.86-5.15 5.06-4.45 7.68-6.73 12.76-1.23 2.74 0 4-1.92 7-1.6 2.52-6.32 2.47-8.12 5-4.24 5.88-1.75 16.18-2.31 23.52s1.07 15.51-.08 22.21c-1.22 7.08-5.79 6-4 14.73.59 2.81 2.87 5.6 3.19 8.29.56 4.77-2.51 9.34-3.43 14.59a72.2 72.2 0 0 0-.56 16.73c.52 7.65 1.73 16 4.47 23.24 5 13.29 13.74 10.78 21.92 19.5 10.46 11.16 10.48 40.73 13.35 54.93 4.78 23.61 11.4 52 8.1 75.92-1.09 7.92-4.9 16.23-9.67 22.66-6.22 8.38-27.59 19.06-19.29 16a41.7 41.7 0 0 0 14-8.07c5-3.91 16.77-11.5 18.94-7.57 4.26 7.73 28.21 35.29 29.63 36.73 11.26 11.46 25.49 29.58 42.67 25.52 15.67-3.7 43.18-11.82 55.12-21.83 11-9.23 15.16-28.27 24-40.66 5.54-7.73 12.05-15.07 13.82-24.88 1.51-8.39 1-7.07.55-14.93 20.21 11.43 33.38 14.23 50.87 29.86 18.52 16.55 42.81 31.09 74.28 30 18.44-.65-36.65-7.61-52-18.38-11.42-8.05-24.43-22.9-32.6-27.39z"/>
  <path fill-rule="evenodd" d="M2174.14 222.11c-.57-.24-2.69-.86-2-1.31 2-1.31.2-4.46 1.88-2 1.07 1.59 1.86 4.05.12 3.31zm-24.26-6.11c.85-3.57 10.39-1.95 12.22-1.88-.44 2.23-.34 3.18.87 5.06-4.97-.09-9.15-2.59-13.09-3.18zm33.65 2.43c-.45-4.4-13.37-8.76-17-10-7.93-2.67-20.07-5.45-21.52 2.9-.43 2.46 2.46-7 17.76-.21 2.68 1.18-17.19-1.39-16.38 5.56.51-.39 9.75 5 18.3 7.25 6.53 1.73 12.77 1.33 13.75 1.85.48-4.44-6.59-12.54-2.9-10.85 2.82 1.3 6.49 1.11 5.72 11.26a8.91 8.91 0 0 0 2.25-7.79c-.51-5.29.24 2.21.02.02zm-234.92 41.38c-.42-5.12 3.87-6.17 6.24-9.8.84-1.28 5.16-8.37 5.94-8.87 2.63.69 1 17.53 0 18.59-2.13-.23-1.58-6.25-1.72-7.35-5.3 2-11.45 6-5 11.84 1.95 1.74 7.61 2 9.44.86 3.44-2.14 1.48-8.57 1-13.4-.88-8.32-.83-18-7.27-24.07-4.83-4.59-11.06-3-11.36-9.34 21.28 6.65 25.07 28.55 21.17 47.06-1.26 5.93-17.72 3.33-18.44-5.52z"/>
  <path d="M2059.26 532c-8.62 0-63.36-40.74-62.5-42 4.63-6.53 41.76 26.78 50.37 28.11 10.73 1.66 27.57.43 36.31-5.27 3.37-2.2 33.87-24.5 35.73-21.67 5.02 7.67-52.09 40.83-59.91 40.83z"/>
  <path fill-rule="evenodd" d="M116.66 222.91c-3.76-3-13.12 9.56-9.66 12.94 3.09 3 3.87-3.33 4.25-3.91 1.13-1.75 1.05 2.62 3.08 3.06 4.4.95 5.38-6.53 8.88-3.93 1.64 1.22 1.23 4.46 3.23 5 4.66 1.31 7.88-4.72 10.38-3.35 1.26.69 1.31 2.11 2.18 3.06 3.57 3.88 8.68-1 13-.34 6.34 1 15.11 12.13 14.33 8.31s-8-9.78-12.53-11.32-10.68 2-12.71-.07c-1.29-1.34-1.68-3.06-3-3.64-2.86-1.25-8.87 4.19-10.31 2.62-2.1-2.3-.91-4.14-3.61-4.61-3.64-.64-6.4 3.74-8 2.65-2.17-1.49 2.18-5.13.49-6.47zm25.97 36.28c2.47-1.1 3.4-4.88 2.78-6.47-1.21-3.13 9.06 2.49 10 2.59 5.93.64-4.41 3.82-12.78 3.88zm9-7.9c-3.73-1.78-6.49-5.37-9.82-5.94-5.07-.88-8.82 2.06-13.08 3.81-1.52.63-5-.06-5.09 2.51 2 .17 3.84 1.11 5.63.45-.32 2.07.56 3.09 1.13 4.58-2-.58-2.26-2.1-4.51-2.42 1.36 10.78 32.24 9.9 36.79 1.37-2.62-2.93-6.85-2.34-11.07-4.36zm-46.27 77.23c.17-2.44 4.48-3 7-4.75 9.89-6.94 1.61-15.65-8.19-18.22 1.75-3.07 4.9-.44 7 .4 4.89 2 10.14 3.86 13.52 7.28 4.72 4.77 5.09 14.06 9.81 19.65s10.78 6.94 15.08 13.18c.83 1.21 5.45 6.89 3.34 7.81s-2.83-4.21-5.14-6.33c-1.43-1.32-11.41-8.17-15.18-12.52-6.75-7.77-12.46-24.75-13-18.15-.57 7.42-6.52 11.36-14.18 11.66"/>
  <path fill-rule="evenodd" d="M94.31 320.2c.67-1.84 4.19 1.39 3.89-1.29-.22-2-7.76 1.53-11.51 1.67-3.38.13 5.66-5.54 11.3-5.14 2.81.2 7.54 2.07 7.37 4.75-.27 4.09-12.89 5.08-11.05.01zm36.02 46.34c-10-1.33-23.55-5-34.79-2.37-2.68.62-5.89 2.07-9.07 1.46-2.92-.56-4-3.42-6.9-4.63-3.42-1.42-3.5.06-6.89-1.61 3.71-1.3 5.05-4.16 9.8-4 3.63.14 7.33 5 11.91 4.69 17.68-1.16 26.57 4.93 23.56.48-4.06-6-17.3-2.27-24.24-4-4.49-1.1-8-6-12-5.21-4.58.84-11.87 5-13.85 8.7 3.09 2.94 6.62.63 10.94 2.47 2.92 1.24 4.34 6.53 7.67 7 3.5.52 7.39-2.12 10.84-2.59 8.17-1.13 14-1.46 20.67-.7.7.08 3.82.59 4.58.76-4.84 2-11.91 9.18-15.1 9.84-3.37.71-7.72-2.3-13.16-2-5.66.3-9.51 3.12-12.34.76a23.09 23.09 0 0 1-5.06-7.26c-.63-1.24-2.49-1.63-1.52.93 1.18 3.12.84 8.31 4.72 10.84 3.42 2.23 8.17-.15 13-.65 6.3-.64 14.14 2 16.75 0s13.27-10.1 16.7-11.23c1.38-.43 5.8-1.43 3.78-1.68zm-22.52 35.78c-2.87.88-6.75-1.41-11.46-2.15-5.7-.89-8.81.36-12.69 1.62 3.89-10.12 21.18-6.86 24.15.53"/>
  <path fill-rule="evenodd" d="M409.61 410.21c-15.3-8.33-79.85-9.57-75.91-19.49 5.13-12.94 14.59-20.62 23-29.23 9.3-9.49 28.3-19.66 29.16-35.6.86-16.46-12.6-32.93-20.91-41.11-9.39-9.25-38.65-25.55-36.27-30.12 4.76-9.1 12.18-50 11.37-62.85-.48-7.7-7.53-20.21-10.39-27.25-3.08-7.59-.87-15.36-2.89-23-4.28-16.21-8.45-24.11-18.61-34.52-20.8-21.28-50-37.91-84.28-41.52-23.78-2.5-68.76 3.67-85.75 9.37-37 12.39-70.26 31.86-86 79.66a13.22 13.22 0 0 0 5 15.57c-5.58 19.64-9.81 39.37-14 60.38 1.55 1.13 2.32 4.72 2.67 7-12.33.36-21.73 5.45-24.42 13.81 1.2.77 3.34-1.18 4.53-.27-.2 17.35 8.86 23.14 24.19 25.47-.16 13.58-1.76 28-.87 43.07.77 11.3 3.68 24.42 5.77 37.56 1.81 11.57 2.31 19.23 4.36 31.24-15.74-1.54-43.76 6.41-54 12.61s-3.88 8.16 3 3.2c8.58-6.23 26.29-11 41.2-11.45 3.15-.09 10.95 2.27 12 2 3.21 18.1 8.52 34.45 21 42.76 1.95 1.3 10.38 5.25 14 5.25 4.9 0-2.31 10.4-.16 11.69 25.9 13.82 45.84 45 84.29 47.08 13.69.73 42.54-5.48 46.68-6.73 3.43-1-1.81 9.67-1.81 9.67-5.67 15.5-5.34 18.25 1 6.85 6-10.74 21.19-48.87 11.67-44-6.13 3.12-7.91 2.65-2.59-5 1.73-2.48 7.71-12.42 10.67-37.51 2.92-24.66.8-41.88 13.11-57.79 3.37-4.35 13.93-24.92 13.93-32.74 3.52-3.41 6.85-4.51 9.23-10.32 6.11-14.91 28.2-30.5 29.94-46.9 1.44-13.66-4.52-25.28-12.28-28.91-6.7-3.13-15-.2-20.06 2a41.31 41.31 0 0 0-4.92 2.35c-6.26 9.42-17.08 6.68-16.85 8.89 2.56 24.77-4.68 11.43-5.37 15.27-1.8 10-5.54 25.92-5.54 20.11 0-4.47 1.72-17.82-1.38-18.66-3.49-.94-8.47 5.62-9.84 7.75-2.23 3.47-4.92 9.22-5.13 5.64-.47-8.23 8.1-22.91 7.19-28-.53-2.95 2.26-3.83 5.72-4.21s7.61-1.26 9.1-4c-6.25-1-10.77-1.11-16.42-1.55.37-6.87 2.63-14.29 2.34-22.2-.2-5.41-21.23-22.65-19-30.5.88-3.16 13.27-13.06 6.41-13.73-23.26-2.3-47.77-6.3-65.69-17.08-9.13-5.5-21.13-16.3-23.8-18.78-3.65-3.4-16.6-10.15-15.5-13.9 1.69-5.77 11.9-15.13 9.82-20-4.83-11.32 7.1-10.85 11.52-12.19 1.81-.55 12-6 9.87-7.06-1.83-.89-10 1.1-14.42 2.88-3.66 1.47-13.56 5.25-12.59 8.86 3.72 13.86-7.88 28.29-14.21 28.53-10.59.41-19.42 2.72-31.57 6.23S61.38 156.22 62 151c.33-2.73 14-39.47 45.69-55.47 24.84-12.53 50.15-20.64 73.1-23.36 15.43-1.83 44.26 1 59.63 4.84 38.27 9.52 72.13 30.16 81 69.83 1.53 6.83-.87 20.58 1.83 27.16 3.45 8.4 12 12.55 10.55 24.23-2.44 20.16-5.26 48.59-12.46 56.95-10.83 12.57 2 8.24 4.33 9.17 7.64 3 38.15 23.16 47.18 35.56 5 6.82 10.44 22.93.56 36-7.65 10.14-24.12 24.53-33.41 33.72-15.73 15.58-18.9 38.2-19.63 53.07-1.4 28.53 37.64 80.53 20.3 44.4-3.19-6.65-9.81-18.61-11.7-26.09-4.69-18.59-3.32-40 1.41-39 19.85 4.4 64.41 4.71 78 12.13 7.49 4.07 17.19 23.83 18.41 17.31.71-3.31-9.53-17.08-17.18-21.24zM50.6 272.27c-15.61-1-22.14-5.72-22.21-21.76 6.84-.51 20.11-1.67 19.15-5.6-.38-1.55-6.35-.24-8.9.37-3.31.78-6.75.39-10.15 1.16.68-2.49 2.73-3.23 5.24-4.27 4-1.68 8-1.22 13.51-1.12 4.34 9.01 3.9 17.49 3.36 31.22zm0-41.5c-1.54-3.53 3.89 2.15 6 1.49.65-.2-.57-1.19.56-2.39.62-.66 3.29.74 7.46 2.51a48.75 48.75 0 0 0-7.94 1.08c-1.6.3-4.86.38-4.5 2.38 10.58-1.51 35.66-7.9 29.47 11-7.9-6.89-18.22-9-33.16-9.43a12.47 12.47 0 0 1-.82-4c-.06-1.86 1.19-.45 2.88.05.78.3.72-1.13.04-2.68zM68 229.7c1.23-1.23 2.23 1.56 3.71 1.19s.1-1.72 1.09-1.76c1.67-.06.9.53 2.63 3.08-2.16.24-4.27-.36-8 .06.87-.73-.93-1.09.57-2.57zm-14.63 24.95c.62-1 2.42 2.12 3.83 2.35 7.38 1.23 15.88-2.78 21-4.78l1.37-.63c-2.35 12-10.63 19.15-25.36 21a120.9 120.9 0 0 0-.84-17.94zm11.91-8.23c4.58.05 10.27-.48 12.24 2.1-4.52 3.54-13.17 4.95-12.47 4.48.95-.69 2.64-4.25.23-6.58zM52.57 244c.37 2.15 5.08 2.09 4.48 2.58a4.42 4.42 0 0 0-1.13 3.67 3.62 3.62 0 0 0 1.24 2.75c.59.47-2-.49-3-.88-1.6-4.26-3.84-6.25-4.91-11 9.18-.17 15.87.42 22.51 2.71-5.63.46-14.04-1.89-19.19.17zm176.3 36.15c-2.06 7-2.6 16.5.09 19.49 8 0 6.77-9.26 13.45-10.47.6 8.56-.14 16-.92 25-.31 3.54-.07 7.8 1.79 10 2.24-7.08 5.81-12.19 7.37-19 1.38-6 4.23-24.37 8-21.37 4 3.17 5.73-10.19 3.62-18.51-.55-2.18 10.17-.37 13.79-7.67 7.66-2.15 12.63-9.83 22.2-6.32 8 2.95 12.29 13 11.31 24.51-1.34 15.63-19.15 27.57-28.33 39.17-3.76 4.76-5.1 11.2-8.56 15.52-7.4 9.22-23.87 4.17-22.38-6.81.53-3.89 2.32-4.46 4-7.83-3.2 0-6.73 3.37-7.37 6.34a13.18 13.18 0 0 0-.1 5.24c-7.62 13.3-16.88 33.71-25.34 47.37-2.35 3.78-8.65 13.83-8.94 17.1-.14 1.57.27 4.62 1.64-.4 10.69-11.48 19.12-29.27 26.24-43.91 2.25-4.62 9.42-7.66 11.6-12.46 3.2 2.18 4.91 4.71 9.22 4 2.6-.42 1.6 8-2.68 16A162.82 162.82 0 0 0 240.06 418c-2 22.19-3.47 36.7-15.18 49.17-3.58 3.81-4.34 13.2 6 8.15 4.49-2.19 2.11 9.89-1.06 12.35-2.45 1.9-10.18 4.1-12.29 4.45-9.68 1.61-20.08 3-30.29 2.78C145 494 126.82 468 100 453.14c-3.3-2.36 4.63-10 7.2-10 18.24 0 38.31-4.14 47.45-11.39 2.26-1.8 4.18-6.54 3.15-9.77-2.53 2.4-3.32 4.87-5.73 6.73-12.87 9.92-49.47 15.42-66.94 4.42-13.27-8.36-18.69-31.91-22.52-54-3.91-22.56-9.11-44-10-63.71-.63-13.91 1.22-27.13 1.5-39.22 12.44-.77 21-9.59 22.47-11.13 2.59-2.71-2.12 13.72-5.69 22.68-3.32 8.34-8.72 18.23-7.93 27.76.65 7.86 11.55 11.84 13.44 12.09 4.59.6-5.19 9.77-2.22 10 3.41.26 5.95-4.83 7-7.72.74-2 2.93-1 5-.2s8.29 1.26 6.14 0c-11.26-6.58-27.2-3.69-25.35-21 1-9.12 6.87-17.37 9.67-27.92 2.95-11.11 3.31-22 6.68-30.27 3.94-.17 8.79-1.92 13.1-1.58a12.9 12.9 0 0 1 5.53 2.38 13.14 13.14 0 0 0-2.56 10.63c2.26 12.87 19.85 22.11 36.6 22.81 16.33.69 31.87-6.78 31.66-23.09 18.19 7.51 45.27-.25 64.26-2.83 2.02 5.98-1.02 14.45-3.03 21.3zm-126.94-23.71c2.18 2 3.6 5.36 7 4.37 2.34-.67-2.41-6.37-2.14-11.58 4.39-3 11.21-4.12 19-4.68 15.59-1.12 45.91 2.16 37.87 23.37-6.07 16-37.24 16-52.19 4.89-4.68-3.5-10.61-10.04-9.54-16.37zm-39-96.05c7.7-9.37 51-19.52 57.59-12.85 45.22 45.78 89.26 41.33 98.35 45.72 4.12 2-9.26 7.23-4.35 14.17 4.15 5.87 16.29 19.1 17.39 24.36 1.79 8.54 1 14.87-.89 24.29-19.5 2.16-46.54 8.63-63.84-.1-2.14-9.36-18.9-15.52-35.25-15.41-11.21.08-20.65 1.51-26.64 7.17a25.57 25.57 0 0 1-3.47-1.89c-3.85-2.63-12.75.43-18.14 1 .17-3.94.84-5.71-.41-8.65a31.6 31.6 0 0 0-3.85-6.11c-2.66-3.54-5-10.1-9.39-9.58-1.41.17-.7 2.52-2 3.07-1.51.66-3.71-2.55-4.13-.64-.13.6.19 2.41-.44 2.71-1.57.76-6.1-2-9.5-2.46-1.73-.24-.3 3.23-.86 2.92-1.4-.76-4.13-.21-5.48-1 2.47-17.38 8.31-35.41 11.87-51.49.34-1.53 1.3-3.82.77-5.52 1.35-1.78 1.67-7.16 2.65-9.71z"/>
  <path fill-rule="evenodd" d="M269.12 309.13l-1.56-1.59c-1.73-4.62-.49-16.44 3.95-21a5.73 5.73 0 0 1 6-1.48l.45.13.13.44a10.86 10.86 0 0 1 0 5.15l-.16.56h-.59l-1.39.12a19.28 19.28 0 0 1-5.28 0c-1.54 4.84.48 8.56 1.47 12.17 4.52-2.08 14.17-10.25 15.74-13.71 2.51-5.53 4-12.62.77-16.53-1.88-2.3-2.85-4-6.07-3.45l-1.92-.78c3.82-.68 8.7-.14 11 2.64 4 4.93 2.27 14-.17 19.39-1.88 4.14-17.64 16.64-21.57 17.67z"/>
  <path d="M173.4 534.49c-24.36 0-40.71-15-58-31.81-2.63-2.55-21.14-18.06-16.48-19.68s22.81 20.5 26.86 24.05c15.24 13.34 30.69 17.65 50.68 17.34 5.72-.09 29.48-4.58 29 .19-.32 3.8-28.58 9.91-32.06 9.91zM1115 211.08l-1.18.21zm0 0h.1zm1333.91 378.41c-2.42-.57-.6-.14 0 0zM1113.8 211.29l-2.44.43zm137.07 128.28c-4.6-2.92-13.49-4.77-13.45-10.31.05-6.18 9.36-15.83 11.93-21.93 6.78-16.1 10.61-34.93 12.61-52.22 4.2 3-2 23.05-3.12 28.85s-3.8 17.3-5.16 23.11c-.57 2.44-2.7 4.41-2.59 6.15.22 3.55 5.2 9 8.65 11.23 2.25 1.42 13.9-18.63 13-21.65-2.73-9.66-4.3-31.06-3.81-44.67.14-3.81 7.08-3.95 7.86-17.17.65-10.92 1.25-25.55 10.89-30.24 11.64-5.66 11.58-11 19.94-14.3 3.64-1.44 10.84-.72 14.15-1 8.42-.69.48-8.64-5.26-14.41-3.7-3.72-9.46-10.6-7.36-13.67 2.48-3.63 9.09 1.18 8.09-5.77-.63-4.35-12.06-14.66-14.64-19.46-13.71-25.59-14.84-55.28-26.12-81.55-9.06-21.11-33.06-44.27-57.46-45-6.27-.19-12.59 2.16-18.46 3.24-6.67 1.23-13.79-2.6-16.73-3.81a97.86 97.86 0 0 0-51.29-6.8c-28.77 4.17-53.86 21.74-70.73 45-15.32 21.11-26.2 49-36.15 73.09-8.15 19.75-16.1 49.31-11.09 70.33 1.58 6.62 6.44 12.2 7.66 18.56.91 4.75 0 10.13.59 15 1.71 15.24 11.37 26.42 12.84 41.51.51 5.19-.15 21.7 5.81 16.07 10.47-9.89 5.57-40 16.53-49.93-.4 6.77 2.25 12 2.64 17.88.43 6.64-4.86 28-6.91 33.78-.75 2.11-1.55 2.48-1.37 3.92.68 5.53 6.61 14.29 8.37 17.07 1.27 2 11.12-6.42 10.92-8.35-.63-6.2-10.4-43.56-3.75-47.1 2.84 12.51 3.23 25.31 5.32 37.92a81.55 81.55 0 0 0 4.42 17c.77 1.92 7.13 11.62 6.73 12.92-1.26 4.09-13.72 5.11-18.65 6.54-9 2.6-17.7 7.11-26.66 9.45-5.32 1.39-36.74 11.67-33.94 17.86 1.27 2.81 17-6.59 22-7.68-2.34 19.21 4 21.25 3.89 40.65-.09 14.3 11.4-7 6.9-34.42-1.8-11-.44-11.72 10.15-15.74 11.34-4.31 23.91-5.46 36-6.82-.84 8.35-2.16 13.59-4.53 21.67-.53 1.82-9.52 11.2-5.08 11.48 7.62.47 17-30.77 17.39-35.58 9.63 11.7 17 19 27.22 30.12 9 9.9 17.36 16.47 31 18.69 30.68 5 56.69-19 80.11-42.09 0 3.17 7.61 33.63 13.44 30.83 1.75-.84-5.93-23.32-5.93-27.28 8.71 3.56 15.49 5.94 23.3 11 6 3.91 13.89 6.64 20.19 10.83 7.64 4 6.06-2.5-1-3.92-10.11-5.45-19.59-12.71-29.3-18.88zm15-74.81c-.46 17.36 3.34 35.87 2.2 37.81-1.26 2.14-8.84 4.31-11.25 5.81 2.77-9.79 8.4-40.28 9.1-43.61zm4 40.87a104 104 0 0 1-9.61 14.82c-.32-.42-3.88-5.24-5.32-7 3.89-2.68 10.77-5.6 14.95-7.81zm-221-67.26c-1.6 10-4.33 38.35-7.36 28.7-2.53-8.08-12.2-23.15-13-42.29-.35-8.17.49-14.17-3.09-21.62-4.89-10.18-7.91-19-6.52-30 4.7-37 21.06-66.56 37.41-99.77 19.36-39.33 61.19-66.24 105.64-58.07 10 1.83 22.73 1.57 30.52 8.46 2 1.75-.14 7.62 5.11 5.74.63-.23 6-5 7.54-5.89 16.55-10.13 36.15 4.71 48.42 15.18 37.18 31.73 23.52 95.26 54.8 118 10 7.28-25.71 1.87 4.4 28.27 5.92 5.19-4.95 3.32-10.43 7.19-4.83 3.41-9.46 13.8-16.77 9.35-3.86-2.35-2.71-6.5-8.06-7.74-6.19-1.43-6.14 8.83-9.07 5.49-4.88-5.56 1.07-8.63-.61-18.07-1.08-6-5.26-10-8.71-14.84-10-14.12-5.61-33.4-12.08-48.92-4.13-9.9-19.37-23.23-24-33-1.94-4.07-2.7 9.76-4.11 11.93a34.78 34.78 0 0 1-7.48 7.57 131.64 131.64 0 0 1-16.94 11.11c-30.07 17.53-70.86 10.67-91.11 42.8-16.66 26.44-6.13 60.36-10.5 68.29-2.35 4.26-1.4-3.72-2.77-11.52-1.3-7.42-2.16-18.89-2.63-26.41-.45-7.22-1.86-12.26-5.65-3.13-4.88 11.76-3.51 23.81-11.25 34.6-6.83 9.45-19.25 3.15-21.72 18.6zm64.95-27.09c5.22-.93 9.76-7.4 6.58-12.41 5.3-.4 12.85 9.1 9.88 9.69-6.3 1.26-10.65 3.29-17 3.78-3.26.25-8.88-.09-11.62-1.63-5.21-2.92-4.16-4-4.19-10.73h6.28c-1.44 6.02 3.82 12.42 10.05 11.31zm-52.22 96.13c-1.9-2.21-4.24-7.93-5.76-12.08a44.53 44.53 0 0 1 12.3 6.71c-1.47 2.03-4.62 3.87-6.57 5.38zm6.64-9.14c-2.89-1.74-9.11-5.19-12.33-6.23.67-5.42 5.47-23.75 7.4-33.05.69 10.77 2.9 28.67 4.9 39.29zm147.13 45.23c-16.5 13-38.24 34-60.75 32-19.15-1.67-25.86-14.21-38.36-26.95-17.13-17.45-35.19-32.26-39.16-57.34-1.83-11.6-.21-23.09-2.63-34.61-.45-2.13-1.61-17.15-5.67-16.12-3.65.93-.22 9.47-2.56 10.83-.07-1.26-1.44-6.69-3.63-3.48-.76-3.2-1.76-10.38-.25-13.27s8.08-5.42 10.4-8.17c7.16-8.48 11.62-29.22 12.65-18.55.69 7.14 2.73 20.28 2.07 30.65-.35 5.48-2.07 29 5.18 13 5.49-12.13 5.42-24.81 5.13-37.83 7 2.4 45.76 2.63 36.93-9.68.85 1 5.18 2.41 4.32-.37-1.09-3.53-5-6.19-8.15-7.5-9.34-3.92-23.26-.16-33.35-.17.13-6 3.33-8.14 12.45-6.46 5.59 1 8.44 3.17 14 2.21 4.15-.71 5-3.42 8 1.06 1.38 2.07 1.61 3.75 4.59 3.87 5.84.23-2.08-11.56-6.57-11.91a22.39 22.39 0 0 0-8.54 2.25 7.84 7.84 0 0 1-7.52-.33c-5.76-3.32-8.81-5-15.21-1.84 11.65-66.42 93.32-37.68 125.2-83.14 12.13 13.35 19.21 19.45 21.89 38 2 13.82 4.73 21.8 11.9 33.37a31 31 0 0 1 4.73 17.24c0 4.46-4.65 21.94-.09 25.22 7.24 5.22 9.14-16.46 14.48-15.5 6.4 1.16.67 15.57-.8 20.13-2.68 8.29-.19 22.72-5.51 29.31-2-5-5 1.48-5.36 2.75-4.94-1.75 4.25-30.65-3.56-18.33-6.19 9.76-4.65 30.17-7.35 41.61-7.22 30.28-29.06 60.28-38.93 68.06zm118.53 34.91c.21.05.27.06 0 0zm-222.54-166.69z"/>
  <path d="M1246.88 202.91c7 0-8.43-12.49-9.48-13.14a36.46 36.46 0 0 0-23-5c-7.62.75-13.55 4.31-20.72 3.42-5.33-.66-10.85-5.44-16.23-.07-1.61 1.61-3.06 6.81-1.73 8.56 2.67 3.49 5.92-3.78 7.76-4.48 2.71-1 8.29 2.46 12.06 2.27 2.26-.12 6.66-2.75 8.64-3.38a40.44 40.44 0 0 1 24.77-.06c5.56 1.84 13.81 11.88 17.93 11.88zm-98.45 17.8c2.47-5.61-.51-15-2.45-13.37-1.55 1.33 1 6.23-.61 12.91-.52 2.15-1.85 10 .52 12.73s.06-6.64 2.54-12.27z"/>
  <path d="M1236.21 205.28c-13.41 0-22-12.3-36.65-9.64-4.68.85-12.26 3.11-15.4 6.83-1 1.2-6.27 7.11 1.36 3.9-9.14 9.27 26.44 13.65 32.19 12.52 6.59-1.3 10.58-6.9 13.65-7.76 1.27-.34 11.87-5.85 4.85-5.85zm-9.86 1.64c5.82 3.06-12.25 8.32-14.25 8.28-7.27-.14-15.46-.5-21.82-4.13-3.51-2 3.44-10.22 9.14-11.32-10 14.36 25.78 19.33 18.14 2 2.52 1.25 5.62 3.51 8.79 5.18zm-29.79 94.95c-1.94-1.58-5 1.45-7.89 1.33-5.57-.22-12.22-2.88-17.83-2.67-4.52.17-8.9 1.64-12.86 1.66s-8.83-1.67-12.86-1.9c-5.29-.3-10 3-15.29 2.79-4.15-.17-6.1-4.1-10.07-1.94-5.34 2.91 2.69 2 3.28 2.3 2.6 1.42 4.84 9.48 7.06 12a18.34 18.34 0 0 0 7.62 5.68c7.54 3.22 15.21 3.58 23.17 3.67 6 .07 13.26-.57 18.33-4.34 4.29-3.19 6.2-11.14 10.79-13.88 6.69-3.98 11.92-.34 6.55-4.7zm-37.71 4.5c3.38-.41 8.89-2.45 12.47-2.8 4.52-.44 8 1.58 12.37 2.43-15.53 6.43-32.75 5-51.19-.61 2-.36 8.78-1.5 10.8-1.82 4.36-.7 8.7 3.63 15.55 2.8zm15.48 12.63c-5.88 2.82-17 3.63-26.78 2.05-8.45-1.36-11.38-4.3-15.9-11.65 7.24 3.56 14.18 3.4 25.48 3.4s20 .61 25.15-1.88c-2.5 3.13-4.2 6.28-8 8.07zm-52.49 85.92c-.37-2.66-4.11-19-10-15.8-3.89 2.11 4.23 8.84 5.24 11.86 1.49 4.46.63 15.7 6 17.95s-1-12.32-1.27-14zm76.97-10.37c-6 4.74-6.58 9.77-9.42 16.25-1.2 2.74-9 12-3.08 12 5.05 0 7.61-14.68 9.32-17.94.8-1.53 6.12-7.07 6-7.81-.12-1.09-.28-4.5-2.85-2.47zm-58.35-123.2c-1.94.89-1.73 3.34-1 5-7.58-2.72-7.18-7.86-6.22-13.48 1.25-7.37 5.13-3.09 4.55-7.6-.68-5.23-5.32-.19-6.63 4.8-2 7.77-2.88 16.19 7 19.15 3.09.93 6.31-1.13 8.77-.63 4.08.84 5.82 5.09 10.82 5.12 4.23 0 6.18-3.32 9.74-4 2.62-.52 5.26.17 8.29-.41 9.54-1.83 11.14-7.38 9.11-16.09-.69-3-5.22-15.3-6.9-8.73-1 3.95 3 2.59 4.33 10 1.09 6 1.43 10.83-5.66 11.74 4.51-5-5.21-4.53-6.85-3.93-3.43 1.26-3.6 5.55-9.3 6.93-10.66 2.58-12.32-9.61-20-7.83zM906.15 481c-5.21 0-11.35-3.49-14.71-6.61-2.2-2-12.31-8.3-12.91-11.15-1.14-5.44 7 .63 8.06 1.37 6.84 4.9 7 5.75 14.3 10.19 3.57 1.31 11.92-14.37 25.74-15.65 8.56-.79 17.11 2 25.64 1 2-.23 11.68.19 4.39 2.6-12 4-27.1-5.23-37.56 2.25-4.54 3.28-9.95 15.8-12.95 16zm-38.83-114.49c-4.18 0 4.42-2.91 4.93-3.55.19-.24 11.62-2 12.71-2 12.87-.65-15.47 5.55-17.64 5.55zm4.58-144.99c-6.89 0 9.4-11.5 11-12.1 4.78-1.75 28.43 1.92 33.94 4.27 5.3 2.26-17.43-1.24-20.38-1.44-4.88-.33-9.12 1.12-13.59 3.08-2.55 1.14-8.2 6.19-10.97 6.19zM775.73 249c-6.55 0 11.69-13.35 13.51-14.38 4.5-2.54 25.62-12.66 27.53-1.82.37 2.13-12.24-.37-16.26.94a59.58 59.58 0 0 0-14.4 7.51c-2.46 1.66-7.56 7.75-10.38 7.75zm136.54-20.33c-2-7.1-28-2.87-34.54 1.63-4.64 3.18-14.46 13.8-9.6 10.76 2.31-1.44 3.18.72 2.47 1.66-1 1.85 2.75 3.07 6.19 2.1 10.68-3 25.7-1 30-11.19a3.43 3.43 0 0 0-.11-2.14c4.75.02 6.54.51 5.59-2.82zm-28.85 3.85c.32 5.37 3.51 7.43 6.88 7.42-4.74.61-12.47 1.25-15.67 1.84-.65-1.08.3-5.19 2.15-6.45 2.22-1.48 3.89-2.95 6.65-2.81zm15.95 5a19.53 19.53 0 0 1-6.56 2.05c3.8-1.13 6.87-4.64 4.93-8.56 1.91.16 4.15.33 6.33.42-1.64 1.94-3.62 5.42-4.69 6.08zm-36.26 37.68c-2.37-4.72-3.7-12.55-7-19.19a51.07 51.07 0 0 1-4.72-17.95c-.37-2.45-1.8-1.84 4.58-6.41 4.82-3.45.28 4.47-.06 5.73-1.08 4 .4 10 2.56 15.18 3.61 8.64 9.16 31.63 4.64 22.64zM825 248.56c3.06-.26 6.31-2.7 4.34-2.68-4.29 0-15.68-2.95-21.1-2-4.09.7-11.72 3.62-15.47 5.36-3.26 1.51-11.85 9.7-2.63 11.5 1.41.28 1-.09 3.09-2 .89 4.19 3.79 4.76 11.62 3.26 5.15-1 18.54-3.18 25.08-9.38 1.33-1.23-2.48-3.3-4.93-4.06zm-20.1 11.58c-10.46 1.32-6.59-.69-8.92-3.38 1-.89 6-5.19 6.81-5.59-3.72 16.79 20.32 3.7 11.7-2.74.92 0 2.74.16 4.8.22-.36.79.78 2.26 4.74 4.6-4.5 2.6-13.37 6.17-19.09 6.89zm112.67 47.99a110.21 110.21 0 0 0-11.21 1.52c-5.35-.46-17.3 6.48-34 10.26-1.1.25-2.71 3.51-3.84 3.69-.84.13-3.81-1.34-4.73-1.21-10.81 1.52-24.45 5-32 9.43-4.94 2.9 1.18 2.44 3.18 3.87s5.56 2.14 6.88 4.29c.83 1 1.78 2.09 2.66 3 6.37 6.53 12.71 14 23.1 12.1 19.24-3.56 27.84-3.54 37-19.2 1.48-2.53 7.23-12 8.62-14.64 4.43-7.36 13.88-14.12 4.34-13.11zm-23.94 34.41c-6.3 5.28-17.42 8.25-25.24 8.73-4.6.28-9.14.63-13.3-2a16.63 16.63 0 0 1-4.78-5.39c4.65 2 8.86 3.44 10.23 3.44a71.76 71.76 0 0 0 39.19-12.41 20.11 20.11 0 0 1-6.1 7.62zm-7.63-4.89c-7.45 2.23-18.15 6.45-26 5.67-8.79-.86-14.45-8.08-23.23-9.87-2.2-.84 19-2.87 28.09-4.07 8.41-1.11 16.19-4.24 23.91-7.44 8-3.31 18-9.53 27-9.33-9.31 9.98-16.01 20.93-29.77 25.04zm44.58-10.49c-3.7 8.6-2.79-16.72-.51-22.24 1.08-2.61.78-9.68-3.58-9.2-2.67.29-1-2.3 2.56-3.32 5.75-1.64 3.92 10.44 2.27 14.19s.68 13.83-.74 20.57z"/>
  <path d="M1073.34 431.3c-3.78-5-11.75-5.67-17.65-3.6-4.54-1.39-12.8-2.94-13.53-3.13-6.32-1.61-13.05-1.9-19.44-3.55s-30.57-11.65-40.13-11l.12-.23c.39-.69 3.26-2.24 4.13-3.61 1.14-1.79 1-5.47 1-7.57 0-8.69-3.71-16.17-2.89-25 1.6-17.18 9.39-35 11.49-52.17 2.16-17.78 4.52-36.93 3.56-54.85-3-56.16-43.87-102.39-75.3-146.55-7.39-10.37-15.87-21.08-27.11-27.48-1.74-1-20-13.28-24.8-10.7 1.65-30.05-38.85-28.77-60-21.24-69.62 24.77-103.63 110.46-125.35 173.48-12.25 35.56-29.42 77.15-22.66 115.43 1.84 10.4 13.13 20.64 16.53 30.47 3.34 9.65 3.68 19.35 2.61 29.44-.38 3.59-7.17 31.11-5.56 41.67a90.32 90.32 0 0 0-12.06 7.59c-1.09.85-8.26 6.2-5.36 8.71s3.85-2.79 5.61-4c8.16-5.57 17.18-8.92 26-13.28.79 3.75-4.36 20.69-2.19 20.69 5.67 0 8.77-19.64 5.55-23-2.44-2.52-8-1.17-13.74 1.41 1.83-12 11.32-38.32 11.66-42.37 1.93-23.35-17.76-39.21-20-61.35-4.42-42.85 13.34-87.46 27.27-127 11.28-32 22.49-64.72 42.22-92.74 19.38-27.53 48.67-55.35 83.59-59.54 12.48-1.5 34.2-1.45 40.93 11.85 3.27 6.45-2.38 13.93.16 19.77 2.79 6.39 1.35-2.88 14.36-2.89 5.15 0 13.62 4 17.79 7 10.56 7.55 19.35 15.51 26.51 26.16 32.3 48 67.12 93.6 66.31 154.28a382.22 382.22 0 0 1-4.17 49.87c-2.17 14.91-8.12 30.39-8.16 45.48 0 7.12 3.25 13.84 3.24 20.87 0 9.74-8.44.86-10.18 4.05-2.41 4.42 2 42 10.68 42 3.9 0-2.06-14.72-2.33-15.86-1.47-6.05-2-10.72-.92-15 3.44 1.38 9.73 2.27 10.7 2.62 6.52 2.38 13.91 3.71 20.6 5.74 10.47 3.18 26.62 8 38.25 8.51-6.11 5.67-8.78 16.34-12.82 23.31-9.67 16.69-24.57 26.71-40.68 36.61-19.32 11.86-39.29 23-60.83 30.28a161.8 161.8 0 0 1-32.37 7.52c-2.74.33-15.61-.5-17.08 1.06-.67.71-4.05 4 0 4 45.22 0 86.89-22.27 123.71-46.57 15.53-10.25 26.57-22.37 34.92-39 3.17-6.3 6.19-16.83 14.63-17.39 1.07-.04 18.48 7.78 13.18.8z"/>
  <path d="M824.67 363.67c14.5 14 30.7 35.59 52.92 35.59 18.63 0 33.15-15.37 44.1-28.68 2.59-3.15 13.58-14.09 13.74-3.79.06 3.74 5.15 32.64 7.16 24.05.5-2.15.86-19.76.57-27.49-.12-3.24 1.83-22.91 5.44-28.63 4.63-7.34 6.15-12.49 7.15-21.15 1-8.48 1.88-15.23 2.11-23.72.06-2.13-.35-12.15-1.39-16 1.33-2.31 2.47-4.34 3-5.16 3.56-5.36 5.09-9.67 3.84-16.19-1.06-5.58-3-18.68-8.8-20-6.13-1.36-13.62-2-15-19.06-1.48-18.5-21.22-23.14-32.55-36.29-9.86-11.45-13.21-24.51-16.9-38.75-1.16-4.49 0-12.78-4.12-15.58-2.5-1.7-14.68-2.8-13.12 0 2.7 4.85 3.75 9.1-9.8 8-4.8-.38-9.27-1.55-14.1-1.08-9.66.94-17.88 6.07-26.84 9.33-14 5.1-30.18 4.43-43.18 12.49-14.61 9.06-23.34 26.68-24.37 42.89-1.33 20.83 9.49 37.28 16.56 56.27 1.86 5 11.66 65 13.1 68.09 5.12 10.88 15.78 25.8 23.92 33.94 3.58 4.23 3 26.63 3.26 29.63 1 9.77 3.25 20.7 5.54 30.94 3.22 14.37 12.31 24.69 20.28 36.91 8.52 13.05 17.39 25.73 23.28 40.26a131.61 131.61 0 0 1 7.32 25.3c.74 4 1.7 29.74 4.73 29.74 6.75 0-4.32-45.49-6.67-52-5.3-14.65-13.44-27.64-22-40.55-7.75-11.68-15.48-23.42-19.55-37a93.69 93.69 0 0 1-3.71-27.84c0-3.17 2.73-18.71 3-25.61zm-28.9-39.44c-1.17-2.29-6.54-13.34-8.35-18.37-5.08-14.12-10.84-51.86-12.56-56.47-8.07-21.65-15.59-40.06-11.31-63.76 2.9-16 11-25.19 26.76-30.82 7.71-2.75 18.7-2.7 26.64-4.52 9.15-2.1 17.39-8.71 26.17-11.8 9.76-3.43 13.52-4.41 23.46-2.76 1.75.29 12.23 2.12 17.24 1.1 1.71 4.91 4 10.82 5.44 15.51A75.91 75.91 0 0 0 900.13 175c9.13 12.75 25.07 20.1 31.88 34.5 2.44 5.18 4.87 41.31 6.37 41.31 3.08 0 3.7-5.82 3.32-12.74 3.57 1.49 10.66 2.34 12.51 4 3.35 3 5.93 10.79 5.75 15.21-.14 3.54-16.23 26.59-10.52 26.59.49 0 1.35-1 2.38-2.43-1.1 13.87-1.11 38.59-2.55 42.61-2.65 7.42-7.21 14-12.06 20.11-.56.71-5.55 6.32-7.06 9.91A119.17 119.17 0 0 0 921 365c-9.47 11.92-21.08 25.93-36.7 29.43-19.89 4.46-35.78-12.54-48.48-25.24-14.43-14.46-30.55-26.39-40.04-44.95z"/>
  <path d="M838.43 296.92c-3.23 13 5.7 15.1 10.77 14 7.85-1.67 13.07 6.68 20.33-.27 2.5-2.39 3.57-6 6.17-8.28s7.76-3.19 10.27-5.17c4.44-3.51 4.17-13.79-2.95-15.64-6.12-1.59-8.16 3.17-4.53 2 3.34-1 9 3.14 5.81 9.9-1.72 3.67-7.88 2.66-10.91 4.68-3.3 2.21-2.4 6.82-5.17 9.29-6.36 5.67-10.84-.55-17.91-1.6-2.75-.41-7.34 1.79-9.45-1.43.14.23-.63-11.65-2.43-7.48z"/>
</svg>
