<svg xmlns="http://www.w3.org/2000/svg" viewBox="0 0 2532.58 560"><defs><style>.a{fill:none;}.b{fill-rule:evenodd;}</style></defs><title>All Faces</title><path d="M1338.79,432.85c-2.34,3.21,16.45-3.45,18.37-4.28,2.85-1.23,24.14-8.9,24.07-12.7,0-1.52-28.38,10.49-30.81,10.38,0,0,6.7-8.17,7.1-8.6,5.78-6.2,11.72-12.25,17.35-18.6,11.51-13,21.23-28,27-44.43,12.75-36.49,14.69-77.14,23.16-114.86,6.43-28.66,14.74-60.3,27.42-86.81,8.77-18.33,17-40.4,29-56.68s31.27-25,50-31.46c22.47-7.75,45.09-10.72,66.42,1.12,3,1.65,35.1,22,34.4,24.16,2-6.07-22.68-22.49-26.39-25-16.83-11.26-33.38-14.72-53.39-11.76-20.62,3-44.77,10.27-60.83,24.12-17.54,15.12-29.28,37.16-38.91,57.87-30.2,65-33.7,137.23-52.76,205.36-10.35,37-39.27,62.21-61.17,92.14C1333.39,440.24,1342.21,428.18,1338.79,432.85Z"/><path d="M1495.88,484.39c26.51,29.42,77,56.91,117.55,45.05,17.61-5.14,30.48-17.78,38.62-33.86,5.92-11.7,10.58-24.34,12.59-37.32.59-3.81,3.88-24.06-1.21-26.38,2.69,1.23-1.31,27.25-1.93,30.08-2.42,11-7.41,21.56-12.55,31.48-8.72,16.83-22.45,28.48-41.4,31.85-21.36,3.8-43.92-2.5-63.22-11.4a155.27,155.27,0,0,1-30-18.07c-1.76-1.36-20.08-17.41-20.24-17C1493.56,480.15,1495.08,483.29,1495.88,484.39Z"/><path d="M1631.46,323.19c-.19-.91-1.46-5.34-2.92-3.59a5.45,5.45,0,0,0-.46,2.85c-6.58-.79-13.28-4.35-20-4-3,.15-5.58,1.8-8.39,1.75-3.1-.06-5.93-2.16-9-2.27-6.37-.24-13.3,3.45-19.44,4.93-3.4.82-21.33,2-20.57,6.2-.58-3.22,11.82,1.86,13.24,2.72,3.52,2.11,6.67,5.06,10.2,7.25,9.33,5.78,14.29,7.23,25,6.15,3.15-.33,8.24.41,11.05-.54,5.28-1.78,6.64-6.48,9.31-11,1-1.76,11.56-12.64,12-10.46Zm-54.8.56c3.77-1,8.11-2.57,12-2.45,4.84.16,8.76,2.64,13.45,2.31,6.19-.42,15.64-3.48,22.07-.07-8.45,1.6-16,6-24.87,5.93-11.26-.12-23.82-1.91-35.07-2.74,3.36.25,9.16-2.14,12.37-3Zm25,8.62c-.42,1.42-1.1,1.79-2.05,1.13-.87-.85,2-1.32,2.05-1.13S1601.64,332.31,1601.65,332.37Zm14.2,1.54c-3.16,5.93-4.2,5-10.28,5.51-4.94.38-11.74,2.53-16.57,2.26-8-.47-18-7.84-24.33-12.43,1.36,1,14.15-.2,17.73.34,5,.76,12.7,3.35,15.88,4.07.4.09,1.06,2.17,3.17,2.16,2.44,0,.67-3.48,1.59-3.83,1.44-.54,16.84-3.35,17-3.93-.44,2.14-3.14,3.94-4.15,5.85C1613.62,338.08,1616.23,333.19,1615.85,333.91Z"/><path d="M1600.27,347.24c2.18.31,2.51,1.05,1,2.25C1599.21,349.76,1600.51,347.61,1600.27,347.24Zm-.35-1.46c-2.76.71-1.35,7.71,2.87,5.62C1606.35,349.62,1602.46,345.94,1599.92,345.78Z"/><path class="a" d="M1597,357.93c.86.12,10.84,0,10.11-2.21-1.26-3.79-19.19,2.94-21,3,3.5-.2,7.38-1.35,10.89-.83C1600.85,358.49,1594.76,357.59,1597,357.93Z"/><path d="M1588,288.29c-6.18,2.64-13.18,3.66-14.72-4.78-.57-3.13.86-8.36,3.93-10,1.47-.8,6.58,1.1,7.09.19,1.26-2.25-5-3.33-6-3.22-5.4.57-7.79,7.7-7.44,12.23.35,4.71,2.63,8.53,7.4,9.6,2.14.48,12.83-1.4,13-3.88A2.37,2.37,0,0,0,1588,288.29Z"/><path d="M1625.65,275.56c-1.61-8.12-7.64-1.05-9-1.64,3.15,1.42,3.34-2,5.86,1.44,1.48,2,0,7.23-1,9-3.19,5.6-6.33,3.9-11.88,3.29,0,0,6.35-2,5.92-1.47.77-1,5.93-7-.95-4.41.81-4.6-.83-9.82-2.21-14.07-.7-2.18-2.93-12-4.59-13.29.05.05,1.09,10.62,1.36,11.56,1.07,3.87,4.94,10.14,3,14.49-5.68,13-24.9-2.81-30.3,2.77-4.52,4.66,3.39,3.28,5.48,3.48,4,.38,8.51,1.64,12.75,2,11,1,29.17,5.4,25.47-13.23C1624.8,271.28,1626.39,279.3,1625.65,275.56Z"/><path d="M1576,201.28c5.89-1.19-4.3-6.25-5.86-6.51-1.09-.18-4,1.62-5.66,1.63-2.89,0-7.78-2.79-11-3.32a52.12,52.12,0,0,0-16.63.14c-1.14.16-10.75,3-11.55,2.54,2.82,1.6,10.34-.88,13.47-1.24,6.68-.77,11.86-.76,18.29,1.71,1.94.75,4.48,2.77,6.41,3.16,1.64.33,4.55-.1,5.46.12.58.14,1.63-2,2.8-1.77,3.4.59-2.07,4.83,4.28,3.54Z"/><path d="M1571.85,162.77a7.26,7.26,0,0,1,1-1A3.59,3.59,0,0,0,1571.85,162.77Z"/><path d="M1718,424.15l-.08-.17A.93.93,0,0,1,1718,424.15Z"/><path d="M1718.89,425.92l-.88-1.77a.93.93,0,0,0-.08-.17h0l.08.17c.17.33.49,1,.87,1.75-12.15-24.59-24-50.22-29-77.32a408.19,408.19,0,0,1-6.52-88.34c.3-8.91.21-17.93,1-26.81.6-7.21,2.88-14.09,3-21.47.06-5.24-1.36-8.45-2-12.76-1.28-8.82-.91-18-2.08-26.94-2.36-18-6.07-37-14.48-53.22-3.9-7.52-9.07-14.79-16-19.8-.88-.63-16.13-9.06-16.87-6.18.5-1.94,17.62,12.41,18.29,13.19,8.42,9.72,14.07,21.93,18,34.09,3.94,12.36,6,25.26,7.2,38.14.5,5.46,2.61,14.59,1.1,20.07-1.39,5.06.23,3-5.32,4.69-2.55.75-6,.8-8.65,1,3-15.44-3.43-37-7.69-52.1-.68-2.44-11.92-29.16-16.84-22.08-2.43,3.49,9.19,19.53,10.86,23.15,6.07,13.18,11.27,31.54,10.07,46-6.74-7.61-16.86-9-26.11-6.23-4.52,1.35-7.87,4.43-12.06,6.15A7.79,7.79,0,0,1,1619,202a25.07,25.07,0,0,0-2.39-3.58c-4,.43,0,6.3,2.26,6.86,3.35.84,9.6-5.34,12.49-6.74,8.21-4,21-6.94,28.61.29,7.88,7.48-8.4,6.17-14.62,6.62-8.94.64-20.09.06-28.55,3.25-8,3-12.43,6.57-22,5.25-5.36-.74-7.66-3.26-12.38-5.21-9.19-3.79-22.21-3-32-3.65-12.26-.83-25.78-4.4-38-3.3,17.75-20.51,39.61-35.46,60.71-52.15,8.12-6.42,16.23-12.86,24.45-19.15,1.22-.93,14.29-9.08,14.33-9.9-.27,5.65-15.91,16.85-19.52,20.06-5.3,4.71-49,37-45.79,41.4,6.51,9,62.73-46.57,70.43-45.74,2.59.28-15.26,19.17-15.34,19.05,4,5.41,22.76-12,24.72-14.11,4.71-5.16,6.57-13.73,10.83-18.26-6.75,7.17-11.74,21.32-22.41,24.05,4.34-1.11,20.28-30.13,16.49-31s-24.1,22.35-27.87,25.46a214.35,214.35,0,0,1-20.64,15.06c-1.74,1.11-7.48,3.35-9.89,5.18a7.26,7.26,0,0,0-1,1,3.59,3.59,0,0,1,1-1c7.53-6.87,56.49-46.79,49.46-52.71-3.11-2.62-30,19-34.31,22.2-15.63,11.79-32.6,21.66-48.07,33.67-17,13.21-33.86,28.43-44.63,47.35-13.21,23.2-12.69,43-7.58,68.39,7.55,37.51,24.72,73.86,23.64,112.57-.73,26-7.13,52.34-20.54,74.76-5.33,8.91-12,16.95-18.8,24.74-1.71,1.95-7.84,11.24-10.29,11.77,8.58-1.87,19.89-18.38,24.82-25a145.32,145.32,0,0,0,21.89-43.28c.84-2.71,2.57-15,5-15.79s9.54,6.27,11.48,7.63a41.69,41.69,0,0,0,16.66,7.42c1.7.34,16,4.68,16.49,4.37,2.52-1.74-15.26-7-17.14-7.69-9-3.12-15.2-8.06-21.7-14.85-8.07-8.45-3.6-19.81-3.59-31.07a165.75,165.75,0,0,0-3.76-35.81c-9.12-41.7-37-91.67-11.64-132.58-.49,8.05.33,20.36,6.38,26.55,6.48,6.63,18.61,5.27,27.31,5.66,13.68.61,27.95.23,41.22-3.53,10.28-2.91,11.14-6.93,16-15.46,3-5.21,7.52-11.28,14-6.9,4.8,3.24,3.59,12.12,7.07,16.39,9.55,11.69,40.23,7.25,53.23,4.19,0,17.62-3.9,36-5.12,53.7-1.11,16.2-6.86,25.81-16,38.75-18.67,26.45-34.52,74.89-78,55.39-14.34-6.43-29.59-17.22-39.29-29.37-1.71-2.15-4.46-8.46-8.34-5.88-6.86,4.57,6.38,13.48,9,15.16,14.55,9.29,29.62,23.36,47,26.59,24.93,4.62,42.52-7.58,54.39-28.49,3.37-.81,3,32.69,1.8,35.76-2,5.27-7.43,9.41-10.42,14.19-1.63,2.61-2.29,5.89-4,8.35-1.23,1.75-4.26,2.76-4.85,4.78-.46,1.54,6-2.68,6.72-3.44,2.72-2.85,3.5-7.4,6.21-10.44,2-2.22,7.63-7.21,10.75-7.35,5.24-.25,9.92,5.34,14.21,8.67,8.85,6.86,16.28,6.36,27,8.4a55.81,55.81,0,0,1,12.87,3.59c2.49,1.15,5.26,4.6,8.21,4.48,1.18,0-7.28-6.89-8.36-7.42-4.37-2.14-9.58-3-14.3-3.88-10.25-1.91-16.83-2.68-25.49-9-13.49-9.82-15-17-15.75-33-.63-13.2-.34-22.23,6.56-33.72,11.6-19.32,21.55-32,23.54-55,.76-8.77.9-17.61,1.77-26.37.61-6.21.38-15.51,2.38-21.39,1.42-4.17.21-2.13,3.32-5.07,2.56-2.42,5.69-3.39,8.16-6.15-1.3,45.27-2.77,90.6,10.67,134.48,5.5,18,13.33,34.76,21.73,51.5a95.21,95.21,0,0,1,9.26,29c.37,2.48,3.68,16.28,2,18.36.79-1-9.65-15-12.14-13.58,1.55-.9,13.41,29.86,18.55,28.12C1735.69,482.4,1721.47,431.15,1718.89,425.92ZM1555.07,212.34h0c-3.36-2.7,3.41-.48,4.58.12a10.35,10.35,0,0,1,4.61,4.29c3,5.59-.16,6.7-6.64,8.31-4.75,1.19-17,2.34-20.73-2.17-3.59-4.34,1.51-8.92,6.44-10-4.65,4.41-.95,11.83,5.1,12.29C1554,225.59,1560.61,216.8,1555.07,212.34Zm32,13.66c-1.86,14.92-13,17.86-25.69,19.14-11.35,1.14-26.36,3.06-37.72,1-12.67-2.33-20.76-23.92-12.06-34.68,6.69-8.26,25.79-3.09,35-3-1.69.22-19.82,5-18,10.21.61,1.7,6.65-2.89,7.66-3.42-4.51,4.54-5.72,4.07-1.83,8.08s14.17,4.55,19.22,3.94c2.82-.34,12.76-2.27,14.52-4.84,2.65-3.88-.32-3.64-3.7-7.9.84.45,8.81,7.51,10,6,2.32-3-17.77-11.54-19.43-11.85,12.4.54,34.17-.54,31.93,17.38C1589,210.74,1586.52,230.35,1587.07,226ZM1623,214.05c-8.81,16.89,26.65,5.51,8.46-3.15,8.83-1.43,18.08,8.93,6.58,12.91C1630.5,226.42,1608.09,222.41,1623,214.05Zm42,25.71c-3.31,5.83-25,4-30.94,3.66-8.66-.43-3.47-.17,0,0-7.88-.4-15.19-1.28-19.65-8.44-5.06-8.14-5.54-18.55,4.62-21.73-.19.14-6.88,7.23-5.09,7.73a13.11,13.11,0,0,0,2.74-2.36c-2.09,9.13,11.84,8.9,18.36,7.8,5.36-.91,15.88-3.34,10.57-9.67a6.19,6.19,0,0,0,4.21,1.21c.3-.57-9.73-8-11.11-8.48a226.18,226.18,0,0,1,23-1.54c-1.06,6-.45,12.25.47,18.22C1662.45,228.36,1665.9,238.16,1665,239.76Zm14.46-15.53c0,.3-.09.61-.13.9s0,.26,0,.38-.07.44-.09.59c0,.3,0,.25,0,0l.09-.59,0-.38c0-.25.08-.55.13-.9s.09-.62.14-1l.06-.4v-.08a21.39,21.39,0,0,1-12.19,16.34c-1.08-5.74-7.89-26.15-1.82-31.18,1.76-1.46,12.31.47,14,2.47,1.84,2.17.38,9.72,0,12.37v.08l-.06.4C1679.55,223.51,1679.5,223.86,1679.45,224.23Z"/><path d="M1555.07,212.34Z"/><polygon points="1555.07 212.34 1555.07 212.34 1555.08 212.34 1555.07 212.34"/><path d="M1720.05,428.26c.32.67.58,1.18.77,1.56C1720.6,429.39,1720.33,428.85,1720.05,428.26Z"/><path d="M1555.07,212.34l.07,0Z"/><path d="M1679.27,225.51l-.09.59C1679.2,226,1679.23,225.75,1679.27,225.51Z"/><path d="M1719.69,427.54l.36.72C1719.94,428,1719.81,427.79,1719.69,427.54Z"/><path d="M1721.26,430.72Z"/><path d="M1719.69,427.54c-.28-.56-.56-1.12-.81-1.64v0Z"/><path d="M1721,430.22c.13.25.2.41.25.5C1721.21,430.62,1721.13,430.45,1721,430.22Z"/><path d="M1720.82,429.82l.19.4Z"/><path d="M1623,214.05c-1.32.74-3.73,7.15,0,0Z"/><path d="M1634,243.42h0C1637.81,243.61,1636.3,243.53,1634,243.42Z"/><path d="M1555.14,212.39l.16.14Z"/><path d="M1587.07,226c-.55,4.35,1.91-15.26,0,0Z"/><path d="M1679.45,224.23c0,.35-.09.65-.13.9C1679.36,224.84,1679.41,224.53,1679.45,224.23Z"/><path d="M1679.59,223.24c0,.37-.1.7-.14,1C1679.5,223.86,1679.55,223.51,1679.59,223.24Z"/><path d="M1679.66,222.76Z"/><path d="M1555.64,212.8l.23.18Z"/><path d="M1555.3,212.53l.34.27Z"/><path d="M1679.66,222.76v0Z"/><path d="M1555.87,213l.1.09Z"/><path d="M1556,213.07Z"/><path d="M714.83,421.94c-7.94,0-4.11-28.56-17.81-36.52-7.51-4.36-60.58-27.33-60.58-24,0-4.35,32.88,2.08,35.83,2.87,12.22,3.27,24.51,8.23,32.4,18.54,7.37,9.65,5.69,23.18,10,34.35C715.31,419,717.23,421.94,714.83,421.94Z"/><path d="M618.54,275.14c-9.6-6.36-3.77,6.22-3.32,4.65a5.67,5.67,0,0,1,1.38-2.8c2.29-1.83,7.11,6.89,5.48,12.39-.66,2.22-3.41,4.46-5.32,3.22-.67-.43-.22-1.47-1.14-2-1.87-1-6.38,8.07-8.82,9.24-4.73,2.27-7.55.84-11.94-1.13-.81-.36-20.05-10.68-18.44-1.89.28,1.5,10.7.31,12.55.77,5.11,1.29,7.2,6.38,13.34,6.34s12-8.9,13.87-9.16C628.27,293.19,626.21,280.23,618.54,275.14Z"/><path d="M606.14,254.93c-1.39,0-4-16.72-4.08-19-.09-2.53,5-22.42,9.62-17.78-.26-.27-7,14.22-7,17.44C604.68,238,609.78,254.93,606.14,254.93Z"/><path d="M605.78,217.87c-3.33,0-1.92-5.15-1.27-6.58,1.19-2.63,5.64-5.54,9.13-5.8,4.5-.33,3.33,5.61,6.18,3.14,2.39-2.09,1.64-7.7,9.4-3.45,5.59,3.07,5.08-4.26,12.79-4.67,1.73-.09,12.11,2.36,11.78,4.54-.07.44-9.26-1.5-10.27-1.27-7.74,1.76-9.49,8.09-17.56,5.17-2.26-.81-7,6.52-10.08,2.91-.63-.73-2.09,3-3.34,3-1.82-.06,1.32-3.67-2-4.25S608.82,217.87,605.78,217.87Z"/><path d="M570.21,222.3c-3.52,0,1-5.09-.29-4.44-12.16,6.08-6.23-6.87-13.36-1.3-4.15,3.24-3.53-2.72-14.78-5.45-5.79-1.4-14.36-3.11-20.35-3.36-3.25-.13-17.25,5.27-16.78,5.67-4.27-3.71,12-10.34,13.79-10.48,5.34-.41,14.16,3.91,19.45,4.28,10.39.74,9.67-1.18,16.21,4.15,2.87,2.35,3.59-7,7.81-4.47,2.84,1.74.88,6.73,3.47,7.46,1.89.53,13.81-12.52,9.46,1.79C574.56,217.07,572.26,222.3,570.21,222.3Z"/><path d="M681.86,195.85c3.06-7.29,3.67-17,2.79-24.76-1.82-16.13-9.79-29.12-16-43.88-2.8-6.63-1.71-15-6.37-20.56-3.28-3.93-12.36-5.54-14.39-10.2-3.47-8,3.07-14.46-4.83-22.29-5.42-5.39-20.55-5.18-26.94-3a87.79,87.79,0,0,0,.59-10.79c-.55-8.39-3.58-15.17-10.58-20.13a53.64,53.64,0,0,0-43.07-8.69c-34.91,8-62.15,33.82-88.75,55.92-29.42,24.45-51.18,48.67-58.15,87.37-2.87,15.92-7.9,24-11.67,39-1.73,6.9,4,20,6.49,26.62,2.14,5.61,19.17,17.56,28.39,17.81,3.9.1-6-9.43-6.44-10.23-2.65-4.4-4.39-10.11-3.33-15.28,2.63-12.84,7.43-14,18-17.87,6.68-2.45,14.41-2.7,18.09-1.28,3,1.14,1.35,2.06.71,8.25-5.89,7.11-21.39,11-17.85,15.08,6.05,7-3.54,26.24,5.09,29.37,3.66,1.32-3.92,2.49-3,7.22.24,1.32,4.3,5.06,4.47,6,0,.13.34.38-1.66,2.19-1.17,1.06-2.25-.78-2.64-1.94-1.46-4.38-2.9-6.87-3.27-8.48-1.71-7.32-1.83-15.24-2.86-22.69-.71-5.12-3.33-13.86-1-19.11,1.08-2.46,5.13-4.24,5.13-5.1,0-5.47-8.11-1.13-8.76.28-2.48,5.36.84,15.92,1.56,21.42s2.17,41.74,11.5,41.74a23.28,23.28,0,0,0,3.1-.5c.12.85.23,1.58.31,2,.68,3.93,4,13.65,5,17.81,3.21,14,12.64,17.72,22.8,18.82,6.1,12.35,14.42,22.57,25.53,32,5.74,4.89,32.87,26,39.31,28.18a43.75,43.75,0,0,0,4.68,11.28c7.09,12.68,19.62,23.87,35,23.87,28.76,0,59.33-27.5,47.38-56.46-.44-1.07-2.62-8.68-1.36-9.74,8.33-7,14.31-21.66,16.51-26.88a119.28,119.28,0,0,0,5.63-16.94,5.57,5.57,0,0,0,.63,0c10.24,0,16.57-32.63,16.3-38.46-.17-3.58-8.26-39.93-5.37-47.38C670.79,219.35,680.22,199.77,681.86,195.85ZM479.11,319.79c-4.58-1.39-9.18-7-10.24-8.19-3.52-4.08-8.11-17.71-8.71-22.76-.47-4-.09-7.64-.65-11.1-.27-1.63-3.13-1.27-3.05-3.93.19-6.63,12-11.72-1.46-11.39.4-1.66,4.46-13.52-1.4-21.58-4.47-6.14,12.37-15,11.36-4.65-1.56,16-.71,20-.5,22,2,18.77,8.59,37.84,14.74,55.63C480.33,317.11,482.26,320.74,479.11,319.79Zm154.53,68.38c-7.31,16.7-19.59,26.06-38.84,28.66-16.76,2.26-29.78-7-37.68-21.27-5.15-9.31-7.26-16.51.46-25.2,6-6.78,10.7-11.9,16.88-20.64,2.17-3.07,10.73-2,15.65-1.56,3.51.3,13.29,4.6,13.45-1.42,2.92,1.23,15.53,7.4,20.22.83C626.74,343.44,639.46,374.85,633.64,388.17ZM668.78,273.5c.24,7.23-2.9,20.23-5.69,26.94-.33.8-3,3.24-5,5.6,1-4.82,1.84-9.69,2.46-14.58,3.19-25,1.68-50.43,1.05-75.54-.69-27.46-3.49-54.47-14.61-79.89-3.87-8.86-6.35-21-12.44-28.56-1.81-2.26-23.46-15.42-23.46-8.43,0-1.56,19,12.1,21.24,15.22,5.1,7.06,7.74,17,11.19,24.93,11.23,25.9,13.52,51.51,14.23,79.4.64,24.88,2.46,50-1,74.77-1.8,12.85-4,25.63-9.54,37.42-1.84,4-7.37,18.58-12.32,18.91-5.7.37-7.53-6.7-12.16-7.21-5.53-.62-.8,3.33-3.77,3.7-6.95.88-11-3-16.52-4.41-2.62-.65-2.38,4.66-3,4.74-6.26.88-18.21-4.42-26.08.54-5.21,3.3-4.54,8.1-10.9,13.06-9.5,7.4-13,11.24-14,17.47-.81,5.14-13.27-3.88-14.44-4.69-7.64-5.35-14.41-12.5-21.52-18.54-13.22-11.24-22-21.81-28-38.15-6.75-18.41-14.55-38.74-16.6-58.29-.53-5.07,5.35-49.48,6.61-51.73s31.82-10.46,44.71-22.44c20.59-19.13,23.83-48.54,37.48-71.79,6.14-10.48,14.86-18.57,27.46-19.49,4.09-.3,10.43.22,14.3,1.74,1.57.62,9.43,7.25,9.67,7.25,5.36,0-3.81-7.81-4.13-8-3.29-2.27-10.12-6.31-14-6.72-11.8-1.21-20.87,5.79-29,14.63C542.13,121.8,538.69,153,519,174c-18.84,20.12-46.76,24.58-71.94,33.71-9.72,3.53-16.23,7-21.63,16.78-2.12,3.85-1.86,5.61-2.75,11.88-1,7.26-6.64-.47-7.39-1.84-3.93-7.21-7.5-12.85-5.2-20.87,4.2-14.6,8.65-22.75,11.48-38.47,6.41-35.6,22.7-56.91,50-79.59,27.51-22.87,53.23-49.49,89.31-58,13-3.05,26.67-2.23,38.7,4.54,7.26,4.09,11.17,7.78,12.4,16,.37,2.5-.28,22.1.94,22.35s2.06-2.2,2.66-5.49c5.84,1.52,21,0,25.34,4.79,5.14,5.58.54,12.52,3.4,19.21,2.2,5.11,9.22,5.51,12.77,9.74,4.53,5.41,5.44,14.47,8.15,20.9,6.58,15.64,14.87,30.1,15.56,47.41.32,7.94.15,16-4,22.86-1.22,2-12.42,19.4-12.39,22.31C664.49,233.85,668.68,270.53,668.78,273.5Z"/><path d="M601.94,401.81c1.07,0,8.28-20.58,7.25-24.41-5,6-8.59,11.8-10.57,2.26-1.2,1.81-11.84,17.86-14.36,14.48,2.25,3,6.49-30.31,3.41-27.94,4.63-3.54,4.39,17.13,4,18.83,4.39-5.67,7.82-15.43,10-3.57,2-1.92,4.88-6.94,7.25-8.12C611.89,371.86,613,401.81,601.94,401.81Z"/><path d="M621,296.57c-.19,4.69,23.29,4.8,24.51,15.79.89,8-3.57,1.51-7.63,5.19-6.41,5.8-10.69,4.58-13.74.31-1.58-2.22-6.33-7.71-3.83.33-1.6-.33-20.35-.48-26.35,2.72-7,1.35-17.53,4-18.35,4.18-12.91,3-18.43,3.13-23.39,12.05-.5.9-4.63-2.7-5.92-2.65-1.51.06-4.07,2-5.3,3.41-1.86,2.08-2.78,7-5.64,7.32-8,1,6.08-11.72.81-16.23-4.51-3.86-16.75,5.61-17.22-.49-.22-2.82,15.73-11.57,23.74-18.4.17,0,11.53-.79,14.38.47,3,1.33,9-5.06,10.07-2.8,1.71,3.57,7.34-2.52,10.8-5.16h0a.07.07,0,0,0,.05,0c.29,0,.58,0,.86,0h.06c1,0,11.85-.11,11.61-2.52,0-.4-16.35-.77-19-2.56-8.34-5.63-.26-10.43-2.81-13-4-4-4.67,8.17-4.19,9.56,1.26,3.63,5.23,6.31,9.23,7.62-1.86,1.72-4.08,3.42-6.06,2a6.58,6.58,0,0,0-7.95.34c-1.6,1.21-10.65,1.49-13.67,1.33-4.87-.26-28.64,17.59-30.23,22.53-3.34,10.38,13,1.27,15.79,6.78,1.41,2.81-6.35,14.62,3.21,14.62,2,0,7.67-8.55,10.12-9.61,3-1.28,2.73,4.14,6.44,3,1.76-.55,4.78-7.36,6.26-8.67,6-5.31,17.44-6.83,25.06-8.79,1.13-.29,12.87-.51,16.54-3.16a149.91,149.91,0,0,1,18.52-1.48c-4.85,1.83-12.92,5.74-14.48,6.08-3.88.87-19.16.2-19.16,1.87,0,2.61,16.48-.25,19.2.7,2.39.83,8.3-2.75,15.32-6.24-2,3.12-4.13,7.69-5.16,8.67-4.25,4-12.28,5.5-18,6.45-3.87.64-23.6-6.28-25-6.4-5.58-.48,17.64,9.29,20.86,9.29,7.13,0,15.2-.73,21.12-5.07,1.56-1.15,10-10.76,9.92-14.53h.23a20.94,20.94,0,0,0,3.71,2.52c2,1.18,1.09,2.36,4.17,2.36,2.91,0,5.12-4.4,7.33-5.11,3.51-1.13,4.8,1,8.55-.61-.18.08,3.88-5.83,3.76-4.87C651.72,303.29,621.18,291.4,621,296.57Z"/><path d="M538.76,246.25Z"/><path d="M558.21,234.83c.32,0,1.95-.39,2.26-.39,2.91,0-13.46-8.91-17.66-9.66-5.6-1-28.35-1.19-33.28,6.48-1.3,2,3.77-.62,9.35-1.35-2.51,2.5-6.77,8.56-4.65,9.49,3.86,1.69,17.92,6.85,22.2,6.85,5.62,0,23.57-1.64,23.46-9.23C559.88,236.62,559.23,235.81,558.21,234.83Zm-29.9-6c-3.41,6.11-3.11,10.08-1,12.35-4.16-1.47-7.44-.71-8.45-4.07C518.54,236.08,524,228.75,528.31,228.87Zm10.92,14.3c3.77-1.72,8.21-6.75,4.89-14.07,1.36.5,2.73,1.13,4.1,1.79,2.89,2.71,6.07,6.17,6.1,7C554.38,240.06,547,244.09,539.23,243.17Z"/><path d="M626.05,221.81c-4.25,1.2-9.75,3.18-12.76,6.74-.48.57-7.27,9-2.81,9,.37,0,.19-2.48,2.69-2,1.43.24,1.26.7,1.55,1.07,1.91,2.44,10.38,3,11.33,3,1.23,0,18.07-1.87,20.6-8.6.74-2-5.45-7.3-2.73-7.06s6.94,3.56,6,.94C647.28,217.18,628.06,221.24,626.05,221.81Zm-9.8,8.8a14.55,14.55,0,0,1,2.15-2.28,11.09,11.09,0,0,1,1-.63,10,10,0,0,0,5.56,9.07,15.13,15.13,0,0,1-7-1.35C616.07,234.53,616.27,232.28,616.25,230.61Zm25.69.68c-1.42,2.44-3.57,3.05-7.1,3.81,2.09-2.25,1.78-7.77.53-10.44C636.3,224.65,645,226,641.94,231.29Z"/><path d="M475.35,370.13c-3.68,0,4-15.71,4.32-17.82.46-3.13-4.13-23.19-1.22-23.19C483.65,329.12,483.38,370.13,475.35,370.13Z"/><path d="M597.5,422c1.34,2.69-30.4,5.9-34.28,5.11C550,424.38,536.31,419.47,524,414c-15.31-6.77-27.76-18.08-40.84-28.39-4.1-3.23-10.9-6-12.48-11.35-.63-2.13,1.38-9.87,1.63-12.8,2.7-2.35,4.21-4.2,3.23-4.85-2.3-1.54-27.88,20.21-31,23.24-8.32,7.94-19.51,11.83-30,16.52h0c-11.14.15-10.85,9.55,0,5.06,2.21-1.05,4.44-2.09,6.71-3.11,12.05-5.35,18.79-7.88,28.47-16.46a80,80,0,0,1,11.73-7.45c4.18-2.17,4.69,1.31,5,2.33,1.25,4.35,7,5.86,10.22,8.7,8.93,8,19.69,17.39,29.74,23.78,17.54,11.16,45.29,25.34,66.9,25.34C575.94,434.6,599.6,426.22,597.5,422Z"/><path d="M580.81,458.61c-24.69,0-52-14.26-72.3-27.2-4.51-2.88-53-41.89-46.69-46.14-.53.36,32.13,30.87,36,33.81a199.29,199.29,0,0,0,50.21,27.29c13.54,5.06,29.65,9.65,43.9,3.84,6.25-2.54,11.52-5.2,15.93-10.22,1.72-1.95,9.86-14.46,10.44-14.46,6,0-9.17,19.56-9.82,20.19C600.78,453.27,592,458.61,580.81,458.61Z"/><path class="b" d="M2352.13,196.4c2-4.16-5.82-11.81-10.24-10.16-1.31.49.55,2.84-.56,3.63-3.66,2.61-8.37-9-11.39-4.74-.57.8-.44,1.74-1.28,2.23-2.37,1.39-9.38-7.16-12.46-2.93-.87,1.19.25,2.39-.59,3.58-3.31,4.72-19.85-9.52-20.54-1.82-.1,1.14,0,1.09-.09,2.23-.58,5.57-19.53,1.05-16.81,8.69,1.4,3.95,6.49-2.77,10.86-4,4.13-1.21,8.64.73,10.27-2,.67-1.11-1.35-2.62-.9-3.83,1.72-4.56,16.58,10.21,21,3.59,1-1.57-1.39-1.87-.49-3.51,2.71-4.91,12.08,10,14.84,4.73.77-1.47-.4-1.88.74-2.12,2.26-.49,5.79,8.78,10.28,5.37,1.77-1.34-.16-5.74,1-3.82C2347,193.72,2351.13,198.49,2352.13,196.4Z"/><path class="b" d="M2393.16,199.43c-1.37-1.15,1.13-4.37-.56-4-3.51.82-4.75,6.85-2.68,9.8,1.3,1.85,6.54-5.22,6.29-3.24-.27,2.23-1.64,3.36.84,4.82,2,1.2,7-.64,10.91-.93,8.61-.65,16.29,9.9,15.31,6-.46-1.85-5.95-12.57-14.58-8.13-2.11,1.09-3.28-2.48-5.8-3.41-.52-.18-2.88,2.66-3.53,1.66-1.55-2.37,2.11-3.54,1.42-6.29C2399.92,192.36,2394.78,200.8,2393.16,199.43Z"/><path class="b" d="M2333.11,212.61c-5.81-2.34-3.26-4.08-3.31-9.79,4.29,2.76,1.72,5.21,3.31,9.79C2331.6,212,2332.44,210.68,2333.11,212.61Zm-33.92-5.43c4-2.65,11.94-7.53,16.61-7.9-1.87,1.74-2.28,9.89.4,11.21-6.19.85-11.27-1.62-17-3.31C2304.14,203.91,2304.72,208.81,2299.19,207.18Zm45.89,7.54c-8.67-8.17-13.5-17.93-26.74-18.34-2.3-.07-31.35,8.67-29.06,13.46-1-2.08,19.88,4.89,21.54,5,4.72.39,12-1.35,18.06,0,3.92.89,5.42,3.12,10.22,2.3-.5-3.53-4.47-7.11-5.36-11.4,2.16,1.88,9.57,12.17,13.1,11.41a2.3,2.3,0,0,0-1.76-2.47C2338.5,208.52,2345.58,215.18,2345.08,214.72Z"/><path class="b" d="M2374.81,207.06c6.34,10.12,5.47,26.51,8.14,38.57,3.54,16,16.9,23.16,7,37.92-9,13.38-21.36,13.74-34.55,2.33-3.57-3.09-1.23-3.59-4.88-5.81-2.89-1.77-8.56.44-11.95-1.19-2.56-1.24-5.58-6.71-10.53-11.72-1.61-1.64-1.83-4.4,1-5.16,2.16,2,3,4.87,4.88,7.14,2.55,3.09,4.63,3.84,8.75,5.67,7.79,3.45,30.85,0,25.12,11.5-1.33,2.67-5.91-2.41-9.57-3.37,0,3.59,14.3,9.77,19.85,7.89,6.18-2.09,12.83-13.42,12.44-18.17-.74-8.78-9.38-16.05-11.25-25.59-2.15-11-4.43-28.82-4.43-40"/><path class="b" d="M2352.74,259.53c-2.72-1.19-5.43-4.9-8-5.72,5.15-1.37,14.48,1.48,11.22,5.94C2355.47,260.4,2353.64,259.92,2352.74,259.53Z"/><path class="b" d="M2390.4,322.38c-1.18-2.11-3.79-6.69-4.53-7.22-3.47-2.46-17.59-2-19.9-3.19-2.73-1.37-19.16-7-26.81-7.94-1.21-.14-15.07.71-13.77,1.39.62.32,15.65.23,16.65.67,6.17,2.71,18.41,7.19,22.36,8.1,5,1.13,12.52.3,17.54,1.61,3.48.91,6.41,5.72,4.2,5s-7.8-3.66-11.69-3.17c-12.22,1.52-18.78-3.37-30.44-7.24-4.28-1.41-48.39-8.14-46.69,2.74,14.81,12.33,36.41,34.9,56.3,34.55,9.87-.17,17.27-.58,23.9-8,3.91-4.38,10.26-14.59,12.9-14.37C2394,325.57,2393.15,324.11,2390.4,322.38Zm-24.25,18.79c-19,3.75-46.48-8.64-63.36-28.07-2.87-3.3,33.8-3.64,37.06-2.56,6.67,2.21,12.17,7.59,18.92,9.47,9.66,2.69,19-3.25,27.58,3.57C2381.06,329.59,2374.9,339.44,2366.15,341.17Z"/><path class="b" d="M2381.66,341c.66-5.44-6.78,13.57-10.95,16.1-5.22,3.16-8.92-2.36-14.08-3-4.77-.6-12.38,2.09-16.21.62-6.25-2.4-11-9.13-16.82-12.83-5.62-4.53-7.5-3.59-.7,1.4,5,3.42,9.1,12.61,14.27,15.27,5,2.58,9.21-.66,14.95,0,4.71.59,13.58,5.65,18.33,4.05C2374.38,361.31,2381,346.12,2381.66,341Z"/><path class="b" d="M2383,413.18c0,17.56-14.92,28.46-22.35,43.31-7.56,15.11-7.88,23.34-23,30.85-12.75,6.32-36.77,18.56-51.26,16.37-10.92-1.66-22.56-17.47-29.94-24.68a157.4,157.4,0,0,1-26.63-33.93c-8-14.09-4.32-29-5.7-44.75-2-22.49-9.82-61.58-14.53-83.59-3-14.18-3.94-20.61,1.83-13.06,3.89,5.08-1.05,61,35.81,69.16-6.45-9.46-15.68-13.31-20.87-24.21a137.83,137.83,0,0,1-9.6-29.36c-1.89-8.55,1.8-35.46-4-39.8-2.64,5.62-.11,13.57-.42,19.41-6.91-7.48-4.14-12.06-15.11-14.16-5.93-1.14-8.16.21-13.05-4.07-7.91-6.92-9.7-23.61-10-33-.22-7.76.18-29.21,10.25-32.14,9.54-2.78,10.29,11.93,19.37,7.54-.06,4.35-.4,12.23,1.7,16.16.71,1.32.05,3.94,1,5.19.72,1,5.19-.06,5-.35,1.79,2.55,3.56,18.45,7.89,20,6.64,2.31,10.82-60.07,12.7-68.44,3.89-17.37,9.23-11.17,22.24-18.65,8.93-5.13,20.54-20,21.14-29.23.45-6.84-7.94-2.77-2.72-10.94,2.14-3.36,9.29-2.47,11.54-6s-.47-8.43,1.67-12.18c2.91-5.1,8.6-6.55,14-7.57,10.93-2.06,22.29,1,33.22,1.63,13.74.79,25.9-3.31,38.86,2.5,10.31,4.63,26,11.9,33.55,20.45,7.8,8.83,11.16,25.85,13.54,37.29,1.52,7.31-.46,15.17,1.3,22.35,1.48,6,5.56,9.75,6.26,16.09,1.8,16.44-8.44,31.93-5.89,49.29,4.94,33.75,2.82,56-14.41,86.33-7.66,13.47-23.94,27.43-30.46,41.46-6.15,13.25-3.05,27.48-19.13,33.43-12.94,4.79-19.15-3.37-34.51-5.51-8.58-1.2-20.64-4.43-25.5-11.73-2.44-3.65-10.69-24.91-10.1-20.52,1.5,11.18,6,22.62,14.39,29.73,7.78,6.6,20.69,8.17,30.39,10.83-2.61,16.07-19.89,9.91-31.75,29.88-1.07,1.8,9-6.61,15.42-10.59,3.34-2.09,9.63-5.84,12.94-7.69,4.74-2.65,7.13-9.38,10.5-9.74,9-.95,16.07,1.8,24.65-4,8.05-5.42,12.21-15.92,14.86-24.8,3.66,2.5,5,11.5,4.95,15.41C2383,418.91,2383,407.46,2383,413.18ZM2180.16,193.31c.9-4.75.66-12.23.53-17.55-.25-10.69-4.83-17.16,2.9-23.71,1.67-1.42,10.21-2.46,10.68-6,.9-6.62,8.22-20.33,11.18-23.4,3.88-4,2.44-8.58,4.22-13.64,7.43-21.1,37.88-17.18,56.86-23.08,8.45-2.63,9.52-13.41,17.34-16.38,7.55-2.86,17.17-.35,25.47-3.29,12.82-4.54,17.27-2.59,30.57-.09,5,.93,8.45-.11,12.15,3.33,5.07,4.71,1,7.84,8.52,10.59,3.94,1.45,9.81-3.66,14.45-2.4s7.49,6.89,10.56,9.89c6.95,6.78,11.75,12.86,17.61,20s13.52,10.87,17.75,19.3c3.7,7.37,8.85,20.07,9.57,28.09,1,11.07-5.23,21.54-1.26,32.56,1.74,4.84,3.74,5.76,3.5,11.39-.2,4.77-3.26,11.09-4.12,6.45-1-5.54-3.08-5.38-4.83-11.65-1.82-6.48-.1-17.6-1.08-24.18-1.54-10.33-7.25-22.47-11.21-32.37-6.53-16.29-39.2-30.25-55.89-30.63-13.66-.3-26.56,1.37-40.38.68-9.07-.46-28.24-3.16-35.09,4.69-4.06,4.65,3.93,11.5,1.18,16.46-2.05,3.7-10.94,3.21-13.18,6.28-6.74,9.24,4,10.32-.63,20.52-9.11,20.15-34.19,17.22-39.79,37-3.63,12.79-2,27.94-2.83,41.15-.21,3.49-.9,12.15-3.8,15-2.21,2.21-3.51-4.73-5.05-7.26-3.86-6.31-6.12,2.19-8.84-7.9-.37-1.34.66-13.95,0-14.84-2.46-3.32-6,3.16-10.11-1.89-5.66-7-7.57-11.68-15.47-5.37-3.07,2.46-7.32-2.1-5.68-6C2177,202.77,2179.31,197.82,2180.16,193.31ZM2428.75,420c-13.19-7.23-31.19-14-43.3-22.89-7.14-5.25-6.73,1-5.14-8.78.47-2.89,5.74-8.68,7.08-10.46,6.38-8.45,13.54-16,19-25.22,9.58-16.28,17-35.29,19.09-54.12,2.8-24.74-4.27-46,1.91-70.8,2.2-8.81,6.14-16.54,8.2-24.72,2.15-8.51-.23-9.2-3-16.42-3.43-9.09,2.67-20.84,3.23-29.92.62-10.14-5.26-14.95-8.6-23.82-3.76-10-4.9-10.26-12.81-18.13-4.25-4.23-6.64-9.39-9.94-13.94-5.47-7.55-10.81-16.68-19-22.75-9.54-7.07-12.57-.84-21.85-3.94-6.58-2.19-7.25-9.37-12.72-13.25-4.71-3.34-15.5,1.14-21.11.37-10.29-1.42-12.43-3.64-21.88-.55-8,2.62-18.48,1-26.15,3.4-8.46,2.64-8.72,10.69-16.13,14.33-5.53,2.72-18.28-.49-25.07,1.44-8.35,2.37-13.84,9.94-21.85,13.41-9.62,4.16-9.24,6.17-12.33,14.43-3.51,9.41-3.87,9.08-11.78,16.87-5.15,5.06-4.45,7.67-6.73,12.76-1.23,2.74,0,4-1.92,7-1.6,2.51-6.32,2.47-8.12,5-4.24,5.88-1.75,16.17-2.31,23.52s1.07,15.51-.08,22.21c-1.22,7.08-5.79,6.05-4,14.73.59,2.81,2.87,5.59,3.19,8.29.56,4.76-2.51,9.33-3.43,14.58a72.09,72.09,0,0,0-.57,16.74c.52,7.64,1.74,16,4.47,23.24,5,13.29,13.74,10.79,21.92,19.51,10.46,11.15,10.48,40.73,13.35,54.92,4.77,23.62,11.39,52,8.1,75.92-1.09,7.92-4.9,16.23-9.68,22.66-6.22,8.38-27.59,19.06-19.28,16,8-2.91,10.84-5.61,14-8.07,5-3.91,16.77-11.49,18.93-7.57,4.27,7.72,28.22,35.28,29.63,36.72,11.26,11.46,25.49,29.58,42.67,25.52,15.67-3.7,43.18-11.82,55.12-21.82,11-9.23,15.17-28.27,24-40.67,5.53-7.72,12.05-15.06,13.82-24.88,1.51-8.38,1-7.06.55-14.92,20.21,11.43,33.38,14.23,50.87,29.85,18.52,16.55,42.81,31.09,74.28,30,18.43-.65-36.65-7.61-52-18.38C2449.93,439.37,2436.92,424.52,2428.75,420Z"/><path class="b" d="M2411.2,229.29c-.58-.24-2.69-.86-2-1.31,2-1.3.2-4.46,1.89-2C2412.15,227.57,2412.94,230,2411.2,229.29Zm-24.27-6.12c.86-3.58,10.4-1.95,12.23-1.89-.44,2.23-.34,3.18.87,5.06C2395,226.28,2390.88,223.77,2386.93,223.17Zm33.66,2.43c-.45-4.41-13.37-8.76-17-10-7.92-2.67-20.06-5.45-21.52,2.9-.42,2.46,2.46-6.95,17.76-.21,2.68,1.17-17.18-1.39-16.38,5.56.51-.39,9.76,5,18.3,7.25,6.54,1.72,12.77,1.33,13.75,1.84.49-4.44-6.58-12.54-2.9-10.84,2.82,1.29,6.49,1.11,5.72,11.26a8.93,8.93,0,0,0,2.25-7.79C2420.05,220.29,2420.81,227.79,2420.59,225.6Z"/><path class="b" d="M2185.67,267c-.42-5.11,3.86-6.16,6.24-9.8.83-1.28,5.16-8.37,5.94-8.86,2.63.69,1,17.53,0,18.59-2.14-.23-1.58-6.25-1.73-7.35-5.3,2-11.45,6-5,11.83,1.95,1.74,7.62,2,9.45.87,3.43-2.15,1.48-8.58,1-13.41-.88-8.31-.83-18-7.27-24.07-4.83-4.59-11.05-3-11.36-9.34,21.28,6.65,25.07,28.55,21.17,47.06C2202.85,278.44,2186.39,275.84,2185.67,267Z"/><path d="M2296.32,539.13c-8.62,0-63.36-40.74-62.5-41.95,4.63-6.53,41.76,26.78,50.37,28.11,10.73,1.67,27.57.43,36.31-5.27,3.37-2.19,33.87-24.5,35.73-21.67C2361.24,506,2304.14,539.13,2296.32,539.13Z"/><path class="b" d="M121.6,230.09c-3.76-3-13.12,9.56-9.67,12.94,3.09,3,3.88-3.33,4.25-3.92,1.13-1.74,1.06,2.62,3.09,3.06,4.4,1,5.38-6.53,8.87-3.93,1.64,1.22,1.23,4.46,3.24,5,4.66,1.31,7.88-4.72,10.38-3.35,1.26.7,1.31,2.11,2.18,3.06,3.57,3.88,8.68-1,13-.34,6.34,1,15.11,12.13,14.32,8.32s-7.95-9.79-12.52-11.33-10.68,2-12.71-.07c-1.29-1.34-1.69-3.06-3-3.64-2.86-1.25-8.87,4.19-10.31,2.62-2.1-2.3-.91-4.14-3.61-4.61-3.63-.64-6.39,3.74-8,2.65C119,235.08,123.29,231.44,121.6,230.09Z"/><path class="b" d="M147.57,266.37c2.47-1.09,3.4-4.88,2.78-6.47-1.22-3.13,9.06,2.49,10,2.59C166.28,263.13,156,266.32,147.57,266.37Zm9-7.9c-3.73-1.78-6.49-5.37-9.82-5.94-5.07-.87-8.82,2.06-13.08,3.81-1.52.63-5-.07-5.09,2.51,2,.17,3.84,1.11,5.63.45-.32,2.07.56,3.09,1.13,4.58-2-.58-2.25-2.09-4.51-2.42,1.36,10.78,32.24,9.9,36.79,1.37C165,259.9,160.77,260.49,156.55,258.47Z"/><path class="b" d="M110.3,335.7c.17-2.44,4.47-3,7-4.75,9.89-6.95,1.61-15.65-8.19-18.22,1.75-3.07,4.9-.45,7,.4,4.89,2,10.14,3.86,13.52,7.28,4.73,4.77,5.09,14.06,9.81,19.65s10.78,6.94,15.08,13.17c.83,1.21,5.45,6.9,3.34,7.81s-2.83-4.2-5.15-6.33c-1.43-1.32-11.41-8.17-15.18-12.52-6.75-7.78-12.46-24.75-13-18.15-.58,7.42-6.52,11.36-14.18,11.66"/><path class="b" d="M99.25,327.38c.66-1.83,4.19,1.39,3.89-1.29-.22-2-7.76,1.53-11.51,1.68-3.39.13,5.65-5.54,11.3-5.14,2.81.2,7.54,2.07,7.37,4.75C110,331.46,97.41,332.45,99.25,327.38Z"/><path class="b" d="M135.27,373.72c-10-1.33-23.56-5-34.79-2.38-2.68.62-5.89,2.08-9.08,1.47-2.92-.56-4-3.43-6.89-4.63-3.42-1.42-3.5.05-6.9-1.61,3.72-1.31,5.06-4.16,9.81-4,3.63.14,7.33,5,11.91,4.69,17.68-1.16,26.57,4.93,23.55.49-4-6-17.29-2.27-24.23-4-4.5-1.1-8-6-12.05-5.22-4.58.84-11.87,5-13.85,8.7,3.09,2.94,6.62.63,10.94,2.47,2.92,1.24,4.34,6.53,7.67,7,3.5.52,7.39-2.12,10.83-2.6,8.18-1.13,14-1.45,20.67-.7.7.08,3.82.59,4.58.76-4.83,2-11.91,9.17-15.1,9.84-3.37.71-7.72-2.3-13.16-2-5.66.3-9.51,3.13-12.35.76a23.06,23.06,0,0,1-5.06-7.26c-.62-1.24-2.49-1.63-1.52.92,1.18,3.13.84,8.32,4.72,10.85,3.43,2.23,8.17-.15,13-.65,6.3-.64,14.14,2,16.75,0s13.26-10.11,16.7-11.23C132.87,375,137.29,374,135.27,373.72Z"/><path class="b" d="M112.75,409.5c-2.86.89-6.75-1.41-11.46-2.14-5.7-.89-8.8.36-12.69,1.62,3.89-10.12,21.18-6.86,24.15.52"/><path class="b" d="M414.55,417.39c-15.29-8.33-79.84-9.57-75.91-19.5,5.14-12.93,14.6-20.61,23-29.23C371,359.19,390,349,390.8,333.07c.86-16.47-12.59-32.93-20.91-41.11-9.39-9.26-38.65-25.56-36.26-30.12,4.76-9.1,12.18-49.95,11.36-62.85-.48-7.7-7.53-20.21-10.39-27.25-3.08-7.59-.87-15.36-2.89-23-4.28-16.22-8.45-24.12-18.61-34.52-20.8-21.28-50-37.91-84.28-41.52-23.79-2.5-68.76,3.67-85.75,9.37-37,12.39-70.26,31.86-86,79.66a13.21,13.21,0,0,0,5,15.57c-5.59,19.63-9.81,39.36-14,60.37,1.56,1.14,2.32,4.72,2.68,7-12.33.35-21.73,5.44-24.42,13.81,1.2.76,3.34-1.18,4.53-.27-.2,17.35,8.86,23.14,24.19,25.46-.16,13.59-1.76,28-.87,43.07.67,11.32,3.62,24.47,5.67,37.58,1.81,11.57,2.32,19.23,4.37,31.24C48.53,394,20.51,402,10.3,408.18s-3.88,8.16,2.95,3.2c8.58-6.24,26.29-11,41.2-11.46,3.14-.09,10.94,2.27,12,2,3.21,18.1,8.51,34.45,21,42.75,2,1.3,10.38,5.26,14,5.26,4.89,0-2.32,10.4-.17,11.69,25.9,13.82,45.84,45,84.29,47.08,13.69.73,42.55-5.48,46.68-6.73,3.44-1-1.81,9.67-1.81,9.67-5.66,15.5-5.33,18.25,1,6.85,6-10.75,21.18-48.88,11.67-44-6.13,3.12-7.92,2.65-2.59-5,1.72-2.49,7.7-12.42,10.67-37.51,2.91-24.66.79-41.88,13.11-57.79,3.37-4.35,13.93-24.92,13.93-32.74,3.52-3.41,6.85-4.51,9.23-10.32,6.11-14.9,28.2-30.5,29.94-46.9,1.44-13.66-4.52-25.28-12.28-28.91-6.71-3.13-14.95-.2-20.06,2a41.8,41.8,0,0,0-4.92,2.35c-6.26,9.43-17.08,6.68-16.85,8.89,2.56,24.77-4.68,11.43-5.37,15.27-1.8,10-5.54,25.92-5.54,20.11,0-4.47,1.72-17.82-1.37-18.66-3.49-.94-8.47,5.63-9.84,7.75-2.24,3.47-4.93,9.22-5.13,5.64-.48-8.23,8.1-22.91,7.18-28-.52-2.95,2.26-3.83,5.73-4.21s7.61-1.25,9.09-4c-6.25-1-10.77-1.1-16.42-1.54.37-6.87,2.64-14.29,2.35-22.2-.2-5.41-21.24-22.64-19.05-30.5.87-3.16,13.27-13.06,6.4-13.73-23.17-2.24-47.68-6.27-65.6-17.06-9.14-5.5-21.14-16.3-23.8-18.78-3.65-3.4-16.6-10.15-15.5-13.9,1.69-5.77,11.91-15.14,9.82-20-4.83-11.32,7.1-10.86,11.53-12.2,1.81-.55,12-6,9.86-7.06-1.83-.88-10,1.1-14.41,2.88-3.67,1.47-13.56,5.25-12.59,8.86,3.72,13.85-7.88,28.28-14.21,28.53-10.59.41-19.41,2.71-31.56,6.23S66.32,163.4,67,158.17c.33-2.73,14-39.47,45.69-55.48,24.82-12.52,50.13-20.62,73.08-23.34,15.43-1.83,44.26,1,59.63,4.83,38.27,9.53,72.13,30.17,81,69.84,1.53,6.83-.87,20.58,1.83,27.16,3.45,8.41,12,12.56,10.55,24.23-2.44,20.17-5.27,48.6-12.46,57-10.83,12.57,2,8.24,4.33,9.17,7.64,3,38.15,23.16,47.18,35.56,5,6.81,10.44,22.93.56,36-7.65,10.14-24.12,24.54-33.41,33.73-15.73,15.58-18.89,38.2-19.63,53.07-1.4,28.53,37.64,80.53,20.31,44.4-3.19-6.65-9.81-18.6-11.7-26.09-4.69-18.59-3.32-40,1.4-39,19.86,4.4,64.41,4.71,78.05,12.13,7.48,4.08,17.19,23.83,18.4,17.31C432.44,435.32,422.2,421.55,414.55,417.39Zm-359-137.94c-15.61-1-22.14-5.71-22.21-21.75,6.84-.52,20.11-1.67,19.15-5.6-.38-1.56-6.35-.24-8.9.37-3.31.78-6.76.39-10.15,1.16.68-2.49,2.73-3.23,5.24-4.27,4-1.67,8-1.21,13.5-1.12C56.52,257.24,56.08,265.72,55.54,279.45Zm0-41.49c-1.55-3.53,3.88,2.15,6,1.49.65-.2-.57-1.19.56-2.39.61-.65,3.28.74,7.46,2.51a48.57,48.57,0,0,0-7.94,1.08c-1.6.3-4.86.38-4.5,2.38,10.57-1.52,35.66-7.91,29.47,11-7.9-6.89-18.22-9-33.16-9.44a12.24,12.24,0,0,1-.82-4c-.06-1.85,1.19-.45,2.89,0C56.27,240.94,56.21,239.51,55.53,238Zm17.39-1.08c1.23-1.22,2.23,1.56,3.71,1.19s.1-1.72,1.09-1.76c1.67-.06.9.53,2.63,3.08-2.16.23-4.27-.36-8,.06C73.24,238.72,71.44,238.36,72.92,236.88ZM58.31,261.83c.63-1.05,2.42,2.12,3.84,2.35,7.38,1.23,15.87-2.78,21-4.78l1.37-.62c-2.35,12-10.63,19.14-25.36,21A121.26,121.26,0,0,0,58.31,261.83Zm11.91-8.23c4.59.05,10.27-.49,12.24,2.1-4.53,3.54-13.17,4.95-12.47,4.45C70.92,259.49,72.63,255.93,70.22,253.6Zm-12.71-2.46c.37,2.14,5.08,2.09,4.49,2.58a4.42,4.42,0,0,0-1.13,3.67,3.62,3.62,0,0,0,1.23,2.75c.59.47-2-.49-3-.88-1.6-4.26-3.84-6.25-4.91-11,9.18-.17,15.87.42,22.51,2.71C71.07,251.47,62.66,249.12,57.51,251.14Zm176.31,36.15c-2.06,7-2.6,16.5.09,19.49,8,0,6.77-9.25,13.45-10.46.6,8.55-.14,16-.91,25-.31,3.54-.07,7.8,1.79,10,2.24-7.09,5.81-12.19,7.37-19,1.37-6,4.23-24.37,8-21.37,4,3.17,5.73-10.19,3.62-18.51-.55-2.18,10.17-.37,13.79-7.67,7.66-2.15,12.63-9.83,22.19-6.32,8,2.94,12.3,13,11.31,24.51-1.33,15.63-19.15,27.57-28.33,39.17-3.76,4.77-5.1,11.2-8.56,15.52-7.4,9.22-23.87,4.17-22.38-6.81.52-3.89,2.32-4.46,4-7.82-3.2,0-6.73,3.37-7.37,6.33a13.29,13.29,0,0,0-.1,5.24C244.2,347.9,235,368.31,226.48,382c-2.34,3.78-8.65,13.83-8.94,17.09-.14,1.58.27,4.63,1.64-.39,10.68-11.48,19.11-29.27,26.24-43.91,2.25-4.61,9.42-7.65,11.6-12.46,3.2,2.18,4.91,4.72,9.22,4,2.6-.42,1.6,8.05-2.68,16A162.78,162.78,0,0,0,245,425.14c-2.05,22.2-3.47,36.71-15.18,49.17-3.58,3.81-4.35,13.2,6,8.15,4.49-2.19,2.11,9.9-1.06,12.35-2.45,1.9-10.18,4.1-12.29,4.45-9.68,1.6-20.07,3-30.28,2.77-42.25-.8-60.41-26.89-87.28-41.71-3.3-2.36,4.63-10,7.2-10,18.24,0,38.31-4.15,47.45-11.4,2.26-1.8,4.18-6.54,3.15-9.77-2.53,2.4-3.32,4.87-5.74,6.73-12.87,9.92-49.46,15.42-66.94,4.42-13.27-8.36-18.68-31.91-22.51-54-3.91-22.56-9.11-44-10-63.7-.64-13.92,1.21-27.13,1.5-39.23,12.44-.77,21-9.59,22.47-11.13C84,269.57,79.33,286,75.77,295c-3.32,8.35-8.72,18.23-7.93,27.77.65,7.86,11.55,11.84,13.44,12.09,4.59.6-5.19,9.77-2.21,10,3.41.27,6-4.83,7-7.72.74-2,2.93-1,5-.2s8.29,1.26,6.14,0c-11.26-6.58-27.2-3.69-25.35-21,1-9.12,6.87-17.37,9.66-27.92,2.95-11.11,3.31-22,6.68-30.27,3.94-.17,8.79-1.91,13.1-1.58a13,13,0,0,1,5.53,2.38,13.15,13.15,0,0,0-2.56,10.63c2.26,12.87,19.84,22.11,36.6,22.81,16.32.69,31.86-6.78,31.65-23.09,18.19,7.51,45.27-.25,64.27-2.83C238.87,272,235.83,280.44,233.82,287.29ZM106.87,263.62c2.18,2.05,3.6,5.36,7,4.38,2.34-.67-2.41-6.38-2.14-11.58,4.39-3,11.21-4.12,19-4.68,15.59-1.12,45.91,2.16,37.87,23.36-6.06,16-37.23,16-52.18,4.89C111.73,276.49,105.8,270,106.87,263.62Zm-39-96.05c7.71-9.37,51-19.52,57.59-12.85,45.22,45.78,89.26,41.32,98.35,45.72,4.12,2-9.26,7.23-4.35,14.17,4.15,5.87,16.29,19.1,17.4,24.36,1.79,8.54.95,14.87-.89,24.29-19.5,2.16-46.53,8.63-63.84-.1-2.14-9.36-18.9-15.52-35.25-15.41-11.21.08-20.65,1.52-26.64,7.17a25.65,25.65,0,0,1-3.47-1.89c-3.86-2.63-12.76.43-18.15,1,.17-3.94.84-5.71-.41-8.65a31.64,31.64,0,0,0-3.84-6.1c-2.66-3.54-5-10.1-9.39-9.58-1.41.17-.7,2.52-2,3.08-1.51.65-3.71-2.56-4.13-.65-.13.6.2,2.41-.44,2.72-1.58.76-6.1-2-9.5-2.46-1.74-.25-.3,3.23-.86,2.92-1.41-.76-4.13-.2-5.48-1,2.47-17.38,8.31-35.41,11.87-51.49.34-1.52,1.3-3.82.77-5.52C66.55,175.5,66.87,170.12,67.85,167.57Z"/><path class="b" d="M274.06,316.31l-1.55-1.59c-1.73-4.62-.5-16.45,3.94-21a5.72,5.72,0,0,1,6-1.48l.45.13.13.43a10.94,10.94,0,0,1,0,5.15l-.17.56-.59,0-1.39.12a19.42,19.42,0,0,1-5.27.05c-1.55,4.84.48,8.56,1.46,12.16,4.53-2.08,14.17-10.24,15.74-13.7,2.51-5.54,4-12.62.77-16.54-1.88-2.3-2.86-4-6.07-3.45l-1.92-.78c3.83-.68,8.7-.14,11,2.64,4,4.93,2.27,14-.17,19.39-1.88,4.15-17.63,16.64-21.57,17.67Z"/><path d="M178.34,541.67c-24.35,0-40.71-15-58-31.81-2.62-2.55-21.13-18.07-16.47-19.69s22.8,20.51,26.86,24.06c15.23,13.33,30.69,17.65,50.67,17.34,5.72-.09,29.49-4.58,29,.19C210.08,535.56,181.82,541.67,178.34,541.67Z"/><path d="M1188.1,232.71l-1.14.2h0Z"/><path d="M1188.19,232.69Z"/><path d="M1188.1,232.71l.09,0Z"/><path d="M1398.29,393.37h0C1396,392.82,1397.72,393.23,1398.29,393.37Z"/><path d="M1187,232.91h0l-2.34.42Z"/><path d="M1318.56,356.08c-4.41-2.81-13-4.58-12.91-9.9.06-5.93,9-15.2,11.46-21.05,6.51-15.46,10.19-33.54,12.11-50.14,4,2.9-1.88,22.13-3,27.7s-3.65,16.61-5,22.19c-.55,2.34-2.59,4.23-2.49,5.9.21,3.41,5,8.69,8.3,10.78,2.16,1.37,13.35-17.89,12.53-20.78-2.63-9.28-4.13-29.83-3.66-42.89.13-3.66,6.8-3.79,7.55-16.49.62-10.48,1.19-24.53,10.45-29,11.18-5.44,11.11-10.56,19.15-13.73,3.49-1.39,10.4-.7,13.58-1,8.09-.66.46-8.29-5-13.84-3.56-3.57-9.09-10.17-7.07-13.12,2.38-3.49,8.72,1.13,7.76-5.54-.6-4.18-11.58-14.08-14-18.69-13.16-24.57-14.24-53.07-25.07-78.3-8.7-20.27-31.74-42.5-55.17-43.21-6-.19-12.09,2.07-17.72,3.1-6.41,1.18-13.24-2.49-16.07-3.66A93.93,93.93,0,0,0,1205,37.89c-27.62,4-51.71,20.87-67.91,43.19-14.71,20.27-25.15,47-34.71,70.17-7.83,19-15.46,47.34-10.65,67.53,1.52,6.36,6.19,11.71,7.36,17.81.87,4.57,0,9.73.57,14.41,1.64,14.63,10.91,25.37,12.32,39.86.49,5-.14,20.83,5.58,15.42,10-9.49,5.35-38.39,15.87-47.94-.38,6.51,2.16,11.49,2.53,17.17.42,6.37-4.66,26.88-6.63,32.43-.72,2-1.49,2.38-1.32,3.76.65,5.31,6.34,13.72,8,16.39,1.22,1.92,10.68-6.17,10.49-8-.6-6-10-41.82-3.6-45.22,2.73,12,3.1,24.3,5.11,36.41a78.71,78.71,0,0,0,4.25,16.32c.74,1.84,6.85,11.16,6.46,12.4-1.21,3.93-13.17,4.91-17.9,6.28-8.64,2.5-17,6.83-25.6,9.08-5.11,1.33-35.28,11.2-32.59,17.14,1.22,2.7,16.35-6.33,21.13-7.37-2.25,18.44,3.86,20.39,3.74,39-.09,13.72,11-6.71,6.63-33.05-1.73-10.55-.43-11.25,9.74-15.11,10.89-4.14,23-5.24,34.61-6.55a101.28,101.28,0,0,1-4.34,20.8c-.51,1.75-9.14,10.76-4.88,11,7.32.46,16.3-29.54,16.7-34.16,9.25,11.23,16.35,18.2,26.14,28.92,8.66,9.5,16.66,15.82,29.79,17.95,29.46,4.77,54.43-18.27,76.91-40.42,0,3,7.31,32.3,12.91,29.61,1.68-.81-5.7-22.39-5.7-26.19,8.37,3.42,14.88,5.71,22.37,10.59,5.76,3.75,13.34,6.37,19.38,10.4,7.34,3.84,5.82-2.4-1-3.76C1337,369,1327.88,362,1318.56,356.08ZM1333,284.25c-.44,16.67,3.21,34.44,2.11,36.31-1.2,2.05-8.48,4.14-10.8,5.58C1326.93,316.72,1332.34,287.45,1333,284.25Zm3.82,39.24a100.21,100.21,0,0,1-9.23,14.24c-.3-.41-3.73-5-5.1-6.68C1326.21,328.42,1332.81,325.62,1336.83,323.49Zm-212.22-64.57c-1.54,9.57-4.16,36.81-7.07,27.55-2.43-7.76-11.72-22.23-12.51-40.6-.34-7.85.47-13.61-3-20.76-4.7-9.78-7.6-18.23-6.26-28.77,4.52-35.54,20.22-63.9,35.91-95.79,18.59-37.76,58.75-63.6,101.43-55.76,9.55,1.76,21.82,1.51,29.31,8.12,1.89,1.68-.14,7.32,4.9,5.52.61-.22,5.77-4.76,7.24-5.65,15.89-9.73,34.71,4.52,46.48,14.57,35.69,30.46,22.59,91.45,52.61,113.32,9.6,7-24.68,1.8,4.22,27.14,5.68,5-4.75,3.19-10,6.9-4.64,3.28-9.09,13.26-16.11,9-3.7-2.26-2.6-6.25-7.74-7.44-5.94-1.37-5.89,8.48-8.71,5.27-4.69-5.34,1-8.28-.58-17.35-1-5.8-5-9.57-8.36-14.24-9.62-13.56-5.39-32.07-11.6-47-4-9.51-18.6-22.3-23.09-31.69-1.87-3.91-2.59,9.37-3.94,11.45a33.27,33.27,0,0,1-7.19,7.27,126.74,126.74,0,0,1-16.26,10.66c-28.87,16.83-68,10.25-87.47,41.1-16,25.38-5.88,58-10.08,65.57-2.26,4.08-1.35-3.57-2.66-11.06-1.24-7.13-2.07-18.14-2.52-25.36-.44-6.93-1.79-11.76-5.42-3-4.69,11.29-3.37,22.85-10.8,33.21C1138.9,250.14,1127,244.09,1124.61,258.92Zm62.35-26h0c5-.89,9.37-7.11,6.32-11.92,5.09-.38,12.34,8.73,9.48,9.3-6,1.21-10.22,3.16-16.29,3.63-3.13.24-8.52-.09-11.15-1.56-5-2.81-4-3.84-4-10.31,2,0,4,0,6,0C1175.93,227.81,1181,234,1187,232.91Zm-50.14,92.29c-1.82-2.12-4.07-7.61-5.52-11.6a42.92,42.92,0,0,1,11.81,6.44C1141.71,322,1138.69,323.75,1136.82,325.2Zm6.38-8.77c-2.77-1.67-8.75-5-11.84-6,.64-5.21,5.25-22.81,7.11-31.74C1139.16,289.05,1141.28,306.23,1143.2,316.43Zm141.25,43.42c-15.84,12.51-36.71,32.63-58.33,30.74-18.38-1.6-24.82-13.64-36.82-25.87-16.45-16.75-33.79-31-37.6-55.05-1.76-11.13-.2-22.16-2.53-33.22-.43-2.05-1.54-16.47-5.44-15.48-3.51.89-.21,9.1-2.46,10.4-.06-1.21-1.38-6.42-3.49-3.34-.73-3.07-1.69-10-.23-12.75s7.76-5.2,10-7.84c6.88-8.15,11.16-28.06,12.15-17.81.66,6.86,2.62,19.47,2,29.42-.34,5.26-2,27.88,5,12.49,5.27-11.64,5.21-23.82,4.92-36.31,6.74,2.3,43.93,2.53,35.45-9.3.82.95,5,2.32,4.15-.35-1.06-3.39-4.81-5.94-7.83-7.2-9-3.76-22.33-.16-32-.17.12-5.77,3.2-7.81,12-6.2,5.37,1,8.1,3,13.44,2.12,4-.68,4.79-3.28,7.65,1,1.32,2,1.54,3.61,4.4,3.72,5.61.21-2-11.1-6.31-11.44a21.6,21.6,0,0,0-8.19,2.16,7.52,7.52,0,0,1-7.23-.32c-5.53-3.18-8.45-4.77-14.6-1.76,11.18-63.77,89.59-36.18,120.2-79.82,11.64,12.82,18.44,18.67,21,36.53,1.91,13.26,4.54,20.93,11.43,32a29.78,29.78,0,0,1,4.54,16.55c0,4.29-4.46,21.06-.09,24.21,7,5,8.78-15.8,13.9-14.87,6.15,1.11.64,14.95-.77,19.32-2.57,8-.18,21.82-5.29,28.14-1.88-4.77-4.79,1.43-5.15,2.64-4.74-1.68,4.08-29.42-3.42-17.6-5.94,9.38-4.46,29-7.06,40C1314.9,323.58,1293.93,352.39,1284.45,359.85Z"/><path d="M1398.28,393.36h0C1398.48,393.41,1398.54,393.42,1398.28,393.36Z"/><path d="M1184.57,233.34Z"/><path d="M1184.62,233.33h0Z"/><path d="M1314.73,224.87c6.68,0-8.09-12-9.1-12.62a35,35,0,0,0-22.13-4.81c-7.31.72-13,4.13-19.9,3.28-5.11-.63-10.41-5.22-15.58-.07-1.55,1.55-2.94,6.54-1.66,8.22,2.56,3.35,5.69-3.62,7.45-4.3,2.61-1,8,2.37,11.58,2.18,2.17-.11,6.39-2.64,8.3-3.24a38.78,38.78,0,0,1,23.78-.06C1302.86,215.23,1310.77,224.87,1314.73,224.87Z"/><path d="M1220.22,242c2.37-5.38-.49-14.43-2.35-12.83-1.49,1.28,1,6-.59,12.39-.5,2.07-1.77,9.64.5,12.23S1217.83,247.36,1220.22,242Z"/><path d="M1304.49,227.14c-12.87,0-21.1-11.8-35.19-9.25-4.49.82-11.77,3-14.79,6.56-1,1.15-6,6.82,1.31,3.75-8.77,8.89,25.38,13.1,30.9,12,6.32-1.25,10.15-6.63,13.1-7.45C1301.05,232.43,1311.23,227.14,1304.49,227.14Zm-9.47,1.58c5.58,2.94-11.76,8-13.68,7.95-7-.13-14.84-.47-20.95-4-3.37-1.93,3.3-9.81,8.78-10.87-9.56,13.79,24.75,18.56,17.41,1.93C1289,225,1292,227.12,1295,228.72Z"/><path d="M1266.42,319.88c-1.86-1.52-4.81,1.39-7.57,1.28-5.35-.21-11.73-2.77-17.12-2.57-4.34.17-8.55,1.58-12.35,1.59s-8.48-1.6-12.34-1.82c-5.08-.29-9.62,2.89-14.68,2.68-4-.16-5.86-3.94-9.66-1.86-5.13,2.79,2.58,1.9,3.14,2.21,2.5,1.36,4.65,9.1,6.78,11.56a17.53,17.53,0,0,0,7.31,5.44c7.24,3.1,14.6,3.44,22.25,3.53,5.79.06,12.73-.55,17.6-4.17,4.11-3.07,6-10.69,10.35-13.33C1266.56,320.56,1271.57,324.06,1266.42,319.88Zm-36.2,4.32c3.24-.4,8.54-2.36,12-2.69,4.35-.42,7.66,1.51,11.88,2.33-14.9,6.17-31.44,4.77-49.15-.59,1.93-.34,8.44-1.43,10.37-1.74C1219.47,320.84,1223.61,325,1230.22,324.2Zm14.86,12.11c-5.65,2.71-16.28,3.48-25.71,2-8.12-1.3-10.93-4.13-15.27-11.18,7,3.41,13.61,3.26,24.47,3.26s19.23.59,24.14-1.81c-2.4,3-4,6-7.63,7.76C1242.56,337.51,1247.59,335.1,1245.08,336.31Z"/><path d="M1194.69,418.81c-.36-2.55-4-18.23-9.6-15.16-3.73,2,4.06,8.48,5,11.38,1.43,4.28.6,15.08,5.79,17.23s-1-11.83-1.22-13.45C1193.93,413.38,1195.22,422.66,1194.69,418.81Z"/><path d="M1268.58,408.86c-5.75,4.55-6.31,9.38-9,15.6-1.15,2.63-8.67,11.5-3,11.5,4.86,0,7.31-14.1,9-17.23.77-1.47,5.87-6.79,5.79-7.5-.11-1-.27-4.32-2.74-2.37C1262.83,413.41,1269.42,408.2,1268.58,408.86Z"/><path d="M1212.56,290.57c-1.86.86-1.66,3.21-1,4.8-7.27-2.61-6.89-7.54-6-12.94,1.2-7.07,4.93-3,4.37-7.3-.66-5-5.11-.17-6.37,4.62-1.94,7.46-2.76,15.54,6.72,18.39,3,.88,6.06-1.09,8.42-.61,3.92.8,5.58,4.89,10.38,4.92,4.07,0,5.94-3.2,9.36-3.87,2.51-.5,5,.16,8-.4,9.16-1.75,10.7-7.08,8.74-15.45-.66-2.84-5-14.69-6.62-8.38-1,3.8,2.87,2.49,4.15,9.59,1,5.78,1.38,10.4-5.43,11.27,4.33-4.78-5-4.35-6.58-3.77-3.3,1.21-3.46,5.33-8.93,6.65-10.23,2.48-11.82-9.22-19.24-7.52Z"/><path d="M971.09,488.17c-5.21,0-11.35-3.49-14.71-6.61-2.2-2.05-12.31-8.3-12.91-11.15-1.14-5.44,7,.63,8.06,1.37,6.84,4.9,7,5.75,14.3,10.2,3.57,1.31,11.92-14.38,25.74-15.65,8.56-.79,17.11,2,25.64,1,2-.23,11.67.2,4.39,2.61-12,4-27.1-5.23-37.56,2.25C979.5,475.47,974.09,488,971.09,488.17Z"/><path d="M932.26,373.69c-4.17,0,4.43-2.91,4.94-3.56.19-.24,11.61-2,12.7-2C962.77,367.49,934.43,373.69,932.26,373.69Z"/><path d="M936.84,228.7c-6.88,0,9.41-11.5,11-12.1,4.78-1.75,28.43,1.92,33.94,4.27,5.3,2.27-17.43-1.24-20.38-1.44-4.88-.32-9.12,1.12-13.58,3.08C945.26,223.65,939.61,228.7,936.84,228.7Z"/><path d="M840.67,256.18c-6.55,0,11.69-13.35,13.51-14.39,4.5-2.54,25.63-12.66,27.53-1.81.38,2.13-12.24-.37-16.26.94a59.17,59.17,0,0,0-14.4,7.52C848.59,250.09,843.49,256.18,840.67,256.18Z"/><path d="M977.21,235.85c-2-7.1-28-2.87-34.54,1.63-4.64,3.18-14.46,13.8-9.6,10.76,2.31-1.44,3.18.73,2.47,1.66-1,1.86,2.76,3.07,6.19,2.1,10.69-3,25.7-1,30-11.19a3.41,3.41,0,0,0-.12-2.14C976.37,238.69,978.16,239.22,977.21,235.85Zm-28.84,3.85c.32,5.37,3.51,7.43,6.87,7.42-4.74.61-12.47,1.25-15.67,1.84-.65-1.08.3-5.2,2.15-6.46C943.9,241,945.61,239.56,948.37,239.7Zm16,5a19.43,19.43,0,0,1-6.57,2.05c3.81-1.13,6.87-4.64,4.94-8.56,1.9.16,4.14.33,6.32.42C967.37,240.55,965.39,244,964.32,244.69Z"/><path d="M928.05,282.38c-2.37-4.72-3.69-12.55-7-19.19a51.25,51.25,0,0,1-4.72-17.94c-.37-2.45-1.8-1.85,4.58-6.41,4.82-3.45.28,4.46-.06,5.72-1.09,4,.4,10,2.56,15.18C927,268.38,932.57,291.37,928.05,282.38Z"/><path d="M890,255.74c3.06-.25,6.3-2.7,4.33-2.68-4.29.05-15.68-2.95-21.1-2-4.1.7-11.73,3.62-15.48,5.36-3.26,1.5-11.85,9.69-2.63,11.5,1.41.27,1-.09,3.09-2,.89,4.19,3.79,4.76,11.62,3.26,5.15-1,18.54-3.18,25.07-9.38C896.2,258.57,892.39,256.5,890,255.74Zm-20.1,11.58c-10.46,1.33-6.59-.68-8.92-3.38,1-.89,6-5.19,6.81-5.59-3.72,16.78,20.32,3.69,11.7-2.74.92,0,2.74.16,4.81.22-.36.79.78,2.26,4.73,4.6C884.47,263,875.6,266.6,869.88,267.32Z"/><path d="M982.51,315.31a110.06,110.06,0,0,0-11.21,1.52c-5.35-.46-17.3,6.47-34,10.26-1.11.25-2.71,3.51-3.84,3.69-.84.13-3.81-1.34-4.73-1.21-10.81,1.52-24.45,5-32,9.44-4.94,2.89,1.19,2.44,3.18,3.86s5.56,2.14,6.88,4.29c.83,1,1.78,2.09,2.66,3,6.37,6.52,12.71,14,23.1,12.1,19.25-3.56,27.84-3.54,37-19.2,1.48-2.54,7.23-12,8.62-14.64C982.6,321.06,992.05,314.3,982.51,315.31Zm-23.94,34.41c-6.3,5.28-17.42,8.25-25.25,8.73-4.6.28-9.14.63-13.29-2a16.64,16.64,0,0,1-4.79-5.4c4.66,2,8.86,3.44,10.24,3.44a71.8,71.8,0,0,0,39.19-12.41A20.25,20.25,0,0,1,958.57,349.72ZM951,344.83c-7.44,2.23-18.14,6.44-26,5.67-8.79-.86-14.45-8.08-23.23-9.87-2.2-.84,19-2.86,28.1-4.07,8.41-1.11,16.18-4.23,23.9-7.44,8-3.31,18-9.53,27-9.33C971.4,329.77,964.7,340.72,951,344.83Z"/><path d="M995.52,334.34c-3.7,8.6-2.79-16.72-.51-22.24,1.08-2.61.79-9.69-3.58-9.21-2.66.3-1-2.3,2.56-3.32,5.75-1.65,3.92,10.44,2.27,14.19S996.94,327.6,995.52,334.34Z"/><path d="M1138.28,438.48c-3.78-5-11.76-5.67-17.65-3.6-4.55-1.39-12.81-2.94-13.54-3.13-6.32-1.61-13-1.9-19.44-3.55s-30.57-11.65-40.13-11c0-.08.08-.16.12-.24.39-.69,3.26-2.24,4.13-3.61,1.14-1.79,1-5.47,1-7.56,0-8.69-3.71-16.17-2.89-25,1.6-17.18,9.39-35,11.49-52.17,2.16-17.78,4.52-36.93,3.56-54.85-3-56.16-43.87-102.39-75.3-146.54-7.39-10.38-15.87-21.08-27.11-27.48-1.74-1-20-13.28-24.8-10.7,1.64-30.05-38.85-28.77-60-21.24C808.11,92.57,774.1,178.26,752.38,241.28c-12.25,35.57-29.42,77.15-22.66,115.43,1.84,10.4,13.13,20.64,16.54,30.47,3.34,9.65,3.68,19.35,2.6,29.44-.38,3.59-7.17,31.11-5.55,41.67a90.55,90.55,0,0,0-12.07,7.59c-1.09.85-8.25,6.2-5.35,8.71s3.85-2.79,5.61-4c8.16-5.57,17.18-8.93,26-13.29.79,3.76-4.36,20.69-2.18,20.69,5.67,0,8.76-19.64,5.54-23-2.44-2.52-8-1.17-13.74,1.41,1.83-12,11.32-38.32,11.66-42.37,1.93-23.35-17.76-39.21-20-61.34-4.42-42.85,13.33-87.47,27.26-127,11.28-32.05,22.49-64.73,42.22-92.75,19.39-27.52,48.67-55.35,83.59-59.54,12.48-1.49,34.19-1.45,40.93,11.85,3.27,6.45-2.38,13.93.16,19.77,2.79,6.39,1.35-2.89,14.36-2.89,5.15,0,13.62,4,17.79,7,10.56,7.55,19.35,15.52,26.51,26.16,32.3,48,67.12,93.61,66.31,154.29a381.9,381.9,0,0,1-4.17,49.86c-2.17,14.92-8.12,30.39-8.17,45.48,0,7.12,3.25,13.84,3.25,20.87,0,9.74-8.44.86-10.19,4.05-2.41,4.42,2,42,10.69,42,3.9,0-2.06-14.73-2.33-15.86-1.47-6.06-2-10.73-.93-15,3.44,1.38,9.73,2.27,10.7,2.62,6.52,2.39,13.91,3.71,20.6,5.74,10.47,3.19,26.63,8,38.26,8.52-6.12,5.66-8.78,16.33-12.82,23.31-9.67,16.69-24.57,26.71-40.68,36.6-19.32,11.86-39.29,23-60.83,30.28a161.35,161.35,0,0,1-32.37,7.52c-2.74.33-15.61-.5-17.09,1.07-.67.71-4,4,0,4,45.22,0,86.89-22.28,123.71-46.57,15.53-10.25,26.57-22.38,34.92-39,3.16-6.31,6.19-16.83,14.63-17.39C1126.17,437.64,1143.58,445.46,1138.28,438.48Z"/><path d="M889.61,370.85c14.5,14,30.7,35.59,52.93,35.59,18.63,0,33.14-15.37,44.1-28.68,2.59-3.15,13.58-14.09,13.74-3.79,0,3.74,5.15,32.64,7.15,24,.51-2.15.86-19.76.58-27.49-.12-3.23,1.83-22.9,5.44-28.63,4.62-7.34,6.15-12.49,7.14-21.14,1-8.48,1.89-15.23,2.11-23.72.05-2.13-.35-12.15-1.4-16,1.34-2.31,2.47-4.34,3-5.16,3.56-5.36,5.08-9.67,3.84-16.19-1.06-5.58-3-18.67-8.8-20-6.13-1.36-13.62-2-15-19.06-1.48-18.5-21.22-23.14-32.55-36.29-9.86-11.45-13.2-24.51-16.89-38.75-1.17-4.49,0-12.78-4.12-15.58-2.5-1.7-14.68-2.8-13.12,0,2.7,4.85,3.75,9.11-9.8,8-4.8-.38-9.28-1.55-14.1-1.08-9.66.94-17.88,6.07-26.84,9.33-14,5.1-30.18,4.43-43.17,12.49-14.61,9.06-23.34,26.68-24.38,42.89C818.19,222.57,829,239,836.08,258c1.86,5,11.66,65,13.1,68.09C854.29,337,865,351.9,873.09,360c3.58,4.23,3,26.63,3.26,29.63,1,9.77,3.24,20.7,5.54,30.94,3.21,14.37,12.3,24.69,20.28,36.91,8.51,13.05,17.39,25.73,23.28,40.26a132.46,132.46,0,0,1,7.32,25.3c.74,4,1.7,29.74,4.73,29.74,6.75,0-4.32-45.49-6.67-52-5.3-14.66-13.44-27.64-22-40.56-7.75-11.67-15.48-23.42-19.56-37a93.59,93.59,0,0,1-3.71-27.84c0-3.17,2.73-18.71,3-25.61Zm-28.89-39.43c-1.18-2.3-6.54-13.34-8.35-18.37-5.08-14.13-10.84-51.86-12.56-56.47-8.07-21.65-15.59-40.06-11.31-63.76,2.9-16,11-25.2,26.77-30.82,7.7-2.76,18.7-2.7,26.63-4.53,9.15-2.1,17.39-8.71,26.17-11.8,9.77-3.43,13.53-4.4,23.46-2.76,1.75.29,12.23,2.12,17.25,1.11,1.7,4.9,4,10.82,5.43,15.5a76.17,76.17,0,0,0,10.86,22.68c9.13,12.74,25.07,20.09,31.87,34.5,2.45,5.17,4.87,41.31,6.37,41.31,3.08,0,3.7-5.81,3.32-12.74,3.57,1.49,10.66,2.34,12.51,4,3.35,3,5.93,10.79,5.75,15.22-.14,3.53-16.23,26.58-10.52,26.58.49,0,1.35-1,2.38-2.42-1.1,13.86-1.12,38.59-2.55,42.61-2.65,7.41-7.21,14-12.07,20.11-.56.7-5.55,6.31-7.06,9.91a118.73,118.73,0,0,0-9.08,10.9c-9.47,11.92-21.08,25.93-36.7,29.43-19.89,4.47-35.78-12.54-48.48-25.24C886.33,361.91,870.21,350,860.72,331.42Z"/><path d="M903.37,304.1c-3.23,13,5.7,15.1,10.77,14,7.85-1.67,13.07,6.68,20.33-.27,2.5-2.39,3.57-6,6.17-8.28s7.76-3.19,10.27-5.17c4.43-3.51,4.17-13.79-2.95-15.64-6.12-1.58-8.16,3.18-4.53,2,3.34-1,9,3.14,5.81,9.91-1.72,3.67-7.88,2.65-10.9,4.68-3.3,2.21-2.4,6.82-5.17,9.29-6.36,5.67-10.84-.55-17.91-1.6-2.75-.4-7.35,1.8-9.46-1.42C905.9,311.81,905.17,299.93,903.37,304.1Z"/><path d="M1959,349.84c1-.89-21.44-13.54-23.42-14.76-22.33-13.73-25.72-3-31.76-2.33-5.81.67-13.23-4.82-20.32,5.17-1.72,2.43-9,14.42-9.21,14.47,5.16-1.44,10.89-12.13,16.24-15.11,7.6-4.24,10.77.93,16.51-1.59,4.91-2.15,12.79-7.48,29.42,4.91,1.3,1,18.52,9,15.12,9-1.24,0-11.82.73-15.21,1.84-9,2.94-15.21,7.46-25.31,7.73a28.61,28.61,0,0,1-15.22-4.16c-.88-.7,3.22-3.63,9.35-4.52,1.38-.2,3.72.31,4.88.23,2.46-.16,4.46-1.11,6.71-.69,8.64,1.6,10.74.3,10.74-.22,0-.32-10.41-3.89-11.06-4.05-2.35-.6-5.49,2-6.58,2.11-1.94.15-3.78-2.12-7.58-1.15-1.21.31-9.71,5.5-14.77,5-2.32-.23-15.88,2.2-15.88,2.91,0,.27,2.92,1.22,2.91,1.24.51-.56,15.11,16.48,16.33,18.78,5.9,11.19,16,8.64,25.67,8.64,10.11,0,17.69-5.13,24.25-12.15C1942.84,368.91,1958,350.72,1959,349.84Zm-23.3,21.05c-6.25,6.41-12.56,7.26-21.81,7.25-8.3,0-15.65,2.19-19.27-3.82-2.6-4.3-13-15-14.56-16.53s7.76-1.45,8.37-1.2c6.56,2.67,13,7.31,21.84,7.31,11.06,0,17.1-6.93,27.1-9.37,4.3-1,10.41-2,12.57-1.5C1952.45,353.59,1937.7,368.8,1935.67,370.89Z"/><path d="M1886.09,319.44c1.24-.1,8-.83,7.86-2-.09-.85-7.08-.66-8.3-1-3.51-.87-5.76-5.24-7.08-8.3-3.07-7.1,1.25-11.89,5.49-20.17,3.24-6.32,4.69-13.6,6.33-20.57.63-2.69.74-17-1.73-17.42-.42-.07-.55,13.11-.88,15a74.29,74.29,0,0,1-6.42,19.25c-3.67,7.64-9.52,13.89-6.78,22.79C1876,311.86,1881.25,319.84,1886.09,319.44Z"/><path d="M1885.81,312.75c.41,1.73,1.44-.39,2.69-.52,3.13-.33,12.84,3.3,15.86,3.42s4-3.23,5.91-4.67a16.72,16.72,0,0,1,7.23-3.39c1.26-.29-.34.51-.3.76.15,1.13,8.61.16,8.28-1.62-.9-5-13.57-.93-16.72,1.36-1.78,1.31-2.28,4-4.38,4.63C1898.17,314.74,1883.09,301,1885.81,312.75Z"/><path d="M1926.24,305.46c-.38.39,1.23,1.48,2.6,1.45a8.71,8.71,0,0,0,5.59-2.25,10.62,10.62,0,0,0,2.88-6.14,8.62,8.62,0,0,0-2.83-6.64c-.8-.68-1.24-.3-1.25.25s.15,0,1.13,1.34,1.17,2.8,1.35,5c.11,1.5-1.36,3.94-2.34,5a9.57,9.57,0,0,1-4.1,2.33C1928.08,306,1926.74,305.13,1926.24,305.46Z"/><path d="M1928,283.25c4.33,4.06,15.24,9.34,11.64,20.71-2.09,6.62-12.71,6.76-16.88,6.59-1.9-.08,2.26.94,5,1,7.22.13,11.75-1.33,13.57-4.22a14.71,14.71,0,0,0-.8-16.13c-2-2.78-9-6.57-11.84-10.06C1922.52,273.53,1926.64,282,1928,283.25Z"/><path d="M1869.12,197.72c-2.77,2.59-8.26,2.84-13,1.94-11.07-2.06-19.31,1.8-22,4.57-1,1.08-9.26,8.18-7.9,9.18.5.11,8.51-4.67,8.78-4.82,2.41-1.35,5.48-5.45,18.83-2.35,4.85,1.13,10.43-3.48,16.59-2.21,2.37.49,6.07,7.55,8.39,4.67C1882,204.64,1876.28,191,1869.12,197.72Z"/><path d="M1971.05,246l.09-.09-.13.06Z"/><path d="M1992.84,449.32a1.22,1.22,0,0,0-.95-.81h0c-1.59-.3-5.3,3.3-6.1,4.1-1.91,0-3.07.24-3.84.92a4.45,4.45,0,0,0-1.2,3.25,6.36,6.36,0,0,0-3.58,2,3.8,3.8,0,0,0-2.83-.18c-1.11.47-1.77,1.67-2.39,3.34a19.18,19.18,0,0,0-6.58,3.77c-3.76-1.15-6.4-.42-9,2.51l-.71.07a15.5,15.5,0,0,0-5.87,1.35c-3.52-1.75-5.7-1.13-8.61.76-3.6-1.06-4.72-1.13-8.29-.48-2.14-2.09-4.45-2.28-6.7-.58a14.43,14.43,0,0,0-7-1.77,5.24,5.24,0,0,0-5.13-1.3,14.48,14.48,0,0,0-5.33-1.65l-.72-.13c-2.09-2.44-3.54-4.06-7.64-3.89a53.08,53.08,0,0,0-7.9-5.58c-1.47-3.52-2.79-6.55-7.27-7.46a15.48,15.48,0,0,1-1.27-2.05,9.86,9.86,0,0,0-3.11-3.66c-.44-3.79-1.92-5-4.92-6.7a23.83,23.83,0,0,1-1.1-2.6,21.18,21.18,0,0,0-1.76-3.82c.69-2.44-.27-3.2-.59-3.38a1.24,1.24,0,0,0-1.49.22c-.59.57-.85,1.76.15,3.42-.81,3.16.33,5.63,3.38,7.37a14.11,14.11,0,0,0,4.62,6.36l0,.36c.29,3.5.42,5.13,5,6,2,2.74,3.74,5.12,6.88,7.07,1.91,4.42,4.7,6.38,8.74,6.18,2.32,1.77,4,3.05,7.27,3.7,2.16,2.48,3.64,3.34,6.75,2.14a7.59,7.59,0,0,0,4.8,1.11l.72.54c2.09,1.56,4.46,3.34,7.14,1.5a9.11,9.11,0,0,0,6,.42c2,1.41,3.44,2.22,5.1,2.11a8.76,8.76,0,0,0,4-1.59c3.65,1.08,5,1.13,8.32-.68,3.49,1.75,5.11.92,7.48-1.75l.56-.05c2.71-.24,5.78-.5,8-2.16,2.08.64,3.58.68,4.71.14,1.46-.7,2.13-2.29,2.88-4.46a8.88,8.88,0,0,0,4.28-2.48c1.51.58,2.66.63,3.48.14a3.37,3.37,0,0,0,1.37-2.84,9.18,9.18,0,0,0,3.66-3.21l.44-.55.83.07c1.47.13,3,.27,4.22-1C1992,453,1993.28,450.59,1992.84,449.32Z"/><path d="M2101.18,462.2l.06-.16-.23.13Z"/><path d="M1752.82,389.16a9.05,9.05,0,0,0,1-.57C1753.49,388.78,1753.16,389,1752.82,389.16Z"/><path d="M2013,246.29l-.09,0,.1-.18Z"/><path d="M1779.05,326.09a.75.75,0,0,0-.07-.12c0,.09-.07.18-.11.27Z"/><path d="M2020.76,59.53a2.58,2.58,0,0,1,.57.12A1.48,1.48,0,0,0,2020.76,59.53Z"/><path d="M2151.1,225.78a46.33,46.33,0,0,1-6.67-10c-1.29-1.75-6.39-3.27-8.06-5.47s3.08-10.13-1.39-14.92c-1.42-1.52-5.49,1.2-6.93-.59-2.43-3,.48-5,.58-7.78.33-8.73.25-8.86-8.58-10.09-5.49-.77-9.45-.88-8.52-8,.58-4.45,5.57-6.49,2.92-11.15-1.66-2.92-14.87-1.32-15.42-9.6-.23-3.45-5.87-4.64-6.3-5.43-2.1-4,.84-4,.58-7.16-.91-11.05-5.17-3.88-12.2-7-3.36-1.48-4-4.73-4.75-7.83s-4.67-.65-6.67-.36-1-3.84-2.37-5.58-5.14-3-6-4.25c-1.24-1.87,1.06-3.81-.84-5.61-2.13-2-5.16-1.51-7-3.11-3.44-3,1.89-3.38.23-5.63-1.18-1.6-3.63-4.58-5-6.44-2.66-3.49,4.31-6,1.24-11.29-2.63-4.57-18.49-8-19-12.78s-7.78-7.19-11.45-7.28-6.35,0-8.87-2.23c-2.1-1.83-.37-3.33-1.6-6-3.49-7.67-14.22-9-20.85-6.33a9.24,9.24,0,0,1-5.18-3c-4.14-.36-8,2-12,1.57-3.14-.33-6.08-2.8-9.23-2.33a28.57,28.57,0,0,1-4.07,4.23,5.82,5.82,0,0,1-5.5-2.27c-5.72-1.32-9.55-4.31-14.3,2-10.82-11.52-21.53,1.36-29.26,9.34-3.09,3.2-11.62,9.91-12.61,14.45-.89,4.06,1.68,8.28,1.57,12.24s-3.15,10.09-2.07,14.13c1.33,5,2.65,3,6.76,6.8,3.25,3,.36,10.22,2.84,13.23s10.36,1.82,8.15,3.43c-4.43,3.22,2.53,6.43,2.71,9.46.14,2.42-6.73,5.88-6.81,8.16-.16,4.31,7.11,3.86,7.92,6.19s-4.29,9.11,2.88,9.47c-6.22,5.11-2.41,16.72,5,11.94,4.72-3-9.23.28.38-7.47,8.72-7-2.77-4.58-3.64-10.06-.48-3.09,3.72-3.82.5-6.94-5.5-5.33-3.71-7.18-2.13-9.16.71-.9-5.07-8.17-.38-12.6s-7.07-2.38-9.05-7.74c-1-2.8,3.35-4.16,1.74-8.2-1.93-4.83-8.35-2-11.28-6-1.86-2.48-1.16-9.14-.26-11.87.65-2,4-4.16,4-6.35-.14-3.16-2.77-2.54-3.58-5-.06-.18,5.32-8,6-8.75,1.78-1.94,4.77-2.53,6.62-4.54.88-1,2.27-5.33,3-6.32-.33.43,4.68-2.7,4.66-2.68,2-1.68.37-4.35,4-5.57,2.29-.76,12.25,4.42,13.38,2.91,3.43.46,5.07-2.88,9-2.11,2.24.44,3.84,2.75,6,3.3,5.61,1.41,10.38-4,15.68-1,3.79-.66,7.7-3.7,11.7-2.64,3.61,1,3.41,8.77,9.21,3.77,8.19-.17,9.92,1.05,13.29,8.11,4.45,9.29,11.4,5.74,16.69,7.84,3.66,1.45,2.87,4,4.54,7.36s14.3,5.27,17,10.57c2.47,4.84-5.55,9.9-1.69,12.26,3.2,2,7.18,4.47,7.64,9,.15,1.49,4.39,4,5.21,5.09,3.08,3.9.33,8.45,3.76,8s8,2.58,7.12,6.47,6.86,3.41,8.72,5.54.41,4,3.19,5.51c2.42,1.32,7.3-.52,9.44,1,3.63,2.55-1.71,8.71.34,12,0,.07,6.21,3.07,6.39,3.27,2.59,2.84,2.35,7.51,6.74,8.24,5.38.91,9.71,3.9,7.52,9.81-6.52,17.53,10.23,7.88,15.16,18.31,2.18,4.62.43,8.14,3.64,12.22a32.08,32.08,0,0,0,5.23,5.52c2.85,2.4-1.44,5.27.71,9.11,1.27,2.27,5.49,2.83,7.28,4.57a23.51,23.51,0,0,1,5.76,10.21C2145.17,231.72,2153.66,228.47,2151.1,225.78Z"/><path d="M2065,444.23c-4.93,2.5-9.95,5.74-14.55,2.25-2.61-2,2.25-5.93-2.94-7.23s-7,6.85-11.5,6.67c-.94,0-12.54-11.09-7.35.09,4.48,9.63,11.29-1.91,16.29-1,2.23,1.11,1.8,5.83,4.44,7.35,2.27,1.32,9.22-1.21,10.33.3,1.27,1.72-5.62,7.5-5.89,8.79-.5,2.45-.39,44.43.91,45.08.54.27,2.08-3.88,2.6-7.44,1.59-10.86,2.65-34.12.51-36.75C2061.71,459,2078.16,438.37,2065,444.23Z"/><path d="M1878.64,48.37c-4.48-2.64-9.78,2.68-14.49,1.92-3.28-.53-7-4.06-10.75-4.78-12.19-2.36-9.06,3.22-13.74,10.37-4.62-.54-4.11-.2-8.3,1.34a6.77,6.77,0,0,1-4.11,3.19c-2,.37-5.22-2.19-8.91-1.55s-4,7-8.5,10.19c-3.93,2.75-7.68-.18-10.52,3.36-1.52,1.9-.1,3.29-2,6s-5.5,0-9.16,3.5-1.9,9.73-6.17,12.22c-3.47,2-8,1.28-9.6,5.39-1.41,3.59,2.5,7.64.76,10.77-1.51.76-4.21,1.15-5.6,2.11-.8,1.6-2.3,5.64-3,7.27-2.79,2.89-13.14,7.1-14.55,9.4-.14,2.18,2.52,4.68,4.33,6,1.83,1.15,1.74,2.25-.29,3.31q-2.08,1.78-4.14,3.61c-3.12,3.47-3.78,4-3.87,8.3-.09,4,3.61,1.67,2.23,6.19-1.2,3.9-11,5.1-10.68,10.14.23,3.88,6,3.44,4.79,7.06-1.6,4.67-10.18,4.11-6.15,10.21,4.92,7.46-9.75,9.17-9.12,13.55.76,5.33,12.14,1.22,6.77,10.49-2.68,4.63-17.61,5.72-12.93,12.12,2.69,3.68,6.82-2.09,6,5.11-.62,5.16-6.42,4.34-4.21,10.53.93,2.59,7.13-.25,3.82,6.05-1.35,2.58-7.57,1.8-8,4.88s6.5,1.4,7.57,2.31c4.1,3.5,1.52,8.68-1.91,11.49-2.2,1.8,1.88,5.17,4.66,1.93a13.61,13.61,0,0,0,1.31-16.35c-1.09-1.84,3.67-4,2.88-7.57-.65-2.87-3.65-6.14-3.79-8.49s6.17-8.35.6-11.06,7.25-5,9.67-9.43c2.8-5.1-1-8.94-3.86-12.86,1.5-2.29,5.07-2.81,6.51-5.27,2.91-5-1.48-6-.77-9.84.76-4.14,8.09-5.63,7.82-9.85-.24-3.7-3.35-3.43-3.46-5.62-.14-2.86.43-3.35,2.1-4.95a20.18,20.18,0,0,0,5.78-5.06,8,8,0,0,0-1.63-6c1.52-5.68,10.13-7.3,10.72-12.6.32-2.88-5-4-4.4-7.18.4-2.15,6.94-3.8,8.64-5.09,2.92-2.22,3.83-6.21,6.32-8.37-.77.67,5.73-4.6,5.74-4.62,2.85-4.39-.87-3.73-.71-8s3.79-7.15,7.43-9.19c.2-.11,17.83-5,8-5.8,1.39-4.88,5.25-3.41,7.75-4.91s-.6-10.36,10.79-11.94c5.76-.79,5.09-6.06,8.65-7.08s5.27,3.28,8.21,2.75a5,5,0,0,0,4.62-5,2.52,2.52,0,0,1,1.73-2.72,10.14,10.14,0,0,1,3.5.84,6.6,6.6,0,0,0,4.28.71,4.69,4.69,0,0,0,.7-4.53c2.47-4-1.34-4.5,5.19-6.24,2.88-.76,9.28.57,11.66,2.43,1.27,1,2.79,5.7,3.91,6.09,4.21,1.44,2.73-2.9,6.28-4,5-1.61,6.08-1.46,10.78,1.2.47.27,3.11,4.77,3.19,4.77C1892,61.53,1881.44,50,1878.64,48.37Z"/><path d="M2022.77,287c1.53-3.94,6.07-7.79,6.12-12.28,0-.84-1.21.34-1.29.86-.71,4.53-8.08,8.19-9.5,12.52-1.75,5.34.09,12.16.16,17.69.24,17.93.36,37.63-10.57,52.8-5.17,7.18-15,11.75-21.7,17.15-6.23,5-9.73,15.09-15,21-7.85,8.72-14.24,14.92-25.86,17.81-13.75,3.43-30.89,3.71-44.43-.26-12.45-3.66-18.35-16.5-23.6-27.1a75,75,0,0,0-6.76-12.18c-1.2-1.59-13.73-15.71-17.66-21.9-4.73-8.23-3.32-20.13-6.94-28.92-3.23-7.83-7.74-10.6-8.94-18.29a41.38,41.38,0,0,0,11.34.68c3.93-.16,22.88-5.85,20.39-9.09-.17-.19-4.63,2.36-7,2.9-16.6,3.79-23.79-.32-24.91-.58-1.39-9.94-3.85-16.36-3.33-27.16.49-10.08,3.76-18.42-1.5-29.08-1.67-3.37-2.57-7.94-3.44-10.75a59.69,59.69,0,0,1,30.53.86c6.64,2,10.31,5.72,16.14,9.24,5.22,3.16,4.71,3.18,6.45,8.37.32.94,2.15,3.44,4.37,3.83s-4-6.35-1.76-11.46c1.41-3.23,1.77-3,6.48-3.34.76-.05,14.36-.22,13.19-1.78-.74-1-19.48-.41-20.52,1-.66.9-7.1,1.5-8.6.57-7.42-4.63-14.48-9.13-23.24-10.4-7.63-1.12-15.14-.1-23.42,1.57-.25-.85-.63-1.85-.81-2.69a81.36,81.36,0,0,1,14.34-1.94c14.06-.54,24.69,6.92,38.07,9.07,3.12.51,25.82-.66,31.54-3.81s23.55-16.63,32.28-20c7.33-2.84,28.78-3.92,34.89-3.75,11.93.32,30.76,2.92,38.44,2.33,2.51-.19,4.45-.6,5.58,4,.42,1.71,1.65,5.29-1.73,6.78-1.23.54-5.18.46-6.82,4-1.78,3.82-.55,10.37-.57,14.51,0,1.33-.25,7.06-.31,8.19-.46,5.52-5.69,16.3-3.2,8.36s1.9-26.22-6.23-35.43c-9.62-10.89-28.66-8.55-41.51-7.37-10.25,1-20,3.21-29.07,8.2-2.22,1.21-17.69,10.57-18.49,13.91-.18.77,17.2-11.09,24.62-13.92,11.63-4.45,28.84-7.21,41.23-6.75,20.59.75,30.83,17.71,26.42,38.44-5.17,24.27-35.14,36.46-57,31.83-10.08-2.13-18.59-6.38-25.47-13.74-5-5.35-7.71-11.39-9.5-12.52-2.22-1.4,6.21,11.75,12.61,17.71,5,4.66,10.91,9.45,16,11.33s13.58,2.57,22.45,3,41.52-8,48.1-34.27a85.34,85.34,0,0,0,1.66-15.28c0-4.73.06-9.27,1.61-13.79,1.26-3.64,7.89-6,8.14-8.36a19.09,19.09,0,0,0,.18-5.48c-.67-5.17-4.09-6.85-8.42-7.28v0a2.86,2.86,0,0,1-1-.08s0,0,0,0c-3.65-.2-7.81.31-11.49.31-10.92,0-21.81-1.24-32.74-1.21-4.15,0-13.9.32-18.76,1.24s-12.64,3.15-17.78,6.1c-2.29,1.3-25.56,16.36-28.89,17.65s-22.63,3.1-26.21,2.38c-10.5-2.1-20.56-8.21-31.66-8.33-7.45-.08-14.46-.22-21.61,1.22-.65-3.74-1.13-6.2.24-11.42,1-4,13.69-44.55,9.15-44.32-2.35.12-9,27.69-10.17,31.15-3,9-2.87,17-2,25.2-4,.88-7,3.19-10.9,4.8-10.1,4.18-18.13,11.05-27.7,14.19-2.82.92-5.81,1.44-4.93,6,.38,1.92,1.44,10.86,3.48,10.72,6.15-.43,10.4,10.28,14.57,16.33,9,13.08,18.85,23,32.93,26.58.48,3.94,8.85,18.42,10,22.28,4.25,13.86,2.17,17.44,9.41,28.87,3.8,6.42,10.23,14,14.55,20,4.77,5.09-1.5,18.64,2.8,19.4-3.36,6.32,2.47,8,1.15,14.1-3.88,5.45-21.12-3.32-24.2,6-1.29,3.87,10.83-1.55,13.64-.65-4.17,6.78,5.62.58,6.77-.07,4.55-2.58,6.44,1.54,7.47-5.83.54-3.83-6.42-7.16-1.21-10.4s-2-3.3-2-5.82c0-1.39,2.42-5.7,3.49-5.4s2,4,3.85,8c3.17,6.67,6.28,14.08,15.49,18.54,10.53,5.1,23.89,7.45,35.4,7.45,16.93,0,32-6.93,43.75-19,6.61-6.75,10.69-16,18-22,6.54-5.34,20.31-15.5,20.41-11,.08,4.14-3.16,4.68-4.16,8.74-1.09,4.42,1.5,4,1.93,6.93.6,4.09,1.46,2.52,0,7.27-2.32,7.36-5,10.53,5.56,8.76-2.46,4.12-13.45,21-3.73,22.93-6.94,6.15-6.28,12.81,4,11.52-4.9,8.88-2,19.93,0,11.51.37-1.61,3.94-12.12,3.4-13.41-1.67-4-6.62.15-8.69-1.31-4.18-2.95,13.69-9.69,12.32-12.76s-8,2.27-10.11.71c-4.26-3.22.75-8.93,2.88-12.27,1-1.63,7.08-8.22,5.18-10.69-1.35-1.76-5.94.56-7.55-.79-.8-5.09,13.09-5.43,8.76-11.45-1.31-1.82-6.16.51-7.6-3.09-2-4.91,3.86-6.17,5.28-10,4-10.77-7.07-9.91-3.5-14.45,7.82-9.94,7.3-30.2,6.84-38.24s0-14.25,0-20.34C2021,294.74,2021.19,291,2022.77,287Zm-218.62-5c-5.11-7.09-11.09-22.4-16-22.44-3.12,0-3.66-6-3.22-9.21a81,81,0,0,1,6.85-4.39c5.57-3.26,10.94-7.2,16.93-10.11,5.7-2.77,9.83-5.25,15.7-6.58.13.85.39,1.85.59,2.72-7,1.59-13,3.74-18.28,8.13C1791.86,252.47,1805.78,284.2,1804.15,282Zm9.3,6.52c-10.44-14.33-19.58-44.26,6.78-53.54a49.84,49.84,0,0,1,5.29-1.31,32.34,32.34,0,0,0,1.58,3.68c8.45,20.71-1.72,37.57,4.31,61.31C1823.43,296.47,1817.2,293.62,1813.45,288.47Z"/><path d="M1881.73,88a2.92,2.92,0,0,0-3.3.23c-1,1.78,2.56,2.84,2.26,3.86-.21.7-2,3.68-2.28,5-1.42,6.16.39,4.53-4.37,6.72-2.22,1-10.28-2.39-10.41,3.34,0,1.2,7,.41,7.56,2.65s-11.46,1.91-14.44,6.24c-2,2.84,2,2.17,1.76,6.78s-16.64,9.24-14.45,12.15c1.89,2.52,21.25-4.66,6.17,5.43-2.85,1.91-5.06,5.16.27,7,3.84,1.34.39,3,1,5.21.75,2.85,6.26-1.51,6.57,1.92.35,4-3.76,2.32-2.43,6.46,1.15,3.62,5.5-1.76,4.82,4-.22,1.86-3.66,2.2-4,3.65-.94,4,5.81,3.23,6,4.1.42,2.06-7.06,2.37-4,6.21.73.92,2.46-1.09,4.16,0s-1.41,2.28-.84,3.59c1.59,3.7,13-5.2,2.67-7.05,2.29-2.26,3-6.36-1.11-6.94,2.51-2.88,2.27-7.74-1.83-8.91,1.89-1.3,2.43-3.57,1.24-6.34-2.14-5-10.19-7.11-7.15-10.38,4.73-5.09,5.59-8.46,1.51-10.23s13-5.16,9.78-10.67,5.2-5.55,8.16-8.65a7,7,0,0,0,2.67-6.38,10.74,10.74,0,0,0,3.46-2.67C1883.33,99.64,1889.06,89.91,1881.73,88Z"/><path d="M1975.5,153.1c-2.28-3.31-6.25-.28-6.89-2.66-.92-3.49,7-6.21,5-9s-7.81-.35-7.1-4.7c.63-3.88,11.9-4.52,10.18-8.63-1.55-3.72-17,5.07-17.15,10.94-.06,2.29,7.48,3.57,5.26,5.63s-4.8,5.76-3.66,8.68c.69,1.79,5.13,1.25,5.92,2.62s-1.33,3.54-.8,4.87c1.29,3.17,8.56,5.13,9.55,3.34,1.13-2.06-4.92-2.31-4.94-4.48C1970.87,157.1,1977.78,156.41,1975.5,153.1Z"/><path d="M2155.86,337.87c1.1-2.19-11.2-3.87-13.33-6.92-4.4-6.25,13.78-8.94,3.63-14.77-4.21-2.41-6.91,1.53-6.74-4.14.1-3.14,4.07-4.29,3.85-7.53-.26-3.81-5-4.52-5.38-6.61-.72-4.48,4.45-6.74,5.71-10.33,4.88-13.89-13.37-1.17-13.23-12.63.05-4.7,2.24-7.81-1.1-12.56-1.64-2.33-1.68-2-2.67-4.77-1.06-2.93,10.58-7.76,10-11.19-1.14-7-21.8,8.47-18.67,13.48,2,3.27,6.54,2.72,7.84,6.88,1.77,5.73-6.24,10.11-.29,15.66,3.54,3.29,7.78,3.83,12.13,3.75-2.5,4-4.12,5.81-4.12,10.87,0,5.31,4.74,4.82,5.37,7.48.73,3.09-2.84,3.69-3.71,7.06-1.69,6.52,3.13,8.36,8.7,8.36C2122.35,337,2154.77,340.06,2155.86,337.87Z"/><path d="M2128.18,417.37c-.49-4.25,2.81-4,2.78-8.46,0-6.76-5.63-3.38-9.54-6.09-5.1-3.52-.46-5.62,3.92-8.25,21.61-13-3.18-2.07-4.05-10.36-.64-6.12,11-4.3,6.72-11.58-1.08-1.84-11.27-1.56-10.44-4.84.6-2.31,11.08-2.44,13-5,3.6-4.8,3-7-.61-10.49-4.65-4.51-10.22-3.12-9.26-10.59.56-4.38,9.16-8.59,8.62-13.26-1.25-10.77-15,10.47-13.93,16.18,1.49,7.68,16.53,9.2,7,15.66-2.86,1.93-6.88,2.21-8.79,6.19-2.77,5.75,4.41,7.63,8.39,8.56-8.83,4.91-11.88,15.7,1.25,15.92-4.13,2.28-11.44,6.66-9.43,12.59,1.93,5.67,7.67,2.8,11.85,5-5.51,8.9-.09,13,1.18,15.43S2128.4,419.35,2128.18,417.37Z"/><path d="M2112.17,415.2c-5.78-1.88-16.12.12-20.51,3.24-11.49,8.16,6.4,8.19,11.12,12.87-7.46,3.07-29.84,8.75-14.69,17.54,4.35,2.53,8.48,1,4.77,5.08-3.58,3.9-11.91,1.48-11.23,8.46.26,2.7,7.68,15.49,10.41,16.31,6.16,1.88-.31-6.06-.91-7-1.48-2.31-5.55-7.33-4.75-9.83,1.24-3.92,8.23-3.49,10.64-6.56,6.65-8.45-18.95-10.54,0-17.67,3.7-1.4,11.93-2.66,9.06-7.94-2-3.77-16.18-2.84-13.78-7.93s21.27-.72,22.28-4.72A2.64,2.64,0,0,0,2112.17,415.2Z"/><path d="M1758.6,348.48c-3.76,2,10.93,6,14,8.71s4.43,3.44,4.57,6.6c.29,6.55-15.31,5.63-14.19,10.18,1,4.19,12.26.13,15.08,2.82,8.87,8.46-11.06,6.23-11.74,10.55-.9,5.75,14.13,2.81,6.69,11.18-1.91,2.15-7,1-8.16,4.38-1.84,5.6,2.65,2.7,4.07,6,1.86,4.33,3.2,2.39,1.44,6.37-.88,2-5.2,3-5.66,4.34-2.68,7.79,5.53,2,6.29,7.7.37,2.8,9.59-5.64,1-6.48,5.73-4.44,4.67-12.19-1.4-15.86,4.94-3.16,12.23-11.72,5.21-16.73,9.32-3.57,10.45-14-.19-16.24,4.67-3.36,7.58-7.05,3.31-15.28S1763.69,345.73,1758.6,348.48Z"/><path d="M1827.72,410.46s.74-7-.08-8.28c-2-3.06-7.57-3.62-10.82-4.48,2.25-1.52,8.09-4.33,6.36-7.64-2.23-4.3-9.53-.35-5.22,2-2.71,2-20.28-1-17.66,2.78,2.28,3.31,19.07,6.29,22,8.82,10.55,9.14-22.91,3.81-17.92,10.57,3.21,4.35,23.72-4.59,24.26,2.54.24,3.28-11.77,4.9-13.44,6.38-7.33,6.49,2.52,1.75,5,5.75.13.28-.82,7.51-.82,7.68,0,.85,1.71,1.9,1.71,2.79s-1.19,1.52-1.2,2.09c-.08,4.16,1.21,12.8,1.08,17.48-.48,17.23-2.28,19.77-2.21,37,0,6.36,3.86,10.68,4.17-2.71.36-15.51.79-20.54.79-36.06,0-5,.53-9.91.91-14.16.29-3.18.15-3.53-.75-7.16-.37-1.52-1.08-2.78-1.4-4.17-.72-3.2,3.61-3.14-.12-6.65C1829.41,421.69,1837.44,416.94,1827.72,410.46Z"/><path d="M2055.21,288.28c8.23-5.36-.13-8.91-1.87-10,5.55-5,14-21.07,1.53-24,2.89-4.15,6.33-15.09,0-18.25,8.12-7.66,5.49-23.29-5.11-23.24,8.62-10-1.51-16.88-8.28-14.12,4-3.77,9.15-3.94,10-12.87.76-7.64-.14-12.28-5-13,4.62-6.26,4.71-13-3-19.1-5.2-4.11-10.32-1.88-14.73.95-.77-9.24-9.4-6.29-13.06-6.49,2.07-8.41,11.93-24.44,2.13-20.33-8.52,3.58-10.18,13.14-3.33,10.58-1.75,3.81-5.74,10.1-1.25,14.77,2.13,2.2,4.3-1,6.43.38,8.28,5.41-.87,6.78,3.94,11.34,5.36,5.07,8.11-8.67,13.87-7.27,14.69,3.58,2.24,13.6-1.44,15.42-5,2.45-11.42,5.75-3.14,8.57,3.75,1.28,11.92-6.54,15,.57s-11.69,11.69-11.7,17.07c0,7.44,8.86,4.41,12.19,6.19-2.66,3-10,3-7.38,10.71,2.35,6.91,11.32.24,13.31,7.05,3.77,12.94-22,9.73-6.42,17.69,6.53,3.32,10-1.21,2.49,9.17-6.1,8.45-6.79,6.3,1.16,10.4,9.27,4.76,6.26,3.43,0,11.37C2048.19,276.09,2044.88,294.21,2055.21,288.28Z"/><path d="M1971.57,183.86c-11,2.87-25.73-6.56-40.46,6.57-4.1,3.65-12.65-3.11-10.25,9.6,1.51,7.94,16.74-7.92,22.1-10.24,7.37-3.21,15.78,1.35,24.33-1.46,14.2-4.67,24.88,5.67,22.89,1.57S1980.7,181.46,1971.57,183.86Z"/><path d="M1979.67,231.58c-10.05-4.71,3.63-6.06-10.57-6.53-3.33-.11-12.92-1.11-16.35-.52-7.79,1.36-6.13,3.67-9.6,5.12-2.32,1-12.4,6.91-11.65,11,.25,1.36,24.73,4.17,28.43,4.28,13.71.42,16.69-6.58,21.66-9.72C1982.07,234.94,1981.75,232.56,1979.67,231.58Zm-41.91,7.63c-2.06-1.38,9.28-9,11-9.16s-.76,2.21-.25,5.61c.42,2.8,2.59,4.09,2.64,5.4S1939.91,240.66,1937.76,239.21Zm28.34.35c.49-1,1.9-2.43,1.9-4.26,0-2.85-2-6.63,1.46-5.49.8.26,4.64,3.06,4.88,3.7C1975.15,235.6,1968.91,240.52,1966.1,239.56Z"/><path d="M1871.41,244.19a3.46,3.46,0,0,0-2.86-2.46l-8.25-2.12a40.25,40.25,0,0,0-6.68-1.31c-1.66-.14-3.34-.06-5-.17s-3.4-.36-4.76.53a2.9,2.9,0,0,1-.89,1.75l-7.41,8.7a20.14,20.14,0,0,1,4.57,3.63c.73.85,1.31,1.82,2.07,2.65a12.41,12.41,0,0,0,3,2.32,10.1,10.1,0,0,0,6.66,1.65,11,11,0,0,0,3.19-1.26c1.47-.79,2.88-1.67,4.29-2.56l5.15-3.22a19.17,19.17,0,0,1,6.61-3c1.17-.22,1.8-.06,1.74-1.41A10.76,10.76,0,0,0,1871.41,244.19Zm-19.74,9.72a10.46,10.46,0,0,1-4.18-.71c-2.42-.95-4.47-2.8-7-3.32a.62.62,0,0,1-.4-.18c-.21-.26.11-.62.39-.8,1.35-.87,6.77-5.61,8.16-3.74.65.86.46,2.94.91,4a7.94,7.94,0,0,0,2.55,3.53c.22.19.47.42.43.7S1852,253.89,1851.67,253.91Zm19-6.36c-.05.26-1.63.83-1.86.88-1,.22-3.09,2.28-2.7,1a10.27,10.27,0,0,0,.79-2.93,5.43,5.43,0,0,0-1.16-2.93c-1.14-1.24,3.08.51,3.91,1.33A3.46,3.46,0,0,1,1870.66,247.55Z"/><path d="M1733,327.7c.37-5.64-2.54-10.38-9.07-13.05,2.69-2.17,4.14-8.48,4.43-15,.56-2.86.19-8.15.17-10,0-2.62,6.89-3.31,4.61-6.62s-6.26-.28-6.89-2.67c-.93-3.48,7-6.2,5-9s-7.81-.35-7.1-4.7c.63-3.88,7.74-3.86,3.76-5.86-3.1-1.55-10.56,2.3-10.72,8.16-.07,2.3,7.47,3.58,5.25,5.64s-4.79,5.76-3.66,8.67c.5,1.3,2.93,1.38,4.56,1.84-.44,4.36.53,12.88.92,15.06.62,3.39-2,10-5.49,12.92-7.13,5.87,4.15,5.41,8.59,9.1,5.07,4.21-6.44,11.69,3.82,13.85,2.33.49,4.83-4,7.91-2.17,4.41,2.63-.82,3.91-2.52,5.2-1.17.89,7.54,2.71,8-2.59C1745.31,328,1739.15,329.06,1733,327.7Z"/></svg>