<svg xmlns="http://www.w3.org/2000/svg" viewBox="0 0 456.5 456.5">
  <path d="M140 153.2c-3.6-2.9-12.6 9.2-9.2 12.4 3 2.9 3.7-3.2 4.1-3.7 1.1-1.7 1 2.5 2.9 2.9 4.2.9 5.1-6.3 8.5-3.8 1.6 1.2 1.2 4.3 3.1 4.8 4.5 1.3 7.6-4.5 9.9-3.2 1.2.7 1.3 2.1 2.1 2.9 3.4 3.7 8.3-1 12.5-.3 6.1 1 14.5 11.6 13.7 8-.7-3.6-7.6-9.4-12-10.8-4.4-1.5-10.3 2-12.2-.1-1.2-1.3-1.6-2.9-2.9-3.5-2.7-1.2-8.5 4-9.9 2.5-2.1-2.2-.9-4-3.5-4.4-3.5-.6-6.2 3.6-7.6 2.5-2-1.4 2.1-4.9.5-6.2zM164.9 187.9c2.4-1 3.2-4.7 2.7-6.2-1.2-3 8.7 2.4 9.6 2.5 5.6.7-4.3 3.7-12.3 3.7zm8.6-7.5c-3.6-1.7-6.2-5.1-9.4-5.7-4.8-.8-8.4 2-12.5 3.6-1.5.6-4.7-.1-4.9 2.4 2 .2 3.7 1 5.4.4-.3 2 .5 3 1.1 4.4-1.9-.6-2.2-2.1-4.3-2.3 1.3 10.3 30.8 9.5 35.2 1.3-2.5-2.7-6.6-2.2-10.6-4.1zM129.2 254.3c.2-2.3 4.3-2.9 6.7-4.6 9.5-6.6 1.5-15-7.8-17.5 1.7-2.9 4.7-.4 6.7.4 4.7 1.9 9.7 3.7 12.9 7 4.5 4.6 4.9 13.5 9.4 18.8 4.5 5.4 10.3 6.6 14.4 12.6.8 1.2 5.2 6.6 3.2 7.5s-2.7-4-4.9-6.1c-1.4-1.3-10.9-7.8-14.5-12-6.5-7.4-11.9-23.7-12.4-17.4-.7 7.2-6.4 11-13.7 11.3"/>
  <path d="M118.6 246.4c.6-1.8 4 1.3 3.7-1.2-.2-1.9-7.4 1.5-11 1.6-3.2.1 5.4-5.3 10.8-4.9 2.7.2 7.2 2 7.1 4.6-.3 3.8-12.3 4.7-10.6-.1zM153.1 290.7c-9.6-1.3-22.5-4.8-33.3-2.3-2.6.6-5.6 2-8.7 1.4-2.8-.5-3.8-3.3-6.6-4.4-3.3-1.4-3.3.1-6.6-1.5 3.6-1.3 4.8-4 9.4-3.8 3.5.1 7 4.8 11.4 4.5 16.9-1.1 25.4 4.7 22.5.5-3.9-5.7-16.6-2.2-23.2-3.8-4.3-1-7.6-5.7-11.5-5-4.4.8-11.4 4.8-13.3 8.3 3 2.8 6.3.6 10.5 2.4 2.8 1.2 4.1 6.2 7.3 6.7 3.3.5 7.1-2.1 10.4-2.5 7.8-1.1 13.4-1.4 19.8-.7.7.1 3.7.6 4.4.7-4.6 1.9-11.4 8.8-14.5 9.4-3.2.7-7.4-2.2-12.6-1.9-5.4.3-9.1 3-11.8.7-2-2-3.7-4.3-4.8-7-.6-1.2-2.4-1.6-1.5.9 1.1 3 .8 8 4.5 10.4 3.3 2.1 7.8-.1 12.4-.6 6-.6 13.5 2 16 0s12.7-9.7 16-10.7c1.5-.5 5.7-1.4 3.8-1.7zM131.6 325c-2.7.8-6.5-1.4-11-2.1-5.5-.9-8.4.3-12.1 1.6 3.7-9.7 20.2-6.6 23.1.5"/>
  <path d="M420.4 332.5c-14.6-8-76.4-9.2-72.7-18.7 4.9-12.4 14-19.7 22.1-28 8.9-9.1 27.1-18.8 27.9-34.1.8-15.8-12.1-31.5-20-39.4-9-8.9-37-24.5-34.7-28.8 4.6-8.7 11.7-47.8 10.9-60.2-.5-7.4-7.2-19.3-9.9-26.1-2.9-7.3-.8-14.7-2.8-22-4.1-15.5-8.1-23.1-17.8-33-20-20.3-47.9-36.2-80.7-39.7-22.8-2.4-65.9 3.6-82.1 9-35.4 11.9-67.3 30.6-82.3 76.3-2 5.5-.1 11.6 4.8 14.9-5.3 18.8-9.4 37.7-13.4 57.8 1.5 1.1 2.2 4.5 2.6 6.7-11.8.3-20.8 5.2-23.4 13.2 1.2.7 3.2-1.1 4.3-.3-.2 16.6 8.5 22.1 23.2 24.4-.2 13-1.7 26.8-.8 41.2.6 10.8 3.5 23.4 5.4 36 1.7 11.1 2.2 18.4 4.2 29.9-15.1-1.5-41.9 6.2-51.7 12.1s-3.7 7.8 2.8 3.1c8.2-6 25.2-10.5 39.4-11 3-.1 10.5 2.2 11.5 1.9 3.1 17.3 8.2 33 20.1 40.9 1.9 1.2 9.9 5 13.4 5 4.7 0-2.2 10-.2 11.2 24.8 13.2 43.9 43.1 80.7 45.1 13.1.7 40.7-5.2 44.7-6.4 3.3-1-1.7 9.2-1.7 9.2-5.4 14.8-5.1 17.5 1 6.6 5.7-10.3 20.3-46.8 11.2-42.1-5.9 3-7.6 2.5-2.5-4.8 1.7-2.4 7.4-11.9 10.2-36 2.8-23.6.8-40.1 12.6-55.3 3.2-4.2 13.4-23.9 13.4-31.3 3.4-3.3 6.6-4.3 8.8-9.9 5.8-14.3 27-29.2 28.7-44.9 1.4-13.1-4.3-24.2-11.8-27.7-6.4-3-14.3-.2-19.2 1.9-1.6.6-3.2 1.4-4.7 2.2-6 9-16.3 6.5-16.1 8.5 2.5 23.7-4.5 10.9-5.1 14.6-1.7 9.6-5.3 24.8-5.3 19.3 0-4.3 1.6-17.1-1.3-17.9-3.3-.9-8.1 5.4-9.4 7.4-2.1 3.3-4.7 8.8-4.9 5.4-.5-7.9 7.8-21.9 6.9-26.8-.5-2.8 2.2-3.7 5.5-4s7.3-1.2 8.7-3.8c-6-1-10.3-1-15.7-1.5.3-6.6 2.5-13.7 2.2-21.2-.2-5.1-20.3-21.7-18.2-29.2.8-3 12.7-12.5 6.2-13.1-22.2-2.1-45.7-6-62.8-16.3-8.8-5.2-20.3-15.6-22.8-18-3.5-3.2-15.9-9.7-14.8-13.4 1.6-5.5 11.4-14.5 9.4-19.2-4.6-10.8 6.8-10.4 11-11.7 1.7-.5 11.5-5.8 9.4-6.8-1.8-.9-9.5 1-13.8 2.8-3.5 1.4-13 5-12.1 8.5 3.6 13.3-7.6 27.1-13.6 27.3-10.1.4-18.6 2.6-30.2 6s-17.8 11-17.2 6c.3-2.6 13.4-37.8 43.7-53.1 23.8-12 48-19.7 69.9-22.3 14.8-1.7 42.4 1 57.1 4.6 36.6 9.1 69 28.9 77.6 66.8 1.5 6.5-.8 19.7 1.8 26 3.3 8 11.4 12 10.1 23.2-2.3 19.3-5 46.5-11.9 54.5-10.4 12 1.9 7.9 4.1 8.8 7.3 2.9 36.5 22.2 45.2 34 4.8 6.5 10 22 .5 34.5-7.3 9.7-23.1 23.5-32 32.3-15.1 14.9-18.1 36.6-18.8 50.8-1.3 27.3 36 77 19.4 42.5-3.1-6.4-9.4-17.8-11.2-25-4.5-17.8-3.2-38.3 1.3-37.3 19 4.2 61.6 4.5 74.7 11.6 7.2 3.9 16.4 22.8 17.6 16.6.6-3.1-9.2-16.3-16.6-20.3zm-343.6-132c-14.9-1-21.2-5.5-21.3-20.8 6.6-.5 19.3-1.6 18.3-5.4-.4-1.5-6.1-.2-8.5.3-3.2.7-6.5.4-9.7 1.1.7-2.4 2.6-3.1 5-4.1 3.9-1.6 7.6-1.2 12.9-1 4.2 8.6 3.8 16.7 3.3 29.9zm0-39.7c-1.5-3.4 3.7 2.1 5.7 1.4.6-.2-.5-1.1.5-2.3.6-.6 3.1.7 7.2 2.4-2.6.1-5.1.5-7.6 1-1.5.3-4.7.4-4.3 2.3 10.1-1.4 34.1-7.6 28.2 10.6-7.6-6.6-17.5-8.6-31.7-9-.5-1.2-.7-2.5-.8-3.8-.1-1.8 1.1-.4 2.8 0 .7.2.6-1.1 0-2.6zm16.6-1.1c1.2-1.2 2.1 1.5 3.5 1.1s.1-1.6 1-1.7c1.6-.1.9.5 2.5 2.9-2.1.2-4.1-.3-7.6.1.9-.6-.8-1 .6-2.4zm-14 23.9c.6-1 2.3 2.1 3.7 2.2 7.1 1.2 15.2-2.7 20.1-4.6l1.3-.6c-2.2 11.5-10.2 18.3-24.3 20.1.2-5.6-.1-11.4-.8-17.1zm11.4-7.9c4.4.1 9.8-.5 11.7 2.1-4.3 3.4-12.6 4.7-11.9 4.3.9-.7 2.6-4.1.2-6.4zm-12.1-2.3c.3 2.1 4.9 2 4.3 2.5-.9.9-1.3 2.2-1.1 3.5 0 1 .4 2 1.2 2.6.6.5-1.9-.5-2.8-.8-1.5-4.1-3.7-6-4.7-10.6 8.8-.2 15.2.4 21.6 2.6-5.5.5-13.6-1.8-18.5.2zM247.4 208c-2 6.7-2.5 15.8.1 18.7 7.6 0 6.5-8.9 12.9-10 .6 8.2-.1 15.3-.9 23.9-.3 3.4-.1 7.5 1.7 9.6 2.1-6.8 5.6-11.7 7.1-18.2 1.3-5.8 4.1-23.3 7.7-20.5 3.8 3.1 5.5-9.8 3.5-17.7-.5-2.1 9.7-.4 13.2-7.3 7.3-2.1 12.1-9.4 21.2-6.1 7.7 2.8 11.8 12.4 10.8 23.5-1.3 15-18.3 26.4-27.1 37.5-3.6 4.6-4.9 10.7-8.2 14.9-7.1 8.8-22.9 4-21.4-6.5.5-3.7 2.2-4.3 3.9-7.5-3.1 0-6.4 3.2-7 6.1-.4 1.6-.4 3.4-.1 5-7.3 12.7-16.1 32.3-24.2 45.4-2.2 3.6-8.3 13.2-8.6 16.4-.1 1.5.3 4.4 1.6-.4 10.3-11 18.3-28 25.1-42 2.1-4.4 9-7.3 11.1-11.9 3.1 2.1 4.7 4.5 8.8 3.8 2.5-.4 1.5 7.7-2.6 15.3-10 18.6-16 39.1-17.8 60.2-2 21.2-3.3 35.1-14.5 47.1-3.4 3.6-4.1 12.6 5.7 7.8 4.3-2.1 2.1 9.5-1 11.8-2.3 1.8-9.7 3.9-11.7 4.2-9.2 1.5-19.2 2.8-29 2.7-40.4-.8-57.8-25.7-83.5-39.9-3.2-2.3 4.4-9.6 6.9-9.6 17.5 0 36.7-4 45.4-10.9 2.2-1.7 4-6.3 3-9.4-2.4 2.4-3.1 4.7-5.5 6.5-12.3 9.5-47.4 14.8-64.1 4.2-12.7-8-17.9-30.5-21.6-51.7-3.7-21.6-8.7-42.1-9.6-61-.6-13.4 1.2-26 1.4-37.5 11.9-.7 20.1-9.2 21.5-10.7 2.5-2.6-2.1 13.1-5.4 21.7-3.2 8-8.3 17.5-7.6 26.6.6 7.5 11.1 11.3 12.9 11.6 4.4.6-5 9.3-2.1 9.6 3.3.2 5.7-4.6 6.7-7.4.7-2 2.8-.9 4.8-.2s7.9 1.2 5.9 0c-10.7-6.3-26-3.6-24.2-20.1.9-8.7 6.6-16.6 9.2-26.7 2.8-10.6 3.2-21.1 6.4-29 3.8-.2 8.4-1.8 12.5-1.5 1.9.3 3.7 1.1 5.3 2.3-2.3 2.9-3.2 6.6-2.5 10.2 2.2 12.3 19 21.2 35 21.8 15.6.7 30.5-6.5 30.3-22.1 17.4 7.2 43.3-.2 61.5-2.7 2 5.4-.9 13.5-2.9 20.1zm-121.5-22.7c2.1 2 3.4 5.1 6.7 4.2 2.2-.6-2.3-6.1-2.1-11.1 4.2-2.8 10.7-3.9 18.2-4.5 14.9-1 43.9 2.1 36.3 22.4-5.8 15.3-35.6 15.3-50 4.7-4.4-3.4-10.1-9.6-9.1-15.7zM88.6 93.4c7.4-9 48.8-18.7 55.1-12.3 43.3 43.8 85.4 39.6 94.2 43.8 3.9 1.9-8.9 6.9-4.2 13.6 4 5.6 15.6 18.3 16.7 23.3 1.7 8.2.9 14.2-.9 23.3-18.7 2.1-44.5 8.2-61.1-.1-2.1-9-18.1-14.9-33.7-14.8-10.7.1-19.8 1.4-25.5 6.9-1.2-.5-2.3-1.1-3.3-1.8-3.7-2.5-12.2.4-17.4 1 .2-3.8.8-5.5-.4-8.3-1-2.1-2.2-4-3.7-5.8-2.5-3.4-4.8-9.7-9-9.2-1.3.2-.7 2.4-1.9 2.9-1.4.6-3.6-2.4-4-.6-.1.6.2 2.3-.4 2.6-1.5.7-5.8-1.9-9.1-2.4-1.7-.2-.3 3.1-.8 2.8-1.3-.7-4-.2-5.2-1 2.4-16.6 8-33.9 11.4-49.3.3-1.5 1.2-3.7.7-5.3 1.2-1.7 1.5-6.9 2.5-9.3z"/>
  <path d="M286 235.8l-1.5-1.5c-1.7-4.4-.5-15.7 3.8-20.1 1.5-1.6 3.7-2.1 5.7-1.4l.4.1.1.4c.4 1.6.4 3.3 0 4.9l-.2.5h-.6l-1.3.1c-1.7.2-3.4.2-5.1 0-1.5 4.6.5 8.2 1.4 11.6 4.3-2 13.6-9.8 15.1-13.1 2.4-5.3 3.8-12.1.7-15.8-1.8-2.2-2.7-3.9-5.8-3.3l-1.8-.7c3.7-.6 8.3-.1 10.5 2.5 3.9 4.7 2.2 13.4-.2 18.6-1.8 4-16.9 15.9-20.6 16.9l-.6.3zM194.3 451.5c-23.3 0-39-14.4-55.5-30.4-2.5-2.4-20.2-17.3-15.8-18.8s21.8 19.6 25.7 23c14.6 12.8 29.4 16.9 48.5 16.6 5.5-.1 28.2-4.4 27.8.2-.3 3.5-27.3 9.4-30.7 9.4z"/>
</svg>
