<svg xmlns="http://www.w3.org/2000/svg" viewBox="0 0 456.5 626.58"><polygon points="228.25 626.58 114.13 513.53 0 400.48 228.25 400.48 456.5 400.48 342.38 513.53 228.25 626.58" class="fill-white"/><path d="M137.05,147.21c-3.51-2.8-12.22,8.91-9,12.06,2.88,2.81,3.61-3.1,4-3.65,1.05-1.63,1,2.44,2.87,2.85,4.1.88,5-6.09,8.27-3.66,1.53,1.14,1.15,4.16,3,4.68,4.35,1.22,7.35-4.4,9.67-3.12,1.17.65,1.22,2,2,2.85,3.33,3.62,8.09-1,12.13-.32,5.91.95,14.08,11.3,13.35,7.75s-7.41-9.12-11.67-10.55-10,1.9-11.85-.07c-1.2-1.25-1.57-2.85-2.8-3.39-2.67-1.16-8.27,3.9-9.6,2.44-2-2.14-.85-3.86-3.36-4.3-3.39-.6-6,3.48-7.43,2.47C134.62,151.86,138.63,148.47,137.05,147.21Z" fill-rule="evenodd"/><path d="M161.25,181c2.3-1,3.16-4.55,2.59-6-1.13-2.92,8.44,2.32,9.3,2.41C178.69,178,169.08,181,161.25,181Zm8.37-7.36c-3.48-1.66-6-5-9.15-5.53-4.72-.82-8.22,1.92-12.18,3.55-1.42.58-4.62-.06-4.75,2.34,1.9.16,3.58,1,5.25.42-.3,1.93.52,2.88,1.05,4.27-1.86-.54-2.1-2-4.2-2.26,1.26,10,30,9.23,34.28,1.27C177.49,175,173.55,175.54,169.62,173.66Z" fill-rule="evenodd"/><path d="M126.52,245.62c.16-2.27,4.17-2.8,6.48-4.43,9.21-6.47,1.5-14.58-7.63-17,1.63-2.86,4.57-.41,6.48.37,4.56,1.86,9.45,3.6,12.6,6.78,4.4,4.44,4.74,13.1,9.14,18.31s10,6.47,14.05,12.28c.77,1.12,5.08,6.42,3.11,7.28s-2.64-3.92-4.79-5.9c-1.33-1.23-10.63-7.61-14.15-11.67-6.29-7.24-11.61-23.06-12.09-16.91-.53,6.91-6.08,10.59-13.21,10.86" fill-rule="evenodd"/><path d="M116.23,237.87c.62-1.71,3.91,1.29,3.63-1.2-.21-1.85-7.23,1.43-10.73,1.56-3.15.12,5.27-5.16,10.53-4.79,2.62.18,7,1.93,6.87,4.43C126.27,241.67,114.51,242.6,116.23,237.87Z" fill-rule="evenodd"/><path d="M149.79,281c-9.34-1.24-21.95-4.64-32.42-2.21-2.49.57-5.49,1.93-8.45,1.36-2.72-.52-3.7-3.19-6.43-4.32-3.19-1.32-3.26.05-6.42-1.5,3.46-1.22,4.71-3.87,9.13-3.7,3.39.13,6.83,4.65,11.1,4.37,16.47-1.08,24.76,4.59,21.95.45-3.78-5.57-16.12-2.11-22.59-3.7-4.19-1-7.42-5.55-11.22-4.86-4.27.78-11.06,4.66-12.91,8.1,2.88,2.74,6.17.58,10.19,2.3,2.72,1.15,4,6.08,7.15,6.55,3.26.49,6.89-2,10.1-2.42,7.61-1.05,13.09-1.36,19.26-.65.65.07,3.56.55,4.27.7-4.51,1.84-11.1,8.55-14.07,9.17-3.14.66-7.19-2.14-12.26-1.87-5.28.28-8.86,2.91-11.5.7a21.52,21.52,0,0,1-4.72-6.77c-.58-1.16-2.32-1.52-1.42.86,1.1,2.91.79,7.74,4.4,10.1,3.19,2.08,7.61-.14,12.1-.6,5.87-.6,13.18,1.9,15.61,0s12.36-9.41,15.56-10.46C147.56,282.21,151.67,281.28,149.79,281Z" fill-rule="evenodd"/><path d="M128.81,314.39c-2.67.82-6.29-1.32-10.68-2-5.31-.83-8.21.34-11.82,1.51,3.62-9.43,19.74-6.39,22.5.49" fill-rule="evenodd"/><path d="M410,321.74c-14.25-7.76-74.4-8.91-70.73-18.17,4.78-12.06,13.6-19.21,21.47-27.24,8.65-8.83,26.36-18.31,27.13-33.17.8-15.34-11.74-30.68-19.48-38.31-8.75-8.62-36-23.81-33.8-28.06,4.44-8.48,11.35-46.55,10.59-58.56-.45-7.18-7-18.83-9.68-25.39-2.87-7.07-.81-14.31-2.7-21.46-4-15.11-7.87-22.47-17.34-32.16C296.12,19.4,268.93,3.9,237,.53,214.8-1.8,172.89,4,157.06,9.26,122.62,20.81,91.59,39,76.93,83.49A12.32,12.32,0,0,0,81.6,98c-5.2,18.3-9.14,36.68-13,56.26,1.45,1.06,2.16,4.4,2.49,6.54-11.49.33-20.24,5.08-22.75,12.87,1.12.72,3.11-1.1,4.22-.25-.19,16.17,8.26,21.56,22.54,23.73-.15,12.66-1.64,26.07-.81,40.13.62,10.55,3.38,22.8,5.29,35,1.68,10.78,2.16,17.92,4.07,29.11-14.66-1.44-40.77,6-50.29,11.75s-3.62,7.61,2.75,3c8-5.81,24.5-10.26,38.39-10.67,2.93-.09,10.2,2.11,11.19,1.88,3,16.86,7.94,32.1,19.57,39.84,1.82,1.21,9.68,4.9,13,4.9,4.56,0-2.15,9.69-.15,10.89,24.14,12.88,42.71,41.95,78.54,43.87,12.75.68,39.64-5.1,43.5-6.27,3.2-1-1.69,9-1.69,9-5.28,14.44-5,17,.93,6.38,5.56-10,19.74-45.54,10.87-41-5.71,2.91-7.37,2.46-2.41-4.67,1.61-2.32,7.18-11.58,9.94-35,2.72-23,.74-39,12.22-53.85,3.14-4.05,13-23.22,13-30.51,3.28-3.18,6.38-4.2,8.6-9.61,5.69-13.89,26.28-28.42,27.9-43.7,1.35-12.73-4.21-23.56-11.44-26.94-6.25-2.92-13.93-.19-18.69,1.85a38.5,38.5,0,0,0-4.58,2.19C279,183.52,268.89,181,269.1,183c2.39,23.09-4.36,10.65-5,14.23-1.68,9.35-5.16,24.15-5.16,18.74,0-4.17,1.6-16.6-1.28-17.38-3.25-.88-7.89,5.24-9.17,7.22-2.08,3.23-4.59,8.59-4.78,5.25-.44-7.67,7.55-21.35,6.7-26.09-.49-2.75,2.1-3.57,5.33-3.92s7.09-1.17,8.48-3.72c-5.82-1-10-1-15.3-1.44.34-6.4,2.45-13.31,2.18-20.68-.19-5-19.79-21.1-17.75-28.42.82-2.94,12.37-12.17,6-12.79-21.59-2.09-44.44-5.84-61.13-15.9C169.67,93,158.49,82.93,156,80.62c-3.4-3.16-15.47-9.46-14.44-13,1.57-5.37,11.09-14.1,9.15-18.65-4.5-10.55,6.61-10.11,10.74-11.36,1.69-.51,11.16-5.63,9.19-6.58-1.71-.83-9.29,1-13.43,2.68-3.41,1.37-12.63,4.89-11.73,8.25,3.47,12.91-7.35,26.36-13.24,26.59-9.87.38-18.09,2.53-29.41,5.81s-17.29,10.67-16.7,5.8c.31-2.54,13-36.77,42.58-51.69,23.12-11.67,46.71-19.22,68.09-21.75,14.38-1.7,41.24.94,55.57,4.51,35.66,8.87,67.21,28.11,75.51,65.07,1.43,6.36-.81,19.18,1.71,25.31,3.21,7.83,11.14,11.7,9.83,22.58-2.27,18.79-4.91,45.28-11.61,53.07-10.09,11.71,1.84,7.68,4,8.54,7.12,2.8,35.55,21.58,44,33.13,4.63,6.35,9.73,21.37.53,33.57-7.12,9.45-22.48,22.86-31.13,31.42-14.66,14.52-17.61,35.6-18.29,49.45-1.31,26.58,35.07,75,18.92,41.37-3-6.2-9.14-17.34-10.9-24.31-4.37-17.32-3.09-37.31,1.31-36.33,18.5,4.1,60,4.39,72.72,11.31,7,3.8,16,22.2,17.15,16.13C426.7,338.45,417.16,325.62,410,321.74ZM75.5,193.21c-14.54-.94-20.63-5.33-20.69-20.27,6.38-.48,18.74-1.55,17.84-5.22-.36-1.45-5.92-.22-8.3.34-3.09.73-6.29.36-9.46,1.08.64-2.32,2.54-3,4.88-4,3.75-1.56,7.42-1.13,12.58-1C76.41,172.51,76,180.42,75.5,193.21Zm0-38.67c-1.44-3.29,3.62,2,5.58,1.39.6-.19-.53-1.11.52-2.22.57-.61,3.06.69,7,2.34a45.43,45.43,0,0,0-7.4,1c-1.49.28-4.53.35-4.2,2.21,9.85-1.41,33.23-7.37,27.46,10.27-7.36-6.42-17-8.41-30.9-8.79a11.62,11.62,0,0,1-.76-3.69c-.05-1.73,1.11-.42,2.69,0C76.18,157.32,76.12,156,75.49,154.54Zm16.21-1c1.15-1.14,2.08,1.45,3.45,1.1s.09-1.6,1-1.64c1.56-.06.84.49,2.45,2.87-2,.22-4-.34-7.44.06C92,155.25,90.32,154.92,91.69,153.54ZM78.08,176.79c.58-1,2.25,2,3.57,2.19,6.88,1.14,14.8-2.59,19.56-4.45l1.28-.58c-2.19,11.19-9.91,17.84-23.63,19.57A112.65,112.65,0,0,0,78.08,176.79Zm11.1-7.67c4.27.05,9.57-.45,11.41,2-4.22,3.3-12.27,4.61-11.62,4.15C89.83,174.61,91.43,171.29,89.18,169.12Zm-11.84-2.29c.34,2,4.73,1.95,4.18,2.41a4.12,4.12,0,0,0-1.05,3.42,3.37,3.37,0,0,0,1.15,2.57c.55.44-1.86-.46-2.77-.82-1.49-4-3.57-5.83-4.58-10.27,8.55-.16,14.79.39,21,2.52C90,167.14,82.13,164.94,77.34,166.82Zm164.28,33.69c-1.92,6.51-2.42,15.38.09,18.16,7.41,0,6.31-8.63,12.54-9.76.56,8-.13,14.91-.85,23.31-.29,3.3-.07,7.27,1.66,9.32,2.09-6.6,5.41-11.36,6.87-17.71,1.28-5.61,3.95-22.71,7.48-19.91,3.73,3,5.34-9.5,3.37-17.25-.52-2,9.47-.35,12.85-7.15,7.13-2,11.77-9.16,20.68-5.89,7.48,2.75,11.46,12.08,10.54,22.84-1.24,14.56-17.85,25.69-26.4,36.5-3.51,4.44-4.75,10.44-8,14.46-6.89,8.59-22.25,3.88-20.86-6.35.49-3.63,2.16-4.15,3.75-7.29-3,0-6.27,3.14-6.86,5.91a12.28,12.28,0,0,0-.09,4.88C251.3,257,242.67,276,234.79,288.74c-2.19,3.52-8.06,12.88-8.33,15.93-.13,1.47.25,4.31,1.53-.37,10-10.7,17.81-27.28,24.46-40.91,2.09-4.3,8.77-7.13,10.81-11.61,3,2,4.58,4.39,8.59,3.74,2.42-.4,1.49,7.49-2.5,14.92A151.72,151.72,0,0,0,252,329c-1.91,20.68-3.23,34.2-14.15,45.82-3.33,3.55-4,12.3,5.57,7.6,4.18-2,2,9.22-1,11.51C240.2,395.65,233,397.71,231,398c-9,1.5-18.71,2.77-28.22,2.59-39.36-.75-56.29-25.06-81.32-38.87-3.08-2.2,4.31-9.3,6.7-9.3,17,0,35.7-3.86,44.22-10.62,2.11-1.68,3.89-6.1,2.93-9.11C173,335,172.25,337.26,170,339c-12,9.25-46.1,14.37-62.38,4.12-12.37-7.79-17.41-29.73-21-50.29-3.64-21-8.49-41-9.33-59.36-.59-13,1.13-25.28,1.4-36.55,11.59-.71,19.57-8.94,20.93-10.37,2.41-2.53-2,12.79-5.3,21.13-3.09,7.78-8.12,17-7.39,25.87.61,7.33,10.76,11,12.53,11.27,4.27.56-4.84,9.1-2.07,9.32,3.18.24,5.54-4.51,6.52-7.19.69-1.9,2.73-.92,4.65-.19s7.73,1.17,5.72,0C103.82,240.6,89,243.29,90.7,227.15c.91-8.5,6.4-16.19,9-26,2.75-10.35,3.08-20.54,6.22-28.21,3.67-.16,8.19-1.79,12.21-1.48a12,12,0,0,1,5.15,2.22,12.24,12.24,0,0,0-2.39,9.9c2.11,12,18.49,20.6,34.1,21.26,15.22.64,29.69-6.32,29.5-21.52,16.95,7,42.18-.24,59.88-2.64C246.33,186.24,243.5,194.13,241.62,200.51ZM123.33,178.46c2,1.9,3.35,5,6.53,4.08,2.18-.63-2.25-5.94-2-10.79,4.09-2.76,10.45-3.84,17.72-4.36,14.53-1,42.78,2,35.29,21.77-5.65,14.91-34.7,14.91-48.63,4.55C127.86,190.45,122.34,184.36,123.33,178.46ZM87,89c7.18-8.73,47.53-18.19,53.66-12,42.13,42.66,83.18,38.51,91.65,42.61,3.84,1.86-8.63,6.73-4.05,13.2,3.86,5.47,15.18,17.8,16.21,22.7,1.67,8,.89,13.86-.83,22.64-18.17,2-43.36,8-59.49-.1-2-8.72-17.61-14.46-32.84-14.36-10.44.07-19.24,1.41-24.82,6.68a23.83,23.83,0,0,1-3.24-1.76c-3.59-2.45-11.88.4-16.91,1,.16-3.67.78-5.32-.38-8.06a29.45,29.45,0,0,0-3.58-5.69c-2.48-3.3-4.65-9.41-8.75-8.92-1.31.16-.65,2.35-1.83,2.86-1.41.61-3.46-2.38-3.85-.6-.12.56.18,2.24-.41,2.53-1.47.71-5.69-1.85-8.85-2.29-1.62-.23-.28,3-.8,2.72-1.31-.71-3.85-.19-5.1-.94,2.3-16.19,7.74-33,11.06-48,.31-1.42,1.21-3.56.71-5.14C85.75,96.34,86.06,91.33,87,89Z" fill-rule="evenodd"/><path d="M279.12,227.56l-1.45-1.48c-1.61-4.31-.46-15.32,3.68-19.57a5.34,5.34,0,0,1,5.59-1.38l.42.12.12.41a10.12,10.12,0,0,1,0,4.8l-.15.52-.55,0-1.29.11a18,18,0,0,1-4.92,0c-1.44,4.51.45,8,1.37,11.34,4.22-1.94,13.21-9.55,14.67-12.77,2.34-5.16,3.69-11.76.71-15.41-1.75-2.14-2.66-3.75-5.65-3.22l-1.79-.73c3.56-.63,8.11-.13,10.22,2.46,3.76,4.59,2.11,13.06-.16,18.07-1.75,3.86-16.44,15.5-20.1,16.46Z" fill-rule="evenodd"/><path d="M189.93,437.55c-22.7,0-37.93-14-54-29.64-2.45-2.38-19.7-16.83-15.36-18.34s21.25,19.11,25,22.41c14.2,12.43,28.6,16.45,47.22,16.16,5.33-.08,27.47-4.27,27.06.17C219.5,431.86,193.17,437.55,189.93,437.55Z"/></svg>
