<svg xmlns="http://www.w3.org/2000/svg" viewBox="0 0 436.4 480">
  <path d="M119.3 161.5c-3.8-3.1-13.4 9.8-9.9 13.2 3.2 3.1 4-3.4 4.3-4 1.2-1.8 1.1 2.7 3.2 3.1 4.5 1 5.5-6.7 9.1-4 1.7 1.2 1.3 4.6 3.3 5.1 4.8 1.3 8.1-4.8 10.6-3.4 1.3.7 1.3 2.2 2.2 3.1 3.7 4 8.9-1.1 13.3-.3 6.5 1 15.5 12.4 14.6 8.5-.8-3.8-8.1-10-12.8-11.6-4.8-1.6-10.9 2.1-13-.1-1.3-1.4-1.7-3.1-3.1-3.7-2.9-1.3-9.1 4.3-10.5 2.7-2.1-2.3-.9-4.2-3.7-4.7-3.7-.7-6.5 3.8-8.2 2.7-2.1-1.5 2.3-5.2.6-6.6zm26.5 37.1c2.5-1.1 3.5-5 2.8-6.6-1.2-3.2 9.3 2.5 10.2 2.6 6.1.7-4.4 3.9-13 4zm9.2-8.1c-3.8-1.8-6.6-5.5-10-6.1-5.2-.9-9 2.1-13.4 3.9-1.6.6-5.1-.1-5.2 2.6 2.1.2 3.9 1.1 5.8.5-.3 2.1.6 3.2 1.2 4.7-2-.6-2.3-2.1-4.6-2.5 1.4 11 33 10.1 37.6 1.4-2.8-3-7.1-2.4-11.4-4.5zm-47.3 78.9c.2-2.5 4.6-3.1 7.1-4.9 10.1-7.1 1.6-16-8.4-18.6 1.8-3.1 5-.5 7.1.4 5 2 10.4 4 13.8 7.4 4.8 4.9 5.2 14.4 10 20.1 4.9 5.7 11 7.1 15.4 13.5.8 1.2 5.6 7 3.4 8-2.1.9-2.9-4.3-5.3-6.5-1.5-1.3-11.7-8.4-15.5-12.8-6.9-7.9-12.7-25.3-13.3-18.5-.4 7.6-6.5 11.6-14.3 11.9"/>
  <path d="M96.4 261c.7-1.9 4.3 1.4 4-1.3-.2-2-7.9 1.6-11.8 1.7-3.5.1 5.8-5.7 11.6-5.3 2.9.2 7.7 2.1 7.5 4.9-.3 4.1-13.2 5.1-11.3 0zm36.8 47.3c-10.2-1.4-24.1-5.1-35.6-2.4-2.7.6-6 2.1-9.3 1.5-3-.6-4.1-3.5-7-4.7-3.5-1.5-3.6.1-7-1.6 3.8-1.3 5.2-4.2 10-4.1 3.7.1 7.5 5.1 12.2 4.8 18.1-1.2 27.2 5 24.1.5-4.1-6.1-17.7-2.3-24.8-4.1-4.6-1.1-8.1-6.1-12.3-5.3-4.7.9-12.1 5.1-14.2 8.9 3.2 3 6.8.6 11.2 2.5 3 1.3 4.4 6.7 7.8 7.2 3.6.5 7.6-2.2 11.1-2.7 8.4-1.2 14.4-1.5 21.1-.7.7.1 3.9.6 4.7.8-4.9 2-12.2 9.4-15.4 10.1-3.4.7-7.9-2.3-13.5-2.1-5.8.3-9.7 3.2-12.6.8-2.5-2.4-3.6-4.3-5.2-7.4-.6-1.3-2.5-1.7-1.6.9 1.2 3.2.9 8.5 4.8 11.1 3.5 2.3 8.4-.2 13.3-.7 6.4-.7 14.5 2.1 17.1 0 2.6-2.1 13.6-10.3 17.1-11.5 1.6-.5 6.1-1.5 4-1.8zm-23 36.6c-2.9.9-6.9-1.4-11.7-2.2-5.8-.9-9 .4-13 1.7 4-10.4 21.7-7.1 24.7.5"/>
  <path d="M418.7 353c-15.6-8.5-81.6-9.8-77.6-19.9 5.2-13.2 14.9-21.1 23.6-29.9 9.5-9.7 28.9-20.1 29.8-36.4.9-16.8-12.9-33.7-21.4-42-9.6-9.5-39.5-26.1-37.1-30.8 4.9-9.3 12.4-51.1 11.6-64.2-.5-7.9-7.7-20.7-10.6-27.9-3.2-7.8-.9-15.7-3-23.5-4.4-16.6-8.6-24.7-19-35.3C293.7 21.3 263.9 4.3 228.8.7c-24.3-2.6-70.3 3.8-87.7 9.6C103.3 23 69.3 42.9 53.2 91.7c-2.5 7.5 1.1 13 5.1 15.9-5.7 20.1-10 40.2-14.3 61.7 1.6 1.2 2.4 4.8 2.7 7.2-12.6.4-22.2 5.6-25 14.1 1.2.8 3.4-1.2 4.6-.3-.2 17.7 9.1 23.7 24.7 26-.2 13.9-1.8 28.6-.9 44 .7 11.6 3.7 25 5.8 38.4 1.8 11.8 2.4 19.7 4.5 31.9-16.1-1.6-44.7 6.6-55.2 12.9-10.4 6.3-4 8.3 3 3.3 8.8-6.4 26.9-11.3 42.1-11.7 3.2-.1 11.2 2.3 12.3 2.1 3.3 18.5 8.7 35.2 21.5 43.7 2 1.3 10.6 5.4 14.3 5.4 5 0-2.4 10.6-.2 11.9 26.5 14.1 46.9 46 86.2 48.1 14 .8 43.5-5.6 47.7-6.9 3.5-1.1-1.8 9.9-1.8 9.9-5.8 15.8-5.5 18.7 1 7 6.1-11 21.7-50 11.9-45-6.3 3.2-8.1 2.7-2.6-5.1 1.8-2.5 7.9-12.7 10.9-38.3 3-25.2.8-42.8 13.4-59.1 3.4-4.4 14.2-25.5 14.2-33.5 3.6-3.5 7-4.6 9.4-10.5 6.2-15.2 28.8-31.2 30.6-47.9 1.5-14-4.6-25.8-12.6-29.6-6.9-3.2-15.3-.2-20.5 2-1.7.7-3.4 1.5-5 2.4-6.4 9.6-17.5 6.8-17.2 9.1 2.6 25.3-4.8 11.7-5.5 15.6-1.8 10.3-5.7 26.5-5.7 20.6 0-4.6 1.8-18.2-1.4-19.1-3.6-1-8.7 5.7-10.1 7.9-2.3 3.5-5 9.4-5.2 5.8-.5-8.4 8.3-23.4 7.3-28.6-.5-3 2.3-3.9 5.8-4.3 3.4-.4 7.8-1.3 9.3-4.1-6.4-1.1-11-1.1-16.8-1.6.4-7 2.7-14.6 2.4-22.7-.2-5.5-21.7-23.1-19.5-31.2.9-3.2 13.6-13.4 6.6-14-23.7-2.3-48.7-6.4-67.1-17.4C155 102 142.8 91 140 88.4c-3.7-3.5-17-10.4-15.8-14.2 1.7-5.9 12.2-15.5 10-20.5-4.9-11.6 7.3-11.1 11.8-12.5 1.9-.6 12.2-6.2 10.1-7.2-1.9-.9-10.2 1.1-14.7 2.9-3.7 1.5-13.9 5.4-12.9 9.1 3.8 14.2-8.1 28.9-14.5 29.2-10.8.4-19.8 2.8-32.3 6.4-12.3 3.6-19 11.7-18.3 6.4.3-2.8 14.3-40.3 46.7-56.7 25.4-12.8 51.2-21.1 74.7-23.9 15.8-1.9 45.2 1 61 4.9 39.1 9.7 73.7 30.8 82.8 71.4 1.6 7-.9 21 1.9 27.8 3.5 8.6 12.2 12.8 10.8 24.8-2.5 20.6-5.4 49.7-12.7 58.2-11.1 12.8 2 8.4 4.4 9.4 7.8 3.1 39 23.7 48.2 36.3 5.1 7 10.7 23.4.6 36.8-7.8 10.4-24.7 25.1-34.1 34.5-16.1 15.9-19.3 39.1-20.1 54.3-1.4 29.2 38.5 82.3 20.8 45.4-3.3-6.8-10-19-12-26.7-4.8-19-3.4-40.9 1.4-39.9 20.3 4.5 65.8 4.8 79.8 12.4 7.7 4.2 17.6 24.4 18.8 17.7.6-3.4-9.9-17.5-17.7-21.7zm-367-141c-16-1-22.6-5.8-22.7-22.2 7-.5 20.6-1.7 19.6-5.7-.4-1.6-6.5-.2-9.1.4-3.4.8-6.9.4-10.4 1.2.7-2.5 2.8-3.3 5.4-4.4 4.1-1.7 8.1-1.2 13.8-1.1 4.4 9 4 17.7 3.4 31.8zm0-42.5c-1.6-3.6 4 2.2 6.1 1.5.7-.2-.6-1.2.6-2.4.6-.7 3.4.8 7.6 2.6-3 .1-5.1.5-8.1 1.1-1.6.3-5 .4-4.6 2.4 10.8-1.5 36.5-8.1 30.1 11.3-8.1-7-18.6-9.2-33.9-9.6-.5-1.2-.8-2.5-.8-4-.1-1.9 1.2-.5 2.9.1.9.1.8-1.4.1-3zm17.8-1.1c1.3-1.3 2.3 1.6 3.8 1.2 1.4-.4.1-1.8 1.1-1.8 1.7-.1.9.5 2.7 3.1-2.2.2-4.4-.4-8.2.1.9-.7-.9-1.1.6-2.6zm-14.9 25.5c.6-1.1 2.5 2.2 3.9 2.4 7.5 1.3 16.2-2.8 21.5-4.9l1.4-.6c-2.4 12.3-10.9 19.6-25.9 21.5.1-7.2-.2-12-.9-18.4zm12.1-8.4c4.7.1 10.5-.5 12.5 2.1-4.6 3.6-13.5 5.1-12.7 4.5.9-.6 2.7-4.2.2-6.6zm-13-2.5c.4 2.2 5.2 2.1 4.6 2.6-.8.7-1.2 2.1-1.2 3.7.1 1.2.4 2.2 1.3 2.8.6.5-2-.5-3-.9-1.6-4.4-3.9-6.4-5-11.3 9.4-.2 16.2.4 23 2.8-5.8.7-14.4-1.8-19.7.3zM234 220c-2.1 7.1-2.7 16.9.1 19.9 8.1 0 6.9-9.5 13.8-10.7.6 8.7-.1 16.4-.9 25.6-.3 3.6-.1 8 1.8 10.2 2.3-7.2 5.9-12.5 7.5-19.4 1.4-6.2 4.3-24.9 8.2-21.8 4.1 3.2 5.9-10.4 3.7-18.9-.6-2.2 10.4-.4 14.1-7.8 7.8-2.2 12.9-10 22.7-6.5 8.2 3 12.6 13.2 11.6 25.1-1.4 16-19.6 28.2-29 40-3.8 4.9-5.2 11.4-8.8 15.9-7.6 9.4-24.4 4.3-22.9-7 .5-4 2.4-4.6 4.1-8-3.3 0-6.9 3.4-7.5 6.5-.4 1.9-.4 3.7-.1 5.4-7.8 13.6-17.3 34.5-25.9 48.4-2.4 3.9-8.8 14.1-9.1 17.5-.1 1.6.3 4.7 1.7-.4 10.9-11.7 19.5-29.9 26.8-44.9 2.3-4.7 9.6-7.8 11.9-12.7 3.3 2.2 5 4.8 9.4 4.1 2.7-.4 1.6 8.2-2.7 16.4-8.3 15.4-16.4 36.6-19 64.2-2.1 22.7-3.5 37.5-15.5 50.3-3.7 3.9-4.4 13.5 6.1 8.3 4.6-2.2 2.2 10.1-1.1 12.6-2.5 1.9-10.4 4.2-12.6 4.5-9.9 1.6-20.5 3-31 2.8-43.2-.8-61.8-27.5-89.2-42.6-3.4-2.4 4.7-10.2 7.4-10.2 18.6 0 39.2-4.2 48.5-11.6 2.3-1.8 4.3-6.7 3.2-10-2.6 2.5-3.4 5-5.9 6.9-13.2 10.1-50.6 15.8-68.4 4.5-13.6-8.5-19.1-32.6-23-55.2-4-23.1-9.3-44.9-10.2-65.1-.6-14.2 1.2-27.7 1.5-40.1 12.7-.8 21.5-9.8 23-11.4 2.6-2.8-2.2 14-5.8 23.2-3.4 8.5-8.9 18.6-8.1 28.4.7 8 11.8 12.1 13.7 12.4 4.7.6-5.3 10-2.3 10.2 3.5.3 6.1-4.9 7.2-7.9.8-2.1 3-1 5.1-.2 2.3.9 8.5 1.3 6.3 0-11.5-6.7-27.8-3.8-25.9-21.5 1-9.3 7-17.8 9.9-28.5 3-11.4 3.4-22.5 6.8-30.9 4-.2 9-2 13.4-1.6 2.1.2 5.7 2.2 5.7 2.4-2.3 3-3.4 6.6-2.6 10.9 2.3 13.2 20.3 22.6 37.4 23.3 16.7.7 32.6-6.9 32.4-23.6 18.6 7.7 46.3-.3 65.7-2.9 1.9 5.8-1.2 14.5-3.2 21.5zm-129.8-24.2c2.2 2.1 3.7 5.5 7.2 4.5 2.4-.7-2.5-6.5-2.2-11.8 4.5-3 11.5-4.2 19.4-4.8 15.9-1.1 46.9 2.2 38.7 23.9-6.2 16.4-38.1 16.4-53.3 5-4.8-3.7-10.9-10.4-9.8-16.8zM64.3 97.6c7.9-9.6 52.1-20 58.9-13.1 46.2 46.8 91.2 42.2 100.5 46.7 4.2 2-9.5 7.4-4.4 14.5 4.2 6 16.7 19.5 17.8 24.9 1.8 8.7 1 15.2-.9 24.8-19.9 2.2-47.6 8.8-65.3-.1-2.2-9.6-19.3-15.9-36-15.7-11.5.1-21.1 1.5-27.2 7.3-.2 0-2.6-1.3-3.6-1.9-3.9-2.7-13 .4-18.5 1 .2-4 .9-5.8-.4-8.8-.9-2.1-2.5-4.4-3.9-6.2-2.7-3.6-5.1-10.3-9.6-9.8-1.4.2-.7 2.6-2 3.1-1.5.7-3.8-2.6-4.2-.7-.1.6.2 2.5-.5 2.8-1.6.8-6.2-2-9.7-2.5-1.8-.2-.3 3.3-.9 3-1.4-.8-4.2-.2-5.6-1 2.5-17.8 8.5-36.2 12.1-52.6.3-1.6 1.3-3.9.8-5.6 1.3-2 1.6-7.5 2.6-10.1z"/>
  <path d="M275.1 249.6l-1.6-1.6c-1.8-4.7-.5-16.8 4-21.5 1.6-1.7 3.8-2.2 6.1-1.5l.5.1.1.4c.4 1.5.4 3.8 0 5.3l-.2.6h-.6c-.4 0-.9.1-1.4.1-1.8.2-3.8.4-5.4 0-1.6 4.9.5 8.7 1.5 12.4 4.6-2.1 14.5-10.5 16.1-14 2.6-5.7 4.1-12.9.8-16.9-1.9-2.4-2.9-4.1-6.2-3.5l-2-.8c3.9-.7 8.9-.1 11.2 2.7 4.1 5 2.3 14.3-.2 19.8-1.9 4.2-18 17-22.1 18.1l-.6.3z"/>
  <path d="M177.3 480c-24.9 0-41.6-15.3-59.3-32.5-2.7-2.6-21.6-18.5-16.8-20.1 4.9-1.7 23.3 21 27.5 24.6 15.6 13.6 31.4 18 51.8 17.7 5.8-.1 30.1-4.7 29.7.2-.5 3.9-29.4 10.1-32.9 10.1z"/>
</svg>
