<svg xmlns="http://www.w3.org/2000/svg" viewBox="0 0 456.5 621.23"><polygon points="228.25 621.23 114.13 508.19 0 395.14 228.25 395.14 456.5 395.14 342.38 508.19 228.25 621.23" class="white triangle"/><path d="M310.23,159.85c-4.66,0-1.82-5.65-1.24-6.86-3.42-1.41-4.83,1.42-5.06-3.65-10,4.16-13.4-2.56-22.43-4.85-6.72-1.7-12.62-.19-19.6-2.19-5.16-1.48-7.81-1.86-12.87.75-1.94,1-4.77,4.61-6.6,4.76-6.61.53.33-5.12,2.51-6.6,7.66-5.21,11.79-6.65,19.65-4.51,7.55,2.05,13.42-.52,21.07,2.53,3,1.2,5.47,4.3,8.71,4.78,2.91.43,9-2.51,10.68-2,3.71,1.22,2.49,3.55,4.78,5.34,1.65,1.29,3.73.44,4.81,4.05C322.14,144.74,316.84,159.85,310.23,159.85Z"/><path d="M402.07,171.76c-3.28,0-8.62,0-11.75-1.16-2.6-.93-5-4.26-6.07-4.67-4.83-1.88-12.5,4.92-13.15-3.58-4.85,1.06-8.15,4-13.49,4.78-2.28.31-5.43,1.58-6.94,0-1.26-1.3-.52-10.43.49-11.12,4.46-3.07,8.14,1.87,7.85,4.84,5.31-.17,16.74-8.61,17.14.56,4.78-.39,7.71-.71,12.08.56.38.11,2.22,2.9,4.21,3.65s8.61,1.13,9.82,2.33C403.1,168.8,405.52,171.76,402.07,171.76Z"/><path d="M289.92,158.33c-6.17-2.79-13.86-1.62-20.35-.81-2.83.36-17.84.6-19.47,2.63-3.94,4.91,5.53,3.25,8.42,2.84-1.53,4.69,25.58,14.2,28.71,14.2,2.47,0,7.56-3.9,9.11-6.57,1.21,1.63,2.49,3,3.6,3C305.57,173.6,293,159.72,289.92,158.33Zm-12.85,2.18c-3.2,1.34-3.88,5.31-2.51,8.37-4.77-2.48-9.87-5.28-13-6.32C266.73,161.8,271.89,160.73,277.07,160.51Zm8.24,12.8a8.87,8.87,0,0,1-3.14-.79l.2,0c3.28-.82,7.1-9.13,1.56-11.69A14.9,14.9,0,0,1,292.4,165a24.24,24.24,0,0,1,2.34,3.29C292.52,169,288.76,173.16,285.31,173.31Z"/><path d="M386.81,178.53c-4.06-1.75-8.63-2.34-13-2.83-2.8-.32-18.26-2.88-19.45.54-.59,1.69,1.74,2.46,4.83,2.8-2.77,3.05,8.23,9.61,10.52,9.61,1.69,0,18.35-1.52,17.78-5a9,9,0,0,0,3.83,1.66C396.87,185.3,387.95,179,386.81,178.53Zm-16.74,6.3c-2.87-.29-5.75-3.74-7.6-5.59,1.57,0,3.15,0,4.52,0-.28,3.6,1.6,5.3,3.94,5.56A4.93,4.93,0,0,1,370.07,184.82Zm4.79-.77a7,7,0,0,0,3.61-4,29.15,29.15,0,0,1,5,1.24,10.56,10.56,0,0,1,1.71.87C382.54,182,378.32,183.2,374.86,184.05Z"/><path d="M309.15,325.74c-2.55,0-1.23-2.67-2.4-3.86-3.14-3.19-7.42-3.58-11-5.9-1.6-1-3.32-4.34-5.08-4.34-3.21,0-4.85,7.29-7.77,7.22-4.2-.09-1-9-.91-12.8,0,1.44-.65-12.58,3.17-7.73,2,2.57.7,9.19.51,12.26,5.11-5.22,17.37,3.27,22.27,7.23,1-6.25,5.27-5.93,9.41-3.22.18-2.3,2.73-14.55,7.87-11.07,1.1.74-3.31,10.26-4.13,12-4.24,9.17-1.58-1.2-8.3.78C309.74,317.22,313.5,325.74,309.15,325.74Z"/><path d="M354.7,256.65c-1.82-2.44-8.08-2.71-15.08-2.33-6.81-1.36-12.8.39-19.59-1s-11.18-3.32-18.13-4.35c-5.22-.78-19.94-3.26-26.51-5-5.8-.5-14.62-1-13.67,6.56.44,3.46,3.58,6.92,7.27,10a79.64,79.64,0,0,0,4.45,7.3c11,15.6,26.47,20.64,45.37,20.64,12.73,0,16.55-8,22.83-17.22a25.27,25.27,0,0,0,3.27-5.82C349.55,262.93,357.11,259.88,354.7,256.65Zm-87.92-8.54c13.5-2.08,25.88,4.27,38.31,8.46,11.9,4,22.88,2.58,34.65,2.51a60.3,60.3,0,0,0,6.41.58c-17.44,10.9-29.26,22.4-51.27,13.06C291.39,271.24,261.36,249.08,266.79,248.11Zm45.77,36.08c-9-.82-18.8-2-26.24-7.56-2.72-2-4.87-5.27-6.9-8.66l.41.29c9.78,7,20.82,12.12,33.06,12.12,10,0,17.74-5,25.37-10.45-.58.75-1.16,1.55-1.7,2.38C330,282.4,324.42,285.29,312.55,284.2Z"/><path d="M434.8,391.76c-8.45-6.11-17.16-11.88-25.8-17.73-7.89-5.34-15.85-10.61-23.5-16.29-1.39-1-7.46-5.82-10.55-8.58-4.44-3.51-8.73.6-10.22,2.86-2.32,3.5-2.6,9-3.16,13-.43,3.07-7.24,25.51-4.5,25.51,6.06,0,8.26-24.58,10.76-28.2,8.41-12.16,13,1.9,19.69,6.27,3.58.9-.65,13.16-2.43,15.88-4.17,6.39-10.76,10.63-17.49,13.92-5.08,2.49-10.43,4.14-15.71,6,0-.54-.05-1.08,0-1.64.09-4,2.68-7.16-.85-10.51-5.86-5.56-17.51,1.53-15.57,9.24.57,2.26,5.91,8.07,8.68,4.79s-3.68-2.88-4.13-3.94c-1.44-3.45-.08-7.18,4.13-7.88,5.41-.9,4.08,1.28,4.72,4.65a22.3,22.3,0,0,1-.09,6.46c-.84.32-1.67.65-2.49,1-9.48,4-15.7,8.82-25.07,12.45-10.22,4-20.43-2.1-29.46-6.11-11.12-4.94-22.55-6-34.06-9.95a6.33,6.33,0,0,1,.43-3.08c2-2.49,5.65.42,5.8-4.71.09-2.93-2.72-5.43-5.24-6.59-4.35-2-16.32-.14-15,7,.91,5,13.16-12,16.87,0-3,1.86-5.47-.64-7.71,2.83a5.37,5.37,0,0,0-.2,2.83c-22.15-7.53-44.79-15.2-64.66-27.73-22.06-13.91-24.85-28.79-40.66-36.69,4.47-11,2-25.24,11.16-25.57,4.22.86,13.21,4.34,14.88,4.65,7.49,1.37,11.08,3.39,15.81,9.3,5.06,6.32,7.75,9.6,11.28,16.81,2.6,5.3,11.28,25.73,18.42,25.73,4.12,0-9.81-17.4-11.34-20.16-4.31-7.78-7.35-16.25-12-23.83-3.91-6.33-8.65-11.93-15.49-15.2a34.62,34.62,0,0,1-9.76-6.51c-2.8-2.8,11.42-7.46,21.29-8.51,5.39-.58,3.59,5,6.81,13.21,3.45,8.8,10.9,16.07,17.8,22.23,5.91,5.28,13.14,8.87,19,14.08,7.28,6.47,8.72,15.57,14,23.39,6,8.92,14.45,11.93,24.25,15.05,10.18,3.24,21.19,11.43,32,11.43,16.17,0,15.29-16.29,27.63-21.54,6.07-2.58,11.81-2.15,16.8-7.15,4.24-4.25,7-10.44,9.31-15.89,1.84-4.33,2.36-9,4-13.32,2.65-7.19,9.06-6.68,12-12.85s-.59-7.72,5.55-12.09c3.52-2.5,7.48-2.53,10.12-6.53,4.1-6.21,2.27-13.44,7.32-19.07,5.5-6.14,7-7.29,5-16.44-.58-2.7-1.62-12.63-2.82-16.05,5.77-4.61,3.45-28.34,2.91-32-.18-1.25-.37-2.48-.54-3.7,8.14-4,15-10.82,16.33-18.8,3.87.43,10.76.88,12.45.88,2.89,0,1.5-2.15,1.26-3.28-.43-2-3.45-3.21-6.83-4.08.78-5.24-.83-15.83-.74-16.44.68-4.79,8.56-9.2,11.21-13.1A45.55,45.55,0,0,0,443,143.7c2.61-15.27-1.72-30.75-6.74-45.07-8.58-24.52-24-68.53-51.53-78a55,55,0,0,0-13.57-2.31c-2-.14-6.9.72-8.65,0-3.78-1.53-.68-.19-3.68-3.51C352.22,7.52,346,3.93,336.1,2c-34.05-6.81-64.91,5-93,23.55-27,17.84-50.2,45.09-66.55,72.6-8,13.46-10.83,27.12-7.84,43,1.33,7.1,11.68,29.85,7.66,36.21-5.54,8.76-24.13-7.19-27.87,10.15-1.37,6.36,3.21,13.13-.16,19.33-2.94,5.41-8.15,5.8-13.8,5.45-15.58-.94-32.22-13.21-47.44-4.54-9.29,5.29-13.43,15.7-15.66,25.64-4.12,18.34,3.25,45.83-14.08,58C46.45,299.08,34.6,302.92,28.71,316c-1.72,3.83-5.85,24.57-2.18,29.19-.61.33-1.13.61-1.48.84-2.39,1.5-21.64,20.48-14.7,20.48,1.42,0,9.2-11.46,10.91-12.94a54.61,54.61,0,0,1,15.47-9.11c3.56-1.44,28.85-6.35,28.16-7.84-2.87-6.22-24.43,2-34.86,6.86.52-4-.85-11.37-.73-13.26A34.58,34.58,0,0,1,34,314.1c7.69-12.52,23.09-14.37,31.92-25.21,15-18.41,4.46-47.9,17.74-68.44,8.72-13.48,16.7-6.73,30.41-3,14.58,3.92,41.14,8.33,41.55-13.78.12-6.42-6.23-17.85,1.21-21.47,6.35-3.09,17.25,8.58,22.56,1.76,6.21-8-4.47-32.33-6.39-40.87-6.61-29.37,21.27-62.2,38.23-83.93,18-23.1,47.88-39,76-47.4C309,5.24,343-1.35,356.46,19.6c3.82,5.93-.44,3,5.18,2.64a68.75,68.75,0,0,1,12.63.2C387.08,24,393.89,34,401.52,44.17c18.36,24.37,37.47,57.31,38.36,88.23.22,7.8-1,15.93-4.47,23-2.89,5.84-7.46,8-11,12.87-2.09,2.87-5,15.14-3.36,21.67-1-.19-1.85-.36-2.63-.53a23.56,23.56,0,0,0-9.8-12.52c1-3.81,3.81-7.56,3.2-12.28-.65-5-2.25-7.55-1.19-12.66s6.37-11.77,7.12-17c1.28-8.92-7.73-15.66-13-22.23-5.77-7.23-5.11-14.84-7.6-23.68-3.94-13.94-23.93-8.91-35.62-14.64-7.16-3.52-15.07-6.87-18.23-14.37-.62-1.47-2.47-17.23-5.86-10.23a7.57,7.57,0,0,0-.6,4c-5.29-.85-15.37-1-17-1.27-16.86-3-24,1.63-38.16,10.16-11.23,6.78-27.81,6.09-39.23,10.93-13.22,5.6-11.4,21-13.85,33.24-2.14,10.7-6.39,19.57-8.62,30.11-2.57,12.13,2.28,24.34-6.67,34.52-7.27,8.25-9.88,12.69-1.82,22.92,4.61,5.85,10.68,11.84,15,18,3.48,5,2.43,9.59,3.74,15.38,1.64,7.25,6,29.51,17,29.51,7.92,0,14.67-23.7,21.85-27.69,2-1.13,20.52-4.15,22.5-4.62a28,28,0,0,0,9.3,8.83c4.54,2.38,18.86,9.31,12.2-.85,5.77,3.39,8.56,11.82,16.14,11.82,3.6,0,7.81-2.41,10.38-2.84s5.06.91,8-1a15,15,0,0,0,4-4c1.62,1.25,5.7.5,7.19,1.19,3.92,1.82,4.92,3,6,7.27,1.51,6.19-3.82,24.83,8,24.83,5.57,0,21.79-26.82,22.4-21.3,1.25,11.22,4.28,19.14,4.62,21.57.9,6.35-.25,6.53-3.4,10.55-3.51,4.47-5,5.47-6.51,11.88-1.94,8.1-2.25,8.82-8.73,13-5.14,3.29-6.17,3.25-8.81,9.45-2.3,5.41-.28,4.38-4.74,8.56-7.84,7.34-8.25,14.53-12.63,24.3-4.61,10.29-9.56,11.79-20.32,15.14-7.48,2.32-9.52,4.42-14.26,11.09-2.69,3.79-4.55,6.76-9,9-10.49,5.25-20.27-3.85-29.71-7.3-12.44-4.54-24.25-2.33-31.2-14.87-5.72-10.34-8.2-21.78-18.26-28.77-9.44-6.56-19-9.89-25.79-19.36-6.88-9.65-4.29-24.44-11.61-33.84-2.86-3.67-6.53-5.18-7.48-10-1.16-5.85,3.41-8.63,5-13.72.87-2.82-.94-11.53,0-17.87,2.74-3.84,6.06-17.75,6.7-26.39,1.55-.37,1.85-28,2.08-30.13.83-7.63,10.17-21-1.66-22.75,5.7-6.59,1.38-5.53-4-12.36-2.39-3-2.19-10.47-7-10.63-5.6-.19-5,8.23-4.83,11.84.59,14.63,3.24,29.4,4,44.12.3,5.68,1,16,7.31,19.06a124.46,124.46,0,0,0-2.81,12.37c-1.65,7.72-5.15,12-9.12,18.45-3.66,6-3.19,7.77,4,4.12.51,14.28-10.64,23,.15,36.06.44.53.85,1,1.23,1.56l-.86.36c-2.87,1.3-6.3,5.89-9.44,7.7-3.35,1.93-7,3.36-10.42,5.12-8.36,4.27-14.57,8.84-18.6,17.61-3.06,6.67-4.22,18.51-7.85,27.71-.87,1.57-7.16,12.07-13.61,12.84-7.15.86-12.72-4.63-20.21-1-4.72,2.27-7.25,6.8-9,11.55-1.17,3.22-6.13,31-.91,31,2.49,0,3.33-28.57,5.79-32.89,8.22-14.48,25.12,3.4,36.12-7.61,2.25-2.25,8.88-6.61,10.23-9.3,9.85,7.83,28.91,29.28,32.61,31.78,20.42,13.78,45.17,18.74,68.3,26.65l2.75.93c.08.45.14.81.16,1,.57,6.38,1.24,12.74,1.78,19.12.28,3.36.79,30,1.7,30,6.82,0,1.88-33.46.9-48.6,10.21,3.46,20.44,6.95,30.35,11.17,8.6,3.66,17.68,10.48,27.34,10.48,12.23,0,21-13.73,31.56-18.37.59-.26,1.18-.49,1.77-.73a12.53,12.53,0,0,0,.65,2.37c1.82,4.74,5,8.76,7.66,13,5.38,8.7,10,19,5.85,29.33-.13-3.29.44-13.55-1.56-15.91-4.36-5.15-3.16,5.33-3,7.41.26,2.89-1.09,14,3.17,14,7,0,6.91-13.58,6.49-18.07-.88-9.51-6.72-16.47-11.44-24.34a34.56,34.56,0,0,1-4.26-9.2c5.6-2,11.35-3.69,16.74-6.33,7.55-3.71,18.57-5,23.13-12.29,1.13-1.79,2.5-13.83,7.19-12.37,9.38,2.92,21.32,9.37,29.35,15,2.85,2,13.92,13.19,17.66,13.19C452.75,405.39,435.54,392.3,434.8,391.76ZM398.56,215.19c-12.61,4.19-31.92.89-42.23-6.58-11.26-8.16-12.42-37.34,6.3-37.34,10.37,0,23.53,2.51,33.26,5a43.28,43.28,0,0,1,8.55,3c-.14.45-.27.9-.44,1.37-2.92,8.19-6.41,15.2-6.44,24.11A63.62,63.62,0,0,0,398.56,215.19Zm16.14-22.79c1,8.41-5.06,17.15-12.38,21.16-.91-7.36-1.13-14.3,1.28-21.86.41-1.29.84-2.51,1.26-3.71C406.93,189.82,411.31,191.38,414.7,192.41Zm-1.56-5.21c-2.22-1.17-5-2.54-7-2.79.42-1.17.84-2.32,1.22-3.46A16.78,16.78,0,0,1,413.14,187.19Zm-189.19-50.7c2.83-11.46,9-21,11.26-32.88,2.41-12.84,4.5-24.72,18.94-28,13.84-3.12,24.09-5.9,36.06-14.2,13.76-9.54,23.18-5.2,38.64-3.57,1.29.14,6,.67,9,.09,2.11,5.69,6.89,11.75,9.61,14.38A47.14,47.14,0,0,0,367,83.21c5.15,1.51,17.47.44,21.21,4.56,3,3.28,3.25,12.74,5.64,16.89,4.58,7.94,13.44,13.92,15.78,23.08,2.4,9.41-4.95,16.92-5.3,26.23-.3,8,1.95,13.94,1,21.09-11.45-5.63-27.64-6-38.65-7.07a19,19,0,0,0-18.28,8.55c-2.7-.79-9.9-1.84-10-1.86-5.55-1.43-17-7.8-22.81-5.52l-.69.3c-1.22-4.4-4.21-8.7-9.47-12.45-8.3-5.92-19-8.64-29-9.68a68.47,68.47,0,0,0-16.43.09c-2.22.31-7.32-.48-8.19-.22-3.62,1.07-7.37,4.3-10.23,8.14l-.1-.33c-.49-1.5-6.32-1.15-8-1.52-2.18-.48-7.47-4-10.61-4.66A50.09,50.09,0,0,1,223.95,136.49ZM310,182.39c-16.95,36.06-87.43-6.05-64.25-25.76C262.49,143.07,323.89,152.92,310,182.39Zm31.14,56.33c1.22-.6,9.46-3.38,3.67-5.1-6.45-1.91-10.47,8.74-17.35,7.13-6-1.41-9.22-13.53-16.37-12.35-3.16.52-5.16,1.4-2.84,4.28-4.76-1.85-10.68-3.81-13.62-8.3-2.71-4.14-3.54-12,2.36-13.76,4.06-1.18,7.17,4.89,10,1.7,2.7-3-9.13-6.11-11.61-5.25-8.18,2.83-8.42,9.08-5.57,14.93-2.5-.59-6.8.56-8.92.77-7.29.74-13.73,2.27-19.17,7.6-4.6,4.51-6.5,12-11.75,15.91-3.57,2.63-3.73,4.17-7.53-1.07-4-5.55-4.35-15.15-5.86-21.53-1.71-7.23-3.52-13.87-8.61-19.49-4.55-5-10.83-7.91-14.74-13.61-6.89-10-.92-11.26,4.8-18.71,4.11-5.35,4.76-11.45,4.83-17.72,5.61,1.54,10.86,3.94,16.8,4.07-1.92,3.3-3.09,6.75-2.94,9.53,1.11,20.54,31.92,32.15,48.94,32.15,16.34,0,31.1-13.65,29.79-27.38a45.25,45.25,0,0,0,6.26,1.48c5.52,1.23,13.3,4.1,18.87,5.61a21.38,21.38,0,0,0-.42,2.8c-1.05,6.51,2.71,14.25,3.66,20.73.75,5.15-2.51,14.26-.29,19,1,2.08,4.72,4.81,4,.28C357,225.18,345.68,242.2,341.17,238.73Zm53.12.22c-3.38,3.69-6.8,7-10.42,10.48-2.9,2.81-8.47,16.51-11,17-6.77,1.28-3.8-19.15-4.42-22-1.11-5.11-3.22-7.93-8.05-9.88a18.62,18.62,0,0,0-6.77-1.22c1.46-3.31,2-7,.68-9.74-1.71-3.59-5.37-2.56-7-5.07-.74-1.13.58-10.16.57-10.77,0-.77-.06-1.52-.12-2.26,7.86,11.39,26.17,14.84,39,14.84A34.89,34.89,0,0,0,399,217.88a117.05,117.05,0,0,1,1.7,11.88C397.92,231.78,394.42,238.8,394.29,238.94Zm-206.1-89.78c.09,0-.42-4.16,2.08-.42,2,3,6.59,1.72,8.69,4.84-1.73.92-4.22,3.33-3.77,5.52,1.51,7.33,4.92-.07,4.23,8.76-.39,5-3.23,10.6-3.74,16.21a93.49,93.49,0,0,0,0,17.87C190.68,212.76,187.68,149.17,188.18,149.17Z"/></svg>
