<svg xmlns="http://www.w3.org/2000/svg" viewBox="0 0 462.2 484">
  <path d="M317.3 168.3c-4.9 0 .1-6.4.7-7.7-3.6-1.5-6.3 1.2-6.6-4.1-10.5 4.4-14.9-1.9-24.4-4.4-7.1-1.8-13.3-.2-20.6-2.3-5.4-1.6-8.2-2-13.5.8-2 1.1-5 4.9-7 5-7 .6.4-5.4 2.6-6.9 8.1-5.5 12.4-4.2 20.7-2 7.9 2.2 14.4-.2 22.4 3 3.2 1.3 6.2 3.8 9.6 4.3 3.1.5 8.9-2.8 10.7-2.2 3.9 1.3 1 3 3.4 4.9 1.7 1.4 5.4-1 6.5 2.8 8-7.1 2.4 8.8-4.5 8.8zm96.7 12.5c-3.5 0-9.1 0-12.4-1.2-2.7-1-5.3-4.5-6.4-4.9-5.1-2-13.2 5.2-13.8-3.8-5.1 1.1-8.6 4.3-14.2 5-2.4.3-5.7 1.7-7.3 0-1.3-1.4-.5-11 .5-11.7 4.7-3.2 6.8 4.6 6.5 7.7 5.6-.2 18.1-10.2 18.6-.5 5-.4 8.8-.8 13.4.6.4.1 1.9 2.9 4 3.7 1.9.7 10.1-.2 11.3 1.1.9.9 3.4 4-.2 4zm-118.1-14.1c-6.5-2.9-14.6-1.7-21.4-.9-3 .4-18.8.6-20.5 2.8-4.1 5.2 5.8 3.4 8.9 3-1.6 4.9 26.9 14.9 30.2 14.9 2.6 0 8-4.1 9.6-6.9 1.3 1.7 2.6 3.1 3.8 3.1 5.9.1-7.3-14.5-10.6-16zm-13.5 2.3c-3.4 1.4-4.1 5.6-2.6 8.8-5-2.6-10.4-5.6-13.7-6.6 5.4-.9 10.8-2 16.3-2.2zm8.7 13.5c-.8 0-1.9-.3-3.3-.8h.2c3.4-.9 7.5-9.6 1.6-12.3 3.4.5 6 1.7 8.9 4.5.6.6 1.5 1.9 2.5 3.5-2.4.5-6.3 4.9-9.9 5.1zm106.8 5.4c-4.3-1.8-9.1-2.5-13.7-3-2.9-.3-19.2-3-20.5.6-.6 1.8 1.8 2.6 5.1 2.9-2.9 3.2 8.7 10.1 11.1 10.1 1.8 0 19.3-1.6 18.7-5.3 1.5.9 3 1.7 4 1.7 5.9.2-3.5-6.4-4.7-7zm-17.6 6.7c-3-.3-6.1-3.9-8-5.9 1.7.1 3.3 0 4.8 0-.3 3.8 1.7 5.6 4.1 5.9h-.9zm5-.8c1.7-.9 3.2-2.3 3.8-4.2 1.8.3 3.6.7 5.2 1.3.5.2 1.1.5 1.8.9-2.7-.2-7.1 1.1-10.8 2zm-69.1 149.1c-2.7 0-1.3-2.8-2.5-4.1-3.3-3.4-7.8-3.8-11.6-6.2-1.7-1.1-3.5-4.6-5.3-4.6-3.4 0-5.1 7.7-8.2 7.6-4.4-.1-1-9.4-1-13.5 0 1.5-.7-13.2 3.3-8.1 2.1 2.7.7 9.7.5 12.9 5.4-5.5 18.3 3.4 23.4 7.6 1-6.6 5.6-6.2 9.9-3.4.2-2.4 2.9-15.3 8.3-11.7 1.2.8-3.5 10.8-4.3 12.7-4.5 9.7-1.7-1.3-8.7.8-3.2 1.1.7 10-3.8 10zm47.9-72.7c-1.9-2.6-8.5-2.9-15.9-2.5-7.2-1.4-14.3-3-21.4-4.6-7.2-1.5-14.5-3-21.8-4.1-5.5-.8-18.7-4.5-24.4-2.3-6.1-.5-15.4-1-14.4 6.9.5 3.6 3.8 7.3 7.6 10.5 1.7 3.3 4.1 6.9 4.7 7.7 11.6 16.4 27.9 21.7 47.8 21.7 13.4 0 17.4-8.4 24-18.1 2.1-3 3.1-5 3.4-6.1 5-2.5 12.9-5.7 10.4-9.1zm-51.9-5.8c6.2 1.1 12.9 3 19.6 4.8-3.3.3-5.9.4-7.5.2-7.1-1-13.8-3.7-20.5-6.2 2.8.2 5.6.7 8.4 1.2zm-40.6-3.2c14.2-2.2 27.2 4.5 40.3 8.9 12.5 4.2 24.1 2.7 36.5 2.6 2.3.3 4.5.5 6.7.6-18.4 11.5-30.8 23.6-54 13.7-3.6-1.4-35.3-24.8-29.5-25.8zm48.1 38c-9.5-.9-19.8-2.2-27.6-8-2.9-2.1-5.1-5.5-7.3-9.1.1.1.3.2.4.3 10.3 7.3 21.9 12.8 34.8 12.8 10.5 0 18.7-5.2 26.7-11-.6.8-1.2 1.6-1.8 2.5-6.8 10.6-12.7 13.6-25.2 12.5z"/>
  <path d="M448.4 412.4c-8.9-6.4-18.1-12.5-27.2-18.7-8.3-5.6-16.7-11.2-24.7-17.1-1.7-1.2-10.1-9.8-12.2-9.2-3.2.8 7.5 9.7 17.5 17.3-1.8 4.5-3.9 17.2-5.7 20.1-4.4 6.7-11.3 11.2-18.4 14.7-5.3 2.6-11 4.4-16.5 6.3 0-.6-.1-1.1 0-1.7.1-4.2 2.8-7.5-.9-11.1-6.2-5.9-18.4 1.6-16.4 9.7.6 2.4 6.2 8.5 9.1 5 3-3.5-3.9-3-4.3-4.2-1.5-3.6-.1-7.6 4.3-8.3 5.7-.9 4.3 1.3 5 4.9.5 2.5.1 4.6-.1 6.8-.9.3-1.8.7-2.6 1-10 4.2-16.7 14-26.5 17.8-10.8 4.2-21.1-4.1-30.6-8.3-11.7-5.2-24-9.2-36.1-13.3 0-1.7.1-2.9.5-3.2 2.2-2.6 5.9.4 6.1-5 .1-3.1-2.9-5.7-5.5-6.9-4.6-2.1-17.2-.1-15.8 7.4 1 5.2 13.9-12.6 17.8 0-3.1 2-5.8-.7-8.1 3-.3.5-.3 1.7-.2 3-23.3-7.9-47.2-15.9-68.1-29.2-3.3-2.1-33.1-26.7-45.6-32.5 4.7-11.6 4.8-25.4 12.4-35.4 4.4.9 13.3.2 15 .6 7.9 1.4 14.1 5.4 19.1 11.6 5.3 6.7 8.5 14.9 12.2 22.5 2.7 5.6 11.9 27.1 19.4 27.1 4.3 0-10.3-18.3-11.9-21.2-4.5-8.2-7.7-17.1-12.7-25.1-4.1-6.7-9.1-12.6-16.3-16-3.5-1.7-13-4.5-19.9-4.4l.1-.1c8.2-6.3 19.2-8.2 26.9-15.2 1.5-1.4 2.8-2.8 3.8-4.1 4.3 7 5 13.2 8.4 21.8 3.6 9.3 11.5 16.9 18.7 23.4 6.2 5.6 13.8 9.3 20 14.8 7.7 6.8 9.2 16.4 14.7 24.6 6.3 9.4 15.2 12.6 25.5 15.8 10.7 3.4 22.3 12 33.7 12 17 0 16.1-17.2 29.1-22.7 6.4-2.7 12.4-2.3 17.7-7.5 4.5-4.5 7.4-11 9.8-16.7 1.9-4.6 2.5-9.5 4.2-14 2.8-7.6 9.5-7 12.7-13.5 3.1-6.4-.6-8.1 5.8-12.7 3.7-2.6 7.9-2.7 10.6-6.9 4.3-6.5 2.4-14.1 7.7-20.1 5.8-6.5 7.4-7.7 5.3-17.3-.6-2.8-1.7-13.3-3-16.9 6.1-4.9 3.6-29.8 3.1-33.7l-.6-3.9c8.6-4.3 15.8-11.4 17.2-19.8 4.1.5 11.3.9 13.1.9 3 0 1.6-2.3 1.3-3.4-.4-2.1-3.6-3.4-7.2-4.3.8-5.5-.9-16.7-.8-17.3.7-5 9-9.7 11.8-13.8 3.7-5.5 5.9-12.2 7-18.7 2.7-16.1-1.8-32.4-7.1-47.4-9-25.8-25.2-72.1-54.2-82.1-4.4-1.5-9.7-2.1-14.3-2.4-2.1-.1-7.3.8-9.1 0-4-1.6-.7-.2-3.9-3.7C361.6 7.8 355 4.1 344.6 2c-35.9-7.2-68.3 5.2-97.9 24.8-28.5 18.8-48.2 46.2-65.4 75.2-8.4 14.2-16.1 29.8-13 46.6 1.4 7.5 12.3 31.4 8.1 38.1-5.8 9.2-25.4-7.6-29.3 10.7-1.4 6.7 3.4 13.8-.2 20.4-3.1 5.7-8.6 6.1-14.5 5.7-16.4-1-33.9-13.9-49.9-4.8-9.8 5.6-14.1 16.5-16.5 27-4.3 19.3 3.4 48.2-14.8 61.1-11.5 8.1-24 12.1-30.2 25.9-1.8 4-6.2 25.9-2.3 30.7-.6.3-1.2.6-1.6.9-2.5 1.6-22.8 21.6-15.5 21.6 1.5 0 9.7-12.1 11.5-13.6 4.8-4.2 10.4-7.2 16.3-9.6 3.8-1.5 30.4-6.7 29.6-8.3-3-6.5-25.7 2.1-36.7 7.2.5-4.2-.9-12-.8-14 .4-6 1.8-11.8 5-17 8.1-13.2 24.3-15.1 33.6-26.5 15.8-19.4 1.6-51.6 15.6-73.2 9.2-14.2 22.6-11.7 37-7.8 15.3 4.1 39 10.4 39.4-12.8.1-6.8-4.1-14.7 3.8-18.6 6.7-3.2 17.6 5.9 23.2-1.3 6.5-8.4-4.2-30.9-6.2-39.9-7-30.9 22.4-65.5 40.2-88.4 19-24.3 49.6-45.2 79.2-54 22.8-6.8 59.4-9.6 73.6 12.4 4 6.2-.5 3.1 5.5 2.8 4.5-.3 8.7-.3 13.3.2 13.5 1.6 22.2 8.7 30.2 19.4 19.3 25.7 37.9 63.8 38.9 96.4.2 8.2-1 16.8-4.7 24.2-3 6.2-7.9 8.4-11.6 13.6-2.2 3-5.2 15.9-3.5 22.8-1-.2-1.9-.4-2.8-.6-.8-2.4-2.1-4.9-4-7.5-1.7-2.3-3.9-4.1-6.3-5.7 1-4 1.5-8.2.9-13.1-.7-5.3-2-10.2-.9-15.5 1.1-5.4 4.8-9.8 5.6-15.4 1.4-9.4-4.1-16.6-9.6-23.5-6.1-7.6-9.6-13.1-12.3-22.4-4.1-14.7-22.3-9.6-34.6-15.7-7.5-3.7-14.5-9.5-17.8-17.4-.7-1.5-2.6-18.1-6.2-10.8-.6 1.2-.8 2.7-.6 4.2-5.6-.9-16.2-1-17.9-1.3-17.8-3.2-25.3 1.7-40.2 10.7-11.8 7.1-24 6.3-36 11.4-13.9 5.9-15 22.3-17.6 35.2-2.3 11.3-9 20.5-11.4 31.6-2.7 12.8 2.4 25.6-7 36.3-7.6 8.7-10.4 13.4-1.9 24.1 4.9 6.2 12.5 9.6 17 16 3.7 5.2 4.8 11.8 6.1 17.9 1.7 7.6 3.3 28.1 15 28.1 8.3 0 15-20.8 22.5-25 2.1-1.2 21.6-4.4 23.7-4.9 2.7 4 6.5 7.6 9.8 9.3 4.8 2.5 19.9 9.8 12.8-.9 6.1 3.6 9 12.4 17 12.4 3.8 0 8.2-2.5 10.9-3 2.6-.4 5.3 1 8.5-1 1.5-.9 2.9-2.4 4.2-4.2 1.7 1.3 6 .5 7.6 1.3 4.1 1.9 5.2 3.1 6.3 7.7 1.6 6.5-4 26.1 8.4 26.1 5.9 0 10.2-14.9 14.4-19 1.7-1.7 8.8-7.4 13.6-13-.6 3-1.5 6.9-1.8 9.8-2.6.6 1.9 19.9 2.3 22.5.9 6.7-.3 6.9-3.6 11.1-3.7 4.7-5.2 5.8-6.9 12.5-2 8.5-2.4 9.3-9.2 13.6-5.4 3.5-6.5 3.4-9.3 10-2.4 5.7-.3 4.6-5 9-8.3 7.7-8.7 15.3-13.3 25.6-4.9 10.8-9.1 16.2-20.4 19.7-7.9 2.4-10.8 4.7-15.8 11.7-2.8 4-4.1 7.7-8.8 10.1-11 5.5-22.8-4.5-32.7-8.1-13.1-4.8-24.9-6.5-32.2-19.7-6-10.9-8.7-18.8-19.3-26.2-9.9-6.9-19.9-14.5-27-24.5-7.2-10.2-6.3-22.5-14-32.4-3-3.9-7.5-6.7-8.6-11.7-1.2-6.2 3.5-10.6 5.1-15.9.9-3 3.4-16.4-.8-17.3 2.9-4 9.8-20.8 10.4-29.9 1.6-.4 1.9-29.5 2.2-31.7.9-8 10.7-22.2-1.8-24 6-6.9 1.5-5.8-4.2-13-2.5-3.2-2.3-11-7.4-11.2-5.9-.2-5.2 8.7-5.1 12.5.6 15.4 3.4 30.9 4.2 46.5.3 6 1 16.8 7.7 20.1-1.6 5-2.8 12.3-3 13-1.7 8.1-5.4 12.6-9.6 19.4-3.9 6.3-3.4 8.2 4.2 4.3.5 15-11.2 24.2.2 38 .5.6.9 1.1 1.3 1.6-.3.1-.6.2-.9.4-3 1.4-6.6 6.2-9.9 8.1-3.5 2-7.4 3.5-11 5.4-8.8 4.5-15.3 9.3-19.6 18.5-3.2 7-4.4 19.5-8.3 29.2-.8-.1-1.4.1-1.6.6 0 .1.3.4.9 1-2.8 6.3-6.9 11.1-13.7 11.9-7.5.9-13.4-4.9-21.3-1.1-5 2.4-7.6 7.2-9.4 12.2-1.2 3.4-6.5 32.6-1 32.6 2.6 0 3.5-30.1 6.1-34.6 8.7-15.2 25.1.9 36.7-10.7 2.4-2.4 4.1-5 5.6-7.9 10.4 8.2 37.9 28.4 41.8 31 21.5 14.5 46.6 22.9 71 31.2 1 .3 1.9.7 2.9 1 .1.5.1.9.2 1.1.6 6.7 1.3 13.4 1.9 20.1.3 3.5.8 31.6 1.8 31.6 7.2 0 2-35.2 1-51.2 10.8 3.6 21.5 7.3 32 11.8 9.1 3.9 18.6 11 28.8 11 12.9 0 22.1-14.5 33.2-19.3.6-.3 1.2-.5 1.9-.8.1.8.4 1.6.7 2.5 1.9 5 5.3 9.2 8.1 13.7 5.7 9.2 10.6 20 6.2 30.9-.1-3.5.5-14.3-1.6-16.8-4.6-5.4-3.3 5.6-3.1 7.8.3 3-1.2 14.7 3.3 14.7 7.3 0 7.3-14.3 6.8-19-.9-10-7.1-17.3-12-25.6-2-3.4-3.6-6.4-4.5-9.7 5.9-2.1 11.9-3.9 17.6-6.7 7.9-3.9 15.6-8.9 20.4-16.6 1.2-1.9 5.5-12.9 5.7-19.1 5.6 4.2 10.3 7.5 11.1 8.1 8.6 5.8 17.2 11.5 25.6 17.5 3 2.1 14.7 13.9 18.6 13.9 6.3.4-11.8-13.4-12.6-14zm-38.1-185.8c-13.3 4.4-33.6.9-44.5-6.9-11.9-8.6-13.1-39.3 6.6-39.3 10.9 0 24.8 2.6 35 5.2 3.1.8 6.2 1.8 9 3.2-.1.5-.3.9-.5 1.4-3.1 8.6-6.7 16-6.8 25.4.1 3.6.6 7.3 1.2 11zm17-24c1.1 8.9-5.3 18.1-13 22.3-1-7.8-1.2-15.1 1.3-23 .4-1.4.9-2.6 1.3-3.9 2.2 1.8 6.8 3.5 10.4 4.6zm-1.7-5.5c-2.3-1.2-5.3-2.7-7.4-2.9.4-1.2.9-2.4 1.3-3.6 2.6 1.6 4.7 3.7 6.1 6.5zm-199.1-53.4c3-12.1 9.5-22.1 11.9-34.6 2.5-13.5 4.7-26 19.9-29.4 14.6-3.3 25.4-6.2 38-14.9 14.5-10 24.4-5.5 40.7-3.8 1.4.1 6.3.7 9.5.1 2.2 6 7.2 12.4 10.1 15.1 5.7 5.5 13 9.2 20.6 11.5 5.4 1.6 18.4.5 22.3 4.8 3.1 3.5 3.4 13.4 5.9 17.8 4.8 8.4 14.2 14.7 16.6 24.3 2.5 9.9-5.2 17.8-5.6 27.6-.3 8.4 2 14.7 1.1 22.2-12.1-5.9-29.1-6.3-40.7-7.4-8.5-.9-15.1 3-19.2 9-2.8-.8-10.4-1.9-10.5-2-5.8-1.5-17.9-8.2-24-5.8-.3.1-.5.2-.7.3-1.3-4.6-4.4-9.2-10-13.1-8.7-6.2-20-9.1-30.5-10.2-5.7-.6-11.6-.7-17.3.1-2.3.3-7.7-.5-8.6-.2-3.8 1.1-7.8 4.5-10.8 8.6 0-.1-.1-.2-.1-.3-.5-1.6-6.7-1.2-8.4-1.6-2.3-.5-7.9-4.2-11.2-4.9-.2-4.6-.1-9 1-13.2zM355.2 190c-1.5 3.4-2.3 7.2-2.5 11.1-.6-1.8-1.2-3.6-1.8-5.5-.6-2-1.3-4.8-2-6.5 2.1.4 4.2.8 6.3.9zm-38.1 2c-17.8 38-92-6.4-67.6-27.1 17.5-14.3 82.2-3.9 67.6 27.1zm32.8 59.3c1.3-.6 10-3.6 3.9-5.4-6.8-2-11 9.2-18.3 7.5-6.4-1.5-9.7-14.2-17.2-13-3.3.5-5.4 1.5-3 4.5-5-1.9-11.2-4-14.3-8.7-2.9-4.4-3.7-12.7 2.5-14.5 4.3-1.2 7.5 5.1 10.6 1.8 2.8-3.2-9.6-6.4-12.2-5.5-8.6 3-8.9 9.6-5.9 15.7-2.6-.6-7.2.6-9.4.8-7.7.8-14.5 2.4-20.2 8-4.8 4.7-6.8 12.7-12.4 16.7-3.8 2.8-3.9 4.4-7.9-1.1-4.2-5.8-4.6-15.9-6.2-22.7-1.8-7.6-3.7-14.6-9.1-20.5-4.8-5.3-11.4-8.3-15.5-14.3-7.3-10.6-1-11.9 5.1-19.7 4.3-5.6 5-12.1 5.1-18.7 5.9 1.6 11.4 4.2 17.7 4.3-2 3.5-3.3 7.1-3.1 10 1.2 21.6 33.6 33.8 51.5 33.8 17.2 0 32.7-14.4 31.4-28.8 2.4.9 5.9 1.4 6.6 1.6 5.8 1.3 11.6 3.7 17.4 5.3-.2.7-.5 1.7-.7 3.1-1.1 6.9 5.6 15.4 6.6 22.3.8 5.4-2.6 15-.3 20 1 2.2 5 5.1 4.2.3 9.7 3-2.2 20.9-6.9 17.2zm55.9.3c-3.6 3.9-7.2 7.3-11 11-3.1 3-8.9 17.4-11.6 17.9-7.1 1.3-4-20.2-4.7-23.2-1.2-5.4-3.4-8.4-8.5-10.4-1.1-.5-4.6-1.5-7.1-1.3 1.5-3.5 2.1-7.3.7-10.3-1.8-3.8-5.7-2.7-7.4-5.3-.8-1.2.6-10.7.6-11.3 0-.8-.1-1.6-.1-2.4 8.3 12 27.6 15.6 41.1 15.6 4.1 0 8.6-.9 12.9-2.6.7 4.2 1.5 8.3 1.8 12.5-2.9 2.2-6.6 9.6-6.7 9.8zM189.4 146.4c.1 0 .6 7 1.2 8 2 3.3 7.3 4 9.5 7.3-1.8 1-4.4 3.5-4 5.8 1.6 7.7 7.1-1.1 6.3 8.2-.4 5.3-3.8 11.6-4.3 17.5-.7 7.7-1.4 15.6-.9 23.3-7.6-4.8-8.3-70.1-7.8-70.1z"/>
  <path d="M366.6 411.1c-2.9 0 5.2-24 5.7-27.2.6-4.2 0-9.6 2.4-13.3 1.6-2.4 8.6-7.7 10.9-2.8 1.9 4.1-4.4 1.8-5 2.4-3 3.1-3.2 5.4-3.9 9.9-.8 4.6-3.7 31-10.1 31z"/>
</svg>
