<svg xmlns="http://www.w3.org/2000/svg" viewBox="0 0 456.5 456.5">
  <path d="M308.9 158.1c-4.6 0-1.8-5.6-1.2-6.8-3.4-1.4-4.8 1.4-5-3.6-9.9 4.1-13.3-2.5-22.2-4.8-6.6-1.7-12.5-.2-19.4-2.2-5.1-1.5-7.7-1.8-12.7.7-1.9 1-4.7 4.6-6.5 4.7-6.5.5.3-5.1 2.5-6.5 7.6-5.2 11.7-6.6 19.4-4.5 7.5 2 13.3-.5 20.8 2.5 3 1.2 5.4 4.3 8.6 4.7 2.9.4 8.9-2.5 10.6-2 3.7 1.2 2.5 3.5 4.7 5.3 1.6 1.3 3.7.4 4.8 4 7.4-6.5 2.1 8.5-4.4 8.5zM399.7 169.9c-3.2 0-8.5 0-11.6-1.1-2.6-.9-4.9-4.2-6-4.6-4.8-1.9-12.4 4.9-13-3.5-4.8 1-8.1 4-13.3 4.7-2.3.3-5.4 1.6-6.9 0-1.2-1.3-.5-10.3.5-11 4.4-3 8 1.8 7.8 4.8 5.3-.2 16.6-8.5 17 .6 4.7-.4 7.6-.7 11.9.6.4.1 2.2 2.9 4.2 3.6 2 .7 8.5 1.1 9.7 2.3.7.6 3.1 3.6-.3 3.6zM288.8 156.6c-6.1-2.8-13.7-1.6-20.1-.8-2.8.4-17.6.6-19.3 2.6-3.9 4.9 5.5 3.2 8.3 2.8-1.5 4.6 25.3 14 28.4 14 2.4 0 7.5-3.9 9-6.5 1.2 1.6 2.5 3 3.6 3 5.6 0-6.8-13.7-9.9-15.1zm-12.7 2.1c-3.2 1.3-3.8 5.3-2.5 8.3-4.7-2.5-9.8-5.2-12.9-6.2 5.2-.8 10.3-1.9 15.4-2.1zm8.1 12.7c-1.1-.1-2.1-.3-3.1-.8h.2c3.2-.8 7-9 1.5-11.6 3.2.4 6.1 1.9 8.4 4.1.9 1 1.6 2.1 2.3 3.3-2.1.7-5.8 4.8-9.3 5zM384.6 176.6c-4-1.7-8.5-2.3-12.9-2.8-2.8-.3-18.1-2.8-19.2.5-.6 1.7 1.7 2.4 4.8 2.8-2.7 3 8.1 9.5 10.4 9.5 1.7 0 18.1-1.5 17.6-4.9 1.1.8 2.4 1.4 3.8 1.6 5.5-.1-3.4-6.3-4.5-6.7zm-16.5 6.2c-2.8-.3-5.7-3.7-7.5-5.5h4.5c-.3 3.6 1.6 5.2 3.9 5.5h-.9zm4.7-.8c1.7-.8 3-2.2 3.6-4 1.7.3 3.3.7 4.9 1.2.6.2 1.2.5 1.7.9-2.6-.1-6.8 1.1-10.2 1.9zM307.8 322.1c-2.5 0-1.2-2.6-2.4-3.8-3.1-3.2-7.3-3.5-10.9-5.8-1.6-1-3.3-4.3-5-4.3-3.2 0-4.8 7.2-7.7 7.1-4.2-.1-1-8.9-.9-12.7 0 1.4-.6-12.4 3.1-7.6 2 2.5.7 9.1.5 12.1 5.1-5.2 17.2 3.2 22 7.1 1-6.2 5.2-5.9 9.3-3.2.2-2.3 2.7-14.4 7.8-10.9 1.1.7-3.3 10.1-4.1 11.9-4.2 9.1-1.6-1.2-8.2.8-2.9.9.8 9.3-3.5 9.3zM352.9 253.8c-1.8-2.4-8-2.7-14.9-2.3-6.7-1.3-12.7.4-19.4-1-6.7-1.4-11.1-3.3-17.9-4.3-5.2-.8-19.7-3.2-26.2-4.9-5.7-.5-14.5-1-13.5 6.5.4 3.4 3.5 6.8 7.2 9.9 1.3 2.5 2.8 4.9 4.4 7.2 10.9 15.4 26.2 20.4 44.9 20.4 12.6 0 16.4-7.9 22.6-17 1.3-1.8 2.4-3.7 3.2-5.8 4.5-2.5 12-5.5 9.6-8.7zm-87-8.4c13.4-2.1 25.6 4.2 37.9 8.4 11.8 4 22.6 2.6 34.3 2.5 2.1.3 4.2.5 6.3.6-17.2 10.8-28.9 22.2-50.7 12.9-3.4-1.6-33.1-23.5-27.8-24.4zm45.3 35.6c-8.9-.8-18.6-2-25.9-7.5-2.7-2-4.8-5.2-6.8-8.6l.4.3c9.7 6.9 20.6 12 32.7 12 9.9 0 17.5-4.9 25.1-10.3-.6.7-1.1 1.5-1.7 2.4-6.6 10-12.1 12.8-23.8 11.7z"/>
  <path d="M432.1 387.4c-8.4-6-17-11.7-25.5-17.5-7.8-5.3-15.7-10.5-23.2-16.1-1.4-1-7.4-5.8-10.4-8.5-4.4-3.5-8.6.6-10.1 2.8-2.3 3.5-2.6 8.9-3.1 12.9-.4 3-7.2 25.2-4.5 25.2 6 0 8.2-24.3 10.6-27.9 8.3-12 12.9 1.9 19.5 6.2 3.5.9-.6 13-2.4 15.7-4.1 6.3-10.6 10.5-17.3 13.8-5 2.5-10.3 4.1-15.5 5.9v-1.6c.1-4 2.7-7.1-.8-10.4-5.8-5.5-17.3 1.5-15.4 9.1.6 2.2 5.8 8 8.6 4.7 2.7-3.2-3.6-2.8-4.1-3.9-1.4-3.4-.1-7.1 4.1-7.8 5.4-.9 4 1.3 4.7 4.6.3 2.1.3 4.3-.1 6.4-.8.3-1.7.6-2.5 1-9.4 4-15.5 8.7-24.8 12.3-10.1 4-20.2-2.1-29.1-6-11-4.9-22.3-5.9-33.7-9.8-.1-1 0-2.1.4-3 2-2.5 5.6.4 5.7-4.7.1-2.9-2.7-5.4-5.2-6.5-4.3-2-16.1-.1-14.8 6.9.9 4.9 13-11.9 16.7 0-3 1.8-5.4-.6-7.6 2.8-.3.9-.4 1.9-.2 2.8-21.9-7.4-44.3-15-63.9-27.4-21.8-13.8-24.6-28.5-40.2-36.3 4.4-10.9 2-25 11-25.3 4.2.9 13.1 4.3 14.7 4.6 7.4 1.4 11 3.4 15.6 9.2 5 6.2 7.7 9.5 11.2 16.6 2.6 5.2 11.2 25.4 18.2 25.4 4.1 0-9.7-17.2-11.2-19.9-4.3-7.7-7.3-16.1-11.9-23.6-3.9-6.3-8.6-11.8-15.3-15-3.6-1.6-6.8-3.8-9.7-6.4-2.8-2.8 11.3-7.4 21.1-8.4 5.3-.6 3.6 4.9 6.7 13.1 3.4 8.7 10.8 15.9 17.6 22 5.8 5.2 13 8.8 18.8 13.9 7.2 6.4 8.6 15.4 13.8 23.1 5.9 8.8 14.3 11.8 24 14.9 10.1 3.2 21 11.3 31.6 11.3 16 0 15.1-16.1 27.3-21.3 6-2.6 11.7-2.1 16.6-7.1 4.2-4.2 6.9-10.3 9.2-15.7 1.8-4.3 2.3-8.9 4-13.2 2.6-7.1 9-6.6 11.9-12.7 2.9-6.1-.6-7.6 5.5-12 3.5-2.5 7.4-2.5 10-6.5 4.1-6.1 2.2-13.3 7.2-18.9 5.4-6.1 6.9-7.2 4.9-16.3-.6-2.7-1.6-12.5-2.8-15.9 5.7-4.6 3.4-28 2.9-31.6-.2-1.2-.4-2.5-.5-3.7 8-4 14.8-10.7 16.1-18.6 3.8.4 10.6.9 12.3.9 2.9 0 1.5-2.1 1.2-3.2-.4-2-3.4-3.2-6.8-4 .8-5.2-.8-15.7-.7-16.3.7-4.7 8.5-9.1 11.1-13 3.4-5.3 5.6-11.3 6.5-17.6 2.6-15.1-1.7-30.4-6.7-44.6-8.5-24.2-23.7-67.8-51-77.1-4.4-1.3-8.9-2.1-13.4-2.3-2-.1-6.8.7-8.6 0-3.7-1.5-.7-.2-3.6-3.5-6.4-7-12.5-10.5-22.3-12.4-33.7-6.7-64.2 4.9-92 23.3-26.7 17.6-49.6 44.6-65.8 71.8-7.9 13.3-10.7 26.8-7.8 42.5 1.3 7 11.6 29.5 7.6 35.8-5.5 8.7-23.9-7.1-27.6 10-1.4 6.3 3.2 13-.2 19.1-2.9 5.4-8.1 5.7-13.6 5.4-15.4-.9-31.9-13.1-46.9-4.5C79 210.7 75 221 72.7 230.8c-4.1 18.1 3.2 45.3-13.9 57.4-10.8 7.6-22.5 11.4-28.3 24.3-1.7 3.8-5.8 24.3-2.2 28.9-.6.3-1.1.6-1.5.8-2.4 1.5-21.4 20.3-14.5 20.3 1.4 0 9.1-11.3 10.8-12.8 4.6-3.8 9.7-6.9 15.3-9 3.5-1.4 28.5-6.3 27.8-7.8-2.8-6.2-24.2 2-34.5 6.8.5-4-.8-11.2-.7-13.1.2-5.6 1.8-11.1 4.6-15.9 7.6-12.4 22.8-14.2 31.6-24.9 14.8-18.2 4.4-47.4 17.5-67.7 8.6-13.3 16.5-6.7 30.1-3 14.4 3.9 40.7 8.2 41.1-13.6.1-6.3-6.2-17.7 1.2-21.2 6.3-3.1 17.1 8.5 22.3 1.7 6.1-7.9-4.4-32-6.3-40.4-6.5-29 21-61.5 37.8-83 17.8-22.8 47.3-38.6 75.2-46.9 21.5-6.4 55.2-13 68.5 7.8 3.8 5.9-.4 3 5.1 2.6 4.2-.3 8.3-.3 12.5.2 12.7 1.5 19.4 11.4 26.9 21.5 18.2 24.1 37.1 56.7 37.9 87.3.2 7.7-1 15.8-4.4 22.7-2.9 5.8-7.4 7.9-10.9 12.7-2.1 2.8-4.9 15-3.3 21.4-1-.2-1.8-.4-2.6-.5-1.7-5.1-5.1-9.5-9.7-12.4 1-3.8 3.8-7.5 3.2-12.1-.6-4.9-2.2-7.5-1.2-12.5 1-5.1 6.3-11.6 7-16.8 1.3-8.8-7.6-15.5-12.9-22-5.7-7.1-5.1-14.7-7.5-23.4-3.9-13.8-23.7-8.8-35.2-14.5-7.1-3.5-14.9-6.8-18-14.2-.6-1.5-2.4-17-5.8-10.1-.6 1.2-.8 2.6-.6 4-5.2-.8-15.2-1-16.8-1.3-16.7-3-23.7 1.6-37.7 10-11.1 6.7-27.5 6-38.8 10.8-13.1 5.5-11.3 20.8-13.7 32.9-2.1 10.6-6.3 19.4-8.5 29.8-2.5 12 2.3 24.1-6.6 34.1-7.2 8.2-9.8 12.5-1.8 22.7 4.6 5.8 10.6 11.7 14.8 17.8 3.4 4.9 2.4 9.5 3.7 15.2 1.6 7.2 5.9 29.2 16.8 29.2 7.8 0 14.5-23.4 21.6-27.4 2-1.1 20.3-4.1 22.3-4.6 2.3 3.6 5.5 6.6 9.2 8.7 4.5 2.4 18.7 9.2 12.1-.8 5.7 3.4 8.5 11.7 16 11.7 3.6 0 7.7-2.4 10.3-2.8s5 .9 7.9-1c1.6-1.1 2.9-2.4 4-4 1.6 1.2 5.6.5 7.1 1.2 3.9 1.8 4.9 3 5.9 7.2 1.5 6.1-3.8 24.6 7.9 24.6 5.5 0 21.5-26.5 22.2-21.1 1.2 11.1 4.2 18.9 4.6 21.3.9 6.3-.2 6.5-3.4 10.4-3.5 4.4-4.9 5.4-6.4 11.7-1.9 8-2.2 8.7-8.6 12.9-5.1 3.3-6.1 3.2-8.7 9.3-2.3 5.4-.3 4.3-4.7 8.5-7.8 7.3-8.2 14.4-12.5 24-4.6 10.2-9.5 11.7-20.1 15-7.4 2.3-9.4 4.4-14.1 11-2.7 3.7-4.5 6.7-8.9 8.9-10.4 5.2-20-3.8-29.4-7.2-12.3-4.5-24-2.3-30.9-14.7-5.7-10.2-8.1-21.5-18.1-28.5-9.3-6.5-18.8-9.8-25.5-19.1-6.8-9.5-4.2-24.2-11.5-33.5-2.8-3.6-6.5-5.1-7.4-9.9-1.1-5.8 3.4-8.5 4.9-13.6.9-2.8-.9-11.4 0-17.7 2.7-3.8 6-17.6 6.6-26.1 1.5-.4 1.8-27.7 2.1-29.8.8-7.5 10.1-20.8-1.6-22.5 5.6-6.5 1.4-5.5-4-12.2-2.4-3-2.2-10.4-6.9-10.5-5.5-.2-4.9 8.1-4.8 11.7.6 14.5 3.2 29.1 4 43.6.3 5.6 1 15.8 7.2 18.8-1.1 4-2.1 8.1-2.8 12.2-1.6 7.6-5.1 11.9-9 18.2-3.6 5.9-3.2 7.7 4 4.1.5 14.1-10.5 22.7.1 35.7l1.2 1.5-.9.4c-2.8 1.3-6.2 5.8-9.3 7.6-3.3 1.9-6.9 3.3-10.3 5.1-8.3 4.2-14.4 8.7-18.4 17.4-3 6.6-4.2 18.3-7.8 27.4-.9 1.6-7.1 11.9-13.5 12.7-7.1.9-12.6-4.6-20-1-4.7 2.2-7.2 6.7-8.9 11.4-1.2 3.2-6.1 30.7-.9 30.7 2.5 0 3.3-28.3 5.7-32.5 8.1-14.3 24.8 3.4 35.7-7.5 2.2-2.2 8.8-6.5 10.1-9.2 9.7 7.7 28.6 29 32.2 31.4 20.2 13.6 44.7 18.5 67.5 26.4l2.7.9c.1.4.1.8.2 1l1.8 18.9c.3 3.3.8 29.7 1.7 29.7 6.7 0 1.9-33.1.9-48.1 10.1 3.4 20.2 6.9 30 11 8.5 3.6 17.5 10.4 27 10.4 12.1 0 20.8-13.6 31.2-18.2.6-.3 1.2-.5 1.8-.7.1.8.4 1.6.6 2.3 1.8 4.7 4.9 8.7 7.6 12.9 5.3 8.6 9.9 18.8 5.8 29-.1-3.3.4-13.4-1.5-15.7-4.3-5.1-3.1 5.3-3 7.3.3 2.9-1.1 13.8 3.1 13.8 6.9 0 6.8-13.4 6.4-17.9-.9-9.4-6.6-16.3-11.3-24.1-1.8-2.8-3.3-5.9-4.2-9.1 5.5-2 11.2-3.6 16.6-6.3 7.5-3.7 18.4-4.9 22.9-12.2 1.1-1.8 2.5-13.7 7.1-12.2 9.3 2.9 21.1 9.3 29 14.8 2.8 2 13.8 13 17.5 13 6.3.3-10.7-12.6-11.4-13.2zm-35.9-174.6c-12.5 4.1-31.6.9-41.8-6.5-11.1-8.1-12.3-36.9 6.2-36.9 10.3 0 23.3 2.5 32.9 4.9 2.9.7 5.7 1.7 8.5 3-.1.4-.3.9-.4 1.4-2.9 8.1-6.3 15-6.4 23.8.1 3.4.4 6.9 1 10.3zm16-22.5c1 8.3-5 17-12.2 20.9-.9-7.3-1.1-14.1 1.3-21.6.4-1.3.8-2.5 1.2-3.7 2 1.8 6.4 3.4 9.7 4.4zm-1.5-5.2c-2.2-1.2-4.9-2.5-6.9-2.8.4-1.2.8-2.3 1.2-3.4 2.3 1.6 4.3 3.7 5.7 6.2zM223.6 135c2.8-11.3 8.9-20.8 11.1-32.5 2.4-12.7 4.5-24.4 18.7-27.7 13.7-3.1 23.8-5.8 35.7-14 13.6-9.4 22.9-5.1 38.2-3.5 1.3.1 5.9.7 8.9.1 2.1 5.6 6.8 11.6 9.5 14.2 5.5 5.1 12.1 8.8 19.3 10.8 5.1 1.5 17.3.4 21 4.5 3 3.2 3.2 12.6 5.6 16.7 4.5 7.9 13.3 13.8 15.6 22.8 2.4 9.3-4.9 16.7-5.2 25.9-.3 7.9 1.9 13.8 1 20.9-11.3-5.6-27.3-5.9-38.2-7-7.1-.9-14.2 2.4-18.1 8.5-2.7-.8-9.8-1.8-9.9-1.8-5.5-1.4-16.8-7.7-22.6-5.5l-.7.3c-1.2-4.4-4.2-8.6-9.4-12.3-8.2-5.9-18.8-8.5-28.7-9.6-5.4-.6-10.9-.6-16.2.1-2.2.3-7.2-.5-8.1-.2-3.6 1.1-7.3 4.3-10.1 8l-.1-.3c-.5-1.5-6.2-1.1-7.9-1.5-2.2-.5-7.4-4-10.5-4.6-.2-4.2.2-8.3 1.1-12.3zm85.1 45.4c-16.8 35.7-86.5-6-63.5-25.5 16.5-13.4 77.2-3.7 63.5 25.5zm30.8 55.7c1.2-.6 9.4-3.3 3.6-5-6.4-1.9-10.4 8.6-17.2 7.1-5.9-1.4-9.1-13.4-16.2-12.2-3.1.5-5.1 1.4-2.8 4.2-4.7-1.8-10.6-3.8-13.5-8.2-2.7-4.1-3.5-11.9 2.3-13.6 4-1.2 7.1 4.8 9.9 1.7 2.7-3-9-6-11.5-5.2-8.1 2.8-8.3 9-5.5 14.8-2.5-.6-6.7.6-8.8.8-7.2.7-13.6 2.2-19 7.5-4.5 4.5-6.4 11.9-11.6 15.7-3.5 2.6-3.7 4.1-7.4-1.1-4-5.5-4.3-15-5.8-21.3-1.7-7.1-3.5-13.7-8.5-19.3-4.5-4.9-10.7-7.8-14.6-13.5-6.8-9.9-.9-11.1 4.7-18.5 4.1-5.3 4.7-11.3 4.8-17.5 5.5 1.5 10.7 3.9 16.6 4-1.9 3.3-3.1 6.7-2.9 9.4 1.1 20.3 31.6 31.8 48.4 31.8 16.2 0 30.8-13.5 29.5-27.1 2 .6 4.1 1.1 6.2 1.5 5.5 1.2 13.2 4.1 18.7 5.5-.2.9-.3 1.8-.4 2.8-1 6.4 2.7 14.1 3.6 20.5.7 5.1-2.5 14.1-.3 18.8 1 2.1 4.7 4.8 4 .3 9.3 2.7-1.9 19.5-6.3 16.1zm52.5.2c-3.3 3.6-6.7 6.9-10.3 10.4-2.9 2.8-8.4 16.3-10.9 16.8-6.7 1.3-3.8-18.9-4.4-21.8-1.1-5.1-3.2-7.8-8-9.8-2.1-.8-4.4-1.2-6.7-1.2 1.4-3.3 2-6.9.7-9.6-1.7-3.6-5.3-2.5-6.9-5-.7-1.1.6-10 .6-10.7 0-.8-.1-1.5-.1-2.2 7.8 11.3 25.9 14.7 38.6 14.7 4.2-.1 8.3-.9 12.1-2.4.8 3.9 1.3 7.8 1.7 11.7-2.8 2-6.3 9-6.4 9.1zm-203.8-88.8c.1 0-.4-4.1 2.1-.4 2 3 6.5 1.7 8.6 4.8-1.7.9-4.2 3.3-3.7 5.5 1.5 7.2 4.9-.1 4.2 8.7-.4 4.9-3.2 10.5-3.7 16-.6 5.9-.6 11.8 0 17.7-5 10.6-8-52.3-7.5-52.3z"/>
</svg>
