<svg xmlns="http://www.w3.org/2000/svg" viewBox="0 0 500 500"><title>Erica</title><path d="M276.84,330.39c1-.92-22.26-14.05-24.31-15.32-23.18-14.25-26.7-3.15-33-2.42-6,.69-13.74-5-21.1,5.37-1.79,2.52-9.37,15-9.56,15,5.35-1.49,11.31-12.6,16.85-15.69,7.9-4.39,11.19,1,17.15-1.65,5.09-2.23,13.28-7.76,30.54,5.09,1.34,1,19.22,9.31,15.69,9.33-1.29,0-12.27.75-15.79,1.91-9.29,3.06-15.79,7.75-26.27,8a29.68,29.68,0,0,1-15.8-4.33c-.91-.72,3.34-3.76,9.71-4.68,1.43-.21,3.86.32,5.06.24,2.55-.18,4.63-1.16,7-.72,9,1.65,11.15.31,11.15-.23,0-.33-10.81-4-11.48-4.21-2.45-.62-5.7,2.11-6.84,2.2-2,.15-3.92-2.21-7.87-1.2-1.25.32-10.07,5.71-15.32,5.19-2.41-.24-16.49,2.28-16.49,3,0,.28,3,1.27,3,1.29.53-.58,15.69,17.1,16.95,19.49,6.13,11.62,16.56,9,26.66,9,10.49,0,18.35-5.32,25.16-12.61C260.1,350.18,275.8,331.3,276.84,330.39Zm-24.19,21.85c-6.49,6.65-13,7.54-22.64,7.53-8.62,0-16.24,2.27-20-4-2.69-4.47-13.45-15.54-15.11-17.15s8.06-1.51,8.69-1.25c6.8,2.77,13.54,7.58,22.67,7.58,11.48,0,17.76-7.19,28.14-9.72,4.46-1.09,10.8-2.06,13-1.56C270.06,334.29,254.76,350.07,252.65,352.24Z"/><path d="M201.18,298.83c1.29-.1,8.28-.86,8.16-2.06-.09-.88-7.35-.69-8.62-1-3.64-.9-6-5.44-7.35-8.62-3.18-7.37,1.3-12.34,5.71-20.94,3.36-6.55,4.86-14.11,6.56-21.34.66-2.8.78-17.68-1.79-18.09-.43-.07-.58,13.61-.91,15.62a77.23,77.23,0,0,1-6.67,20c-3.81,7.92-9.88,14.41-7,23.65C190.75,291,196.15,299.24,201.18,298.83Z"/><path d="M200.89,291.88c.42,1.8,1.5-.4,2.79-.54,3.25-.34,13.33,3.44,16.47,3.56s4.15-3.36,6.14-4.85a17.45,17.45,0,0,1,7.5-3.52c1.3-.3-.35.53-.32.79.16,1.17,8.94.17,8.61-1.68-.94-5.15-14.1-1-17.36,1.42-1.86,1.35-2.37,4.09-4.55,4.79C213.73,294,198.07,279.72,200.89,291.88Z"/><path d="M242.86,284.33c-.39.4,1.28,1.52,2.7,1.49a9,9,0,0,0,5.8-2.33,11,11,0,0,0,3-6.38,9,9,0,0,0-2.94-6.89c-.82-.7-1.28-.31-1.3.26s.16,0,1.18,1.4,1.22,2.9,1.4,5.23c.12,1.56-1.41,4.09-2.43,5.2a10.14,10.14,0,0,1-4.26,2.42C244.77,284.89,243.38,284,242.86,284.33Z"/><path d="M244.68,261.27c4.49,4.21,15.82,9.69,12.08,21.49-2.17,6.88-13.19,7-17.53,6.84-2-.08,2.36,1,5.2,1,7.49.14,12.2-1.38,14.09-4.38a15.26,15.26,0,0,0-.84-16.74c-2-2.89-9.36-6.83-12.29-10.45C239,251.18,243.28,260,244.68,261.27Z"/><path d="M183.57,172.48c-2.88,2.69-8.58,2.94-13.55,2-11.48-2.14-20,1.87-22.81,4.75-1.07,1.11-9.61,8.49-8.2,9.52.51.12,8.84-4.84,9.11-5,2.51-1.4,5.7-5.66,19.55-2.44,5,1.17,10.83-3.61,17.23-2.3,2.46.51,6.3,7.85,8.7,4.85C197,179.66,191,165.55,183.57,172.48Z"/><path d="M289.38,222.57l.09-.09-.14.06Z"/><path d="M312,433.66a1.26,1.26,0,0,0-1-.84h0c-1.66-.32-5.5,3.42-6.33,4.26-2-.05-3.19.24-4,.95a4.66,4.66,0,0,0-1.25,3.37,6.65,6.65,0,0,0-3.71,2.06,3.84,3.84,0,0,0-2.94-.18c-1.15.48-1.83,1.73-2.48,3.46a19.85,19.85,0,0,0-6.83,3.91c-3.9-1.2-6.64-.43-9.36,2.6l-.74.08a16.13,16.13,0,0,0-6.1,1.4c-3.64-1.82-5.91-1.17-8.93.79-3.74-1.1-4.91-1.17-8.61-.5-2.22-2.16-4.62-2.37-7-.6a15.14,15.14,0,0,0-7.3-1.84,5.43,5.43,0,0,0-5.32-1.34,14.81,14.81,0,0,0-5.54-1.72l-.74-.13c-2.18-2.54-3.68-4.22-7.94-4a55.65,55.65,0,0,0-8.19-5.8c-1.54-3.65-2.91-6.8-7.55-7.74a15.25,15.25,0,0,1-1.32-2.12,10.33,10.33,0,0,0-3.23-3.81c-.45-3.93-2-5.23-5.11-6.95a25.68,25.68,0,0,1-1.14-2.7,22.16,22.16,0,0,0-1.83-4c.72-2.53-.28-3.32-.61-3.51a1.3,1.3,0,0,0-1.55.23c-.61.59-.87,1.83.16,3.56-.84,3.27.34,5.84,3.51,7.64a14.59,14.59,0,0,0,4.79,6.6l0,.38c.29,3.64.43,5.32,5.2,6.25,2.06,2.85,3.88,5.31,7.14,7.34,2,4.59,4.87,6.63,9.07,6.41,2.41,1.84,4.19,3.17,7.54,3.85,2.25,2.57,3.78,3.46,7,2.22a8,8,0,0,0,5,1.15l.74.56c2.18,1.62,4.63,3.46,7.42,1.56a9.51,9.51,0,0,0,6.23.43c2.09,1.47,3.57,2.3,5.29,2.19a9,9,0,0,0,4.11-1.65c3.79,1.12,5.15,1.17,8.64-.71,3.62,1.82,5.31,1,7.76-1.81l.58-.05c2.82-.25,6-.53,8.25-2.25,2.17.67,3.72.71,4.89.15,1.52-.73,2.22-2.38,3-4.63a9.17,9.17,0,0,0,4.45-2.58c1.57.61,2.75.66,3.61.15a3.47,3.47,0,0,0,1.42-2.94c1.59-.58,2.76-2,3.8-3.34l.46-.57.86.07c1.52.14,3.1.28,4.38-1.08C311.15,437.44,312.45,435,312,433.66Z"/><path d="M424.46,447a.76.76,0,0,0,.06-.16l-.24.13Z"/><path d="M62.84,371.21a10.93,10.93,0,0,0,1-.6Z"/><path d="M332.91,222.9l-.1,0,.11-.19Z"/><path d="M90.07,305.74c0-.05,0-.09-.07-.13l-.12.29Z"/><path d="M341,29a2.73,2.73,0,0,1,.59.13A1.68,1.68,0,0,0,341,29Z"/><path d="M480.54,225.79c-5.14-1.3,3-5.32,4.41-10.08,2-6.94-6.05.42-8-.14-3.78-1.07,2-11.17-.63-14a47.34,47.34,0,0,1-6.92-10.34c-1.34-1.81-6.63-3.39-8.37-5.67s3.2-10.52-1.44-15.49c-1.48-1.58-5.7,1.25-7.2-.61-2.52-3.12.5-5.19.61-8.08.34-9.06.26-9.19-8.91-10.48-5.7-.79-9.81-.91-8.85-8.27.61-4.63,5.79-6.74,3-11.58-1.72-3-15.44-1.37-16-10-.24-3.59-6.1-4.82-6.54-5.65-2.18-4.1.87-4.1.6-7.42-1-11.47-5.37-4-12.67-7.25-3.48-1.53-4.18-4.9-4.92-8.12s-4.85-.68-6.93-.38-1-4-2.45-5.78-5.34-3.09-6.21-4.41c-1.29-2,1.11-4-.87-5.83-2.21-2.11-5.35-1.57-7.29-3.23-3.56-3.07,2-3.51.24-5.85-1.22-1.65-3.77-4.75-5.24-6.67-2.76-3.63,4.47-6.2,1.29-11.73-2.73-4.74-19.2-8.25-19.74-13.27s-8.07-7.46-11.88-7.55-6.59,0-9.21-2.32c-2.18-1.9-.39-3.46-1.66-6.27-3.62-8-14.76-9.34-21.64-6.57a9.54,9.54,0,0,1-5.38-3.12c-4.29-.38-8.29,2.08-12.47,1.63C286,11,283,8.42,279.68,8.91a30.74,30.74,0,0,1-4.22,4.39,6.05,6.05,0,0,1-5.72-2.36c-5.93-1.37-9.91-4.47-14.84,2.11-11.23-12-22.34,1.42-30.37,9.71-3.21,3.31-12.07,10.28-13.1,15-.92,4.22,1.75,8.6,1.64,12.71s-3.27,10.48-2.15,14.67c1.38,5.17,2.75,3.11,7,7.06,3.37,3.12.37,10.61,2.95,13.73s10.75,1.89,8.45,3.56c-4.59,3.34,2.63,6.68,2.82,9.82.15,2.51-7,6.11-7.07,8.47-.16,4.48,7.38,4,8.22,6.43s-4.45,9.45,3,9.83c-6.44,5.31-2.49,17.36,5.2,12.4,4.9-3.16-9.58.28.39-7.75,9.06-7.31-2.87-4.76-3.77-10.46-.51-3.21,3.85-4,.51-7.19-5.71-5.54-3.85-7.46-2.21-9.51.74-.94-5.26-8.49-.39-13.08s-7.34-2.48-9.39-8c-1.08-2.91,3.48-4.32,1.8-8.51-2-5-8.67-2.13-11.7-6.19-1.94-2.58-1.22-9.48-.28-12.32.68-2,4.2-4.32,4.1-6.59-.14-3.28-2.87-2.64-3.72-5.25-.06-.19,5.53-8.27,6.27-9.07,1.86-2,5-2.63,6.87-4.72.93-1,2.36-5.54,3.15-6.56-.34.45,4.86-2.8,4.84-2.78,2-1.74.39-4.52,4.18-5.79,2.38-.79,12.72,4.59,13.89,3,3.57.48,5.27-3,9.35-2.18,2.32.45,4,2.85,6.26,3.42,5.82,1.46,10.78-4.2,16.28-1,3.94-.69,8-3.84,12.15-2.74,3.74,1,3.53,9.1,9.56,3.91,8.5-.18,10.29,1.09,13.8,8.41,4.61,9.65,11.83,6,17.32,8.14,3.8,1.51,3,4.12,4.71,7.64s14.85,5.47,17.66,11c2.57,5-5.76,10.27-1.76,12.72,3.33,2,7.46,4.65,7.94,9.33.15,1.54,4.55,4.19,5.41,5.27,3.2,4,.34,8.78,3.9,8.31s8.26,2.69,7.39,6.72,7.12,3.54,9.06,5.75.42,4.16,3.3,5.73c2.51,1.36,7.58-.55,9.8,1,3.78,2.65-1.77,9,.36,12.43.05.07,6.44,3.18,6.63,3.39,2.69,2.94,2.44,7.79,7,8.55,5.59.94,10.09,4.05,7.81,10.19-6.76,18.19,10.62,8.17,15.74,19,2.27,4.79.44,8.45,3.78,12.68A33.25,33.25,0,0,0,454.9,179c3,2.49-1.5,5.47.73,9.46,1.32,2.35,5.7,2.93,7.56,4.74a24.52,24.52,0,0,1,6,10.6c.95,3.94-1.77,14.38,2.78,14.94,6.44.79,1.27,5.93,2.83,7.95,2.81,3.62,7.29,4.43,8.65,4.67,3.84.66-.77,8,4.58,9.79C495.14,243.59,485.69,227.09,480.54,225.79Z"/><path d="M386.87,428.38c-5.12,2.59-10.33,5.95-15.1,2.33-2.71-2.07,2.33-6.16-3.06-7.51s-7.3,7.12-11.93,6.92c-1,0-13-11.51-7.63.1,4.65,10,11.72-2,16.91-1,2.31,1.15,1.87,6,4.61,7.63,2.36,1.36,9.57-1.27,10.72.31,1.32,1.78-5.83,7.78-6.11,9.12-.53,2.54-.41,46.12,1,46.8.55.28,2.15-4,2.69-7.73,1.65-11.27,2.75-35.41.53-38.15C383.49,443.71,400.56,422.29,386.87,428.38Z"/><path d="M193.45,17.44c-4.66-2.74-10.15,2.79-15,2-3.41-.55-7.29-4.21-11.16-5C154.59,12,157.84,17.82,153,25.24c-4.8-.57-4.28-.21-8.63,1.39a7.06,7.06,0,0,1-4.26,3.31c-2.08.38-5.42-2.27-9.25-1.61S126.67,35.65,122,38.9c-4.08,2.86-8-.18-10.92,3.49-1.58,2-.11,3.42-2,6.28s-5.7,0-9.51,3.63-2,10.1-6.4,12.69c-3.61,2.1-8.27,1.32-10,5.59-1.47,3.72,2.58,7.93.78,11.18-1.57.79-4.37,1.2-5.81,2.19-.83,1.66-2.39,5.86-3.15,7.55-2.89,3-13.64,7.37-15.1,9.75-.15,2.27,2.61,4.87,4.5,6.25,1.9,1.2,1.8,2.34-.3,3.44q-2.17,1.86-4.3,3.75c-3.24,3.6-3.93,4.18-4,8.62-.09,4.17,3.75,1.73,2.31,6.42C56.87,133.78,46.73,135,47,140.25c.23,4,6.26,3.57,5,7.33-1.67,4.85-10.56,4.27-6.39,10.6,5.11,7.75-10.11,9.52-9.46,14.07.79,5.53,12.6,1.27,7,10.89-2.78,4.8-18.29,5.93-13.42,12.58,2.79,3.82,7.08-2.17,6.19,5.3-.64,5.36-6.66,4.51-4.37,10.93,1,2.69,7.4-.25,4,6.29-1.4,2.68-7.86,1.86-8.3,5.06s6.75,1.46,7.86,2.4c4.26,3.63,1.58,9-2,11.92-2.29,1.87-13.8,5.62-3.26,6.9-1,9.68-22,3.33-13.15,13.56-2.24,1.64-8.47,2.16-8.55,5.76-.06,2.78,4.76,1.46,4.5,3.85-.25,2.2-10.16,5.77-2.36,5.7,4.51,0,12.1-7.94,4.28-9.34,2-1.61,4.06-2.82,5.74-4.79,1.86-2.18-.82-2.92-.09-4.52s8.83-1,10.75-2.51c3.39-2.72,4.09-9.23,7-12.6,6.45-7.53,2.49-15.06,1.36-17s3.82-4.19,3-7.86c-.67-3-3.79-6.37-3.93-8.81s6.41-8.67.63-11.48,7.51-5.2,10-9.8c2.9-5.29-1-9.27-4-13.35,1.55-2.37,5.26-2.91,6.75-5.47,3-5.18-1.54-6.21-.8-10.21.79-4.3,8.4-5.85,8.12-10.22-.25-3.84-3.48-3.56-3.59-5.84-.14-3,.44-3.47,2.18-5.13a21.16,21.16,0,0,0,6-5.26A8.24,8.24,0,0,0,62,123c1.58-5.89,10.52-7.58,11.13-13.08.33-3-5.18-4.13-4.56-7.45.41-2.23,7.2-3.94,9-5.29,3-2.3,4-6.44,6.56-8.69-.81.7,5.94-4.77,6-4.79,3-4.55-.9-3.87-.74-8.26C89.5,70.88,93.26,68,97,65.88c.21-.12,18.51-5.19,8.31-6,1.45-5.06,5.45-3.53,8.06-5.09S112.78,44,124.6,42.37c6-.83,5.28-6.29,9-7.35s5.48,3.4,8.53,2.85,4.53-2.27,4.79-5.21a2.58,2.58,0,0,1,1.8-2.81,10.38,10.38,0,0,1,3.63.87,6.82,6.82,0,0,0,4.44.74,4.88,4.88,0,0,0,.73-4.71c2.57-4.15-1.39-4.67,5.38-6.47,3-.8,9.64.59,12.11,2.52,1.32,1,2.9,5.92,4.06,6.32,4.37,1.5,2.83-3,6.51-4.19,5.24-1.68,6.32-1.52,11.2,1.24.49.28,3.23,4.95,3.31,4.95C207.26,31.1,196.35,19.16,193.45,17.44Z"/><path d="M343.07,265.11c1.58-4.08,6.29-8.08,6.35-12.74,0-.87-1.26.35-1.34.89-.74,4.71-8.39,8.5-9.87,13-1.81,5.54.1,12.62.18,18.36.24,18.61.36,39.07-11,54.81-5.37,7.45-15.56,12.2-22.53,17.81-6.46,5.2-10.09,15.66-15.62,21.79-8.14,9.06-14.78,15.49-26.84,18.5-14.27,3.55-32.07,3.84-46.12-.28-12.93-3.79-19.05-17.12-24.5-28.13a78.9,78.9,0,0,0-7-12.64c-1.25-1.65-14.25-16.31-18.34-22.73-4.9-8.55-3.44-20.91-7.2-30-3.35-8.13-8-11-9.27-19a43.1,43.1,0,0,0,11.76.7c4.08-.16,23.75-6.07,21.17-9.44-.17-.19-4.8,2.46-7.21,3-17.24,3.94-24.7-.33-25.86-.6-1.45-10.31-4-17-3.46-28.19.51-10.47,3.9-19.13-1.56-30.19-1.73-3.49-2.66-8.24-3.57-11.16a62,62,0,0,1,31.69.89c6.9,2.1,10.71,6,16.76,9.6,5.42,3.28,4.89,3.29,6.7,8.68.33,1,2.23,3.58,4.53,4s-4.13-6.6-1.82-11.9c1.46-3.36,1.83-3.1,6.72-3.47.79-.06,14.91-.23,13.69-1.85-.77-1-20.22-.43-21.29,1.05-.69.94-7.38,1.56-8.93.59-7.71-4.81-15-9.47-24.13-10.8-7.92-1.16-15.72-.1-24.32,1.63-.25-.88-.65-1.91-.84-2.79a85.74,85.74,0,0,1,14.89-2c14.6-.56,25.63,7.18,39.52,9.42,3.24.52,26.81-.69,32.75-4s24.44-17.27,33.5-20.78c7.61-3,29.88-4.07,36.22-3.9,12.39.33,31.93,3,39.9,2.42,2.61-.2,4.62-.62,5.79,4.11.45,1.78,1.72,5.49-1.79,7-1.27.56-5.37.48-7.07,4.13-1.86,4-.58,10.77-.6,15.07,0,1.38-.26,7.32-.32,8.5-.48,5.73-5.91,16.92-3.32,8.68s2-27.23-6.47-36.79c-10-11.3-29.75-8.87-43.09-7.64-10.64,1-20.74,3.33-30.18,8.51-2.3,1.26-18.36,11-19.19,14.44-.19.8,17.86-11.51,25.56-14.46,12.07-4.61,29.93-7.48,42.8-7,21.37.78,32,18.39,27.42,39.9-5.36,25.2-36.48,37.85-59.2,33.05C256.66,261,247.83,256.6,240.68,249c-5.2-5.56-8-11.83-9.87-13-2.29-1.44,6.46,12.2,13.1,18.39,5.19,4.84,11.33,9.81,16.59,11.76s14.1,2.67,23.31,3.17,43.09-8.29,49.92-35.58a88.14,88.14,0,0,0,1.73-15.85c-.06-4.92.06-9.64,1.67-14.32,1.3-3.78,8.19-6.26,8.45-8.69a19.7,19.7,0,0,0,.18-5.68c-.69-5.37-4.24-7.11-8.73-7.56v0a3.1,3.1,0,0,1-1.09-.08v0c-3.8-.21-8.12.32-11.93.32-11.34,0-22.64-1.28-34-1.26-4.31,0-14.43.33-19.47,1.29s-13.12,3.27-18.46,6.33c-2.37,1.36-26.54,17-30,18.32s-23.5,3.22-27.21,2.48c-10.9-2.18-21.35-8.52-32.86-8.65-7.73-.08-15-.23-22.44,1.27-.67-3.88-1.17-6.44.25-11.86,1.09-4.15,14.21-46.24,9.5-46-2.43.12-9.37,28.73-10.56,32.33-3.13,9.39-3,17.65-2,26.16-4.17.91-7.27,3.31-11.32,5C115,211.56,106.62,218.69,96.68,222c-2.93,1-6,1.5-5.12,6.19.39,2,1.49,11.27,3.61,11.12,6.38-.44,10.8,10.68,15.13,17,9.37,13.57,19.56,23.86,34.19,27.59.49,4.09,9.18,19.13,10.4,23.13,4.41,14.39,2.25,18.11,9.77,30,4,6.66,10.62,14.56,15.1,20.78,5,5.28-1.55,19.35,2.91,20.14-3.48,6.56,2.56,8.29,1.2,14.63-4,5.66-21.93-3.44-25.13,6.2-1.34,4,11.25-1.61,14.17-.67-4.33,7,5.82.61,7-.07,4.73-2.68,6.68,1.59,7.76-6.05.56-4-6.66-7.44-1.26-10.8s-2.05-3.42-2.12-6.05c0-1.44,2.51-5.91,3.63-5.59s2,4.1,4,8.26c3.29,6.93,6.52,14.63,16.08,19.25,10.93,5.3,24.8,7.73,36.75,7.73,17.58,0,33.17-7.19,45.42-19.71,6.85-7,11.09-16.62,18.7-22.83,6.78-5.55,21.08-16.09,21.18-11.42.09,4.3-3.28,4.87-4.32,9.08-1.14,4.59,1.56,4.15,2,7.19.63,4.25,1.52,2.62,0,7.55-2.42,7.64-5.19,10.93,5.77,9.09-2.56,4.28-14,21.84-3.88,23.81-7.2,6.38-6.52,13.29,4.12,12-5.09,9.22-2,20.68,0,11.94.39-1.67,4.1-12.58,3.53-13.91-1.73-4.13-6.87.15-9-1.37C323.84,413,342.39,406,341,402.8c-1.35-3-8.34,2.36-10.49.74-4.43-3.34.77-9.26,3-12.73,1.08-1.69,7.36-8.54,5.38-11.1-1.4-1.82-6.17.58-7.83-.82-.84-5.29,13.58-5.64,9.09-11.88-1.36-1.9-6.4.52-7.89-3.22-2-5.1,4-6.4,5.48-10.34,4.17-11.18-7.34-10.28-3.63-15,8.11-10.32,7.57-31.35,7.1-39.7s0-14.8,0-21.12C341.23,273.19,341.43,269.35,343.07,265.11Zm-226.94-5.2c-5.31-7.36-11.52-23.24-16.63-23.29-3.25,0-3.81-6.26-3.35-9.56a84,84,0,0,1,7.11-4.56C109,219.12,114.62,215,120.83,212c5.92-2.88,10.21-5.45,16.3-6.83.13.88.4,1.92.61,2.82-7.31,1.65-13.52,3.88-19,8.44C103.37,229.31,117.82,262.25,116.13,259.91Zm9.64,6.77c-10.83-14.88-20.33-45.94,7-55.58a51,51,0,0,1,5.48-1.35,33,33,0,0,0,1.65,3.81c8.76,21.5-1.79,39,4.47,63.65C136.13,275,129.67,272,125.77,266.68Z"/><path d="M196.65,58.55a3,3,0,0,0-3.42.23c-1.09,1.86,2.66,2.95,2.34,4-.22.74-2,3.83-2.36,5.24-1.47,6.39.4,4.69-4.54,7-2.3,1.06-10.67-2.48-10.8,3.47,0,1.24,7.29.43,7.85,2.75s-11.9,2-15,6.48c-2,3,2.11,2.25,1.83,7s-17.27,9.59-15,12.61c2,2.61,22.06-4.84,6.41,5.64-3,2-5.26,5.35.28,7.29,4,1.4.4,3.14,1,5.41.78,3,6.5-1.56,6.82,2,.37,4.15-3.89,2.4-2.52,6.7,1.19,3.76,5.71-1.82,5,4.18-.23,1.92-3.8,2.28-4.15,3.78-1,4.12,6,3.35,6.22,4.26.44,2.14-7.33,2.46-4.17,6.45.76.95,2.55-1.14,4.32,0s-1.46,2.37-.88,3.74c1.65,3.84,13.54-5.41,2.78-7.33,2.38-2.34,3.08-6.6-1.15-7.2,2.6-3,2.35-8-1.91-9.25,2-1.35,2.52-3.7,1.29-6.58-2.22-5.16-10.58-7.38-7.43-10.78,4.91-5.28,5.81-8.77,1.57-10.62S184.52,99.69,181.19,94s5.4-5.75,8.47-9a7.22,7.22,0,0,0,2.77-6.61A11.19,11.19,0,0,0,196,75.6C198.32,70.66,204.26,60.57,196.65,58.55Z"/><path d="M294,126.16c-2.37-3.44-6.49-.29-7.15-2.77-1-3.62,7.24-6.44,5.21-9.32s-8.11-.37-7.37-4.88c.66-4,12.36-4.7,10.58-9-1.62-3.86-17.64,5.27-17.81,11.35-.06,2.38,7.76,3.71,5.46,5.85s-5,6-3.8,9c.72,1.87,5.33,1.31,6.14,2.73s-1.38,3.68-.82,5.05c1.33,3.29,8.88,5.33,9.9,3.47,1.18-2.14-5.1-2.39-5.12-4.65C289.19,130.31,296.37,129.59,294,126.16Z"/><path d="M481.23,318c1.13-2.27-11.63-4-13.85-7.17-4.56-6.49,14.31-9.29,3.77-15.34-4.37-2.51-7.17,1.59-7-4.3.1-3.26,4.22-4.45,4-7.82-.27-3.95-5.23-4.68-5.58-6.86-.74-4.65,4.62-7,5.93-10.73,5.06-14.41-13.88-1.2-13.74-13.11.06-4.87,2.33-8.1-1.14-13-1.7-2.42-1.74-2.08-2.77-4.95-1.1-3,11-8.06,10.41-11.61-1.19-7.28-22.64,8.79-19.39,14,2.12,3.4,6.79,2.83,8.13,7.15,1.85,5.94-6.47,10.49-.29,16.25,3.67,3.42,8.07,4,12.59,3.9-2.59,4.14-4.27,6-4.28,11.28,0,5.51,4.93,5,5.58,7.77.75,3.21-3,3.83-3.85,7.32-1.76,6.77,3.24,8.68,9,8.68C446.43,317,480.09,320.24,481.23,318Z"/><path d="M452.48,400.49c-.5-4.41,2.92-4.13,2.9-8.79-.05-7-5.84-3.5-9.91-6.31-5.29-3.66-.48-5.84,4.07-8.57,22.43-13.46-3.3-2.14-4.2-10.75-.67-6.36,11.37-4.47,7-12-1.12-1.92-11.7-1.62-10.83-5,.62-2.4,11.5-2.54,13.53-5.24,3.74-5,3.07-7.3-.63-10.89-4.83-4.68-10.61-3.23-9.61-11,.58-4.55,9.51-8.92,8.94-13.77-1.3-11.18-15.6,10.87-14.45,16.8,1.54,8,17.15,9.55,7.21,16.25-3,2-7.14,2.3-9.13,6.43-2.87,6,4.59,7.92,8.71,8.89-9.16,5.09-12.33,16.29,1.3,16.52-4.29,2.38-11.88,6.92-9.79,13.08,2,5.88,8,2.9,12.3,5.21-5.71,9.23-.09,13.52,1.23,16S452.72,402.55,452.48,400.49Z"/><path d="M435.87,398.23c-6-2-16.74.13-21.29,3.37-11.93,8.47,6.64,8.5,11.54,13.36-7.74,3.19-31,9.08-15.25,18.21,4.52,2.63,8.8,1.07,4.95,5.27s-12.36,1.54-11.65,8.79c.27,2.8,8,16.07,10.8,16.93,6.4,1.95-.32-6.29-.94-7.26-1.54-2.4-5.76-7.61-4.94-10.21,1.3-4.06,8.55-3.62,11.05-6.8,6.9-8.78-19.66-10.95,0-18.35,3.84-1.44,12.39-2.76,9.41-8.24-2.13-3.92-16.8-2.95-14.3-8.23s22.08-.75,23.12-4.9A2.77,2.77,0,0,0,435.87,398.23Z"/><path d="M70.84,331c-3.9,2.1,11.34,6.26,14.49,9s4.6,3.57,4.74,6.85c.3,6.8-15.89,5.84-14.73,10.57,1.07,4.35,12.73.14,15.65,2.93,9.22,8.78-11.48,6.47-12.18,10.95-.94,6,14.67,2.92,7,11.61-2,2.23-7.32,1-8.48,4.54-1.91,5.81,2.76,2.8,4.23,6.22,1.93,4.49,3.32,2.48,1.5,6.61-.92,2.06-5.41,3.13-5.88,4.51-2.79,8.08,5.74,2.09,6.52,8,.39,2.91,10-5.86,1-6.73,6-4.61,4.85-12.65-1.45-16.46,5.13-3.28,12.7-12.17,5.41-17.37,9.68-3.7,10.85-14.48-.2-16.86,4.85-3.49,7.87-7.32,3.44-15.86S76.12,328.13,70.84,331Z"/><path d="M42.45,350.34c.38-5.85-2.63-10.78-9.41-13.55,2.79-2.25,4.29-8.8,4.59-15.53.58-3,.2-8.46.18-10.36,0-2.72,7.15-3.44,4.78-6.87s-6.5-.29-7.15-2.77c-1-3.62,7.24-6.44,5.21-9.32s-8.11-.37-7.37-4.88c.66-4,12.36-4.7,10.57-9-1.61-3.86-17.63,5.27-17.8,11.35-.06,2.38,7.76,3.71,5.46,5.85s-5,6-3.8,9c.52,1.35,3,1.44,4.73,1.91-.45,4.53.55,13.37,1,15.64.64,3.51-1.67,7.6-2.91,9.87s-5.79,3.21-6.6,5.2c-3.58,8.89,8.12,3.95,12.73,7.78,5.26,4.37-6.69,12.14,4,14.38,2.42.51,5-4.16,8.21-2.26,4.58,2.74-.85,4.07-2.61,5.41C45,363.15,27.55,365.47,29,369c1.09,2.66,8.05-1.14,7.28,4.43-.43,3.13-3.91,3.24-6.86,4.18-2.12.67,2.7,7.88,10.45-.42,2.23-2.4,3-5.66.43-7.93,5.6-1.43,13.71-4.22,14.19-9.72C55.26,350.6,48.86,351.75,42.45,350.34Z"/><path d="M140.59,393.31s.77-7.3-.09-8.58c-2.12-3.18-7.85-3.76-11.23-4.65,2.34-1.58,8.4-4.5,6.61-7.94-2.32-4.46-9.9-.36-5.43,2.12-2.81,2.09-21-1.08-18.32,2.88,2.36,3.44,19.79,6.53,22.82,9.16,11,9.48-23.78,4-18.6,11,3.33,4.52,24.62-4.76,25.18,2.64.26,3.4-12.21,5.08-14,6.62-7.61,6.74,2.61,1.82,5.15,6,.14.29-.85,7.78-.85,8,0,.89,1.78,2,1.78,2.9s-1.24,1.58-1.25,2.17c-.08,4.32,1.26,13.29,1.12,18.14-.5,17.9-2.36,20.53-2.3,38.46,0,6.6,4,11.08,4.33-2.82.38-16.1.83-21.32.82-37.43,0-5.15.56-10.28,1-14.7.3-3.3.15-3.66-.78-7.44-.38-1.57-1.12-2.88-1.45-4.32-.75-3.32,3.74-3.26-.13-6.9C142.34,405,150.68,400.05,140.59,393.31Z"/><path d="M376.74,266.49c8.54-5.56-.13-9.25-1.94-10.42,5.76-5.19,14.5-21.88,1.59-24.88,3-4.31,6.57-15.67-.05-18.94,8.43-7.95,5.7-24.18-5.31-24.12,9-10.35-1.57-17.53-8.59-14.67,4.14-3.91,9.5-4.09,10.42-13.36.78-7.93-.15-12.74-5.22-13.48,4.81-6.49,4.9-13.54-3.07-19.83-5.4-4.27-10.72-2-15.29,1-.8-9.59-9.77-6.53-13.56-6.74,2.15-8.73,12.38-25.37,2.21-21.1-8.84,3.71-10.57,13.64-3.46,11-1.81,4-6,10.48-1.3,15.33,2.21,2.29,4.47-1,6.68.39,8.6,5.62-.91,7,4.09,11.78,5.56,5.26,8.41-9,14.4-7.55,15.25,3.72,2.32,14.12-1.5,16-5.14,2.54-11.85,6-3.26,8.9,3.89,1.32,12.37-6.79,15.54.58S357,168.5,357,174.08c0,7.73,9.2,4.58,12.66,6.43-2.76,3.11-10.38,3.13-7.66,11.12,2.44,7.17,11.75.25,13.81,7.31,3.92,13.44-22.84,10.11-6.66,18.37,6.78,3.45,10.37-1.25,2.59,9.52-6.34,8.77-7,6.55,1.21,10.79,9.61,4.95,6.49,3.57,0,11.81C369.46,253.83,366,272.65,376.74,266.49Z"/><path d="M289.91,158.08c-11.37,3-26.7-6.8-42,6.83-4.26,3.79-13.14-3.22-10.64,10,1.56,8.24,17.38-8.22,22.93-10.64,7.65-3.33,16.39,1.4,25.26-1.51,14.74-4.85,25.83,5.89,23.77,1.63S299.39,155.6,289.91,158.08Z"/><path d="M298.33,207.63c-10.43-4.9,3.76-6.29-11-6.78-3.46-.11-13.41-1.16-17-.54-8.09,1.41-6.37,3.81-10,5.31-2.41,1-12.88,7.18-12.09,11.45.25,1.41,25.66,4.33,29.51,4.45,14.22.43,17.32-6.84,22.48-10.09C300.81,211.11,300.49,208.65,298.33,207.63Zm-43.52,7.92c-2.13-1.43,9.64-9.31,11.4-9.51s-.78,2.29-.25,5.82c.43,2.91,2.69,4.25,2.74,5.61S257.06,217.05,254.81,215.55Zm29.43.36c.51-1,2-2.53,2-4.43,0-2.95-2.09-6.88,1.52-5.69.83.27,4.81,3.18,5.07,3.84C293.63,211.8,287.15,216.91,284.24,215.91Z"/><path d="M185.94,220.72a4.79,4.79,0,0,0-1.38-1.94,5,5,0,0,0-1.59-.62L174.41,216a41.36,41.36,0,0,0-6.94-1.37c-1.72-.14-3.46-.06-5.18-.18s-3.53-.37-4.95.56a3,3,0,0,1-.92,1.82l-7.69,9a20.89,20.89,0,0,1,4.74,3.76c.76.88,1.36,1.89,2.15,2.75a13.09,13.09,0,0,0,3.12,2.41c2.1,1.22,4.53,2.14,6.92,1.71a11.36,11.36,0,0,0,3.31-1.3c1.52-.82,3-1.74,4.45-2.66l5.34-3.35a20.24,20.24,0,0,1,6.88-3.13c1.21-.23,1.86-.06,1.8-1.46A10.84,10.84,0,0,0,185.94,220.72ZM165.45,230.8a10.7,10.7,0,0,1-4.34-.73c-2.51-1-4.63-2.91-7.27-3.45a.67.67,0,0,1-.41-.18c-.22-.28.11-.65.41-.84,1.39-.9,7-5.82,8.47-3.88.67.9.47,3.06.94,4.2a8.27,8.27,0,0,0,2.65,3.67c.23.19.49.43.44.72S165.82,230.79,165.45,230.8Zm19.71-6.6c0,.28-1.69.87-1.93.92-1,.22-3.2,2.36-2.8,1.06a10.35,10.35,0,0,0,.82-3,5.72,5.72,0,0,0-1.2-3c-1.18-1.28,3.19.53,4,1.39A3.53,3.53,0,0,1,185.16,224.2Z"/></svg>