<svg xmlns="http://www.w3.org/2000/svg" viewBox="0 0 20 20">
  <path d="M19.5 4h-14c-.276 0-.5-.224-.5-.5s.224-.5.5-.5h14c.276 0 .5.224.5.5s-.224.5-.5.5zm0 7h-14c-.276 0-.5-.224-.5-.5s.224-.5.5-.5h14c.276 0 .5.224.5.5s-.224.5-.5.5zm0 7h-14c-.276 0-.5-.224-.5-.5s.224-.5.5-.5h14c.276 0 .5.224.5.5s-.224.5-.5.5zM1.5 6c-.276 0-.5-.224-.5-.5V2H.5C.224 2 0 1.776 0 1.5S.224 1 .5 1h1c.276 0 .5.224.5.5v4c0 .276-.224.5-.5.5zm1 7h-2c-.276 0-.5-.224-.5-.5v-2c0-.276.224-.5.5-.5H2V9H.5C.224 9 0 8.776 0 8.5S.224 8 .5 8h2c.276 0 .5.224.5.5v2c0 .276-.224.5-.5.5H1v1h1.5c.276 0 .5.224.5.5s-.224.5-.5.5zm0 2h-2c-.276 0-.5.224-.5.5s.224.5.5.5H2v1H.5c-.276 0-.5.224-.5.5s.224.5.5.5H2v1H.5c-.276 0-.5.224-.5.5s.224.5.5.5h2c.276 0 .5-.224.5-.5v-4c0-.276-.224-.5-.5-.5z"/>
</svg>
