<?xml version="1.0" encoding="utf-8"?>
<!-- Generated by IcoMoon.io -->
<!DOCTYPE svg PUBLIC "-//W3C//DTD SVG 1.1//EN" "http://www.w3.org/Graphics/SVG/1.1/DTD/svg11.dtd">
<svg version="1.1" xmlns="http://www.w3.org/2000/svg" xmlns:xlink="http://www.w3.org/1999/xlink" width="20" height="20" viewBox="0 0 20 20">
<path d="M19.5 0h-5c-0.276 0-0.5 0.224-0.5 0.5s0.224 0.5 0.5 0.5h3.833l-11.186 11.146c-0.196 0.195-0.196 0.511-0.001 0.707 0.098 0.098 0.226 0.147 0.354 0.147s0.255-0.049 0.353-0.146l11.147-11.107v3.753c0 0.276 0.224 0.5 0.5 0.5s0.5-0.224 0.5-0.5v-5c0-0.276-0.224-0.5-0.5-0.5z" fill="#000000"></path>
<path d="M16.5 20h-15c-0.827 0-1.5-0.673-1.5-1.5v-15c0-0.827 0.673-1.5 1.5-1.5h10c0.276 0 0.5 0.224 0.5 0.5s-0.224 0.5-0.5 0.5h-10c-0.276 0-0.5 0.224-0.5 0.5v15c0 0.276 0.224 0.5 0.5 0.5h15c0.276 0 0.5-0.224 0.5-0.5v-10c0-0.276 0.224-0.5 0.5-0.5s0.5 0.224 0.5 0.5v10c0 0.827-0.673 1.5-1.5 1.5z" fill="#000000"></path>
</svg>
