<svg xmlns="http://www.w3.org/2000/svg" viewBox="0 0 559.3 393.32">
  <path d="M125.48 27.39l-4.92-4.26-4.92-4.27h19.69l-4.92 4.27-4.93 4.26m124.99 0l-4.92-4.26-4.92-4.27h19.68l-4.92 4.27-4.92 4.26m124.98 0l-4.92-4.26-4.92-4.27h19.69l-4.92 4.27-4.93 4.26m124.99 0l-4.92-4.26-4.93-4.27h19.69l-4.92 4.27-4.92 4.26M.35 18.86H.04v8.26l.31.27 4.93-4.26 4.92-4.27H.35m504.32 13.96l4.26 4.92 4.26 4.93V22.98l-4.26 4.92-4.26 4.92m0 120l4.26 4.92 4.26 4.93v-19.69l-4.26 4.92-4.26 4.92m0 120l4.26 4.92 4.26 4.93v-19.69l-4.26 4.92-4.26 4.92m8.1 110.58l-4.26 4.92-3.8 4.39h8.06v-9.31" class="chart-triangle"/>
  <text class="chart-text" transform="translate(104.37 14.37)">
    Grid line
  </text>
  <text class="chart-text" transform="translate(517.07 156.9)">
    Grid line
  </text>
  <path d="M.5 32.82h500v120H.5z" class="chart-line"/>
  <path d="M125.48 32.82v360H.5v-360z" class="chart-line"/>
  <path d="M.5 272.82h500v120H.5z" class="chart-line"/>
  <path d="M500.44 32.83v360H375.46v-360zm-124.99-.01v360H250.47v-360zM.5 152.82h3" class="chart-line"/>
  <path d="M6.48 152.82h489.53" class="chart-dashed"/>
  <path d="M497.5 152.82h3m-375.02-120v3" class="chart-line"/>
  <path d="M125.48 38.82v349.5" class="chart-dashed"/>
  <path d="M125.48 389.82v3" class="chart-line"/>
</svg>
