<svg xmlns="http://www.w3.org/2000/svg" viewBox="0 0 1391.9 1022">
  <path d="M22.3 507.7L5 490.4v-17.3c69.1-60.5 164.2-146.9 233.3-224.7l34.6 25.9c-43.2 69.1-95 138.3-155.5 198.7 86.4 103.7 86.4 112.3 146.9 207.4l-34.6 25.9c-34.6-34.6-43.2-51.8-86.4-86.4-51.9-60.4-43.3-51.7-121-112.2zm1106 172.8c51.8-95 60.5-95 146.9-207.4-51.8-51.8-112.3-129.6-146.9-198.7l25.9-25.9c69.1 69.1 155.5 155.5 233.3 224.7v17.3l-69.1 60.5c-25.9 25.9-103.7 95-155.5 146.9l-34.6-17.4z" class="st0"/>
  <path d="M229.7 948.4h34.6c77.8 0 95-17.3 95-121V179.3c0-95-17.3-121-95-121h-34.6V6.5h388.8V67h-25.9c-77.8 0-95 17.3-95 121v276.5H895V179.3c0-95-17.3-121-95-121h-26V6.5h388.8V67h-34.6c-77.8 0-95 17.3-95 121v648c0 95 17.3 121 95 121h34.6v60.5H774V957h25.9c77.8 0 95-17.3 95-121V525H497.5v302.4c0 95 17.3 121 95 121h25.9v60.5H229.7v-60.5z" class="st0"/>
</svg>
