<svg xmlns="http://www.w3.org/2000/svg" viewBox="0 0 20 20">
  <path d="M17 8c-.412 0-.794.125-1.113.34C15.613 7.56 14.87 7 14 7c-.412 0-.794.125-1.113.34C12.613 6.56 11.87 6 11 6c-.364 0-.706.098-1 .27V3c0-1.103-.897-2-2-2s-2 .897-2 2v7.373L4.654 8.04c-.26-.475-.687-.813-1.2-.953-.498-.136-1.017-.064-1.46.202-.908.54-1.254 1.77-.77 2.74.03.06.667 1.37 2.66 5.35.937 1.87 1.966 3.21 3.058 3.98.857.6 1.45.63 1.56.63h5c.847 0 1.63-.247 2.33-.73.676-.47 1.26-1.154 1.734-2.035C18.506 15.492 19 12.99 19 10c0-1.104-.896-2-2-2zm-.315 8.763C16.135 17.783 15.137 19 13.5 19H8.51c-.04-.003-.46-.05-1.095-.525-.633-.474-1.605-1.472-2.638-3.54-2.027-4.054-2.65-5.33-2.656-5.343v-.004c-.25-.503-.07-1.162.39-1.44.21-.124.45-.157.69-.094.25.068.46.236.59.472l.007.01 1.56 2.705c.32.59.68.83 1.068.73.39-.1.588-.49.588-1.15V3c0-.55.45-1 1-1s1 .45 1 1v6.5c0 .277.226.5.5.5s.5-.223.5-.5V8c0-.55.45-1 1-1s1 .45 1 1v1.5c0 .277.226.5.5.5s.5-.223.5-.5V9c0-.55.45-1 1-1s1 .45 1 1v1.5c0 .277.226.5.5.5s.5-.223.5-.5V10c0-.55.45-1 1-1s1 .45 1 1c0 2.827-.453 5.166-1.313 6.764zM4.5 2c-.075 0-.15-.017-.223-.053l-2-1C2.03.824 1.93.523 2.053.277s.424-.348.67-.225l2 1c.248.123.348.424.225.67C4.86 1.9 4.684 2 4.5 2z"/>
  <path d="M2.5 5c-.183 0-.36-.1-.448-.277-.123-.247-.023-.547.224-.67l2-1c.247-.124.547-.024.67.223s.024.547-.223.67l-2 1C2.65 4.984 2.575 5 2.5 5zm9-3c-.183 0-.36-.1-.448-.277-.123-.247-.023-.547.224-.67l2-1c.247-.124.547-.024.67.223s.024.547-.223.67l-2 1c-.072.037-.148.054-.223.054zm2 3c-.075 0-.15-.017-.223-.053l-2-1c-.247-.123-.347-.424-.224-.67s.424-.348.67-.225l2 1c.248.123.348.424.225.67C13.86 4.9 13.684 5 13.5 5z"/>
</svg>
