<svg xmlns="http://www.w3.org/2000/svg" viewBox="0 0 456.5 629.93"><polygon points="228.25 629.93 114.13 516.88 0 403.83 228.25 403.83 456.5 403.83 342.38 516.88 228.25 629.93" class="fill-white"/><path d="M246.37,133.48c1.94-4.05-5.66-11.49-10-9.88-1.27.47.54,2.76-.54,3.53-3.56,2.54-8.14-8.74-11.08-4.61-.56.78-.43,1.69-1.25,2.17-2.3,1.35-9.12-7-12.11-2.85-.84,1.16.24,2.33-.57,3.49-3.22,4.59-19.3-9.26-20-1.77-.1,1.11,0,1.06-.09,2.17-.57,5.41-19,1-16.35,8.45,1.36,3.84,6.32-2.69,10.56-3.93,4-1.17,8.4.71,10-1.9.65-1.08-1.32-2.55-.87-3.73,1.67-4.44,16.12,9.93,20.38,3.49,1-1.53-1.36-1.81-.48-3.41,2.64-4.77,11.74,9.72,14.43,4.6.75-1.43-.4-1.82.71-2.06,2.2-.47,5.64,8.54,10,5.23,1.72-1.31-.16-5.58.94-3.72C241.39,130.87,245.4,135.51,246.37,133.48Z" fill-rule="evenodd"/><path d="M286.27,136.43c-1.33-1.13,1.1-4.26-.54-3.87-3.41.8-4.62,6.66-2.61,9.54,1.26,1.8,6.36-5.08,6.12-3.15-.27,2.16-1.59,3.26.81,4.68,2,1.17,6.84-.62,10.62-.9,8.37-.63,15.83,9.63,14.89,5.83-.45-1.8-5.79-12.22-14.18-7.9-2.05,1.06-3.2-2.42-5.64-3.32-.5-.18-2.8,2.58-3.43,1.61-1.51-2.31,2.05-3.44,1.38-6.12C292.85,129.55,287.84,137.75,286.27,136.43Z" fill-rule="evenodd"/><path d="M227.88,149.23c-5.65-2.27-3.17-4-3.21-9.52,4.17,2.68,1.67,5.07,3.21,9.52C226.41,148.64,227.23,147.36,227.88,149.23Zm-33-5.28c3.9-2.58,11.61-7.32,16.16-7.67-1.82,1.69-2.22,9.61.39,10.9-6,.83-11-1.57-16.55-3.22C199.71,140.78,200.28,145.54,194.89,144Zm44.63,7.34c-8.44-7.94-13.13-17.43-26-17.83-2.23-.07-30.48,8.42-28.25,13.08-1-2,19.33,4.76,20.95,4.89,4.59.37,11.7-1.32,17.56,0,3.81.86,5.27,3,9.93,2.23-.48-3.44-4.34-6.91-5.21-11.09,2.11,1.83,9.31,11.84,12.75,11.09a2.24,2.24,0,0,0-1.71-2.4C233.12,145.26,240,151.74,239.52,151.29Z" fill-rule="evenodd"/><path d="M268.43,143.84c6.17,9.84,5.32,25.78,7.91,37.5,3.44,15.55,16.43,22.53,6.82,36.88-8.71,13-20.77,13.36-33.59,2.27-3.48-3-1.2-3.49-4.75-5.65-2.82-1.72-8.33.43-11.63-1.16-2.48-1.2-5.42-6.52-10.23-11.4-1.57-1.59-1.79-4.28.94-5,2.1,2,2.91,4.73,4.74,6.94,2.48,3,4.5,3.73,8.51,5.51,7.57,3.36,30,0,24.42,11.18-1.29,2.59-5.75-2.34-9.31-3.28,0,3.49,13.91,9.5,19.3,7.67,6-2,12.48-13.05,12.09-17.67-.71-8.53-9.12-15.6-10.93-24.88-2.09-10.74-4.31-28-4.31-38.9" fill-rule="evenodd"/><path d="M247,194.86c-2.65-1.16-5.28-4.76-7.79-5.56,5-1.33,14.08,1.44,10.91,5.78C249.62,195.71,247.85,195.24,247,194.86Z" fill-rule="evenodd"/><path d="M283.59,256c-1.14-2-3.68-6.5-4.41-7-3.37-2.4-17.1-2-19.34-3.11-2.66-1.33-18.63-6.83-26.07-7.72-1.17-.14-14.65.69-13.39,1.35.6.31,15.22.23,16.19.66,6,2.63,17.9,7,21.74,7.87,4.84,1.1,12.17.29,17.06,1.57,3.38.88,6.23,5.56,4.08,4.83s-7.58-3.55-11.37-3.08c-11.88,1.48-18.26-3.28-29.6-7-4.16-1.38-47.05-7.92-45.4,2.66,14.4,12,35.41,33.94,54.75,33.6,9.6-.17,16.79-.57,23.24-7.8,3.8-4.26,10-14.19,12.54-14C287.08,259.08,286.26,257.66,283.59,256ZM260,274.24c-18.5,3.65-45.2-8.39-61.62-27.29-2.79-3.21,32.87-3.54,36-2.49,6.49,2.15,11.83,7.38,18.39,9.21,9.39,2.61,18.45-3.16,26.82,3.47C274.51,263,268.51,272.57,260,274.24Z" fill-rule="evenodd"/><path d="M275.08,274.07c.65-5.29-6.59,13.19-10.64,15.65-5.07,3.08-8.67-2.29-13.69-2.92-4.64-.59-12,2-15.77.6-6.08-2.33-10.72-8.87-16.35-12.48-5.46-4.4-7.29-3.49-.69,1.36,4.9,3.32,8.85,12.26,13.88,14.85,4.87,2.5,9-.65,14.54,0,4.58.57,13.2,5.49,17.82,3.94C268,293.83,274.48,279.06,275.08,274.07Z" fill-rule="evenodd"/><path d="M276.36,344.27c0,17.07-14.5,27.67-21.73,42.11-7.35,14.69-7.66,22.69-22.39,30-12.4,6.14-35.76,18.05-49.84,15.91-10.62-1.61-21.94-17-29.11-24a153.08,153.08,0,0,1-25.89-33c-7.74-13.7-4.2-28.19-5.54-43.52-1.91-21.87-9.55-59.88-14.13-81.28-3-13.79-3.83-20,1.78-12.7,3.78,4.94-1,59.31,34.82,67.25-6.27-9.19-15.25-12.94-20.29-23.54A134.34,134.34,0,0,1,114.69,253c-1.84-8.31,1.75-34.48-3.87-38.71-2.56,5.47-.1,13.2-.4,18.87-6.72-7.27-4-11.73-14.7-13.77-5.77-1.1-7.93.2-12.69-4-7.69-6.72-9.43-23-9.69-32.07-.22-7.55.17-28.41,10-31.26,9.28-2.7,10,11.6,18.84,7.33-.06,4.23-.39,11.89,1.65,15.71.68,1.28,0,3.83.95,5,.71,1,5-.06,4.85-.33,1.74,2.48,3.46,17.94,7.67,19.4,6.45,2.25,10.52-58.41,12.35-66.54,3.79-16.89,9-10.87,21.63-18.14,8.68-5,20-19.47,20.55-28.42.43-6.65-7.72-2.69-2.65-10.64,2.09-3.27,9-2.4,11.22-5.79s-.46-8.19,1.62-11.84c2.83-5,8.36-6.37,13.59-7.36,10.63-2,21.68,1,32.3,1.58,13.37.77,25.19-3.22,37.79,2.43,10,4.5,25.26,11.57,32.62,19.89,7.59,8.58,10.85,25.13,13.17,36.26,1.48,7.11-.45,14.75,1.27,21.73,1.44,5.87,5.41,9.49,6.09,15.65,1.76,16-8.2,31-5.73,47.92,4.81,32.82,2.74,54.47-14,83.95-7.45,13.1-23.28,26.68-29.61,40.32-6,12.88-3,26.72-18.61,32.5-12.59,4.66-18.62-3.28-33.55-5.36-8.35-1.16-20.08-4.3-24.8-11.4-2.37-3.55-10.39-24.23-9.82-20,1.46,10.87,5.82,22,14,28.91,7.57,6.41,20.12,7.94,29.56,10.53-2.54,15.62-19.34,9.64-30.88,29.05-1,1.75,8.8-6.43,15-10.3,3.25-2,9.36-5.67,12.58-7.48,4.6-2.57,6.93-9.12,10.21-9.47,8.79-.93,15.62,1.75,24-3.87,7.83-5.27,11.87-15.48,14.45-24.12,3.56,2.43,4.82,11.18,4.81,15C276.35,349.84,276.37,338.7,276.36,344.27ZM79.15,130.47c.87-4.62.65-11.89.52-17.07C79.43,103,75,96.72,82.49,90.35,84.11,89,92.41,88,92.88,84.54c.87-6.44,8-19.77,10.86-22.76,3.77-3.92,2.37-8.34,4.11-13.27,7.22-20.52,36.83-16.7,55.29-22.44,8.22-2.55,9.25-13,16.86-15.92,7.34-2.78,16.7-.34,24.76-3.2,12.47-4.42,16.8-2.52,29.73-.09,4.81.9,8.21-.1,11.81,3.24,4.93,4.58,1,7.62,8.29,10.3,3.83,1.41,9.54-3.56,14-2.34s7.28,6.71,10.27,9.62c6.76,6.59,11.43,12.51,17.12,19.49s13.15,10.57,17.26,18.77c3.6,7.17,8.6,19.51,9.3,27.31,1,10.77-5.09,20.95-1.22,31.66,1.69,4.7,3.64,5.59,3.4,11.07-.2,4.64-3.18,10.79-4,6.27-1-5.38-3-5.23-4.7-11.32-1.77-6.31-.09-17.12-1-23.51-1.5-10-7.06-21.85-10.91-31.47C297.78,60.1,266,46.53,249.77,46.16c-13.28-.3-25.83,1.33-39.26.65-8.82-.44-27.46-3.07-34.12,4.57-3.95,4.52,3.82,11.18,1.15,16-2,3.6-10.64,3.12-12.82,6.11-6.55,9,3.87,10-.61,20-8.86,19.59-33.24,16.74-38.69,35.92-3.53,12.44-2,27.17-2.75,40-.21,3.39-.87,11.81-3.69,14.63-2.15,2.15-3.41-4.6-4.91-7.06-3.75-6.14-6,2.13-8.6-7.68-.35-1.31.64-13.57,0-14.43-2.39-3.23-5.83,3.07-9.83-1.84-5.51-6.78-7.37-11.36-15-5.22-3,2.39-7.12-2-5.53-5.83C76,139.67,78.32,134.85,79.15,130.47ZM320.88,350.93c-12.83-7-30.33-13.61-42.1-22.26-6.94-5.1-6.54,1-5-8.54.46-2.81,5.58-8.44,6.89-10.17,6.2-8.22,13.16-15.57,18.42-24.52,9.31-15.83,16.5-34.32,18.57-52.62,2.72-24.06-4.16-44.76,1.85-68.85,2.14-8.57,6-16.09,8-24,2.09-8.28-.22-8.94-2.88-16-3.34-8.84,2.59-20.26,3.14-29.09.61-9.87-5.12-14.54-8.36-23.17-3.66-9.74-4.76-10-12.45-17.63-4.14-4.11-6.47-9.13-9.67-13.55-5.32-7.35-10.52-16.22-18.46-22.12-9.28-6.88-12.23-.82-21.25-3.83-6.39-2.13-7-9.12-12.37-12.89-4.58-3.25-15.07,1.11-20.53.36-10-1.38-12.08-3.54-21.27-.54-7.81,2.55-18,1-25.43,3.31-8.22,2.56-8.47,10.39-15.68,13.93-5.38,2.64-17.78-.48-24.39,1.39-8.11,2.31-13.45,9.67-21.24,13-9.36,4-9,6-12,14-3.42,9.15-3.76,8.83-11.45,16.4-5,4.92-4.32,7.46-6.54,12.41-1.2,2.66,0,3.89-1.87,6.84-1.56,2.45-6.15,2.4-7.9,4.83-4.12,5.72-1.7,15.73-2.24,22.87s1,15.08-.08,21.6c-1.19,6.89-5.63,5.88-3.87,14.32.57,2.74,2.79,5.44,3.1,8.06.55,4.64-2.44,9.08-3.34,14.18A70.21,70.21,0,0,0,69.9,185c.5,7.44,1.69,15.6,4.34,22.6,4.9,12.92,13.36,10.49,21.32,19,10.18,10.85,10.19,39.61,13,53.41,4.64,23,11.08,50.52,7.87,73.82a50.26,50.26,0,0,1-9.41,22c-6,8.15-26.83,18.54-18.75,15.6a40.55,40.55,0,0,0,13.62-7.85c4.91-3.8,16.31-11.18,18.41-7.37,4.15,7.51,27.43,34.31,28.81,35.71,11,11.14,24.79,28.76,41.49,24.81,15.24-3.6,42-11.5,53.6-21.22,10.71-9,14.74-27.48,23.38-39.54,5.38-7.51,11.72-14.65,13.44-24.19,1.47-8.16,1-6.87.54-14.52,19.65,11.12,32.46,13.84,49.46,29,18,16.09,41.62,30.23,72.23,29.16,17.93-.63-35.64-7.4-50.56-17.87C341.47,369.74,328.82,355.29,320.88,350.93Z" fill-rule="evenodd"/><path d="M303.81,165.46c-.56-.24-2.61-.84-1.94-1.27,2-1.27.19-4.34,1.83-1.93C304.74,163.79,305.5,166.18,303.81,165.46Zm-23.59-6c.83-3.47,10.1-1.89,11.88-1.83a5.37,5.37,0,0,0,.85,4.92C288.1,162.53,284.06,160.09,280.22,159.5Zm32.73,2.36c-.44-4.28-13-8.51-16.51-9.7-7.71-2.59-19.51-5.3-20.93,2.82-.42,2.39,2.39-6.76,17.27-.21,2.6,1.15-16.71-1.35-15.93,5.41.5-.38,9.48,4.85,17.8,7,6.35,1.68,12.41,1.29,13.37,1.8.47-4.32-6.4-12.2-2.82-10.55,2.74,1.26,6.31,1.08,5.57,11a8.66,8.66,0,0,0,2.19-7.58C312.42,156.71,313.16,164,312.94,161.87Z" fill-rule="evenodd"/><path d="M84.51,202.12c-.41-5,3.76-6,6.07-9.53.82-1.25,5-8.14,5.78-8.62,2.56.67,1,17,0,18.08-2.07-.22-1.53-6.08-1.68-7.15-5.15,1.94-11.14,5.87-4.83,11.51,1.89,1.69,7.4,1.95,9.18.84,3.34-2.09,1.44-8.34.94-13-.86-8.09-.81-17.47-7.07-23.41-4.7-4.46-10.75-2.89-11-9.09,20.69,6.47,24.37,27.76,20.58,45.76C101.22,213.25,85.21,210.72,84.51,202.12Z" fill-rule="evenodd"/><path d="M192.11,466.74c-8.38,0-61.61-39.62-60.78-40.79,4.5-6.35,40.6,26,49,27.34,10.44,1.62,26.8.42,35.31-5.13,3.27-2.14,32.94-23.83,34.74-21.07C255.24,434.54,199.71,466.74,192.11,466.74Z"/></svg>
