<svg xmlns="http://www.w3.org/2000/svg" viewBox="0 0 456.5 456.5">
  <path d="M247.3 130.8c1.9-3.9-5.5-11.2-9.7-9.6-1.2.5.5 2.7-.5 3.4-3.5 2.5-7.9-8.5-10.8-4.5-.5.8-.4 1.6-1.2 2.1-2.2 1.3-8.9-6.8-11.8-2.8-.8 1.1.2 2.3-.6 3.4-3.1 4.5-18.8-9-19.5-1.7-.1 1.1 0 1-.1 2.1-.6 5.3-18.5 1-15.9 8.2 1.3 3.7 6.2-2.6 10.3-3.8 3.9-1.1 8.2.7 9.7-1.9.6-1.1-1.3-2.5-.8-3.6 1.6-4.3 15.7 9.7 19.9 3.4 1-1.5-1.3-1.8-.5-3.3 2.6-4.6 11.4 9.5 14.1 4.5.7-1.4-.4-1.8.7-2 2.1-.5 5.5 8.3 9.7 5.1 1.7-1.3-.2-5.4.9-3.6 1.2 2.1 5.1 6.6 6.1 4.6zM286.1 133.7c-1.3-1.1 1.1-4.2-.5-3.8-3.3.8-4.5 6.5-2.5 9.3 1.2 1.8 6.2-4.9 6-3.1-.3 2.1-1.5 3.2.8 4.6 1.9 1.1 6.7-.6 10.3-.9 8.2-.6 15.4 9.4 14.5 5.7-.4-1.8-5.6-11.9-13.8-7.7-2 1-3.1-2.4-5.5-3.2-.5-.2-2.7 2.5-3.3 1.6-1.5-2.3 2-3.4 1.3-6-.9-3.2-5.7 4.8-7.3 3.5z"/>
  <path d="M229.2 146.1c-5.5-2.2-3.1-3.9-3.1-9.3 4.1 2.7 1.6 5 3.1 9.3-1.4-.5-.6-1.8 0 0zm-32.1-5.1c3.8-2.5 11.3-7.1 15.7-7.5-1.8 1.6-2.2 9.4.4 10.6-5.8.9-10.7-1.5-16.1-3.1 4.7-3.1 5.3 1.5 0 0zm43.5 7.1c-8.2-7.7-12.8-17-25.3-17.4-2.2-.1-29.7 8.2-27.5 12.7-1-1.9 18.8 4.6 20.4 4.8 4.5.4 11.4-1.3 17.1 0 3.7.8 5.1 2.9 9.7 2.2-.5-3.4-4.2-6.7-5.1-10.8 2.1 1.8 9.1 11.5 12.4 10.8.1-1-.6-2-1.7-2.3-6.3-5.8.5.5 0 0zM268.8 140.9c6 9.6 5.2 25.1 7.7 36.5 3.4 15.2 16 22 6.6 35.9-8.5 12.7-20.2 13-32.7 2.2-3.4-2.9-1.2-3.4-4.6-5.5-2.7-1.7-8.1.4-11.3-1.1-2.4-1.2-5.3-6.4-10-11.1-1.5-1.5-1.7-4.2.9-4.9 2 1.9 2.8 4.6 4.6 6.8 2.4 2.9 4.4 3.6 8.3 5.4 7.4 3.3 29.2 0 23.8 10.9-1.3 2.5-5.6-2.3-9.1-3.2 0 3.4 13.6 9.3 18.8 7.5 5.8-1.9 12.2-12.7 11.8-17.2-.7-8.3-8.9-15.2-10.6-24.2-2.1-10.6-4.3-27.4-4.2-38"/>
  <path d="M247.9 190.6c-2.6-1.1-5.1-4.6-7.6-5.4 4.9-1.3 13.7 1.4 10.6 5.6-.5.6-2.2.2-3-.2zM283.5 250.2c-1.1-1.9-3.6-6.3-4.3-6.8-3.3-2.3-16.7-1.9-18.8-3-2.6-1.3-18.2-6.7-25.4-7.5-1.1-.1-14.3.7-13 1.3.6.3 14.8.2 15.8.6 5.8 2.6 17.4 6.8 21.2 7.7 4.7 1.1 11.9.3 16.6 1.5 3.3.9 6.1 5.4 4 4.7s-7.4-3.5-11.1-3c-11.6 1.4-17.8-3.2-28.8-6.8-4.1-1.3-45.8-7.7-44.2 2.6 14 11.7 34.5 33.1 53.3 32.7 9.4-.2 16.4-.6 22.6-7.6 3.7-4.2 9.7-13.8 12.2-13.6 3.3.2 2.5-1.2-.1-2.8zm-23 17.7c-18 3.6-44-8.2-60-26.6-2.7-3.1 32-3.4 35.1-2.4 6.3 2.1 11.5 7.2 17.9 9 9.1 2.5 18-3.1 26.1 3.4-4.9 5.7-10.8 15-19.1 16.6z"/>
  <path d="M275.2 267.8c.6-5.2-6.4 12.9-10.4 15.2-4.9 3-8.4-2.2-13.3-2.8-4.5-.6-11.7 1.9-15.4.6-5.9-2.3-10.4-8.6-15.9-12.2-5.3-4.3-7.1-3.4-.7 1.3 4.8 3.2 8.6 11.9 13.5 14.5 4.7 2.4 8.8-.6 14.2 0 4.5.6 12.9 5.3 17.4 3.8 3.7-1.2 10-15.6 10.6-20.4z"/>
  <path d="M276.5 336.2c0 16.6-14.1 27-21.2 41-7.2 14.3-7.5 22.1-21.8 29.2-12.1 6-34.8 17.6-48.6 15.5-10.3-1.6-21.4-16.6-28.4-23.4-9.8-9.5-18.3-20.3-25.2-32.2-7.5-13.3-4.1-27.5-5.4-42.4-1.9-21.3-9.3-58.3-13.8-79.2-2.9-13.4-3.7-19.5 1.7-12.4 3.7 4.8-1 57.8 33.9 65.5-6.1-9-14.9-12.6-19.8-22.9-4.1-8.9-7.1-18.2-9.1-27.8-1.8-8.1 1.7-33.6-3.8-37.7-2.5 5.3-.1 12.9-.4 18.4-6.5-7.1-3.9-11.4-14.3-13.4-5.6-1.1-7.7.2-12.4-3.9-7.5-6.5-9.2-22.4-9.4-31.2-.2-7.4.2-27.7 9.7-30.5 9-2.6 9.7 11.3 18.4 7.1-.1 4.1-.4 11.6 1.6 15.3.7 1.2 0 3.7.9 4.9.7 1 4.9-.1 4.7-.3 1.7 2.4 3.4 17.5 7.5 18.9 6.3 2.2 10.2-56.9 12-64.8 3.7-16.5 8.8-10.6 21.1-17.7 8.5-4.9 19.5-19 20-27.7.4-6.5-7.5-2.6-2.6-10.4 2-3.2 8.8-2.3 10.9-5.6s-.4-8 1.6-11.5c2.8-4.9 8.1-6.2 13.2-7.2 10.4-1.9 21.1 1 31.5 1.5 13 .8 24.5-3.1 36.8 2.4 9.7 4.4 24.6 11.3 31.8 19.4 7.4 8.4 10.6 24.5 12.8 35.3 1.4 6.9-.4 14.4 1.2 21.2 1.4 5.7 5.3 9.2 5.9 15.2 1.7 15.6-8 30.2-5.6 46.7 4.7 32 2.7 53.1-13.6 81.8-7.3 12.8-22.7 26-28.8 39.3-5.8 12.5-2.9 26-18.1 31.7-12.3 4.5-18.1-3.2-32.7-5.2-8.1-1.1-19.6-4.2-24.2-11.1-2.3-3.5-10.1-23.6-9.6-19.5 1.4 10.6 5.7 21.4 13.6 28.2 7.4 6.2 19.6 7.7 28.8 10.3-2.5 15.2-18.8 9.4-30.1 28.3-1 1.7 8.6-6.3 14.6-10 3.2-1.9 9.1-5.5 12.3-7.3 4.5-2.5 6.8-8.9 9.9-9.2 8.6-.9 15.2 1.7 23.4-3.8 7.6-5.1 11.6-15.1 14.1-23.5 3.5 2.4 4.7 10.9 4.7 14.6.3 5.5.3-5.4.3.1zM84.3 127.9c.8-4.5.6-11.6.5-16.6-.2-10.1-4.6-16.3 2.7-22.5 1.6-1.3 9.7-2.3 10.1-5.7.8-6.3 7.8-19.3 10.6-22.2 3.7-3.8 2.3-8.1 4-12.9 7-20 35.9-16.3 53.9-21.9 8-2.5 9-12.7 16.4-15.5 7.2-2.7 16.3-.3 24.1-3.1 12.1-4.3 16.4-2.5 29-.1 4.7.9 8-.1 11.5 3.2 4.8 4.5 1 7.4 8.1 10 3.7 1.4 9.3-3.5 13.6-2.3 4.3 1.2 7.1 6.5 10 9.4 6.6 6.4 11.1 12.2 16.7 19C301 53.5 308.3 57 312.3 65c3.5 7 8.4 19 9.1 26.6 1 10.5-5 20.4-1.2 30.8 1.6 4.6 3.5 5.4 3.3 10.8-.2 4.5-3.1 10.5-3.9 6.1-1-5.2-2.9-5.1-4.6-11-1.7-6.1-.1-16.7-1-22.9-1.5-9.7-6.9-21.3-10.6-30.7-6.2-15.4-37.1-28.7-52.9-29-12.9-.3-25.2 1.3-38.3.6-8.6-.4-26.8-3-33.2 4.5-3.8 4.4 3.7 10.9 1.1 15.6-1.9 3.5-10.4 3-12.5 6-6.4 8.8 3.8 9.7-.6 19.5-8.6 19.1-32.4 16.3-37.7 35-3.4 12.1-1.9 26.5-2.7 39-.2 3.3-.8 11.5-3.6 14.3-2.1 2.1-3.3-4.5-4.8-6.9-3.7-6-5.8 2.1-8.4-7.5-.3-1.3.6-13.2 0-14.1-2.3-3.1-5.7 3-9.6-1.8-5.4-6.6-7.2-11.1-14.6-5.1-2.9 2.3-6.9-1.9-5.4-5.7 1.1-2.3 3.3-7 4.1-11.2zm235.6 214.8c-12.5-6.8-29.6-13.3-41-21.7-6.8-5-6.4 1-4.9-8.3.4-2.7 5.4-8.2 6.7-9.9 6-8 12.8-15.2 17.9-23.9 9.1-15.4 16.1-33.4 18.1-51.3 2.7-23.4-4.1-43.6 1.8-67.1 2.1-8.4 5.8-15.7 7.8-23.4 2-8.1-.2-8.7-2.8-15.6-3.3-8.6 2.5-19.7 3.1-28.3.6-9.6-5-14.2-8.1-22.6-3.6-9.5-4.6-9.7-12.1-17.2-4-4-6.3-8.9-9.4-13.2-5.2-7.2-10.2-15.8-18-21.6-9-6.7-11.9-.8-20.7-3.7-6.2-2.1-6.8-8.9-12.1-12.6-4.5-3.2-14.7 1.1-20 .4-9.7-1.3-11.8-3.4-20.7-.5-7.6 2.5-17.5 1-24.8 3.2-8 2.5-8.3 10.1-15.3 13.6-5.2 2.6-17.3-.5-23.8 1.4-7.9 2.3-13.1 9.4-20.7 12.7-9.1 3.9-8.8 5.8-11.7 13.6-3.3 8.9-3.7 8.6-11.2 16-4.9 4.8-4.2 7.3-6.4 12.1-1.2 2.6 0 3.8-1.8 6.7-1.5 2.4-6 2.3-7.7 4.7-4 5.6-1.7 15.3-2.2 22.3-.5 7 1 14.7-.1 21-1.2 6.7-5.5 5.7-3.8 14 .6 2.7 2.7 5.3 3 7.9.5 4.5-2.4 8.8-3.3 13.8-.8 5.3-1 10.6-.6 15.9.5 7.2 1.6 15.2 4.2 22 4.8 12.6 13 10.2 20.8 18.5 9.9 10.6 9.9 38.6 12.7 52 4.5 22.4 10.8 49.2 7.7 71.9-1.3 7.8-4.4 15.1-9.2 21.4-5.8 7.9-26.1 18.1-18.3 15.2 4.9-1.7 9.4-4.3 13.3-7.6 4.8-3.7 15.9-10.9 17.9-7.2 4 7.3 26.7 33.4 28.1 34.8 10.7 10.9 24.2 28 40.4 24.2 14.8-3.5 40.9-11.2 52.2-20.7 10.4-8.8 14.4-26.8 22.8-38.5 5.2-7.3 11.4-14.3 13.1-23.6 1.4-8 1-6.7.5-14.1 19.1 10.8 31.6 13.5 48.2 28.3 17.5 15.7 40.6 29.5 70.4 28.4 17.5-.6-34.7-7.2-49.3-17.4-10.7-7.7-23-21.8-30.7-26z"/>
  <path d="M303.2 162c-.5-.2-2.5-.8-1.9-1.2 1.9-1.2.2-4.2 1.8-1.9 1 1.4 1.8 3.8.1 3.1zm-23-5.9c.8-3.4 9.8-1.8 11.6-1.8-.5 1.6-.2 3.4.8 4.8-4.7 0-8.6-2.4-12.4-3zm31.9 2.3c-.4-4.2-12.7-8.3-16.1-9.5-7.5-2.5-19-5.2-20.4 2.7-.4 2.3 2.3-6.6 16.8-.2 2.5 1.1-16.3-1.3-15.5 5.3.5-.4 9.2 4.7 17.3 6.8 6.2 1.6 12.1 1.3 13 1.8.5-4.2-6.2-11.9-2.7-10.3 2.7 1.2 6.1 1.1 5.4 10.7 2-1.9 2.8-4.6 2.2-7.3-.5-5 .2 2.1 0 0zM89.6 197.7c-.4-4.9 3.7-5.8 5.9-9.3.8-1.2 4.9-7.9 5.6-8.4 2.5.7 1 16.6 0 17.6-2-.2-1.5-5.9-1.6-7-5 1.9-10.9 5.7-4.7 11.2 1.8 1.6 7.2 1.9 8.9.8 3.3-2 1.4-8.1.9-12.7-.8-7.9-.8-17-6.9-22.8-4.6-4.3-10.5-2.8-10.7-8.9 20.2 6.3 23.7 27 20.1 44.6-1.3 5.7-16.9 3.3-17.5-5.1zM194.4 455.5c-8.2 0-60-38.6-59.2-39.7 4.4-6.2 39.6 25.3 47.7 26.6 10.2 1.6 26.1.4 34.4-5 3.2-2.1 32.1-23.2 33.8-20.5 4.8 7.2-49.3 38.6-56.7 38.6z"/>
</svg>
