<svg xmlns="http://www.w3.org/2000/svg" viewBox="0 0 424.1 486">
  <path d="M305.9 277.9c-10.9-7.2-4.3 7-3.8 5.3.5-1.7 1-2.7 1.6-3.2 2.6-2.1 8.1 7.8 6.2 14.1-.7 2.5-3.9 5.1-6 3.7-.8-.5-.2-1.7-1.3-2.2-2.1-1.1-7.2 9.2-10 10.5-5.4 2.6-8.6.9-13.5-1.3-.9-.4-22.7-12.1-20.9-2.1.3 1.7 12.1.3 14.2.9 5.8 1.5 8.2 7.2 15.1 7.2 6.8 0 13.6-10.1 15.7-10.4 13.7-2.1 11.4-16.8 2.7-22.5zm-14.1-23c-1.6 0-4.5-19-4.6-21.5-.1-2.9 5.7-25.4 10.9-20.2-.3-.3-8 16.1-8 19.8.1 2.8 5.9 21.9 1.7 21.9z"/>
  <path d="M291.4 212.9c-3.8 0-2.2-5.9-1.4-7.5 1.4-3 6.4-6.3 10.4-6.6 5.1-.4 3.8 6.4 7 3.6 2.7-2.4 1.9-8.7 10.7-3.9 6.3 3.5 5.8-4.8 14.5-5.3 2-.1 13.7 2.7 13.4 5.2-.1.5-10.5-1.7-11.6-1.4-8.8 2-10.8 9.2-19.9 5.9-2.6-.9-7.9 7.4-11.4 3.3-.7-.8-2.4 3.4-3.8 3.4-2.1-.1 1.5-4.2-2.3-4.8-4-.8-2.1 8.1-5.6 8.1zm-40.3 5c-4 0 1.1-5.8-.3-5-13.8 6.9-7.1-7.8-15.2-1.5-4.7 3.7-4-3.1-16.8-6.2-6.6-1.6-16.3-3.5-23.1-3.8-3.7-.2-19.6 6-19 6.4-4.8-4.2 13.6-11.7 15.6-11.9 6.1-.5 16.1 4.4 22.1 4.9 11.8.8 11-1.3 18.4 4.7 3.3 2.7 4.1-8 8.9-5.1 3.2 2 1 7.6 3.9 8.5 2.1.6 15.7-14.2 10.7 2-.3 1.1-2.9 7-5.2 7z"/>
  <path d="M377.7 187.9c3.5-8.3 4.2-19.3 3.2-28.1-2.1-18.3-11.1-33-18.2-49.8-3.2-7.5-1.9-17-7.2-23.3-3.7-4.5-14-6.3-16.3-11.6-3.9-9.1 3.5-16.4-5.5-25.3-6.2-6.1-23.3-5.9-30.6-3.4.6-5.2.8-10.7.7-12.2-.6-9.5-4.1-17.2-12-22.8C277.2 1.1 259.5-2.3 243 1.5c-39.6 9-70.5 38.4-100.7 63.4-33.4 27.7-58 55.2-66 99.1-3.3 18.1-9 27.2-13.2 44.3-2 7.8 4.5 22.7 7.4 30.2 2.4 6.4 21.7 19.9 32.2 20.2 4.4.1-6.8-10.7-7.3-11.6-3-5-5-11.5-3.8-17.3 3-14.6 8.4-15.9 20.4-20.3 7.6-2.8 16.4-3.1 20.5-1.5 3.4 1.3 1.5 2.3.8 9.4-6.7 8.1-24.3 12.5-20.2 17.1 6.9 7.9-4 29.8 5.8 33.3 4.2 1.5-4.4 2.8-3.5 8.2.3 1.5 4.9 5.7 5.1 6.7 0 .2.4.4-1.9 2.5-1.3 1.2-2.6-.9-3-2.2-1.7-5-3.3-7.8-3.7-9.6-1.9-8.3-2.1-17.3-3.2-25.7-.8-5.8-3.8-15.7-1.2-21.7 1.2-2.8 5.8-4.8 5.8-5.8 0-6.2-9.2-1.3-9.9.3-2.8 6.1 1 18.1 1.8 24.3.8 6.1 2.5 47.3 13 47.3.2 0 1.9-.2 3.5-.6.1 1 .3 1.8.4 2.3.8 4.5 4.5 15.5 5.6 20.2 3.6 15.8 14.3 20.1 25.9 21.3 6.9 14 16.4 25.6 29 36.3 6.5 5.6 37.3 29.5 44.6 32 .9 3.8 2.6 8 5.3 12.8 8 14.4 22.3 27.1 39.6 27.1 32.6 0 67.3-31.2 53.8-64-.5-1.2-3-9.8-1.5-11.1 9.5-8 16.2-24.6 18.7-30.5 2.6-6.2 4.7-12.7 6.4-19.2h.7c11.6 0 18.8-37 18.5-43.6-.2-4.1-9.4-45.3-6.1-53.7 2.6-6.8 13.3-29 15.1-33.5zm-230 140.6c-5.2-1.6-10.4-7.9-11.6-9.3-4-4.6-9.2-20.1-9.9-25.8-.5-4.5-.1-8.7-.7-12.6-.3-1.9-3.5-1.4-3.5-4.5.2-7.5 13.6-13.3-1.7-12.9.5-1.9 5.1-15.3-1.6-24.5-5.1-7 14-17 12.9-5.3-1.8 18.2-.8 22.7-.6 25 2.3 21.3 9.7 42.9 16.7 63.1 1.4 3.8 3.6 7.9 0 6.8zM323 406.1c-8.3 18.9-22.2 29.6-44.1 32.5-19 2.6-33.8-7.9-42.7-24.1-5.8-10.6-8.2-18.7.5-28.6 6.8-7.7 12.1-13.5 19.1-23.4 2.5-3.5 12.2-2.2 17.7-1.8 4 .3 15.1 5.2 15.3-1.6 3.3 1.4 17.6 8.4 22.9.9 3.5-4.7 17.9 31 11.3 46.1zM362.9 276c.3 8.2-3.3 23-6.4 30.6-.4.9-3.4 3.7-5.7 6.3 1.2-5.5 2.1-11 2.8-16.5 3.6-28.4 1.9-57.2 1.2-85.7-.8-31.1-4-61.8-16.6-90.6-4.4-10.1-7.2-23.8-14.1-32.4-2.1-2.6-26.6-17.5-26.6-9.6 0-1.8 21.5 13.7 24.1 17.3 5.8 8 8.8 19.2 12.7 28.3 12.7 29.4 15.3 58.4 16.1 90.1.7 28.2 2.8 56.7-1.1 84.8-2 14.6-4.6 29.1-10.8 42.5-2.1 4.5-8.4 21.1-14 21.4-6.5.4-8.5-7.6-13.8-8.2-6.3-.7-.9 3.8-4.3 4.2-7.9 1-12.4-3.4-18.7-5-3-.7-2.7 5.3-3.4 5.4-7.1 1-20.7-5-29.6.6-5.9 3.7-5.1 9.2-12.4 14.8-10.8 8.4-14.7 12.7-15.8 19.8-.9 5.8-15.1-4.4-16.4-5.3-8.7-6.1-16.3-14.2-24.4-21-15-12.7-24.9-24.7-31.7-43.3-7.7-20.9-16.5-43.9-18.8-66.1-.6-5.7 6.1-56.1 7.5-58.7 1.5-2.7 36.1-11.9 50.7-25.5 23.4-21.7 27-55.1 42.5-81.4 7-11.9 16.9-21.1 31.2-22.1 4.6-.3 11.8.3 16.2 2 1.8.7 10.7 8.2 11 8.2 6.1 0-4.3-8.9-4.7-9.1-3.7-2.6-11.5-7.2-15.9-7.6-13.4-1.4-23.7 6.6-32.9 16.6-21.4 23.2-25.3 58.6-47.7 82.5-21.4 22.8-53 27.9-81.6 38.2-11 4-18.4 7.9-24.5 19-2.4 4.4-2.1 6.4-3.1 13.5-1.2 8.2-7.5-.5-8.4-2.1-4.5-8.2-8.5-14.6-5.9-23.7 4.8-16.6 9.8-25.8 13-43.6 7.3-40.4 25.8-64.5 56.7-90.3 31.2-25.9 60.4-56.1 101.3-65.8 14.7-3.5 30.2-2.5 43.9 5.2 8.2 4.6 12.7 8.8 14.1 18.2.4 2.8-.3 25.1 1.1 25.3 1.4.3 2.3-2.5 3-6.2 6.6 1.7 23.8 0 28.7 5.4 5.8 6.3.6 14.2 3.9 21.8 2.5 5.8 10.5 6.3 14.5 11.1 5.1 6.1 6.2 16.4 9.2 23.7 7.5 17.7 16.9 34.1 17.7 53.8.4 9 .2 18.2-4.6 25.9-1.4 2.3-14.1 22-14 25.3-.1 13 4.7 54.6 4.8 58z"/>
  <path d="M287.1 421.6c1.2 0 9.4-23.3 8.2-27.7-5.7 6.7-9.7 13.4-12 2.6-1.4 2.1-13.4 20.3-16.3 16.4 2.6 3.4 7.4-34.4 3.9-31.7 5.2-4 5 19.4 4.5 21.4 5-6.4 8.9-17.5 11.4-4 2.3-2.2 5.5-7.9 8.2-9.2 3.3-1.8 4.6 32.2-7.9 32.2zm21.6-119.4c-.2 5.3 26.4 5.4 27.8 17.9 1 9.1-4 1.7-8.7 5.9-7.3 6.6-12.1 5.2-15.6.3-1.8-2.5-7.2-8.7-4.3.4-1.8-.4-23.1-.5-29.9 3.1-8 1.5-19.9 4.5-20.8 4.7-14.6 3.4-20.9 3.6-26.5 13.7-.6 1-5.2-3.1-6.7-3-1.7.1-4.6 2.3-6 3.9-2.1 2.4-3.2 7.9-6.4 8.3-9.1 1.1 6.9-13.3.9-18.4-5.1-4.4-19 6.4-19.5-.6-.2-3.2 17.8-13.1 26.9-20.9.2 0 13.1-.9 16.3.5 3.4 1.5 10.2-5.7 11.4-3.2 1.9 4.1 8.3-2.9 12.3-5.9h1.1-1.1 1.2c1.2 0 13.4-.1 13.2-2.9 0-.5-18.6-.9-21.6-2.9-9.5-6.4-.3-11.8-3.2-14.7-4.6-4.6-5.3 9.3-4.8 10.8 1.4 4.1 5.9 7.2 10.5 8.6-2.1 2-4.6 3.9-6.9 2.2-2.9-2.1-6.4-1.5-9 .4-1.8 1.4-12.1 1.7-15.5 1.5-5.5-.3-32.5 20-34.3 25.6-3.8 11.8 14.8 1.4 17.9 7.7 1.6 3.2-7.2 16.6 3.6 16.6 2.3 0 8.7-9.7 11.5-10.9 3.4-1.5 3.1 4.7 7.3 3.4 2-.6 5.4-8.3 7.1-9.8 6.8-6 19.8-7.7 28.4-10 1.3-.3 14.6-.6 18.8-3.6 7-1 16.8-1.8 21-1.7-5.5 2.1-14.7 6.5-16.4 6.9-4.4 1-21.7.2-21.7 2.1 0 3 18.7-.3 21.8.8 2.7.9 9.4-3.1 17.4-7.1-2.2 3.5-4.7 8.7-5.8 9.8-4.8 4.6-13.9 6.2-20.4 7.3-4.4.7-26.8-7.1-28.3-7.3-6.3-.6 20 10.5 23.7 10.5 8.1 0 17.2-.8 24-5.8 1.8-1.3 11.3-12.2 11.2-16.5h.3c.3.3 1.3 1.1 4.2 2.9 2.2 1.3 1.2 2.7 4.7 2.7 3.3 0 5.8-5 8.3-5.8 4-1.3 5.4 1.1 9.7-.7-.2.1 4.4-6.6 4.3-5.5 1.4-13.7-33.2-27.2-33.4-21.3zM214.3 245h-.6.6zm1.1.1c.2 0 .2 0 0 0zm-.5-.1h-.5.5zm-2.1 0h.3-.3zm.2 0h.3-.3zm24.5-12.9c.4 0 2.2-.4 2.6-.4 3.3 0-15.3-10.1-20-11-6.4-1.1-32.2-1.3-37.7 7.4-1.5 2.3 4.3-.7 10.6-1.5-2.9 2.8-7.7 9.7-5.3 10.8 4.4 1.9 20.3 7.8 25.2 7.8 6.4 0 26.7-1.9 26.6-10.5-.1-.5-.9-1.4-2-2.6zm-34-6.7c-3.9 6.9-3.5 11.4-1.1 14-4.7-1.7-8.4-.8-9.6-4.6-.3-1.2 5.9-9.6 10.7-9.4zm12.4 16.2c4.3-2 9.3-7.7 5.5-16 1.5.6 3.1 1.3 4.7 2 3.3 3.1 6.9 7 6.9 7.9.1 2.6-8.2 7.2-17.1 6.1zm98.5-24.2c-4.8 1.4-11.1 3.6-14.5 7.7-.5.6-8.2 10.2-3.2 10.2.4 0 .2-2.8 3.1-2.3 1.6.3 1.4.8 1.8 1.2 2.2 2.8 11.8 3.4 12.9 3.4 1.4 0 20.5-2.1 23.4-9.8.8-2.2-6.2-8.3-3.1-8 3 .3 7.9 4 6.8 1.1-3.1-8.8-24.9-4.2-27.2-3.5zm-11.1 10c1-1.2 1.9-2.2 2.4-2.6.4-.3.7-.5 1.1-.7-.3 4.2 2.6 8.4 6.3 10.3-2.7 0-5.2-.3-7.9-1.5-2.1-1.1-1.9-3.6-1.9-5.5zm29.1.7c-1.6 2.8-4 3.5-8.1 4.3 2.4-2.6 2-8.8.6-11.8 1.1 0 11 1.5 7.5 7.5zM143.5 385.6c-4.2 0 4.5-17.8 4.9-20.2.5-3.6-4.7-26.3-1.4-26.3 5.9 0 5.6 46.5-3.5 46.5z"/>
  <path d="M282 444.5c1.5 3-34.5 6.7-38.9 5.8-15-3.1-30.5-8.7-44.5-14.8-17.4-7.7-31.5-20.5-46.3-32.2-4.6-3.7-12.4-6.8-14.2-12.9-.7-2.4 1.6-11.2 1.9-14.5 3.1-2.7 4.8-4.8 3.7-5.5-2.6-1.7-31.6 22.9-35.2 26.4-9.4 9-22.1 13.4-34.1 18.7-15.1 6.7-28 14.4-41.5 23.8-7.6 5.3-12.4 12-20.1 17-.3.2-17.4 10.3-11.5 10.3 10.7 0 30.3-19.7 39-25.8 13.4-9.2 26.9-16.6 41.8-23.2 13.7-6.1 21.3-8.9 32.3-18.7 1.9-1.7 8.3-5.9 13.3-8.5 4.7-2.5 5.3 1.5 5.7 2.6 1.4 4.9 8 6.6 11.6 9.9 10.1 9 22.3 19.7 33.7 27 19.9 12.7 51.4 28.7 75.9 28.7 3 .2 29.8-9.4 27.4-14.1z"/>
  <path d="M263.1 486c-28 0-59-16.2-82-30.9-5.1-3.3-60.2-47.5-53-52.3-.6.4 36.4 35 40.9 38.3 17.3 13.1 36.7 23.4 57 31 15.4 5.7 33.6 10.9 49.8 4.4 7.1-2.9 13.1-5.9 18.1-11.6 1.9-2.2 11.2-16.4 11.8-16.4 6.8 0-10.4 22.2-11.1 22.9-8.9 8.5-18.8 14.6-31.5 14.6zm160.7-22.7c-7.9 0-18.5-55.2-32.2-63.2-7.5-4.4-60.6-27.3-60.6-24 0-4.4 32.9 2.1 35.8 2.9 12.2 3.3 24.5 8.2 32.4 18.5 7.4 9.6 9.8 23.4 14 34.5.8 1.9 13 31.3 10.6 31.3z"/>
</svg>
