<svg xmlns="http://www.w3.org/2000/svg" viewBox="0 0 456.5 456.5">
  <path d="M312.8 260.6c-10.1-6.7-3.9 6.6-3.5 4.9.2-1.1.7-2.1 1.5-3 2.4-2 7.5 7.3 5.8 13.1-.7 2.3-3.6 4.7-5.6 3.4-.7-.5-.2-1.6-1.2-2.1-2-1-6.7 8.5-9.3 9.8-5 2.4-8 .9-12.6-1.2-.9-.4-21.2-11.3-19.5-2 .3 1.6 11.3.3 13.3.8 5.4 1.4 7.6 6.7 14.1 6.7 6.3 0 12.7-9.4 14.7-9.7 12.6-1.6 10.4-15.3 2.3-20.7zM299.7 239.2c-1.5 0-4.2-17.7-4.3-20-.1-2.7 5.3-23.7 10.2-18.8-.3-.3-7.4 15-7.4 18.4-.1 2.6 5.3 20.4 1.5 20.4z"/>
  <path d="M299.3 200.1c-3.5 0-2-5.4-1.3-7 1.3-2.8 6-5.9 9.7-6.1 4.8-.4 3.5 5.9 6.5 3.3 2.5-2.2 1.7-8.1 9.9-3.6 5.9 3.2 5.4-4.5 13.5-4.9 1.8-.1 12.8 2.5 12.5 4.8-.1.5-9.8-1.6-10.8-1.3-8.2 1.9-10 8.5-18.6 5.5-2.4-.9-7.3 6.9-10.6 3.1-.7-.8-2.2 3.2-3.5 3.1-2-.1 1.4-3.9-2.2-4.5-3.7-.7-1.9 7.6-5.1 7.6zM261.7 204.8c-3.7 0 1.1-5.4-.3-4.7-12.8 6.4-6.6-7.3-14.1-1.4-4.4 3.4-3.7-2.9-15.6-5.8-6.1-1.5-15.2-3.3-21.5-3.6-3.4-.1-18.2 5.6-17.7 6-4.5-3.9 12.7-10.9 14.6-11.1 5.6-.4 15 4.1 20.6 4.5 11 .8 10.2-1.2 17.1 4.4 3 2.5 3.8-7.4 8.3-4.7 3 1.8.9 7.1 3.7 7.9 2 .6 14.6-13.2 10 1.9-.5 1-2.9 6.6-5.1 6.6z"/>
  <path d="M379.7 176.8c3.2-7.7 3.9-17.9 3-26.2-2-17-10.3-30.8-16.9-46.4-3-7-1.8-15.8-6.7-21.7-3.5-4.2-13.1-5.9-15.2-10.8-3.7-8.5 3.2-15.3-5.1-23.5-5.7-5.7-21.7-5.5-28.5-3.2.4-3.8.7-7.6.6-11.4-.6-8.9-3.8-16-11.2-21.3C286.5 2.9 270-.5 254.2 3.1c-36.9 8.4-65.7 35.7-93.8 59.1-31.1 25.8-54.1 51.4-61.5 92.3-3 16.8-8.3 25.4-12.3 41.2-1.8 7.3 4.2 21.1 6.9 28.1 2.3 5.9 20.3 18.6 30 18.8 4.1.1-6.3-10-6.8-10.8-2.8-4.7-4.6-10.7-3.5-16.2 2.8-13.6 7.9-14.8 19-18.9 7.1-2.6 15.2-2.8 19.1-1.3 3.1 1.2 1.4 2.2.7 8.7-6.2 7.5-22.6 11.6-18.9 15.9 6.4 7.4-3.7 27.7 5.4 31 3.9 1.4-4.1 2.6-3.2 7.6.3 1.4 4.5 5.3 4.7 6.3 0 .1.4.4-1.8 2.3-1.2 1.1-2.4-.8-2.8-2-1.5-4.6-3.1-7.3-3.5-9-1.8-7.7-2-16.1-3-24-.7-5.4-3.5-14.6-1.1-20.2 1.1-2.6 5.4-4.5 5.4-5.4 0-5.8-8.6-1.2-9.3.3-2.6 5.7.9 16.8 1.7 22.6.8 5.8 2.3 44.1 12.2 44.1 1.1-.1 2.2-.3 3.3-.5.1.9.2 1.7.3 2.1.7 4.2 4.2 14.4 5.2 18.8 3.4 14.8 13.4 18.7 24.1 19.9 6.4 13.1 15.2 23.8 27 33.9 6.1 5.2 34.7 27.5 41.5 29.8 1.1 4.2 2.7 8.2 4.9 11.9 7.5 13.4 20.7 25.2 36.9 25.2 30.4 0 62.7-29.1 50.1-59.7-.5-1.1-2.8-9.2-1.4-10.3 8.9-7.4 15.1-22.9 17.5-28.4 2.4-5.8 4.4-11.8 5.9-17.9h.7c10.8 0 17.5-34.4 17.2-40.6-.2-3.8-8.7-42.2-5.7-50.1 2.7-6 12.7-26.7 14.4-30.9zm-214.3 131c-4.8-1.5-9.7-7.3-10.8-8.7-3.7-4.3-8.6-18.7-9.2-24.1-.5-4.2-.1-8.1-.7-11.7-.3-1.7-3.3-1.3-3.2-4.2.2-7 12.7-12.4-1.5-12 .4-1.8 4.7-14.3-1.5-22.8-4.7-6.5 13.1-15.9 12-4.9-1.6 16.9-.7 21.1-.5 23.3 2.1 19.8 9.1 40 15.6 58.8 1.1 3.5 3.2 7.3-.2 6.3zm163.3 72.3c-7.7 17.6-20.7 27.5-41 30.3-17.7 2.4-31.5-7.4-39.8-22.5-5.4-9.8-7.7-17.5.5-26.6 6.4-7.2 11.3-12.6 17.8-21.8 2.3-3.2 11.3-2.1 16.5-1.6 3.7.3 14 4.9 14.2-1.5 3.1 1.3 16.4 7.8 21.4.9 3.1-4.5 16.6 28.7 10.4 42.8zm37.2-121.2c.3 7.6-3.1 21.4-6 28.5-.4.8-3.1 3.4-5.3 5.9 1.1-5.1 2-10.2 2.6-15.4 3.4-26.4 1.8-53.3 1.1-79.8-.7-29-3.7-57.6-15.4-84.4-4.1-9.4-6.7-22.2-13.2-30.2-1.9-2.4-24.8-16.3-24.8-8.9 0-1.6 20.1 12.8 22.4 16.1 5.4 7.5 8.2 17.9 11.8 26.3 11.9 27.4 14.3 54.4 15 83.9.7 26.3 2.6 52.9-1.1 79-1.9 13.6-4.3 27.1-10.1 39.5-2 4.2-7.8 19.7-13 20-6 .4-8-7.1-12.9-7.6-5.8-.6-.8 3.5-4 3.9-7.3.9-11.6-3.2-17.5-4.7-2.8-.7-2.5 4.9-3.1 5-6.6.9-19.2-4.7-27.5.6-5.5 3.5-4.8 8.6-11.5 13.8-10 7.9-13.7 11.9-14.8 18.5-.9 5.4-14-4.1-15.3-4.9-8.1-5.6-15.2-13.2-22.7-19.6-14-11.9-23.2-23-29.6-40.3-7.1-19.5-15.4-40.9-17.5-61.6-.6-5.4 5.7-52.3 7-54.7 1.3-2.4 33.6-11 47.2-23.7 21.8-20.2 25.2-51.3 39.6-75.9 6.5-11.1 15.7-19.6 29-20.6 4.3-.3 11 .2 15.1 1.8 1.7.6 10 7.7 10.2 7.7 5.7 0-4-8.2-4.4-8.5-3.5-2.4-10.7-6.7-14.8-7.1-12.5-1.3-22.1 6.1-30.7 15.5-20 21.6-23.6 54.6-44.4 76.8-19.9 21.2-49.4 26-76 35.6-10.3 3.7-17.2 7.4-22.9 17.7-2.2 4.1-2 5.9-3 12.6-1.1 7.7-7-.5-7.8-2-4.2-7.6-7.9-13.6-5.5-22.1 4.4-15.4 9.1-24 12.1-40.6 6.8-37.6 24-60.1 52.8-84.1 29.1-24.1 56.3-52.3 94.4-61.3 13.7-3.2 28.2-2.4 40.9 4.8 7.7 4.3 11.8 8.2 13.1 17 .4 2.6-.3 23.4 1 23.6 1.3.3 2.2-2.3 2.8-5.8 6.2 1.6 22.1 0 26.8 5.1 5.4 5.9.6 13.2 3.6 20.3 2.3 5.4 9.7 5.8 13.5 10.3 4.8 5.7 5.8 15.3 8.6 22.1 7 16.5 15.7 31.8 16.4 50.1.3 8.4.2 16.9-4.2 24.2-1.3 2.1-13.1 20.5-13.1 23.6.5 12.1 5 50.8 5.1 54z"/>
  <path d="M295.2 394.5c1.1 0 8.8-21.7 7.7-25.8-5.3 6.3-9.1 12.5-11.2 2.4-1.3 1.9-12.5 18.9-15.2 15.3 2.4 3.2 6.9-32 3.6-29.5 4.9-3.7 4.6 18.1 4.2 19.9 4.6-6 8.3-16.3 10.6-3.8 2.1-2 5.2-7.3 7.7-8.6 3.1-1.6 4.3 30.1-7.4 30.1zM315.3 283.2c-.2 4.9 24.6 5.1 25.9 16.7 1 8.5-3.8 1.6-8.1 5.5-6.8 6.1-11.3 4.8-14.5.3-1.7-2.3-6.7-8.1-4 .4-1.7-.3-21.5-.5-27.8 2.9-7.4 1.4-18.5 4.2-19.4 4.4-13.6 3.2-19.5 3.3-24.7 12.7-.5 1-4.9-2.9-6.3-2.8-1.6.1-4.3 2.1-5.6 3.6-2 2.2-3 7.4-6 7.7-8.5 1.1 6.4-12.4.9-17.2-4.8-4.1-17.7 5.9-18.2-.5-.2-3 16.6-12.2 25.1-19.4.2 0 12.2-.8 15.2.5 3.2 1.4 9.5-5.3 10.6-3 1.8 3.8 7.8-2.7 11.4-5.5h1c1.1 0 12.5-.1 12.3-2.7 0-.4-17.3-.8-20.1-2.7-8.9-5.9-.3-11-3-13.7-4.3-4.2-4.9 8.6-4.4 10.1 1.3 3.8 5.5 6.7 9.8 8-2 1.8-4.3 3.6-6.4 2.1-2.6-1.8-6-1.6-8.4.4-1.7 1.3-11.3 1.6-14.4 1.4-5.2-.3-30.3 18.6-32 23.8-3.5 11 13.8 1.3 16.7 7.2 1.5 3-6.7 15.5 3.4 15.5 2.2 0 8.1-9 10.7-10.2 3.1-1.3 2.9 4.4 6.8 3.2 1.9-.6 5-7.8 6.6-9.2 6.4-5.6 18.4-7.2 26.5-9.3 1.2-.3 13.6-.5 17.5-3.3 6.5-.9 13-1.5 19.6-1.6-5.1 2-13.7 6.1-15.3 6.4-4.1.9-20.2.2-20.2 2 0 2.8 17.4-.3 20.3.7 2.5.9 8.8-3 16.2-6.6-2.1 3.3-4.4 8.1-5.4 9.2-4.5 4.3-13 5.8-19 6.8-4.1.7-24.9-6.6-26.4-6.8-5.9-.5 18.7 9.8 22 9.8 7.5 0 16.1-.8 22.3-5.4 1.6-1.2 10.5-11.4 10.5-15.4h.2c1.2 1 2.5 1.9 3.9 2.7 2.1 1.2 1.2 2.5 4.4 2.5 3.1 0 5.4-4.7 7.7-5.4 3.7-1.2 5.1 1 9-.6-.2.1 4.1-6.2 3.9-5.2 1.7-12.8-30.5-25.4-30.8-20zM227.4 230zM228 230zM226 230zM226.3 230zM249 218c.3 0 2.1-.4 2.4-.4 3.1 0-14.2-9.4-18.7-10.2-5.9-1.1-30-1.2-35.2 6.9-1.4 2.1 4-.7 9.8-1.4-2.7 2.6-7.2 9.1-4.9 10 4.1 1.8 18.9 7.2 23.5 7.2 5.9 0 24.9-1.7 24.8-9.8.1-.4-.6-1.3-1.7-2.3zm-31.6-6.3c-3.6 6.5-3.3 10.7-1.1 13-4.4-1.5-7.9-.7-8.9-4.3-.3-1.1 5.5-8.8 10-8.7zm11.5 15.1c4-1.8 8.7-7.1 5.2-14.9 1.4.5 2.9 1.2 4.3 1.9 3 2.9 6.4 6.5 6.4 7.4.2 2.3-7.6 6.6-15.9 5.6zM320.7 204.2c-4.5 1.3-10.3 3.4-13.5 7.1-.5.6-7.7 9.5-3 9.5.4 0 .2-2.6 2.8-2.2 1.5.3 1.3.7 1.6 1.1 2 2.6 11 3.1 12 3.1 1.3 0 19.1-2 21.8-9.1.8-2.1-5.8-7.7-2.9-7.5s7.3 3.8 6.4 1c-2.8-7.8-23.1-3.6-25.2-3zm-10.3 9.4c.7-.9 1.4-1.7 2.3-2.4.3-.2.7-.5 1.1-.7 0 4.1 2.3 7.8 5.9 9.6-2.5.1-5.1-.4-7.4-1.4-2.1-1-1.9-3.4-1.9-5.1zm27.1.7c-1.5 2.6-3.8 3.2-7.5 4 2.2-2.4 1.9-8.2.6-11 .9-.1 10.2 1.4 6.9 7zM161.5 361c-3.9 0 4.2-16.6 4.6-18.8.5-3.3-4.4-24.5-1.3-24.5 5.4 0 5.1 43.3-3.3 43.3z"/>
  <path d="M290.5 415.8c1.4 2.8-32.1 6.2-36.2 5.4-14-2.9-28.4-8.1-41.4-13.8-16.2-7.2-29.3-19.1-43.2-30-4.3-3.4-11.5-6.3-13.2-12-.7-2.2 1.5-10.4 1.7-13.5 2.9-2.5 4.4-4.4 3.4-5.1-2.4-1.6-29.5 21.4-32.8 24.6-8.8 8.4-20.7 12.5-31.7 17.5-13.6 6.1-26.5 13.5-38.7 22.2-7.1 4.9-11.5 11.2-18.8 15.8-.3.2-16.2 9.6-10.7 9.6 9.9 0 28.2-18.4 36.4-24 12.3-8.4 25.3-15.7 38.9-21.6 12.7-5.7 19.9-8.3 30.1-17.4 3.9-3 8-5.6 12.4-7.9 4.4-2.3 4.9 1.4 5.3 2.5 1.3 4.6 7.4 6.2 10.8 9.2 9.4 8.4 20.8 18.4 31.4 25.1 18.5 11.8 47.9 26.8 70.7 26.8 2.9-.1 27.9-8.9 25.6-13.4z"/>
  <path d="M272.9 454.5c-26.1 0-55-15.1-76.4-28.7-4.8-3-56.1-44.3-49.3-48.8-.6.4 33.9 32.6 38.1 35.7 16.2 12.1 34.1 21.8 53.1 28.8 14.3 5.4 31.3 10.2 46.4 4.1 6.6-2.7 12.2-5.5 16.8-10.8 1.8-2.1 10.4-15.3 11-15.3 6.4 0-9.7 20.7-10.4 21.3-8.2 8.1-17.5 13.7-29.3 13.7zM422.6 433.3c-7.4 0-17.3-51.4-30-58.8-7-4.1-56.4-25.5-56.4-22.4 0-4.1 30.6 2 33.4 2.7 11.4 3 22.8 7.7 30.2 17.3 6.9 9 9.1 21.8 13.1 32.2.5 1.7 12 29 9.7 29z"/>
</svg>
