<svg xmlns="http://www.w3.org/2000/svg" viewBox="0 0 456.5 623.37"><polygon points="228.25 623.37 114.13 510.32 0 397.27 228.25 397.27 456.5 397.27 342.38 510.32 228.25 623.37" class="fill-white"/><path d="M314.22,263.15c-10.31-6.83-4,6.67-3.56,5a6,6,0,0,1,1.49-3c2.46-2,7.64,7.4,5.88,13.32-.71,2.38-3.66,4.79-5.71,3.46-.72-.47-.23-1.58-1.22-2.1-2-1.06-6.86,8.67-9.48,9.93-5.07,2.44-8.1.9-12.82-1.22-.87-.39-21.54-11.48-19.8-2,.3,1.61,11.49.33,13.48.83,5.49,1.39,7.73,6.85,14.33,6.81,6.43,0,12.87-9.57,14.9-9.84C324.67,282.53,322.46,268.61,314.22,263.15Z"/><path d="M300.89,241.43c-1.49,0-4.29-18-4.38-20.38-.1-2.71,5.36-24.08,10.34-19.1-.29-.29-7.55,15.28-7.53,18.74C299.33,223.27,304.81,241.43,300.89,241.43Z"/><path d="M300.51,201.63c-3.58,0-2.06-5.54-1.37-7.07,1.28-2.83,6.06-6,9.81-6.23,4.84-.36,3.59,6,6.64,3.37,2.58-2.24,1.77-8.28,10.1-3.7,6,3.3,5.45-4.58,13.74-5,1.86-.1,13,2.54,12.66,4.88-.07.47-9.94-1.62-11-1.37-8.31,1.89-10.19,8.69-18.86,5.56-2.43-.88-7.46,7-10.82,3.12-.68-.79-2.25,3.23-3.59,3.18-2-.06,1.41-4-2.21-4.58S303.78,201.63,300.51,201.63Z"/><path d="M262.3,206.38c-3.78,0,1.08-5.47-.31-4.77-13.06,6.53-6.69-7.37-14.35-1.39-4.46,3.48-3.79-2.92-15.88-5.85-6.22-1.51-15.43-3.35-21.86-3.61-3.48-.14-18.52,5.66-18,6.09-4.58-4,12.91-11.11,14.81-11.26,5.74-.45,15.22,4.2,20.9,4.6,11.16.79,10.38-1.27,17.41,4.46,3.09,2.52,3.86-7.57,8.39-4.8,3.06,1.87.95,7.23,3.73,8,2,.57,14.83-13.45,10.16,1.93C267,200.76,264.5,206.38,262.3,206.38Z"/><path d="M382.24,178c3.29-7.84,3.94-18.24,3-26.6-2-17.33-10.51-31.29-17.19-47.15-3-7.12-1.83-16.07-6.84-22.08-3.52-4.22-13.28-6-15.45-11C342,62.58,349,55.66,340.56,47.24c-5.83-5.79-22.08-5.56-28.94-3.25a91.54,91.54,0,0,0,.63-11.59c-.59-9-3.84-16.29-11.36-21.62a57.63,57.63,0,0,0-46.26-9.34c-37.5,8.56-66.76,36.34-95.35,60.08-31.61,26.26-55,52.27-62.47,93.86-3.08,17.1-8.48,25.77-12.54,41.91-1.86,7.41,4.27,21.48,7,28.59,2.3,6,20.59,18.87,30.49,19.13,4.19.11-6.4-10.13-6.91-11-2.85-4.73-4.71-10.86-3.57-16.42,2.83-13.79,8-15,19.35-19.2,7.18-2.63,15.48-2.89,19.43-1.37,3.19,1.23,1.45,2.21.76,8.86-6.32,7.65-23,11.79-19.17,16.21,6.49,7.53-3.81,28.18,5.46,31.54,3.93,1.42-4.21,2.68-3.27,7.76.26,1.41,4.62,5.43,4.8,6.39,0,.14.37.42-1.78,2.36-1.26,1.13-2.42-.83-2.83-2.08-1.57-4.71-3.11-7.38-3.51-9.11-1.84-7.86-2-16.38-3.07-24.37-.76-5.51-3.58-14.89-1.11-20.53,1.16-2.64,5.51-4.56,5.51-5.48,0-5.88-8.71-1.22-9.41.3-2.66,5.76.9,17.1,1.68,23s2.33,44.83,12.36,44.83a25.07,25.07,0,0,0,3.32-.54c.13.92.25,1.7.33,2.16.74,4.22,4.31,14.67,5.33,19.14,3.44,15,13.58,19,24.5,20.21,6.55,13.27,15.49,24.24,27.42,34.41,6.17,5.26,35.31,27.92,42.23,30.27a47.26,47.26,0,0,0,5,12.12c7.62,13.63,21.08,25.64,37.54,25.64,30.9,0,63.74-29.54,50.9-60.65-.48-1.15-2.82-9.33-1.47-10.47,9-7.56,15.38-23.27,17.74-28.87a127.71,127.71,0,0,0,6-18.19,5.16,5.16,0,0,0,.68,0c11,0,17.8-35,17.51-41.31-.18-3.85-8.87-42.9-5.76-50.9C370.35,203.22,380.48,182.18,382.24,178ZM164.44,311.11c-4.92-1.49-9.86-7.47-11-8.8-3.78-4.38-8.71-19-9.35-24.45-.51-4.28-.09-8.21-.7-11.92-.29-1.76-3.36-1.37-3.28-4.22.21-7.12,12.86-12.59-1.57-12.23.44-1.79,4.8-14.52-1.5-23.18-4.8-6.6,13.28-16.13,12.2-5-1.67,17.19-.76,21.49-.53,23.67,2.14,20.16,9.22,40.65,15.83,59.76C165.74,308.23,167.82,312.13,164.44,311.11Zm166,73.45c-7.85,17.94-21,28-41.72,30.79-18,2.43-32-7.49-40.48-22.85-5.53-10-7.8-17.74.5-27.07,6.48-7.29,11.49-12.78,18.13-22.18,2.33-3.29,11.52-2.11,16.81-1.67,3.77.32,14.28,4.94,14.45-1.52,3.14,1.32,16.68,7.94,21.72.89C323,336.51,336.69,370.25,330.44,384.56Zm37.75-123.18c.26,7.77-3.11,21.73-6.1,28.94-.36.86-3.18,3.48-5.4,6,1.11-5.18,2-10.41,2.64-15.66,3.42-26.86,1.8-54.17,1.13-81.15-.74-29.5-3.75-58.51-15.69-85.82-4.16-9.52-6.83-22.55-13.37-30.68-1.95-2.42-25.21-16.56-25.21-9.06,0-1.67,20.4,13,22.82,16.36,5.48,7.58,8.31,18.21,12,26.78,12.05,27.82,14.52,55.33,15.28,85.3.68,26.72,2.64,53.74-1.08,80.32-1.94,13.8-4.34,27.53-10.25,40.2-2,4.24-7.91,20-13.23,20.3-6.12.4-8.1-7.19-13.07-7.74-5.94-.66-.86,3.58-4.05,4-7.46.94-11.77-3.25-17.75-4.75-2.81-.69-2.55,5-3.18,5.09-6.73.94-19.56-4.75-28,.59-5.6,3.54-4.88,8.7-11.71,14-10.2,8-13.92,12.07-15,18.77-.87,5.52-14.26-4.17-15.51-5-8.21-5.74-15.48-13.43-23.12-19.92-14.2-12.07-23.62-23.42-30.06-41-7.25-19.78-15.62-41.61-17.83-62.62-.57-5.44,5.75-53.15,7.1-55.57s34.19-11.23,48-24.1c22.12-20.55,25.59-52.14,40.25-77.12,6.61-11.26,16-19.94,29.5-20.93,4.39-.32,11.21.24,15.37,1.87,1.68.66,10.13,7.78,10.39,7.78,5.76,0-4.1-8.38-4.43-8.62-3.54-2.43-10.88-6.78-15.06-7.21-12.68-1.3-22.42,6.21-31.2,15.72-20.29,22-24,55.49-45.16,78.1C187,176.15,157,180.94,130,190.75c-10.45,3.79-17.44,7.51-23.24,18-2.28,4.13-2,6-3,12.76-1.1,7.79-7.13-.5-7.94-2-4.23-7.74-8.06-13.8-5.58-22.42,4.51-15.68,9.29-24.44,12.33-41.32,6.88-38.24,24.39-61.13,53.7-85.49C185.85,45.75,213.48,17.15,252.23,8c13.94-3.28,28.65-2.4,41.57,4.89,7.8,4.39,12,8.35,13.32,17.24.4,2.68-.31,23.74,1,24s2.22-2.36,2.86-5.89c6.27,1.63,22.51,0,27.21,5.14,5.52,6,.58,13.45,3.66,20.64,2.36,5.5,9.9,5.92,13.71,10.46,4.87,5.81,5.85,15.55,8.75,22.45,7.08,16.8,16,32.34,16.72,50.94.34,8.53.16,17.2-4.32,24.55-1.3,2.14-13.34,20.84-13.31,24C363.58,218.79,368.08,258.19,368.18,261.38Z"/><path d="M296.38,399.21c1.15,0,8.9-22.1,7.8-26.22-5.42,6.39-9.23,12.68-11.36,2.43-1.29,1.94-12.71,19.18-15.43,15.56,2.42,3.24,7-32.57,3.67-30,5-3.8,4.71,18.41,4.24,20.23,4.71-6.1,8.39-16.58,10.79-3.83,2.14-2.06,5.24-7.46,7.79-8.72C307.07,367,308.26,399.21,296.38,399.21Z"/><path d="M316.83,286.16c-.21,5,25,5.16,26.32,17,1,8.64-3.83,1.63-8.2,5.58-6.89,6.23-11.48,4.92-14.76.33-1.7-2.38-6.8-8.28-4.11.36-1.73-.35-21.87-.51-28.3,2.92-7.57,1.46-18.83,4.28-19.71,4.49-13.87,3.22-19.81,3.37-25.13,12.95-.54,1-5-2.9-6.36-2.85-1.61.06-4.37,2.18-5.69,3.67-2,2.23-3,7.48-6.05,7.86-8.61,1.07,6.53-12.59.87-17.44-4.84-4.15-18,6-18.5-.53-.23-3,16.89-12.42,25.5-19.77.19,0,12.38-.84,15.45.51,3.22,1.42,9.66-5.43,10.81-3,1.83,3.84,7.89-2.71,11.6-5.55h0s0,0,.05,0c.31,0,.62,0,.92,0h.07c1.1,0,12.73-.11,12.48-2.7,0-.43-17.57-.83-20.43-2.76-9-6-.28-11.2-3-13.93-4.33-4.32-5,8.78-4.5,10.27,1.35,3.9,5.62,6.78,9.92,8.18-2,1.85-4.38,3.68-6.51,2.13a7.06,7.06,0,0,0-8.54.37c-1.72,1.29-11.44,1.59-14.68,1.42-5.24-.27-30.77,18.9-32.48,24.21-3.59,11.15,14,1.36,17,7.28,1.51,3-6.82,15.71,3.45,15.71,2.19,0,8.24-9.19,10.87-10.33,3.17-1.37,2.93,4.45,6.91,3.22,1.89-.58,5.13-7.9,6.72-9.31,6.47-5.71,18.74-7.34,26.92-9.45,1.21-.31,13.83-.54,17.76-3.39a159.14,159.14,0,0,1,19.9-1.59c-5.21,2-13.89,6.16-15.55,6.53-4.17.93-20.58.21-20.58,2,0,2.81,17.7-.26,20.62.75,2.57.89,8.91-3,16.46-6.7-2.1,3.35-4.43,8.26-5.54,9.31-4.57,4.34-13.2,5.91-19.31,6.93-4.16.69-25.35-6.74-26.84-6.87-6-.52,19,10,22.41,10,7.67,0,16.33-.78,22.7-5.45,1.67-1.23,10.68-11.55,10.65-15.61l.25,0a23,23,0,0,0,4,2.7c2.12,1.27,1.18,2.54,4.48,2.54,3.13,0,5.5-4.73,7.87-5.49,3.78-1.22,5.15,1.06,9.18-.66-.19.08,4.17-6.27,4-5.24C349.86,293.39,317.06,280.61,316.83,286.16Z"/><path d="M227.44,232h0Z"/><path d="M228.51,232.11Z"/><path d="M228.05,232h0Z"/><path d="M226,232h0Z"/><path d="M226.27,232h0Z"/><path d="M249.41,219.84c.34,0,2.09-.42,2.42-.42,3.12,0-14.46-9.57-19-10.37-6-1.07-30.45-1.27-35.74,7-1.39,2.17,4.05-.67,10-1.45-2.7,2.69-7.27,9.2-5,10.19,4.15,1.81,19.25,7.36,23.85,7.36,6,0,25.31-1.76,25.2-9.92C251.21,221.77,250.51,220.9,249.41,219.84Zm-32.13-6.4c-3.67,6.56-3.34,10.83-1.08,13.26-4.47-1.57-8-.76-9.07-4.37C206.79,221.18,212.68,213.31,217.29,213.44ZM229,228.8c4.05-1.85,8.81-7.25,5.24-15.12,1.46.54,2.94,1.21,4.41,1.92,3.1,2.92,6.52,6.63,6.55,7.51C245.3,225.46,237.4,229.79,229,228.8Z"/><path d="M322.29,205.85c-4.57,1.29-10.47,3.42-13.71,7.25-.51.6-7.8,9.62-3,9.62.39,0,.2-2.66,2.89-2.21,1.53.26,1.35.75,1.66,1.15,2.05,2.62,11.15,3.19,12.18,3.19,1.32,0,19.41-2,22.12-9.24.79-2.12-5.85-7.84-2.93-7.59s7.46,3.83,6.47,1C345.09,200.88,324.45,205.24,322.29,205.85Zm-10.53,9.46a16,16,0,0,1,2.3-2.45c.34-.24.71-.46,1.07-.67a10.75,10.75,0,0,0,6,9.74,16.2,16.2,0,0,1-7.5-1.45C311.56,219.52,311.78,217.1,311.76,215.31Zm27.59.73c-1.52,2.62-3.83,3.28-7.63,4.09,2.25-2.42,1.91-8.35.57-11.22C333.3,208.9,342.67,210.33,339.35,216Z"/><path d="M160.4,365.18c-4,0,4.31-16.88,4.64-19.14.49-3.36-4.43-24.91-1.31-24.91C169.31,321.13,169,365.18,160.4,365.18Z"/><path d="M291.61,420.91c1.44,2.88-32.65,6.34-36.82,5.48-14.22-2.92-28.91-8.21-42.12-14-16.45-7.27-29.82-19.42-43.87-30.5-4.4-3.47-11.71-6.43-13.41-12.2-.67-2.28,1.49-10.6,1.75-13.75,2.9-2.52,4.52-4.51,3.47-5.21-2.47-1.65-29.95,21.72-33.35,25-8.93,8.53-21,12.71-32.27,17.75A233.82,233.82,0,0,0,55.68,416c-7.2,5-11.71,11.34-19.08,16.11-.29.19-16.46,9.78-10.92,9.78,10.09,0,28.68-18.68,37-24.39a239.19,239.19,0,0,1,39.56-22c12.94-5.75,20.18-8.47,30.58-17.69a85.87,85.87,0,0,1,12.59-8c4.49-2.33,5,1.41,5.36,2.51,1.34,4.67,7.56,6.29,11,9.35,9.59,8.55,21.15,18.68,31.94,25.55,18.85,12,48.65,27.22,71.87,27.22C268.46,434.45,293.87,425.44,291.61,420.91Z"/><path d="M273.68,460.24c-26.52,0-55.88-15.33-77.66-29.22-4.85-3.09-57-45-50.15-49.56-.57.38,34.51,33.16,38.7,36.31a214.08,214.08,0,0,0,53.94,29.31c14.55,5.44,31.85,10.36,47.16,4.13,6.71-2.73,12.37-5.59,17.11-11,1.85-2.1,10.59-15.53,11.21-15.53,6.48,0-9.85,21-10.55,21.69C295.14,454.5,285.69,460.24,273.68,460.24Z"/><path d="M425.89,438.73c-7.52,0-17.54-52.28-30.51-59.81C388.27,374.79,338,353,338,356.19c0-4.12,31.14,2,33.93,2.72,11.57,3.09,23.22,7.79,30.68,17.56,7,9.13,9.25,22.12,13.28,32.7C416.55,410.89,428.17,438.73,425.89,438.73Z"/></svg>
