<?xml version="1.0" encoding="utf-8"?>
<!-- Generator: Adobe Illustrator 21.1.0, SVG Export Plug-In . SVG Version: 6.00 Build 0)  -->
<svg version="1.1" id="Capa_1" xmlns="http://www.w3.org/2000/svg" xmlns:xlink="http://www.w3.org/1999/xlink" x="0px" y="0px"
	 viewBox="0 0 146 114.7" style="enable-background:new 0 0 146 114.7;" xml:space="preserve">
<path d="M142.2,3.8C139.6,1.3,136.5,0,133,0H13C9.5,0,6.4,1.3,3.8,3.8C1.3,6.4,0,9.5,0,13v88.6c0,3.6,1.3,6.7,3.8,9.2
	c2.6,2.6,5.6,3.8,9.2,3.8H133c3.6,0,6.7-1.3,9.2-3.8c2.6-2.6,3.8-5.6,3.8-9.2V13C146,9.5,144.7,6.4,142.2,3.8z M135.6,101.7
	c0,0.7-0.3,1.3-0.8,1.8s-1.1,0.8-1.8,0.8H13c-0.7,0-1.3-0.3-1.8-0.8s-0.8-1.1-0.8-1.8V39.1c1.7,2,3.6,3.7,5.6,5.4
	C30.6,55.7,42.2,64.9,50.8,72c2.8,2.3,5,4.2,6.8,5.5s4.1,2.6,7,4s5.7,2,8.4,2H73h0.1c2.6,0,5.4-0.7,8.4-2c3-1.3,5.3-2.6,7-4
	c1.7-1.3,4-3.1,6.8-5.5c8.6-7.2,20.1-16.3,34.7-27.5c2-1.6,3.9-3.4,5.6-5.4L135.6,101.7L135.6,101.7z M135.6,15.2v0.9
	c0,3.2-1.3,6.8-3.8,10.7c-2.5,3.9-5.3,7.1-8.2,9.4C113.1,44.4,102.2,53,90.9,62c-0.3,0.3-1.3,1.1-2.9,2.4c-1.6,1.3-2.8,2.4-3.7,3.1
	c-0.9,0.7-2.1,1.6-3.6,2.6s-2.9,1.8-4.1,2.2S74.2,73,73.1,73H73h-0.1c-1.1,0-2.3-0.2-3.5-0.7c-1.2-0.5-2.6-1.2-4.1-2.2
	c-1.5-1-2.7-1.9-3.6-2.6c-0.9-0.7-2.2-1.7-3.7-3.1c-1.6-1.3-2.5-2.1-2.9-2.4c-11.3-9-22.2-17.6-32.7-25.8c-8-6.3-12-14-12-23.1
	c0-0.7,0.3-1.3,0.8-1.8s1.1-0.8,1.8-0.8H133c0.4,0.2,0.8,0.3,1.1,0.2c0.3-0.1,0.6,0.1,0.7,0.6c0.2,0.5,0.3,0.8,0.4,0.7
	s0.2,0.3,0.2,1c0,0.7,0,1.1,0,1.1L135.6,15.2L135.6,15.2z"/>
</svg>
