<svg xmlns="http://www.w3.org/2000/svg" viewBox="0 0 62 62">
<path d="M44.9,21.7c-2.6,0-4.7-2.1-4.7-4.7c0-2.6,2.1-4.7,4.7-4.7c2.6,0,4.7,2.1,4.7,4.7l0,0
	C49.6,19.6,47.5,21.7,44.9,21.7z M44.9,15.5c-0.9,0-1.6,0.7-1.6,1.6c0,0.9,0.7,1.6,1.6,1.6s1.6-0.7,1.6-1.6l0,0
	C46.5,16.2,45.8,15.5,44.9,15.5z"/>
<path d="M44.9,40.3c-0.5,0-0.9-0.2-1.2-0.5c-1.8-2.2-3.4-4.5-4.8-7c-3.2-5.6-4.9-10.9-4.9-15.7
	c0-6,4.9-10.8,10.8-10.8S55.8,11.1,55.8,17c0,4.8-1.6,10-4.9,15.7c-1.4,2.5-3,4.8-4.8,7C45.8,40.1,45.4,40.3,44.9,40.3z M44.9,9.3
	c-4.3,0-7.7,3.5-7.8,7.8c0,7.9,5.3,15.9,7.8,19.2c2.4-3.3,7.8-11.3,7.8-19.2C52.7,12.8,49.2,9.3,44.9,9.3z"/>
<path d="M57.3,0H4.7C2.1,0,0,2.1,0,4.7v52.7C0,59.9,2.1,62,4.7,62h52.7c2.6,0,4.6-2.1,4.7-4.7V4.7
	C62,2.1,59.9,0,57.3,0z M20.1,55.8c-0.9,0-1.6,0.7-1.6,1.6l0,0v1.6h-6.2V3.1h6.2v1.6c0,0.9,0.7,1.6,1.5,1.6s1.6-0.7,1.6-1.5
	c0,0,0-0.1,0-0.1V3.1h6.2v55.8h-6.2v-1.5C21.7,56.5,21,55.8,20.1,55.8C20.1,55.8,20.1,55.8,20.1,55.8z M9.3,49.6H3.1v-3.1h6.2V49.6z
	 M31,46.5h27.9v3.1H31V46.5z M58.9,4.7v38.7H31V3.1h26.4C58.2,3.1,58.9,3.8,58.9,4.7z M4.7,3.1h4.6v40.3H3.1V4.7
	C3.1,3.8,3.8,3.1,4.7,3.1L4.7,3.1z M3.1,57.3v-4.7h6.2v6.2H4.7C3.8,58.9,3.1,58.2,3.1,57.3z M57.3,58.9H31v-6.2h27.9v4.7
	C58.9,58.2,58.2,58.9,57.3,58.9L57.3,58.9z"/>
<path d="M20.2,15.5c0.9,0,1.5-0.7,1.5-1.5v-3.1c0-0.9-0.7-1.6-1.5-1.6c-0.9,0-1.6,0.7-1.6,1.5
	c0,0,0,0.1,0,0.1v3.1C18.6,14.8,19.3,15.5,20.2,15.5z"/>
<path d="M20.2,24.8c0.9,0,1.6-0.7,1.6-1.6c0,0,0,0,0,0v-3.1c0-0.9-0.7-1.6-1.6-1.6c-0.9,0-1.6,0.7-1.6,1.6
	v3.1C18.6,24.1,19.3,24.8,20.2,24.8z"/>
<path d="M20.2,34.1c0.9,0,1.6-0.7,1.6-1.6c0,0,0,0,0,0v-3.1c0-0.9-0.7-1.5-1.6-1.5c-0.8,0-1.5,0.7-1.5,1.5
	v3.1C18.6,33.4,19.3,34.1,20.2,34.1z"/>
<path d="M20.2,43.4c0.9,0,1.6-0.7,1.6-1.6v-3.1c0-0.9-0.7-1.6-1.5-1.6c-0.9,0-1.6,0.7-1.6,1.5
	c0,0,0,0.1,0,0.1v3.1C18.6,42.7,19.3,43.4,20.2,43.4z"/>
<path d="M21.7,48.1c0-0.9-0.7-1.5-1.6-1.5c-0.8,0-1.5,0.7-1.5,1.5v3.1c0,0.9,0.7,1.6,1.5,1.6
	c0.9,0,1.6-0.7,1.6-1.5c0,0,0-0.1,0-0.1V48.1z"/>
</svg>
