<svg xmlns="http://www.w3.org/2000/svg" viewBox="0 0 62 62">
  <path d="M44.9 21.7c-2.6 0-4.7-2.1-4.7-4.7s2.1-4.7 4.7-4.7 4.7 2.1 4.7 4.7-2.1 4.7-4.7 4.7zm0-6.2c-.9 0-1.6.7-1.6 1.6 0 .9.7 1.6 1.6 1.6s1.6-.7 1.6-1.6c0-.9-.7-1.6-1.6-1.6z"/>
  <path d="M44.9 40.3c-.5 0-.9-.2-1.2-.5-1.8-2.2-3.4-4.5-4.8-7-3.2-5.6-4.9-10.9-4.9-15.7 0-6 4.9-10.8 10.8-10.8s11 4.8 11 10.7c0 4.8-1.6 10-4.9 15.7-1.4 2.5-3 4.8-4.8 7-.3.4-.7.6-1.2.6zm0-31c-4.3 0-7.7 3.5-7.8 7.8 0 7.9 5.3 15.9 7.8 19.2 2.4-3.3 7.8-11.3 7.8-19.2 0-4.3-3.5-7.8-7.8-7.8z"/>
  <path d="M57.3 0H4.7C2.1 0 0 2.1 0 4.7v52.7C0 59.9 2.1 62 4.7 62h52.7c2.6 0 4.6-2.1 4.7-4.7V4.7C62 2.1 59.9 0 57.3 0zM20.1 55.8c-.9 0-1.6.7-1.6 1.6V59h-6.2V3.1h6.2v1.6c0 .9.7 1.6 1.5 1.6s1.6-.7 1.6-1.5V3.1h6.2v55.8h-6.2v-1.5c.1-.9-.6-1.6-1.5-1.6zM9.3 49.6H3.1v-3.1h6.2v3.1zM31 46.5h27.9v3.1H31v-3.1zM58.9 4.7v38.7H31V3.1h26.4c.8 0 1.5.7 1.5 1.6zM4.7 3.1h4.6v40.3H3.1V4.7c0-.9.7-1.6 1.6-1.6zM3.1 57.3v-4.7h6.2v6.2H4.7c-.9.1-1.6-.6-1.6-1.5zm54.2 1.6H31v-6.2h27.9v4.7c0 .8-.7 1.5-1.6 1.5z"/>
  <path d="M20.2 15.5c.9 0 1.5-.7 1.5-1.5v-3.1c0-.9-.7-1.6-1.5-1.6-.9 0-1.6.7-1.6 1.5V14c0 .8.7 1.5 1.6 1.5zm0 9.3c.9 0 1.6-.7 1.6-1.6v-3.1c0-.9-.7-1.6-1.6-1.6-.9 0-1.6.7-1.6 1.6v3.1c0 .9.7 1.6 1.6 1.6zm0 9.3c.9 0 1.6-.7 1.6-1.6v-3.1c0-.9-.7-1.5-1.6-1.5-.8 0-1.5.7-1.5 1.5v3.1c-.1.9.6 1.6 1.5 1.6zm0 9.3c.9 0 1.6-.7 1.6-1.6v-3.1c0-.9-.7-1.6-1.5-1.6-.9 0-1.6.7-1.6 1.5v3.2c-.1.9.6 1.6 1.5 1.6zm1.5 4.7c0-.9-.7-1.5-1.6-1.5-.8 0-1.5.7-1.5 1.5v3.1c0 .9.7 1.6 1.5 1.6.9 0 1.6-.7 1.6-1.5v-3.2z"/>
</svg>
