<svg xmlns="http://www.w3.org/2000/svg" viewBox="0 0 34.03 28.927"><path d="M33.181 27.226a11.022 11.022 0 0 1-5.525-2.052 12.7 12.7 0 0 1-2.983.351 11.4 11.4 0 0 1-6.5-1.9 6.034 6.034 0 0 1-2.859-4.907 6.034 6.034 0 0 1 2.855-4.906 11.415 11.415 0 0 1 6.5-1.9 11.4 11.4 0 0 1 6.5 1.9 6.034 6.034 0 0 1 2.855 4.907 5.811 5.811 0 0 1-2.222 4.419 7.847 7.847 0 0 0 1.948 2.612.851.851 0 0 1-.577 1.477zm-5.356-3.825a.856.856 0 0 1 .514.172 13.008 13.008 0 0 0 2.557 1.433c-.926-1.353-.9-2.123-.818-2.447a.857.857 0 0 1 .311-.465 4.307 4.307 0 0 0 1.938-3.376 4.391 4.391 0 0 0-2.129-3.514 9.7 9.7 0 0 0-5.527-1.592 9.7 9.7 0 0 0-5.528 1.591 4.391 4.391 0 0 0-2.129 3.515 4.391 4.391 0 0 0 2.129 3.514 9.7 9.7 0 0 0 5.528 1.591 10.814 10.814 0 0 0 2.923-.391.879.879 0 0 1 .23-.031z"/><path d="M.851 28.927a.851.851 0 0 1-.437-1.581 10.568 10.568 0 0 0 4.494-5.409A11.653 11.653 0 0 1 0 12.763 10.458 10.458 0 0 1 1.307 7.72a13.068 13.068 0 0 1 3.507-4.052A18.505 18.505 0 0 1 16.164.001a18.91 18.91 0 0 1 10.553 3.086 12.31 12.31 0 0 1 5.443 7.814.85.85 0 0 1-1.673.308A10.632 10.632 0 0 0 25.76 4.49a17.2 17.2 0 0 0-9.6-2.792C8.189 1.701 1.7 6.663 1.7 12.761a10.135 10.135 0 0 0 4.689 8.154.853.853 0 0 1 .333.917 11.746 11.746 0 0 1-2.688 4.744 28.917 28.917 0 0 0 6.366-3.333.849.849 0 0 1 .716-.117 18.372 18.372 0 0 0 5.05.7.851.851 0 1 1 0 1.7 20.091 20.091 0 0 1-5.132-.655 35.29 35.29 0 0 1-3.725 2.161 15.23 15.23 0 0 1-6.455 1.9z"/></svg>