<svg xmlns="http://www.w3.org/2000/svg" viewBox="0 0 365.3 480">
  <path d="M363.6 392c-8.2-1.9-15.9-6.3-23.7-9.4-8.7-3.5-18.4-5.1-26.7-8.7-13.3-5.8-25.1-15.2-37.3-22.9-4.9-3.1-14.3-5-14.2-10.9.1-6.5 9.9-16.7 12.6-23.2 7.2-17 11.2-36.9 13.3-55.1 4.4 3.2-2.1 24.3-3.3 30.5-1.2 6.2-4 18.3-5.4 24.4-.6 2.6-2.8 4.7-2.7 6.5.2 3.8 5.5 9.6 9.1 11.9 2.4 1.5 14.7-19.7 13.8-22.9-2.9-10.2-4.5-32.8-4-47.2.1-4 7.5-4.2 8.3-18.1.7-11.5 1.3-27 11.5-31.9 12.3-6 12.2-11.6 21.1-15.1 3.8-1.5 11.4-.8 14.9-1 8.9-.7.5-9.1-5.6-15.2-3.9-3.9-10-11.2-7.8-14.4 2.6-3.8 9.6 1.2 8.5-6.1-.7-4.6-12.7-15.5-15.5-20.6-14.5-27-15.7-58.4-27.6-86.1-9.4-22.5-34.7-46.9-60.5-47.7-6.6-.2-13.3 2.3-19.5 3.4-7 1.3-14.6-2.7-17.7-4C188.1 1.1 169.4-1.6 151 1c-30.4 4.4-56.9 23-74.7 47.5-16.2 22.3-27.7 51.7-38.2 77.2-8.6 20.9-17 52.1-11.7 74.3 1.7 7 6.8 12.9 8.1 19.6 1 5 0 10.7.6 15.8 1.8 16.1 12 27.9 13.6 43.8.5 5.5-.2 22.9 6.1 17 11.1-10.4 5.9-42.2 17.5-52.7-.4 7.2 2.4 12.6 2.8 18.9.5 7-5.1 29.6-7.3 35.7-.8 2.2-1.6 2.6-1.4 4.1.7 5.8 7 15.1 8.8 18 1.3 2.1 11.7-6.8 11.5-8.8-.7-6.5-11-46-4-49.7 3 13.2 3.4 26.7 5.6 40 1 6.1 2.4 12.2 4.7 17.9.8 2 7.5 12.3 7.1 13.6-1.3 4.3-14.5 5.4-19.7 6.9-9.5 2.7-18.7 7.5-28.2 10C46.6 351.6-3 364.6 0 371.2c1.3 3 34.4-9.2 39.6-10.3-2.5 20.3 8.1 36.6 7.9 57.1-.1 15.1-4.9 30.7.5 45 .6 1.5 8.5 13.2 9.4 6 .7-5.7-3.9-16.4-4.6-22.3-2.9-26.1-1-53-1.9-79.2-.4-11.8-.5-12.4 10.7-16.6 12-4.5 25.2-5.8 38.1-7.2-.9 8.8-2.3 14.4-4.8 22.9-.6 1.9-10.1 11.8-5.4 12.1 8 .5 17.9-32.5 18.4-37.6 10.2 12.4 18 20 28.7 31.8 9.5 10.5 18.3 17.4 32.8 19.7 32.4 5.3 59.9-20.1 84.6-44.5 0 3.3 8 35.5 14.2 32.6 1.9-.9-6.3-24.6-6.3-28.8 9.2 3.8 16.4 6.3 24.6 11.6 8.5 5.5 20.6 8.8 27.4 16.6 8.6 9.9 1.6 23-.9 34.1-2.9 13-3.6 26.4-6.9 39.3-.9 3.5-10.4 24.8-8 26.2 4.6 2.6 14.1-20.7 14.9-23.9 3.4-13.1 1.1-27.6 4.1-40.7 2.4-10.6 15.7-22 8.8-32.3 11.2 2.6 15.2 5.1 25.8 9.3.9.4 9.4 4.5 10.7 3.9 1.5-.5 5-3.1 1.2-4-3.3-.8 1.2.2 0 0zm-71.7-120c-.5 18.3 3.5 37.9 2.3 39.9-1.3 2.3-9.3 4.6-11.9 6.1 2.9-10.3 8.8-42.5 9.6-46zm-11.6 51.4c4.1-2.9 11.3-6 15.8-8.3-2.5 4.6-6.8 11.6-10.1 15.7-.4-.5-4.2-5.6-5.7-7.4zM62.6 244.1c-1.7 10.5-4.6 40.5-7.8 30.3-2.7-8.5-12.9-24.4-13.8-44.7-.4-8.6.5-15-3.3-22.8-5.2-10.8-8.4-20-6.9-31.6 5-39.1 22.2-70.3 39.5-105.4C90.9 28.4 135.1 0 182 8.6c10.5 1.9 24 1.7 32.2 8.9 2.1 1.8-.2 8 5.4 6.1.7-.2 6.3-5.2 8-6.2 17.5-10.7 38.2 5 51.1 16C318 66.9 303.6 134 336.6 158c10.6 7.7-27.1 2 4.6 29.8 6.3 5.5-5.2 3.5-11 7.6-5.1 3.6-10 14.6-17.7 9.9-4.1-2.5-2.9-6.9-8.5-8.2-6.5-1.5-6.5 9.3-9.6 5.8-5.2-5.9 1.1-9.1-.6-19.1-1.1-6.4-5.6-10.5-9.2-15.7-10.6-14.9-5.9-35.3-12.8-51.7-4.4-10.5-20.4-24.5-25.4-34.9-2.1-4.3-2.9 10.3-4.3 12.6-2 3.1-5 5.7-7.9 8-5.5 4.5-11.8 8.2-17.9 11.7-31.8 18.5-74.8 11.3-96.2 45.2-17.6 27.9-6.5 63.7-11.1 72.1-2.5 4.5-1.5-3.9-2.9-12.2-1.4-7.8-2.3-19.9-2.8-27.9-.5-7.6-2-12.9-6-3.3-5.2 12.4-3.7 25.1-11.9 36.5-7 10.2-20.2 3.6-22.8 19.9zm68.6-28.6c5.5-1 10.3-7.8 6.9-13.1 5.6-.4 13.6 9.6 10.4 10.2-6.7 1.3-11.2 3.5-17.9 4-3.4.3-9.4-.1-12.3-1.7-5.5-3.1-4.4-4.2-4.4-11.3h6.6c-1.4 6.3 4.1 13.1 10.7 11.9 6.3-1.1-8.4 1.5 0 0zM70 304.2c4.6 1.6 9.2 4.1 13 7.1-1.5 2.1-4.9 4.1-6.9 5.7-2-2.3-4.5-8.4-6.1-12.8zm7.9-38.3c.8 11.4 3.1 30.3 5.2 41.5-3-1.8-9.6-5.5-13-6.6.7-5.8 5.7-25.1 7.8-34.9zm160.5 89.2C221 368.9 198 391 174.2 388.9c-20.2-1.8-27.3-15-40.5-28.5-18.1-18.4-37.2-34.1-41.4-60.5-1.9-12.3-.2-24.4-2.8-36.5-.5-2.3-1.7-18.1-6-17-3.9 1-.2 10-2.7 11.4-.1-1.3-1.5-7.1-3.8-3.7-.8-3.4-1.9-11-.3-14 1.6-3 8.5-5.7 11-8.6 7.6-9 12.3-30.9 13.4-19.6.7 7.5 2.9 21.4 2.2 32.4-.4 5.8-2.2 30.7 5.5 13.7 5.8-12.8 5.7-26.2 5.4-39.9 7.4 2.5 48.3 2.8 39-10.2.9 1 5.5 2.5 4.6-.4-1.2-3.7-5.3-6.5-8.6-7.9-9.9-4.1-24.6-.2-35.2-.2.1-6.3 3.5-8.6 13.1-6.8 5.9 1.1 8.9 3.3 14.8 2.3 4.4-.8 5.3-3.6 8.4 1.1 1.5 2.2 1.7 4 4.8 4.1 6.2.2-2.2-12.2-6.9-12.6-2.8 0-6.5 1.2-9 2.4-2.1 1-5 1.4-7.9-.4-6.1-3.5-9.3-5.3-16.1-1.9 12.3-70.1 98.5-39.8 132.2-87.8 12.8 14.1 20.3 20.5 23.1 40.2 2.1 14.6 5 23 12.6 35.2 3.6 5.8 5 11.4 5 18.2 0 4.7-4.9 23.2-.1 26.6 7.6 5.5 9.7-17.4 15.3-16.4 6.8 1.2.7 16.4-.8 21.3-2.8 8.8-.2 24-5.8 31-2.1-5.3-5.3 1.6-5.7 2.9-5.2-1.9 4.5-32.4-3.8-19.4-6.5 10.3-4.9 31.9-7.8 43.9-7.5 31.9-30.5 63.6-41 71.8z"/>
  <path d="M271.8 206.6c7.4 0-8.9-13.2-10-13.9-7.4-4.5-15.8-6.1-24.3-5.3-8 .8-14.3 4.5-21.9 3.6-5.6-.7-11.5-5.7-17.1-.1-1.7 1.7-3.2 7.2-1.8 9 2.8 3.7 6.3-4 8.2-4.7 2.9-1.1 8.8 2.6 12.7 2.4 2.4-.1 7-2.9 9.1-3.6 8.4-2.7 17.6-2.9 26.2-.1 5.8 2.1 14.5 12.7 18.9 12.7zm-115 20.8c5.1-4 7-14.3 4.3-13.7-2.1.5-2.1 6.3-7 11.7-1.6 1.7-6.7 8.4-5.8 12.1.9 3.6 3.4-6.1 8.5-10.1z"/>
  <path d="M260.5 209.1c-14.2 0-23.2-13-38.7-10.2-4.9.9-12.9 3.3-16.3 7.2-1.1 1.3-6.6 7.5 1.4 4.1-9.6 9.8 27.9 14.4 34 13.2 7-1.4 11.2-7.3 14.4-8.2 1.4-.2 12.6-6.1 5.2-6.1zm-10.4 1.8c6.1 3.2-12.9 8.8-15 8.7-7.7-.2-16.3-.5-23-4.4-3.7-2.1 3.6-10.8 9.7-12-10.5 15.2 27.2 20.4 19.2 2.1 2.5 1.5 5.7 3.8 9.1 5.6zM221 314.6c-1.9-2.3-5.8 1.7-8.9 1.5-5.9-.2-13-6.3-18.9-6.1-4.8.2-9.1 3.8-13.2 3.9-4 0-9.2-3.6-13.4-3.9-5.6-.3-10.8 5.6-16.4 5.3-4.4-.2-7.1-4.8-11-2.1-8.4 5.7 3.1 2.4 3.8 2.8 2.7 1.5 5.3 9.2 7.6 11.9 2.6 3 5.3 5.3 8.9 6.9 8 3.4 17.6 1.7 26 1.8 6.4.1 11.6.6 16.9-3.4 4.5-3.4 6.8-10.3 11.7-13.2 7.1-4.2 13.7 2.6 6.9-5.4zm-40.1 3.7c3.6-.4 9.5-3.3 13.2-3.7 4.8-.5 9.5 2.8 14.2 3.7-14.7 7.4-38.1 7-57.4-.4 2.1-.4 11.8-2.8 14-3.1 4.6-.7 8.8 4.4 16 3.5zm16.4 13.4c-6.2 3-12.7-1.1-27.6.9-9 1.2-12.7-3.3-17.5-11 7.6 3.8 22.9 5.1 28 4.7 6.2-.5 20-.5 25.4-3.1-2.6 3.2-4.4 6.6-8.3 8.5-2.8 1.3 2.7-1.4 0 0zm8.4-94.3c1.9 4.9 2.5-1.4 1.1-4.6-1.5-3.5-4.6-4.2-6.4-7.5-1.1-1.9-2.4-9.7-3.4-10.5-4.6-3.8-2 3.5-1.6 7 .8 6.3 8 9.6 10.3 15.6.3.8-1.5-3.9 0 0zm-66 182.6c-.4-2.8-4.3-20.1-10.6-16.7-4.1 2.2 4.5 9.3 5.5 12.5 1.6 4.7.7 16.6 6.4 19 5.8 2.3-1-13.1-1.3-14.8-.8-6 .6 4.2 0 0zm81.3-11c-6.3 5-6.9 10.3-9.9 17.2-1.3 2.9-9.5 12.6-3.3 12.6 5.3 0 8-15.5 9.8-18.9.8-1.6 6.5-7.5 6.4-8.2-.1-1.2-.3-4.8-3-2.7-6.3 5 .9-.7 0 0zm-61.6-130.1c-2 .9-1.8 3.5-1.1 5.3-8-2.9-7.6-8.3-6.6-14.2 1.3-7.8 5.4-3.3 4.8-8-.7-5.5-5.6-.2-7 5.1-2.1 8.2-3 17.1 7.4 20.2 3.3 1 6.7-1.2 9.3-.7 4.3.9 6.1 5.4 11.4 5.4 4.5 0 6.5-3.5 10.3-4.3 2.8-.5 5.6.2 8.8-.4 10.1-1.9 11.8-7.8 9.6-17-.7-3.1-5.5-16.2-7.3-9.2-1.1 4.2 3.2 2.7 4.6 10.5 1.1 6.4 1.5 11.4-6 12.4 4.8-5.3-5.5-4.8-7.2-4.1-3.6 1.3-3.8 5.9-9.8 7.3-11.3 2.7-13.1-10.2-21.2-8.3-1.3.3 3.2-.7 0 0z"/>
</svg>
