<svg xmlns="http://www.w3.org/2000/svg" viewBox="0 0 399.1 465.6">
  <path d="M284.8 194.9c-5.9 0-11.7-9.2-16.9-11.6-8.7-4-20.2-1.9-29.5-1.9-4.8 0-10.8-.7-15.3 1.2-1 .4-6.3 5.5-6.7 5.5-5.3.4-2.7-4.5 1.1-7.4 8.8-6.6 28.5-4.7 38.8-3.8 8.1.6 15.3 2.7 21.7 7.6 1.2.9 12.1 10.4 6.8 10.4z"/>
  <path d="M386.3 378.9c-16.4-8.1-38.1-24.5-56.7-25-2.3-.1-5.9 1.6-7.8 1.3-3.4-.6-9.2-5.5-12.2-7.3-4.6-2.7-9.2-5.4-13.9-7.9-5.6-3.1-12.6-5.1-17.7-8.8-4-2.8-4.3-.2-4.9-5.9-.4-3.6 5.6-10.1 7.4-13.4 10.4-18.4 15.3-38.7 18.9-59.4 3.9 2.6-2.6 41.8-4 47.4-.9 3.7-6 16.2 3.2 18.1 5.2 1.1 11.3-11.5 12.3-15.4 1.8-6.6.1-14.9-.6-21.9-.5-4.3-1.2-8.7-1.7-13-.4-3.1-1.3-6.8-1.1-9.9.7-11.1-.2-1.2 2.7-6.8 4-7.9 5-13.8 5.3-23 .4-11.1 6.2-18.8 7.8-29.4 2.6 8.1 10.5-.3 12.6-4.3 3.7-7.1 4-16.4 4.4-24.2 1-20.1-.4-39.1-6.7-58.4C320.7 72.9 311.8 11.4 263 2.2c-7.4-1.4-18.9-1.1-24.4 5-4.1 4.5-3.9 16.8 2.2 8.9 2.1-2.7.6-6.5 4.9-9.1 3.7-2.2 8.3-2 12.4-1.6 8.8 1.1 17.5 5.5 24.7 10.6 16.7 11.8 26.3 29.4 31.9 48.7 6.9 23.8 18.3 47.6 21.2 72.3.7 5.9 1.9 62.6-8.6 59.9-4.8-1.2.8-14.6-9.4-14.2-7.5.3-12 12.4-15 17.8-2.2-16 5.2-27.7-7.2-41.1-11.1-12.1-12.3-17.1-9-33.5 2.7-13.9-.7-21.1-8.9-32.1-1.5-1.9-11.6-18.9-14.6-16.1 1-5.1-.9-6.2-3.7-3-2.3 2.6-3.1 9.4-5.4 12.9-5.6 8.2-13.6 14.1-22.4 18.5-18.3 9-39 11.2-57.7 19.2-21.2 9.1-35.9 27.4-39.6 50.2-3.8 23.6 3.7 50.3-8.2 72.9 2.5-19.6 4.8-39.2 3.9-59-.3-6.7-3.6-29.2-8.1-11.2-3.7 15-5.7 29.2-15.6 41.7-4.6 5.8-10.1 10.9-13 17.8-3.8 9.1-3 19.4-5.9 28.7-7.4-7.5-18.9-11.3-24.1-20.7-7.4-13.3 3.1-28.5-3.5-41.2-6.4-12.2-11.6-19.8-10.9-34.6.8-18 8.1-34.8 15.5-50.9C89.8 63.5 126.3.8 195.8 4.1c9.7.5 20.4 6.5 29.7 6 12.9-.6-.1-5.1-5.1-6.4-25-6.5-52.7-4.9-76.1 6.3-29.5 14.1-46.1 40.6-62 67.8-16.1 27.6-34.5 56.7-36.9 89.5-.7 9.6.1 19.4 4.1 28.3 2.5 5.5 6.9 10 8 16.1 3 16.1-5.6 30.1 8.2 43.4 5.4 5.2 12.6 9.3 18.5 13.8 3 2.3 1.5 5 5 4.1 5.6-1.5 4.9-22 6.1-26.9 8.4 14.7-15.1 43.8-1.1 58.1 3.3 3.4 5.3 3.3 9.2.3 6.9-5.4 2.7-9.9 1.5-15.4-2-9-2.8-22.1-2-31.3 2.6 16.5 4.9 33.2 11.5 48.7 1.7 4 8 11.5 6.2 15.6-1.7 3.9-4.7 2.9-9.8 3.6-9.4 1.4-18.5 4-27.8 5.6-8.6 1.5-16.3-1.8-25.6-.1-11.6 2.1-22.7 6.9-33.8 10.7C20 343.1.9 347.5.1 353.3c-.7 5 21.7-6.2 24.2-7.3 14.9-6.2 30.9-9.7 46.8-10.5-10.4 7.1-5.1 35.8-5 46.4.1 12.3.7 24.3 2.9 36.4 1.8 10 3.6 20.5 7.3 30 2.6 6.8 9.3 13.4 6.3 1-3.1-13.2-9.1-25.4-11-39.1-2.7-19.2-1.8-39.3-1.6-58.6.1-11.9 4.5-14.4 15.6-16.4 11.3-2.1 23.7-2.9 34.4-7.3-.1 7.3-.2 13.2-1.7 20.2-.6 2.5-3.9 11.6.8 10.7 6.6-1.2 5.8-27.4 5.8-32.2 7.5 11.3 16.6 23.5 28.5 30.3 2.2 1.2 3.9.9 5.9 2.2 2.5 1.6 4.4 4.5 6.7 6.4 5.5 4.6 11.8 8.1 18.9 9.5 32.9 6.5 64.4-20.1 82.8-44.2-.9 6.9-5.2 29.9 1.3 34.5 5.1 3.6 2.7-7.4 2.4-9.5-.9-8.1.3-14.4 1.3-22.5 15.5 9.1 42.1 16.2 53 31.2 7.9 10.9 1.6 25.8-.2 37.7-2.5 15.9-3.8 33-12.1 47.2-1.1 1.8-11.6 15.4-8.1 16.3 6.3 1.5 14.1-19.1 15.8-23.4 5.8-15.2 6.8-31.5 9.5-47.4 2.2-13.1 6.3-26.4-5-36.5 13.3-.2 25.3 7.4 37 13.2 5.8 2.9 29.6 19.9 36.2 16.5 1.7-1-11-8.5-12.5-9.2-10.5-5.2 1.2.6 0 0zM303.6 258c1.2 8.9 1.4 17.9 1.8 26.9.3 8.5 1.4 9.2-6.1 14 3.2-13.3 3.5-27.3 4.3-40.9 1.3 9.7-.3 4.5 0 0zm3.5 40.9c1.3 1.8-6.3 11.5-7.6 13.3-1.9-3.4-3-3.4-1.5-6.6 1.1-2 7.4-5.7 9.1-6.7.1.2-3.9 2.2 0 0zM137.4 191.4h3.1c-3.4 1.9-.8 9.8 2.1 11.6-7.5-1.6-5.4-3.7-5.2-11.6.9 0-.1 3.6 0 0zM98 238.1c-.5-.8 1.5 3.2.8 5.5-2-1.8.5-3.4-.8-5.5 0 0 .7 1.1 0 0zm.9 31.3c.3 5.6.3 11.2 1.2 16.8-5.3-2.7-2.5-10.7-1.2-16.8.1 1.7-.3 1.5 0 0zm4.9 24.7c1.5 2.9-3.4 9.5-6.1 8.6-3.4-1.1-3-11.9-3.4-14.6 0 .3 3.2 1.2 1 .4 2.1.8 6.8 5.3 8.5 5.6.1.4-.9-.2 0 0zm157 38.6c-13.8 16.2-32.1 32.1-53.1 37.7-9.7 2.6-20.1 2.7-29.4-1.4-3.7-1.6-25.3-23.5-27.2-22.2-.5 1.2-.2 2.4.8 3.4-28.5-20.5-40.5-56-44.2-89.4-.7-6.2-1.3-12.6-2.8-18.7-1.7-7.1-3.8-7.8-.7-13.9 3.8-7.4 9.6-13.3 13.1-21.1 3.7-8.3 6-17.2 8.1-26 1.4 14.9 1.5 30.4-.2 45.3-.7 6.4-8 26.6-4.3 32.3 4.4 6.7 8.6-7.5 10-11.2 4.9-13.2 6.1-27.1 6.3-41.1 8.2 2.3 34.5 4.5 30.6-10.4 7.5 4.1-.1-6.2-3.5-7.8-7.2-3.4-19.2-3-26.8-1.9.4-8.1 4.2-4.2 10.8-3.6 3.9.3 7.1.1 10.9-.2 3-.2 6.1-2.5 9.1-.7 2.5 1.5-.4 5 3.1 5.7 4 .8 1.3-6.4.5-7.4-2.1-2.8-4.2-2.5-7.4-2.7-3.5-.2-7.3 1.1-11 .9-5-.3-10-1.5-15.1-1.5 4.1-31.3 27.6-45.9 55.8-53.7 22.4-6.3 62.5-15.8 68.5-43.2 3 15.7 23.3 20 21.7 38.2-.9 10.1-7.5 19.8-3.7 30.1 3.2 8.6 12.6 12.2 17 19.8 6.2 10.8-4.6 27.4 2 37.1 8.5 12.4 10.8-24.8 19.9-17.2-5-2.7-.6 6.9-.6 7 0 6.9-3.9 12.4-6.1 18.7-2.6 7.7 2.7 31.3-6.2 34.8 0 1.2 0-7.1-1.8-6.3-1.5.6-2.6 4.7-3 5.8-3.5-3 10-36.1 3.6-37-5.3-.7-12.8 55.6-13.9 60.3-5.1 22.8-15.5 43.5-30.8 61.5-18.8 22.2 12.3-14.5 0 0zm-102.7-142c4.8.8 3.9 4.7 7 8.2-5.1 3.4-10.6 6.1-16.9 5.1 6.1-.5 14.6-6.5 9.9-13.3.9.2 4.5 6.5 0 0z"/>
  <path d="M296.3 307.1c1 1.4.7-.6 0 0zm-133.4-78.8c-4.3 0 7.2-11.4 8.1-12.7 2.5-3.6 3.1-20 6.5-20.6 4.3-.8-.3 33.3-14.6 33.3zm106.6-32.2c-10.5-4.1-20.8-10.8-32.4-8.8-4.5.8-18.3 3.6-19.6 8.9-.5 2 7.9-.8 6.9-.5-12.9 19.4 48.9 16.9 44.7 4.3-2.6-.5 7.3 1.4 6.4-.4-.8-1.7-4.3-2.9-6-3.5-5.6-2.2.1 0 0 0zm-5.2 4c-2.4 1.4-4.6 4.1-10.5 4.7-9 .9-19.6.4-28.1-2.7-.9-4.1 9.2-10.4 12.3-11-17.2 13.2 26.5 18.2 17.9 3.8-.4-.3 10.2 4.1 8.4 5.2 2.2-1.3-.1 0 0 0zm-30.9 101.1c1.6-2.8-4.9.2-4.3-.1 3.7-8.8-35.5-2.4-36.5-2.5-3.8-.5-7-3.1-10.9-3.3-3.8-.2-8 1.4-11.7 1.9-2.3.4-16.4 1.4-16.5 1.7-.7 2.7 7.6 6.2 8.9 7.3 3.2 2.9 4.4 6.7 8.4 9.3 7.4 4.7 17 5.2 25.4 5.5 9.3.3 16.5.1 23.9-5.9 3.4-2.8 6-8 9.9-10 .2 0 13.6-3.5 3.4-3.9.8-1.5 3 .1 0 0zm-51.7-1.9c7.5.2 12.1 4 20.1 2.9 8.2-1.1 13.2-1.4 21.5-.3-19.1 2.7-33.3 5.6-52.5-.1 3.4-.7 7.4-2.6 10.9-2.5 4.9.1-2.6-.1 0 0zm29 17.5c-13.9 3.5-34.3.6-43.8-10.8 8.8 2.2 18.3 4.2 27.4 4.6 10 .5 18.8-3.8 28.6-4.7-3.5 4.2-6.4 9.4-12.2 10.9-6.9 1.7 6.1-1.6 0 0zm-18.1-37.9c-5.2 0-9.4-5.2-13.8-7.3 1.2 3.7-12-3.5-1.3-5.1 6.9-1 10.4 9.4 18 7.5 4.7-1.2 13.7-13.3 18.8-7.9 6.1 6.3-8.1 7.9-5.5 4.4-5 2.8-10 8.4-16.2 8.4z"/>
  <path d="M177.4 275.3c-9.6 0-12.1-8.3-11.8-16.4.1-2.6 1.7-17.8 5.9-14.8 4.7 3.3-3.8 15.8-1.7 21 .7 1.3 13.2 10.2 7.6 10.2zm33.5.7c-2.9 0 5.9-9.8 6.4-12.3.5-2.6-4.5-18.7-1.2-19.7 4.5-1.3 11.5 32-5.2 32zm14.7-52.4c-6.6 0-15.1-23.2-10.3-23.7-.4 0 14.7 23.7 10.3 23.7zm-69.8 193.8c-5 0-4.3-18.5-7.3-21.8-1.7-1.9-17.2-5.2-5.9-7.1 14.7-2.4 13.4 28.9 13.2 28.9zm66.2 2c-.2 0 10-33.1 21-23 5.2 4.7-7.6 5-9.8 6.9-4.2 3.7-4 16.1-11.2 16.1z"/>
</svg>
