<svg xmlns="http://www.w3.org/2000/svg" viewBox="0 0 456.5 630.77"><polygon class="white" points="228.25 630.77 114.13 517.83 0 404.88 228.25 404.88 456.5 404.88 342.38 517.83 228.25 630.77"/><path d="M396.83,364.55c-7.63-1.79-14.78-5.83-22-8.72-8.08-3.21-17.12-4.73-24.84-8.1-12.34-5.39-23.35-14.13-34.68-21.32-4.52-2.87-13.25-4.68-13.21-10.12.05-6.07,9.2-15.55,11.72-21.54,6.66-15.81,10.42-34.3,12.39-51.29,4.13,3-1.92,22.64-3.06,28.34s-3.73,17-5.06,22.7c-.56,2.4-2.65,4.33-2.54,6,.21,3.49,5.11,8.89,8.49,11,2.21,1.4,13.65-18.3,12.81-21.26-2.68-9.49-4.22-30.51-3.75-43.87.13-3.75,7-3.88,7.72-16.87.63-10.72,1.22-25.1,10.69-29.7,11.43-5.56,11.37-10.8,19.58-14,3.58-1.41,10.65-.71,13.9-1,8.27-.68.47-8.48-5.17-14.16-3.63-3.66-9.29-10.41-7.23-13.43,2.44-3.57,8.92,1.16,7.94-5.67-.61-4.28-11.85-14.4-14.37-19.12-13.46-25.14-14.57-54.29-25.65-80.1C331.59,31.64,308,8.9,284.06,8.17c-6.16-.19-12.37,2.12-18.13,3.18-6.55,1.21-13.54-2.55-16.43-3.74A96.11,96.11,0,0,0,199.12.92C170.87,5,146.23,22.27,129.66,45.1c-15.05,20.74-25.73,48.1-35.51,71.78-8,19.39-15.81,48.42-10.89,69.07,1.55,6.51,6.33,12,7.53,18.22.89,4.67,0,9.95.58,14.74,1.68,15,11.17,26,12.61,40.77.5,5.1-.15,21.31,5.71,15.78,10.28-9.71,5.47-39.27,16.23-49-.39,6.65,2.21,11.75,2.59,17.56.43,6.52-4.77,27.5-6.79,33.17-.74,2.07-1.52,2.44-1.35,3.85.66,5.43,6.49,14,8.22,16.76,1.25,2,10.92-6.3,10.73-8.2-.62-6.09-10.22-42.78-3.68-46.25,2.78,12.29,3.17,24.85,5.23,37.25a80.09,80.09,0,0,0,4.34,16.69c.75,1.89,7,11.42,6.61,12.69-1.24,4-13.47,5-18.32,6.42-8.83,2.55-17.38,7-26.19,9.28C102.08,327,56,339.17,58.74,345.24c1.25,2.76,32-8.53,36.85-9.6-2.3,18.86,7.5,34,7.38,53.08-.09,14-4.55,28.54.48,41.89.52,1.38,7.88,12.26,8.75,5.55.69-5.29-3.66-15.21-4.27-20.71-2.68-24.25-1-49.28-1.74-73.69-.35-10.94-.43-11.51,10-15.46,11.14-4.23,23.48-5.36,35.4-6.7a104,104,0,0,1-4.44,21.28c-.52,1.79-9.35,11-5,11.27,7.48.47,16.67-30.22,17.08-34.94,9.46,11.49,16.73,18.62,26.73,29.58,8.87,9.72,17,16.18,30.48,18.36,30.13,4.88,55.68-18.69,78.67-41.34,0,3.11,7.48,33,13.2,30.28,1.72-.83-5.83-22.9-5.82-26.79,8.56,3.5,15.22,5.84,22.88,10.83,7.9,5.15,19.17,8.22,25.48,15.47,8,9.24,1.48,21.35-.86,31.72-2.73,12.08-3.31,24.52-6.42,36.56-.85,3.28-9.7,23.08-7.43,24.34C340.44,448.63,349.24,427,350,424c3.17-12.16,1-25.65,3.81-37.84,2.24-9.89,14.59-20.49,8.14-30.09,10.38,2.41,14.17,4.72,24,8.69.86.35,8.77,4.22,10,3.6s4.38-3,.9-3.82ZM330.06,252.94c-.45,17.05,3.28,35.23,2.16,37.14-1.23,2.1-8.68,4.23-11.05,5.71C323.85,286.15,329.38,256.21,330.06,252.94Zm-10.75,47.87c3.79-2.69,10.55-5.56,14.66-7.73a102.1,102.1,0,0,1-9.44,14.56C324.22,307.22,320.71,302.49,319.31,300.81ZM116.88,227c-1.57,9.79-4.26,37.66-7.23,28.18-2.49-7.94-12-22.73-12.79-41.53-.35-8,.48-13.92-3-21.24-4.8-10-7.77-18.65-6.4-29.43C92,126.65,108.1,97.64,124.16,65c19-38.63,60.1-65.06,103.75-57,9.77,1.8,22.32,1.54,30,8.3,1.94,1.71-.14,7.48,5,5.64.62-.22,5.9-4.86,7.4-5.78,16.26-10,35.51,4.63,47.55,14.91C354.37,62.21,341,124.61,371.67,147c9.82,7.15-25.25,1.84,4.32,27.76,5.82,5.1-4.86,3.26-10.24,7.06-4.74,3.35-9.29,13.56-16.47,9.19-3.79-2.31-2.66-6.39-7.92-7.6-6.08-1.41-6,8.67-8.91,5.39-4.79-5.46,1.06-8.48-.59-17.75-1.06-5.94-5.17-9.8-8.55-14.57-9.84-13.87-5.51-32.8-11.87-48-4.06-9.73-19-22.81-23.62-32.42-1.91-4-2.65,9.59-4,11.72a34.15,34.15,0,0,1-7.35,7.44,129.29,129.29,0,0,1-16.63,10.91c-29.54,17.21-69.59,10.48-89.48,42-16.37,26-6,59.28-10.32,67.07-2.31,4.18-1.37-3.65-2.72-11.31-1.28-7.29-2.12-18.55-2.59-25.93-.45-7.09-1.83-12-5.54-3.08-4.79,11.55-3.44,23.38-11,34C131.5,218,119.3,211.85,116.88,227Zm63.79-26.6c5.12-.91,9.58-7.27,6.46-12.19,5.2-.39,12.62,8.93,9.7,9.52-6.19,1.24-10.46,3.23-16.67,3.71-3.2.25-8.72-.09-11.41-1.6-5.12-2.87-4.09-3.93-4.11-10.54h6.17c-1.43,5.91,3.74,12.21,9.86,11.12ZM123.72,283a43.74,43.74,0,0,1,12.08,6.59c-1.43,2-4.52,3.8-6.43,5.28C127.51,292.65,125.21,287,123.72,283Zm7.34-35.69c.71,10.57,2.87,28.15,4.84,38.58-2.84-1.71-8.94-5.09-12.11-6.12C124.44,274.41,129.15,256.4,131.05,247.27Zm149.34,83c-16.21,12.8-37.56,33.38-59.67,31.45-18.81-1.64-25.4-14-37.67-26.46-16.83-17.14-34.57-31.68-38.46-56.31-1.8-11.39-.2-22.67-2.59-34-.44-2.1-1.58-16.85-5.57-15.83-3.59.91-.21,9.3-2.51,10.64-.06-1.24-1.41-6.57-3.57-3.42-.75-3.14-1.73-10.2-.24-13s7.93-5.32,10.22-8c7-8.33,11.41-28.7,12.43-18.22.68,7,2.68,19.92,2,30.1-.34,5.38-2,28.51,5.08,12.78,5.39-11.91,5.33-24.37,5-37.15,6.89,2.36,44.94,2.59,36.27-9.51.84,1,5.08,2.37,4.24-.36-1.08-3.47-4.92-6.08-8-7.37-9.17-3.85-22.84-.16-32.75-.17.13-5.9,3.27-8,12.23-6.34,5.49,1,8.28,3.11,13.75,2.17,4.07-.7,4.9-3.36,7.83,1,1.35,2,1.58,3.69,4.5,3.8,5.74.22-2-11.35-6.45-11.7a22,22,0,0,0-8.38,2.21,7.7,7.7,0,0,1-7.39-.33c-5.66-3.26-8.65-4.88-14.94-1.81,11.44-65.23,91.65-37,123-81.65,11.91,13.11,18.86,19.1,21.49,37.37,2,13.57,4.65,21.41,11.69,32.78a30.46,30.46,0,0,1,4.64,16.93c0,4.38-4.57,21.54-.09,24.77,7.11,5.13,9-16.17,14.22-15.22,6.29,1.14.66,15.29-.79,19.77-2.63,8.14-.19,22.32-5.41,28.79-1.93-4.89-4.9,1.46-5.27,2.7-4.85-1.72,4.18-30.1-3.5-18-6.08,9.59-4.57,29.63-7.22,40.87C311.53,293.17,290.08,322.63,280.39,330.27Z"/><path d="M311.36,192.19c6.84,0-8.28-12.27-9.31-12.9a35.81,35.81,0,0,0-22.63-4.93c-7.48.74-13.31,4.23-20.35,3.36-5.23-.65-10.65-5.34-15.94-.07-1.58,1.58-3,6.69-1.7,8.41,2.62,3.42,5.82-3.71,7.62-4.4,2.66-1,8.14,2.42,11.84,2.23,2.22-.11,6.54-2.7,8.49-3.32a39.71,39.71,0,0,1,24.33-.06C299.22,182.32,307.32,192.19,311.36,192.19Z"/><path d="M214.68,209.66c2.43-5.51-.5-14.76-2.4-13.13-1.52,1.31,1,6.12-.6,12.68-.51,2.11-1.82,9.86.51,12.51S212.24,215.2,214.68,209.66Z"/><path d="M300.89,194.52c-13.17,0-21.58-12.08-36-9.46-4.59.83-12,3.06-15.12,6.71-1,1.17-6.15,7,1.33,3.83-9,9.1,26,13.41,31.61,12.3,6.47-1.27,10.39-6.78,13.4-7.62C297.37,199.92,307.78,194.52,300.89,194.52Zm-9.69,1.61c5.71,3-12,8.17-14,8.13-7.14-.14-15.18-.49-21.43-4.06-3.45-2,3.38-10,9-11.11-9.78,14.1,25.32,19,17.81,2C285,192.3,288.09,194.5,291.2,196.13Z"/><path d="M261.94,289.38c-1.91-1.55-4.92,1.42-7.74,1.31-5.47-.22-12-2.83-17.51-2.62-4.44.17-8.74,1.61-12.63,1.63s-8.68-1.64-12.63-1.86c-5.19-.29-9.84,3-15,2.74-4.07-.17-6-4-9.89-1.91-5.24,2.86,2.64,2,3.22,2.26,2.56,1.39,4.76,9.31,6.93,11.82a18,18,0,0,0,7.48,5.57c7.41,3.16,14.94,3.51,22.76,3.6,5.92.07,13-.56,18-4.26,4.21-3.13,6.09-10.94,10.59-13.64C262.08,290.08,267.22,293.66,261.94,289.38Zm-37,4.42c3.32-.4,8.73-2.41,12.25-2.75,4.44-.43,7.83,1.55,12.15,2.38-15.25,6.31-32.17,4.88-50.28-.6,2-.35,8.63-1.47,10.6-1.79C213.92,290.36,218.15,294.61,224.91,293.79Zm15.2,12.39c-5.78,2.77-16.65,3.56-26.3,2-8.3-1.33-11.18-4.22-15.61-11.44,7.11,3.49,13.92,3.34,25,3.34s19.68.6,24.7-1.84c-2.45,3.07-4.13,6.16-7.81,7.93Z"/><path d="M188.56,390.58c-.36-2.62-4-18.65-9.82-15.51-3.82,2.07,4.15,8.68,5.14,11.64,1.47,4.38.61,15.42,5.92,17.63s-1-12.1-1.25-13.76Z"/><path d="M264.16,380.4c-5.89,4.66-6.46,9.6-9.25,16-1.18,2.69-8.87,11.76-3,11.76,5,0,7.47-14.42,9.15-17.62.79-1.5,6-6.94,5.93-7.67-.12-1.07-.28-4.42-2.8-2.43Z"/><path d="M206.85,259.4c-1.9.87-1.7,3.28-1,4.91-7.44-2.67-7.05-7.72-6.11-13.24,1.23-7.24,5-3,4.47-7.47-.67-5.14-5.23-.18-6.51,4.72-2,7.63-2.83,15.9,6.87,18.81,3,.91,6.2-1.11,8.61-.62,4,.82,5.71,5,10.63,5,4.16,0,6.07-3.26,9.57-4,2.57-.51,5.17.16,8.14-.4,9.37-1.79,10.95-7.24,8.94-15.8-.68-2.91-5.13-15-6.77-8.57-1,3.88,2.94,2.55,4.25,9.81,1.07,5.91,1.41,10.64-5.56,11.53,4.43-4.9-5.12-4.45-6.73-3.86-3.37,1.24-3.54,5.45-9.13,6.8-10.47,2.53-12.1-9.44-19.69-7.69Z"/></svg>
