<svg xmlns="http://www.w3.org/2000/svg" viewBox="0 0 20 20">
  <path d="M13.5 9C12.122 9 11 7.878 11 6.5S12.122 4 13.5 4 16 5.122 16 6.5 14.878 9 13.5 9zm0-4c-.827 0-1.5.673-1.5 1.5S12.673 8 13.5 8 15 7.327 15 6.5 14.327 5 13.5 5z"/>
  <path d="M18.5 0h-17C.673 0 0 .673 0 1.5v17c0 .827.673 1.5 1.5 1.5h17c.827 0 1.5-.673 1.5-1.5v-17c0-.827-.673-1.5-1.5-1.5zM1 18.5v-4.807l4.197-4.617c.085-.093.196-.145.314-.147s.233.046.32.137L15.33 19H1.5c-.277 0-.5-.224-.5-.5zm18 0c0 .276-.224.5-.5.5h-1.786L6.554 8.377c-.282-.294-.656-.452-1.054-.447s-.768.173-1.042.474L1 12.207V1.5c0-.276.225-.5.5-.5h17c.277 0 .5.224.5.5v17z"/>
</svg>
