<svg xmlns="http://www.w3.org/2000/svg" viewBox="0 0 31.069 36.55"><path d="M22.93 7.31a3.655 3.655 0 1 1 3.655-3.655A3.659 3.659 0 0 1 22.93 7.31zm0-5.483a1.828 1.828 0 1 0 1.828 1.828 1.831 1.831 0 0 0-1.828-1.827zM16.534 36.551a.928.928 0 0 1-.34-.066.916.916 0 0 1-.51-1.188l3.432-8.578-5.057-5.057a.915.915 0 0 1-.172-1.054l4.821-9.642h-5.555l-5.252 3.5a.913.913 0 1 1-1.012-1.52l5.482-3.654a.911.911 0 0 1 .511-.154h7.31a.913.913 0 0 1 .817 1.321l-5.193 10.379 5.016 5.016a.916.916 0 0 1 .2.985l-3.65 9.136a.914.914 0 0 1-.848.574z"/><path d="M10.138 29.24H1.914a.914.914 0 0 1 0-1.828h7.767l2.467-3.29a.915.915 0 1 1 1.462 1.1l-2.741 3.655a.913.913 0 0 1-.731.365zM31.154 18.275h-7.31a.913.913 0 0 1-.817-.5l-1.824-3.66a.914.914 0 1 1 1.636-.817l1.575 3.151h6.745a.914.914 0 0 1 0 1.828z"/></svg>