<svg xmlns="http://www.w3.org/2000/svg" viewBox="0 0 383.4 480">
  <path d="M219.7 369.5c-2.2 0-19.9-6.2-16.2-9.4 1.2-1 7.1 2.4 8.8 3.3 4.2 2.2 7.6 2.5 12.2 1.4 2.3-.6 19.2-11.7 17.2-12.5 3 1.3-6.8 11.2-7.4 11.7-4.1 3.3-9.2 5.5-14.6 5.5zm30.4-158.6c-5.7-2.9-16 1.5-22.4 2.6-7.6 1.3-13.6 3.8-20.1 8-2 1.3-12.7 9.7-14.7 12.4-2.4.8-4.5 1.5-2.6 1.5 4 0 8.3-1.7 12-1.2 3.6.5 18.6 5 20 5 6.4 0 13.8-2.6 20-4.3.8-.2 12.7-3.9 15.2-9.3 1.1-2.5 2.4-4.6 3-5.9 2.7-.6 6.9-1.7 8.4-2.1 2.1-.4-13.3-4-18.8-6.7zm-36.6 10.7c5.7-3.4 10.8-3.1 17.3-4.3 6.2-1.1 9.9-3.7 16.2-3.4 1.6.1 8 1 12.9 2.9 1.6.7-8.1 1.1-10.3 1.3-6.9.6-9.1 3.6-16.2 4.5-5.5.8-14.5 1.6-20.3 3.8-5.1 2-13.6 5.1-12.1 3.5 3.7-3.5 10.1-6.8 12.5-8.3zm38.3 5.2c-3.7 2.9-12.8 3-13.8 3.2-6.5 1.5-9.6 5.4-16.4 4.6-.9-.1-17-2.2-12.3-3.7 2.1-.7 6.2-1.6 11.5-2.5 10.2-1.9 14.6-3.5 16.6-2.4 2 1 3.5 1.1 4.4-1.1.4-1 11.1-3.2 13.4-3.7 2.3-.7-2.7 5.1-3.4 5.6zm-18.2 21.8c-3 0 17.3-9.3 17.3-4.1 0 0-15.4 4.1-17.3 4.1zm-111.4-93.7c-4.2 0 5.7-18.7 6.8-19.6 5.6-4.8 12.7-1.6 14.6-2.8 3.7-2.5 4.1-4.6 7.2-7.4 6-5.4 14 .6 14-1.7.1-9.2 8.7-2.3 9.8-.9 1.4 1.8 1.8-.6 1.9-2.3.3-2.9 4.4-4.9 7.4-1.9.6.6 5.4 8 3.4 8.6-3.9 1.1-4.2-1.7-5.3-1.4-1.9.6-.3 1.7-3.3 3.3-4.4 2.4-7.5-3.1-7.9-1.8-1.5 4.5-1.2 3.1-9 2.1-8.4-1.1-7.1-.4-12.1 4.8-5.7 5.9-10.5 2-17.4 5.5-2.8 1.4-10.2 15.5-10.1 15.5zm49.6-15.2c-4.4-.7-9.8 2.1-13.8 3.7-5.7 2.3-10.2 4.7-14.4 9.4-.9 1-7.8 10.3-5.3 10.3 1.3 0 3.4-2.7 5.4-5.5-1.3 3.3-1.4 6.1 1.8 6.1 5.3 0 10.9-3.3 16-4.4 4.4-.9 11.2-.4 15.3-2.5 3.3-1.7 4.7-.9 4.9-4.9 0-.7-6-6.8-9-9.4.7 0 1.4.1 2 .3 1.2.4 8.4 7.6 8.7 3.9.1-1.5-10.3-6.8-11.6-7zm-24.2 20.2c.3-.7 2.8-6.4 3.3-9.6 2.9-1.5 6-2.2 9.3-3.4-1.1 3.6.2 8.2 3.6 9.8-5.3-.8-10.4 1.3-16.2 3.2zm30.1-7c-.7 1.7-2.4 1.6-5.8 1.9 2.5-2 2.4-4.5 1.4-7.6 2.6 2.7 4.4 5 4.4 5.7zm78.7-16.9c-4-3.4-6.2-6.8-11.8-7.8-4-.8-26.6 9.2-21.9 13.1-.6-.5 4.7-3.6 10.6-6.2-6.2 5.3-11.3 12.6-2.4 12.6 5.1 0 19.4.5 24-2.1 2.1-1.2 2.9-2.6 2.9-4.1 1.5 1.3 3 2.2 4.8 2.2 3.1 0-5.7-7.2-6.2-7.7zm-20.6 9.1c-7.2 1.1-1.5-6.5 4.6-11.3-2.2 3.6-1.6 8.4 1 10.4-1.8.1-4.3.7-5.6.9zm15.8-1.9c1.6-1.9 2-4 .9-7.1 1.3 2.2 5.6 5.6-.9 7.1z"/>
  <path d="M354.6 401.7c-7.1-5.9-14.9-13-23.7-16.5-9.4-3.7-11.2 2.9-17.5 2.6-7.8-.5-14.2-14-23-7.4-2.8-2.3-7.4-5.5-10.1-6.4-2.5-32.1-7.6-76.6-13-87.2 4.1-1.1 8.3-2.9 11.6-7.1 6.4-8.2 6.8-21.6 6.9-31.6.1-11-1.7-22.4-.4-33.4 1.4-12.1 4.9-22.7 1.3-34.7-3.6-12.1-12.4-23.5-16.1-35.7-1.7-5.9-2.9-11.7-4.1-17.5 1.3-1.2 2.5-6.5 2.5-9.4 1.9-10.1-3-32.4-5.5-37.4-3.2-6.4-6.9-21-24.9-23.9-5.3-.9-1.3-8.5-1.4-15.3-.1-8.7-5.4-17.2-11-23.5C215.8 5.4 202.5-.9 186.9.1c-9.1.6-17.8 2-27 1.4-8.2-.5-16.5-2.2-24.6-.7-8.8 1.6-14.6 9.2-22.1 13.5-7.8 4.4-16.6 7-23.9 12.2-7.2 5.1-7.7 10.1-10.7 17.4-3.1 7.8-8 8.7-15.6 12.5-17.6 9-19 24.8-15.9 42.4 1.4 8.4-2.9 91.9 8.2 96.9-3.7 9.2 1.8 23.5 4.9 30.9 4.9 11.7 13 23.1 25.2 28.1.3.1.7.3 1 .4 1.3 5.1 12.4 14.5 17 15.8 3 .8 11.7 20.8 12.7 22.9 5.4 11.1 8.8 23.3 10.4 35.5 1.4 10.9.9 21.8-4.4 31.7-2.4 4.6-5.7 8.6-9.2 12.5-.5.5-3.4 3.1-5.8 5.5-.1-.5-.4-.8-.9-1.1-6.3-3.6-27.3 11.1-31.9 13.7C66.8 395.8 0 431.8 0 432c1.4 3.3 68.9-31.6 76.9-36 .8-.4 19.9-10.4 19.5-8.1-3 15.9 20.3 38 28.2 45.9 9.6 9.6 21.7 14.6 32.7 22.5 5.3 3.8 10.5 6.9 15.8 10.8 2.3 1.7 9.7 7.4 12.4 7.4 2.9 0-9.6-9.8-11.2-11-5.9-4.4-12-8.6-18-12.9-12.1-8.7-23.6-17.9-33.7-28.9-7-7.5-16.9-15.3-18.1-26.2-.3-2.6-.1-5.4 1.1-8.3 6.5-3.2 18.8-20.6 20.8-25.2 2.2-5 2.9-9.2 3.3-14.5 1.3 7.2 6.4 19.7 7.4 19.7 2.4 0-2.6-23.7-3.6-23.7 0 0-.4-17.1-1.1-21.6-2-13-8.9-23-15.2-34.5-1.6-3-9.8-22.3-13.9-23.5-5.1-1.5-3.2-5.7 1.6-4 3 1.1 9.6 7.1 10.7 7.1 3.6 0-6.1-9.7-7.2-10.2-4.9-2.3-9.5-12.2-14.7-8.5-10.2 7.3-21-5.3-26.8-16.1-4.6-8.7-12.4-26.3-5.4-35.8 3.3-4.5 7.3-4.8 12.2-3.3 2.8.9 9.8 9.7 9.6 7.4-.4-3.5 15.5.6 16.6.3 9.6-2.7 6.5-23.6 7-31 .8-12.7 3.8-27.6 2.4-40.3-1.4-12.8-16.7-11.1-15.2-24.3 2.5-21.7 28.9-31.4 46.8-35.6 8.3-1.9 16.8-3 25.1-4.6 11-2.1 21.6-6.4 32.9-5.3 22.6 2.2 45.2 17.4 55.7 37.6 3.1 6 5.3 12.4 7.1 19-1.7.9-3 1.6-3.3.6-2.4-9.6-11.4-1.9-12.5-3.3-1.2-1.4-2.6-3.9-7.1-.8-2.2 1.5-2.1-8.5-9.8-1.9-1 .9-8.3 11.7-5.9 12 6.6.8 6.3-5.7 8.5-3.6 5.8 5.3 8.4-4.5 10-.2 1.2 3.1 8.9-3.9 11.3-1.4 1 1.1-.1 2.7 3.4 4.3 2.8 1.3 4.8.1 7 .3 3.3 13.8 5.6 28.1 12.2 41.2 6.2 12.4 9.8 25.4 8 39.6-1.5 11.9-2.5 22.1-2.1 34.2.6 19.3 1.4 42.4-23.9 42.7-15.6.2-26.4-3.2-41.2 3.3-9.2 4-18.2 11.2-27.7 14.3-12.6 4.1-20.3 4.8-31.6-2.2-2.1-1.3-22.4-13.7-22.4-13.7-3.1 1.8 12.9 14.9 15.2 16.5 6.7 4.6 14 8.5 22.3 8.5 26.3 0 43.5-22.8 69.7-22.1 7.1.2 12.9 3.6 19.1 2.2 5.3 17.4 20.4 120.8 20.1 120.8 1.5 0 1.2-11.3-.1-29.1 3 2.1 15.8 18.8 16.2 20.4 2.6 8.6.4 14.8-2.9 22.5-4.8 11.3-11.1 21.7-17.6 32.1-1.7 2.8-15.6 26.5-14.4 26.5 3.3 0 18.2-21.1 20.4-24.7 6-9.7 13.3-23 17.8-33.6 6.5-15 10.7-20.7.1-32.2 7.9.9 8 6.6 15.9 5.3 4.5-.7 4.5-3.8 8.9-5.1 3.6-1.1 5.4 1.4 8.3 3.1 8.3 5 14.5 9.1 22.2 15 2 1.5 27.8 15.8 27.8 9.7-.2 2.7-27-14.2-29-15.8zM227.9 65.8c-24.9-20.1-38.4-12.4-61.7-8.1-18.2 3.4-38.6 5.8-54.7 15.9-8 5-17 15.9-20.4 24.8-1.2 3.2-5.8 20-10.2 21-.7-1-1.6-3.1-3.4-3.1-1.9 0-1.1 7.2 1.5 7.2 5.7 0 11.6-11.5 14.2-6.9 2.5 4.4 7.2 7.8 8.9 9.5 6.8 6.9 1 10.3.3 19.3-.9 11.9.1 23.6-.3 35.5-.3 8.8 3 17.3-9.3 12.7-1-.4-13.8.6-15.6-2.5-2.1-3.6-12.6-6.7-16.6-3.3-1.1.9-6.1-4.6-7.1-18.9-1.7-24 2.9-62.3 2.2-66.5-2.6-16.1-9.4-28.5 6.9-38.7 6.8-4.2 17.1-4.9 20.6-13 2.6-6 1-12.3 6.2-17.6 5.6-5.8 14.8-5.6 21.9-9 8.1-3.9 12.7-12.7 21.2-15.4 7.6-2.5 14.4-.5 22.3.1 10 .8 18.9-1.8 28.9-2.7 17-1.5 30.2 3.2 41.4 16.9 4.9 5.9 4.8 11.2 4.2 19.1-.1 1.7-1.2 10.6-.3 15.3.6 2.9 12 6.7 14.3 7.8 6.8 3.3 10.1 8.5 13.8 15 1.7 2.9 8.2 18.4 8.3 27.6 0 2.8-.9 6.9-1.4 4.5-4.8-20.9-19.2-32.8-36.1-46.5z"/>
  <path d="M99.9 229.8c-4.7-2.2-3.2-7.6-5.4-11.8-2.5-4.8-7.6-8.4-11.7-11.8-5.4-4.4-17.5-14.7-19.9-2.6-.3 1.4-.3 7.3 2.3 7.1 3.8-.3.5-5 1.7-6.6 3.9-5.2 15.3 6.2 19.6 10.4-3.9 1.6-5.1 14.7-.7 16 3.5 1 3.5-8.7 4.9-11.2 1.9 2.6 4 9.3 4.6 12-.2-.8-.8 5.2.3 6.2 5.1 5.1 14.1-3.2 4.3-7.7-1.3-.6 2.3 1.1 0 0zm-14 9.3c-2.4 0-16.6-5.9-8.4 2.1 5.2 5.2 12.7-2.1 8.4-2.1zm154.6-50.5c3.8-.3 3.9-3.4 1.1-4.8-4.9-2.5-6.3 3.1-9.9 4.2-6.9 2.2-12.9-4.8-17.5-.8-5.6 4.9-2.1 6.5 3.7 4.6 1.1-.4 2.7-1.8 3.7-2.1 2.6-.7 4.2 2.1 7.6 1.5 4.3-.6 7.7-2.3 11.3-2.6z"/>
  <path d="M214.3 196.4c-5.6 1.7-22.4 2.9-15.2-8.2 1.8-2.7 17-9.9 4.4-7.3-9.8 2-13.4 14.8-4.3 20.2 3.4 2 11.1 2.1 14.3-.3.6-.5 6.3-6.1.8-4.4-9.6 3 1.1-.3 0 0zM249 180c-1.1-1.7-7.3-3.5-7.3-4.7-.1-5.9-5.6-10.8-9.5-14.6-4.4-4.3-8.4-10.2-11.3-15.6-1.2-2.2-2.3-3-2.5-5.5-.1-2.1 3.2-4.1 2.5-5.8-1.6-4-4.7.2-5.7 2.4-3.3 6.6 3.8 12.6 7 17.8 4 6.2 13.2 12 14.6 18.8.7 3.5-1.4 4.7 1 7.6.2.3 5.9-1.7 7.8 1.7 4.8 8.6-9.6 8.7-7.4 12.3 4.2 6.8 14.8-7.8 10.8-14.4-1.3-2.1 1.2 2 0 0z"/>
</svg>
