<svg xmlns="http://www.w3.org/2000/svg" viewBox="0 0 62 49.6">
  <path d="M55.1 33v-5c0-2.7-2.2-4.8-4.8-4.8H32.6v-6.6c4.3-.9 7.1-5.1 6.3-9.5S33.7 0 29.4.9s-7.1 5.1-6.3 9.5c.6 3.2 3.1 5.6 6.3 6.3v6.6H11.7c-2.7 0-4.8 2.2-4.8 4.8v5C2.6 34-.2 38.2.6 42.6s5.1 7.1 9.5 6.3 7.1-5.1 6.3-9.5c-.6-3.2-3.1-5.6-6.3-6.3v-5c0-.9.7-1.6 1.6-1.6h17.7V33c-4.3.9-7.1 5.1-6.3 9.5.9 4.3 5.1 7.1 9.5 6.3 4.3-.9 7.1-5.1 6.3-9.5-.6-3.2-3.1-5.6-6.3-6.3v-6.6h17.7c.9 0 1.6.7 1.6 1.6v5c-4.3.9-7.1 5.1-6.3 9.5.9 4.3 5.1 7.1 9.5 6.3 4.3-.9 7.1-5.1 6.3-9.5-.7-3.2-3.2-5.7-6.3-6.3zM26.2 8.8C26.2 6.1 28.4 4 31 4c2.7 0 4.8 2.2 4.8 4.8 0 2.7-2.2 4.8-4.8 4.8-2.7 0-4.8-2.2-4.8-4.8zM13.3 40.9c0 2.7-2.2 4.8-4.8 4.8s-4.8-2.2-4.8-4.8c0-2.7 2.2-4.8 4.8-4.8 2.7-.1 4.8 2.1 4.8 4.8zm22.5 0c0 2.7-2.2 4.8-4.8 4.8s-4.8-2.2-4.8-4.8c0-2.7 2.2-4.8 4.8-4.8 2.7-.1 4.8 2.1 4.8 4.8zm17.7 4.8c-2.7 0-4.8-2.2-4.8-4.8 0-2.7 2.2-4.8 4.8-4.8s4.8 2.2 4.8 4.8c0 2.6-2.2 4.8-4.8 4.8z"/>
</svg>
