<svg xmlns="http://www.w3.org/2000/svg" viewBox="0 0 62 49.6">
<path d="M55.1,33v-5c0-2.7-2.2-4.8-4.8-4.8H32.6v-6.6c4.3-0.9,7.1-5.1,6.3-9.5S33.7,0,29.4,0.9s-7.1,5.1-6.3,9.5
	c0.6,3.2,3.1,5.6,6.3,6.3v6.6H11.7c-2.7,0-4.8,2.2-4.8,4.8v5c-4.3,0.9-7.1,5.1-6.3,9.5s5.1,7.1,9.5,6.3s7.1-5.1,6.3-9.5
	c-0.6-3.2-3.1-5.6-6.3-6.3v-5c0-0.9,0.7-1.6,1.6-1.6c0,0,0,0,0,0h17.7V33c-4.3,0.9-7.1,5.1-6.3,9.5c0.9,4.3,5.1,7.1,9.5,6.3
	c4.3-0.9,7.1-5.1,6.3-9.5c-0.6-3.2-3.1-5.6-6.3-6.3v-6.6h17.7c0.9,0,1.6,0.7,1.6,1.6l0,0v5c-4.3,0.9-7.1,5.1-6.3,9.5
	c0.9,4.3,5.1,7.1,9.5,6.3c4.3-0.9,7.1-5.1,6.3-9.5C60.7,36.1,58.2,33.6,55.1,33L55.1,33z M26.2,8.8c0-2.7,2.2-4.8,4.8-4.8
	c2.7,0,4.8,2.2,4.8,4.8c0,2.7-2.2,4.8-4.8,4.8C28.3,13.6,26.2,11.4,26.2,8.8z M13.3,40.9c0,2.7-2.2,4.8-4.8,4.8s-4.8-2.2-4.8-4.8
	c0-2.7,2.2-4.8,4.8-4.8C11.2,36,13.3,38.2,13.3,40.9z M35.8,40.9c0,2.7-2.2,4.8-4.8,4.8s-4.8-2.2-4.8-4.8c0-2.7,2.2-4.8,4.8-4.8
	C33.7,36,35.8,38.2,35.8,40.9L35.8,40.9z M53.5,45.7c-2.7,0-4.8-2.2-4.8-4.8c0-2.7,2.2-4.8,4.8-4.8s4.8,2.2,4.8,4.8
	C58.3,43.5,56.1,45.7,53.5,45.7L53.5,45.7z"/>
</svg>
