<svg xmlns="http://www.w3.org/2000/svg" viewBox="0 0 456.5 456.5">
  <path d="M46.1 360.8c-2.2 3 15.4-3.2 17.2-4 2.7-1.2 22.6-8.3 22.6-11.9 0-1.4-26.6 9.8-28.9 9.8 0 0 6.3-7.7 6.7-8.1 5.4-5.9 11-11.5 16.3-17.4 10.8-12.2 20-26.3 25.3-41.7 12-34.2 13.8-72.3 21.7-107.7 6-26.9 13.8-56.6 25.7-81.4 8.2-17.2 15.9-37.9 27.2-53.1 11.3-15.3 29.3-23.4 46.9-29.5 21.1-7.3 42.3-10.1 62.3 1 2.8 1.5 32.9 20.6 32.3 22.7 1.8-5.7-21.3-21.1-24.7-23.4C280.8 5.4 265.2 2.2 246.5 5c-19.3 2.9-42 9.6-57 22.6C173 41.7 162 62.4 152.9 81.8c-28.3 61-31.6 128.7-49.5 192.6-9.6 34.7-36.8 58.3-57.3 86.4zM193.4 409.2c24.9 27.6 72.2 53.4 110.2 42.2 16.5-4.8 28.6-16.7 36.2-31.8 5.5-11 9.9-22.8 11.8-35 .6-3.6 3.6-22.6-1.1-24.7 2.5 1.2-1.2 25.6-1.8 28.2-2.3 10.3-6.9 20.2-11.8 29.5-8.2 15.8-21.1 26.7-38.8 29.9-20 3.6-41.2-2.3-59.3-10.7-10-4.6-19.4-10.2-28.1-16.9-1.6-1.3-18.8-16.3-19-16-.5 1.3 1 4.2 1.7 5.3zM320.5 258c-.2-.8-1.4-5-2.7-3.4-.4.8-.5 1.8-.4 2.7-6.2-.7-12.5-4.1-18.8-3.8-2.8.1-5.2 1.7-7.9 1.6-2.9-.1-5.6-2-8.4-2.1-6-.2-12.5 3.2-18.2 4.6-3.2.8-20 1.9-19.3 5.9-.5-3 11.1 1.7 12.4 2.5 3.3 2 6.2 4.7 9.6 6.8 8.8 5.4 13.4 6.8 23.4 5.8 2.9-.3 7.7.4 10.4-.5 5-1.7 6.2-6.1 8.8-10.3.9-1.6 10.7-11.8 11.1-9.8zm-51.3.5c3.5-1 7.6-2.4 11.3-2.3 4.5.1 8.2 2.5 12.6 2.2 5.9-.4 14.6-3.3 20.7-.1-7.9 1.5-15 5.6-23.3 5.6-10.5-.1-22.3-1.8-32.9-2.6 3.1.2 8.6-2 11.6-2.8zm23.4 8.1c-.4 1.3-1 1.7-2 1.1-.8-.9 1.9-1.3 2-1.1zm13.3 1.4c-2.9 5.6-3.9 4.7-9.6 5.2-4.6.4-11 2.4-15.5 2.1-7.5-.4-16.9-7.3-22.8-11.7 1.3 1 13.3-.2 16.6.3 4.7.7 11.9 3.1 14.9 3.8.4.1 1 2 3 2 2.3 0 .6-3.3 1.5-3.6 1.3-.5 15.8-3.1 15.9-3.7-.5 2.1-3 3.8-4 5.6zM291.3 280.5c2 .3 2.4 1 1 2.1-2 .3-.8-1.7-1-2.1zm-.3-1.3c-2.6.7-1.3 7.2 2.7 5.3 3.3-1.7-.3-5.2-2.7-5.3z"/>
  <path d="M288.3 290.6c.8.1 10.2 0 9.5-2.1-1.2-3.5-18 2.8-19.7 2.9 3.2-.2 6.9-1.3 10.2-.8z"/>
  <path d="M279.8 225.3c-5.8 2.5-12.4 3.4-13.8-4.5-.5-2.9.8-7.8 3.7-9.4 1.4-.7 6.2 1 6.6.2 1.2-2.1-4.7-3.1-5.6-3-5.1.5-7.3 7.2-7 11.5.3 4.4 2.5 8 6.9 9 2 .4 12-1.3 12.1-3.6-.7-1-2.1-1-2.9-.2z"/>
  <path d="M315.1 213.3c-1.5-7.6-7.2-1-8.4-1.6 2.9 1.3 3.1-1.9 5.5 1.4 1.4 1.9 0 6.8-1 8.5-3 5.2-5.9 3.7-11.1 3.1 0 0 6-1.9 5.5-1.4.7-.9 5.6-6.6-.9-4.1.8-4.3-.8-9.2-2.1-13.2-.7-2-2.7-11.3-4.3-12.5 0 0 1 10 1.3 10.8 1 3.6 4.6 9.5 2.9 13.6-5.3 12.2-23.4-2.6-28.4 2.6-4.2 4.4 3.2 3.1 5.1 3.3 3.8.4 8 1.5 12 2 10.3.9 27.3 5 23.9-12.5zM268.6 143.7c5.5-1.1-4-5.9-5.5-6.1-1-.2-3.8 1.5-5.3 1.5-2.7 0-7.3-2.6-10.3-3.1-5.2-.8-10.4-.7-15.6.1-1.1.1-10.1 2.8-10.8 2.4 2.7 1.5 9.7-.8 12.7-1.2 6.3-.7 11.1-.7 17.2 1.6 1.8.7 4.2 2.6 6 2.9 1.5.3 4.3-.1 5.1.1.5.1 1.5-1.9 2.6-1.7 3.1.7-2.1 4.6 3.9 3.5z"/>
  <path d="M402.5 354.3c-11.4-23.1-22.5-47.1-27.2-72.5-5-27.3-7.1-55.1-6.1-82.9.3-8.4.2-16.8.9-25.1.6-6.8 2.7-13.2 2.8-20.1.1-4.9-1.3-7.9-1.9-12-1.2-8.3-.8-16.9-2-25.3-2.2-16.9-5.7-34.7-13.6-49.9-3.7-7.1-8.5-13.9-15-18.5-.8-.6-15.1-8.5-15.8-5.8.5-1.8 16.5 11.6 17.2 12.4 7.9 9.1 13.2 20.6 16.8 32 3.7 11.6 5.6 23.7 6.7 35.8.5 5.1 2.4 13.7 1 18.8-1.3 4.7.2 2.9-5 4.4-2.4.7-5.7.8-8.1 1 2.8-14.5-3.2-34.7-7.2-48.9-.6-2.3-11.2-27.3-15.8-20.7-2.3 3.2 8.6 18.3 10.2 21.6 5.7 12.4 10.6 29.6 9.4 43.1-6.3-7.1-15.8-8.4-24.5-5.9-4.2 1.3-7.4 4.2-11.3 5.8-1.3 1.6-3.2 2.6-5.3 2.7-.7-1.2-1.4-2.3-2.2-3.4-3.8.4 0 5.9 2.1 6.4 3.1.8 9-5 11.7-6.3 7.7-3.7 19.7-6.5 26.8.3 7.4 7-7.9 5.8-13.7 6.2-8.4.6-18.8.1-26.8 3-7.5 2.8-11.7 6.2-20.7 4.9-5-.7-7.2-3.1-11.6-4.9-8.6-3.6-20.8-2.8-30.1-3.4-11.5-.8-24.2-4.1-35.6-3.1 16.7-19.2 37.1-33.3 56.9-48.9 7.6-6 15.2-12.1 22.9-18 1.1-.9 13.4-8.5 13.4-9.3-.2 5.3-14.9 15.8-18.3 18.8-5 4.4-45.9 34.7-42.9 38.8 6.1 8.5 58.8-43.7 66-42.9 2.4.3-14.3 18-14.4 17.9 3.8 5.1 21.3-11.2 23.2-13.2 4.4-4.9 6.2-12.9 10.2-17.1-6.3 6.7-11 20-21 22.5 4.1-1 19-28.3 15.5-29s-22.6 21-26.1 23.9c-6.2 5.1-12.6 9.8-19.4 14.1-2 1.2-9.1 3.9-10.2 5.8 1-1.7 54.3-44.4 47.3-50.3C309 54.7 283.8 75 279.8 78c-14.6 11.1-30.6 20.3-45.1 31.6-16 12.4-31.8 26.7-41.9 44.4-12.4 21.8-11.9 40.3-7.1 64.1 7.1 35.2 23.2 69.2 22.2 105.6-.7 24.4-6.7 49.1-19.3 70.1-5 8.4-11.2 15.9-17.6 23.2-1.6 1.8-7.4 10.5-9.6 11 8-1.8 18.7-17.2 23.3-23.4 9.1-12.3 16-26 20.5-40.6.8-2.5 2.4-14.1 4.7-14.8 2.3-.7 9 5.9 10.7 7.2 4.6 3.4 10 5.8 15.6 7 1.6.3 15 4.4 15.5 4.1 2.4-1.6-14.3-6.6-16.1-7.2-8.4-2.9-14.3-7.6-20.3-13.9-7.6-7.9-3.4-18.5-3.4-29.1 0-11.3-1.1-22.6-3.5-33.6-8.6-39.1-34.7-86-10.9-124.3-.5 7.5.3 19.1 6 24.9 6.1 6.2 17.5 5 25.6 5.3 12.8.6 26.2.2 38.7-3.3 9.6-2.7 10.4-6.5 15-14.5 2.8-4.9 7.1-10.6 13.1-6.5 4.5 3 3.4 11.4 6.6 15.4 9 11 37.7 6.8 49.9 3.9 0 16.5-3.7 33.8-4.8 50.4-1 15.2-6.4 24.2-15 36.3-17.6 24.8-32.4 70.2-73.1 51.9-13.5-6-27.7-16.2-36.8-27.6-1.6-2-4.2-7.9-7.8-5.5-6.4 4.3 6 12.7 8.4 14.2 13.7 8.7 27.8 21.9 44.1 24.9 23.4 4.3 39.9-7.1 51-26.7 3.2-.8 2.8 30.7 1.7 33.5-1.9 4.9-7 8.8-9.8 13.3-1.5 2.4-2.1 5.5-3.8 7.8-1.2 1.6-4 2.6-4.6 4.5-.4 1.5 5.6-2.5 6.3-3.2 2.6-2.7 3.3-6.9 5.9-9.8 1.9-2.1 7.2-6.8 10.1-6.9 4.9-.2 9.3 5 13.3 8.1 8.3 6.4 15.3 6 25.4 7.9 4.1.6 8.2 1.8 12.1 3.4 2.3 1.1 4.9 4.3 7.7 4.2 1.1 0-6.8-6.5-7.8-7-4.1-2-9-2.8-13.4-3.6-9.6-1.8-15.8-2.5-23.9-8.4-12.7-9.2-14.1-15.9-14.8-31-.6-12.4-.3-20.8 6.1-31.6 10.9-18.1 20.2-30 22.1-51.6.7-8.2.8-16.5 1.7-24.7.6-5.9.4-14.5 2.2-20.1 1.3-3.9.2-2 3.1-4.8 2.4-2.3 5.3-3.2 7.7-5.8-1.2 42.5-2.6 85 10 126.1 5.2 16.9 12.5 32.6 20.4 48.3 4.3 8.5 7.3 17.7 8.7 27.2.4 2.3 3.5 15.3 1.9 17.2.7-.9-9-14.1-11.4-12.7 1.5-.8 12.6 28 17.4 26.3 5.9-2-7.5-50-10-54.9l-.2.1zM248.9 154c-3.1-2.5 3.2-.5 4.3.1 1.8.9 3.3 2.3 4.3 4 2.8 5.2-.2 6.3-6.2 7.8-4.5 1.1-16 2.2-19.4-2-3.4-4.1 1.4-8.4 6-9.4-4.4 4.1-.9 11.1 4.8 11.5 5.2.4 11.4-7.8 6.2-12zm30 12.8c-1.7 14-12.2 16.8-24.1 18-10.6 1.1-24.7 2.9-35.4.9-11.9-2.2-19.5-22.4-11.3-32.5 6.3-7.8 24.2-2.9 32.9-2.8-1.6.2-18.6 4.7-16.8 9.6.6 1.6 6.2-2.7 7.2-3.2-4.2 4.3-5.4 3.8-1.7 7.6 3.6 3.8 13.3 4.3 18 3.7 2.7-.3 12-2.1 13.7-4.5 2.5-3.6-.3-3.4-3.5-7.4.8.4 8.3 7 9.4 5.6 2.2-2.8-16.7-10.8-18.2-11.1 11.5.3 32-.7 29.8 16.1zm33.7-11.2c-8.3 15.8 25 5.2 7.9-2.9 8.3-1.3 17 8.4 6.2 12.1-7 2.4-28.1-1.3-14.1-9.2-3.5 6.7-1.2.7 0 0zm10.4 27.6c-7.4-.4-14.3-1.2-18.4-7.9-4.7-7.6-5.2-17.4 4.3-20.4-.2.1-6.4 6.8-4.8 7.2 1-.6 1.8-1.4 2.6-2.2-2 8.6 11.1 8.3 17.2 7.3 5-.8 14.9-3.1 9.9-9.1 1.1.8 2.5 1.2 3.9 1.1.3-.5-9.1-7.5-10.4-8 7.2-.8 14.3-1.3 21.5-1.4-1 5.6-.4 11.5.4 17.1.3 2.1 3.5 11.3 2.7 12.8-3 5.5-23.3 3.7-28.9 3.5zm42.8-19.4c-1 6.7-5.2 12.5-11.4 15.3-1-5.4-7.4-24.5-1.7-29.3 1.6-1.4 11.5.4 13.1 2.3 1.7 2.1.3 9.2 0 11.7z"/>
</svg>
