<svg xmlns="http://www.w3.org/2000/svg" viewBox="0 0 394.1 479.9">
  <path d="M1.8 380.5c-2.3 3.2 16.4-3.4 18.4-4.3 2.9-1.2 24.1-8.9 24.1-12.7 0-1.5-28.4 10.5-30.8 10.4 0 0 6.7-8.2 7.1-8.6 5.8-6.2 11.7-12.3 17.3-18.6 11.5-13 21.2-28 27-44.4 12.8-36.5 14.7-77.1 23.2-114.9 6.4-28.7 14.7-60.3 27.4-86.8 8.8-18.3 16.9-40.4 29-56.7 12.1-16.3 31.3-25 50-31.5 22.5-7.8 45.1-10.7 66.4 1.1 3 1.6 35.1 22 34.4 24.2 2-6.1-22.7-22.5-26.4-25C252 1.5 235.5-2 215.5 1c-20.6 3-44.8 10.3-60.8 24.1-17.5 15.1-29.3 37.2-38.9 57.9C85.5 148 82 220.2 63 288.4c-10.4 36.9-39.3 62.2-61.2 92.1-5.4 7.4 3.4-4.7 0 0zM158.9 432c26.5 29.4 77 56.9 117.5 45 17.6-5.1 30.5-17.8 38.6-33.9 5.9-11.7 10.6-24.3 12.6-37.3.6-3.8 3.9-24.1-1.2-26.4 2.7 1.2-1.3 27.2-1.9 30.1-2.4 11-7.4 21.6-12.6 31.5-8.7 16.8-22.5 28.5-41.4 31.8-21.4 3.8-43.9-2.5-63.2-11.4-10.6-4.9-20.7-10.9-30-18.1-1.8-1.4-20.1-17.4-20.2-17-.5 1.5 1 4.6 1.8 5.7zm135.6-161.2c-.2-.9-1.5-5.3-2.9-3.6-.4.9-.6 1.8-.5 2.9-6.6-.8-13.3-4.4-20-4-3 .1-5.6 1.8-8.4 1.7-3.1-.1-5.9-2.2-9-2.3-6.4-.2-13.3 3.5-19.4 4.9-3.4.8-21.3 2-20.6 6.2-.6-3.2 11.8 1.9 13.2 2.7 3.5 2.1 6.7 5.1 10.2 7.3 9.3 5.8 14.3 7.2 25 6.1 3.2-.3 8.2.4 11-.5 5.3-1.8 6.6-6.5 9.3-11 1.1-1.7 11.6-12.5 12.1-10.4 0 0 0 .4 0 0zm-54.8.6c3.8-1 8.1-2.6 12-2.4 4.8.2 8.8 2.6 13.5 2.3 6.2-.4 15.6-3.5 22.1-.1-8.5 1.6-16 6-24.9 5.9-11.3-.1-23.8-1.9-35.1-2.7 3.4.2 9.2-2.2 12.4-3 2.7-.7-6.5 1.7 0 0zm25 8.6c-.4 1.4-1.1 1.8-2 1.1-1-.8 1.9-1.3 2-1.1 0 .4-.1 0 0 0zm14.2 1.6c-3.2 5.9-4.2 5-10.3 5.5-4.9.4-11.7 2.5-16.6 2.3-8-.5-18-7.8-24.3-12.4 1.4 1 14.2-.2 17.7.3 5 .8 12.7 3.3 15.9 4.1.4.1 1.1 2.2 3.2 2.2 2.4 0 .7-3.5 1.6-3.8 1.4-.5 16.8-3.4 17-3.9-.5 1.9-3.2 3.8-4.2 5.7-2.3 4.1.3-.8 0 0zm-15.6 13.3c2.2.3 2.5 1 1 2.2-2.1.3-.8-1.8-1-2.2zm-.4-1.5c-2.8.7-1.4 7.7 2.9 5.6 3.6-1.7-.3-5.4-2.9-5.6z"/>
  <path d="M260 305.6c.9.1 10.8 0 10.1-2.2-1.3-3.8-19.2 2.9-21 3 3.5-.2 7.4-1.3 10.9-.8 3.9.5-2.2-.4 0 0z"/>
  <path d="M251 235.9c-6.2 2.6-13.2 3.7-14.7-4.8-.6-3.1.9-8.4 3.9-10 1.5-.8 6.6 1.1 7.1.2 1.3-2.2-5-3.3-6-3.2-5.4.6-7.8 7.7-7.4 12.2.4 4.7 2.6 8.5 7.4 9.6 2.1.5 12.8-1.4 13-3.9-1-.8-2.1-.9-3.3-.1z"/>
  <path d="M288.7 223.2c-1.6-8.1-7.6-1.1-8.9-1.6 3.2 1.4 3.3-2 5.9 1.4 1.5 2 0 7.2-1 9-3.2 5.6-6.3 3.9-11.9 3.3 0 0 6.4-2 5.9-1.5.8-1 5.9-7-.9-4.4.8-4.6-.8-9.8-2.2-14.1-.7-2.2-2.9-12-4.6-13.3.1 0 1.1 10.6 1.4 11.6 1.1 3.9 4.9 10.1 3 14.5-5.7 13-24.9-2.8-30.3 2.8-4.5 4.7 3.4 3.3 5.5 3.5 4 .4 8.5 1.6 12.7 2 10.9 1.1 29.1 5.4 25.4-13.2-.9-4.3.7 3.8 0 0zM239 148.9c5.9-1.2-4.3-6.3-5.9-6.5-1.1-.2-4 1.6-5.7 1.6-2.9 0-7.8-2.8-11-3.3-5.8-1-10.8-.7-16.6.1-1.1.2-10.8 3-11.6 2.5 2.8 1.6 10.3-.9 13.5-1.2 6.7-.8 11.9-.8 18.3 1.7 1.9.7 4.5 2.8 6.4 3.2 1.6.3 4.6-.1 5.5.1.6.1 1.6-2 2.8-1.8 3.4.7-2.1 4.9 4.3 3.6 4.5-.9-4.5.9 0 0z"/>
  <path d="M381.9 373.6c-12.2-24.6-24-50.2-29-77.3-5.4-29.1-7.5-58.8-6.5-88.3.3-8.9.2-17.9.9-26.8.6-7.2 2.9-14.1 3-21.5.1-5.2-1.4-8.5-2-12.8-1.3-8.8-.9-18-2.1-26.9-2.4-18-6.1-37-14.5-53.2-3.9-7.5-9.1-14.8-16-19.8-.9-.6-16.1-9.1-16.9-6.2.5-1.9 17.6 12.4 18.3 13.2 8.4 9.7 14.1 21.9 18 34.1 3.9 12.4 6 25.3 7.2 38.1.5 5.5 2.6 14.6 1.1 20.1-1.4 5.1.2 3-5.3 4.7-2.6.8-6 .8-8.7 1 3-15.4-3.4-37-7.7-52.1-.7-2.4-11.9-29.2-16.8-22.1-2.4 3.5 9.2 19.5 10.9 23.2 6.1 13.2 11.3 31.5 10.1 46-6.7-7.6-16.9-9-26.1-6.2-4.5 1.4-7.9 4.4-12.1 6.2-1.5 1.8-3.4 2.8-5.7 2.9-.7-1.3-1.5-2.5-2.4-3.6-4 .4 0 6.3 2.3 6.9 3.4.8 9.6-5.3 12.5-6.7 8.2-4 21-6.9 28.6.3 7.9 7.5-8.4 6.2-14.6 6.6-8.9.6-20.1.1-28.6 3.2-8 3-12.4 6.6-22 5.3-5.4-.7-7.7-3.3-12.4-5.2-9.2-3.8-22.2-3-32-3.7-12.3-.8-25.8-4.4-38-3.3C193.1 129 214.9 114 236 97.3c8.1-6.4 16.2-12.9 24.5-19.2 1.2-.9 14.3-9.1 14.3-9.9-.3 5.6-15.9 16.8-19.5 20.1-5.3 4.7-49 37-45.8 41.4 6.5 9 62.7-46.6 70.4-45.7 2.6.3-15.3 19.2-15.3 19 4 5.4 22.8-12 24.7-14.1 4.7-5.2 6.6-13.7 10.8-18.3-6.7 7.2-11.7 21.3-22.4 24 4.3-1.1 20.3-30.1 16.5-31-3.9-.8-24.1 22.3-27.9 25.5-6.6 5.4-13.5 10.5-20.6 15.1-2.1 1.3-9.7 4.2-10.8 6.1 1.1-1.8 58-47.3 50.4-53.7-3.1-2.6-30.1 19-34.3 22.2-15.6 11.8-32.6 21.7-48.1 33.7-17 13.2-33.9 28.4-44.6 47.3-13.2 23.2-12.7 43-7.6 68.4 7.5 37.5 24.7 73.9 23.6 112.6-.7 26-7.1 52.3-20.5 74.8-5.3 8.9-12 17-18.8 24.7-1.7 1.9-7.8 11.2-10.3 11.8 8.6-1.9 19.9-18.4 24.8-25 9.7-13 17-27.8 21.9-43.3.8-2.7 2.6-15 5-15.8 2.5-.8 9.5 6.3 11.5 7.6 5.3 3.7 10.2 6.1 16.7 7.4 1.7.3 16 4.7 16.5 4.4 2.5-1.7-15.3-7-17.1-7.7-9-3.1-15.2-8.1-21.7-14.9-8.1-8.4-3.6-19.8-3.6-31.1 0-12.1-1.2-24-3.8-35.8-9.1-41.7-37-91.7-11.6-132.6-.5 8 .3 20.4 6.4 26.5 6.5 6.6 18.6 5.3 27.3 5.7 13.7.6 28 .2 41.2-3.5 10.3-2.9 11.1-6.9 16-15.5 3-5.2 7.5-11.3 14-6.9 4.8 3.2 3.6 12.1 7.1 16.4 9.5 11.7 40.2 7.3 53.2 4.2 0 17.6-3.9 36-5.1 53.7-1.1 16.2-6.9 25.8-16 38.7-18.7 26.5-34.5 74.9-78 55.4-14.3-6.4-29.6-17.2-39.3-29.4-1.7-2.1-4.5-8.5-8.3-5.9-6.9 4.6 6.4 13.5 9 15.2 14.5 9.3 29.6 23.4 47 26.6 24.9 4.6 42.5-7.6 54.4-28.5 3.4-.8 3 32.7 1.8 35.8-2 5.3-7.4 9.4-10.4 14.2-1.6 2.6-2.3 5.9-4 8.3-1.2 1.8-4.3 2.8-4.9 4.8-.5 1.5 6-2.7 6.7-3.4 2.7-2.9 3.5-7.4 6.2-10.4 2-2.2 7.6-7.2 10.7-7.3 5.2-.2 9.9 5.3 14.2 8.7 8.8 6.9 16.3 6.4 27 8.4 4.4.8 8.8 1.7 12.9 3.6 2.5 1.1 5.3 4.6 8.2 4.5 1.2 0-7.3-6.9-8.4-7.4-4.4-2.1-9.6-3-14.3-3.9-10.3-1.9-16.8-2.7-25.5-9-13.5-9.8-15-17-15.7-33-.6-13.2-.3-22.2 6.6-33.7 11.6-19.3 21.5-32 23.5-55 .8-8.8.9-17.6 1.8-26.4.6-6.2.4-15.5 2.4-21.4 1.4-4.2.2-2.1 3.3-5.1 2.6-2.4 5.7-3.4 8.2-6.1-1.3 45.3-2.8 90.6 10.7 134.5 5.5 18 13.3 34.8 21.7 51.5 4.7 9.3 7.7 18.7 9.3 29 .4 2.5 3.7 16.3 2 18.4.8-1-9.6-15-12.1-13.6 1.5-.9 13.4 29.9 18.6 28.1 6-2.1-8.2-53.3-10.8-58.5-4.3-8.7 7.1 14.4 0 0zM218.1 160c-3.4-2.7 3.4-.5 4.6.1 1.9 1 3.5 2.3 4.6 4.3 3 5.6-.2 6.7-6.6 8.3-4.8 1.2-17 2.3-20.7-2.2-3.6-4.3 1.5-8.9 6.4-10-4.6 4.4-.9 11.8 5.1 12.3 5.5.4 12.1-8.3 6.6-12.8-.3-.3 2.5 2 0 0zm32 13.6c-1.9 14.9-13 17.9-25.7 19.1-11.3 1.1-26.4 3.1-37.7 1-12.7-2.3-20.8-23.9-12.1-34.7 6.7-8.3 25.8-3.1 35-3-1.7.2-19.8 5-18 10.2.6 1.7 6.6-2.9 7.7-3.4-4.5 4.5-5.7 4.1-1.8 8.1 4 4.1 14.2 4.6 19.2 3.9 2.8-.3 12.8-2.3 14.5-4.8 2.7-3.9-.3-3.6-3.7-7.9.8.5 8.8 7.5 10 6 2.3-3-17.8-11.5-19.4-11.8 12.4.5 34.2-.6 32 17.3-.6 4.4 1.9-15.2 0 0zm35.9-11.9c-8.8 16.9 26.6 5.5 8.5-3.1 8.8-1.4 18.1 8.9 6.6 12.9-7.6 2.6-30-1.4-15.1-9.8-3.7 7.2-1.3.7 0 0zm11.1 29.4c-7.9-.4-15.2-1.3-19.7-8.4-5.1-8.1-5.5-18.5 4.6-21.7-.2.1-6.9 7.2-5.1 7.7 1-.7 1.9-1.4 2.7-2.4-2.1 9.1 11.8 8.9 18.4 7.8 5.4-.9 15.9-3.3 10.6-9.7 1.3.9 2.7 1.3 4.2 1.2.3-.6-9.7-8-11.1-8.5 7.6-.9 15.3-1.4 23-1.5-1.1 6-.4 12.2.5 18.2.3 2.2 3.8 12 2.9 13.6-3.4 5.8-25 4-31 3.7-14.4-.8 9.4.4 0 0zm45.6-20.7c-1 7.3-5.6 13.1-12.2 16.3-1.1-5.7-7.9-26.1-1.8-31.2 1.8-1.5 12.3.5 14 2.5 1.8 2.2.3 9.8 0 12.4-1.2 8.2 0-.4 0 0z"/>
</svg>
