<svg xmlns="http://www.w3.org/2000/svg" viewBox="0 0 456.5 629.94"><polygon points="228.25 629.94 114.13 516.94 0 403.94 228.25 403.94 456.5 403.94 342.38 516.94 228.25 629.94" class="fill-white"/><path d="M41.84,366c-2.26,3.08,15.82-3.31,17.67-4.11,2.74-1.19,23.22-8.56,23.14-12.22,0-1.46-27.3,10.09-29.63,10,0,0,6.44-7.85,6.83-8.27,5.56-6,11.27-11.78,16.68-17.89C87.6,321,97,306.54,102.48,290.73c12.27-35.1,14.13-74.2,22.27-110.48,6.19-27.57,14.18-58,26.38-83.49,8.44-17.63,16.3-38.86,27.91-54.51S209.12,18.2,227.1,12C248.71,4.52,270.47,1.67,291,13.06c2.85,1.58,33.76,21.14,33.08,23.23,1.89-5.84-21.81-21.63-25.38-24C282.51,1.45,266.59-1.88,247.35,1c-19.83,2.93-43.06,9.88-58.51,23.2C172,38.71,160.67,59.91,151.42,79.82c-29.06,62.52-32.42,132-50.75,197.52C90.72,312.89,62.89,337.18,41.84,366Z"/><path d="M192.93,415.54c25.5,28.29,74,54.73,113.06,43.33,16.94-4.95,29.32-17.1,37.15-32.57,5.69-11.25,10.18-23.41,12.1-35.89.57-3.66,3.74-23.14-1.16-25.37,2.59,1.18-1.26,26.21-1.86,28.93-2.32,10.54-7.12,20.73-12.07,30.28-8.39,16.18-21.59,27.39-39.82,30.63-20.54,3.65-42.24-2.4-60.8-11a149,149,0,0,1-28.82-17.37c-1.69-1.31-19.31-16.74-19.47-16.36C190.69,411.46,192.16,414.48,192.93,415.54Z"/><path d="M323.32,260.49c-.18-.87-1.4-5.13-2.81-3.45a5.25,5.25,0,0,0-.44,2.75c-6.33-.76-12.77-4.19-19.25-3.88-2.87.14-5.37,1.73-8.07,1.68-3-.06-5.7-2.08-8.66-2.19-6.12-.22-12.79,3.32-18.7,4.75-3.27.79-20.51,1.91-19.78,6-.56-3.1,11.37,1.79,12.74,2.61,3.38,2,6.41,4.87,9.81,7,9,5.56,13.74,7,24,5.91,3-.31,7.93.4,10.63-.51,5.08-1.71,6.39-6.24,9-10.55,1-1.69,11.11-12.15,11.54-10.06Zm-52.7.54c3.63-1,7.8-2.47,11.58-2.35,4.66.15,8.42,2.53,12.94,2.22,6-.41,15-3.35,21.23-.08-8.13,1.54-15.39,5.79-23.92,5.7-10.82-.11-22.9-1.83-33.73-2.64,3.23.24,8.82-2.06,11.9-2.86Zm24,8.29q-.6,2-2,1.08c-.83-.81,1.93-1.27,2-1.08Zm13.65,1.48c-3,5.7-4,4.85-9.88,5.3-4.75.36-11.29,2.44-15.93,2.17-7.68-.44-17.35-7.53-23.4-11.95,1.31,1,13.61-.19,17.06.33,4.85.73,12.21,3.22,15.27,3.91.39.09,1,2.1,3.05,2.09,2.34,0,.64-3.35,1.53-3.69,1.38-.52,16.2-3.23,16.31-3.78-.42,2.05-3,3.79-4,5.62Z"/><path d="M293.32,283.63q3.15.44,1,2.16C292.31,286.05,293.55,284,293.32,283.63Zm-.33-1.4c-2.66.68-1.3,7.41,2.75,5.4C299.17,285.92,295.43,282.37,293,282.23Z"/><path d="M290.21,293.91c.83.12,10.42,0,9.72-2.13-1.21-3.64-18.46,2.83-20.19,2.93,3.36-.19,7.1-1.3,10.47-.8Z" fill="none"/><path d="M281.48,226.93c-5.95,2.54-12.68,3.52-14.16-4.6-.55-3,.83-8,3.78-9.63,1.41-.76,6.33,1.06,6.82.19,1.22-2.16-4.78-3.2-5.76-3.1-5.19.55-7.49,7.4-7.16,11.76.34,4.53,2.53,8.2,7.12,9.23,2.06.46,12.35-1.34,12.46-3.73A2.28,2.28,0,0,0,281.48,226.93Z"/><path d="M317.73,214.69c-1.55-7.81-7.35-1-8.61-1.59,3,1.37,3.21-1.93,5.64,1.39,1.42,1.94,0,7-1,8.69-3.07,5.38-6.09,3.75-11.43,3.17,0,0,6.11-1.93,5.69-1.42.74-.92,5.71-6.72-.91-4.25.78-4.42-.8-9.44-2.12-13.53-.68-2.1-2.82-11.54-4.42-12.78.05,0,1.05,10.21,1.31,11.11,1,3.72,4.76,9.76,2.93,13.93-5.47,12.49-23.95-2.7-29.14,2.66-4.35,4.48,3.26,3.16,5.28,3.35,3.85.37,8.18,1.57,12.26,2,10.55,1,28.05,5.19,24.49-12.72Z"/><path d="M270,143.25c5.67-1.15-4.13-6-5.63-6.26-1.05-.17-3.85,1.56-5.45,1.57-2.78,0-7.49-2.69-10.59-3.2a50.16,50.16,0,0,0-16,.14c-1.09.15-10.34,2.88-11.12,2.44,2.72,1.54,9.95-.84,13-1.19,6.43-.74,11.41-.73,17.59,1.65,1.87.72,4.31,2.66,6.16,3,1.58.32,4.38-.09,5.26.12.55.13,1.56-1.9,2.69-1.71,3.27.57-2,4.65,4.11,3.41Z"/><path d="M407.42,359.31c-11.69-23.66-23.07-48.32-27.93-74.39a391.86,391.86,0,0,1-6.27-85c.29-8.57.2-17.25.91-25.79.58-6.94,2.78-13.55,2.87-20.64.06-5-1.31-8.13-1.91-12.28-1.24-8.49-.87-17.35-2-25.91-2.27-17.29-5.84-35.56-13.93-51.18-3.75-7.24-8.72-14.22-15.4-19-.85-.61-15.52-8.71-16.23-5.95.48-1.87,16.94,11.94,17.6,12.69,8.09,9.34,13.53,21.09,17.27,32.79,3.8,11.88,5.78,24.29,6.92,36.69.48,5.25,2.51,14,1.06,19.3-1.34,4.87.22,2.93-5.11,4.51-2.46.73-5.81.78-8.32,1,2.9-14.85-3.3-35.57-7.4-50.11-.66-2.34-11.46-28-16.19-21.24C331,78.12,342.18,93.55,343.78,97c5.84,12.68,10.84,30.33,9.68,44.21-6.48-7.32-16.21-8.66-25.12-6-4.34,1.3-7.56,4.27-11.6,5.92a7.48,7.48,0,0,1-5.45,2.81,24.35,24.35,0,0,0-2.3-3.44c-3.86.41,0,6.05,2.17,6.59,3.22.81,9.24-5.13,12-6.47,7.89-3.82,20.19-6.68,27.52.28,7.57,7.19-8.08,5.93-14.07,6.36-8.6.62-19.32.06-27.46,3.12-7.74,2.91-12,6.32-21.18,5.05-5.15-.71-7.36-3.13-11.91-5-8.84-3.65-21.36-2.88-30.82-3.52-11.8-.79-24.8-4.23-36.54-3.17,17.08-19.72,38.1-34.11,58.39-50.15,7.81-6.18,15.61-12.37,23.52-18.42,1.17-.9,13.74-8.73,13.78-9.52-.25,5.43-15.3,16.2-18.77,19.29-5.1,4.54-47.09,35.6-44,39.82,6.27,8.68,60.34-44.79,67.74-44,2.49.27-14.67,18.43-14.75,18.32,3.85,5.19,21.89-11.52,23.77-13.58,4.54-5,6.32-13.21,10.42-17.56-6.49,6.89-11.29,20.5-21.55,23.12,4.17-1.07,19.51-29,15.86-29.78s-23.18,21.49-26.8,24.48a205.18,205.18,0,0,1-19.86,14.49c-2,1.27-9.36,4-10.43,5.9,1-1.76,55.74-45.5,48.49-51.61-3-2.52-28.9,18.26-33,21.35-15,11.35-31.35,20.83-46.23,32.38-16.37,12.71-32.57,27.34-42.93,45.54-12.71,22.32-12.21,41.34-7.3,65.78,7.26,36.08,23.78,71,22.74,108.27-.7,25-6.86,50.34-19.75,71.9-5.13,8.57-11.52,16.31-18.09,23.8-1.64,1.87-7.54,10.81-9.89,11.32,8.25-1.8,19.13-17.68,23.87-24.05a139.57,139.57,0,0,0,21-41.63c.81-2.6,2.47-14.46,4.82-15.18s9.18,6,11,7.34a40.09,40.09,0,0,0,16,7.14c1.63.33,15.43,4.5,15.86,4.2,2.43-1.68-14.68-6.77-16.49-7.4-8.62-3-14.62-7.75-20.87-14.29-7.77-8.12-3.46-19-3.45-29.88a159.61,159.61,0,0,0-3.62-34.45c-8.77-40.11-35.6-88.17-11.19-127.51-.48,7.74.32,19.58,6.13,25.53,6.24,6.38,17.9,5.08,26.27,5.45,13.16.59,26.89.22,39.65-3.4,9.89-2.8,10.71-6.67,15.4-14.87,2.87-5,7.24-10.86,13.48-6.64,4.62,3.12,3.45,11.66,6.8,15.76,9.18,11.25,38.69,7,51.2,4,0,16.94-3.76,34.62-4.93,51.65-1.07,15.58-6.6,24.82-15.39,37.26-18,25.44-33.2,72-75,53.28-13.8-6.19-28.46-16.57-37.79-28.26-1.65-2.06-4.29-8.14-8-5.65-6.6,4.4,6.13,13,8.66,14.58,14,8.94,28.49,22.47,45.22,25.57,24,4.44,40.89-7.29,52.31-27.4,3.24-.78,2.85,31.44,1.73,34.4-1.92,5.07-7.15,9-10,13.65-1.57,2.51-2.2,5.67-3.86,8-1.19,1.69-4.1,2.66-4.67,4.6-.44,1.49,5.78-2.58,6.47-3.3,2.62-2.75,3.37-7.12,6-10,1.9-2.13,7.34-6.93,10.34-7.07,5-.24,9.54,5.14,13.67,8.34,8.51,6.6,15.66,6.12,26,8.08a53.05,53.05,0,0,1,12.38,3.46c2.4,1.1,5.07,4.42,7.9,4.31,1.14,0-7-6.63-8-7.14-4.2-2.06-9.21-2.88-13.75-3.73-9.86-1.84-16.19-2.58-24.51-8.65-13-9.45-14.41-16.31-15.15-31.78-.61-12.7-.33-21.38,6.3-32.43,11.16-18.58,20.73-30.8,22.64-52.93.73-8.44.87-16.94,1.7-25.37.59-6,.37-14.92,2.29-20.57,1.37-4,.2-2,3.19-4.88,2.46-2.32,5.47-3.27,7.85-5.91-1.26,43.54-2.66,87.13,10.26,129.34,5.29,17.29,12.82,33.43,20.9,49.53a91.35,91.35,0,0,1,8.9,27.91c.36,2.38,3.54,15.65,1.91,17.66.76-.94-9.28-14.47-11.68-13.06,1.49-.87,12.9,28.72,17.85,27,6-2-7.72-51.3-10.21-56.33ZM249.85,153.88c-3.23-2.6,3.28-.47,4.4.11a9.94,9.94,0,0,1,4.44,4.13c2.87,5.38-.16,6.45-6.39,8-4.57,1.14-16.36,2.24-19.94-2.09-3.45-4.18,1.45-8.58,6.19-9.64-4.47,4.24-.91,11.37,4.91,11.82,5.35.41,11.72-8,6.39-12.33ZM280.63,167c-1.79,14.35-12.48,17.18-24.71,18.41-10.91,1.1-25.35,2.94-36.27.94-12.19-2.24-20-23-11.6-33.35,6.43-7.95,24.81-3,33.7-2.9-1.63.22-19.07,4.8-17.27,9.82.59,1.64,6.39-2.78,7.37-3.29-4.34,4.37-5.5,3.92-1.76,7.78s13.63,4.38,18.48,3.79c2.72-.33,12.27-2.19,14-4.66,2.55-3.73-.3-3.51-3.56-7.6.81.44,8.48,7.22,9.63,5.75,2.24-2.86-17.09-11.1-18.69-11.39,11.93.51,32.87-.52,30.71,16.71Zm34.56-11.49c-8.48,16.24,25.63,5.3,8.13-3,8.5-1.38,17.39,8.58,6.33,12.42-7.25,2.51-28.81-1.35-14.46-9.39C311.6,162.4,313.92,156.24,315.19,155.52Zm10.62,28.25c-7.59-.38-14.63-1.23-18.92-8.12-4.87-7.82-5.33-17.84,4.44-20.9-.18.14-6.61,7-4.9,7.43a12.54,12.54,0,0,0,2.64-2.26c-2,8.78,11.39,8.56,17.65,7.5,5.16-.87,15.28-3.21,10.17-9.3a6,6,0,0,0,4,1.17c.3-.55-9.35-7.68-10.68-8.16a217.72,217.72,0,0,1,22.09-1.48c-1,5.77-.43,11.78.46,17.52.33,2.12,3.64,11.55,2.77,13.08-3.18,5.6-24,3.81-29.77,3.52Zm43.87-19.87A20.57,20.57,0,0,1,358,179.62c-1-5.52-7.59-25.15-1.75-30,1.69-1.4,11.84.45,13.47,2.38,1.77,2.09.36,9.35,0,11.9Z"/></svg>
