<svg xmlns="http://www.w3.org/2000/svg" viewBox="0 0 456.5 635.33"><polygon points="228.25 635.33 114.13 522.28 0 409.24 228.25 409.24 456.5 409.24 342.38 522.28 228.25 635.33" class="fill-white"/><path d="M273.71,411.61c-5,0-11-3.38-14.25-6.4-2.13-2-11.93-8-12.5-10.8-1.1-5.27,6.81.61,7.81,1.33,6.62,4.75,6.82,5.57,13.85,9.87,3.46,1.27,11.55-13.92,24.93-15.16,8.29-.76,16.58,1.94,24.83,1,2-.22,11.31.19,4.26,2.52-11.58,3.83-26.25-5.07-36.38,2.18C281.85,399.3,276.62,411.43,273.71,411.61Z"/><path d="M236.1,300.71c-4,0,4.29-2.82,4.78-3.44.19-.24,11.25-1.94,12.31-2C265.65,294.71,238.19,300.71,236.1,300.71Z"/><path d="M240.54,160.26c-6.67,0,9.11-11.14,10.68-11.72,4.63-1.7,27.54,1.86,32.87,4.14,5.13,2.19-16.88-1.2-19.74-1.39-4.73-.32-8.84,1.08-13.16,3C248.69,155.37,243.21,160.26,240.54,160.26Z"/><path d="M147.37,186.88C141,186.88,158.7,174,160.46,173c4.35-2.46,24.82-12.27,26.67-1.76.36,2.06-11.86-.36-15.75.91a57.71,57.71,0,0,0-14,7.28C155,181,150.11,186.88,147.37,186.88Z"/><path d="M279.64,167.2c-1.92-6.88-27.08-2.78-33.46,1.58-4.5,3.08-14,13.36-9.3,10.42,2.24-1.4,3.08.7,2.4,1.6-1,1.8,2.67,3,6,2,10.35-2.94,24.9-1,29.07-10.84a3.32,3.32,0,0,0-.11-2.07C278.82,169.95,280.55,170.45,279.64,167.2Zm-27.94,3.73c.31,5.2,3.4,7.2,6.66,7.18-4.59.59-12.08,1.21-15.18,1.78-.63-1,.29-5,2.08-6.25C247.37,172.21,249,170.79,251.7,170.92Zm15.45,4.83a18.91,18.91,0,0,1-6.36,2c3.68-1.1,6.65-4.49,4.78-8.29,1.85.15,4,.31,6.13.4C270.1,171.74,268.19,175.12,267.15,175.75Z"/><path d="M232,212.27c-2.29-4.57-3.58-12.15-6.78-18.59a49.47,49.47,0,0,1-4.57-17.38c-.36-2.37-1.74-1.79,4.44-6.21,4.67-3.34.27,4.33-.06,5.55-1,3.91.39,9.69,2.48,14.7C231,198.7,236.39,221,232,212.27Z"/><path d="M195.13,186.46c3-.25,6.11-2.62,4.2-2.6-4.16,0-15.19-2.86-20.44-2-4,.68-11.36,3.51-15,5.19-3.16,1.46-11.48,9.39-2.55,11.14,1.37.27,1-.09,3-1.89.86,4.06,3.67,4.61,11.25,3.16,5-1,18-3.08,24.29-9.08C201.16,189.2,197.48,187.2,195.13,186.46Zm-19.47,11.22c-10.13,1.28-6.38-.66-8.64-3.28,1-.86,5.84-5,6.6-5.42-3.6,16.26,19.68,3.58,11.33-2.65.89,0,2.65.16,4.65.22-.35.76.76,2.19,4.59,4.45C189.8,193.52,181.21,197,175.67,197.68Z"/><path d="M284.77,244.16a106.76,106.76,0,0,0-10.86,1.47c-5.19-.44-16.76,6.28-33,9.94-1.07.24-2.62,3.4-3.72,3.57-.81.13-3.69-1.29-4.58-1.17-10.47,1.47-23.68,4.84-31,9.14-4.79,2.81,1.15,2.37,3.08,3.75s5.38,2.07,6.66,4.16c.8,1,1.72,2,2.58,2.9,6.17,6.32,12.31,13.59,22.38,11.72,18.64-3.45,27-3.43,35.84-18.6,1.44-2.45,7-11.63,8.35-14.18C284.86,249.74,294,243.18,284.77,244.16Zm-23.19,33.33c-6.1,5.12-16.87,8-24.45,8.46-4.46.27-8.86.61-12.88-1.92a16.11,16.11,0,0,1-4.63-5.23c4.51,1.89,8.58,3.33,9.91,3.33a69.51,69.51,0,0,0,38-12A19.48,19.48,0,0,1,261.58,277.49Zm-7.35-4.74C247,274.92,236.65,279,229,278.25c-8.52-.84-14-7.83-22.5-9.56-2.13-.81,18.4-2.78,27.21-3.94,8.15-1.08,15.68-4.1,23.16-7.21,7.73-3.21,17.44-9.23,26.17-9C274,258.17,267.52,268.78,254.23,272.76Z"/><path d="M297.38,262.6c-3.58,8.33-2.7-16.19-.5-21.55,1-2.53.76-9.38-3.47-8.92-2.58.28-1-2.23,2.48-3.22,5.57-1.59,3.8,10.12,2.2,13.74S298.75,256.07,297.38,262.6Z"/><path d="M435.66,363.48c-3.66-4.81-11.38-5.49-17.1-3.49-4.4-1.34-12.4-2.85-13.11-3-6.13-1.56-12.64-1.84-18.83-3.44S357,342.23,347.75,342.86l.12-.22c.38-.67,3.16-2.17,4-3.5,1.1-1.74,1-5.3,1-7.33,0-8.42-3.6-15.66-2.8-24.24,1.55-16.64,9.1-33.86,11.13-50.53,2.1-17.23,4.38-35.77,3.45-53.13-2.92-54.4-42.49-99.19-72.94-142-7.15-10-15.37-20.42-26.26-26.62-1.68-1-19.37-12.87-24-10.37C243-4.14,203.75-2.9,183.27,4.39c-67.43,24-100.38,107-121.42,168.06C50,206.9,33.35,247.19,39.9,284.27c1.78,10.08,12.71,20,16,29.51,3.24,9.35,3.57,18.75,2.52,28.52-.37,3.48-6.95,30.13-5.38,40.36A87.5,87.5,0,0,0,41.37,390c-1.06.82-8,6-5.19,8.44s3.73-2.71,5.44-3.87c7.9-5.39,16.64-8.64,25.17-12.87.77,3.63-4.23,20-2.12,20,5.49,0,8.49-19,5.37-22.25-2.37-2.45-7.75-1.13-13.31,1.36,1.77-11.6,11-37.12,11.29-41,1.87-22.62-17.2-38-19.41-59.42C44.33,238.9,61.53,195.69,75,157.34c10.93-31,21.78-62.7,40.9-89.84,18.78-26.67,47.15-53.62,81-57.68C209,8.37,230,8.42,236.54,21.3c3.16,6.25-2.31,13.49.16,19.15,2.7,6.19,1.31-2.79,13.91-2.8,5,0,13.2,3.88,17.23,6.76,10.23,7.31,18.74,15,25.68,25.34,31.29,46.53,65,90.67,64.23,149.45a370.25,370.25,0,0,1-4,48.3c-2.1,14.45-7.87,29.44-7.91,44.05,0,6.9,3.14,13.41,3.14,20.21,0,9.44-8.18.83-9.86,3.93-2.34,4.28,2,40.71,10.35,40.71,3.78,0-2-14.26-2.26-15.36-1.42-5.86-2-10.39-.9-14.49,3.33,1.34,9.43,2.2,10.37,2.54,6.31,2.31,13.47,3.59,20,5.56,10.14,3.08,25.79,7.72,37.05,8.25-5.92,5.49-8.5,15.82-12.42,22.58-9.36,16.17-23.8,25.88-39.4,35.46-18.72,11.49-38.06,22.27-58.93,29.33a156.73,156.73,0,0,1-31.35,7.28c-2.65.32-15.12-.48-16.55,1-.65.69-3.93,3.87,0,3.87,43.8,0,84.17-21.58,119.83-45.11,15-9.93,25.74-21.67,33.82-37.77,3.07-6.11,6-16.3,14.17-16.84C423.94,362.66,440.8,370.23,435.66,363.48Z"/><path d="M194.78,298c14,13.55,29.74,34.47,51.27,34.47,18,0,32.11-14.89,42.72-27.78,2.51-3.05,13.16-13.65,13.31-3.67.06,3.62,5,31.62,6.93,23.3.49-2.08.83-19.14.55-26.62-.12-3.14,1.78-22.19,5.27-27.73,4.48-7.11,6-12.1,6.92-20.48.94-8.21,1.83-14.75,2-23,.05-2.07-.34-11.77-1.35-15.45,1.29-2.24,2.39-4.2,2.92-5,3.45-5.19,4.93-9.37,3.72-15.68-1-5.41-2.89-18.09-8.52-19.35-5.94-1.32-13.19-2-14.51-18.47-1.43-17.92-20.56-22.42-31.53-35.15-9.55-11.09-12.79-23.74-16.37-37.54-1.13-4.35,0-12.38-4-15.09-2.42-1.64-14.22-2.71-12.71,0,2.62,4.69,3.63,8.82-9.49,7.77-4.65-.37-9-1.5-13.65-1.05-9.36.91-17.32,5.88-26,9-13.6,4.94-29.24,4.3-41.82,12.1-14.15,8.78-22.61,25.84-23.61,41.55-1.29,20.17,9.2,36.11,16,54.51,1.8,4.83,11.3,63,12.69,66,5,10.54,15.28,25,23.17,32.88,3.47,4.1,2.86,25.8,3.15,28.71.95,9.46,3.14,20.05,5.36,30,3.11,13.92,11.92,23.92,19.65,35.75,8.25,12.64,16.85,24.93,22.55,39a127.49,127.49,0,0,1,7.09,24.51c.72,3.85,1.65,28.8,4.59,28.8,6.54,0-4.19-44.06-6.46-50.34-5.13-14.19-13-26.77-21.32-39.28-7.5-11.31-15-22.69-18.94-35.82a90.76,90.76,0,0,1-3.6-27c0-3.07,2.64-18.12,2.94-24.81Zm-28-38.2c-1.14-2.22-6.33-12.92-8.09-17.8-4.92-13.68-10.5-50.23-12.17-54.7-7.82-21-15.11-38.81-11-61.77,2.81-15.51,10.65-24.4,25.92-29.86C169,93,179.63,93,187.32,91.27c8.86-2,16.84-8.44,25.35-11.43,9.46-3.33,13.1-4.27,22.72-2.67,1.69.28,11.85,2.05,16.7,1.07,1.65,4.76,3.91,10.48,5.27,15a73.54,73.54,0,0,0,10.51,22c8.85,12.35,24.29,19.47,30.88,33.42,2.37,5,4.72,40,6.17,40,3,0,3.58-5.63,3.21-12.34,3.45,1.44,10.33,2.26,12.12,3.88,3.24,2.93,5.74,10.45,5.57,14.74-.14,3.42-15.72,25.76-10.19,25.76.47,0,1.31-.94,2.3-2.35-1.06,13.43-1.08,37.38-2.47,41.27-2.57,7.19-7,13.54-11.69,19.48-.54.69-5.38,6.12-6.84,9.6a115.44,115.44,0,0,0-8.8,10.56c-9.17,11.55-20.42,25.12-35.55,28.51-19.27,4.32-34.66-12.15-47-24.45C191.61,289.31,176,277.75,166.79,259.77Z"/><path d="M208.11,233.3c-3.13,12.6,5.52,14.63,10.43,13.59,7.6-1.61,12.66,6.47,19.69-.26,2.42-2.32,3.46-5.8,6-8s7.52-3.09,9.95-5c4.3-3.4,4-13.36-2.85-15.15-5.93-1.54-7.9,3.07-4.39,2,3.24-1,8.71,3,5.63,9.59-1.67,3.56-7.63,2.58-10.57,4.54-3.19,2.14-2.32,6.61-5,9-6.16,5.49-10.5-.53-17.35-1.55-2.67-.39-7.11,1.74-9.16-1.38C210.56,240.77,209.85,229.27,208.11,233.3Z"/></svg>
