<svg xmlns="http://www.w3.org/2000/svg" viewBox="0 0 414.1 483.7">
  <path d="M246.7 424.1c-5.2 0-12.2-8.6-15.5-11.7-2.2-2-12.3-8.3-12.9-11.1-1.1-5.4 7 .6 8.1 1.4 6.8 4.9 11.7 12 19 16.4 3.6-12.4 7.3-20.6 21.1-21.9 8.6-.8 17.1 2 25.6 1 2-.2 13.7-4.1 9.1 1.8-7.7 10-33.3-4.3-43.8 3.2-4.6 3.3-7.1 20.9-10.7 20.9zM212 305c-4.2 0-.5-3.4 0-4 .2-.2 11.8-2.6 12.7-2 6.7 3.9-10.5 6-12.7 6zm-.4-145.5c-6.9 0 9.4-11.5 11-12.1 4.8-1.8 31.7-2.8 33.9 3.2 2 5.4-17.4-.1-20.3-.3-4.9-.3-9.2-.3-13.7 1.7-2.5 1.1-8.1 7.5-10.9 7.5zM115.5 187c-6.6 0 11.7-13.4 13.5-14.4 4.5-2.5 25.6-12.7 27.5-1.8.4 2.1-12.2-.4-16.3.9-5.1 1.7-10 4.5-14.4 7.5-2.4 1.7-7.5 7.8-10.3 7.8zM252 166.7c-4.7-4-22.4-2.7-28.2-.8-4 1.3-21.9 15.8-16.2 15.8.8 0 1.7-.4 2.7-1-1 1.9-1 3.3 1.6 3.3 7.4 0 34.5-2.3 34.6-12.4 0-.9 0-1.6-.1-2.1 4.8 0 8.3-.6 5.6-2.8zm-30.5 4.6c.6-.3 1.1-.5 1.7-.8.3 5.4 3.5 7.4 6.9 7.4-4.7.6-9.9.8-13.1 1.4 2.2-2.9 3.8-5.9 4.5-8zm17.6 4.2c-1.6 1-3.9 1.6-6.6 2.1 3.8-1.1 6.9-4.6 4.9-8.6 1.9.2 4.1.3 6.3.4-1.5 2-3.5 5.5-4.6 6.1zm-35.7 32.9c-1.6 0-7-18-7.7-20.3-.6-2.1-2.8-24 5.8-19 1.8 1.1-3.2 7.4-3.3 8.5-.4 3.6.5 6.5 1.6 9.9.6 2.2 9.6 20.9 3.6 20.9zm-38.6-21.8c3.1-.3 5.3-1 4.3-2.7-2.3-4.1-18.4-1.5-22.2-.5-4 1-7.4 2.9-10.8 5.3-1.7 1.2-11.8 10.1-6.2 10.1 1.4 0 3.4-1.4 5.5-3.3.9 4.2 5 6.2 9.2 6.2-.4 0-.5 0 0 0h3.2-3.2c4.2 0 25.7-4.5 25-11-.1-1.9-2.4-3.4-4.8-4.1zm-20.7 10.8c-6.1-1.5-2-3.5-4.3-6.2 1-.9 1.9-1.6 2.7-2-3.7 16.8 20.3 3.7 11.7-2.7.9 0 2.7.2 4.8.2-.4.8.8 2.3 4.7 4.6-4.4 2.6-14 7.5-19.6 6.1zm33.8 73.4c-.5.2-.9.4-1.3.6 4.5.2 5.8-2.5 1.3-.6z"/>
  <path d="M256.9 246.9c-2.9-1.2-6.3-1.2-10.1-.3-5.7-.5-17.2 2.6-21.9 3.6-7 1.4-13.3 4.4-20 6.7-6.7 2.3-13.5 3.5-20.2 5.3-.4.1-8.7 3.4-6.3 4.2-2.6.8-5.4 2-7 3.6-5 4.9-2.8 6.7 2.6 3.1-.2.9 3.1 2.9 7.4 5.1.8 1 1.8 2.1 2.7 3 6.4 6.5 9.1 12.6 19.6 12.6 18.5 0 31.3-4 40.5-19.7 1.5-2.5 3.9-6.9 4-8.7 5.5-5.6 17.6-14.8 8.7-18.5zm-40.7 9.9c3.8-1.3 7.6-2 11.4-2.5-6.1 3-11.7 6-15.9 7.1-4.4 1.2-8.9 1.5-13.4 1.8 6.1-2 12.1-4.4 17.9-6.4zm17.4 25.6c-6.3 5.3-17.7 6.4-25.5 6.8-4.6.3-9.1.6-13.3-2-2.1-1.3-3.4-3.3-4.8-5.4 4.7 2 8.9 3.4 10.2 3.4 13 0 28-4.6 39.2-12.4-1.6 3.6-3.1 7.3-5.8 9.6zm-7.8-6.7c-7.4 2.2-18.1 6.4-26 5.7-8.8-.9-14.2-9.6-23.2-9.9.5-.3.9-.5 1.3-.6 8.6-3.8 18.6-3.2 27.7-4.5 8.4-1.1 15-4.1 22.7-7.3 8-3.3 18.3-8.7 27.3-8.5-9.4 10-16.1 21-29.8 25.1zm-9.1-85.5c-3.6 0-1.1-3.1-.2-4 1.2-1.3 11-.2 12.8-.3 4-.1 8.6.1 12.4-1.7 1.8-.9 5.9-5.8 7.2-5.8 8.2.1-6.3 9.9-8.8 10.5-7.3 1.9-15.9 1.3-23.4 1.3zm-71.8 20.4c-3.1 0-1.5-2.7-.7-3.7 1.1-1.3 6.4-.2 8.2-.7 5.7-1.3 11.2-10 16.9-9.2 5.9.8-3.4 6.1-4.6 6.9-7 4.6-10.7 6.7-19.8 6.7zm127.6 54.9c-4.1 0-.9-16.9-1.3-20.2-.7-5.2-1.5-6.6-4.9-10.1-1.9-1.9-5.4.8-4.8-3.2.4-3 6.4-.6 7.8.2 3.9 2.1 4.8 6.1 5.7 10 .5 2.9 1.5 23.3-2.5 23.3z"/>
  <path d="M413.1 369.3c-3.8-5-11.8-5.7-17.7-3.6-4.5-1.4-12.8-2.9-13.5-3.1-6.3-1.6-13.1-1.9-19.4-3.6-6.3-1.6-30.6-11.7-40.1-11 0-.1.1-.2.1-.2.4-.7 3.3-2.2 4.1-3.6 1.1-1.8 1-5.5 1-7.6 0-8.7-3.7-16.2-2.9-25 1.6-17.2 7.1-34.1 9.2-51.3 2.2-17.8 3.5-35.9 2.6-53.9-3-56.2-40.6-104.3-72-148.4-7.5-10.3-15.9-21-27.2-27.4-1.7-1-19.8-7.3-24.6-4.7C214.4-4.2 169.3-3 148.1 4.5 78.5 29.3 52.7 109.4 31 172.4 18.7 208 3.4 251 10.2 289.2c1.8 10.4 7.5 18.9 10.9 28.8 3.3 9.7 3.7 19.4 2.6 29.4-.4 3.6-7.2 31.1-5.6 41.7-5 2.6-9.7 5.8-12.1 7.6-1.1.8-8.3 6.2-5.4 8.7 2.9 2.5 3.9-2.8 5.6-4 8.2-5.6 17.2-8.9 26-13.3.8 3.8-4.4 20.7-2.2 20.7 5.7 0 8.8-19.6 5.5-23-2.4-2.5-8-1.2-13.7 1.4 1.8-12 5.7-38.2 6-42.2 1.9-23.4-12.1-39.4-14.4-61.5-4.4-42.8 13.3-87.5 27.3-127 11.3-32 22.5-64.7 42.2-92.7 19.4-27.5 48.7-55.4 83.6-59.5 12.5-1.5 34.2-1.5 40.9 11.8 3.3 6.4-2.4 13.9.2 19.8 2.8 6.4 4-2.9 4.2-4.1.2-.8.3-1.6.5-2.4 2.6 1.7 11 .3 13.3.8 5 1.1 9.6 3.5 13.7 6.5 10.6 7.5 18.5 18.6 25.6 29.2 32.3 48 68.5 93.8 67.7 154.4-.2 16.7-1.8 33.4-4.2 49.9-2.2 14.9-8.1 30.4-8.2 45.5 0 7.1 3.2 13.8 3.2 20.9 0 9.7-2.5 3.6-4.2 6.8-2.4 4.4-6.4 32.8 2.3 32.8 3.9 0 .4-8.2.1-9.3-1.5-6.1-2-10.7-.9-15 3.4 1.4 9.7 2.3 10.7 2.6 6.5 2.4 13.9 3.7 20.6 5.7 10.5 3.2 26.6 8 38.3 8.5-6.1 5.7-8.8 16.3-12.8 23.3-9.7 16.7-24.6 26.7-40.7 36.6-19.3 11.9-39.3 23-60.8 30.3-10.5 3.6-21.3 6.2-32.4 7.5-2.7.3-15.6-.5-17.1 1.1-.7.7-4.1 4 0 4 45.2 0 86.9-22.3 123.7-46.6 15.5-10.2 26.6-22.4 34.9-39 3.2-6.3 6.2-16.8 14.6-17.4 1.3 0 18.7 7.8 13.4.8z"/>
  <path d="M164.4 301.7c14.5 14 30.7 35.6 52.9 35.6 18.6 0 33.1-15.4 44.1-28.7 2.6-3.2 9.5-9.7 12-14.6 1.5-1.2 3.2-3.3 5-5.6-.5 4.2-.6 8.2-.7 9.2-.3 3.7-2.8 29.1 4.3 29.1 2.2 0-.9-20.3-.7-23.5.2-3.2 3.4-17.2 2.8-23.4 1.2-2 2.2-3.7 2.8-4.5 4.6-7.3 7.7-15.1 8.7-23.7 1-8.5-.4-17-.2-25.5.1-2.1 1.9-10.4.9-14.2 1.3-2.3 2.5-4.3 3-5.2 3.6-5.4 5.1-9.7 3.8-16.2-1.1-5.6-4.2-12.9-9.4-15.8-1.3-.8-9-3.1-12.5-2.3-.8-8-2.4-16.4-3-18.6-4.6-18-20.1-25.5-31.4-38.7-9.9-11.5-13.2-24.5-16.9-38.8-1.2-4.5-2-9.5-6.1-12.3-2.5-1.7-11.8-3.8-14.4-2-5.8 4 7.1 3.8 8 4 3.7 1 4.9 1.7 6.5 4.5-5.7-1-18.7-1.3-21.1-1.8-4.7-.8-9.3-1.6-14.1-1.1-9.7.9-17.9 6.1-26.8 9.3-14 5.1-30.2 4.4-43.2 12.5-14.6 9.1-23.3 26.7-24.4 42.9-1.3 20.8 9.5 37.3 16.6 56.3 1.9 5 9.6 43.5 11.4 58.4.5 4.1 6.7 12.4 8.1 15.4 7.5 16.1 17.7 23.8 29.8 35-2.9 3.5-3.2 17.1-3.5 20.1-.8 10.4-.4 21 1.9 31.3 3.2 14.4 10.3 27 18.3 39.2 8.5 13.1 17.4 25.7 23.3 40.3 3.3 8.2 5.7 16.7 7.3 25.3.7 4 1.7 29.7 4.7 29.7 6.8 0-4.3-45.5-6.7-52-5.3-14.7-13.4-27.6-22-40.6-7.7-11.7-15.5-23.4-19.6-37-2.7-9-3.8-18.4-3.7-27.8 0-3.2 2.7-18.7 3-25.6.5.7.9 1.1 1.2 1.4zm-28.9-39.5c-1.2-2.3-6.5-13.3-8.3-18.4-5.1-14.1-10.8-51.9-12.6-56.5-8.1-21.6-15.6-40.1-11.3-63.8 2.9-16 10.1-28.7 25.9-34.4 7.7-2.8 19-.8 26.9-2.6 9.1-2.1 18-7.1 26.8-10.2 9.8-3.4 13.5-4.4 23.5-2.8 1.7.3 14.3 1.8 19.3.8 1.7 4.9 2 11.2 3.4 15.9 2.4 8.1 5.9 15.8 10.9 22.7 9.1 12.7 25.1 20.1 31.9 34.5 2.4 5.2 4.9 41.3 6.4 41.3 3.1 0 3.7-5.8 3.3-12.7 3.6 1.5 10.7 2.3 12.5 4 3.3 3 5.9 10.8 5.7 15.2-.1 3.5-16.2 26.6-10.5 26.6.5 0 1.4-1 2.4-2.4-1.1 13.9-1.1 38.6-2.5 42.6-2.6 7.4-7.2 14-12.1 20.1-.6.7-5.6 6.3-7.1 9.9-3.7 3.7-8.5 10.2-9.1 10.9-9.5 11.9-21.1 25.9-36.7 29.4-19.9 4.5-35.8-12.5-48.5-25.2-14.6-14.4-30.7-26.3-40.2-44.9z"/>
  <path d="M229.2 226.2c-.7-3.4-1.5-7.7-5.2-8.6-5.3-1.4-.9 3.5-.9 3.7 1.2 10.3 1.8 7.6-6.9 13.1-6.1 3.8-11.1 21.3-21.4 9.5-1.4-1.6-1.2-8.5-3.9-8.2-4.2.5.4 5.8-4 7.5-2.4 1-4.4-.2-6.1-2.1-3.2-3.6 1-7.5-.5-9.3-2.9-3.5-5.3 1.5-5.5 4.6-.3 4.7 4.4 10.1 8.8 10.9 1.6.3 3.1-.6 4.5-.4 1-.4 1.9-.9 2.9-1.3.6.7 1.3 1.5 1.9 2.2 5.4 1.7 9.5 5.3 15.5 2.1 5-2.6 4.8-8.2 8.7-11.5 4.4-3.8 13.7-3.6 12.1-12.2-.7-3.2 1.2 6.3 0 0z"/>
</svg>
