<svg xmlns="http://www.w3.org/2000/svg" viewBox="0 0 456.5 456.5">
  <path d="M264.1 392.9c-4.7 0-10.4-3.2-13.4-6-2-1.9-11.3-7.5-11.8-10.2-1-5 6.4.6 7.4 1.3 6.2 4.5 6.4 5.3 13.1 9.3 3.3 1.2 10.9-13.1 23.5-14.3 7.8-.7 15.6 1.8 23.4.9 1.9-.2 10.7.2 4 2.4-10.9 3.6-24.8-4.8-34.3 2.1-4.3 2.8-9.2 14.3-11.9 14.5zM228.6 288.2c-3.8 0 4-2.7 4.5-3.2.2-.2 10.6-1.8 11.6-1.9 11.8-.5-14.2 5.1-16.1 5.1zM232.8 155.7c-6.3 0 8.6-10.5 10.1-11.1 4.4-1.6 26 1.8 31 3.9 4.8 2.1-15.9-1.1-18.6-1.3-4.5-.3-8.3 1-12.4 2.8-2.4 1.1-7.6 5.7-10.1 5.7zM144.9 180.8c-6 0 10.7-12.2 12.4-13.1 4.1-2.3 23.4-11.6 25.2-1.7.3 1.9-11.2-.3-14.9.9-4.7 1.7-9.1 4-13.2 6.9-2.3 1.5-7 7-9.5 7zM269.7 162.3c-1.8-6.5-25.6-2.6-31.6 1.5-4.2 2.9-13.2 12.6-8.8 9.8 2.1-1.3 2.9.7 2.3 1.5-.9 1.7 2.5 2.8 5.7 1.9 9.8-2.8 23.5-.9 27.4-10.2.2-.6.1-1.3-.1-2 4.3.1 5.9.5 5.1-2.5zm-26.4 3.5c.3 4.9 3.2 6.8 6.3 6.8-4.3.6-11.4 1.1-14.3 1.7-.6-.9.3-4.7 2-5.9 1.9-1.4 3.4-2.8 6-2.6zm14.6 4.5c-1.9 1-3.9 1.6-6 1.9 3.5-1 6.3-4.2 4.5-7.8 1.7.1 3.8.3 5.8.4-1.5 1.7-3.3 4.9-4.3 5.5zM224.7 204.8c-2.2-4.3-3.4-11.5-6.4-17.5-2.4-5.2-3.9-10.7-4.3-16.4-.3-2.2-1.6-1.7 4.2-5.9 4.4-3.2.3 4.1-.1 5.2-.9 3.7.4 9.1 2.3 13.9 3.4 7.9 8.4 28.9 4.3 20.7zM189.9 180.4c2.8-.2 5.8-2.5 4-2.5-3.9 0-14.3-2.7-19.3-1.9-3.8.6-10.7 3.3-14.2 4.9-3 1.4-10.8 8.9-2.4 10.5 1.3.3.9-.1 2.8-1.8.8 3.8 3.5 4.3 10.6 3 4.7-.9 17-2.9 22.9-8.6 1.3-1-2.2-2.9-4.4-3.6zM171.5 191c-9.6 1.2-6-.6-8.2-3.1.9-.8 5.5-4.7 6.2-5.1-3.4 15.3 18.6 3.4 10.7-2.5.8 0 2.5.2 4.4.2-.3.7.7 2.1 4.3 4.2-4 2.4-12.1 5.7-17.4 6.3zM274.5 234.9c-3.4.3-6.9.7-10.2 1.4-4.9-.4-15.8 5.9-31.1 9.4-1 .2-2.5 3.2-3.5 3.4-.8.1-3.5-1.2-4.3-1.1-9.9 1.4-22.3 4.6-29.2 8.6-4.5 2.7 1.1 2.2 2.9 3.5 1.8 1.3 5.1 2 6.3 3.9.8.9 1.6 1.9 2.4 2.7 5.8 6 11.6 12.8 21.1 11.1 17.6-3.3 25.5-3.2 33.8-17.5 1.4-2.3 6.6-11 7.9-13.4 4-6.8 12.6-13 3.9-12zm-21.9 31.4c-5.8 4.8-15.9 7.5-23.1 8-4.2.3-8.4.6-12.2-1.8-1.8-1.3-3.3-3-4.4-4.9 4.3 1.8 8.1 3.1 9.4 3.1 12.8-.2 25.3-4.1 35.9-11.3-1.2 2.7-3.2 5.1-5.6 6.9zm-6.9-4.5c-6.8 2-16.6 5.9-23.8 5.2-8-.8-13.2-7.4-21.2-9-2-.8 17.4-2.6 25.7-3.7 7.7-1 14.8-3.9 21.9-6.8 7.3-3 16.5-8.7 24.7-8.5-8.7 9.1-14.8 19.1-27.3 22.8zM286.4 252.3c-3.4 7.9-2.5-15.3-.5-20.3.9-2.4.7-8.9-3.3-8.4-2.4.3-.9-2.1 2.3-3 5.3-1.5 3.6 9.5 2.1 13-1.4 3.3.7 12.5-.6 18.7z"/>
  <path d="M416.9 347.4c-3.5-4.5-10.7-5.2-16.1-3.3-4.2-1.3-11.7-2.7-12.4-2.8-5.8-1.5-11.9-1.7-17.8-3.2s-27.9-10.7-36.7-10.1l.1-.2c.4-.6 3-2 3.8-3.3 1-1.6.9-5 .9-6.9 0-7.9-3.4-14.8-2.6-22.9 1.5-15.7 8.6-31.9 10.5-47.7 2-16.3 4.1-33.7 3.3-50.1-2.8-51.3-40.1-93.6-68.8-134-6.7-9.4-14.5-19.3-24.8-25.1-1.6-.9-18.3-12.1-22.6-9.8C235.2.6 198.1 1.8 178.8 8.6 115.1 31.3 84 109.6 64.2 167.2 53 199.7 37.3 237.7 43.5 272.7c1.7 9.5 12 18.9 15.1 27.8 3.1 8.8 3.4 17.7 2.4 26.9-.3 3.3-6.6 28.4-5.1 38.1-3.8 2-7.5 4.3-11 6.9-1 .8-7.5 5.7-4.9 8 2.7 2.3 3.5-2.6 5.1-3.7 7.5-5.1 15.7-8.2 23.7-12.1.7 3.4-4 18.9-2 18.9 5.2 0 8-17.9 5.1-21-2.2-2.3-7.3-1.1-12.6 1.3 1.7-10.9 10.4-35 10.7-38.7 1.8-21.3-16.2-35.9-18.3-56.1-4-39.1 12.2-79.9 24.9-116.1 10.3-29.2 20.5-59.2 38.6-84.8 17.7-25.2 44.5-50.6 76.4-54.4 11.4-1.4 31.2-1.3 37.4 10.8 3 5.9-2.2 12.7.2 18.1 2.5 5.8 1.2-2.6 13.1-2.6 4.7 0 12.5 3.7 16.3 6.4 9.7 6.9 17.7 14.2 24.2 23.9 29.5 43.9 61.3 85.5 60.6 141-.3 15.3-1.5 30.5-3.8 45.6-2 13.6-7.4 27.8-7.5 41.6 0 6.5 3 12.7 3 19.1 0 8.9-7.7.8-9.3 3.7-2.2 4 1.9 38.4 9.8 38.4 3.6 0-1.9-13.5-2.1-14.5-1.3-5.5-1.9-9.8-.8-13.7 3.1 1.3 8.9 2.1 9.8 2.4 6 2.2 12.7 3.4 18.9 5.2 9.6 2.9 24.3 7.3 35 7.8-5.6 5.2-8 14.9-11.7 21.3-8.8 15.3-22.5 24.4-37.2 33.5-17.7 10.8-35.9 21-55.6 27.7-9.6 3.3-19.5 5.6-29.6 6.9-2.5.3-14.3-.5-15.6.9-.6.7-3.7 3.7 0 3.7 41.3 0 79.4-20.4 113.1-42.6 14.2-9.4 24.3-20.4 31.9-35.6 2.9-5.8 5.7-15.4 13.4-15.9.7-.1 16.6 7 11.8.6z"/>
  <path d="M189.6 285.7c13.2 12.8 28.1 32.5 48.4 32.5 17 0 30.3-14 40.3-26.2 2.4-2.9 12.4-12.9 12.6-3.5.1 3.4 4.7 29.8 6.5 22 .5-2 .8-18.1.5-25.1-.1-3 1.7-20.9 5-26.2 4.2-6.7 5.7-11.4 6.5-19.3.9-7.7 1.7-13.9 1.9-21.7 0-2-.3-11.1-1.3-14.6 1.2-2.1 2.3-4 2.8-4.7 3.3-4.9 4.7-8.8 3.5-14.8-.9-5.1-2.7-17.1-8-18.3-5.6-1.2-12.4-1.9-13.7-17.4-1.3-16.9-19.4-21.2-29.7-33.2-9-10.5-12.1-22.4-15.4-35.4-1.1-4.1 0-11.7-3.8-14.2-2.3-1.5-13.4-2.6-12 0 2.5 4.4 3.4 8.3-9 7.3-4.4-.3-8.5-1.4-12.9-1-8.8.9-16.3 5.5-24.5 8.5-12.8 4.7-27.6 4.1-39.5 11.4-13.4 8.3-21.3 24.4-22.3 39.2-1.2 19 8.7 34.1 15.1 51.4 1.7 4.6 10.7 59.4 12 62.3 4.7 9.9 14.4 23.6 21.9 31 3.3 3.9 2.7 24.3 3 27.1.9 8.9 3 18.9 5.1 28.3 2.9 13.1 11.2 22.6 18.5 33.7 7.8 11.9 15.9 23.5 21.3 36.8 3 7.5 5.2 15.2 6.7 23.1.7 3.6 1.6 27.2 4.3 27.2 6.2 0-4-41.6-6.1-47.5-4.8-13.4-12.3-25.3-20.1-37.1-7.1-10.7-14.2-21.4-17.9-33.8-2.4-8.3-3.6-16.9-3.4-25.5 0-2.9 2.5-17.1 2.8-23.4l.9 1.1zm-26.4-36.1c-1.1-2.1-6-12.2-7.6-16.8-4.6-12.9-9.9-47.4-11.5-51.6-7.4-19.8-14.3-36.6-10.4-58.3 2.7-14.6 10-23 24.5-28.2 7.1-2.5 17.2-2.5 24.4-4.2 8.4-1.9 15.9-8 23.9-10.8 8.9-3.1 12.4-4 21.4-2.5 1.6.3 11.2 1.9 15.8 1 1.6 4.5 3.7 9.9 5 14.2 2.1 7.4 5.5 14.4 9.9 20.8 8.4 11.7 22.9 18.4 29.1 31.5 2.2 4.7 4.5 37.7 5.8 37.7 2.8 0 3.4-5.3 3-11.6 3.3 1.4 9.7 2.1 11.4 3.7 3.1 2.8 5.4 9.9 5.3 13.9-.1 3.2-14.8 24.3-9.6 24.3.4 0 1.2-.9 2.2-2.2-1 12.7-1 35.3-2.3 38.9-2.4 6.8-6.6 12.8-11 18.4-.5.7-5.1 5.8-6.5 9.1-3 3.2-5.7 6.5-8.3 10-8.7 10.9-19.3 23.7-33.5 26.9-18.2 4.1-32.7-11.5-44.3-23.1-13.3-13.2-28-24.1-36.7-41.1z"/>
  <path d="M202.2 224.6c-3 11.9 5.2 13.8 9.8 12.8 7.2-1.5 11.9 6.1 18.6-.2 2.3-2.2 3.3-5.5 5.7-7.5 2.4-2.1 7.1-2.9 9.4-4.7 4.1-3.2 3.8-12.6-2.7-14.3-5.6-1.5-7.5 2.9-4.1 1.9 3.1-.9 8.2 2.8 5.3 9-1.6 3.4-7.2 2.4-10 4.3-3 2-2.2 6.2-4.7 8.5-5.8 5.2-9.9-.5-16.4-1.5-2.5-.4-6.7 1.6-8.6-1.3 0 .1-.7-10.8-2.3-7z"/>
</svg>
