<svg xmlns="http://www.w3.org/2000/svg" viewBox="0 0 18.49 15.09">
  <path d="M15,5a1.5,1.5,0,1,1,1.5-1.5A1.5,1.5,0,0,1,15,5Zm0-2a.5.5,0,1,0,.5.5A.5.5,0,0,0,15,3Z"/>
  <path d="M17,0h-3.5a3.25,3.25,0,0,0-2.06.85L3.84,8.44a1.5,1.5,0,0,0,0,2.12h0l2.6,2.6-1.1.63a.5.5,0,0,1-.38,0,.49.49,0,0,1-.3-.23L1.06,7.38a.5.5,0,0,1,.19-.68h0l8-4.61a.5.5,0,0,0-.5-.87l-8,4.61a1.5,1.5,0,0,0-.55,2l3.6,6.23a1.49,1.49,0,0,0,.91.7,1.51,1.51,0,0,0,.39.05,1.49,1.49,0,0,0,.75-.2l1.32-.76.75.75a1.5,1.5,0,0,0,2.12,0h0l7.59-7.59A3.24,3.24,0,0,0,18.49,5V1.5A1.5,1.5,0,0,0,17,0Zm.5,5a2.31,2.31,0,0,1-.56,1.35L9.34,13.94a.5.5,0,0,1-.71,0h0L4.55,9.85A.49.49,0,0,1,4.4,9.5a.5.5,0,0,1,.14-.35l7.59-7.59A2.31,2.31,0,0,1,13.49,1H17a.5.5,0,0,1,.5.5Z"/>
</svg>
