<svg xmlns="http://www.w3.org/2000/svg" viewBox="0 0 62 52.7">
<path d="M35.5,18.6c-0.5,0-1-0.3-1.3-0.7c0,0-1.4-2.3-3.3-2.3s-3.2,2.3-3.2,2.3c-0.4,0.7-1.4,1-2.1,0.6c-0.7-0.4-1-1.4-0.6-2.1
	c0.1-0.2,2.3-3.8,5.9-3.8s5.8,3.6,5.9,3.8c0.4,0.7,0.2,1.7-0.6,2.1C36,18.6,35.7,18.7,35.5,18.6L35.5,18.6z M50.7,18.6
	c-0.5,0-1-0.3-1.3-0.8c0,0-1.4-2.3-3.2-2.3s-3.2,2.3-3.3,2.3c-0.4,0.7-1.4,1-2.1,0.6c-0.7-0.4-1-1.4-0.6-2.1l0,0
	c0.1-0.2,2.3-3.8,5.9-3.8c3.6,0,5.8,3.7,5.9,3.8c0.4,0.7,0.2,1.7-0.6,2.1C51.3,18.5,51,18.6,50.7,18.6L50.7,18.6z M38.5,37
	c-7,0-10.4-6.7-10.5-7c-0.4-0.8-0.1-1.7,0.7-2c0.2-0.1,0.5-0.2,0.7-0.2h18.3c0.8,0,1.5,0.7,1.5,1.5c0,0.2-0.1,0.5-0.2,0.7
	C48.9,30.3,45.5,36.9,38.5,37L38.5,37z M32.3,30.8c1.5,1.9,3.8,3,6.2,3.1c2.4-0.1,4.7-1.2,6.2-3.1H32.3z"/>
<path d="M60.8,0.6c-0.4-0.3-0.9-0.4-1.4-0.2c-6.8,2-13.8,3-20.9,3c-7,0-14.1-1-20.8-3c-0.8-0.3-1.7,0.2-1.9,1
	c-0.1,0.2-0.1,0.3-0.1,0.5c0,0.2,0,3.1,0.4,7.3C11.5,8.7,6.9,7.8,2.5,6.5c-0.8-0.3-1.7,0.2-1.9,1C0.5,7.6,0.5,7.8,0.5,7.9
	C0.6,13.1,1,18.2,1.9,23.3c0.7,4.4,1.8,8.7,3.3,12.9c1.4,4.1,3.7,8,6.7,11.2c3,3.1,7.2,4.9,11.5,4.9c5,0,9.3-2.1,12.8-6.3
	c0.8,0.1,1.6,0.2,2.5,0.2c5.4,0,9.9-2.5,13.6-7.3c2.8-3.7,5-8.9,6.6-15.3c1.7-7.1,2.6-14.4,2.7-21.8C61.5,1.4,61.3,0.9,60.8,0.6
	L60.8,0.6z M23.3,49.2c-3.5,0-6.9-1.4-9.3-4C5.3,36.5,3.8,16.4,3.5,10c4.2,1.1,8.5,1.8,12.8,2.2c0.2,1.5,0.4,3.2,0.7,4.9
	c0.2,1.2,0.4,2.5,0.7,3.6c-0.6,0.6-1.3,0.9-2.1,0.9c-1.9,0-3.2-2.3-3.2-2.3c-0.4-0.7-1.4-1-2.1-0.6s-1,1.4-0.6,2.1
	c0.1,0.1,2.3,3.8,5.9,3.8c1,0,2-0.3,2.9-0.8c0.5,2.1,1.1,4.1,1.9,6.1c0.5,1.5,1.2,2.9,1.9,4.3c-3.9,1.5-6.3,6.2-6.4,6.4
	c-0.4,0.8-0.1,1.7,0.7,2c0.2,0.1,0.4,0.2,0.7,0.2h12c1.1,0.8,2.3,1.5,3.6,2C30.2,47.6,26.8,49.1,23.3,49.2L23.3,49.2z M25.9,40h-5.9
	c0.9-1.3,2.3-2.3,3.8-2.9C24.4,38.1,25.1,39.1,25.9,40L25.9,40z M55.7,22.9c-1.5,6-3.5,10.7-6.1,14.1c-3.1,4.1-6.7,6.1-11.1,6.1
	c-2.9,0-5.6-1-7.9-2.8l-0.1,0c-0.5-0.4-1-0.8-1.4-1.3c-1.3-1.3-2.4-2.8-3.3-4.3l-0.1-0.1c-5.7-9.8-6.8-25.2-7-30.7
	c6.4,1.7,13,2.5,19.7,2.5c6.7,0,13.3-0.8,19.8-2.5C58.1,10.2,57.2,16.6,55.7,22.9L55.7,22.9z"/>
</svg>
