<svg xmlns="http://www.w3.org/2000/svg" viewBox="0 0 62 52.7">
  <path d="M35.5 18.6c-.5 0-1-.3-1.3-.7 0 0-1.4-2.3-3.3-2.3s-3.2 2.3-3.2 2.3c-.4.7-1.4 1-2.1.6-.7-.4-1-1.4-.6-2.1.1-.2 2.3-3.8 5.9-3.8s5.8 3.6 5.9 3.8c.4.7.2 1.7-.6 2.1-.2.1-.5.2-.7.1zm15.2 0c-.5 0-1-.3-1.3-.8 0 0-1.4-2.3-3.2-2.3s-3.2 2.3-3.3 2.3c-.4.7-1.4 1-2.1.6-.7-.4-1-1.4-.6-2.1.1-.2 2.3-3.8 5.9-3.8 3.6 0 5.8 3.7 5.9 3.8.4.7.2 1.7-.6 2.1-.1.1-.4.2-.7.2zM38.5 37c-7 0-10.4-6.7-10.5-7-.4-.8-.1-1.7.7-2 .2-.1.5-.2.7-.2h18.3c.8 0 1.5.7 1.5 1.5 0 .2-.1.5-.2.7-.1.3-3.5 6.9-10.5 7zm-6.2-6.2c1.5 1.9 3.8 3 6.2 3.1 2.4-.1 4.7-1.2 6.2-3.1H32.3z"/>
  <path d="M60.8.6c-.4-.3-.9-.4-1.4-.2-6.8 2-13.8 3-20.9 3-7 0-14.1-1-20.8-3-.8-.3-1.7.2-1.9 1-.1.2-.1.3-.1.5s0 3.1.4 7.3c-4.6-.5-9.2-1.4-13.6-2.7-.8-.3-1.7.2-1.9 1-.1.1-.1.3-.1.4.1 5.2.5 10.3 1.4 15.4.7 4.4 1.8 8.7 3.3 12.9 1.4 4.1 3.7 8 6.7 11.2 3 3.1 7.2 4.9 11.5 4.9 5 0 9.3-2.1 12.8-6.3.8.1 1.6.2 2.5.2 5.4 0 9.9-2.5 13.6-7.3 2.8-3.7 5-8.9 6.6-15.3 1.7-7.1 2.6-14.4 2.7-21.8-.1-.4-.3-.9-.8-1.2zM23.3 49.2c-3.5 0-6.9-1.4-9.3-4C5.3 36.5 3.8 16.4 3.5 10c4.2 1.1 8.5 1.8 12.8 2.2.2 1.5.4 3.2.7 4.9.2 1.2.4 2.5.7 3.6-.6.6-1.3.9-2.1.9-1.9 0-3.2-2.3-3.2-2.3-.4-.7-1.4-1-2.1-.6s-1 1.4-.6 2.1c.1.1 2.3 3.8 5.9 3.8 1 0 2-.3 2.9-.8.5 2.1 1.1 4.1 1.9 6.1.5 1.5 1.2 2.9 1.9 4.3-3.9 1.5-6.3 6.2-6.4 6.4-.4.8-.1 1.7.7 2 .2.1.4.2.7.2h12c1.1.8 2.3 1.5 3.6 2-2.7 2.8-6.1 4.3-9.6 4.4zm2.6-9.2H20c.9-1.3 2.3-2.3 3.8-2.9.6 1 1.3 2 2.1 2.9zm29.8-17.1c-1.5 6-3.5 10.7-6.1 14.1-3.1 4.1-6.7 6.1-11.1 6.1-2.9 0-5.6-1-7.9-2.8h-.1c-.5-.4-1-.8-1.4-1.3-1.3-1.3-2.4-2.8-3.3-4.3l-.1-.1c-5.7-9.8-6.8-25.2-7-30.7 6.4 1.7 13 2.5 19.7 2.5 6.7 0 13.3-.8 19.8-2.5-.1 6.3-1 12.7-2.5 19z"/>
</svg>
