<svg xmlns="http://www.w3.org/2000/svg" viewBox="0 0 62 46.4">
<path d="M56.9,46H23.4c-2.5,0-4.6-2.1-4.6-4.6l0,0c0.2-2.6,1.2-5.1,2.8-7c1.7-2.1,4-3.7,6.5-4.6c3.8-1.4,7.9-2.1,12-2
	c4.1-0.1,8.2,0.6,12,2c2.5,1,4.7,2.6,6.5,4.6c1.7,2,2.7,4.5,2.8,7.1C61.5,44,59.4,46.1,56.9,46L56.9,46L56.9,46z M21.9,41.5
	c0,0.8,0.7,1.5,1.5,1.5h0h33.5c0.8,0,1.5-0.7,1.5-1.5v0c-0.2-2-1-3.8-2.3-5.3c-3-3.5-8.5-5.4-16.1-5.4s-13.1,1.9-16,5.4
	C22.8,37.6,22,39.5,21.9,41.5L21.9,41.5z M40.2,24.7c-6.7,0-12.2-5.5-12.2-12.2S33.4,0.3,40.2,0.3s12.2,5.5,12.2,12.2
	C52.3,19.2,46.9,24.7,40.2,24.7L40.2,24.7z M40.2,3.4c-5.1,0-9.1,4.1-9.1,9.1c0,5.1,4.1,9.1,9.1,9.1c5.1,0,9.1-4.1,9.1-9.1
	C49.3,7.5,45.2,3.4,40.2,3.4z M14.2,46H5.1c-2.5,0-4.6-2.1-4.6-4.6l0,0c0.1-2,0.8-3.9,2-5.5c1.2-1.6,2.8-2.8,4.7-3.6
	c2.7-1.1,5.6-1.6,8.5-1.5c0.5,0,1.1,0,1.6,0c0.8,0.2,1.4,1,1.2,1.8c-0.1,0.7-0.7,1.2-1.4,1.2c-0.5,0-1,0-1.4,0
	c-11.9,0-12.2,7.3-12.2,7.6c0,0.8,0.7,1.5,1.5,1.5h9.2c0.8,0,1.5,0.7,1.5,1.5C15.8,45.3,15.1,46,14.2,46C14.3,46,14.3,46,14.2,46
	L14.2,46z M15.8,27.7c-5.1,0-9.1-4.1-9.1-9.1c0-5.1,4.1-9.1,9.1-9.1c5.1,0,9.1,4.1,9.1,9.1C24.9,23.7,20.8,27.7,15.8,27.7L15.8,27.7
	z M15.8,12.5c-3.4,0-6.1,2.7-6.1,6.1s2.7,6.1,6.1,6.1s6.1-2.7,6.1-6.1v0C21.8,15.2,19.1,12.5,15.8,12.5z"/>
</svg>
