<svg xmlns="http://www.w3.org/2000/svg" viewBox="0 0 62 46.4">
  <path d="M56.9 46H23.4c-2.5 0-4.6-2.1-4.6-4.6.2-2.6 1.2-5.1 2.8-7 1.7-2.1 4-3.7 6.5-4.6 3.8-1.4 7.9-2.1 12-2 4.1-.1 8.2.6 12 2 2.5 1 4.7 2.6 6.5 4.6 1.7 2 2.7 4.5 2.8 7.1.1 2.5-2 4.6-4.5 4.5zm-35-4.5c0 .8.7 1.5 1.5 1.5h33.5c.8 0 1.5-.7 1.5-1.5-.2-2-1-3.8-2.3-5.3-3-3.5-8.5-5.4-16.1-5.4s-13.1 1.9-16 5.4c-1.2 1.4-2 3.3-2.1 5.3zm18.3-16.8c-6.7 0-12.2-5.5-12.2-12.2S33.4.3 40.2.3s12.2 5.5 12.2 12.2c-.1 6.7-5.5 12.2-12.2 12.2zm0-21.3c-5.1 0-9.1 4.1-9.1 9.1 0 5.1 4.1 9.1 9.1 9.1 5.1 0 9.1-4.1 9.1-9.1s-4.1-9.1-9.1-9.1zM14.2 46H5.1C2.6 46 .5 43.9.5 41.4c.1-2 .8-3.9 2-5.5s2.8-2.8 4.7-3.6c2.7-1.1 5.6-1.6 8.5-1.5h1.6c.8.2 1.4 1 1.2 1.8-.1.7-.7 1.2-1.4 1.2h-1.4c-11.9 0-12.2 7.3-12.2 7.6 0 .8.7 1.5 1.5 1.5h9.2c.8 0 1.5.7 1.5 1.5.1.9-.6 1.6-1.5 1.6.1 0 .1 0 0 0zm1.6-18.3c-5.1 0-9.1-4.1-9.1-9.1 0-5.1 4.1-9.1 9.1-9.1 5.1 0 9.1 4.1 9.1 9.1 0 5.1-4.1 9.1-9.1 9.1zm0-15.2c-3.4 0-6.1 2.7-6.1 6.1s2.7 6.1 6.1 6.1 6.1-2.7 6.1-6.1c-.1-3.4-2.8-6.1-6.1-6.1z"/>
</svg>
